<?xml version="1.0" encoding="utf-8" standalone="no"?>
<!DOCTYPE svg PUBLIC "-//W3C//DTD SVG 1.1//EN"
  "http://www.w3.org/Graphics/SVG/1.1/DTD/svg11.dtd">
<svg xmlns:xlink="http://www.w3.org/1999/xlink" width="720pt" height="432pt" viewBox="0 0 720 432" xmlns="http://www.w3.org/2000/svg" version="1.1">
 <metadata>
  <rdf:RDF xmlns:dc="http://purl.org/dc/elements/1.1/" xmlns:cc="http://creativecommons.org/ns#" xmlns:rdf="http://www.w3.org/1999/02/22-rdf-syntax-ns#">
   <cc:Work>
    <dc:type rdf:resource="http://purl.org/dc/dcmitype/StillImage"/>
    <dc:date>2026-01-03T18:40:58.843568</dc:date>
    <dc:format>image/svg+xml</dc:format>
    <dc:creator>
     <cc:Agent>
      <dc:title>Matplotlib v3.10.7, https://matplotlib.org/</dc:title>
     </cc:Agent>
    </dc:creator>
   </cc:Work>
  </rdf:RDF>
 </metadata>
 <defs>
  <style type="text/css">*{stroke-linejoin: round; stroke-linecap: butt}</style>
 </defs>
 <g id="figure_1">
  <g id="patch_1">
   <path d="M 0 432 
L 720 432 
L 720 0 
L 0 0 
z
" style="fill: #ffffff"/>
  </g>
  <g id="axes_1">
   <g id="patch_2">
    <path d="M 49.79 402.32 
L 672.46 402.32 
L 672.46 27.96 
L 49.79 27.96 
z
" style="fill: #ffffff"/>
   </g>
   <g id="matplotlib.axis_1">
    <g id="xtick_1">
     <g id="line2d_1">
      <path d="M 78.093182 402.32 
L 78.093182 27.96 
" clip-path="url(#ped1b482820)" style="fill: none; stroke: #b0b0b0; stroke-opacity: 0.5; stroke-width: 0.8; stroke-linecap: square"/>
     </g>
     <g id="line2d_2">
      <defs>
       <path id="mfe43ec453a" d="M 0 0 
L 0 3.5 
" style="stroke: #000000; stroke-width: 0.8"/>
      </defs>
      <g>
       <use xlink:href="#mfe43ec453a" x="78.093182" y="402.32" style="stroke: #000000; stroke-width: 0.8"/>
      </g>
     </g>
     <g id="text_1">
      <!-- 01.11 00h -->
      <g transform="translate(50.115369 417.678281) scale(0.11 -0.11)">
       <defs>
        <path id="DejaVuSans-30" d="M 2034 4250 
Q 1547 4250 1301 3770 
Q 1056 3291 1056 2328 
Q 1056 1369 1301 889 
Q 1547 409 2034 409 
Q 2525 409 2770 889 
Q 3016 1369 3016 2328 
Q 3016 3291 2770 3770 
Q 2525 4250 2034 4250 
z
M 2034 4750 
Q 2819 4750 3233 4129 
Q 3647 3509 3647 2328 
Q 3647 1150 3233 529 
Q 2819 -91 2034 -91 
Q 1250 -91 836 529 
Q 422 1150 422 2328 
Q 422 3509 836 4129 
Q 1250 4750 2034 4750 
z
" transform="scale(0.015625)"/>
        <path id="DejaVuSans-31" d="M 794 531 
L 1825 531 
L 1825 4091 
L 703 3866 
L 703 4441 
L 1819 4666 
L 2450 4666 
L 2450 531 
L 3481 531 
L 3481 0 
L 794 0 
L 794 531 
z
" transform="scale(0.015625)"/>
        <path id="DejaVuSans-2e" d="M 684 794 
L 1344 794 
L 1344 0 
L 684 0 
L 684 794 
z
" transform="scale(0.015625)"/>
        <path id="DejaVuSans-20" transform="scale(0.015625)"/>
        <path id="DejaVuSans-68" d="M 3513 2113 
L 3513 0 
L 2938 0 
L 2938 2094 
Q 2938 2591 2744 2837 
Q 2550 3084 2163 3084 
Q 1697 3084 1428 2787 
Q 1159 2491 1159 1978 
L 1159 0 
L 581 0 
L 581 4863 
L 1159 4863 
L 1159 2956 
Q 1366 3272 1645 3428 
Q 1925 3584 2291 3584 
Q 2894 3584 3203 3211 
Q 3513 2838 3513 2113 
z
" transform="scale(0.015625)"/>
       </defs>
       <use xlink:href="#DejaVuSans-30"/>
       <use xlink:href="#DejaVuSans-31" transform="translate(63.623047 0)"/>
       <use xlink:href="#DejaVuSans-2e" transform="translate(127.246094 0)"/>
       <use xlink:href="#DejaVuSans-31" transform="translate(159.033203 0)"/>
       <use xlink:href="#DejaVuSans-31" transform="translate(222.65625 0)"/>
       <use xlink:href="#DejaVuSans-20" transform="translate(286.279297 0)"/>
       <use xlink:href="#DejaVuSans-30" transform="translate(318.066406 0)"/>
       <use xlink:href="#DejaVuSans-30" transform="translate(381.689453 0)"/>
       <use xlink:href="#DejaVuSans-68" transform="translate(445.3125 0)"/>
      </g>
     </g>
    </g>
    <g id="xtick_2">
     <g id="line2d_3">
      <path d="M 219.978584 402.32 
L 219.978584 27.96 
" clip-path="url(#ped1b482820)" style="fill: none; stroke: #b0b0b0; stroke-opacity: 0.5; stroke-width: 0.8; stroke-linecap: square"/>
     </g>
     <g id="line2d_4">
      <g>
       <use xlink:href="#mfe43ec453a" x="219.978584" y="402.32" style="stroke: #000000; stroke-width: 0.8"/>
      </g>
     </g>
     <g id="text_2">
      <!-- 02.11 00h -->
      <g transform="translate(192.000772 417.678281) scale(0.11 -0.11)">
       <defs>
        <path id="DejaVuSans-32" d="M 1228 531 
L 3431 531 
L 3431 0 
L 469 0 
L 469 531 
Q 828 903 1448 1529 
Q 2069 2156 2228 2338 
Q 2531 2678 2651 2914 
Q 2772 3150 2772 3378 
Q 2772 3750 2511 3984 
Q 2250 4219 1831 4219 
Q 1534 4219 1204 4116 
Q 875 4013 500 3803 
L 500 4441 
Q 881 4594 1212 4672 
Q 1544 4750 1819 4750 
Q 2544 4750 2975 4387 
Q 3406 4025 3406 3419 
Q 3406 3131 3298 2873 
Q 3191 2616 2906 2266 
Q 2828 2175 2409 1742 
Q 1991 1309 1228 531 
z
" transform="scale(0.015625)"/>
       </defs>
       <use xlink:href="#DejaVuSans-30"/>
       <use xlink:href="#DejaVuSans-32" transform="translate(63.623047 0)"/>
       <use xlink:href="#DejaVuSans-2e" transform="translate(127.246094 0)"/>
       <use xlink:href="#DejaVuSans-31" transform="translate(159.033203 0)"/>
       <use xlink:href="#DejaVuSans-31" transform="translate(222.65625 0)"/>
       <use xlink:href="#DejaVuSans-20" transform="translate(286.279297 0)"/>
       <use xlink:href="#DejaVuSans-30" transform="translate(318.066406 0)"/>
       <use xlink:href="#DejaVuSans-30" transform="translate(381.689453 0)"/>
       <use xlink:href="#DejaVuSans-68" transform="translate(445.3125 0)"/>
      </g>
     </g>
    </g>
    <g id="xtick_3">
     <g id="line2d_5">
      <path d="M 361.863986 402.32 
L 361.863986 27.96 
" clip-path="url(#ped1b482820)" style="fill: none; stroke: #b0b0b0; stroke-opacity: 0.5; stroke-width: 0.8; stroke-linecap: square"/>
     </g>
     <g id="line2d_6">
      <g>
       <use xlink:href="#mfe43ec453a" x="361.863986" y="402.32" style="stroke: #000000; stroke-width: 0.8"/>
      </g>
     </g>
     <g id="text_3">
      <!-- 03.11 00h -->
      <g transform="translate(333.886174 417.678281) scale(0.11 -0.11)">
       <defs>
        <path id="DejaVuSans-33" d="M 2597 2516 
Q 3050 2419 3304 2112 
Q 3559 1806 3559 1356 
Q 3559 666 3084 287 
Q 2609 -91 1734 -91 
Q 1441 -91 1130 -33 
Q 819 25 488 141 
L 488 750 
Q 750 597 1062 519 
Q 1375 441 1716 441 
Q 2309 441 2620 675 
Q 2931 909 2931 1356 
Q 2931 1769 2642 2001 
Q 2353 2234 1838 2234 
L 1294 2234 
L 1294 2753 
L 1863 2753 
Q 2328 2753 2575 2939 
Q 2822 3125 2822 3475 
Q 2822 3834 2567 4026 
Q 2313 4219 1838 4219 
Q 1578 4219 1281 4162 
Q 984 4106 628 3988 
L 628 4550 
Q 988 4650 1302 4700 
Q 1616 4750 1894 4750 
Q 2613 4750 3031 4423 
Q 3450 4097 3450 3541 
Q 3450 3153 3228 2886 
Q 3006 2619 2597 2516 
z
" transform="scale(0.015625)"/>
       </defs>
       <use xlink:href="#DejaVuSans-30"/>
       <use xlink:href="#DejaVuSans-33" transform="translate(63.623047 0)"/>
       <use xlink:href="#DejaVuSans-2e" transform="translate(127.246094 0)"/>
       <use xlink:href="#DejaVuSans-31" transform="translate(159.033203 0)"/>
       <use xlink:href="#DejaVuSans-31" transform="translate(222.65625 0)"/>
       <use xlink:href="#DejaVuSans-20" transform="translate(286.279297 0)"/>
       <use xlink:href="#DejaVuSans-30" transform="translate(318.066406 0)"/>
       <use xlink:href="#DejaVuSans-30" transform="translate(381.689453 0)"/>
       <use xlink:href="#DejaVuSans-68" transform="translate(445.3125 0)"/>
      </g>
     </g>
    </g>
    <g id="xtick_4">
     <g id="line2d_7">
      <path d="M 503.749389 402.32 
L 503.749389 27.96 
" clip-path="url(#ped1b482820)" style="fill: none; stroke: #b0b0b0; stroke-opacity: 0.5; stroke-width: 0.8; stroke-linecap: square"/>
     </g>
     <g id="line2d_8">
      <g>
       <use xlink:href="#mfe43ec453a" x="503.749389" y="402.32" style="stroke: #000000; stroke-width: 0.8"/>
      </g>
     </g>
     <g id="text_4">
      <!-- 04.11 00h -->
      <g transform="translate(475.771576 417.678281) scale(0.11 -0.11)">
       <defs>
        <path id="DejaVuSans-34" d="M 2419 4116 
L 825 1625 
L 2419 1625 
L 2419 4116 
z
M 2253 4666 
L 3047 4666 
L 3047 1625 
L 3713 1625 
L 3713 1100 
L 3047 1100 
L 3047 0 
L 2419 0 
L 2419 1100 
L 313 1100 
L 313 1709 
L 2253 4666 
z
" transform="scale(0.015625)"/>
       </defs>
       <use xlink:href="#DejaVuSans-30"/>
       <use xlink:href="#DejaVuSans-34" transform="translate(63.623047 0)"/>
       <use xlink:href="#DejaVuSans-2e" transform="translate(127.246094 0)"/>
       <use xlink:href="#DejaVuSans-31" transform="translate(159.033203 0)"/>
       <use xlink:href="#DejaVuSans-31" transform="translate(222.65625 0)"/>
       <use xlink:href="#DejaVuSans-20" transform="translate(286.279297 0)"/>
       <use xlink:href="#DejaVuSans-30" transform="translate(318.066406 0)"/>
       <use xlink:href="#DejaVuSans-30" transform="translate(381.689453 0)"/>
       <use xlink:href="#DejaVuSans-68" transform="translate(445.3125 0)"/>
      </g>
     </g>
    </g>
    <g id="xtick_5">
     <g id="line2d_9">
      <path d="M 645.634791 402.32 
L 645.634791 27.96 
" clip-path="url(#ped1b482820)" style="fill: none; stroke: #b0b0b0; stroke-opacity: 0.5; stroke-width: 0.8; stroke-linecap: square"/>
     </g>
     <g id="line2d_10">
      <g>
       <use xlink:href="#mfe43ec453a" x="645.634791" y="402.32" style="stroke: #000000; stroke-width: 0.8"/>
      </g>
     </g>
     <g id="text_5">
      <!-- 05.11 00h -->
      <g transform="translate(617.656979 417.678281) scale(0.11 -0.11)">
       <defs>
        <path id="DejaVuSans-35" d="M 691 4666 
L 3169 4666 
L 3169 4134 
L 1269 4134 
L 1269 2991 
Q 1406 3038 1543 3061 
Q 1681 3084 1819 3084 
Q 2600 3084 3056 2656 
Q 3513 2228 3513 1497 
Q 3513 744 3044 326 
Q 2575 -91 1722 -91 
Q 1428 -91 1123 -41 
Q 819 9 494 109 
L 494 744 
Q 775 591 1075 516 
Q 1375 441 1709 441 
Q 2250 441 2565 725 
Q 2881 1009 2881 1497 
Q 2881 1984 2565 2268 
Q 2250 2553 1709 2553 
Q 1456 2553 1204 2497 
Q 953 2441 691 2322 
L 691 4666 
z
" transform="scale(0.015625)"/>
       </defs>
       <use xlink:href="#DejaVuSans-30"/>
       <use xlink:href="#DejaVuSans-35" transform="translate(63.623047 0)"/>
       <use xlink:href="#DejaVuSans-2e" transform="translate(127.246094 0)"/>
       <use xlink:href="#DejaVuSans-31" transform="translate(159.033203 0)"/>
       <use xlink:href="#DejaVuSans-31" transform="translate(222.65625 0)"/>
       <use xlink:href="#DejaVuSans-20" transform="translate(286.279297 0)"/>
       <use xlink:href="#DejaVuSans-30" transform="translate(318.066406 0)"/>
       <use xlink:href="#DejaVuSans-30" transform="translate(381.689453 0)"/>
       <use xlink:href="#DejaVuSans-68" transform="translate(445.3125 0)"/>
      </g>
     </g>
    </g>
   </g>
   <g id="matplotlib.axis_2">
    <g id="ytick_1">
     <g id="line2d_11">
      <path d="M 49.79 373.285188 
L 672.46 373.285188 
" clip-path="url(#ped1b482820)" style="fill: none; stroke: #b0b0b0; stroke-opacity: 0.5; stroke-width: 0.8; stroke-linecap: square"/>
     </g>
     <g id="line2d_12">
      <defs>
       <path id="md5866dd9fd" d="M 0 0 
L -3.5 0 
" style="stroke: #000000; stroke-width: 0.8"/>
      </defs>
      <g>
       <use xlink:href="#md5866dd9fd" x="49.79" y="373.285188" style="stroke: #000000; stroke-width: 0.8"/>
      </g>
     </g>
     <g id="text_6">
      <!-- −4 -->
      <g transform="translate(26.573594 377.464329) scale(0.11 -0.11)">
       <defs>
        <path id="DejaVuSans-2212" d="M 678 2272 
L 4684 2272 
L 4684 1741 
L 678 1741 
L 678 2272 
z
" transform="scale(0.015625)"/>
       </defs>
       <use xlink:href="#DejaVuSans-2212"/>
       <use xlink:href="#DejaVuSans-34" transform="translate(83.789062 0)"/>
      </g>
     </g>
    </g>
    <g id="ytick_2">
     <g id="line2d_13">
      <path d="M 49.79 326.383928 
L 672.46 326.383928 
" clip-path="url(#ped1b482820)" style="fill: none; stroke: #b0b0b0; stroke-opacity: 0.5; stroke-width: 0.8; stroke-linecap: square"/>
     </g>
     <g id="line2d_14">
      <g>
       <use xlink:href="#md5866dd9fd" x="49.79" y="326.383928" style="stroke: #000000; stroke-width: 0.8"/>
      </g>
     </g>
     <g id="text_7">
      <!-- −2 -->
      <g transform="translate(26.573594 330.563068) scale(0.11 -0.11)">
       <use xlink:href="#DejaVuSans-2212"/>
       <use xlink:href="#DejaVuSans-32" transform="translate(83.789062 0)"/>
      </g>
     </g>
    </g>
    <g id="ytick_3">
     <g id="line2d_15">
      <path d="M 49.79 279.482667 
L 672.46 279.482667 
" clip-path="url(#ped1b482820)" style="fill: none; stroke: #b0b0b0; stroke-opacity: 0.5; stroke-width: 0.8; stroke-linecap: square"/>
     </g>
     <g id="line2d_16">
      <g>
       <use xlink:href="#md5866dd9fd" x="49.79" y="279.482667" style="stroke: #000000; stroke-width: 0.8"/>
      </g>
     </g>
     <g id="text_8">
      <!-- 0 -->
      <g transform="translate(35.79125 283.661808) scale(0.11 -0.11)">
       <use xlink:href="#DejaVuSans-30"/>
      </g>
     </g>
    </g>
    <g id="ytick_4">
     <g id="line2d_17">
      <path d="M 49.79 232.581406 
L 672.46 232.581406 
" clip-path="url(#ped1b482820)" style="fill: none; stroke: #b0b0b0; stroke-opacity: 0.5; stroke-width: 0.8; stroke-linecap: square"/>
     </g>
     <g id="line2d_18">
      <g>
       <use xlink:href="#md5866dd9fd" x="49.79" y="232.581406" style="stroke: #000000; stroke-width: 0.8"/>
      </g>
     </g>
     <g id="text_9">
      <!-- 2 -->
      <g transform="translate(35.79125 236.760547) scale(0.11 -0.11)">
       <use xlink:href="#DejaVuSans-32"/>
      </g>
     </g>
    </g>
    <g id="ytick_5">
     <g id="line2d_19">
      <path d="M 49.79 185.680146 
L 672.46 185.680146 
" clip-path="url(#ped1b482820)" style="fill: none; stroke: #b0b0b0; stroke-opacity: 0.5; stroke-width: 0.8; stroke-linecap: square"/>
     </g>
     <g id="line2d_20">
      <g>
       <use xlink:href="#md5866dd9fd" x="49.79" y="185.680146" style="stroke: #000000; stroke-width: 0.8"/>
      </g>
     </g>
     <g id="text_10">
      <!-- 4 -->
      <g transform="translate(35.79125 189.859286) scale(0.11 -0.11)">
       <use xlink:href="#DejaVuSans-34"/>
      </g>
     </g>
    </g>
    <g id="ytick_6">
     <g id="line2d_21">
      <path d="M 49.79 138.778885 
L 672.46 138.778885 
" clip-path="url(#ped1b482820)" style="fill: none; stroke: #b0b0b0; stroke-opacity: 0.5; stroke-width: 0.8; stroke-linecap: square"/>
     </g>
     <g id="line2d_22">
      <g>
       <use xlink:href="#md5866dd9fd" x="49.79" y="138.778885" style="stroke: #000000; stroke-width: 0.8"/>
      </g>
     </g>
     <g id="text_11">
      <!-- 6 -->
      <g transform="translate(35.79125 142.958026) scale(0.11 -0.11)">
       <defs>
        <path id="DejaVuSans-36" d="M 2113 2584 
Q 1688 2584 1439 2293 
Q 1191 2003 1191 1497 
Q 1191 994 1439 701 
Q 1688 409 2113 409 
Q 2538 409 2786 701 
Q 3034 994 3034 1497 
Q 3034 2003 2786 2293 
Q 2538 2584 2113 2584 
z
M 3366 4563 
L 3366 3988 
Q 3128 4100 2886 4159 
Q 2644 4219 2406 4219 
Q 1781 4219 1451 3797 
Q 1122 3375 1075 2522 
Q 1259 2794 1537 2939 
Q 1816 3084 2150 3084 
Q 2853 3084 3261 2657 
Q 3669 2231 3669 1497 
Q 3669 778 3244 343 
Q 2819 -91 2113 -91 
Q 1303 -91 875 529 
Q 447 1150 447 2328 
Q 447 3434 972 4092 
Q 1497 4750 2381 4750 
Q 2619 4750 2861 4703 
Q 3103 4656 3366 4563 
z
" transform="scale(0.015625)"/>
       </defs>
       <use xlink:href="#DejaVuSans-36"/>
      </g>
     </g>
    </g>
    <g id="ytick_7">
     <g id="line2d_23">
      <path d="M 49.79 91.877624 
L 672.46 91.877624 
" clip-path="url(#ped1b482820)" style="fill: none; stroke: #b0b0b0; stroke-opacity: 0.5; stroke-width: 0.8; stroke-linecap: square"/>
     </g>
     <g id="line2d_24">
      <g>
       <use xlink:href="#md5866dd9fd" x="49.79" y="91.877624" style="stroke: #000000; stroke-width: 0.8"/>
      </g>
     </g>
     <g id="text_12">
      <!-- 8 -->
      <g transform="translate(35.79125 96.056765) scale(0.11 -0.11)">
       <defs>
        <path id="DejaVuSans-38" d="M 2034 2216 
Q 1584 2216 1326 1975 
Q 1069 1734 1069 1313 
Q 1069 891 1326 650 
Q 1584 409 2034 409 
Q 2484 409 2743 651 
Q 3003 894 3003 1313 
Q 3003 1734 2745 1975 
Q 2488 2216 2034 2216 
z
M 1403 2484 
Q 997 2584 770 2862 
Q 544 3141 544 3541 
Q 544 4100 942 4425 
Q 1341 4750 2034 4750 
Q 2731 4750 3128 4425 
Q 3525 4100 3525 3541 
Q 3525 3141 3298 2862 
Q 3072 2584 2669 2484 
Q 3125 2378 3379 2068 
Q 3634 1759 3634 1313 
Q 3634 634 3220 271 
Q 2806 -91 2034 -91 
Q 1263 -91 848 271 
Q 434 634 434 1313 
Q 434 1759 690 2068 
Q 947 2378 1403 2484 
z
M 1172 3481 
Q 1172 3119 1398 2916 
Q 1625 2713 2034 2713 
Q 2441 2713 2670 2916 
Q 2900 3119 2900 3481 
Q 2900 3844 2670 4047 
Q 2441 4250 2034 4250 
Q 1625 4250 1398 4047 
Q 1172 3844 1172 3481 
z
" transform="scale(0.015625)"/>
       </defs>
       <use xlink:href="#DejaVuSans-38"/>
      </g>
     </g>
    </g>
    <g id="ytick_8">
     <g id="line2d_25">
      <path d="M 49.79 44.976364 
L 672.46 44.976364 
" clip-path="url(#ped1b482820)" style="fill: none; stroke: #b0b0b0; stroke-opacity: 0.5; stroke-width: 0.8; stroke-linecap: square"/>
     </g>
     <g id="line2d_26">
      <g>
       <use xlink:href="#md5866dd9fd" x="49.79" y="44.976364" style="stroke: #000000; stroke-width: 0.8"/>
      </g>
     </g>
     <g id="text_13">
      <!-- 10 -->
      <g transform="translate(28.7925 49.155504) scale(0.11 -0.11)">
       <use xlink:href="#DejaVuSans-31"/>
       <use xlink:href="#DejaVuSans-30" transform="translate(63.623047 0)"/>
      </g>
     </g>
    </g>
    <g id="text_14">
     <!-- Leistung [MW] -->
     <g transform="translate(20.285938 254.727969) rotate(-90) scale(0.11 -0.11)">
      <defs>
       <path id="DejaVuSans-4c" d="M 628 4666 
L 1259 4666 
L 1259 531 
L 3531 531 
L 3531 0 
L 628 0 
L 628 4666 
z
" transform="scale(0.015625)"/>
       <path id="DejaVuSans-65" d="M 3597 1894 
L 3597 1613 
L 953 1613 
Q 991 1019 1311 708 
Q 1631 397 2203 397 
Q 2534 397 2845 478 
Q 3156 559 3463 722 
L 3463 178 
Q 3153 47 2828 -22 
Q 2503 -91 2169 -91 
Q 1331 -91 842 396 
Q 353 884 353 1716 
Q 353 2575 817 3079 
Q 1281 3584 2069 3584 
Q 2775 3584 3186 3129 
Q 3597 2675 3597 1894 
z
M 3022 2063 
Q 3016 2534 2758 2815 
Q 2500 3097 2075 3097 
Q 1594 3097 1305 2825 
Q 1016 2553 972 2059 
L 3022 2063 
z
" transform="scale(0.015625)"/>
       <path id="DejaVuSans-69" d="M 603 3500 
L 1178 3500 
L 1178 0 
L 603 0 
L 603 3500 
z
M 603 4863 
L 1178 4863 
L 1178 4134 
L 603 4134 
L 603 4863 
z
" transform="scale(0.015625)"/>
       <path id="DejaVuSans-73" d="M 2834 3397 
L 2834 2853 
Q 2591 2978 2328 3040 
Q 2066 3103 1784 3103 
Q 1356 3103 1142 2972 
Q 928 2841 928 2578 
Q 928 2378 1081 2264 
Q 1234 2150 1697 2047 
L 1894 2003 
Q 2506 1872 2764 1633 
Q 3022 1394 3022 966 
Q 3022 478 2636 193 
Q 2250 -91 1575 -91 
Q 1294 -91 989 -36 
Q 684 19 347 128 
L 347 722 
Q 666 556 975 473 
Q 1284 391 1588 391 
Q 1994 391 2212 530 
Q 2431 669 2431 922 
Q 2431 1156 2273 1281 
Q 2116 1406 1581 1522 
L 1381 1569 
Q 847 1681 609 1914 
Q 372 2147 372 2553 
Q 372 3047 722 3315 
Q 1072 3584 1716 3584 
Q 2034 3584 2315 3537 
Q 2597 3491 2834 3397 
z
" transform="scale(0.015625)"/>
       <path id="DejaVuSans-74" d="M 1172 4494 
L 1172 3500 
L 2356 3500 
L 2356 3053 
L 1172 3053 
L 1172 1153 
Q 1172 725 1289 603 
Q 1406 481 1766 481 
L 2356 481 
L 2356 0 
L 1766 0 
Q 1100 0 847 248 
Q 594 497 594 1153 
L 594 3053 
L 172 3053 
L 172 3500 
L 594 3500 
L 594 4494 
L 1172 4494 
z
" transform="scale(0.015625)"/>
       <path id="DejaVuSans-75" d="M 544 1381 
L 544 3500 
L 1119 3500 
L 1119 1403 
Q 1119 906 1312 657 
Q 1506 409 1894 409 
Q 2359 409 2629 706 
Q 2900 1003 2900 1516 
L 2900 3500 
L 3475 3500 
L 3475 0 
L 2900 0 
L 2900 538 
Q 2691 219 2414 64 
Q 2138 -91 1772 -91 
Q 1169 -91 856 284 
Q 544 659 544 1381 
z
M 1991 3584 
L 1991 3584 
z
" transform="scale(0.015625)"/>
       <path id="DejaVuSans-6e" d="M 3513 2113 
L 3513 0 
L 2938 0 
L 2938 2094 
Q 2938 2591 2744 2837 
Q 2550 3084 2163 3084 
Q 1697 3084 1428 2787 
Q 1159 2491 1159 1978 
L 1159 0 
L 581 0 
L 581 3500 
L 1159 3500 
L 1159 2956 
Q 1366 3272 1645 3428 
Q 1925 3584 2291 3584 
Q 2894 3584 3203 3211 
Q 3513 2838 3513 2113 
z
" transform="scale(0.015625)"/>
       <path id="DejaVuSans-67" d="M 2906 1791 
Q 2906 2416 2648 2759 
Q 2391 3103 1925 3103 
Q 1463 3103 1205 2759 
Q 947 2416 947 1791 
Q 947 1169 1205 825 
Q 1463 481 1925 481 
Q 2391 481 2648 825 
Q 2906 1169 2906 1791 
z
M 3481 434 
Q 3481 -459 3084 -895 
Q 2688 -1331 1869 -1331 
Q 1566 -1331 1297 -1286 
Q 1028 -1241 775 -1147 
L 775 -588 
Q 1028 -725 1275 -790 
Q 1522 -856 1778 -856 
Q 2344 -856 2625 -561 
Q 2906 -266 2906 331 
L 2906 616 
Q 2728 306 2450 153 
Q 2172 0 1784 0 
Q 1141 0 747 490 
Q 353 981 353 1791 
Q 353 2603 747 3093 
Q 1141 3584 1784 3584 
Q 2172 3584 2450 3431 
Q 2728 3278 2906 2969 
L 2906 3500 
L 3481 3500 
L 3481 434 
z
" transform="scale(0.015625)"/>
       <path id="DejaVuSans-5b" d="M 550 4863 
L 1875 4863 
L 1875 4416 
L 1125 4416 
L 1125 -397 
L 1875 -397 
L 1875 -844 
L 550 -844 
L 550 4863 
z
" transform="scale(0.015625)"/>
       <path id="DejaVuSans-4d" d="M 628 4666 
L 1569 4666 
L 2759 1491 
L 3956 4666 
L 4897 4666 
L 4897 0 
L 4281 0 
L 4281 4097 
L 3078 897 
L 2444 897 
L 1241 4097 
L 1241 0 
L 628 0 
L 628 4666 
z
" transform="scale(0.015625)"/>
       <path id="DejaVuSans-57" d="M 213 4666 
L 850 4666 
L 1831 722 
L 2809 4666 
L 3519 4666 
L 4500 722 
L 5478 4666 
L 6119 4666 
L 4947 0 
L 4153 0 
L 3169 4050 
L 2175 0 
L 1381 0 
L 213 4666 
z
" transform="scale(0.015625)"/>
       <path id="DejaVuSans-5d" d="M 1947 4863 
L 1947 -844 
L 622 -844 
L 622 -397 
L 1369 -397 
L 1369 4416 
L 622 4416 
L 622 4863 
L 1947 4863 
z
" transform="scale(0.015625)"/>
      </defs>
      <use xlink:href="#DejaVuSans-4c"/>
      <use xlink:href="#DejaVuSans-65" transform="translate(53.962891 0)"/>
      <use xlink:href="#DejaVuSans-69" transform="translate(115.486328 0)"/>
      <use xlink:href="#DejaVuSans-73" transform="translate(143.269531 0)"/>
      <use xlink:href="#DejaVuSans-74" transform="translate(195.369141 0)"/>
      <use xlink:href="#DejaVuSans-75" transform="translate(234.578125 0)"/>
      <use xlink:href="#DejaVuSans-6e" transform="translate(297.957031 0)"/>
      <use xlink:href="#DejaVuSans-67" transform="translate(361.335938 0)"/>
      <use xlink:href="#DejaVuSans-20" transform="translate(424.8125 0)"/>
      <use xlink:href="#DejaVuSans-5b" transform="translate(456.599609 0)"/>
      <use xlink:href="#DejaVuSans-4d" transform="translate(495.613281 0)"/>
      <use xlink:href="#DejaVuSans-57" transform="translate(581.892578 0)"/>
      <use xlink:href="#DejaVuSans-5d" transform="translate(680.769531 0)"/>
     </g>
    </g>
   </g>
   <g id="line2d_27">
    <path d="M 78.093182 279.482667 
L 81.049128 279.482667 
L 82.527101 201.530434 
L 84.005074 279.482667 
L 86.961019 279.482667 
L 88.438992 162.229515 
L 89.916965 279.482667 
L 91.394938 162.229515 
L 92.872911 279.482667 
L 94.350884 254.148191 
L 95.828857 279.482667 
L 98.784803 279.482667 
L 100.262776 162.229515 
L 101.740749 279.482667 
L 104.696695 279.482667 
L 106.174668 214.522472 
L 107.652641 279.482667 
L 109.130614 279.482667 
L 110.608587 162.229515 
L 117.998451 162.229515 
L 119.476424 279.482667 
L 120.954397 279.482667 
L 122.43237 162.229515 
L 123.910343 279.482667 
L 128.344262 279.482667 
L 129.822235 162.229515 
L 131.300208 279.482667 
L 134.256154 279.482667 
L 135.734127 162.229515 
L 137.212099 279.482667 
L 140.168045 279.482667 
L 141.646018 162.229515 
L 143.123991 162.229515 
L 144.601964 218.744885 
L 146.079937 162.229515 
L 147.55791 279.482667 
L 149.035883 162.229515 
L 150.513856 279.482667 
L 153.469802 279.482667 
L 154.947775 162.229515 
L 156.425748 201.855234 
L 157.903721 214.522472 
L 162.337639 214.522472 
L 163.815612 279.482667 
L 165.293585 279.482667 
L 166.771558 162.229515 
L 168.249531 201.855234 
L 169.727504 266.815429 
L 171.205477 279.482667 
L 172.68345 162.229515 
L 174.161423 214.522472 
L 175.639396 279.482667 
L 199.286963 279.482667 
L 200.764936 162.229515 
L 202.242909 279.482667 
L 211.110746 279.482667 
L 212.588719 162.229515 
L 214.066692 279.482667 
L 218.500611 279.482667 
L 219.978584 227.541577 
L 221.456557 279.482667 
L 224.412503 279.482667 
L 225.890476 227.541577 
L 239.192232 227.541577 
L 240.670205 279.482667 
L 242.148178 227.541577 
L 243.626151 162.229515 
L 245.104124 279.482667 
L 248.06007 279.482667 
L 249.538043 254.148191 
L 251.016016 279.482667 
L 252.493989 162.229515 
L 253.971962 279.482667 
L 255.449935 162.229515 
L 256.927908 279.482667 
L 276.141556 279.482667 
L 277.619529 162.229515 
L 279.097502 279.482667 
L 280.575475 279.482667 
L 282.053448 162.229515 
L 283.531421 162.229515 
L 285.009394 279.482667 
L 290.921285 279.482667 
L 292.399258 201.855234 
L 293.877231 162.229515 
L 295.355204 279.482667 
L 296.833177 162.229515 
L 298.31115 266.815429 
L 299.789123 279.482667 
L 301.267096 279.482667 
L 302.745069 162.229515 
L 304.223042 201.855234 
L 305.701015 279.482667 
L 307.178988 279.482667 
L 308.656961 214.522472 
L 310.134934 279.482667 
L 313.090879 279.482667 
L 314.568852 162.229515 
L 316.046825 279.482667 
L 335.260474 279.482667 
L 336.738446 162.229515 
L 338.216419 279.482667 
L 339.694392 266.815429 
L 341.172365 266.815429 
L 342.650338 162.229515 
L 344.128311 279.482667 
L 347.084257 279.482667 
L 348.56223 214.522472 
L 350.040203 279.482667 
L 352.996149 279.482667 
L 354.474122 214.522472 
L 355.952095 279.482667 
L 358.908041 279.482667 
L 360.386014 162.229515 
L 361.863986 279.482667 
L 370.731824 279.482667 
L 372.209797 262.484749 
L 373.68777 279.482667 
L 375.165743 279.482667 
L 376.643716 262.484749 
L 378.121689 262.484749 
L 379.599662 279.482667 
L 381.077635 262.484749 
L 384.033581 262.484749 
L 385.511554 162.229515 
L 386.989526 162.229515 
L 388.467499 279.482667 
L 389.945472 279.482667 
L 391.423445 162.229515 
L 392.901418 279.482667 
L 394.379391 279.482667 
L 395.857364 162.229515 
L 397.335337 162.229515 
L 398.81331 279.482667 
L 412.115066 279.482667 
L 413.593039 242.715198 
L 415.071012 279.482667 
L 418.026958 279.482667 
L 419.504931 162.229515 
L 420.982904 279.482667 
L 422.460877 279.482667 
L 423.93885 200.62099 
L 425.416823 162.229515 
L 426.894796 279.482667 
L 428.372769 279.482667 
L 429.850742 162.229515 
L 431.328715 279.482667 
L 432.806688 279.482667 
L 434.284661 162.229515 
L 438.718579 162.229515 
L 440.196552 279.482667 
L 443.152498 279.482667 
L 444.630471 162.229515 
L 446.108444 162.229515 
L 447.586417 279.482667 
L 449.06439 279.482667 
L 450.542363 162.229515 
L 452.020336 279.482667 
L 477.145876 279.482667 
L 478.623849 214.522472 
L 480.101822 279.482667 
L 483.057768 279.482667 
L 484.535741 266.815429 
L 486.013714 279.482667 
L 487.491686 162.229515 
L 488.969659 279.482667 
L 490.447632 214.522472 
L 491.925605 279.482667 
L 494.881551 279.482667 
L 496.359524 214.522472 
L 497.837497 279.482667 
L 499.31547 214.522472 
L 500.793443 279.482667 
L 502.271416 162.229515 
L 503.749389 279.482667 
L 506.705335 279.482667 
L 508.183308 162.229515 
L 509.661281 279.482667 
L 512.617226 279.482667 
L 514.095199 204.453642 
L 515.573172 162.229515 
L 524.44101 162.229515 
L 525.918983 279.482667 
L 527.396956 162.229515 
L 528.874929 162.229515 
L 530.352902 279.482667 
L 531.830875 279.482667 
L 533.308848 162.229515 
L 534.786821 214.522472 
L 536.264793 214.522472 
L 537.742766 279.482667 
L 539.220739 162.229515 
L 540.698712 227.839311 
L 542.176685 279.482667 
L 558.434388 279.482667 
L 559.912361 214.522472 
L 561.390333 214.522472 
L 562.868306 279.482667 
L 565.824252 279.482667 
L 567.302225 162.229515 
L 568.780198 279.482667 
L 570.258171 162.229515 
L 577.648036 162.229515 
L 579.126009 217.120879 
L 580.603982 162.229515 
L 582.081955 279.482667 
L 585.037901 279.482667 
L 586.515873 162.229515 
L 587.993846 201.855234 
L 589.471819 266.815429 
L 590.949792 279.482667 
L 592.427765 162.229515 
L 593.905738 279.482667 
L 596.861684 279.482667 
L 598.339657 162.229515 
L 599.81763 279.482667 
L 613.119386 279.482667 
L 614.597359 162.879117 
L 616.075332 279.482667 
L 619.031278 279.482667 
L 620.509251 162.229515 
L 621.987224 279.482667 
L 623.465197 279.482667 
L 624.94317 162.229515 
L 626.421143 279.482667 
L 630.855062 279.482667 
L 632.333035 162.229515 
L 633.811008 279.482667 
L 636.766953 279.482667 
L 638.244926 162.229515 
L 639.722899 279.482667 
L 641.200872 162.229515 
L 642.678845 202.180035 
L 642.678845 202.180035 
" clip-path="url(#ped1b482820)" style="fill: none; stroke: #0000ff; stroke-width: 1.5; stroke-linecap: square"/>
   </g>
   <g id="line2d_28">
    <path d="M 78.093182 279.482667 
L 81.049128 279.482667 
L 82.527101 162.229515 
L 84.005074 254.266396 
L 85.483047 192.416672 
L 86.961019 195.173918 
L 88.438992 162.229515 
L 91.394938 162.229515 
L 92.872911 279.482667 
L 94.350884 162.229515 
L 95.828857 279.482667 
L 97.30683 235.125298 
L 98.784803 211.734957 
L 100.262776 162.229515 
L 123.910343 162.229515 
L 125.388316 279.482667 
L 128.344262 279.482667 
L 129.822235 162.229515 
L 131.300208 279.482667 
L 132.778181 279.482667 
L 134.256154 167.83268 
L 135.734127 162.229515 
L 137.212099 279.482667 
L 138.690072 162.229515 
L 150.513856 162.229515 
L 151.991829 190.078766 
L 153.469802 194.895971 
L 154.947775 220.856091 
L 156.425748 220.856091 
L 157.903721 162.229515 
L 159.381694 162.229515 
L 160.859667 197.084389 
L 162.337639 213.786967 
L 163.815612 220.856091 
L 165.293585 220.856091 
L 166.771558 162.229515 
L 168.249531 220.856091 
L 171.205477 220.856091 
L 172.68345 226.920068 
L 174.161423 237.395875 
L 194.853044 237.395875 
L 196.331017 279.482667 
L 218.500611 279.482667 
L 219.978584 162.229515 
L 246.582097 162.229515 
L 248.06007 242.798668 
L 249.538043 162.229515 
L 251.016016 242.798668 
L 252.493989 162.229515 
L 253.971962 242.798668 
L 255.449935 162.229515 
L 256.927908 221.996756 
L 258.405881 242.798668 
L 265.795745 242.798668 
L 267.273718 234.630928 
L 270.229664 234.630928 
L 271.707637 162.229515 
L 273.18561 234.630928 
L 276.141556 234.630928 
L 277.619529 162.229515 
L 279.097502 234.630928 
L 280.575475 234.630928 
L 282.053448 162.229515 
L 283.531421 162.229515 
L 285.009394 234.630928 
L 286.487366 234.630928 
L 287.965339 224.377736 
L 289.443312 162.229515 
L 293.877231 162.229515 
L 295.355204 232.873536 
L 296.833177 162.229515 
L 298.31115 162.229515 
L 299.789123 197.895197 
L 301.267096 279.482667 
L 302.745069 162.229515 
L 304.223042 162.229515 
L 305.701015 279.482667 
L 339.694392 279.482667 
L 341.172365 162.229515 
L 342.650338 162.229515 
L 344.128311 279.482667 
L 345.606284 220.484722 
L 347.084257 279.482667 
L 348.56223 162.229515 
L 350.040203 279.482667 
L 352.996149 279.482667 
L 354.474122 162.229515 
L 355.952095 279.482667 
L 357.430068 197.905262 
L 358.908041 194.950377 
L 360.386014 162.229515 
L 361.863986 218.033848 
L 363.341959 162.229515 
L 364.819932 218.033848 
L 366.297905 162.229515 
L 367.775878 218.033848 
L 369.253851 218.033848 
L 370.731824 191.409003 
L 372.209797 162.229515 
L 373.68777 218.033848 
L 376.643716 162.229515 
L 386.989526 162.229515 
L 388.467499 279.482667 
L 389.945472 279.482667 
L 391.423445 162.229515 
L 392.901418 162.229515 
L 394.379391 279.482667 
L 395.857364 162.229515 
L 397.335337 162.229515 
L 398.81331 279.482667 
L 418.026958 279.482667 
L 419.504931 162.229515 
L 420.982904 279.482667 
L 422.460877 203.536229 
L 423.93885 162.229515 
L 425.416823 162.229515 
L 426.894796 190.329081 
L 428.372769 279.482667 
L 429.850742 162.229515 
L 431.328715 220.876362 
L 432.806688 162.229515 
L 454.976282 162.229515 
L 456.454255 279.482667 
L 477.145876 279.482667 
L 478.623849 162.229515 
L 480.101822 271.536465 
L 481.579795 269.384105 
L 484.535741 188.607523 
L 486.013714 271.536465 
L 487.491686 162.229515 
L 488.969659 271.536465 
L 490.447632 162.229515 
L 491.925605 271.536465 
L 493.403578 178.01996 
L 494.881551 162.229515 
L 534.786821 162.229515 
L 536.264793 279.482667 
L 537.742766 279.482667 
L 539.220739 162.229515 
L 540.698712 279.482667 
L 549.56655 279.482667 
L 551.044523 220.856091 
L 559.912361 220.856091 
L 561.390333 162.229515 
L 562.868306 220.856091 
L 564.346279 220.856091 
L 565.824252 162.229515 
L 580.603982 162.229515 
L 582.081955 191.667683 
L 583.559928 202.804218 
L 585.037901 279.482667 
L 586.515873 162.229515 
L 587.993846 162.229515 
L 589.471819 279.482667 
L 590.949792 279.482667 
L 592.427765 176.126279 
L 593.905738 279.482667 
L 619.031278 279.482667 
L 620.509251 162.229515 
L 621.987224 279.482667 
L 630.855062 279.482667 
L 632.333035 162.229515 
L 633.811008 279.482667 
L 635.288981 279.482667 
L 636.766953 162.229515 
L 642.678845 162.229515 
L 642.678845 162.229515 
" clip-path="url(#ped1b482820)" style="fill: none; stroke: #ff0000; stroke-opacity: 0.7; stroke-width: 1.5; stroke-linecap: square"/>
   </g>
   <g id="line2d_29">
    <path d="M 78.093182 338.109243 
L 84.005074 338.109243 
L 85.483047 279.482667 
L 88.438992 279.482667 
L 89.916965 338.109243 
L 91.394938 279.482667 
L 92.872911 338.109243 
L 94.350884 279.482667 
L 95.828857 338.109243 
L 97.30683 338.109243 
L 98.784803 279.482667 
L 100.262776 279.482667 
L 101.740749 326.677061 
L 103.218722 338.109243 
L 104.696695 279.482667 
L 107.652641 279.482667 
L 109.130614 338.109243 
L 110.608587 279.482667 
L 112.086559 279.482667 
L 113.564532 338.109243 
L 115.042505 279.482667 
L 117.998451 279.482667 
L 119.476424 338.109243 
L 120.954397 279.482667 
L 122.43237 279.482667 
L 123.910343 338.109243 
L 128.344262 338.109243 
L 129.822235 279.482667 
L 131.300208 338.109243 
L 138.690072 338.109243 
L 140.168045 279.482667 
L 146.079937 279.482667 
L 147.55791 338.109243 
L 149.035883 279.482667 
L 151.991829 279.482667 
L 153.469802 338.109243 
L 162.337639 338.109243 
L 163.815612 279.482667 
L 165.293585 338.109243 
L 169.727504 338.109243 
L 171.205477 279.482667 
L 172.68345 338.109243 
L 177.117369 338.109243 
L 178.595342 279.482667 
L 180.073315 338.109243 
L 183.029261 338.109243 
L 184.507234 291.501115 
L 185.985207 338.109243 
L 187.463179 338.109243 
L 188.941152 279.482667 
L 190.419125 279.482667 
L 191.897098 338.109243 
L 193.375071 279.482667 
L 194.853044 279.482667 
L 196.331017 338.109243 
L 197.80899 338.109243 
L 199.286963 279.482667 
L 205.198855 279.482667 
L 206.676828 338.109243 
L 209.632774 338.109243 
L 211.110746 279.482667 
L 212.588719 338.109243 
L 214.066692 326.677061 
L 215.544665 279.482667 
L 245.104124 279.482667 
L 246.582097 338.109243 
L 251.016016 338.109243 
L 252.493989 279.482667 
L 265.795745 279.482667 
L 267.273718 338.109243 
L 268.751691 303.812696 
L 270.229664 279.482667 
L 271.707637 279.482667 
L 273.18561 338.109243 
L 274.663583 279.482667 
L 276.141556 279.482667 
L 277.619529 338.109243 
L 279.097502 338.109243 
L 280.575475 279.482667 
L 282.053448 279.482667 
L 283.531421 338.109243 
L 287.965339 338.109243 
L 289.443312 279.482667 
L 293.877231 279.482667 
L 295.355204 338.109243 
L 296.833177 338.109243 
L 298.31115 279.482667 
L 299.789123 279.482667 
L 301.267096 338.109243 
L 305.701015 338.109243 
L 307.178988 279.482667 
L 308.656961 279.482667 
L 310.134934 338.109243 
L 311.612906 279.482667 
L 313.090879 338.109243 
L 314.568852 279.482667 
L 316.046825 279.482667 
L 317.524798 338.109243 
L 329.348582 338.109243 
L 330.826555 291.501115 
L 332.304528 338.109243 
L 333.782501 338.109243 
L 335.260474 279.482667 
L 336.738446 338.109243 
L 338.216419 279.482667 
L 339.694392 338.109243 
L 341.172365 279.482667 
L 344.128311 279.482667 
L 345.606284 338.109243 
L 348.56223 338.109243 
L 350.040203 279.482667 
L 354.474122 279.482667 
L 355.952095 338.109243 
L 357.430068 279.482667 
L 395.857364 279.482667 
L 397.335337 338.109243 
L 398.81331 279.482667 
L 400.291283 338.109243 
L 407.681148 338.109243 
L 409.159121 385.303636 
L 412.115066 385.303636 
L 413.593039 279.482667 
L 415.071012 385.303636 
L 416.548985 385.303636 
L 418.026958 279.482667 
L 419.504931 279.482667 
L 420.982904 385.303636 
L 422.460877 279.482667 
L 432.806688 279.482667 
L 434.284661 338.109243 
L 435.762634 279.482667 
L 440.196552 279.482667 
L 441.674525 338.109243 
L 443.152498 279.482667 
L 447.586417 279.482667 
L 449.06439 338.109243 
L 450.542363 279.482667 
L 452.020336 279.482667 
L 453.498309 338.109243 
L 454.976282 338.109243 
L 456.454255 279.482667 
L 457.932228 338.109243 
L 459.410201 302.933297 
L 460.888174 338.109243 
L 463.844119 338.109243 
L 465.322092 279.482667 
L 466.800065 338.109243 
L 471.233984 338.109243 
L 472.711957 279.482667 
L 474.18993 338.109243 
L 475.667903 279.482667 
L 478.623849 279.482667 
L 480.101822 338.109243 
L 481.579795 279.482667 
L 486.013714 279.482667 
L 487.491686 338.109243 
L 488.969659 338.109243 
L 490.447632 279.482667 
L 491.925605 338.109243 
L 493.403578 279.482667 
L 496.359524 279.482667 
L 497.837497 338.109243 
L 499.31547 279.482667 
L 500.793443 338.109243 
L 502.271416 279.482667 
L 503.749389 338.109243 
L 505.227362 326.677061 
L 506.705335 279.482667 
L 508.183308 279.482667 
L 509.661281 338.109243 
L 511.139254 279.482667 
L 512.617226 326.677061 
L 514.095199 279.482667 
L 515.573172 338.109243 
L 520.007091 338.109243 
L 521.485064 279.482667 
L 522.963037 279.482667 
L 524.44101 338.109243 
L 525.918983 338.109243 
L 527.396956 279.482667 
L 528.874929 279.482667 
L 530.352902 338.109243 
L 531.830875 326.677061 
L 533.308848 279.482667 
L 534.786821 338.109243 
L 554.000469 338.109243 
L 555.478442 279.482667 
L 556.956415 338.109243 
L 559.912361 338.109243 
L 561.390333 279.482667 
L 562.868306 338.109243 
L 564.346279 279.482667 
L 570.258171 279.482667 
L 571.736144 338.109243 
L 573.214117 338.109243 
L 574.69209 279.482667 
L 576.170063 279.482667 
L 577.648036 338.109243 
L 579.126009 279.482667 
L 580.603982 338.109243 
L 582.081955 279.482667 
L 583.559928 338.109243 
L 585.037901 338.109243 
L 586.515873 279.482667 
L 587.993846 338.109243 
L 590.949792 338.109243 
L 592.427765 279.482667 
L 593.905738 338.109243 
L 596.861684 338.109243 
L 598.339657 279.482667 
L 599.81763 338.109243 
L 613.119386 338.109243 
L 614.597359 279.482667 
L 616.075332 338.109243 
L 617.553305 338.109243 
L 619.031278 279.482667 
L 620.509251 279.482667 
L 621.987224 338.109243 
L 623.465197 315.244878 
L 624.94317 279.482667 
L 626.421143 279.482667 
L 627.899116 338.109243 
L 629.377089 279.482667 
L 630.855062 338.109243 
L 632.333035 338.109243 
L 633.811008 326.677061 
L 635.288981 279.482667 
L 641.200872 279.482667 
L 642.678845 338.109243 
L 642.678845 338.109243 
" clip-path="url(#ped1b482820)" style="fill: none; stroke: #008000; stroke-width: 1.5; stroke-linecap: square"/>
   </g>
   <g id="line2d_30">
    <path d="M 78.093182 338.109243 
L 81.049128 338.109243 
L 82.527101 142.903858 
L 84.005074 312.892972 
L 85.483047 192.416672 
L 86.961019 195.173918 
L 88.438992 44.976364 
L 89.916965 220.856091 
L 91.394938 44.976364 
L 92.872911 338.109243 
L 94.350884 136.89504 
L 95.828857 338.109243 
L 97.30683 293.751874 
L 98.784803 211.734957 
L 100.262776 44.976364 
L 101.740749 209.423909 
L 103.218722 220.856091 
L 104.696695 162.229515 
L 106.174668 97.269321 
L 107.652641 162.229515 
L 109.130614 220.856091 
L 110.608587 44.976364 
L 112.086559 44.976364 
L 113.564532 103.602939 
L 115.042505 44.976364 
L 117.998451 44.976364 
L 119.476424 220.856091 
L 120.954397 162.229515 
L 122.43237 44.976364 
L 123.910343 220.856091 
L 125.388316 338.109243 
L 128.344262 338.109243 
L 129.822235 44.976364 
L 131.300208 338.109243 
L 132.778181 338.109243 
L 134.256154 226.459256 
L 135.734127 103.602939 
L 137.212099 338.109243 
L 138.690072 220.856091 
L 140.168045 162.229515 
L 141.646018 44.976364 
L 143.123991 44.976364 
L 144.601964 101.491733 
L 146.079937 44.976364 
L 147.55791 220.856091 
L 149.035883 44.976364 
L 150.513856 162.229515 
L 151.991829 190.078766 
L 153.469802 253.522547 
L 154.947775 162.229515 
L 156.425748 201.855234 
L 157.903721 155.895896 
L 159.381694 155.895896 
L 160.859667 190.75077 
L 162.337639 207.453348 
L 163.815612 220.856091 
L 165.293585 279.482667 
L 166.771558 103.602939 
L 168.249531 201.855234 
L 169.727504 266.815429 
L 171.205477 220.856091 
L 172.68345 168.293492 
L 175.639396 296.022451 
L 177.117369 296.022451 
L 178.595342 237.395875 
L 180.073315 296.022451 
L 183.029261 296.022451 
L 184.507234 249.414323 
L 185.985207 296.022451 
L 187.463179 296.022451 
L 188.941152 237.395875 
L 190.419125 237.395875 
L 191.897098 296.022451 
L 193.375071 237.395875 
L 194.853044 237.395875 
L 196.331017 338.109243 
L 197.80899 338.109243 
L 199.286963 279.482667 
L 200.764936 162.229515 
L 202.242909 279.482667 
L 205.198855 279.482667 
L 206.676828 338.109243 
L 209.632774 338.109243 
L 212.588719 220.856091 
L 214.066692 326.677061 
L 215.544665 279.482667 
L 218.500611 279.482667 
L 219.978584 110.288426 
L 221.456557 162.229515 
L 224.412503 162.229515 
L 225.890476 110.288426 
L 239.192232 110.288426 
L 240.670205 162.229515 
L 242.148178 110.288426 
L 243.626151 44.976364 
L 245.104124 162.229515 
L 246.582097 220.856091 
L 248.06007 301.425243 
L 249.538043 195.521615 
L 251.016016 301.425243 
L 252.493989 44.976364 
L 253.971962 242.798668 
L 255.449935 44.976364 
L 256.927908 221.996756 
L 258.405881 242.798668 
L 265.795745 242.798668 
L 267.273718 293.257504 
L 268.751691 258.960957 
L 270.229664 234.630928 
L 271.707637 162.229515 
L 273.18561 293.257504 
L 274.663583 234.630928 
L 276.141556 234.630928 
L 277.619529 103.602939 
L 279.097502 293.257504 
L 280.575475 234.630928 
L 282.053448 44.976364 
L 283.531421 103.602939 
L 285.009394 293.257504 
L 286.487366 293.257504 
L 287.965339 283.004312 
L 289.443312 162.229515 
L 290.921285 162.229515 
L 292.399258 84.602083 
L 293.877231 44.976364 
L 295.355204 291.500111 
L 296.833177 103.602939 
L 299.789123 197.895197 
L 301.267096 338.109243 
L 302.745069 103.602939 
L 304.223042 143.228658 
L 305.701015 338.109243 
L 307.178988 279.482667 
L 308.656961 214.522472 
L 310.134934 338.109243 
L 311.612906 279.482667 
L 313.090879 338.109243 
L 314.568852 162.229515 
L 316.046825 279.482667 
L 317.524798 338.109243 
L 329.348582 338.109243 
L 330.826555 291.501115 
L 332.304528 338.109243 
L 333.782501 338.109243 
L 336.738446 220.856091 
L 338.216419 279.482667 
L 339.694392 325.442005 
L 341.172365 149.562277 
L 342.650338 44.976364 
L 344.128311 279.482667 
L 345.606284 279.111297 
L 347.084257 338.109243 
L 348.56223 155.895896 
L 350.040203 279.482667 
L 352.996149 279.482667 
L 354.474122 97.269321 
L 355.952095 338.109243 
L 357.430068 197.905262 
L 358.908041 194.950377 
L 360.386014 44.976364 
L 361.863986 218.033848 
L 363.341959 162.229515 
L 364.819932 218.033848 
L 366.297905 162.229515 
L 367.775878 218.033848 
L 369.253851 218.033848 
L 370.731824 191.409003 
L 372.209797 145.231598 
L 373.68777 218.033848 
L 375.165743 189.953055 
L 376.643716 145.231598 
L 378.121689 145.231598 
L 379.599662 162.229515 
L 381.077635 145.231598 
L 384.033581 145.231598 
L 385.511554 44.976364 
L 386.989526 44.976364 
L 388.467499 279.482667 
L 389.945472 279.482667 
L 391.423445 44.976364 
L 394.379391 279.482667 
L 395.857364 44.976364 
L 397.335337 103.602939 
L 398.81331 279.482667 
L 400.291283 338.109243 
L 407.681148 338.109243 
L 409.159121 385.303636 
L 412.115066 385.303636 
L 413.593039 242.715198 
L 415.071012 385.303636 
L 416.548985 385.303636 
L 418.026958 279.482667 
L 419.504931 44.976364 
L 420.982904 385.303636 
L 422.460877 203.536229 
L 423.93885 83.367838 
L 425.416823 44.976364 
L 426.894796 190.329081 
L 428.372769 279.482667 
L 429.850742 44.976364 
L 431.328715 220.876362 
L 435.762634 44.976364 
L 438.718579 44.976364 
L 440.196552 162.229515 
L 441.674525 220.856091 
L 443.152498 162.229515 
L 444.630471 44.976364 
L 446.108444 44.976364 
L 447.586417 162.229515 
L 449.06439 220.856091 
L 450.542363 44.976364 
L 452.020336 162.229515 
L 453.498309 220.856091 
L 454.976282 220.856091 
L 457.932228 338.109243 
L 459.410201 302.933297 
L 460.888174 338.109243 
L 463.844119 338.109243 
L 465.322092 279.482667 
L 466.800065 338.109243 
L 471.233984 338.109243 
L 472.711957 279.482667 
L 474.18993 338.109243 
L 475.667903 279.482667 
L 477.145876 279.482667 
L 478.623849 97.269321 
L 480.101822 330.163041 
L 481.579795 269.384105 
L 483.057768 228.847881 
L 484.535741 175.940285 
L 486.013714 271.536465 
L 487.491686 103.602939 
L 488.969659 330.163041 
L 490.447632 97.269321 
L 491.925605 330.163041 
L 493.403578 178.01996 
L 494.881551 162.229515 
L 496.359524 97.269321 
L 497.837497 220.856091 
L 499.31547 97.269321 
L 500.793443 220.856091 
L 502.271416 44.976364 
L 503.749389 220.856091 
L 505.227362 209.423909 
L 506.705335 162.229515 
L 508.183308 44.976364 
L 509.661281 220.856091 
L 511.139254 162.229515 
L 512.617226 209.423909 
L 514.095199 87.20049 
L 515.573172 103.602939 
L 520.007091 103.602939 
L 521.485064 44.976364 
L 522.963037 44.976364 
L 524.44101 103.602939 
L 525.918983 220.856091 
L 527.396956 44.976364 
L 528.874929 44.976364 
L 530.352902 220.856091 
L 531.830875 209.423909 
L 533.308848 44.976364 
L 536.264793 273.149048 
L 537.742766 338.109243 
L 539.220739 103.602939 
L 540.698712 286.465888 
L 542.176685 338.109243 
L 549.56655 338.109243 
L 551.044523 279.482667 
L 554.000469 279.482667 
L 555.478442 220.856091 
L 556.956415 279.482667 
L 558.434388 279.482667 
L 559.912361 214.522472 
L 561.390333 97.269321 
L 562.868306 279.482667 
L 565.824252 162.229515 
L 567.302225 44.976364 
L 568.780198 162.229515 
L 570.258171 44.976364 
L 571.736144 103.602939 
L 573.214117 103.602939 
L 574.69209 44.976364 
L 576.170063 44.976364 
L 577.648036 103.602939 
L 579.126009 99.867728 
L 580.603982 103.602939 
L 582.081955 191.667683 
L 583.559928 261.430793 
L 585.037901 338.109243 
L 586.515873 44.976364 
L 587.993846 143.228658 
L 589.471819 325.442005 
L 590.949792 338.109243 
L 592.427765 58.873127 
L 593.905738 338.109243 
L 596.861684 338.109243 
L 598.339657 162.229515 
L 599.81763 338.109243 
L 613.119386 338.109243 
L 614.597359 162.879117 
L 616.075332 338.109243 
L 617.553305 338.109243 
L 619.031278 279.482667 
L 620.509251 44.976364 
L 621.987224 338.109243 
L 623.465197 315.244878 
L 624.94317 162.229515 
L 626.421143 279.482667 
L 627.899116 338.109243 
L 629.377089 279.482667 
L 630.855062 338.109243 
L 632.333035 103.602939 
L 633.811008 326.677061 
L 635.288981 279.482667 
L 638.244926 44.976364 
L 639.722899 162.229515 
L 641.200872 44.976364 
L 642.678845 143.553459 
L 642.678845 143.553459 
" clip-path="url(#ped1b482820)" style="fill: none; stroke-dasharray: 5.55,2.4; stroke-dashoffset: 0; stroke: #000000; stroke-width: 1.5"/>
   </g>
   <g id="patch_3">
    <path d="M 49.79 402.32 
L 49.79 27.96 
" style="fill: none; stroke: #000000; stroke-width: 0.8; stroke-linejoin: miter; stroke-linecap: square"/>
   </g>
   <g id="patch_4">
    <path d="M 672.46 402.32 
L 672.46 27.96 
" style="fill: none; stroke: #000000; stroke-width: 0.8; stroke-linejoin: miter; stroke-linecap: square"/>
   </g>
   <g id="patch_5">
    <path d="M 49.79 402.32 
L 672.46 402.32 
" style="fill: none; stroke: #000000; stroke-width: 0.8; stroke-linejoin: miter; stroke-linecap: square"/>
   </g>
   <g id="patch_6">
    <path d="M 49.79 27.96 
L 672.46 27.96 
" style="fill: none; stroke: #000000; stroke-width: 0.8; stroke-linejoin: miter; stroke-linecap: square"/>
   </g>
   <g id="text_15">
    <!-- Strombilanz (BESS &amp; PtH) -->
    <g transform="translate(276.568688 21.96) scale(0.132 -0.132)">
     <defs>
      <path id="DejaVuSans-53" d="M 3425 4513 
L 3425 3897 
Q 3066 4069 2747 4153 
Q 2428 4238 2131 4238 
Q 1616 4238 1336 4038 
Q 1056 3838 1056 3469 
Q 1056 3159 1242 3001 
Q 1428 2844 1947 2747 
L 2328 2669 
Q 3034 2534 3370 2195 
Q 3706 1856 3706 1288 
Q 3706 609 3251 259 
Q 2797 -91 1919 -91 
Q 1588 -91 1214 -16 
Q 841 59 441 206 
L 441 856 
Q 825 641 1194 531 
Q 1563 422 1919 422 
Q 2459 422 2753 634 
Q 3047 847 3047 1241 
Q 3047 1584 2836 1778 
Q 2625 1972 2144 2069 
L 1759 2144 
Q 1053 2284 737 2584 
Q 422 2884 422 3419 
Q 422 4038 858 4394 
Q 1294 4750 2059 4750 
Q 2388 4750 2728 4690 
Q 3069 4631 3425 4513 
z
" transform="scale(0.015625)"/>
      <path id="DejaVuSans-72" d="M 2631 2963 
Q 2534 3019 2420 3045 
Q 2306 3072 2169 3072 
Q 1681 3072 1420 2755 
Q 1159 2438 1159 1844 
L 1159 0 
L 581 0 
L 581 3500 
L 1159 3500 
L 1159 2956 
Q 1341 3275 1631 3429 
Q 1922 3584 2338 3584 
Q 2397 3584 2469 3576 
Q 2541 3569 2628 3553 
L 2631 2963 
z
" transform="scale(0.015625)"/>
      <path id="DejaVuSans-6f" d="M 1959 3097 
Q 1497 3097 1228 2736 
Q 959 2375 959 1747 
Q 959 1119 1226 758 
Q 1494 397 1959 397 
Q 2419 397 2687 759 
Q 2956 1122 2956 1747 
Q 2956 2369 2687 2733 
Q 2419 3097 1959 3097 
z
M 1959 3584 
Q 2709 3584 3137 3096 
Q 3566 2609 3566 1747 
Q 3566 888 3137 398 
Q 2709 -91 1959 -91 
Q 1206 -91 779 398 
Q 353 888 353 1747 
Q 353 2609 779 3096 
Q 1206 3584 1959 3584 
z
" transform="scale(0.015625)"/>
      <path id="DejaVuSans-6d" d="M 3328 2828 
Q 3544 3216 3844 3400 
Q 4144 3584 4550 3584 
Q 5097 3584 5394 3201 
Q 5691 2819 5691 2113 
L 5691 0 
L 5113 0 
L 5113 2094 
Q 5113 2597 4934 2840 
Q 4756 3084 4391 3084 
Q 3944 3084 3684 2787 
Q 3425 2491 3425 1978 
L 3425 0 
L 2847 0 
L 2847 2094 
Q 2847 2600 2669 2842 
Q 2491 3084 2119 3084 
Q 1678 3084 1418 2786 
Q 1159 2488 1159 1978 
L 1159 0 
L 581 0 
L 581 3500 
L 1159 3500 
L 1159 2956 
Q 1356 3278 1631 3431 
Q 1906 3584 2284 3584 
Q 2666 3584 2933 3390 
Q 3200 3197 3328 2828 
z
" transform="scale(0.015625)"/>
      <path id="DejaVuSans-62" d="M 3116 1747 
Q 3116 2381 2855 2742 
Q 2594 3103 2138 3103 
Q 1681 3103 1420 2742 
Q 1159 2381 1159 1747 
Q 1159 1113 1420 752 
Q 1681 391 2138 391 
Q 2594 391 2855 752 
Q 3116 1113 3116 1747 
z
M 1159 2969 
Q 1341 3281 1617 3432 
Q 1894 3584 2278 3584 
Q 2916 3584 3314 3078 
Q 3713 2572 3713 1747 
Q 3713 922 3314 415 
Q 2916 -91 2278 -91 
Q 1894 -91 1617 61 
Q 1341 213 1159 525 
L 1159 0 
L 581 0 
L 581 4863 
L 1159 4863 
L 1159 2969 
z
" transform="scale(0.015625)"/>
      <path id="DejaVuSans-6c" d="M 603 4863 
L 1178 4863 
L 1178 0 
L 603 0 
L 603 4863 
z
" transform="scale(0.015625)"/>
      <path id="DejaVuSans-61" d="M 2194 1759 
Q 1497 1759 1228 1600 
Q 959 1441 959 1056 
Q 959 750 1161 570 
Q 1363 391 1709 391 
Q 2188 391 2477 730 
Q 2766 1069 2766 1631 
L 2766 1759 
L 2194 1759 
z
M 3341 1997 
L 3341 0 
L 2766 0 
L 2766 531 
Q 2569 213 2275 61 
Q 1981 -91 1556 -91 
Q 1019 -91 701 211 
Q 384 513 384 1019 
Q 384 1609 779 1909 
Q 1175 2209 1959 2209 
L 2766 2209 
L 2766 2266 
Q 2766 2663 2505 2880 
Q 2244 3097 1772 3097 
Q 1472 3097 1187 3025 
Q 903 2953 641 2809 
L 641 3341 
Q 956 3463 1253 3523 
Q 1550 3584 1831 3584 
Q 2591 3584 2966 3190 
Q 3341 2797 3341 1997 
z
" transform="scale(0.015625)"/>
      <path id="DejaVuSans-7a" d="M 353 3500 
L 3084 3500 
L 3084 2975 
L 922 459 
L 3084 459 
L 3084 0 
L 275 0 
L 275 525 
L 2438 3041 
L 353 3041 
L 353 3500 
z
" transform="scale(0.015625)"/>
      <path id="DejaVuSans-28" d="M 1984 4856 
Q 1566 4138 1362 3434 
Q 1159 2731 1159 2009 
Q 1159 1288 1364 580 
Q 1569 -128 1984 -844 
L 1484 -844 
Q 1016 -109 783 600 
Q 550 1309 550 2009 
Q 550 2706 781 3412 
Q 1013 4119 1484 4856 
L 1984 4856 
z
" transform="scale(0.015625)"/>
      <path id="DejaVuSans-42" d="M 1259 2228 
L 1259 519 
L 2272 519 
Q 2781 519 3026 730 
Q 3272 941 3272 1375 
Q 3272 1813 3026 2020 
Q 2781 2228 2272 2228 
L 1259 2228 
z
M 1259 4147 
L 1259 2741 
L 2194 2741 
Q 2656 2741 2882 2914 
Q 3109 3088 3109 3444 
Q 3109 3797 2882 3972 
Q 2656 4147 2194 4147 
L 1259 4147 
z
M 628 4666 
L 2241 4666 
Q 2963 4666 3353 4366 
Q 3744 4066 3744 3513 
Q 3744 3084 3544 2831 
Q 3344 2578 2956 2516 
Q 3422 2416 3680 2098 
Q 3938 1781 3938 1306 
Q 3938 681 3513 340 
Q 3088 0 2303 0 
L 628 0 
L 628 4666 
z
" transform="scale(0.015625)"/>
      <path id="DejaVuSans-45" d="M 628 4666 
L 3578 4666 
L 3578 4134 
L 1259 4134 
L 1259 2753 
L 3481 2753 
L 3481 2222 
L 1259 2222 
L 1259 531 
L 3634 531 
L 3634 0 
L 628 0 
L 628 4666 
z
" transform="scale(0.015625)"/>
      <path id="DejaVuSans-26" d="M 1556 2509 
Q 1272 2256 1139 2004 
Q 1006 1753 1006 1478 
Q 1006 1022 1337 719 
Q 1669 416 2169 416 
Q 2466 416 2725 514 
Q 2984 613 3213 813 
L 1556 2509 
z
M 1997 2859 
L 3584 1234 
Q 3769 1513 3872 1830 
Q 3975 2147 3994 2503 
L 4575 2503 
Q 4538 2091 4375 1687 
Q 4213 1284 3922 891 
L 4794 0 
L 4006 0 
L 3559 459 
Q 3234 181 2878 45 
Q 2522 -91 2113 -91 
Q 1359 -91 881 339 
Q 403 769 403 1441 
Q 403 1841 612 2192 
Q 822 2544 1241 2853 
Q 1091 3050 1012 3245 
Q 934 3441 934 3628 
Q 934 4134 1281 4442 
Q 1628 4750 2203 4750 
Q 2463 4750 2720 4694 
Q 2978 4638 3244 4525 
L 3244 3956 
Q 2972 4103 2725 4179 
Q 2478 4256 2266 4256 
Q 1938 4256 1733 4082 
Q 1528 3909 1528 3634 
Q 1528 3475 1620 3314 
Q 1713 3153 1997 2859 
z
" transform="scale(0.015625)"/>
      <path id="DejaVuSans-50" d="M 1259 4147 
L 1259 2394 
L 2053 2394 
Q 2494 2394 2734 2622 
Q 2975 2850 2975 3272 
Q 2975 3691 2734 3919 
Q 2494 4147 2053 4147 
L 1259 4147 
z
M 628 4666 
L 2053 4666 
Q 2838 4666 3239 4311 
Q 3641 3956 3641 3272 
Q 3641 2581 3239 2228 
Q 2838 1875 2053 1875 
L 1259 1875 
L 1259 0 
L 628 0 
L 628 4666 
z
" transform="scale(0.015625)"/>
      <path id="DejaVuSans-48" d="M 628 4666 
L 1259 4666 
L 1259 2753 
L 3553 2753 
L 3553 4666 
L 4184 4666 
L 4184 0 
L 3553 0 
L 3553 2222 
L 1259 2222 
L 1259 0 
L 628 0 
L 628 4666 
z
" transform="scale(0.015625)"/>
      <path id="DejaVuSans-29" d="M 513 4856 
L 1013 4856 
Q 1481 4119 1714 3412 
Q 1947 2706 1947 2009 
Q 1947 1309 1714 600 
Q 1481 -109 1013 -844 
L 513 -844 
Q 928 -128 1133 580 
Q 1338 1288 1338 2009 
Q 1338 2731 1133 3434 
Q 928 4138 513 4856 
z
" transform="scale(0.015625)"/>
     </defs>
     <use xlink:href="#DejaVuSans-53"/>
     <use xlink:href="#DejaVuSans-74" transform="translate(63.476562 0)"/>
     <use xlink:href="#DejaVuSans-72" transform="translate(102.685547 0)"/>
     <use xlink:href="#DejaVuSans-6f" transform="translate(141.548828 0)"/>
     <use xlink:href="#DejaVuSans-6d" transform="translate(202.730469 0)"/>
     <use xlink:href="#DejaVuSans-62" transform="translate(300.142578 0)"/>
     <use xlink:href="#DejaVuSans-69" transform="translate(363.619141 0)"/>
     <use xlink:href="#DejaVuSans-6c" transform="translate(391.402344 0)"/>
     <use xlink:href="#DejaVuSans-61" transform="translate(419.185547 0)"/>
     <use xlink:href="#DejaVuSans-6e" transform="translate(480.464844 0)"/>
     <use xlink:href="#DejaVuSans-7a" transform="translate(543.84375 0)"/>
     <use xlink:href="#DejaVuSans-20" transform="translate(596.333984 0)"/>
     <use xlink:href="#DejaVuSans-28" transform="translate(628.121094 0)"/>
     <use xlink:href="#DejaVuSans-42" transform="translate(667.134766 0)"/>
     <use xlink:href="#DejaVuSans-45" transform="translate(735.738281 0)"/>
     <use xlink:href="#DejaVuSans-53" transform="translate(798.921875 0)"/>
     <use xlink:href="#DejaVuSans-53" transform="translate(862.398438 0)"/>
     <use xlink:href="#DejaVuSans-20" transform="translate(925.875 0)"/>
     <use xlink:href="#DejaVuSans-26" transform="translate(957.662109 0)"/>
     <use xlink:href="#DejaVuSans-20" transform="translate(1035.640625 0)"/>
     <use xlink:href="#DejaVuSans-50" transform="translate(1067.427734 0)"/>
     <use xlink:href="#DejaVuSans-74" transform="translate(1127.730469 0)"/>
     <use xlink:href="#DejaVuSans-48" transform="translate(1166.939453 0)"/>
     <use xlink:href="#DejaVuSans-29" transform="translate(1242.134766 0)"/>
    </g>
   </g>
   <g id="legend_1">
    <g id="patch_7">
     <path d="M 57.49 69.051875 
L 305.117188 69.051875 
Q 307.317188 69.051875 307.317188 66.851875 
L 307.317188 35.66 
Q 307.317188 33.46 305.117188 33.46 
L 57.49 33.46 
Q 55.29 33.46 55.29 35.66 
L 55.29 66.851875 
Q 55.29 69.051875 57.49 69.051875 
z
" style="fill: #ffffff; opacity: 0.8; stroke: #cccccc; stroke-linejoin: miter"/>
    </g>
    <g id="line2d_31">
     <path d="M 59.69 42.368281 
L 70.69 42.368281 
L 81.69 42.368281 
" style="fill: none; stroke: #0000ff; stroke-width: 1.5; stroke-linecap: square"/>
    </g>
    <g id="text_16">
     <!-- BESS Laden -->
     <g transform="translate(90.49 46.218281) scale(0.11 -0.11)">
      <defs>
       <path id="DejaVuSans-64" d="M 2906 2969 
L 2906 4863 
L 3481 4863 
L 3481 0 
L 2906 0 
L 2906 525 
Q 2725 213 2448 61 
Q 2172 -91 1784 -91 
Q 1150 -91 751 415 
Q 353 922 353 1747 
Q 353 2572 751 3078 
Q 1150 3584 1784 3584 
Q 2172 3584 2448 3432 
Q 2725 3281 2906 2969 
z
M 947 1747 
Q 947 1113 1208 752 
Q 1469 391 1925 391 
Q 2381 391 2643 752 
Q 2906 1113 2906 1747 
Q 2906 2381 2643 2742 
Q 2381 3103 1925 3103 
Q 1469 3103 1208 2742 
Q 947 2381 947 1747 
z
" transform="scale(0.015625)"/>
      </defs>
      <use xlink:href="#DejaVuSans-42"/>
      <use xlink:href="#DejaVuSans-45" transform="translate(68.603516 0)"/>
      <use xlink:href="#DejaVuSans-53" transform="translate(131.787109 0)"/>
      <use xlink:href="#DejaVuSans-53" transform="translate(195.263672 0)"/>
      <use xlink:href="#DejaVuSans-20" transform="translate(258.740234 0)"/>
      <use xlink:href="#DejaVuSans-4c" transform="translate(290.527344 0)"/>
      <use xlink:href="#DejaVuSans-61" transform="translate(346.240234 0)"/>
      <use xlink:href="#DejaVuSans-64" transform="translate(407.519531 0)"/>
      <use xlink:href="#DejaVuSans-65" transform="translate(470.996094 0)"/>
      <use xlink:href="#DejaVuSans-6e" transform="translate(532.519531 0)"/>
     </g>
    </g>
    <g id="line2d_32">
     <path d="M 59.69 58.514219 
L 70.69 58.514219 
L 81.69 58.514219 
" style="fill: none; stroke: #ff0000; stroke-opacity: 0.7; stroke-width: 1.5; stroke-linecap: square"/>
    </g>
    <g id="text_17">
     <!-- PtH Verbrauch -->
     <g transform="translate(90.49 62.364219) scale(0.11 -0.11)">
      <defs>
       <path id="DejaVuSans-56" d="M 1831 0 
L 50 4666 
L 709 4666 
L 2188 738 
L 3669 4666 
L 4325 4666 
L 2547 0 
L 1831 0 
z
" transform="scale(0.015625)"/>
       <path id="DejaVuSans-63" d="M 3122 3366 
L 3122 2828 
Q 2878 2963 2633 3030 
Q 2388 3097 2138 3097 
Q 1578 3097 1268 2742 
Q 959 2388 959 1747 
Q 959 1106 1268 751 
Q 1578 397 2138 397 
Q 2388 397 2633 464 
Q 2878 531 3122 666 
L 3122 134 
Q 2881 22 2623 -34 
Q 2366 -91 2075 -91 
Q 1284 -91 818 406 
Q 353 903 353 1747 
Q 353 2603 823 3093 
Q 1294 3584 2113 3584 
Q 2378 3584 2631 3529 
Q 2884 3475 3122 3366 
z
" transform="scale(0.015625)"/>
      </defs>
      <use xlink:href="#DejaVuSans-50"/>
      <use xlink:href="#DejaVuSans-74" transform="translate(60.302734 0)"/>
      <use xlink:href="#DejaVuSans-48" transform="translate(99.511719 0)"/>
      <use xlink:href="#DejaVuSans-20" transform="translate(174.707031 0)"/>
      <use xlink:href="#DejaVuSans-56" transform="translate(206.494141 0)"/>
      <use xlink:href="#DejaVuSans-65" transform="translate(267.152344 0)"/>
      <use xlink:href="#DejaVuSans-72" transform="translate(328.675781 0)"/>
      <use xlink:href="#DejaVuSans-62" transform="translate(369.789062 0)"/>
      <use xlink:href="#DejaVuSans-72" transform="translate(433.265625 0)"/>
      <use xlink:href="#DejaVuSans-61" transform="translate(474.378906 0)"/>
      <use xlink:href="#DejaVuSans-75" transform="translate(535.658203 0)"/>
      <use xlink:href="#DejaVuSans-63" transform="translate(599.037109 0)"/>
      <use xlink:href="#DejaVuSans-68" transform="translate(654.017578 0)"/>
     </g>
    </g>
    <g id="line2d_33">
     <path d="M 191.402969 42.368281 
L 202.402969 42.368281 
L 213.402969 42.368281 
" style="fill: none; stroke: #008000; stroke-width: 1.5; stroke-linecap: square"/>
    </g>
    <g id="text_18">
     <!-- BESS Entladen -->
     <g transform="translate(222.202969 46.218281) scale(0.11 -0.11)">
      <use xlink:href="#DejaVuSans-42"/>
      <use xlink:href="#DejaVuSans-45" transform="translate(68.603516 0)"/>
      <use xlink:href="#DejaVuSans-53" transform="translate(131.787109 0)"/>
      <use xlink:href="#DejaVuSans-53" transform="translate(195.263672 0)"/>
      <use xlink:href="#DejaVuSans-20" transform="translate(258.740234 0)"/>
      <use xlink:href="#DejaVuSans-45" transform="translate(290.527344 0)"/>
      <use xlink:href="#DejaVuSans-6e" transform="translate(353.710938 0)"/>
      <use xlink:href="#DejaVuSans-74" transform="translate(417.089844 0)"/>
      <use xlink:href="#DejaVuSans-6c" transform="translate(456.298828 0)"/>
      <use xlink:href="#DejaVuSans-61" transform="translate(484.082031 0)"/>
      <use xlink:href="#DejaVuSans-64" transform="translate(545.361328 0)"/>
      <use xlink:href="#DejaVuSans-65" transform="translate(608.837891 0)"/>
      <use xlink:href="#DejaVuSans-6e" transform="translate(670.361328 0)"/>
     </g>
    </g>
    <g id="line2d_34">
     <path d="M 191.402969 58.514219 
L 202.402969 58.514219 
L 213.402969 58.514219 
" style="fill: none; stroke-dasharray: 5.55,2.4; stroke-dashoffset: 0; stroke: #000000; stroke-width: 1.5"/>
    </g>
    <g id="text_19">
     <!-- Netz Saldo -->
     <g transform="translate(222.202969 62.364219) scale(0.11 -0.11)">
      <defs>
       <path id="DejaVuSans-4e" d="M 628 4666 
L 1478 4666 
L 3547 763 
L 3547 4666 
L 4159 4666 
L 4159 0 
L 3309 0 
L 1241 3903 
L 1241 0 
L 628 0 
L 628 4666 
z
" transform="scale(0.015625)"/>
      </defs>
      <use xlink:href="#DejaVuSans-4e"/>
      <use xlink:href="#DejaVuSans-65" transform="translate(74.804688 0)"/>
      <use xlink:href="#DejaVuSans-74" transform="translate(136.328125 0)"/>
      <use xlink:href="#DejaVuSans-7a" transform="translate(175.537109 0)"/>
      <use xlink:href="#DejaVuSans-20" transform="translate(228.027344 0)"/>
      <use xlink:href="#DejaVuSans-53" transform="translate(259.814453 0)"/>
      <use xlink:href="#DejaVuSans-61" transform="translate(323.291016 0)"/>
      <use xlink:href="#DejaVuSans-6c" transform="translate(384.570312 0)"/>
      <use xlink:href="#DejaVuSans-64" transform="translate(412.353516 0)"/>
      <use xlink:href="#DejaVuSans-6f" transform="translate(475.830078 0)"/>
     </g>
    </g>
   </g>
  </g>
  <g id="axes_2">
   <g id="matplotlib.axis_3">
    <g id="ytick_9">
     <g id="line2d_35">
      <path d="M 49.79 331.191153 
L 672.46 331.191153 
" clip-path="url(#ped1b482820)" style="fill: none; stroke: #b0b0b0; stroke-opacity: 0.5; stroke-width: 0.8; stroke-linecap: square"/>
     </g>
     <g id="line2d_36">
      <defs>
       <path id="m731c48b314" d="M 0 0 
L 3.5 0 
" style="stroke: #000000; stroke-width: 0.8"/>
      </defs>
      <g>
       <use xlink:href="#m731c48b314" x="672.46" y="331.191153" style="stroke: #000000; stroke-width: 0.8"/>
      </g>
     </g>
     <g id="text_20">
      <!-- 2 -->
      <g transform="translate(679.46 335.370293) scale(0.11 -0.11)">
       <use xlink:href="#DejaVuSans-32"/>
      </g>
     </g>
    </g>
    <g id="ytick_10">
     <g id="line2d_37">
      <path d="M 49.79 259.637456 
L 672.46 259.637456 
" clip-path="url(#ped1b482820)" style="fill: none; stroke: #b0b0b0; stroke-opacity: 0.5; stroke-width: 0.8; stroke-linecap: square"/>
     </g>
     <g id="line2d_38">
      <g>
       <use xlink:href="#m731c48b314" x="672.46" y="259.637456" style="stroke: #000000; stroke-width: 0.8"/>
      </g>
     </g>
     <g id="text_21">
      <!-- 4 -->
      <g transform="translate(679.46 263.816596) scale(0.11 -0.11)">
       <use xlink:href="#DejaVuSans-34"/>
      </g>
     </g>
    </g>
    <g id="ytick_11">
     <g id="line2d_39">
      <path d="M 49.79 188.083758 
L 672.46 188.083758 
" clip-path="url(#ped1b482820)" style="fill: none; stroke: #b0b0b0; stroke-opacity: 0.5; stroke-width: 0.8; stroke-linecap: square"/>
     </g>
     <g id="line2d_40">
      <g>
       <use xlink:href="#m731c48b314" x="672.46" y="188.083758" style="stroke: #000000; stroke-width: 0.8"/>
      </g>
     </g>
     <g id="text_22">
      <!-- 6 -->
      <g transform="translate(679.46 192.262899) scale(0.11 -0.11)">
       <use xlink:href="#DejaVuSans-36"/>
      </g>
     </g>
    </g>
    <g id="ytick_12">
     <g id="line2d_41">
      <path d="M 49.79 116.530061 
L 672.46 116.530061 
" clip-path="url(#ped1b482820)" style="fill: none; stroke: #b0b0b0; stroke-opacity: 0.5; stroke-width: 0.8; stroke-linecap: square"/>
     </g>
     <g id="line2d_42">
      <g>
       <use xlink:href="#m731c48b314" x="672.46" y="116.530061" style="stroke: #000000; stroke-width: 0.8"/>
      </g>
     </g>
     <g id="text_23">
      <!-- 8 -->
      <g transform="translate(679.46 120.709202) scale(0.11 -0.11)">
       <use xlink:href="#DejaVuSans-38"/>
      </g>
     </g>
    </g>
    <g id="ytick_13">
     <g id="line2d_43">
      <path d="M 49.79 44.976364 
L 672.46 44.976364 
" clip-path="url(#ped1b482820)" style="fill: none; stroke: #b0b0b0; stroke-opacity: 0.5; stroke-width: 0.8; stroke-linecap: square"/>
     </g>
     <g id="line2d_44">
      <g>
       <use xlink:href="#m731c48b314" x="672.46" y="44.976364" style="stroke: #000000; stroke-width: 0.8"/>
      </g>
     </g>
     <g id="text_24">
      <!-- 10 -->
      <g transform="translate(679.46 49.155504) scale(0.11 -0.11)">
       <use xlink:href="#DejaVuSans-31"/>
       <use xlink:href="#DejaVuSans-30" transform="translate(63.623047 0)"/>
      </g>
     </g>
    </g>
    <g id="text_25">
     <!-- BESS [MWh] -->
     <g transform="translate(705.815781 249.081016) rotate(-90) scale(0.11 -0.11)">
      <use xlink:href="#DejaVuSans-42"/>
      <use xlink:href="#DejaVuSans-45" transform="translate(68.603516 0)"/>
      <use xlink:href="#DejaVuSans-53" transform="translate(131.787109 0)"/>
      <use xlink:href="#DejaVuSans-53" transform="translate(195.263672 0)"/>
      <use xlink:href="#DejaVuSans-20" transform="translate(258.740234 0)"/>
      <use xlink:href="#DejaVuSans-5b" transform="translate(290.527344 0)"/>
      <use xlink:href="#DejaVuSans-4d" transform="translate(329.541016 0)"/>
      <use xlink:href="#DejaVuSans-57" transform="translate(415.820312 0)"/>
      <use xlink:href="#DejaVuSans-68" transform="translate(514.697266 0)"/>
      <use xlink:href="#DejaVuSans-5d" transform="translate(578.076172 0)"/>
     </g>
    </g>
   </g>
   <g id="line2d_45">
    <path d="M 78.093182 223.860607 
L 82.527101 294.472808 
L 84.005074 289.765329 
L 85.483047 313.302728 
L 88.438992 313.302728 
L 89.916965 270.817721 
L 91.394938 294.35512 
L 92.872911 251.870112 
L 94.350884 275.407515 
L 95.828857 266.227927 
L 98.784803 313.302728 
L 100.262776 313.302728 
L 101.740749 270.817721 
L 103.218722 289.765329 
L 104.696695 313.302728 
L 106.174668 313.302728 
L 107.652641 289.765329 
L 109.130614 289.765329 
L 110.608587 313.302728 
L 113.564532 228.332713 
L 115.042505 209.385104 
L 119.476424 81.930081 
L 120.954397 105.467484 
L 122.43237 105.467484 
L 123.910343 62.982476 
L 129.822235 157.132076 
L 131.300208 114.647068 
L 135.734127 185.259269 
L 137.212099 166.311664 
L 140.168045 213.386462 
L 141.646018 213.386462 
L 144.601964 128.416447 
L 146.079937 106.40898 
L 147.55791 63.923972 
L 149.035883 87.461371 
L 150.513856 44.976364 
L 153.469802 44.976364 
L 154.947775 68.513763 
L 156.425748 49.566158 
L 157.903721 44.976364 
L 165.293585 44.976364 
L 166.771558 68.513763 
L 168.249531 49.566158 
L 169.727504 44.976364 
L 171.205477 63.923972 
L 172.68345 63.923972 
L 174.161423 44.976364 
L 175.639396 44.976364 
L 178.595342 92.051165 
L 180.073315 92.051165 
L 184.507234 162.663366 
L 185.985207 167.488533 
L 188.941152 214.563334 
L 191.897098 214.563334 
L 193.375071 238.100734 
L 196.331017 238.100734 
L 199.286963 285.175535 
L 200.764936 285.175535 
L 202.242909 242.690528 
L 206.676828 242.690528 
L 211.110746 313.302728 
L 212.588719 313.302728 
L 214.066692 294.35512 
L 215.544665 313.302728 
L 219.978584 313.302728 
L 221.456557 294.482614 
L 225.890476 294.482614 
L 240.670205 106.281486 
L 242.148178 106.281486 
L 243.626151 87.461371 
L 245.104124 44.976364 
L 246.582097 44.976364 
L 249.538043 92.051165 
L 251.016016 106.40898 
L 252.493989 129.946379 
L 253.971962 87.461371 
L 255.449935 87.461371 
L 256.927908 44.976364 
L 267.273718 44.976364 
L 268.751691 68.513763 
L 270.229664 78.281787 
L 273.18561 78.281787 
L 274.663583 101.819186 
L 277.619529 101.819186 
L 279.097502 82.871577 
L 280.575475 106.40898 
L 282.053448 106.40898 
L 283.531421 63.923972 
L 285.009394 44.976364 
L 289.443312 115.588565 
L 292.399258 115.588565 
L 293.877231 87.461371 
L 295.355204 44.976364 
L 296.833177 68.513763 
L 298.31115 49.566158 
L 299.789123 44.976364 
L 301.267096 44.976364 
L 302.745069 68.513763 
L 304.223042 49.566158 
L 305.701015 44.976364 
L 307.178988 68.513763 
L 308.656961 68.513763 
L 310.134934 44.976364 
L 311.612906 68.513763 
L 313.090879 68.513763 
L 314.568852 92.051165 
L 316.046825 49.566158 
L 317.524798 49.566158 
L 330.826555 261.40276 
L 332.304528 266.227927 
L 335.260474 313.302728 
L 336.738446 313.302728 
L 338.216419 294.35512 
L 339.694392 294.35512 
L 341.172365 313.302728 
L 342.650338 308.712934 
L 344.128311 266.227927 
L 345.606284 266.227927 
L 348.56223 313.302728 
L 354.474122 313.302728 
L 355.952095 289.765329 
L 357.430068 313.302728 
L 360.386014 313.302728 
L 361.863986 270.817721 
L 372.209797 270.817721 
L 373.68777 264.658768 
L 376.643716 264.658768 
L 379.599662 252.34086 
L 381.077635 252.34086 
L 385.511554 233.864003 
L 388.467499 148.893988 
L 391.423445 148.893988 
L 392.901418 106.40898 
L 395.857364 106.40898 
L 397.335337 63.923972 
L 398.81331 44.976364 
L 400.291283 44.976364 
L 409.159121 186.200765 
L 413.593039 313.655789 
L 415.071012 300.333621 
L 418.026958 385.303636 
L 419.504931 385.303636 
L 420.982904 342.818629 
L 422.460877 385.303636 
L 423.93885 385.303636 
L 425.416823 356.729233 
L 426.894796 314.244225 
L 429.850742 314.244225 
L 431.328715 271.759217 
L 434.284661 271.759217 
L 435.762634 252.811608 
L 440.196552 125.356585 
L 441.674525 125.356585 
L 443.152498 148.893988 
L 444.630471 148.893988 
L 447.586417 63.923972 
L 449.06439 63.923972 
L 450.542363 87.461371 
L 452.020336 44.976364 
L 453.498309 44.976364 
L 456.454255 92.051165 
L 457.932228 92.051165 
L 459.410201 115.588565 
L 460.888174 125.003525 
L 465.322092 195.615726 
L 466.800065 195.615726 
L 472.711957 289.765329 
L 474.18993 289.765329 
L 475.667903 313.302728 
L 478.623849 313.302728 
L 480.101822 289.765329 
L 481.579795 313.302728 
L 484.535741 313.302728 
L 486.013714 308.712934 
L 487.491686 308.712934 
L 488.969659 289.765329 
L 490.447632 313.302728 
L 491.925605 289.765329 
L 493.403578 313.302728 
L 496.359524 313.302728 
L 497.837497 289.765329 
L 499.31547 313.302728 
L 500.793443 289.765329 
L 502.271416 313.302728 
L 503.749389 270.817721 
L 505.227362 294.35512 
L 506.705335 313.302728 
L 508.183308 313.302728 
L 509.661281 270.817721 
L 511.139254 294.35512 
L 512.617226 294.35512 
L 514.095199 313.302728 
L 515.573172 286.117032 
L 521.485064 210.326601 
L 524.44101 125.356585 
L 525.918983 106.40898 
L 527.396956 129.946379 
L 530.352902 44.976364 
L 531.830875 68.513763 
L 533.308848 87.461371 
L 534.786821 44.976364 
L 537.742766 44.976364 
L 539.220739 68.513763 
L 540.698712 49.566158 
L 542.176685 54.391324 
L 555.478442 266.227927 
L 556.956415 266.227927 
L 559.912361 313.302728 
L 561.390333 313.302728 
L 562.868306 289.765329 
L 564.346279 313.302728 
L 567.302225 313.302728 
L 568.780198 270.817721 
L 570.258171 270.817721 
L 571.736144 228.332713 
L 574.69209 190.437499 
L 577.648036 105.467484 
L 579.126009 86.519875 
L 580.603982 63.923972 
L 582.081955 44.976364 
L 583.559928 44.976364 
L 586.515873 92.051165 
L 587.993846 49.566158 
L 589.471819 44.976364 
L 590.949792 63.923972 
L 592.427765 87.461371 
L 593.905738 44.976364 
L 598.339657 115.588565 
L 599.81763 73.103557 
L 614.597359 308.477562 
L 616.075332 266.227927 
L 619.031278 313.302728 
L 620.509251 313.302728 
L 621.987224 270.817721 
L 623.465197 294.35512 
L 624.94317 308.712934 
L 626.421143 266.227927 
L 627.899116 266.227927 
L 629.377089 289.765329 
L 630.855062 289.765329 
L 632.333035 313.302728 
L 633.811008 294.35512 
L 635.288981 313.302728 
L 638.244926 313.302728 
L 639.722899 270.817721 
L 641.200872 270.817721 
L 642.678845 228.332713 
L 644.156818 223.860607 
L 644.156818 223.860607 
" clip-path="url(#ped1b482820)" style="fill: none; stroke-dasharray: 1.5,2.475; stroke-dashoffset: 0; stroke: #000080; stroke-width: 1.5"/>
   </g>
   <g id="patch_8">
    <path d="M 49.79 402.32 
L 49.79 27.96 
" style="fill: none; stroke: #000000; stroke-width: 0.8; stroke-linejoin: miter; stroke-linecap: square"/>
   </g>
   <g id="patch_9">
    <path d="M 672.46 402.32 
L 672.46 27.96 
" style="fill: none; stroke: #000000; stroke-width: 0.8; stroke-linejoin: miter; stroke-linecap: square"/>
   </g>
   <g id="patch_10">
    <path d="M 49.79 402.32 
L 672.46 402.32 
" style="fill: none; stroke: #000000; stroke-width: 0.8; stroke-linejoin: miter; stroke-linecap: square"/>
   </g>
   <g id="patch_11">
    <path d="M 49.79 27.96 
L 672.46 27.96 
" style="fill: none; stroke: #000000; stroke-width: 0.8; stroke-linejoin: miter; stroke-linecap: square"/>
   </g>
   <g id="legend_2">
    <g id="patch_12">
     <path d="M 574.276406 52.905937 
L 664.76 52.905937 
Q 666.96 52.905937 666.96 50.705938 
L 666.96 35.66 
Q 666.96 33.46 664.76 33.46 
L 574.276406 33.46 
Q 572.076406 33.46 572.076406 35.66 
L 572.076406 50.705938 
Q 572.076406 52.905937 574.276406 52.905937 
z
" style="fill: #ffffff; opacity: 0.8; stroke: #cccccc; stroke-linejoin: miter"/>
    </g>
    <g id="line2d_46">
     <path d="M 576.476406 42.368281 
L 587.476406 42.368281 
L 598.476406 42.368281 
" style="fill: none; stroke-dasharray: 1.5,2.475; stroke-dashoffset: 0; stroke: #000080; stroke-width: 1.5"/>
    </g>
    <g id="text_26">
     <!-- BESS SOC -->
     <g transform="translate(607.276406 46.218281) scale(0.11 -0.11)">
      <defs>
       <path id="DejaVuSans-4f" d="M 2522 4238 
Q 1834 4238 1429 3725 
Q 1025 3213 1025 2328 
Q 1025 1447 1429 934 
Q 1834 422 2522 422 
Q 3209 422 3611 934 
Q 4013 1447 4013 2328 
Q 4013 3213 3611 3725 
Q 3209 4238 2522 4238 
z
M 2522 4750 
Q 3503 4750 4090 4092 
Q 4678 3434 4678 2328 
Q 4678 1225 4090 567 
Q 3503 -91 2522 -91 
Q 1538 -91 948 565 
Q 359 1222 359 2328 
Q 359 3434 948 4092 
Q 1538 4750 2522 4750 
z
" transform="scale(0.015625)"/>
       <path id="DejaVuSans-43" d="M 4122 4306 
L 4122 3641 
Q 3803 3938 3442 4084 
Q 3081 4231 2675 4231 
Q 1875 4231 1450 3742 
Q 1025 3253 1025 2328 
Q 1025 1406 1450 917 
Q 1875 428 2675 428 
Q 3081 428 3442 575 
Q 3803 722 4122 1019 
L 4122 359 
Q 3791 134 3420 21 
Q 3050 -91 2638 -91 
Q 1578 -91 968 557 
Q 359 1206 359 2328 
Q 359 3453 968 4101 
Q 1578 4750 2638 4750 
Q 3056 4750 3426 4639 
Q 3797 4528 4122 4306 
z
" transform="scale(0.015625)"/>
      </defs>
      <use xlink:href="#DejaVuSans-42"/>
      <use xlink:href="#DejaVuSans-45" transform="translate(68.603516 0)"/>
      <use xlink:href="#DejaVuSans-53" transform="translate(131.787109 0)"/>
      <use xlink:href="#DejaVuSans-53" transform="translate(195.263672 0)"/>
      <use xlink:href="#DejaVuSans-20" transform="translate(258.740234 0)"/>
      <use xlink:href="#DejaVuSans-53" transform="translate(290.527344 0)"/>
      <use xlink:href="#DejaVuSans-4f" transform="translate(354.003906 0)"/>
      <use xlink:href="#DejaVuSans-43" transform="translate(432.714844 0)"/>
     </g>
    </g>
   </g>
  </g>
 </g>
 <defs>
  <clipPath id="ped1b482820">
   <rect x="49.79" y="27.96" width="622.67" height="374.36"/>
  </clipPath>
 </defs>
</svg>
