<?xml version="1.0" encoding="utf-8" standalone="no"?>
<!DOCTYPE svg PUBLIC "-//W3C//DTD SVG 1.1//EN"
  "http://www.w3.org/Graphics/SVG/1.1/DTD/svg11.dtd">
<svg xmlns:xlink="http://www.w3.org/1999/xlink" width="720pt" height="432pt" viewBox="0 0 720 432" xmlns="http://www.w3.org/2000/svg" version="1.1">
 <metadata>
  <rdf:RDF xmlns:dc="http://purl.org/dc/elements/1.1/" xmlns:cc="http://creativecommons.org/ns#" xmlns:rdf="http://www.w3.org/1999/02/22-rdf-syntax-ns#">
   <cc:Work>
    <dc:type rdf:resource="http://purl.org/dc/dcmitype/StillImage"/>
    <dc:date>2026-01-03T18:40:59.261594</dc:date>
    <dc:format>image/svg+xml</dc:format>
    <dc:creator>
     <cc:Agent>
      <dc:title>Matplotlib v3.10.7, https://matplotlib.org/</dc:title>
     </cc:Agent>
    </dc:creator>
   </cc:Work>
  </rdf:RDF>
 </metadata>
 <defs>
  <style type="text/css">*{stroke-linejoin: round; stroke-linecap: butt}</style>
 </defs>
 <g id="figure_1">
  <g id="patch_1">
   <path d="M 0 432 
L 720 432 
L 720 0 
L 0 0 
z
" style="fill: #ffffff"/>
  </g>
  <g id="axes_1">
   <g id="patch_2">
    <path d="M 40.7 328.824 
L 704.394164 328.824 
L 704.394164 27.96 
L 40.7 27.96 
z
" style="fill: #ffffff"/>
   </g>
   <g id="FillBetweenPolyCollection_1">
    <defs>
     <path id="m3d4b0d7be7" d="M 70.867917 -116.851636 
L 70.867917 -116.851636 
L 72.443265 -116.851636 
L 74.018613 -116.851636 
L 75.593961 -116.851636 
L 77.169309 -116.851636 
L 78.744657 -116.851636 
L 80.320005 -116.851636 
L 81.895353 -116.851636 
L 83.470702 -116.851636 
L 85.04605 -116.851636 
L 86.621398 -116.851636 
L 88.196746 -116.851636 
L 89.772094 -116.851636 
L 91.347442 -116.851636 
L 92.92279 -116.851636 
L 94.498138 -116.851636 
L 96.073487 -390.364364 
L 97.648835 -390.364364 
L 99.224183 -390.364364 
L 100.799531 -390.364364 
L 102.374879 -390.364364 
L 103.950227 -390.364364 
L 105.525575 -390.364364 
L 107.100923 -390.364364 
L 108.676272 -390.364364 
L 110.25162 -390.364364 
L 111.826968 -390.364364 
L 113.402316 -390.364364 
L 114.977664 -390.364364 
L 116.553012 -390.364364 
L 118.12836 -390.364364 
L 119.703708 -390.364364 
L 121.279057 -116.851636 
L 122.854405 -116.851636 
L 124.429753 -116.851636 
L 126.005101 -116.851636 
L 127.580449 -116.851636 
L 129.155797 -116.851636 
L 130.731145 -116.851636 
L 132.306493 -116.851636 
L 133.881842 -116.851636 
L 135.45719 -116.851636 
L 137.032538 -116.851636 
L 138.607886 -116.851636 
L 140.183234 -116.851636 
L 141.758582 -116.851636 
L 143.33393 -116.851636 
L 144.909278 -116.851636 
L 146.484627 -253.608 
L 148.059975 -253.608 
L 149.635323 -253.608 
L 151.210671 -253.608 
L 152.786019 -253.608 
L 154.361367 -253.608 
L 155.936715 -253.608 
L 157.512063 -253.608 
L 159.087411 -253.608 
L 160.66276 -253.608 
L 162.238108 -253.608 
L 163.813456 -253.608 
L 165.388804 -253.608 
L 166.964152 -253.608 
L 168.5395 -253.608 
L 170.114848 -253.608 
L 171.690196 -215.026169 
L 173.265545 -215.026169 
L 174.840893 -215.026169 
L 176.416241 -215.026169 
L 177.991589 -215.026169 
L 179.566937 -215.026169 
L 181.142285 -215.026169 
L 182.717633 -215.026169 
L 184.292981 -215.026169 
L 185.86833 -215.026169 
L 187.443678 -215.026169 
L 189.019026 -215.026169 
L 190.594374 -215.026169 
L 192.169722 -215.026169 
L 193.74507 -215.026169 
L 195.320418 -215.026169 
L 196.895766 -116.851636 
L 198.471115 -116.851636 
L 200.046463 -116.851636 
L 201.621811 -116.851636 
L 203.197159 -116.851636 
L 204.772507 -116.851636 
L 206.347855 -116.851636 
L 207.923203 -116.851636 
L 209.498551 -116.851636 
L 211.0739 -116.851636 
L 212.649248 -116.851636 
L 214.224596 -116.851636 
L 215.799944 -116.851636 
L 217.375292 -116.851636 
L 218.95064 -116.851636 
L 220.525988 -116.851636 
L 222.101336 -390.364364 
L 223.676685 -390.364364 
L 225.252033 -390.364364 
L 226.827381 -390.364364 
L 228.402729 -390.364364 
L 229.978077 -390.364364 
L 231.553425 -390.364364 
L 233.128773 -390.364364 
L 234.704121 -390.364364 
L 236.27947 -390.364364 
L 237.854818 -390.364364 
L 239.430166 -390.364364 
L 241.005514 -390.364364 
L 242.580862 -390.364364 
L 244.15621 -390.364364 
L 245.731558 -390.364364 
L 247.306906 -202.423244 
L 248.882255 -202.423244 
L 250.457603 -202.423244 
L 252.032951 -202.423244 
L 253.608299 -202.423244 
L 255.183647 -202.423244 
L 256.758995 -202.423244 
L 258.334343 -202.423244 
L 259.909691 -202.423244 
L 261.48504 -202.423244 
L 263.060388 -202.423244 
L 264.635736 -202.423244 
L 266.211084 -202.423244 
L 267.786432 -202.423244 
L 269.36178 -202.423244 
L 270.937128 -202.423244 
L 272.512476 -221.475872 
L 274.087825 -221.475872 
L 275.663173 -221.475872 
L 277.238521 -221.475872 
L 278.813869 -221.475872 
L 280.389217 -221.475872 
L 281.964565 -221.475872 
L 283.539913 -221.475872 
L 285.115261 -221.475872 
L 286.69061 -221.475872 
L 288.265958 -221.475872 
L 289.841306 -221.475872 
L 291.416654 -221.475872 
L 292.992002 -221.475872 
L 294.56735 -221.475872 
L 296.142698 -221.475872 
L 297.718046 -116.851636 
L 299.293394 -116.851636 
L 300.868743 -116.851636 
L 302.444091 -116.851636 
L 304.019439 -116.851636 
L 305.594787 -116.851636 
L 307.170135 -116.851636 
L 308.745483 -116.851636 
L 310.320831 -116.851636 
L 311.896179 -116.851636 
L 313.471528 -116.851636 
L 315.046876 -116.851636 
L 316.622224 -116.851636 
L 318.197572 -116.851636 
L 319.77292 -116.851636 
L 321.348268 -116.851636 
L 322.923616 -116.851636 
L 324.498964 -116.851636 
L 326.074313 -116.851636 
L 327.649661 -116.851636 
L 329.225009 -116.851636 
L 330.800357 -116.851636 
L 332.375705 -116.851636 
L 333.951053 -116.851636 
L 335.526401 -116.851636 
L 337.101749 -116.851636 
L 338.677098 -116.851636 
L 340.252446 -116.851636 
L 341.827794 -116.851636 
L 343.403142 -116.851636 
L 344.97849 -116.851636 
L 346.553838 -116.851636 
L 348.129186 -116.851636 
L 349.704534 -116.851636 
L 351.279883 -116.851636 
L 352.855231 -116.851636 
L 354.430579 -116.851636 
L 356.005927 -116.851636 
L 357.581275 -116.851636 
L 359.156623 -116.851636 
L 360.731971 -116.851636 
L 362.307319 -116.851636 
L 363.882668 -116.851636 
L 365.458016 -116.851636 
L 367.033364 -116.851636 
L 368.608712 -116.851636 
L 370.18406 -116.851636 
L 371.759408 -116.851636 
L 373.334756 -260.191358 
L 374.910104 -260.191358 
L 376.485453 -260.191358 
L 378.060801 -260.191358 
L 379.636149 -260.191358 
L 381.211497 -260.191358 
L 382.786845 -260.191358 
L 384.362193 -260.191358 
L 385.937541 -260.191358 
L 387.512889 -260.191358 
L 389.088238 -260.191358 
L 390.663586 -260.191358 
L 392.238934 -260.191358 
L 393.814282 -260.191358 
L 395.38963 -260.191358 
L 396.964978 -260.191358 
L 398.540326 -116.851636 
L 400.115674 -116.851636 
L 401.691023 -116.851636 
L 403.266371 -116.851636 
L 404.841719 -116.851636 
L 406.417067 -116.851636 
L 407.992415 -116.851636 
L 409.567763 -116.851636 
L 411.143111 -116.851636 
L 412.718459 -116.851636 
L 414.293808 -116.851636 
L 415.869156 -116.851636 
L 417.444504 -116.851636 
L 419.019852 -116.851636 
L 420.5952 -116.851636 
L 422.170548 -116.851636 
L 423.745896 -116.851636 
L 425.321244 -116.851636 
L 426.896593 -116.851636 
L 428.471941 -116.851636 
L 430.047289 -116.851636 
L 431.622637 -116.851636 
L 433.197985 -116.851636 
L 434.773333 -116.851636 
L 436.348681 -116.851636 
L 437.924029 -116.851636 
L 439.499378 -116.851636 
L 441.074726 -116.851636 
L 442.650074 -116.851636 
L 444.225422 -116.851636 
L 445.80077 -116.851636 
L 447.376118 -116.851636 
L 448.951466 -390.364364 
L 450.526814 -390.364364 
L 452.102162 -390.364364 
L 453.677511 -390.364364 
L 455.252859 -390.364364 
L 456.828207 -390.364364 
L 458.403555 -390.364364 
L 459.978903 -390.364364 
L 461.554251 -390.364364 
L 463.129599 -390.364364 
L 464.704947 -390.364364 
L 466.280296 -390.364364 
L 467.855644 -390.364364 
L 469.430992 -390.364364 
L 471.00634 -390.364364 
L 472.581688 -390.364364 
L 474.157036 -116.851636 
L 475.732384 -116.851636 
L 477.307732 -116.851636 
L 478.883081 -116.851636 
L 480.458429 -116.851636 
L 482.033777 -116.851636 
L 483.609125 -116.851636 
L 485.184473 -116.851636 
L 486.759821 -116.851636 
L 488.335169 -116.851636 
L 489.910517 -116.851636 
L 491.485866 -116.851636 
L 493.061214 -116.851636 
L 494.636562 -116.851636 
L 496.21191 -116.851636 
L 497.787258 -116.851636 
L 499.362606 -135.387491 
L 500.937954 -135.387491 
L 502.513302 -135.387491 
L 504.088651 -135.387491 
L 505.663999 -135.387491 
L 507.239347 -135.387491 
L 508.814695 -135.387491 
L 510.390043 -135.387491 
L 511.965391 -135.387491 
L 513.540739 -135.387491 
L 515.116087 -135.387491 
L 516.691436 -135.387491 
L 518.266784 -135.387491 
L 519.842132 -135.387491 
L 521.41748 -135.387491 
L 522.992828 -135.387491 
L 524.568176 -390.364364 
L 526.143524 -390.364364 
L 527.718872 -390.364364 
L 529.294221 -390.364364 
L 530.869569 -390.364364 
L 532.444917 -390.364364 
L 534.020265 -390.364364 
L 535.595613 -390.364364 
L 537.170961 -390.364364 
L 538.746309 -390.364364 
L 540.321657 -390.364364 
L 541.897006 -390.364364 
L 543.472354 -390.364364 
L 545.047702 -390.364364 
L 546.62305 -390.364364 
L 548.198398 -390.364364 
L 549.773746 -116.851636 
L 551.349094 -116.851636 
L 552.924442 -116.851636 
L 554.499791 -116.851636 
L 556.075139 -116.851636 
L 557.650487 -116.851636 
L 559.225835 -116.851636 
L 560.801183 -116.851636 
L 562.376531 -116.851636 
L 563.951879 -116.851636 
L 565.527227 -116.851636 
L 567.102576 -116.851636 
L 568.677924 -116.851636 
L 570.253272 -116.851636 
L 571.82862 -116.851636 
L 573.403968 -116.851636 
L 574.979316 -253.608 
L 576.554664 -253.608 
L 578.130012 -253.608 
L 579.705361 -253.608 
L 581.280709 -253.608 
L 582.856057 -253.608 
L 584.431405 -253.608 
L 586.006753 -253.608 
L 587.582101 -253.608 
L 589.157449 -253.608 
L 590.732797 -253.608 
L 592.308145 -253.608 
L 593.883494 -253.608 
L 595.458842 -253.608 
L 597.03419 -253.608 
L 598.609538 -253.608 
L 600.184886 -116.851636 
L 601.760234 -116.851636 
L 603.335582 -116.851636 
L 604.91093 -116.851636 
L 606.486279 -116.851636 
L 608.061627 -116.851636 
L 609.636975 -116.851636 
L 611.212323 -116.851636 
L 612.787671 -116.851636 
L 614.363019 -116.851636 
L 615.938367 -116.851636 
L 617.513715 -116.851636 
L 619.089064 -116.851636 
L 620.664412 -116.851636 
L 622.23976 -116.851636 
L 623.815108 -116.851636 
L 625.390456 -116.851636 
L 626.965804 -116.851636 
L 628.541152 -116.851636 
L 630.1165 -116.851636 
L 631.691849 -116.851636 
L 633.267197 -116.851636 
L 634.842545 -116.851636 
L 636.417893 -116.851636 
L 637.993241 -116.851636 
L 639.568589 -116.851636 
L 641.143937 -116.851636 
L 642.719285 -116.851636 
L 644.294634 -116.851636 
L 645.869982 -116.851636 
L 647.44533 -116.851636 
L 649.020678 -116.851636 
L 650.596026 -116.851636 
L 652.171374 -116.851636 
L 653.746722 -116.851636 
L 655.32207 -116.851636 
L 656.897419 -116.851636 
L 658.472767 -116.851636 
L 660.048115 -116.851636 
L 661.623463 -116.851636 
L 663.198811 -116.851636 
L 664.774159 -116.851636 
L 666.349507 -116.851636 
L 667.924855 -116.851636 
L 669.500204 -116.851636 
L 671.075552 -116.851636 
L 672.6509 -116.851636 
L 674.226248 -116.851636 
L 674.226248 -116.851636 
L 674.226248 -116.851636 
L 672.6509 -116.851636 
L 671.075552 -116.851636 
L 669.500204 -116.851636 
L 667.924855 -116.851636 
L 666.349507 -116.851636 
L 664.774159 -116.851636 
L 663.198811 -116.851636 
L 661.623463 -116.851636 
L 660.048115 -116.851636 
L 658.472767 -116.851636 
L 656.897419 -116.851636 
L 655.32207 -116.851636 
L 653.746722 -116.851636 
L 652.171374 -116.851636 
L 650.596026 -116.851636 
L 649.020678 -116.851636 
L 647.44533 -116.851636 
L 645.869982 -116.851636 
L 644.294634 -116.851636 
L 642.719285 -116.851636 
L 641.143937 -116.851636 
L 639.568589 -116.851636 
L 637.993241 -116.851636 
L 636.417893 -116.851636 
L 634.842545 -116.851636 
L 633.267197 -116.851636 
L 631.691849 -116.851636 
L 630.1165 -116.851636 
L 628.541152 -116.851636 
L 626.965804 -116.851636 
L 625.390456 -116.851636 
L 623.815108 -116.851636 
L 622.23976 -116.851636 
L 620.664412 -116.851636 
L 619.089064 -116.851636 
L 617.513715 -116.851636 
L 615.938367 -116.851636 
L 614.363019 -116.851636 
L 612.787671 -116.851636 
L 611.212323 -116.851636 
L 609.636975 -116.851636 
L 608.061627 -116.851636 
L 606.486279 -116.851636 
L 604.91093 -116.851636 
L 603.335582 -116.851636 
L 601.760234 -116.851636 
L 600.184886 -116.851636 
L 598.609538 -116.851636 
L 597.03419 -116.851636 
L 595.458842 -116.851636 
L 593.883494 -116.851636 
L 592.308145 -116.851636 
L 590.732797 -116.851636 
L 589.157449 -116.851636 
L 587.582101 -116.851636 
L 586.006753 -116.851636 
L 584.431405 -116.851636 
L 582.856057 -116.851636 
L 581.280709 -116.851636 
L 579.705361 -116.851636 
L 578.130012 -116.851636 
L 576.554664 -116.851636 
L 574.979316 -116.851636 
L 573.403968 -116.851636 
L 571.82862 -116.851636 
L 570.253272 -116.851636 
L 568.677924 -116.851636 
L 567.102576 -116.851636 
L 565.527227 -116.851636 
L 563.951879 -116.851636 
L 562.376531 -116.851636 
L 560.801183 -116.851636 
L 559.225835 -116.851636 
L 557.650487 -116.851636 
L 556.075139 -116.851636 
L 554.499791 -116.851636 
L 552.924442 -116.851636 
L 551.349094 -116.851636 
L 549.773746 -116.851636 
L 548.198398 -116.851636 
L 546.62305 -116.851636 
L 545.047702 -116.851636 
L 543.472354 -116.851636 
L 541.897006 -116.851636 
L 540.321657 -116.851636 
L 538.746309 -116.851636 
L 537.170961 -116.851636 
L 535.595613 -116.851636 
L 534.020265 -116.851636 
L 532.444917 -116.851636 
L 530.869569 -116.851636 
L 529.294221 -116.851636 
L 527.718872 -116.851636 
L 526.143524 -116.851636 
L 524.568176 -116.851636 
L 522.992828 -116.851636 
L 521.41748 -116.851636 
L 519.842132 -116.851636 
L 518.266784 -116.851636 
L 516.691436 -116.851636 
L 515.116087 -116.851636 
L 513.540739 -116.851636 
L 511.965391 -116.851636 
L 510.390043 -116.851636 
L 508.814695 -116.851636 
L 507.239347 -116.851636 
L 505.663999 -116.851636 
L 504.088651 -116.851636 
L 502.513302 -116.851636 
L 500.937954 -116.851636 
L 499.362606 -116.851636 
L 497.787258 -116.851636 
L 496.21191 -116.851636 
L 494.636562 -116.851636 
L 493.061214 -116.851636 
L 491.485866 -116.851636 
L 489.910517 -116.851636 
L 488.335169 -116.851636 
L 486.759821 -116.851636 
L 485.184473 -116.851636 
L 483.609125 -116.851636 
L 482.033777 -116.851636 
L 480.458429 -116.851636 
L 478.883081 -116.851636 
L 477.307732 -116.851636 
L 475.732384 -116.851636 
L 474.157036 -116.851636 
L 472.581688 -116.851636 
L 471.00634 -116.851636 
L 469.430992 -116.851636 
L 467.855644 -116.851636 
L 466.280296 -116.851636 
L 464.704947 -116.851636 
L 463.129599 -116.851636 
L 461.554251 -116.851636 
L 459.978903 -116.851636 
L 458.403555 -116.851636 
L 456.828207 -116.851636 
L 455.252859 -116.851636 
L 453.677511 -116.851636 
L 452.102162 -116.851636 
L 450.526814 -116.851636 
L 448.951466 -116.851636 
L 447.376118 -116.851636 
L 445.80077 -116.851636 
L 444.225422 -116.851636 
L 442.650074 -116.851636 
L 441.074726 -116.851636 
L 439.499378 -116.851636 
L 437.924029 -116.851636 
L 436.348681 -116.851636 
L 434.773333 -116.851636 
L 433.197985 -116.851636 
L 431.622637 -116.851636 
L 430.047289 -116.851636 
L 428.471941 -116.851636 
L 426.896593 -116.851636 
L 425.321244 -116.851636 
L 423.745896 -116.851636 
L 422.170548 -116.851636 
L 420.5952 -116.851636 
L 419.019852 -116.851636 
L 417.444504 -116.851636 
L 415.869156 -116.851636 
L 414.293808 -116.851636 
L 412.718459 -116.851636 
L 411.143111 -116.851636 
L 409.567763 -116.851636 
L 407.992415 -116.851636 
L 406.417067 -116.851636 
L 404.841719 -116.851636 
L 403.266371 -116.851636 
L 401.691023 -116.851636 
L 400.115674 -116.851636 
L 398.540326 -116.851636 
L 396.964978 -116.851636 
L 395.38963 -116.851636 
L 393.814282 -116.851636 
L 392.238934 -116.851636 
L 390.663586 -116.851636 
L 389.088238 -116.851636 
L 387.512889 -116.851636 
L 385.937541 -116.851636 
L 384.362193 -116.851636 
L 382.786845 -116.851636 
L 381.211497 -116.851636 
L 379.636149 -116.851636 
L 378.060801 -116.851636 
L 376.485453 -116.851636 
L 374.910104 -116.851636 
L 373.334756 -116.851636 
L 371.759408 -116.851636 
L 370.18406 -116.851636 
L 368.608712 -116.851636 
L 367.033364 -116.851636 
L 365.458016 -116.851636 
L 363.882668 -116.851636 
L 362.307319 -116.851636 
L 360.731971 -116.851636 
L 359.156623 -116.851636 
L 357.581275 -116.851636 
L 356.005927 -116.851636 
L 354.430579 -116.851636 
L 352.855231 -116.851636 
L 351.279883 -116.851636 
L 349.704534 -116.851636 
L 348.129186 -116.851636 
L 346.553838 -116.851636 
L 344.97849 -116.851636 
L 343.403142 -116.851636 
L 341.827794 -116.851636 
L 340.252446 -116.851636 
L 338.677098 -116.851636 
L 337.101749 -116.851636 
L 335.526401 -116.851636 
L 333.951053 -116.851636 
L 332.375705 -116.851636 
L 330.800357 -116.851636 
L 329.225009 -116.851636 
L 327.649661 -116.851636 
L 326.074313 -116.851636 
L 324.498964 -116.851636 
L 322.923616 -116.851636 
L 321.348268 -116.851636 
L 319.77292 -116.851636 
L 318.197572 -116.851636 
L 316.622224 -116.851636 
L 315.046876 -116.851636 
L 313.471528 -116.851636 
L 311.896179 -116.851636 
L 310.320831 -116.851636 
L 308.745483 -116.851636 
L 307.170135 -116.851636 
L 305.594787 -116.851636 
L 304.019439 -116.851636 
L 302.444091 -116.851636 
L 300.868743 -116.851636 
L 299.293394 -116.851636 
L 297.718046 -116.851636 
L 296.142698 -116.851636 
L 294.56735 -116.851636 
L 292.992002 -116.851636 
L 291.416654 -116.851636 
L 289.841306 -116.851636 
L 288.265958 -116.851636 
L 286.69061 -116.851636 
L 285.115261 -116.851636 
L 283.539913 -116.851636 
L 281.964565 -116.851636 
L 280.389217 -116.851636 
L 278.813869 -116.851636 
L 277.238521 -116.851636 
L 275.663173 -116.851636 
L 274.087825 -116.851636 
L 272.512476 -116.851636 
L 270.937128 -116.851636 
L 269.36178 -116.851636 
L 267.786432 -116.851636 
L 266.211084 -116.851636 
L 264.635736 -116.851636 
L 263.060388 -116.851636 
L 261.48504 -116.851636 
L 259.909691 -116.851636 
L 258.334343 -116.851636 
L 256.758995 -116.851636 
L 255.183647 -116.851636 
L 253.608299 -116.851636 
L 252.032951 -116.851636 
L 250.457603 -116.851636 
L 248.882255 -116.851636 
L 247.306906 -116.851636 
L 245.731558 -116.851636 
L 244.15621 -116.851636 
L 242.580862 -116.851636 
L 241.005514 -116.851636 
L 239.430166 -116.851636 
L 237.854818 -116.851636 
L 236.27947 -116.851636 
L 234.704121 -116.851636 
L 233.128773 -116.851636 
L 231.553425 -116.851636 
L 229.978077 -116.851636 
L 228.402729 -116.851636 
L 226.827381 -116.851636 
L 225.252033 -116.851636 
L 223.676685 -116.851636 
L 222.101336 -116.851636 
L 220.525988 -116.851636 
L 218.95064 -116.851636 
L 217.375292 -116.851636 
L 215.799944 -116.851636 
L 214.224596 -116.851636 
L 212.649248 -116.851636 
L 211.0739 -116.851636 
L 209.498551 -116.851636 
L 207.923203 -116.851636 
L 206.347855 -116.851636 
L 204.772507 -116.851636 
L 203.197159 -116.851636 
L 201.621811 -116.851636 
L 200.046463 -116.851636 
L 198.471115 -116.851636 
L 196.895766 -116.851636 
L 195.320418 -116.851636 
L 193.74507 -116.851636 
L 192.169722 -116.851636 
L 190.594374 -116.851636 
L 189.019026 -116.851636 
L 187.443678 -116.851636 
L 185.86833 -116.851636 
L 184.292981 -116.851636 
L 182.717633 -116.851636 
L 181.142285 -116.851636 
L 179.566937 -116.851636 
L 177.991589 -116.851636 
L 176.416241 -116.851636 
L 174.840893 -116.851636 
L 173.265545 -116.851636 
L 171.690196 -116.851636 
L 170.114848 -116.851636 
L 168.5395 -116.851636 
L 166.964152 -116.851636 
L 165.388804 -116.851636 
L 163.813456 -116.851636 
L 162.238108 -116.851636 
L 160.66276 -116.851636 
L 159.087411 -116.851636 
L 157.512063 -116.851636 
L 155.936715 -116.851636 
L 154.361367 -116.851636 
L 152.786019 -116.851636 
L 151.210671 -116.851636 
L 149.635323 -116.851636 
L 148.059975 -116.851636 
L 146.484627 -116.851636 
L 144.909278 -116.851636 
L 143.33393 -116.851636 
L 141.758582 -116.851636 
L 140.183234 -116.851636 
L 138.607886 -116.851636 
L 137.032538 -116.851636 
L 135.45719 -116.851636 
L 133.881842 -116.851636 
L 132.306493 -116.851636 
L 130.731145 -116.851636 
L 129.155797 -116.851636 
L 127.580449 -116.851636 
L 126.005101 -116.851636 
L 124.429753 -116.851636 
L 122.854405 -116.851636 
L 121.279057 -116.851636 
L 119.703708 -116.851636 
L 118.12836 -116.851636 
L 116.553012 -116.851636 
L 114.977664 -116.851636 
L 113.402316 -116.851636 
L 111.826968 -116.851636 
L 110.25162 -116.851636 
L 108.676272 -116.851636 
L 107.100923 -116.851636 
L 105.525575 -116.851636 
L 103.950227 -116.851636 
L 102.374879 -116.851636 
L 100.799531 -116.851636 
L 99.224183 -116.851636 
L 97.648835 -116.851636 
L 96.073487 -116.851636 
L 94.498138 -116.851636 
L 92.92279 -116.851636 
L 91.347442 -116.851636 
L 89.772094 -116.851636 
L 88.196746 -116.851636 
L 86.621398 -116.851636 
L 85.04605 -116.851636 
L 83.470702 -116.851636 
L 81.895353 -116.851636 
L 80.320005 -116.851636 
L 78.744657 -116.851636 
L 77.169309 -116.851636 
L 75.593961 -116.851636 
L 74.018613 -116.851636 
L 72.443265 -116.851636 
L 70.867917 -116.851636 
z
" style="stroke: #8b0000; stroke-opacity: 0.3"/>
    </defs>
    <g clip-path="url(#p6cfe67363b)">
     <use xlink:href="#m3d4b0d7be7" x="0" y="432" style="fill: #8b0000; fill-opacity: 0.3; stroke: #8b0000; stroke-opacity: 0.3"/>
    </g>
   </g>
   <g id="FillBetweenPolyCollection_2">
    <defs>
     <path id="m9f96266d0b" d="M 70.867917 -116.851636 
L 70.867917 -116.851636 
L 72.443265 -116.851636 
L 74.018613 -116.851636 
L 75.593961 -116.851636 
L 77.169309 -116.851636 
L 78.744657 -116.851636 
L 80.320005 -116.851636 
L 81.895353 -116.851636 
L 83.470702 -116.851636 
L 85.04605 -116.851636 
L 86.621398 -116.851636 
L 88.196746 -116.851636 
L 89.772094 -116.851636 
L 91.347442 -116.851636 
L 92.92279 -116.851636 
L 94.498138 -116.851636 
L 96.073487 -116.851636 
L 97.648835 -116.851636 
L 99.224183 -116.851636 
L 100.799531 -116.851636 
L 102.374879 -116.851636 
L 103.950227 -116.851636 
L 105.525575 -116.851636 
L 107.100923 -116.851636 
L 108.676272 -116.851636 
L 110.25162 -116.851636 
L 111.826968 -116.851636 
L 113.402316 -116.851636 
L 114.977664 -116.851636 
L 116.553012 -116.851636 
L 118.12836 -116.851636 
L 119.703708 -116.851636 
L 121.279057 -116.851636 
L 122.854405 -116.851636 
L 124.429753 -116.851636 
L 126.005101 -116.851636 
L 127.580449 -116.851636 
L 129.155797 -116.851636 
L 130.731145 -116.851636 
L 132.306493 -116.851636 
L 133.881842 -116.851636 
L 135.45719 -116.851636 
L 137.032538 -116.851636 
L 138.607886 -116.851636 
L 140.183234 -116.851636 
L 141.758582 -116.851636 
L 143.33393 -116.851636 
L 144.909278 -116.851636 
L 146.484627 -116.851636 
L 148.059975 -116.851636 
L 149.635323 -116.851636 
L 151.210671 -116.851636 
L 152.786019 -116.851636 
L 154.361367 -116.851636 
L 155.936715 -116.851636 
L 157.512063 -116.851636 
L 159.087411 -116.851636 
L 160.66276 -116.851636 
L 162.238108 -116.851636 
L 163.813456 -116.851636 
L 165.388804 -116.851636 
L 166.964152 -116.851636 
L 168.5395 -116.851636 
L 170.114848 -116.851636 
L 171.690196 -116.851636 
L 173.265545 -116.851636 
L 174.840893 -116.851636 
L 176.416241 -116.851636 
L 177.991589 -116.851636 
L 179.566937 -116.851636 
L 181.142285 -116.851636 
L 182.717633 -116.851636 
L 184.292981 -116.851636 
L 185.86833 -116.851636 
L 187.443678 -116.851636 
L 189.019026 -116.851636 
L 190.594374 -116.851636 
L 192.169722 -116.851636 
L 193.74507 -116.851636 
L 195.320418 -116.851636 
L 196.895766 -116.851636 
L 198.471115 -116.851636 
L 200.046463 -116.851636 
L 201.621811 -116.851636 
L 203.197159 -116.851636 
L 204.772507 -116.851636 
L 206.347855 -116.851636 
L 207.923203 -116.851636 
L 209.498551 -116.851636 
L 211.0739 -116.851636 
L 212.649248 -116.851636 
L 214.224596 -116.851636 
L 215.799944 -116.851636 
L 217.375292 -116.851636 
L 218.95064 -116.851636 
L 220.525988 -116.851636 
L 222.101336 -116.851636 
L 223.676685 -116.851636 
L 225.252033 -116.851636 
L 226.827381 -116.851636 
L 228.402729 -116.851636 
L 229.978077 -116.851636 
L 231.553425 -116.851636 
L 233.128773 -116.851636 
L 234.704121 -116.851636 
L 236.27947 -116.851636 
L 237.854818 -116.851636 
L 239.430166 -116.851636 
L 241.005514 -116.851636 
L 242.580862 -116.851636 
L 244.15621 -116.851636 
L 245.731558 -116.851636 
L 247.306906 -116.851636 
L 248.882255 -116.851636 
L 250.457603 -116.851636 
L 252.032951 -116.851636 
L 253.608299 -116.851636 
L 255.183647 -116.851636 
L 256.758995 -116.851636 
L 258.334343 -116.851636 
L 259.909691 -116.851636 
L 261.48504 -116.851636 
L 263.060388 -116.851636 
L 264.635736 -116.851636 
L 266.211084 -116.851636 
L 267.786432 -116.851636 
L 269.36178 -116.851636 
L 270.937128 -116.851636 
L 272.512476 -116.851636 
L 274.087825 -116.851636 
L 275.663173 -116.851636 
L 277.238521 -116.851636 
L 278.813869 -116.851636 
L 280.389217 -116.851636 
L 281.964565 -116.851636 
L 283.539913 -116.851636 
L 285.115261 -116.851636 
L 286.69061 -116.851636 
L 288.265958 -116.851636 
L 289.841306 -116.851636 
L 291.416654 -116.851636 
L 292.992002 -116.851636 
L 294.56735 -116.851636 
L 296.142698 -116.851636 
L 297.718046 -116.851636 
L 299.293394 -116.851636 
L 300.868743 -116.851636 
L 302.444091 -116.851636 
L 304.019439 -116.851636 
L 305.594787 -116.851636 
L 307.170135 -116.851636 
L 308.745483 -116.851636 
L 310.320831 -116.851636 
L 311.896179 -116.851636 
L 313.471528 -116.851636 
L 315.046876 -116.851636 
L 316.622224 -116.851636 
L 318.197572 -116.851636 
L 319.77292 -116.851636 
L 321.348268 -116.851636 
L 322.923616 -116.851636 
L 324.498964 -116.851636 
L 326.074313 -116.851636 
L 327.649661 -116.851636 
L 329.225009 -116.851636 
L 330.800357 -116.851636 
L 332.375705 -116.851636 
L 333.951053 -116.851636 
L 335.526401 -116.851636 
L 337.101749 -116.851636 
L 338.677098 -116.851636 
L 340.252446 -116.851636 
L 341.827794 -116.851636 
L 343.403142 -116.851636 
L 344.97849 -116.851636 
L 346.553838 -116.851636 
L 348.129186 -116.851636 
L 349.704534 -116.851636 
L 351.279883 -116.851636 
L 352.855231 -116.851636 
L 354.430579 -116.851636 
L 356.005927 -116.851636 
L 357.581275 -116.851636 
L 359.156623 -116.851636 
L 360.731971 -116.851636 
L 362.307319 -116.851636 
L 363.882668 -116.851636 
L 365.458016 -116.851636 
L 367.033364 -116.851636 
L 368.608712 -116.851636 
L 370.18406 -116.851636 
L 371.759408 -116.851636 
L 373.334756 -116.851636 
L 374.910104 -116.851636 
L 376.485453 -116.851636 
L 378.060801 -116.851636 
L 379.636149 -116.851636 
L 381.211497 -116.851636 
L 382.786845 -116.851636 
L 384.362193 -116.851636 
L 385.937541 -116.851636 
L 387.512889 -116.851636 
L 389.088238 -116.851636 
L 390.663586 -116.851636 
L 392.238934 -116.851636 
L 393.814282 -116.851636 
L 395.38963 -116.851636 
L 396.964978 -116.851636 
L 398.540326 -116.851636 
L 400.115674 -116.851636 
L 401.691023 -116.851636 
L 403.266371 -116.851636 
L 404.841719 -116.851636 
L 406.417067 -116.851636 
L 407.992415 -116.851636 
L 409.567763 -116.851636 
L 411.143111 -116.851636 
L 412.718459 -116.851636 
L 414.293808 -116.851636 
L 415.869156 -116.851636 
L 417.444504 -116.851636 
L 419.019852 -116.851636 
L 420.5952 -116.851636 
L 422.170548 -116.851636 
L 423.745896 -116.851636 
L 425.321244 -116.851636 
L 426.896593 -116.851636 
L 428.471941 -116.851636 
L 430.047289 -116.851636 
L 431.622637 -116.851636 
L 433.197985 -116.851636 
L 434.773333 -116.851636 
L 436.348681 -116.851636 
L 437.924029 -116.851636 
L 439.499378 -116.851636 
L 441.074726 -116.851636 
L 442.650074 -116.851636 
L 444.225422 -116.851636 
L 445.80077 -116.851636 
L 447.376118 -116.851636 
L 448.951466 -116.851636 
L 450.526814 -116.851636 
L 452.102162 -116.851636 
L 453.677511 -116.851636 
L 455.252859 -116.851636 
L 456.828207 -116.851636 
L 458.403555 -116.851636 
L 459.978903 -116.851636 
L 461.554251 -116.851636 
L 463.129599 -116.851636 
L 464.704947 -116.851636 
L 466.280296 -116.851636 
L 467.855644 -116.851636 
L 469.430992 -116.851636 
L 471.00634 -116.851636 
L 472.581688 -116.851636 
L 474.157036 -116.851636 
L 475.732384 -116.851636 
L 477.307732 -116.851636 
L 478.883081 -116.851636 
L 480.458429 -116.851636 
L 482.033777 -116.851636 
L 483.609125 -116.851636 
L 485.184473 -116.851636 
L 486.759821 -116.851636 
L 488.335169 -116.851636 
L 489.910517 -116.851636 
L 491.485866 -116.851636 
L 493.061214 -116.851636 
L 494.636562 -116.851636 
L 496.21191 -116.851636 
L 497.787258 -116.851636 
L 499.362606 -116.851636 
L 500.937954 -116.851636 
L 502.513302 -116.851636 
L 504.088651 -116.851636 
L 505.663999 -116.851636 
L 507.239347 -116.851636 
L 508.814695 -116.851636 
L 510.390043 -116.851636 
L 511.965391 -116.851636 
L 513.540739 -116.851636 
L 515.116087 -116.851636 
L 516.691436 -116.851636 
L 518.266784 -116.851636 
L 519.842132 -116.851636 
L 521.41748 -116.851636 
L 522.992828 -116.851636 
L 524.568176 -116.851636 
L 526.143524 -116.851636 
L 527.718872 -116.851636 
L 529.294221 -116.851636 
L 530.869569 -116.851636 
L 532.444917 -116.851636 
L 534.020265 -116.851636 
L 535.595613 -116.851636 
L 537.170961 -116.851636 
L 538.746309 -116.851636 
L 540.321657 -116.851636 
L 541.897006 -116.851636 
L 543.472354 -116.851636 
L 545.047702 -116.851636 
L 546.62305 -116.851636 
L 548.198398 -116.851636 
L 549.773746 -116.851636 
L 551.349094 -116.851636 
L 552.924442 -116.851636 
L 554.499791 -116.851636 
L 556.075139 -116.851636 
L 557.650487 -116.851636 
L 559.225835 -116.851636 
L 560.801183 -116.851636 
L 562.376531 -116.851636 
L 563.951879 -116.851636 
L 565.527227 -116.851636 
L 567.102576 -116.851636 
L 568.677924 -116.851636 
L 570.253272 -116.851636 
L 571.82862 -116.851636 
L 573.403968 -116.851636 
L 574.979316 -116.851636 
L 576.554664 -116.851636 
L 578.130012 -116.851636 
L 579.705361 -116.851636 
L 581.280709 -116.851636 
L 582.856057 -116.851636 
L 584.431405 -116.851636 
L 586.006753 -116.851636 
L 587.582101 -116.851636 
L 589.157449 -116.851636 
L 590.732797 -116.851636 
L 592.308145 -116.851636 
L 593.883494 -116.851636 
L 595.458842 -116.851636 
L 597.03419 -116.851636 
L 598.609538 -116.851636 
L 600.184886 -116.851636 
L 601.760234 -116.851636 
L 603.335582 -116.851636 
L 604.91093 -116.851636 
L 606.486279 -116.851636 
L 608.061627 -116.851636 
L 609.636975 -116.851636 
L 611.212323 -116.851636 
L 612.787671 -116.851636 
L 614.363019 -116.851636 
L 615.938367 -116.851636 
L 617.513715 -116.851636 
L 619.089064 -116.851636 
L 620.664412 -116.851636 
L 622.23976 -116.851636 
L 623.815108 -116.851636 
L 625.390456 -116.851636 
L 626.965804 -116.851636 
L 628.541152 -116.851636 
L 630.1165 -116.851636 
L 631.691849 -116.851636 
L 633.267197 -116.851636 
L 634.842545 -116.851636 
L 636.417893 -116.851636 
L 637.993241 -116.851636 
L 639.568589 -116.851636 
L 641.143937 -116.851636 
L 642.719285 -116.851636 
L 644.294634 -116.851636 
L 645.869982 -116.851636 
L 647.44533 -116.851636 
L 649.020678 -116.851636 
L 650.596026 -116.851636 
L 652.171374 -116.851636 
L 653.746722 -116.851636 
L 655.32207 -116.851636 
L 656.897419 -116.851636 
L 658.472767 -116.851636 
L 660.048115 -116.851636 
L 661.623463 -116.851636 
L 663.198811 -116.851636 
L 664.774159 -116.851636 
L 666.349507 -116.851636 
L 667.924855 -116.851636 
L 669.500204 -116.851636 
L 671.075552 -116.851636 
L 672.6509 -116.851636 
L 674.226248 -116.851636 
L 674.226248 -116.851636 
L 674.226248 -116.851636 
L 672.6509 -116.851636 
L 671.075552 -116.851636 
L 669.500204 -116.851636 
L 667.924855 -116.851636 
L 666.349507 -116.851636 
L 664.774159 -116.851636 
L 663.198811 -116.851636 
L 661.623463 -116.851636 
L 660.048115 -116.851636 
L 658.472767 -116.851636 
L 656.897419 -116.851636 
L 655.32207 -116.851636 
L 653.746722 -116.851636 
L 652.171374 -116.851636 
L 650.596026 -116.851636 
L 649.020678 -116.851636 
L 647.44533 -116.851636 
L 645.869982 -116.851636 
L 644.294634 -116.851636 
L 642.719285 -116.851636 
L 641.143937 -116.851636 
L 639.568589 -116.851636 
L 637.993241 -116.851636 
L 636.417893 -116.851636 
L 634.842545 -116.851636 
L 633.267197 -116.851636 
L 631.691849 -116.851636 
L 630.1165 -116.851636 
L 628.541152 -116.851636 
L 626.965804 -116.851636 
L 625.390456 -116.851636 
L 623.815108 -116.851636 
L 622.23976 -116.851636 
L 620.664412 -116.851636 
L 619.089064 -116.851636 
L 617.513715 -116.851636 
L 615.938367 -116.851636 
L 614.363019 -116.851636 
L 612.787671 -116.851636 
L 611.212323 -116.851636 
L 609.636975 -116.851636 
L 608.061627 -116.851636 
L 606.486279 -116.851636 
L 604.91093 -116.851636 
L 603.335582 -116.851636 
L 601.760234 -116.851636 
L 600.184886 -116.851636 
L 598.609538 -116.851636 
L 597.03419 -116.851636 
L 595.458842 -116.851636 
L 593.883494 -116.851636 
L 592.308145 -116.851636 
L 590.732797 -116.851636 
L 589.157449 -116.851636 
L 587.582101 -116.851636 
L 586.006753 -116.851636 
L 584.431405 -116.851636 
L 582.856057 -116.851636 
L 581.280709 -116.851636 
L 579.705361 -116.851636 
L 578.130012 -116.851636 
L 576.554664 -116.851636 
L 574.979316 -116.851636 
L 573.403968 -116.851636 
L 571.82862 -116.851636 
L 570.253272 -116.851636 
L 568.677924 -116.851636 
L 567.102576 -116.851636 
L 565.527227 -116.851636 
L 563.951879 -116.851636 
L 562.376531 -116.851636 
L 560.801183 -116.851636 
L 559.225835 -116.851636 
L 557.650487 -116.851636 
L 556.075139 -116.851636 
L 554.499791 -116.851636 
L 552.924442 -116.851636 
L 551.349094 -116.851636 
L 549.773746 -116.851636 
L 548.198398 -116.851636 
L 546.62305 -116.851636 
L 545.047702 -116.851636 
L 543.472354 -116.851636 
L 541.897006 -116.851636 
L 540.321657 -116.851636 
L 538.746309 -116.851636 
L 537.170961 -116.851636 
L 535.595613 -116.851636 
L 534.020265 -116.851636 
L 532.444917 -116.851636 
L 530.869569 -116.851636 
L 529.294221 -116.851636 
L 527.718872 -116.851636 
L 526.143524 -116.851636 
L 524.568176 -116.851636 
L 522.992828 -116.851636 
L 521.41748 -116.851636 
L 519.842132 -116.851636 
L 518.266784 -116.851636 
L 516.691436 -116.851636 
L 515.116087 -116.851636 
L 513.540739 -116.851636 
L 511.965391 -116.851636 
L 510.390043 -116.851636 
L 508.814695 -116.851636 
L 507.239347 -116.851636 
L 505.663999 -116.851636 
L 504.088651 -116.851636 
L 502.513302 -116.851636 
L 500.937954 -116.851636 
L 499.362606 -116.851636 
L 497.787258 -116.851636 
L 496.21191 -116.851636 
L 494.636562 -116.851636 
L 493.061214 -116.851636 
L 491.485866 -116.851636 
L 489.910517 -116.851636 
L 488.335169 -116.851636 
L 486.759821 -116.851636 
L 485.184473 -116.851636 
L 483.609125 -116.851636 
L 482.033777 -116.851636 
L 480.458429 -116.851636 
L 478.883081 -116.851636 
L 477.307732 -116.851636 
L 475.732384 -116.851636 
L 474.157036 -116.851636 
L 472.581688 -116.851636 
L 471.00634 -116.851636 
L 469.430992 -116.851636 
L 467.855644 -116.851636 
L 466.280296 -116.851636 
L 464.704947 -116.851636 
L 463.129599 -116.851636 
L 461.554251 -116.851636 
L 459.978903 -116.851636 
L 458.403555 -116.851636 
L 456.828207 -116.851636 
L 455.252859 -116.851636 
L 453.677511 -116.851636 
L 452.102162 -116.851636 
L 450.526814 -116.851636 
L 448.951466 -116.851636 
L 447.376118 -116.851636 
L 445.80077 -116.851636 
L 444.225422 -116.851636 
L 442.650074 -116.851636 
L 441.074726 -116.851636 
L 439.499378 -116.851636 
L 437.924029 -116.851636 
L 436.348681 -116.851636 
L 434.773333 -116.851636 
L 433.197985 -116.851636 
L 431.622637 -116.851636 
L 430.047289 -116.851636 
L 428.471941 -116.851636 
L 426.896593 -116.851636 
L 425.321244 -116.851636 
L 423.745896 -116.851636 
L 422.170548 -116.851636 
L 420.5952 -116.851636 
L 419.019852 -116.851636 
L 417.444504 -116.851636 
L 415.869156 -116.851636 
L 414.293808 -116.851636 
L 412.718459 -116.851636 
L 411.143111 -116.851636 
L 409.567763 -116.851636 
L 407.992415 -116.851636 
L 406.417067 -116.851636 
L 404.841719 -116.851636 
L 403.266371 -116.851636 
L 401.691023 -116.851636 
L 400.115674 -116.851636 
L 398.540326 -116.851636 
L 396.964978 -116.851636 
L 395.38963 -116.851636 
L 393.814282 -116.851636 
L 392.238934 -116.851636 
L 390.663586 -116.851636 
L 389.088238 -116.851636 
L 387.512889 -116.851636 
L 385.937541 -116.851636 
L 384.362193 -116.851636 
L 382.786845 -116.851636 
L 381.211497 -116.851636 
L 379.636149 -116.851636 
L 378.060801 -116.851636 
L 376.485453 -116.851636 
L 374.910104 -116.851636 
L 373.334756 -116.851636 
L 371.759408 -116.851636 
L 370.18406 -116.851636 
L 368.608712 -116.851636 
L 367.033364 -116.851636 
L 365.458016 -116.851636 
L 363.882668 -116.851636 
L 362.307319 -116.851636 
L 360.731971 -116.851636 
L 359.156623 -116.851636 
L 357.581275 -116.851636 
L 356.005927 -116.851636 
L 354.430579 -116.851636 
L 352.855231 -116.851636 
L 351.279883 -116.851636 
L 349.704534 -116.851636 
L 348.129186 -116.851636 
L 346.553838 -116.851636 
L 344.97849 -116.851636 
L 343.403142 -116.851636 
L 341.827794 -116.851636 
L 340.252446 -116.851636 
L 338.677098 -116.851636 
L 337.101749 -116.851636 
L 335.526401 -116.851636 
L 333.951053 -116.851636 
L 332.375705 -116.851636 
L 330.800357 -116.851636 
L 329.225009 -116.851636 
L 327.649661 -116.851636 
L 326.074313 -116.851636 
L 324.498964 -116.851636 
L 322.923616 -116.851636 
L 321.348268 -116.851636 
L 319.77292 -116.851636 
L 318.197572 -116.851636 
L 316.622224 -116.851636 
L 315.046876 -116.851636 
L 313.471528 -116.851636 
L 311.896179 -116.851636 
L 310.320831 -116.851636 
L 308.745483 -116.851636 
L 307.170135 -116.851636 
L 305.594787 -116.851636 
L 304.019439 -116.851636 
L 302.444091 -116.851636 
L 300.868743 -116.851636 
L 299.293394 -116.851636 
L 297.718046 -116.851636 
L 296.142698 -116.851636 
L 294.56735 -116.851636 
L 292.992002 -116.851636 
L 291.416654 -116.851636 
L 289.841306 -116.851636 
L 288.265958 -116.851636 
L 286.69061 -116.851636 
L 285.115261 -116.851636 
L 283.539913 -116.851636 
L 281.964565 -116.851636 
L 280.389217 -116.851636 
L 278.813869 -116.851636 
L 277.238521 -116.851636 
L 275.663173 -116.851636 
L 274.087825 -116.851636 
L 272.512476 -116.851636 
L 270.937128 -116.851636 
L 269.36178 -116.851636 
L 267.786432 -116.851636 
L 266.211084 -116.851636 
L 264.635736 -116.851636 
L 263.060388 -116.851636 
L 261.48504 -116.851636 
L 259.909691 -116.851636 
L 258.334343 -116.851636 
L 256.758995 -116.851636 
L 255.183647 -116.851636 
L 253.608299 -116.851636 
L 252.032951 -116.851636 
L 250.457603 -116.851636 
L 248.882255 -116.851636 
L 247.306906 -116.851636 
L 245.731558 -116.851636 
L 244.15621 -116.851636 
L 242.580862 -116.851636 
L 241.005514 -116.851636 
L 239.430166 -116.851636 
L 237.854818 -116.851636 
L 236.27947 -116.851636 
L 234.704121 -116.851636 
L 233.128773 -116.851636 
L 231.553425 -116.851636 
L 229.978077 -116.851636 
L 228.402729 -116.851636 
L 226.827381 -116.851636 
L 225.252033 -116.851636 
L 223.676685 -116.851636 
L 222.101336 -116.851636 
L 220.525988 -116.851636 
L 218.95064 -116.851636 
L 217.375292 -116.851636 
L 215.799944 -116.851636 
L 214.224596 -116.851636 
L 212.649248 -116.851636 
L 211.0739 -116.851636 
L 209.498551 -116.851636 
L 207.923203 -116.851636 
L 206.347855 -116.851636 
L 204.772507 -116.851636 
L 203.197159 -116.851636 
L 201.621811 -116.851636 
L 200.046463 -116.851636 
L 198.471115 -116.851636 
L 196.895766 -116.851636 
L 195.320418 -116.851636 
L 193.74507 -116.851636 
L 192.169722 -116.851636 
L 190.594374 -116.851636 
L 189.019026 -116.851636 
L 187.443678 -116.851636 
L 185.86833 -116.851636 
L 184.292981 -116.851636 
L 182.717633 -116.851636 
L 181.142285 -116.851636 
L 179.566937 -116.851636 
L 177.991589 -116.851636 
L 176.416241 -116.851636 
L 174.840893 -116.851636 
L 173.265545 -116.851636 
L 171.690196 -116.851636 
L 170.114848 -116.851636 
L 168.5395 -116.851636 
L 166.964152 -116.851636 
L 165.388804 -116.851636 
L 163.813456 -116.851636 
L 162.238108 -116.851636 
L 160.66276 -116.851636 
L 159.087411 -116.851636 
L 157.512063 -116.851636 
L 155.936715 -116.851636 
L 154.361367 -116.851636 
L 152.786019 -116.851636 
L 151.210671 -116.851636 
L 149.635323 -116.851636 
L 148.059975 -116.851636 
L 146.484627 -116.851636 
L 144.909278 -116.851636 
L 143.33393 -116.851636 
L 141.758582 -116.851636 
L 140.183234 -116.851636 
L 138.607886 -116.851636 
L 137.032538 -116.851636 
L 135.45719 -116.851636 
L 133.881842 -116.851636 
L 132.306493 -116.851636 
L 130.731145 -116.851636 
L 129.155797 -116.851636 
L 127.580449 -116.851636 
L 126.005101 -116.851636 
L 124.429753 -116.851636 
L 122.854405 -116.851636 
L 121.279057 -116.851636 
L 119.703708 -116.851636 
L 118.12836 -116.851636 
L 116.553012 -116.851636 
L 114.977664 -116.851636 
L 113.402316 -116.851636 
L 111.826968 -116.851636 
L 110.25162 -116.851636 
L 108.676272 -116.851636 
L 107.100923 -116.851636 
L 105.525575 -116.851636 
L 103.950227 -116.851636 
L 102.374879 -116.851636 
L 100.799531 -116.851636 
L 99.224183 -116.851636 
L 97.648835 -116.851636 
L 96.073487 -116.851636 
L 94.498138 -116.851636 
L 92.92279 -116.851636 
L 91.347442 -116.851636 
L 89.772094 -116.851636 
L 88.196746 -116.851636 
L 86.621398 -116.851636 
L 85.04605 -116.851636 
L 83.470702 -116.851636 
L 81.895353 -116.851636 
L 80.320005 -116.851636 
L 78.744657 -116.851636 
L 77.169309 -116.851636 
L 75.593961 -116.851636 
L 74.018613 -116.851636 
L 72.443265 -116.851636 
L 70.867917 -116.851636 
z
" style="stroke: #ffc0cb; stroke-opacity: 0.3"/>
    </defs>
    <g clip-path="url(#p6cfe67363b)">
     <use xlink:href="#m9f96266d0b" x="0" y="432" style="fill: #ffc0cb; fill-opacity: 0.3; stroke: #ffc0cb; stroke-opacity: 0.3"/>
    </g>
   </g>
   <g id="matplotlib.axis_1">
    <g id="xtick_1">
     <g id="line2d_1">
      <path d="M 70.867917 328.824 
L 70.867917 27.96 
" clip-path="url(#p6cfe67363b)" style="fill: none; stroke: #b0b0b0; stroke-opacity: 0.5; stroke-width: 0.8; stroke-linecap: square"/>
     </g>
     <g id="line2d_2">
      <defs>
       <path id="m9c08b99aa9" d="M 0 0 
L 0 3.5 
" style="stroke: #000000; stroke-width: 0.8"/>
      </defs>
      <g>
       <use xlink:href="#m9c08b99aa9" x="70.867917" y="328.824" style="stroke: #000000; stroke-width: 0.8"/>
      </g>
     </g>
     <g id="text_1">
      <!-- 01.11 00h -->
      <g transform="translate(42.890104 344.182281) scale(0.11 -0.11)">
       <defs>
        <path id="DejaVuSans-30" d="M 2034 4250 
Q 1547 4250 1301 3770 
Q 1056 3291 1056 2328 
Q 1056 1369 1301 889 
Q 1547 409 2034 409 
Q 2525 409 2770 889 
Q 3016 1369 3016 2328 
Q 3016 3291 2770 3770 
Q 2525 4250 2034 4250 
z
M 2034 4750 
Q 2819 4750 3233 4129 
Q 3647 3509 3647 2328 
Q 3647 1150 3233 529 
Q 2819 -91 2034 -91 
Q 1250 -91 836 529 
Q 422 1150 422 2328 
Q 422 3509 836 4129 
Q 1250 4750 2034 4750 
z
" transform="scale(0.015625)"/>
        <path id="DejaVuSans-31" d="M 794 531 
L 1825 531 
L 1825 4091 
L 703 3866 
L 703 4441 
L 1819 4666 
L 2450 4666 
L 2450 531 
L 3481 531 
L 3481 0 
L 794 0 
L 794 531 
z
" transform="scale(0.015625)"/>
        <path id="DejaVuSans-2e" d="M 684 794 
L 1344 794 
L 1344 0 
L 684 0 
L 684 794 
z
" transform="scale(0.015625)"/>
        <path id="DejaVuSans-20" transform="scale(0.015625)"/>
        <path id="DejaVuSans-68" d="M 3513 2113 
L 3513 0 
L 2938 0 
L 2938 2094 
Q 2938 2591 2744 2837 
Q 2550 3084 2163 3084 
Q 1697 3084 1428 2787 
Q 1159 2491 1159 1978 
L 1159 0 
L 581 0 
L 581 4863 
L 1159 4863 
L 1159 2956 
Q 1366 3272 1645 3428 
Q 1925 3584 2291 3584 
Q 2894 3584 3203 3211 
Q 3513 2838 3513 2113 
z
" transform="scale(0.015625)"/>
       </defs>
       <use xlink:href="#DejaVuSans-30"/>
       <use xlink:href="#DejaVuSans-31" transform="translate(63.623047 0)"/>
       <use xlink:href="#DejaVuSans-2e" transform="translate(127.246094 0)"/>
       <use xlink:href="#DejaVuSans-31" transform="translate(159.033203 0)"/>
       <use xlink:href="#DejaVuSans-31" transform="translate(222.65625 0)"/>
       <use xlink:href="#DejaVuSans-20" transform="translate(286.279297 0)"/>
       <use xlink:href="#DejaVuSans-30" transform="translate(318.066406 0)"/>
       <use xlink:href="#DejaVuSans-30" transform="translate(381.689453 0)"/>
       <use xlink:href="#DejaVuSans-68" transform="translate(445.3125 0)"/>
      </g>
     </g>
    </g>
    <g id="xtick_2">
     <g id="line2d_3">
      <path d="M 222.101336 328.824 
L 222.101336 27.96 
" clip-path="url(#p6cfe67363b)" style="fill: none; stroke: #b0b0b0; stroke-opacity: 0.5; stroke-width: 0.8; stroke-linecap: square"/>
     </g>
     <g id="line2d_4">
      <g>
       <use xlink:href="#m9c08b99aa9" x="222.101336" y="328.824" style="stroke: #000000; stroke-width: 0.8"/>
      </g>
     </g>
     <g id="text_2">
      <!-- 02.11 00h -->
      <g transform="translate(194.123524 344.182281) scale(0.11 -0.11)">
       <defs>
        <path id="DejaVuSans-32" d="M 1228 531 
L 3431 531 
L 3431 0 
L 469 0 
L 469 531 
Q 828 903 1448 1529 
Q 2069 2156 2228 2338 
Q 2531 2678 2651 2914 
Q 2772 3150 2772 3378 
Q 2772 3750 2511 3984 
Q 2250 4219 1831 4219 
Q 1534 4219 1204 4116 
Q 875 4013 500 3803 
L 500 4441 
Q 881 4594 1212 4672 
Q 1544 4750 1819 4750 
Q 2544 4750 2975 4387 
Q 3406 4025 3406 3419 
Q 3406 3131 3298 2873 
Q 3191 2616 2906 2266 
Q 2828 2175 2409 1742 
Q 1991 1309 1228 531 
z
" transform="scale(0.015625)"/>
       </defs>
       <use xlink:href="#DejaVuSans-30"/>
       <use xlink:href="#DejaVuSans-32" transform="translate(63.623047 0)"/>
       <use xlink:href="#DejaVuSans-2e" transform="translate(127.246094 0)"/>
       <use xlink:href="#DejaVuSans-31" transform="translate(159.033203 0)"/>
       <use xlink:href="#DejaVuSans-31" transform="translate(222.65625 0)"/>
       <use xlink:href="#DejaVuSans-20" transform="translate(286.279297 0)"/>
       <use xlink:href="#DejaVuSans-30" transform="translate(318.066406 0)"/>
       <use xlink:href="#DejaVuSans-30" transform="translate(381.689453 0)"/>
       <use xlink:href="#DejaVuSans-68" transform="translate(445.3125 0)"/>
      </g>
     </g>
    </g>
    <g id="xtick_3">
     <g id="line2d_5">
      <path d="M 373.334756 328.824 
L 373.334756 27.96 
" clip-path="url(#p6cfe67363b)" style="fill: none; stroke: #b0b0b0; stroke-opacity: 0.5; stroke-width: 0.8; stroke-linecap: square"/>
     </g>
     <g id="line2d_6">
      <g>
       <use xlink:href="#m9c08b99aa9" x="373.334756" y="328.824" style="stroke: #000000; stroke-width: 0.8"/>
      </g>
     </g>
     <g id="text_3">
      <!-- 03.11 00h -->
      <g transform="translate(345.356944 344.182281) scale(0.11 -0.11)">
       <defs>
        <path id="DejaVuSans-33" d="M 2597 2516 
Q 3050 2419 3304 2112 
Q 3559 1806 3559 1356 
Q 3559 666 3084 287 
Q 2609 -91 1734 -91 
Q 1441 -91 1130 -33 
Q 819 25 488 141 
L 488 750 
Q 750 597 1062 519 
Q 1375 441 1716 441 
Q 2309 441 2620 675 
Q 2931 909 2931 1356 
Q 2931 1769 2642 2001 
Q 2353 2234 1838 2234 
L 1294 2234 
L 1294 2753 
L 1863 2753 
Q 2328 2753 2575 2939 
Q 2822 3125 2822 3475 
Q 2822 3834 2567 4026 
Q 2313 4219 1838 4219 
Q 1578 4219 1281 4162 
Q 984 4106 628 3988 
L 628 4550 
Q 988 4650 1302 4700 
Q 1616 4750 1894 4750 
Q 2613 4750 3031 4423 
Q 3450 4097 3450 3541 
Q 3450 3153 3228 2886 
Q 3006 2619 2597 2516 
z
" transform="scale(0.015625)"/>
       </defs>
       <use xlink:href="#DejaVuSans-30"/>
       <use xlink:href="#DejaVuSans-33" transform="translate(63.623047 0)"/>
       <use xlink:href="#DejaVuSans-2e" transform="translate(127.246094 0)"/>
       <use xlink:href="#DejaVuSans-31" transform="translate(159.033203 0)"/>
       <use xlink:href="#DejaVuSans-31" transform="translate(222.65625 0)"/>
       <use xlink:href="#DejaVuSans-20" transform="translate(286.279297 0)"/>
       <use xlink:href="#DejaVuSans-30" transform="translate(318.066406 0)"/>
       <use xlink:href="#DejaVuSans-30" transform="translate(381.689453 0)"/>
       <use xlink:href="#DejaVuSans-68" transform="translate(445.3125 0)"/>
      </g>
     </g>
    </g>
    <g id="xtick_4">
     <g id="line2d_7">
      <path d="M 524.568176 328.824 
L 524.568176 27.96 
" clip-path="url(#p6cfe67363b)" style="fill: none; stroke: #b0b0b0; stroke-opacity: 0.5; stroke-width: 0.8; stroke-linecap: square"/>
     </g>
     <g id="line2d_8">
      <g>
       <use xlink:href="#m9c08b99aa9" x="524.568176" y="328.824" style="stroke: #000000; stroke-width: 0.8"/>
      </g>
     </g>
     <g id="text_4">
      <!-- 04.11 00h -->
      <g transform="translate(496.590364 344.182281) scale(0.11 -0.11)">
       <defs>
        <path id="DejaVuSans-34" d="M 2419 4116 
L 825 1625 
L 2419 1625 
L 2419 4116 
z
M 2253 4666 
L 3047 4666 
L 3047 1625 
L 3713 1625 
L 3713 1100 
L 3047 1100 
L 3047 0 
L 2419 0 
L 2419 1100 
L 313 1100 
L 313 1709 
L 2253 4666 
z
" transform="scale(0.015625)"/>
       </defs>
       <use xlink:href="#DejaVuSans-30"/>
       <use xlink:href="#DejaVuSans-34" transform="translate(63.623047 0)"/>
       <use xlink:href="#DejaVuSans-2e" transform="translate(127.246094 0)"/>
       <use xlink:href="#DejaVuSans-31" transform="translate(159.033203 0)"/>
       <use xlink:href="#DejaVuSans-31" transform="translate(222.65625 0)"/>
       <use xlink:href="#DejaVuSans-20" transform="translate(286.279297 0)"/>
       <use xlink:href="#DejaVuSans-30" transform="translate(318.066406 0)"/>
       <use xlink:href="#DejaVuSans-30" transform="translate(381.689453 0)"/>
       <use xlink:href="#DejaVuSans-68" transform="translate(445.3125 0)"/>
      </g>
     </g>
    </g>
    <g id="xtick_5">
     <g id="line2d_9">
      <path d="M 675.801596 328.824 
L 675.801596 27.96 
" clip-path="url(#p6cfe67363b)" style="fill: none; stroke: #b0b0b0; stroke-opacity: 0.5; stroke-width: 0.8; stroke-linecap: square"/>
     </g>
     <g id="line2d_10">
      <g>
       <use xlink:href="#m9c08b99aa9" x="675.801596" y="328.824" style="stroke: #000000; stroke-width: 0.8"/>
      </g>
     </g>
     <g id="text_5">
      <!-- 05.11 00h -->
      <g transform="translate(647.823784 344.182281) scale(0.11 -0.11)">
       <defs>
        <path id="DejaVuSans-35" d="M 691 4666 
L 3169 4666 
L 3169 4134 
L 1269 4134 
L 1269 2991 
Q 1406 3038 1543 3061 
Q 1681 3084 1819 3084 
Q 2600 3084 3056 2656 
Q 3513 2228 3513 1497 
Q 3513 744 3044 326 
Q 2575 -91 1722 -91 
Q 1428 -91 1123 -41 
Q 819 9 494 109 
L 494 744 
Q 775 591 1075 516 
Q 1375 441 1709 441 
Q 2250 441 2565 725 
Q 2881 1009 2881 1497 
Q 2881 1984 2565 2268 
Q 2250 2553 1709 2553 
Q 1456 2553 1204 2497 
Q 953 2441 691 2322 
L 691 4666 
z
" transform="scale(0.015625)"/>
       </defs>
       <use xlink:href="#DejaVuSans-30"/>
       <use xlink:href="#DejaVuSans-35" transform="translate(63.623047 0)"/>
       <use xlink:href="#DejaVuSans-2e" transform="translate(127.246094 0)"/>
       <use xlink:href="#DejaVuSans-31" transform="translate(159.033203 0)"/>
       <use xlink:href="#DejaVuSans-31" transform="translate(222.65625 0)"/>
       <use xlink:href="#DejaVuSans-20" transform="translate(286.279297 0)"/>
       <use xlink:href="#DejaVuSans-30" transform="translate(318.066406 0)"/>
       <use xlink:href="#DejaVuSans-30" transform="translate(381.689453 0)"/>
       <use xlink:href="#DejaVuSans-68" transform="translate(445.3125 0)"/>
      </g>
     </g>
    </g>
   </g>
   <g id="matplotlib.axis_2">
    <g id="ytick_1">
     <g id="line2d_11">
      <path d="M 40.7 315.148364 
L 704.394164 315.148364 
" clip-path="url(#p6cfe67363b)" style="fill: none; stroke: #b0b0b0; stroke-opacity: 0.5; stroke-width: 0.8; stroke-linecap: square"/>
     </g>
     <g id="line2d_12">
      <defs>
       <path id="mc33b858247" d="M 0 0 
L -3.5 0 
" style="stroke: #000000; stroke-width: 0.8"/>
      </defs>
      <g>
       <use xlink:href="#mc33b858247" x="40.7" y="315.148364" style="stroke: #000000; stroke-width: 0.8"/>
      </g>
     </g>
     <g id="text_6">
      <!-- 0 -->
      <g transform="translate(26.70125 319.327504) scale(0.11 -0.11)">
       <use xlink:href="#DejaVuSans-30"/>
      </g>
     </g>
    </g>
    <g id="ytick_2">
     <g id="line2d_13">
      <path d="M 40.7 260.445818 
L 704.394164 260.445818 
" clip-path="url(#p6cfe67363b)" style="fill: none; stroke: #b0b0b0; stroke-opacity: 0.5; stroke-width: 0.8; stroke-linecap: square"/>
     </g>
     <g id="line2d_14">
      <g>
       <use xlink:href="#mc33b858247" x="40.7" y="260.445818" style="stroke: #000000; stroke-width: 0.8"/>
      </g>
     </g>
     <g id="text_7">
      <!-- 1 -->
      <g transform="translate(26.70125 264.624959) scale(0.11 -0.11)">
       <use xlink:href="#DejaVuSans-31"/>
      </g>
     </g>
    </g>
    <g id="ytick_3">
     <g id="line2d_15">
      <path d="M 40.7 205.743273 
L 704.394164 205.743273 
" clip-path="url(#p6cfe67363b)" style="fill: none; stroke: #b0b0b0; stroke-opacity: 0.5; stroke-width: 0.8; stroke-linecap: square"/>
     </g>
     <g id="line2d_16">
      <g>
       <use xlink:href="#mc33b858247" x="40.7" y="205.743273" style="stroke: #000000; stroke-width: 0.8"/>
      </g>
     </g>
     <g id="text_8">
      <!-- 2 -->
      <g transform="translate(26.70125 209.922413) scale(0.11 -0.11)">
       <use xlink:href="#DejaVuSans-32"/>
      </g>
     </g>
    </g>
    <g id="ytick_4">
     <g id="line2d_17">
      <path d="M 40.7 151.040727 
L 704.394164 151.040727 
" clip-path="url(#p6cfe67363b)" style="fill: none; stroke: #b0b0b0; stroke-opacity: 0.5; stroke-width: 0.8; stroke-linecap: square"/>
     </g>
     <g id="line2d_18">
      <g>
       <use xlink:href="#mc33b858247" x="40.7" y="151.040727" style="stroke: #000000; stroke-width: 0.8"/>
      </g>
     </g>
     <g id="text_9">
      <!-- 3 -->
      <g transform="translate(26.70125 155.219868) scale(0.11 -0.11)">
       <use xlink:href="#DejaVuSans-33"/>
      </g>
     </g>
    </g>
    <g id="ytick_5">
     <g id="line2d_19">
      <path d="M 40.7 96.338182 
L 704.394164 96.338182 
" clip-path="url(#p6cfe67363b)" style="fill: none; stroke: #b0b0b0; stroke-opacity: 0.5; stroke-width: 0.8; stroke-linecap: square"/>
     </g>
     <g id="line2d_20">
      <g>
       <use xlink:href="#mc33b858247" x="40.7" y="96.338182" style="stroke: #000000; stroke-width: 0.8"/>
      </g>
     </g>
     <g id="text_10">
      <!-- 4 -->
      <g transform="translate(26.70125 100.517322) scale(0.11 -0.11)">
       <use xlink:href="#DejaVuSans-34"/>
      </g>
     </g>
    </g>
    <g id="ytick_6">
     <g id="line2d_21">
      <path d="M 40.7 41.635636 
L 704.394164 41.635636 
" clip-path="url(#p6cfe67363b)" style="fill: none; stroke: #b0b0b0; stroke-opacity: 0.5; stroke-width: 0.8; stroke-linecap: square"/>
     </g>
     <g id="line2d_22">
      <g>
       <use xlink:href="#mc33b858247" x="40.7" y="41.635636" style="stroke: #000000; stroke-width: 0.8"/>
      </g>
     </g>
     <g id="text_11">
      <!-- 5 -->
      <g transform="translate(26.70125 45.814777) scale(0.11 -0.11)">
       <use xlink:href="#DejaVuSans-35"/>
      </g>
     </g>
    </g>
    <g id="text_12">
     <!-- Reserve [MW] -->
     <g transform="translate(20.413594 216.723562) rotate(-90) scale(0.11 -0.11)">
      <defs>
       <path id="DejaVuSans-52" d="M 2841 2188 
Q 3044 2119 3236 1894 
Q 3428 1669 3622 1275 
L 4263 0 
L 3584 0 
L 2988 1197 
Q 2756 1666 2539 1819 
Q 2322 1972 1947 1972 
L 1259 1972 
L 1259 0 
L 628 0 
L 628 4666 
L 2053 4666 
Q 2853 4666 3247 4331 
Q 3641 3997 3641 3322 
Q 3641 2881 3436 2590 
Q 3231 2300 2841 2188 
z
M 1259 4147 
L 1259 2491 
L 2053 2491 
Q 2509 2491 2742 2702 
Q 2975 2913 2975 3322 
Q 2975 3731 2742 3939 
Q 2509 4147 2053 4147 
L 1259 4147 
z
" transform="scale(0.015625)"/>
       <path id="DejaVuSans-65" d="M 3597 1894 
L 3597 1613 
L 953 1613 
Q 991 1019 1311 708 
Q 1631 397 2203 397 
Q 2534 397 2845 478 
Q 3156 559 3463 722 
L 3463 178 
Q 3153 47 2828 -22 
Q 2503 -91 2169 -91 
Q 1331 -91 842 396 
Q 353 884 353 1716 
Q 353 2575 817 3079 
Q 1281 3584 2069 3584 
Q 2775 3584 3186 3129 
Q 3597 2675 3597 1894 
z
M 3022 2063 
Q 3016 2534 2758 2815 
Q 2500 3097 2075 3097 
Q 1594 3097 1305 2825 
Q 1016 2553 972 2059 
L 3022 2063 
z
" transform="scale(0.015625)"/>
       <path id="DejaVuSans-73" d="M 2834 3397 
L 2834 2853 
Q 2591 2978 2328 3040 
Q 2066 3103 1784 3103 
Q 1356 3103 1142 2972 
Q 928 2841 928 2578 
Q 928 2378 1081 2264 
Q 1234 2150 1697 2047 
L 1894 2003 
Q 2506 1872 2764 1633 
Q 3022 1394 3022 966 
Q 3022 478 2636 193 
Q 2250 -91 1575 -91 
Q 1294 -91 989 -36 
Q 684 19 347 128 
L 347 722 
Q 666 556 975 473 
Q 1284 391 1588 391 
Q 1994 391 2212 530 
Q 2431 669 2431 922 
Q 2431 1156 2273 1281 
Q 2116 1406 1581 1522 
L 1381 1569 
Q 847 1681 609 1914 
Q 372 2147 372 2553 
Q 372 3047 722 3315 
Q 1072 3584 1716 3584 
Q 2034 3584 2315 3537 
Q 2597 3491 2834 3397 
z
" transform="scale(0.015625)"/>
       <path id="DejaVuSans-72" d="M 2631 2963 
Q 2534 3019 2420 3045 
Q 2306 3072 2169 3072 
Q 1681 3072 1420 2755 
Q 1159 2438 1159 1844 
L 1159 0 
L 581 0 
L 581 3500 
L 1159 3500 
L 1159 2956 
Q 1341 3275 1631 3429 
Q 1922 3584 2338 3584 
Q 2397 3584 2469 3576 
Q 2541 3569 2628 3553 
L 2631 2963 
z
" transform="scale(0.015625)"/>
       <path id="DejaVuSans-76" d="M 191 3500 
L 800 3500 
L 1894 563 
L 2988 3500 
L 3597 3500 
L 2284 0 
L 1503 0 
L 191 3500 
z
" transform="scale(0.015625)"/>
       <path id="DejaVuSans-5b" d="M 550 4863 
L 1875 4863 
L 1875 4416 
L 1125 4416 
L 1125 -397 
L 1875 -397 
L 1875 -844 
L 550 -844 
L 550 4863 
z
" transform="scale(0.015625)"/>
       <path id="DejaVuSans-4d" d="M 628 4666 
L 1569 4666 
L 2759 1491 
L 3956 4666 
L 4897 4666 
L 4897 0 
L 4281 0 
L 4281 4097 
L 3078 897 
L 2444 897 
L 1241 4097 
L 1241 0 
L 628 0 
L 628 4666 
z
" transform="scale(0.015625)"/>
       <path id="DejaVuSans-57" d="M 213 4666 
L 850 4666 
L 1831 722 
L 2809 4666 
L 3519 4666 
L 4500 722 
L 5478 4666 
L 6119 4666 
L 4947 0 
L 4153 0 
L 3169 4050 
L 2175 0 
L 1381 0 
L 213 4666 
z
" transform="scale(0.015625)"/>
       <path id="DejaVuSans-5d" d="M 1947 4863 
L 1947 -844 
L 622 -844 
L 622 -397 
L 1369 -397 
L 1369 4416 
L 622 4416 
L 622 4863 
L 1947 4863 
z
" transform="scale(0.015625)"/>
      </defs>
      <use xlink:href="#DejaVuSans-52"/>
      <use xlink:href="#DejaVuSans-65" transform="translate(64.982422 0)"/>
      <use xlink:href="#DejaVuSans-73" transform="translate(126.505859 0)"/>
      <use xlink:href="#DejaVuSans-65" transform="translate(178.605469 0)"/>
      <use xlink:href="#DejaVuSans-72" transform="translate(240.128906 0)"/>
      <use xlink:href="#DejaVuSans-76" transform="translate(281.242188 0)"/>
      <use xlink:href="#DejaVuSans-65" transform="translate(340.421875 0)"/>
      <use xlink:href="#DejaVuSans-20" transform="translate(401.945312 0)"/>
      <use xlink:href="#DejaVuSans-5b" transform="translate(433.732422 0)"/>
      <use xlink:href="#DejaVuSans-4d" transform="translate(472.746094 0)"/>
      <use xlink:href="#DejaVuSans-57" transform="translate(559.025391 0)"/>
      <use xlink:href="#DejaVuSans-5d" transform="translate(657.902344 0)"/>
     </g>
    </g>
   </g>
   <g id="line2d_23">
    <path d="M 70.867917 315.148364 
L 220.525988 315.148364 
L 222.101336 162.796977 
L 245.731558 162.796977 
L 247.306906 315.148364 
L 371.759408 315.148364 
L 373.334756 81.286142 
L 396.964978 81.286142 
L 398.540326 315.148364 
L 674.226248 315.148364 
L 674.226248 315.148364 
" clip-path="url(#p6cfe67363b)" style="fill: none; stroke: #ffa500; stroke-width: 1.5; stroke-linecap: square"/>
   </g>
   <g id="line2d_24">
    <path d="M 70.867917 178.392 
L 220.525988 178.392 
L 222.101336 216.479845 
L 245.731558 216.479845 
L 247.306906 178.392 
L 371.759408 178.392 
L 373.334756 275.497858 
L 396.964978 275.497858 
L 398.540326 178.392 
L 422.170548 178.392 
L 423.745896 288.480873 
L 447.376118 288.480873 
L 448.951466 178.392 
L 672.6509 178.392 
L 674.226248 315.148364 
L 674.226248 315.148364 
" clip-path="url(#p6cfe67363b)" style="fill: none; stroke-dasharray: 5.55,2.4; stroke-dashoffset: 0; stroke: #008000; stroke-width: 1.5"/>
   </g>
   <g id="line2d_25">
    <path d="M 70.867917 315.148364 
L 674.226248 315.148364 
L 674.226248 315.148364 
" clip-path="url(#p6cfe67363b)" style="fill: none; stroke-dasharray: 5.55,2.4; stroke-dashoffset: 0; stroke: #0000ff; stroke-width: 1.5"/>
   </g>
   <g id="patch_3">
    <path d="M 40.7 328.824 
L 40.7 27.96 
" style="fill: none; stroke: #000000; stroke-width: 0.8; stroke-linejoin: miter; stroke-linecap: square"/>
   </g>
   <g id="patch_4">
    <path d="M 704.394164 328.824 
L 704.394164 27.96 
" style="fill: none; stroke: #000000; stroke-width: 0.8; stroke-linejoin: miter; stroke-linecap: square"/>
   </g>
   <g id="patch_5">
    <path d="M 40.7 328.824 
L 704.394164 328.824 
" style="fill: none; stroke: #000000; stroke-width: 0.8; stroke-linejoin: miter; stroke-linecap: square"/>
   </g>
   <g id="patch_6">
    <path d="M 40.7 27.96 
L 704.394164 27.96 
" style="fill: none; stroke: #000000; stroke-width: 0.8; stroke-linejoin: miter; stroke-linecap: square"/>
   </g>
   <g id="text_13">
    <!-- Regelenergie Allokation -->
    <g transform="translate(294.414426 21.96) scale(0.132 -0.132)">
     <defs>
      <path id="DejaVuSans-67" d="M 2906 1791 
Q 2906 2416 2648 2759 
Q 2391 3103 1925 3103 
Q 1463 3103 1205 2759 
Q 947 2416 947 1791 
Q 947 1169 1205 825 
Q 1463 481 1925 481 
Q 2391 481 2648 825 
Q 2906 1169 2906 1791 
z
M 3481 434 
Q 3481 -459 3084 -895 
Q 2688 -1331 1869 -1331 
Q 1566 -1331 1297 -1286 
Q 1028 -1241 775 -1147 
L 775 -588 
Q 1028 -725 1275 -790 
Q 1522 -856 1778 -856 
Q 2344 -856 2625 -561 
Q 2906 -266 2906 331 
L 2906 616 
Q 2728 306 2450 153 
Q 2172 0 1784 0 
Q 1141 0 747 490 
Q 353 981 353 1791 
Q 353 2603 747 3093 
Q 1141 3584 1784 3584 
Q 2172 3584 2450 3431 
Q 2728 3278 2906 2969 
L 2906 3500 
L 3481 3500 
L 3481 434 
z
" transform="scale(0.015625)"/>
      <path id="DejaVuSans-6c" d="M 603 4863 
L 1178 4863 
L 1178 0 
L 603 0 
L 603 4863 
z
" transform="scale(0.015625)"/>
      <path id="DejaVuSans-6e" d="M 3513 2113 
L 3513 0 
L 2938 0 
L 2938 2094 
Q 2938 2591 2744 2837 
Q 2550 3084 2163 3084 
Q 1697 3084 1428 2787 
Q 1159 2491 1159 1978 
L 1159 0 
L 581 0 
L 581 3500 
L 1159 3500 
L 1159 2956 
Q 1366 3272 1645 3428 
Q 1925 3584 2291 3584 
Q 2894 3584 3203 3211 
Q 3513 2838 3513 2113 
z
" transform="scale(0.015625)"/>
      <path id="DejaVuSans-69" d="M 603 3500 
L 1178 3500 
L 1178 0 
L 603 0 
L 603 3500 
z
M 603 4863 
L 1178 4863 
L 1178 4134 
L 603 4134 
L 603 4863 
z
" transform="scale(0.015625)"/>
      <path id="DejaVuSans-41" d="M 2188 4044 
L 1331 1722 
L 3047 1722 
L 2188 4044 
z
M 1831 4666 
L 2547 4666 
L 4325 0 
L 3669 0 
L 3244 1197 
L 1141 1197 
L 716 0 
L 50 0 
L 1831 4666 
z
" transform="scale(0.015625)"/>
      <path id="DejaVuSans-6f" d="M 1959 3097 
Q 1497 3097 1228 2736 
Q 959 2375 959 1747 
Q 959 1119 1226 758 
Q 1494 397 1959 397 
Q 2419 397 2687 759 
Q 2956 1122 2956 1747 
Q 2956 2369 2687 2733 
Q 2419 3097 1959 3097 
z
M 1959 3584 
Q 2709 3584 3137 3096 
Q 3566 2609 3566 1747 
Q 3566 888 3137 398 
Q 2709 -91 1959 -91 
Q 1206 -91 779 398 
Q 353 888 353 1747 
Q 353 2609 779 3096 
Q 1206 3584 1959 3584 
z
" transform="scale(0.015625)"/>
      <path id="DejaVuSans-6b" d="M 581 4863 
L 1159 4863 
L 1159 1991 
L 2875 3500 
L 3609 3500 
L 1753 1863 
L 3688 0 
L 2938 0 
L 1159 1709 
L 1159 0 
L 581 0 
L 581 4863 
z
" transform="scale(0.015625)"/>
      <path id="DejaVuSans-61" d="M 2194 1759 
Q 1497 1759 1228 1600 
Q 959 1441 959 1056 
Q 959 750 1161 570 
Q 1363 391 1709 391 
Q 2188 391 2477 730 
Q 2766 1069 2766 1631 
L 2766 1759 
L 2194 1759 
z
M 3341 1997 
L 3341 0 
L 2766 0 
L 2766 531 
Q 2569 213 2275 61 
Q 1981 -91 1556 -91 
Q 1019 -91 701 211 
Q 384 513 384 1019 
Q 384 1609 779 1909 
Q 1175 2209 1959 2209 
L 2766 2209 
L 2766 2266 
Q 2766 2663 2505 2880 
Q 2244 3097 1772 3097 
Q 1472 3097 1187 3025 
Q 903 2953 641 2809 
L 641 3341 
Q 956 3463 1253 3523 
Q 1550 3584 1831 3584 
Q 2591 3584 2966 3190 
Q 3341 2797 3341 1997 
z
" transform="scale(0.015625)"/>
      <path id="DejaVuSans-74" d="M 1172 4494 
L 1172 3500 
L 2356 3500 
L 2356 3053 
L 1172 3053 
L 1172 1153 
Q 1172 725 1289 603 
Q 1406 481 1766 481 
L 2356 481 
L 2356 0 
L 1766 0 
Q 1100 0 847 248 
Q 594 497 594 1153 
L 594 3053 
L 172 3053 
L 172 3500 
L 594 3500 
L 594 4494 
L 1172 4494 
z
" transform="scale(0.015625)"/>
     </defs>
     <use xlink:href="#DejaVuSans-52"/>
     <use xlink:href="#DejaVuSans-65" transform="translate(64.982422 0)"/>
     <use xlink:href="#DejaVuSans-67" transform="translate(126.505859 0)"/>
     <use xlink:href="#DejaVuSans-65" transform="translate(189.982422 0)"/>
     <use xlink:href="#DejaVuSans-6c" transform="translate(251.505859 0)"/>
     <use xlink:href="#DejaVuSans-65" transform="translate(279.289062 0)"/>
     <use xlink:href="#DejaVuSans-6e" transform="translate(340.8125 0)"/>
     <use xlink:href="#DejaVuSans-65" transform="translate(404.191406 0)"/>
     <use xlink:href="#DejaVuSans-72" transform="translate(465.714844 0)"/>
     <use xlink:href="#DejaVuSans-67" transform="translate(505.078125 0)"/>
     <use xlink:href="#DejaVuSans-69" transform="translate(568.554688 0)"/>
     <use xlink:href="#DejaVuSans-65" transform="translate(596.337891 0)"/>
     <use xlink:href="#DejaVuSans-20" transform="translate(657.861328 0)"/>
     <use xlink:href="#DejaVuSans-41" transform="translate(689.648438 0)"/>
     <use xlink:href="#DejaVuSans-6c" transform="translate(758.056641 0)"/>
     <use xlink:href="#DejaVuSans-6c" transform="translate(785.839844 0)"/>
     <use xlink:href="#DejaVuSans-6f" transform="translate(813.623047 0)"/>
     <use xlink:href="#DejaVuSans-6b" transform="translate(874.804688 0)"/>
     <use xlink:href="#DejaVuSans-61" transform="translate(930.964844 0)"/>
     <use xlink:href="#DejaVuSans-74" transform="translate(992.244141 0)"/>
     <use xlink:href="#DejaVuSans-69" transform="translate(1031.453125 0)"/>
     <use xlink:href="#DejaVuSans-6f" transform="translate(1059.236328 0)"/>
     <use xlink:href="#DejaVuSans-6e" transform="translate(1120.417969 0)"/>
    </g>
   </g>
   <g id="legend_1">
    <g id="patch_7">
     <path d="M 208.161535 415.045475 
L 536.932629 415.045475 
Q 539.132629 415.045475 539.132629 412.845475 
L 539.132629 381.6536 
Q 539.132629 379.4536 536.932629 379.4536 
L 208.161535 379.4536 
Q 205.961535 379.4536 205.961535 381.6536 
L 205.961535 412.845475 
Q 205.961535 415.045475 208.161535 415.045475 
z
" style="fill: #ffffff; opacity: 0.8; stroke: #cccccc; stroke-linejoin: miter"/>
    </g>
    <g id="line2d_26">
     <path d="M 210.361535 388.361881 
L 221.361535 388.361881 
L 232.361535 388.361881 
" style="fill: none; stroke: #ffa500; stroke-width: 1.5; stroke-linecap: square"/>
    </g>
    <g id="text_14">
     <!-- BESS FCR -->
     <g transform="translate(241.161535 392.211881) scale(0.11 -0.11)">
      <defs>
       <path id="DejaVuSans-42" d="M 1259 2228 
L 1259 519 
L 2272 519 
Q 2781 519 3026 730 
Q 3272 941 3272 1375 
Q 3272 1813 3026 2020 
Q 2781 2228 2272 2228 
L 1259 2228 
z
M 1259 4147 
L 1259 2741 
L 2194 2741 
Q 2656 2741 2882 2914 
Q 3109 3088 3109 3444 
Q 3109 3797 2882 3972 
Q 2656 4147 2194 4147 
L 1259 4147 
z
M 628 4666 
L 2241 4666 
Q 2963 4666 3353 4366 
Q 3744 4066 3744 3513 
Q 3744 3084 3544 2831 
Q 3344 2578 2956 2516 
Q 3422 2416 3680 2098 
Q 3938 1781 3938 1306 
Q 3938 681 3513 340 
Q 3088 0 2303 0 
L 628 0 
L 628 4666 
z
" transform="scale(0.015625)"/>
       <path id="DejaVuSans-45" d="M 628 4666 
L 3578 4666 
L 3578 4134 
L 1259 4134 
L 1259 2753 
L 3481 2753 
L 3481 2222 
L 1259 2222 
L 1259 531 
L 3634 531 
L 3634 0 
L 628 0 
L 628 4666 
z
" transform="scale(0.015625)"/>
       <path id="DejaVuSans-53" d="M 3425 4513 
L 3425 3897 
Q 3066 4069 2747 4153 
Q 2428 4238 2131 4238 
Q 1616 4238 1336 4038 
Q 1056 3838 1056 3469 
Q 1056 3159 1242 3001 
Q 1428 2844 1947 2747 
L 2328 2669 
Q 3034 2534 3370 2195 
Q 3706 1856 3706 1288 
Q 3706 609 3251 259 
Q 2797 -91 1919 -91 
Q 1588 -91 1214 -16 
Q 841 59 441 206 
L 441 856 
Q 825 641 1194 531 
Q 1563 422 1919 422 
Q 2459 422 2753 634 
Q 3047 847 3047 1241 
Q 3047 1584 2836 1778 
Q 2625 1972 2144 2069 
L 1759 2144 
Q 1053 2284 737 2584 
Q 422 2884 422 3419 
Q 422 4038 858 4394 
Q 1294 4750 2059 4750 
Q 2388 4750 2728 4690 
Q 3069 4631 3425 4513 
z
" transform="scale(0.015625)"/>
       <path id="DejaVuSans-46" d="M 628 4666 
L 3309 4666 
L 3309 4134 
L 1259 4134 
L 1259 2759 
L 3109 2759 
L 3109 2228 
L 1259 2228 
L 1259 0 
L 628 0 
L 628 4666 
z
" transform="scale(0.015625)"/>
       <path id="DejaVuSans-43" d="M 4122 4306 
L 4122 3641 
Q 3803 3938 3442 4084 
Q 3081 4231 2675 4231 
Q 1875 4231 1450 3742 
Q 1025 3253 1025 2328 
Q 1025 1406 1450 917 
Q 1875 428 2675 428 
Q 3081 428 3442 575 
Q 3803 722 4122 1019 
L 4122 359 
Q 3791 134 3420 21 
Q 3050 -91 2638 -91 
Q 1578 -91 968 557 
Q 359 1206 359 2328 
Q 359 3453 968 4101 
Q 1578 4750 2638 4750 
Q 3056 4750 3426 4639 
Q 3797 4528 4122 4306 
z
" transform="scale(0.015625)"/>
      </defs>
      <use xlink:href="#DejaVuSans-42"/>
      <use xlink:href="#DejaVuSans-45" transform="translate(68.603516 0)"/>
      <use xlink:href="#DejaVuSans-53" transform="translate(131.787109 0)"/>
      <use xlink:href="#DejaVuSans-53" transform="translate(195.263672 0)"/>
      <use xlink:href="#DejaVuSans-20" transform="translate(258.740234 0)"/>
      <use xlink:href="#DejaVuSans-46" transform="translate(290.527344 0)"/>
      <use xlink:href="#DejaVuSans-43" transform="translate(348.046875 0)"/>
      <use xlink:href="#DejaVuSans-52" transform="translate(417.871094 0)"/>
     </g>
    </g>
    <g id="line2d_27">
     <path d="M 210.361535 404.507819 
L 221.361535 404.507819 
L 232.361535 404.507819 
" style="fill: none; stroke-dasharray: 5.55,2.4; stroke-dashoffset: 0; stroke: #008000; stroke-width: 1.5"/>
    </g>
    <g id="text_15">
     <!-- BESS aFRR+ -->
     <g transform="translate(241.161535 408.357819) scale(0.11 -0.11)">
      <defs>
       <path id="DejaVuSans-2b" d="M 2944 4013 
L 2944 2272 
L 4684 2272 
L 4684 1741 
L 2944 1741 
L 2944 0 
L 2419 0 
L 2419 1741 
L 678 1741 
L 678 2272 
L 2419 2272 
L 2419 4013 
L 2944 4013 
z
" transform="scale(0.015625)"/>
      </defs>
      <use xlink:href="#DejaVuSans-42"/>
      <use xlink:href="#DejaVuSans-45" transform="translate(68.603516 0)"/>
      <use xlink:href="#DejaVuSans-53" transform="translate(131.787109 0)"/>
      <use xlink:href="#DejaVuSans-53" transform="translate(195.263672 0)"/>
      <use xlink:href="#DejaVuSans-20" transform="translate(258.740234 0)"/>
      <use xlink:href="#DejaVuSans-61" transform="translate(290.527344 0)"/>
      <use xlink:href="#DejaVuSans-46" transform="translate(351.806641 0)"/>
      <use xlink:href="#DejaVuSans-52" transform="translate(409.326172 0)"/>
      <use xlink:href="#DejaVuSans-52" transform="translate(478.808594 0)"/>
      <use xlink:href="#DejaVuSans-2b" transform="translate(548.291016 0)"/>
     </g>
    </g>
    <g id="line2d_28">
     <path d="M 332.693567 388.361881 
L 343.693567 388.361881 
L 354.693567 388.361881 
" style="fill: none; stroke-dasharray: 5.55,2.4; stroke-dashoffset: 0; stroke: #0000ff; stroke-width: 1.5"/>
    </g>
    <g id="text_16">
     <!-- BESS aFRR- -->
     <g transform="translate(363.493567 392.211881) scale(0.11 -0.11)">
      <defs>
       <path id="DejaVuSans-2d" d="M 313 2009 
L 1997 2009 
L 1997 1497 
L 313 1497 
L 313 2009 
z
" transform="scale(0.015625)"/>
      </defs>
      <use xlink:href="#DejaVuSans-42"/>
      <use xlink:href="#DejaVuSans-45" transform="translate(68.603516 0)"/>
      <use xlink:href="#DejaVuSans-53" transform="translate(131.787109 0)"/>
      <use xlink:href="#DejaVuSans-53" transform="translate(195.263672 0)"/>
      <use xlink:href="#DejaVuSans-20" transform="translate(258.740234 0)"/>
      <use xlink:href="#DejaVuSans-61" transform="translate(290.527344 0)"/>
      <use xlink:href="#DejaVuSans-46" transform="translate(351.806641 0)"/>
      <use xlink:href="#DejaVuSans-52" transform="translate(409.326172 0)"/>
      <use xlink:href="#DejaVuSans-52" transform="translate(478.808594 0)"/>
      <use xlink:href="#DejaVuSans-2d" transform="translate(544.291016 0)"/>
     </g>
    </g>
    <g id="patch_8">
     <path d="M 332.693567 408.357819 
L 354.693567 408.357819 
L 354.693567 400.657819 
L 332.693567 400.657819 
z
" style="fill: #8b0000; fill-opacity: 0.3; stroke: #8b0000; stroke-opacity: 0.3; stroke-linejoin: miter"/>
    </g>
    <g id="text_17">
     <!-- PtH aFRR+ -->
     <g transform="translate(363.493567 408.357819) scale(0.11 -0.11)">
      <defs>
       <path id="DejaVuSans-50" d="M 1259 4147 
L 1259 2394 
L 2053 2394 
Q 2494 2394 2734 2622 
Q 2975 2850 2975 3272 
Q 2975 3691 2734 3919 
Q 2494 4147 2053 4147 
L 1259 4147 
z
M 628 4666 
L 2053 4666 
Q 2838 4666 3239 4311 
Q 3641 3956 3641 3272 
Q 3641 2581 3239 2228 
Q 2838 1875 2053 1875 
L 1259 1875 
L 1259 0 
L 628 0 
L 628 4666 
z
" transform="scale(0.015625)"/>
       <path id="DejaVuSans-48" d="M 628 4666 
L 1259 4666 
L 1259 2753 
L 3553 2753 
L 3553 4666 
L 4184 4666 
L 4184 0 
L 3553 0 
L 3553 2222 
L 1259 2222 
L 1259 0 
L 628 0 
L 628 4666 
z
" transform="scale(0.015625)"/>
      </defs>
      <use xlink:href="#DejaVuSans-50"/>
      <use xlink:href="#DejaVuSans-74" transform="translate(60.302734 0)"/>
      <use xlink:href="#DejaVuSans-48" transform="translate(99.511719 0)"/>
      <use xlink:href="#DejaVuSans-20" transform="translate(174.707031 0)"/>
      <use xlink:href="#DejaVuSans-61" transform="translate(206.494141 0)"/>
      <use xlink:href="#DejaVuSans-46" transform="translate(267.773438 0)"/>
      <use xlink:href="#DejaVuSans-52" transform="translate(325.292969 0)"/>
      <use xlink:href="#DejaVuSans-52" transform="translate(394.775391 0)"/>
      <use xlink:href="#DejaVuSans-2b" transform="translate(464.257812 0)"/>
     </g>
    </g>
    <g id="patch_9">
     <path d="M 449.336535 392.211881 
L 471.336535 392.211881 
L 471.336535 384.511881 
L 449.336535 384.511881 
z
" style="fill: #ffc0cb; fill-opacity: 0.3; stroke: #ffc0cb; stroke-opacity: 0.3; stroke-linejoin: miter"/>
    </g>
    <g id="text_18">
     <!-- PtH aFRR- -->
     <g transform="translate(480.136535 392.211881) scale(0.11 -0.11)">
      <use xlink:href="#DejaVuSans-50"/>
      <use xlink:href="#DejaVuSans-74" transform="translate(60.302734 0)"/>
      <use xlink:href="#DejaVuSans-48" transform="translate(99.511719 0)"/>
      <use xlink:href="#DejaVuSans-20" transform="translate(174.707031 0)"/>
      <use xlink:href="#DejaVuSans-61" transform="translate(206.494141 0)"/>
      <use xlink:href="#DejaVuSans-46" transform="translate(267.773438 0)"/>
      <use xlink:href="#DejaVuSans-52" transform="translate(325.292969 0)"/>
      <use xlink:href="#DejaVuSans-52" transform="translate(394.775391 0)"/>
      <use xlink:href="#DejaVuSans-2d" transform="translate(460.257812 0)"/>
     </g>
    </g>
   </g>
  </g>
 </g>
 <defs>
  <clipPath id="p6cfe67363b">
   <rect x="40.7" y="27.96" width="663.694164" height="300.864"/>
  </clipPath>
 </defs>
</svg>
