<?xml version="1.0" encoding="utf-8" standalone="no"?>
<!DOCTYPE svg PUBLIC "-//W3C//DTD SVG 1.1//EN"
  "http://www.w3.org/Graphics/SVG/1.1/DTD/svg11.dtd">
<svg xmlns:xlink="http://www.w3.org/1999/xlink" width="720pt" height="432pt" viewBox="0 0 720 432" xmlns="http://www.w3.org/2000/svg" version="1.1">
 <metadata>
  <rdf:RDF xmlns:dc="http://purl.org/dc/elements/1.1/" xmlns:cc="http://creativecommons.org/ns#" xmlns:rdf="http://www.w3.org/1999/02/22-rdf-syntax-ns#">
   <cc:Work>
    <dc:type rdf:resource="http://purl.org/dc/dcmitype/StillImage"/>
    <dc:date>2026-01-03T18:40:59.064944</dc:date>
    <dc:format>image/svg+xml</dc:format>
    <dc:creator>
     <cc:Agent>
      <dc:title>Matplotlib v3.10.7, https://matplotlib.org/</dc:title>
     </cc:Agent>
    </dc:creator>
   </cc:Work>
  </rdf:RDF>
 </metadata>
 <defs>
  <style type="text/css">*{stroke-linejoin: round; stroke-linecap: butt}</style>
 </defs>
 <g id="figure_1">
  <g id="patch_1">
   <path d="M 0 432 
L 720 432 
L 720 0 
L 0 0 
z
" style="fill: #ffffff"/>
  </g>
  <g id="axes_1">
   <g id="patch_2">
    <path d="M 40.7 402.32 
L 672.46 402.32 
L 672.46 27.96 
L 40.7 27.96 
z
" style="fill: #ffffff"/>
   </g>
   <g id="matplotlib.axis_1">
    <g id="xtick_1">
     <g id="line2d_1">
      <path d="M 69.416364 402.32 
L 69.416364 27.96 
" clip-path="url(#p7c98e80e9c)" style="fill: none; stroke: #b0b0b0; stroke-opacity: 0.5; stroke-width: 0.8; stroke-linecap: square"/>
     </g>
     <g id="line2d_2">
      <defs>
       <path id="m8ff704151d" d="M 0 0 
L 0 3.5 
" style="stroke: #000000; stroke-width: 0.8"/>
      </defs>
      <g>
       <use xlink:href="#m8ff704151d" x="69.416364" y="402.32" style="stroke: #000000; stroke-width: 0.8"/>
      </g>
     </g>
     <g id="text_1">
      <!-- 01.11 00h -->
      <g transform="translate(41.438551 417.678281) scale(0.11 -0.11)">
       <defs>
        <path id="DejaVuSans-30" d="M 2034 4250 
Q 1547 4250 1301 3770 
Q 1056 3291 1056 2328 
Q 1056 1369 1301 889 
Q 1547 409 2034 409 
Q 2525 409 2770 889 
Q 3016 1369 3016 2328 
Q 3016 3291 2770 3770 
Q 2525 4250 2034 4250 
z
M 2034 4750 
Q 2819 4750 3233 4129 
Q 3647 3509 3647 2328 
Q 3647 1150 3233 529 
Q 2819 -91 2034 -91 
Q 1250 -91 836 529 
Q 422 1150 422 2328 
Q 422 3509 836 4129 
Q 1250 4750 2034 4750 
z
" transform="scale(0.015625)"/>
        <path id="DejaVuSans-31" d="M 794 531 
L 1825 531 
L 1825 4091 
L 703 3866 
L 703 4441 
L 1819 4666 
L 2450 4666 
L 2450 531 
L 3481 531 
L 3481 0 
L 794 0 
L 794 531 
z
" transform="scale(0.015625)"/>
        <path id="DejaVuSans-2e" d="M 684 794 
L 1344 794 
L 1344 0 
L 684 0 
L 684 794 
z
" transform="scale(0.015625)"/>
        <path id="DejaVuSans-20" transform="scale(0.015625)"/>
        <path id="DejaVuSans-68" d="M 3513 2113 
L 3513 0 
L 2938 0 
L 2938 2094 
Q 2938 2591 2744 2837 
Q 2550 3084 2163 3084 
Q 1697 3084 1428 2787 
Q 1159 2491 1159 1978 
L 1159 0 
L 581 0 
L 581 4863 
L 1159 4863 
L 1159 2956 
Q 1366 3272 1645 3428 
Q 1925 3584 2291 3584 
Q 2894 3584 3203 3211 
Q 3513 2838 3513 2113 
z
" transform="scale(0.015625)"/>
       </defs>
       <use xlink:href="#DejaVuSans-30"/>
       <use xlink:href="#DejaVuSans-31" transform="translate(63.623047 0)"/>
       <use xlink:href="#DejaVuSans-2e" transform="translate(127.246094 0)"/>
       <use xlink:href="#DejaVuSans-31" transform="translate(159.033203 0)"/>
       <use xlink:href="#DejaVuSans-31" transform="translate(222.65625 0)"/>
       <use xlink:href="#DejaVuSans-20" transform="translate(286.279297 0)"/>
       <use xlink:href="#DejaVuSans-30" transform="translate(318.066406 0)"/>
       <use xlink:href="#DejaVuSans-30" transform="translate(381.689453 0)"/>
       <use xlink:href="#DejaVuSans-68" transform="translate(445.3125 0)"/>
      </g>
     </g>
    </g>
    <g id="xtick_2">
     <g id="line2d_3">
      <path d="M 213.373069 402.32 
L 213.373069 27.96 
" clip-path="url(#p7c98e80e9c)" style="fill: none; stroke: #b0b0b0; stroke-opacity: 0.5; stroke-width: 0.8; stroke-linecap: square"/>
     </g>
     <g id="line2d_4">
      <g>
       <use xlink:href="#m8ff704151d" x="213.373069" y="402.32" style="stroke: #000000; stroke-width: 0.8"/>
      </g>
     </g>
     <g id="text_2">
      <!-- 02.11 00h -->
      <g transform="translate(185.395257 417.678281) scale(0.11 -0.11)">
       <defs>
        <path id="DejaVuSans-32" d="M 1228 531 
L 3431 531 
L 3431 0 
L 469 0 
L 469 531 
Q 828 903 1448 1529 
Q 2069 2156 2228 2338 
Q 2531 2678 2651 2914 
Q 2772 3150 2772 3378 
Q 2772 3750 2511 3984 
Q 2250 4219 1831 4219 
Q 1534 4219 1204 4116 
Q 875 4013 500 3803 
L 500 4441 
Q 881 4594 1212 4672 
Q 1544 4750 1819 4750 
Q 2544 4750 2975 4387 
Q 3406 4025 3406 3419 
Q 3406 3131 3298 2873 
Q 3191 2616 2906 2266 
Q 2828 2175 2409 1742 
Q 1991 1309 1228 531 
z
" transform="scale(0.015625)"/>
       </defs>
       <use xlink:href="#DejaVuSans-30"/>
       <use xlink:href="#DejaVuSans-32" transform="translate(63.623047 0)"/>
       <use xlink:href="#DejaVuSans-2e" transform="translate(127.246094 0)"/>
       <use xlink:href="#DejaVuSans-31" transform="translate(159.033203 0)"/>
       <use xlink:href="#DejaVuSans-31" transform="translate(222.65625 0)"/>
       <use xlink:href="#DejaVuSans-20" transform="translate(286.279297 0)"/>
       <use xlink:href="#DejaVuSans-30" transform="translate(318.066406 0)"/>
       <use xlink:href="#DejaVuSans-30" transform="translate(381.689453 0)"/>
       <use xlink:href="#DejaVuSans-68" transform="translate(445.3125 0)"/>
      </g>
     </g>
    </g>
    <g id="xtick_3">
     <g id="line2d_5">
      <path d="M 357.329775 402.32 
L 357.329775 27.96 
" clip-path="url(#p7c98e80e9c)" style="fill: none; stroke: #b0b0b0; stroke-opacity: 0.5; stroke-width: 0.8; stroke-linecap: square"/>
     </g>
     <g id="line2d_6">
      <g>
       <use xlink:href="#m8ff704151d" x="357.329775" y="402.32" style="stroke: #000000; stroke-width: 0.8"/>
      </g>
     </g>
     <g id="text_3">
      <!-- 03.11 00h -->
      <g transform="translate(329.351962 417.678281) scale(0.11 -0.11)">
       <defs>
        <path id="DejaVuSans-33" d="M 2597 2516 
Q 3050 2419 3304 2112 
Q 3559 1806 3559 1356 
Q 3559 666 3084 287 
Q 2609 -91 1734 -91 
Q 1441 -91 1130 -33 
Q 819 25 488 141 
L 488 750 
Q 750 597 1062 519 
Q 1375 441 1716 441 
Q 2309 441 2620 675 
Q 2931 909 2931 1356 
Q 2931 1769 2642 2001 
Q 2353 2234 1838 2234 
L 1294 2234 
L 1294 2753 
L 1863 2753 
Q 2328 2753 2575 2939 
Q 2822 3125 2822 3475 
Q 2822 3834 2567 4026 
Q 2313 4219 1838 4219 
Q 1578 4219 1281 4162 
Q 984 4106 628 3988 
L 628 4550 
Q 988 4650 1302 4700 
Q 1616 4750 1894 4750 
Q 2613 4750 3031 4423 
Q 3450 4097 3450 3541 
Q 3450 3153 3228 2886 
Q 3006 2619 2597 2516 
z
" transform="scale(0.015625)"/>
       </defs>
       <use xlink:href="#DejaVuSans-30"/>
       <use xlink:href="#DejaVuSans-33" transform="translate(63.623047 0)"/>
       <use xlink:href="#DejaVuSans-2e" transform="translate(127.246094 0)"/>
       <use xlink:href="#DejaVuSans-31" transform="translate(159.033203 0)"/>
       <use xlink:href="#DejaVuSans-31" transform="translate(222.65625 0)"/>
       <use xlink:href="#DejaVuSans-20" transform="translate(286.279297 0)"/>
       <use xlink:href="#DejaVuSans-30" transform="translate(318.066406 0)"/>
       <use xlink:href="#DejaVuSans-30" transform="translate(381.689453 0)"/>
       <use xlink:href="#DejaVuSans-68" transform="translate(445.3125 0)"/>
      </g>
     </g>
    </g>
    <g id="xtick_4">
     <g id="line2d_7">
      <path d="M 501.28648 402.32 
L 501.28648 27.96 
" clip-path="url(#p7c98e80e9c)" style="fill: none; stroke: #b0b0b0; stroke-opacity: 0.5; stroke-width: 0.8; stroke-linecap: square"/>
     </g>
     <g id="line2d_8">
      <g>
       <use xlink:href="#m8ff704151d" x="501.28648" y="402.32" style="stroke: #000000; stroke-width: 0.8"/>
      </g>
     </g>
     <g id="text_4">
      <!-- 04.11 00h -->
      <g transform="translate(473.308667 417.678281) scale(0.11 -0.11)">
       <defs>
        <path id="DejaVuSans-34" d="M 2419 4116 
L 825 1625 
L 2419 1625 
L 2419 4116 
z
M 2253 4666 
L 3047 4666 
L 3047 1625 
L 3713 1625 
L 3713 1100 
L 3047 1100 
L 3047 0 
L 2419 0 
L 2419 1100 
L 313 1100 
L 313 1709 
L 2253 4666 
z
" transform="scale(0.015625)"/>
       </defs>
       <use xlink:href="#DejaVuSans-30"/>
       <use xlink:href="#DejaVuSans-34" transform="translate(63.623047 0)"/>
       <use xlink:href="#DejaVuSans-2e" transform="translate(127.246094 0)"/>
       <use xlink:href="#DejaVuSans-31" transform="translate(159.033203 0)"/>
       <use xlink:href="#DejaVuSans-31" transform="translate(222.65625 0)"/>
       <use xlink:href="#DejaVuSans-20" transform="translate(286.279297 0)"/>
       <use xlink:href="#DejaVuSans-30" transform="translate(318.066406 0)"/>
       <use xlink:href="#DejaVuSans-30" transform="translate(381.689453 0)"/>
       <use xlink:href="#DejaVuSans-68" transform="translate(445.3125 0)"/>
      </g>
     </g>
    </g>
    <g id="xtick_5">
     <g id="line2d_9">
      <path d="M 645.243185 402.32 
L 645.243185 27.96 
" clip-path="url(#p7c98e80e9c)" style="fill: none; stroke: #b0b0b0; stroke-opacity: 0.5; stroke-width: 0.8; stroke-linecap: square"/>
     </g>
     <g id="line2d_10">
      <g>
       <use xlink:href="#m8ff704151d" x="645.243185" y="402.32" style="stroke: #000000; stroke-width: 0.8"/>
      </g>
     </g>
     <g id="text_5">
      <!-- 05.11 00h -->
      <g transform="translate(617.265373 417.678281) scale(0.11 -0.11)">
       <defs>
        <path id="DejaVuSans-35" d="M 691 4666 
L 3169 4666 
L 3169 4134 
L 1269 4134 
L 1269 2991 
Q 1406 3038 1543 3061 
Q 1681 3084 1819 3084 
Q 2600 3084 3056 2656 
Q 3513 2228 3513 1497 
Q 3513 744 3044 326 
Q 2575 -91 1722 -91 
Q 1428 -91 1123 -41 
Q 819 9 494 109 
L 494 744 
Q 775 591 1075 516 
Q 1375 441 1709 441 
Q 2250 441 2565 725 
Q 2881 1009 2881 1497 
Q 2881 1984 2565 2268 
Q 2250 2553 1709 2553 
Q 1456 2553 1204 2497 
Q 953 2441 691 2322 
L 691 4666 
z
" transform="scale(0.015625)"/>
       </defs>
       <use xlink:href="#DejaVuSans-30"/>
       <use xlink:href="#DejaVuSans-35" transform="translate(63.623047 0)"/>
       <use xlink:href="#DejaVuSans-2e" transform="translate(127.246094 0)"/>
       <use xlink:href="#DejaVuSans-31" transform="translate(159.033203 0)"/>
       <use xlink:href="#DejaVuSans-31" transform="translate(222.65625 0)"/>
       <use xlink:href="#DejaVuSans-20" transform="translate(286.279297 0)"/>
       <use xlink:href="#DejaVuSans-30" transform="translate(318.066406 0)"/>
       <use xlink:href="#DejaVuSans-30" transform="translate(381.689453 0)"/>
       <use xlink:href="#DejaVuSans-68" transform="translate(445.3125 0)"/>
      </g>
     </g>
    </g>
   </g>
   <g id="matplotlib.axis_2">
    <g id="ytick_1">
     <g id="line2d_11">
      <path d="M 40.7 385.303636 
L 672.46 385.303636 
" clip-path="url(#p7c98e80e9c)" style="fill: none; stroke: #b0b0b0; stroke-opacity: 0.5; stroke-width: 0.8; stroke-linecap: square"/>
     </g>
     <g id="line2d_12">
      <defs>
       <path id="m457c267215" d="M 0 0 
L -3.5 0 
" style="stroke: #000000; stroke-width: 0.8"/>
      </defs>
      <g>
       <use xlink:href="#m457c267215" x="40.7" y="385.303636" style="stroke: #000000; stroke-width: 0.8"/>
      </g>
     </g>
     <g id="text_6">
      <!-- 0 -->
      <g transform="translate(26.70125 389.482777) scale(0.11 -0.11)">
       <use xlink:href="#DejaVuSans-30"/>
      </g>
     </g>
    </g>
    <g id="ytick_2">
     <g id="line2d_13">
      <path d="M 40.7 316.550652 
L 672.46 316.550652 
" clip-path="url(#p7c98e80e9c)" style="fill: none; stroke: #b0b0b0; stroke-opacity: 0.5; stroke-width: 0.8; stroke-linecap: square"/>
     </g>
     <g id="line2d_14">
      <g>
       <use xlink:href="#m457c267215" x="40.7" y="316.550652" style="stroke: #000000; stroke-width: 0.8"/>
      </g>
     </g>
     <g id="text_7">
      <!-- 1 -->
      <g transform="translate(26.70125 320.729793) scale(0.11 -0.11)">
       <use xlink:href="#DejaVuSans-31"/>
      </g>
     </g>
    </g>
    <g id="ytick_3">
     <g id="line2d_15">
      <path d="M 40.7 247.797668 
L 672.46 247.797668 
" clip-path="url(#p7c98e80e9c)" style="fill: none; stroke: #b0b0b0; stroke-opacity: 0.5; stroke-width: 0.8; stroke-linecap: square"/>
     </g>
     <g id="line2d_16">
      <g>
       <use xlink:href="#m457c267215" x="40.7" y="247.797668" style="stroke: #000000; stroke-width: 0.8"/>
      </g>
     </g>
     <g id="text_8">
      <!-- 2 -->
      <g transform="translate(26.70125 251.976808) scale(0.11 -0.11)">
       <use xlink:href="#DejaVuSans-32"/>
      </g>
     </g>
    </g>
    <g id="ytick_4">
     <g id="line2d_17">
      <path d="M 40.7 179.044683 
L 672.46 179.044683 
" clip-path="url(#p7c98e80e9c)" style="fill: none; stroke: #b0b0b0; stroke-opacity: 0.5; stroke-width: 0.8; stroke-linecap: square"/>
     </g>
     <g id="line2d_18">
      <g>
       <use xlink:href="#m457c267215" x="40.7" y="179.044683" style="stroke: #000000; stroke-width: 0.8"/>
      </g>
     </g>
     <g id="text_9">
      <!-- 3 -->
      <g transform="translate(26.70125 183.223824) scale(0.11 -0.11)">
       <use xlink:href="#DejaVuSans-33"/>
      </g>
     </g>
    </g>
    <g id="ytick_5">
     <g id="line2d_19">
      <path d="M 40.7 110.291699 
L 672.46 110.291699 
" clip-path="url(#p7c98e80e9c)" style="fill: none; stroke: #b0b0b0; stroke-opacity: 0.5; stroke-width: 0.8; stroke-linecap: square"/>
     </g>
     <g id="line2d_20">
      <g>
       <use xlink:href="#m457c267215" x="40.7" y="110.291699" style="stroke: #000000; stroke-width: 0.8"/>
      </g>
     </g>
     <g id="text_10">
      <!-- 4 -->
      <g transform="translate(26.70125 114.470839) scale(0.11 -0.11)">
       <use xlink:href="#DejaVuSans-34"/>
      </g>
     </g>
    </g>
    <g id="ytick_6">
     <g id="line2d_21">
      <path d="M 40.7 41.538714 
L 672.46 41.538714 
" clip-path="url(#p7c98e80e9c)" style="fill: none; stroke: #b0b0b0; stroke-opacity: 0.5; stroke-width: 0.8; stroke-linecap: square"/>
     </g>
     <g id="line2d_22">
      <g>
       <use xlink:href="#m457c267215" x="40.7" y="41.538714" style="stroke: #000000; stroke-width: 0.8"/>
      </g>
     </g>
     <g id="text_11">
      <!-- 5 -->
      <g transform="translate(26.70125 45.717855) scale(0.11 -0.11)">
       <use xlink:href="#DejaVuSans-35"/>
      </g>
     </g>
    </g>
    <g id="text_12">
     <!-- Thermische Leistung [MW] -->
     <g transform="translate(20.413594 288.514297) rotate(-90) scale(0.11 -0.11)">
      <defs>
       <path id="DejaVuSans-54" d="M -19 4666 
L 3928 4666 
L 3928 4134 
L 2272 4134 
L 2272 0 
L 1638 0 
L 1638 4134 
L -19 4134 
L -19 4666 
z
" transform="scale(0.015625)"/>
       <path id="DejaVuSans-65" d="M 3597 1894 
L 3597 1613 
L 953 1613 
Q 991 1019 1311 708 
Q 1631 397 2203 397 
Q 2534 397 2845 478 
Q 3156 559 3463 722 
L 3463 178 
Q 3153 47 2828 -22 
Q 2503 -91 2169 -91 
Q 1331 -91 842 396 
Q 353 884 353 1716 
Q 353 2575 817 3079 
Q 1281 3584 2069 3584 
Q 2775 3584 3186 3129 
Q 3597 2675 3597 1894 
z
M 3022 2063 
Q 3016 2534 2758 2815 
Q 2500 3097 2075 3097 
Q 1594 3097 1305 2825 
Q 1016 2553 972 2059 
L 3022 2063 
z
" transform="scale(0.015625)"/>
       <path id="DejaVuSans-72" d="M 2631 2963 
Q 2534 3019 2420 3045 
Q 2306 3072 2169 3072 
Q 1681 3072 1420 2755 
Q 1159 2438 1159 1844 
L 1159 0 
L 581 0 
L 581 3500 
L 1159 3500 
L 1159 2956 
Q 1341 3275 1631 3429 
Q 1922 3584 2338 3584 
Q 2397 3584 2469 3576 
Q 2541 3569 2628 3553 
L 2631 2963 
z
" transform="scale(0.015625)"/>
       <path id="DejaVuSans-6d" d="M 3328 2828 
Q 3544 3216 3844 3400 
Q 4144 3584 4550 3584 
Q 5097 3584 5394 3201 
Q 5691 2819 5691 2113 
L 5691 0 
L 5113 0 
L 5113 2094 
Q 5113 2597 4934 2840 
Q 4756 3084 4391 3084 
Q 3944 3084 3684 2787 
Q 3425 2491 3425 1978 
L 3425 0 
L 2847 0 
L 2847 2094 
Q 2847 2600 2669 2842 
Q 2491 3084 2119 3084 
Q 1678 3084 1418 2786 
Q 1159 2488 1159 1978 
L 1159 0 
L 581 0 
L 581 3500 
L 1159 3500 
L 1159 2956 
Q 1356 3278 1631 3431 
Q 1906 3584 2284 3584 
Q 2666 3584 2933 3390 
Q 3200 3197 3328 2828 
z
" transform="scale(0.015625)"/>
       <path id="DejaVuSans-69" d="M 603 3500 
L 1178 3500 
L 1178 0 
L 603 0 
L 603 3500 
z
M 603 4863 
L 1178 4863 
L 1178 4134 
L 603 4134 
L 603 4863 
z
" transform="scale(0.015625)"/>
       <path id="DejaVuSans-73" d="M 2834 3397 
L 2834 2853 
Q 2591 2978 2328 3040 
Q 2066 3103 1784 3103 
Q 1356 3103 1142 2972 
Q 928 2841 928 2578 
Q 928 2378 1081 2264 
Q 1234 2150 1697 2047 
L 1894 2003 
Q 2506 1872 2764 1633 
Q 3022 1394 3022 966 
Q 3022 478 2636 193 
Q 2250 -91 1575 -91 
Q 1294 -91 989 -36 
Q 684 19 347 128 
L 347 722 
Q 666 556 975 473 
Q 1284 391 1588 391 
Q 1994 391 2212 530 
Q 2431 669 2431 922 
Q 2431 1156 2273 1281 
Q 2116 1406 1581 1522 
L 1381 1569 
Q 847 1681 609 1914 
Q 372 2147 372 2553 
Q 372 3047 722 3315 
Q 1072 3584 1716 3584 
Q 2034 3584 2315 3537 
Q 2597 3491 2834 3397 
z
" transform="scale(0.015625)"/>
       <path id="DejaVuSans-63" d="M 3122 3366 
L 3122 2828 
Q 2878 2963 2633 3030 
Q 2388 3097 2138 3097 
Q 1578 3097 1268 2742 
Q 959 2388 959 1747 
Q 959 1106 1268 751 
Q 1578 397 2138 397 
Q 2388 397 2633 464 
Q 2878 531 3122 666 
L 3122 134 
Q 2881 22 2623 -34 
Q 2366 -91 2075 -91 
Q 1284 -91 818 406 
Q 353 903 353 1747 
Q 353 2603 823 3093 
Q 1294 3584 2113 3584 
Q 2378 3584 2631 3529 
Q 2884 3475 3122 3366 
z
" transform="scale(0.015625)"/>
       <path id="DejaVuSans-4c" d="M 628 4666 
L 1259 4666 
L 1259 531 
L 3531 531 
L 3531 0 
L 628 0 
L 628 4666 
z
" transform="scale(0.015625)"/>
       <path id="DejaVuSans-74" d="M 1172 4494 
L 1172 3500 
L 2356 3500 
L 2356 3053 
L 1172 3053 
L 1172 1153 
Q 1172 725 1289 603 
Q 1406 481 1766 481 
L 2356 481 
L 2356 0 
L 1766 0 
Q 1100 0 847 248 
Q 594 497 594 1153 
L 594 3053 
L 172 3053 
L 172 3500 
L 594 3500 
L 594 4494 
L 1172 4494 
z
" transform="scale(0.015625)"/>
       <path id="DejaVuSans-75" d="M 544 1381 
L 544 3500 
L 1119 3500 
L 1119 1403 
Q 1119 906 1312 657 
Q 1506 409 1894 409 
Q 2359 409 2629 706 
Q 2900 1003 2900 1516 
L 2900 3500 
L 3475 3500 
L 3475 0 
L 2900 0 
L 2900 538 
Q 2691 219 2414 64 
Q 2138 -91 1772 -91 
Q 1169 -91 856 284 
Q 544 659 544 1381 
z
M 1991 3584 
L 1991 3584 
z
" transform="scale(0.015625)"/>
       <path id="DejaVuSans-6e" d="M 3513 2113 
L 3513 0 
L 2938 0 
L 2938 2094 
Q 2938 2591 2744 2837 
Q 2550 3084 2163 3084 
Q 1697 3084 1428 2787 
Q 1159 2491 1159 1978 
L 1159 0 
L 581 0 
L 581 3500 
L 1159 3500 
L 1159 2956 
Q 1366 3272 1645 3428 
Q 1925 3584 2291 3584 
Q 2894 3584 3203 3211 
Q 3513 2838 3513 2113 
z
" transform="scale(0.015625)"/>
       <path id="DejaVuSans-67" d="M 2906 1791 
Q 2906 2416 2648 2759 
Q 2391 3103 1925 3103 
Q 1463 3103 1205 2759 
Q 947 2416 947 1791 
Q 947 1169 1205 825 
Q 1463 481 1925 481 
Q 2391 481 2648 825 
Q 2906 1169 2906 1791 
z
M 3481 434 
Q 3481 -459 3084 -895 
Q 2688 -1331 1869 -1331 
Q 1566 -1331 1297 -1286 
Q 1028 -1241 775 -1147 
L 775 -588 
Q 1028 -725 1275 -790 
Q 1522 -856 1778 -856 
Q 2344 -856 2625 -561 
Q 2906 -266 2906 331 
L 2906 616 
Q 2728 306 2450 153 
Q 2172 0 1784 0 
Q 1141 0 747 490 
Q 353 981 353 1791 
Q 353 2603 747 3093 
Q 1141 3584 1784 3584 
Q 2172 3584 2450 3431 
Q 2728 3278 2906 2969 
L 2906 3500 
L 3481 3500 
L 3481 434 
z
" transform="scale(0.015625)"/>
       <path id="DejaVuSans-5b" d="M 550 4863 
L 1875 4863 
L 1875 4416 
L 1125 4416 
L 1125 -397 
L 1875 -397 
L 1875 -844 
L 550 -844 
L 550 4863 
z
" transform="scale(0.015625)"/>
       <path id="DejaVuSans-4d" d="M 628 4666 
L 1569 4666 
L 2759 1491 
L 3956 4666 
L 4897 4666 
L 4897 0 
L 4281 0 
L 4281 4097 
L 3078 897 
L 2444 897 
L 1241 4097 
L 1241 0 
L 628 0 
L 628 4666 
z
" transform="scale(0.015625)"/>
       <path id="DejaVuSans-57" d="M 213 4666 
L 850 4666 
L 1831 722 
L 2809 4666 
L 3519 4666 
L 4500 722 
L 5478 4666 
L 6119 4666 
L 4947 0 
L 4153 0 
L 3169 4050 
L 2175 0 
L 1381 0 
L 213 4666 
z
" transform="scale(0.015625)"/>
       <path id="DejaVuSans-5d" d="M 1947 4863 
L 1947 -844 
L 622 -844 
L 622 -397 
L 1369 -397 
L 1369 4416 
L 622 4416 
L 622 4863 
L 1947 4863 
z
" transform="scale(0.015625)"/>
      </defs>
      <use xlink:href="#DejaVuSans-54"/>
      <use xlink:href="#DejaVuSans-68" transform="translate(61.083984 0)"/>
      <use xlink:href="#DejaVuSans-65" transform="translate(124.462891 0)"/>
      <use xlink:href="#DejaVuSans-72" transform="translate(185.986328 0)"/>
      <use xlink:href="#DejaVuSans-6d" transform="translate(225.349609 0)"/>
      <use xlink:href="#DejaVuSans-69" transform="translate(322.761719 0)"/>
      <use xlink:href="#DejaVuSans-73" transform="translate(350.544922 0)"/>
      <use xlink:href="#DejaVuSans-63" transform="translate(402.644531 0)"/>
      <use xlink:href="#DejaVuSans-68" transform="translate(457.625 0)"/>
      <use xlink:href="#DejaVuSans-65" transform="translate(521.003906 0)"/>
      <use xlink:href="#DejaVuSans-20" transform="translate(582.527344 0)"/>
      <use xlink:href="#DejaVuSans-4c" transform="translate(614.314453 0)"/>
      <use xlink:href="#DejaVuSans-65" transform="translate(668.277344 0)"/>
      <use xlink:href="#DejaVuSans-69" transform="translate(729.800781 0)"/>
      <use xlink:href="#DejaVuSans-73" transform="translate(757.583984 0)"/>
      <use xlink:href="#DejaVuSans-74" transform="translate(809.683594 0)"/>
      <use xlink:href="#DejaVuSans-75" transform="translate(848.892578 0)"/>
      <use xlink:href="#DejaVuSans-6e" transform="translate(912.271484 0)"/>
      <use xlink:href="#DejaVuSans-67" transform="translate(975.650391 0)"/>
      <use xlink:href="#DejaVuSans-20" transform="translate(1039.126953 0)"/>
      <use xlink:href="#DejaVuSans-5b" transform="translate(1070.914062 0)"/>
      <use xlink:href="#DejaVuSans-4d" transform="translate(1109.927734 0)"/>
      <use xlink:href="#DejaVuSans-57" transform="translate(1196.207031 0)"/>
      <use xlink:href="#DejaVuSans-5d" transform="translate(1295.083984 0)"/>
     </g>
    </g>
   </g>
   <g id="line2d_23">
    <path d="M 69.416364 141.065727 
L 70.915913 136.743983 
L 72.415462 148.673748 
L 73.915011 148.806295 
L 75.41456 115.212207 
L 76.914109 132.594589 
L 78.413658 140.59749 
L 79.913207 152.019104 
L 81.412756 168.897213 
L 82.912305 142.124328 
L 84.411854 178.142014 
L 85.911403 169.423465 
L 87.410952 196.206315 
L 88.910501 201.615586 
L 90.41005 188.665904 
L 91.909599 212.946645 
L 93.409148 267.93205 
L 94.908697 243.84912 
L 96.408246 251.571327 
L 97.907795 247.407013 
L 99.407344 262.257877 
L 100.906893 258.203024 
L 102.406442 274.991279 
L 103.905991 271.888001 
L 105.40554 274.152315 
L 106.905089 288.758481 
L 108.404638 283.545054 
L 109.904187 284.678834 
L 111.403736 270.340752 
L 112.903285 259.337914 
L 114.402834 278.36246 
L 115.902383 274.336852 
L 117.401932 232.30849 
L 118.901481 241.653393 
L 120.40103 257.526658 
L 121.900579 252.093972 
L 123.400128 198.304889 
L 124.899677 184.607093 
L 126.399226 206.53322 
L 127.898775 209.434035 
L 129.398324 177.237115 
L 130.897873 166.973594 
L 132.397422 208.075835 
L 133.896971 179.629363 
L 135.39652 130.677418 
L 136.896069 155.213971 
L 138.395618 138.336568 
L 139.895167 171.851015 
L 141.394716 106.056705 
L 142.894265 151.401512 
L 144.393814 130.974983 
L 145.893363 144.956921 
L 147.392912 118.330845 
L 148.892461 125.549562 
L 150.39201 136.3387 
L 151.891559 149.761971 
L 153.391108 161.700216 
L 154.890657 166.963683 
L 156.390207 159.194497 
L 157.889756 136.33812 
L 159.389305 207.393562 
L 160.888854 217.711415 
L 162.388403 232.054129 
L 163.887952 231.356874 
L 165.387501 237.906862 
L 166.88705 254.486649 
L 168.386599 233.810561 
L 169.886148 252.477215 
L 171.385697 288.705859 
L 172.885246 273.117076 
L 174.384795 245.802249 
L 175.884344 284.033683 
L 177.383893 254.568496 
L 178.883442 271.044831 
L 180.382991 268.710578 
L 181.88254 273.936538 
L 183.382089 288.343259 
L 184.881638 264.591749 
L 186.381187 290.58863 
L 187.880736 279.709872 
L 189.380285 245.078062 
L 190.879834 222.733735 
L 192.379383 250.702023 
L 193.878932 244.716712 
L 195.378481 204.559986 
L 196.87803 208.14375 
L 198.377579 226.457731 
L 199.877128 217.500136 
L 201.376677 178.901191 
L 202.876226 171.187189 
L 204.375775 167.164659 
L 205.875324 165.440429 
L 207.374873 158.533287 
L 208.874422 127.054148 
L 210.373971 155.44983 
L 211.87352 142.126649 
L 213.373069 126.024949 
L 214.872618 122.503821 
L 216.372167 130.540337 
L 217.871716 128.597057 
L 219.371265 145.351978 
L 220.870814 138.408969 
L 222.370363 146.721922 
L 223.869912 130.482598 
L 225.369461 176.650095 
L 226.86901 173.94416 
L 228.368559 180.0079 
L 229.868108 180.860607 
L 231.367657 207.850688 
L 232.867206 195.357757 
L 234.366755 218.822227 
L 235.866304 208.796023 
L 237.365853 243.235127 
L 238.865402 259.479504 
L 240.364951 239.973548 
L 241.8645 260.891347 
L 243.364049 285.895377 
L 244.863598 262.440553 
L 246.363147 270.644384 
L 247.862696 258.68593 
L 249.362245 274.268604 
L 250.861794 277.103244 
L 252.361343 298.742987 
L 255.360441 255.332972 
L 256.859991 230.587596 
L 258.35954 260.261298 
L 259.859089 274.11224 
L 261.358638 244.131281 
L 262.858187 251.833104 
L 264.357736 239.311675 
L 265.857285 217.410354 
L 267.356834 198.335959 
L 268.856383 209.525137 
L 270.355932 199.310111 
L 271.855481 198.154193 
L 273.35503 153.36935 
L 274.854579 178.385024 
L 276.354128 148.26598 
L 277.853677 165.474586 
L 279.353226 153.947723 
L 280.852775 149.528136 
L 282.352324 142.092594 
L 283.851873 150.940909 
L 285.351422 118.454971 
L 286.850971 130.859448 
L 288.35052 104.569141 
L 289.850069 121.15869 
L 291.349618 111.41057 
L 292.849167 122.643849 
L 294.348716 153.662175 
L 295.848265 126.440994 
L 297.347814 176.477564 
L 298.847363 176.488478 
L 300.346912 163.101678 
L 301.846461 162.17617 
L 303.34601 194.420337 
L 304.845559 187.760799 
L 306.345108 187.196065 
L 307.844657 188.552198 
L 309.344206 235.644032 
L 310.843755 268.393809 
L 312.343304 228.050183 
L 313.842853 256.684815 
L 315.342402 258.203891 
L 316.841951 277.590135 
L 318.3415 281.289063 
L 319.841049 275.116584 
L 322.840147 304.163128 
L 324.339696 241.254341 
L 325.839245 287.360761 
L 327.338794 286.991235 
L 328.838343 258.757149 
L 330.337892 255.679073 
L 331.837441 270.922721 
L 333.33699 239.822376 
L 334.836539 234.855278 
L 336.336088 235.734119 
L 337.835637 235.013382 
L 339.335186 210.564774 
L 340.834735 208.436622 
L 342.334284 192.98762 
L 343.833833 207.265535 
L 345.333382 145.625961 
L 346.832931 175.640106 
L 348.33248 177.636415 
L 349.832029 168.938848 
L 351.331578 123.168773 
L 352.831127 148.525215 
L 354.330676 139.948667 
L 355.830225 134.76073 
L 357.329775 141.205088 
L 358.829324 151.409601 
L 360.328873 145.99315 
L 361.828422 116.079432 
L 363.327971 137.392638 
L 364.82752 136.538432 
L 366.327069 129.669826 
L 367.826618 136.877258 
L 370.825716 173.937966 
L 372.325265 164.221897 
L 373.824814 163.44992 
L 375.324363 205.398087 
L 376.823912 210.521091 
L 378.323461 210.752069 
L 379.82301 221.254764 
L 381.322559 238.656788 
L 382.822108 258.685461 
L 384.321657 230.379676 
L 385.821206 267.781725 
L 387.320755 252.577521 
L 388.820304 251.483642 
L 390.319853 278.368205 
L 391.819402 268.414808 
L 393.318951 275.765614 
L 394.8185 274.508916 
L 397.817598 295.916966 
L 399.317147 294.080052 
L 400.816696 277.710919 
L 402.316245 287.210264 
L 403.815794 257.056457 
L 405.315343 219.123583 
L 406.814892 267.800939 
L 408.314441 266.195555 
L 409.81399 248.849193 
L 411.313539 204.185275 
L 412.813088 206.537284 
L 414.312637 223.512569 
L 415.812186 206.990059 
L 417.311735 157.059433 
L 418.811284 164.869099 
L 420.310833 167.848899 
L 421.810382 165.726022 
L 423.309931 133.042594 
L 424.80948 135.945666 
L 426.309029 157.998523 
L 427.808578 148.901404 
L 429.308127 114.228869 
L 430.807676 140.52583 
L 432.307225 125.443746 
L 433.806774 132.985891 
L 435.306323 138.647098 
L 436.805872 133.532058 
L 438.305421 118.104527 
L 439.80497 137.590913 
L 441.304519 165.550292 
L 442.804068 196.395095 
L 444.303617 170.460671 
L 445.803166 172.844601 
L 447.302715 193.989827 
L 448.802264 212.355765 
L 450.301813 195.568757 
L 451.801362 216.031935 
L 453.300911 243.160193 
L 454.80046 225.402244 
L 456.300009 236.275087 
L 459.299108 253.955323 
L 460.798657 266.442911 
L 462.298206 264.43948 
L 463.797755 254.870014 
L 465.297304 272.605315 
L 466.796853 300.457156 
L 468.296402 282.191776 
L 469.795951 295.57803 
L 471.2955 244.780965 
L 472.795049 269.096685 
L 474.294598 266.754444 
L 475.794147 269.769826 
L 477.293696 257.155727 
L 478.793245 236.714244 
L 480.292794 238.33617 
L 481.792343 253.098046 
L 483.291892 230.845028 
L 484.791441 211.073445 
L 486.29099 200.839454 
L 487.790539 219.18401 
L 489.290088 183.772806 
L 490.789637 171.570214 
L 492.289186 153.585343 
L 493.788735 188.129127 
L 495.288284 142.571648 
L 496.787833 156.183766 
L 498.287382 148.272271 
L 499.786931 147.655283 
L 501.28648 151.20704 
L 502.786029 123.477851 
L 504.285578 146.052472 
L 505.785127 132.871179 
L 507.284676 130.197356 
L 508.784225 139.654241 
L 510.283774 145.721033 
L 511.783323 113.20451 
L 513.282872 167.579638 
L 514.782421 151.922519 
L 516.28197 219.391277 
L 517.781519 160.279577 
L 519.281068 185.351395 
L 520.780617 197.69258 
L 522.280166 182.77117 
L 523.779715 196.539812 
L 525.279264 245.438581 
L 526.778813 260.691636 
L 528.278362 258.63572 
L 529.777911 271.63265 
L 531.27746 256.339328 
L 532.777009 268.814081 
L 534.276558 277.999104 
L 535.776107 251.153832 
L 537.275656 287.422579 
L 538.775205 261.979302 
L 540.274754 293.184984 
L 541.774303 293.474158 
L 543.273852 277.702764 
L 544.773401 300.089778 
L 546.27295 271.526588 
L 547.772499 270.780398 
L 549.272048 261.075527 
L 550.771597 234.805551 
L 552.271146 271.837378 
L 555.270244 205.173409 
L 556.769793 220.819386 
L 558.269343 202.729196 
L 559.768892 217.657944 
L 561.268441 181.667051 
L 562.76799 167.680578 
L 564.267539 161.822103 
L 565.767088 144.752143 
L 567.266637 118.553674 
L 568.766186 118.831601 
L 570.265735 138.961741 
L 571.765284 139.721805 
L 573.264833 121.426177 
L 574.764382 112.728882 
L 576.263931 127.694523 
L 577.76348 130.671732 
L 579.263029 138.658929 
L 580.762578 135.586812 
L 582.262127 165.910559 
L 583.761676 158.986106 
L 585.261225 183.731936 
L 586.760774 149.617243 
L 588.260323 157.068295 
L 589.759872 181.686744 
L 591.259421 209.489162 
L 592.75897 203.149761 
L 594.258519 192.580897 
L 595.758068 215.219655 
L 597.257617 260.360102 
L 598.757166 254.949823 
L 600.256715 223.273721 
L 601.756264 201.431586 
L 603.255813 272.155983 
L 606.254911 247.501198 
L 607.75446 287.255161 
L 609.254009 275.975039 
L 610.753558 301.736015 
L 612.253107 272.983901 
L 613.752656 284.792387 
L 615.252205 282.260688 
L 616.751754 263.070769 
L 618.251303 286.112246 
L 619.750852 251.169935 
L 621.250401 258.716684 
L 622.74995 251.484681 
L 624.249499 247.359744 
L 625.749048 241.648183 
L 627.248597 234.073569 
L 628.748146 212.989956 
L 631.747244 229.114962 
L 633.246793 163.646755 
L 634.746342 165.176048 
L 636.245891 163.235821 
L 637.74544 164.725211 
L 639.244989 127.62235 
L 640.744538 160.191487 
L 642.244087 138.264054 
L 643.743636 151.825089 
L 643.743636 151.825089 
" clip-path="url(#p7c98e80e9c)" style="fill: none; stroke-dasharray: 5.55,2.4; stroke-dashoffset: 0; stroke: #000000; stroke-width: 1.5"/>
   </g>
   <g id="line2d_24">
    <path d="M 69.416364 385.303636 
L 72.415462 385.303636 
L 73.915011 44.976364 
L 75.41456 312.11341 
L 76.914109 132.594589 
L 78.413658 140.597492 
L 79.913207 44.976364 
L 82.912305 44.976364 
L 84.411854 385.303636 
L 85.911403 44.976364 
L 87.410952 385.303636 
L 88.910501 256.556372 
L 90.41005 188.665907 
L 91.909599 44.976364 
L 115.902383 44.976364 
L 117.401932 385.303636 
L 120.40103 385.303636 
L 121.900579 44.976364 
L 123.400128 385.303636 
L 124.899677 385.303636 
L 126.399226 61.239552 
L 127.898775 44.976364 
L 129.398324 385.303636 
L 130.897873 44.976364 
L 142.894265 44.976364 
L 144.393814 125.808814 
L 145.893363 139.790751 
L 147.392912 215.14 
L 148.892461 215.14 
L 150.39201 44.976364 
L 151.891559 44.976364 
L 153.391108 146.142633 
L 154.890657 194.621868 
L 156.390207 215.14 
L 157.889756 215.14 
L 159.389305 44.976364 
L 160.888854 215.14 
L 163.887952 215.14 
L 165.387501 232.740688 
L 166.88705 263.146723 
L 187.880736 263.146723 
L 189.380285 385.303636 
L 211.87352 385.303636 
L 213.373069 44.976364 
L 240.364951 44.976364 
L 241.8645 278.828323 
L 243.364049 44.976364 
L 244.863598 278.828323 
L 246.363147 44.976364 
L 247.862696 278.828323 
L 249.362245 44.976364 
L 250.861794 218.450772 
L 252.361343 278.828323 
L 259.859089 278.828323 
L 261.358638 255.121462 
L 264.357736 255.121462 
L 265.857285 44.976364 
L 267.356834 255.121462 
L 270.355932 255.121462 
L 271.855481 44.976364 
L 273.35503 255.121462 
L 274.854579 255.121462 
L 276.354128 44.976364 
L 277.853677 44.976364 
L 279.353226 255.121462 
L 280.852775 255.121462 
L 282.352324 225.361575 
L 283.851873 44.976364 
L 288.35052 44.976364 
L 289.850069 250.02063 
L 291.349618 44.976364 
L 292.849167 44.976364 
L 294.348716 148.496007 
L 295.848265 385.303636 
L 297.347814 44.976364 
L 298.847363 44.976364 
L 300.346912 385.303636 
L 334.836539 385.303636 
L 336.336088 44.976364 
L 337.835637 44.976364 
L 339.335186 385.303636 
L 340.834735 214.062098 
L 342.334284 385.303636 
L 343.833833 44.976364 
L 345.333382 385.303636 
L 348.33248 385.303636 
L 349.832029 44.976364 
L 351.331578 385.303636 
L 352.831127 148.525213 
L 354.330676 139.94867 
L 355.830225 44.976364 
L 357.329775 206.948439 
L 358.829324 44.976364 
L 360.328873 206.948439 
L 361.828422 44.976364 
L 363.327971 206.948439 
L 364.82752 206.948439 
L 366.327069 129.669824 
L 367.826618 44.976364 
L 369.326167 206.948439 
L 372.325265 44.976364 
L 382.822108 44.976364 
L 384.321657 385.303636 
L 385.821206 385.303636 
L 387.320755 44.976364 
L 388.820304 44.976364 
L 390.319853 385.303636 
L 391.819402 44.976364 
L 393.318951 44.976364 
L 394.8185 385.303636 
L 414.312637 385.303636 
L 415.812186 44.976364 
L 417.311735 385.303636 
L 418.811284 164.869097 
L 420.310833 44.976364 
L 421.810382 44.976364 
L 423.309931 126.535355 
L 424.80948 385.303636 
L 426.309029 44.976364 
L 427.808578 215.198839 
L 429.308127 44.976364 
L 451.801362 44.976364 
L 453.300911 385.303636 
L 474.294598 385.303636 
L 475.794147 44.976364 
L 477.293696 362.239786 
L 478.793245 355.992562 
L 481.792343 121.538532 
L 483.291892 362.239786 
L 484.791441 44.976364 
L 486.29099 362.239786 
L 487.790539 44.976364 
L 489.290088 362.239786 
L 490.789637 90.808127 
L 492.289186 44.976364 
L 532.777009 44.976364 
L 534.276558 385.303636 
L 535.776107 385.303636 
L 537.275656 44.976364 
L 538.775205 385.303636 
L 547.772499 385.303636 
L 549.272048 215.14 
L 558.269343 215.14 
L 559.768892 44.976364 
L 561.268441 215.14 
L 562.76799 215.14 
L 564.267539 44.976364 
L 579.263029 44.976364 
L 580.762578 130.420641 
L 582.262127 162.744437 
L 583.761676 385.303636 
L 585.261225 44.976364 
L 586.760774 44.976364 
L 588.260323 385.303636 
L 589.759872 385.303636 
L 591.259421 85.311718 
L 592.75897 385.303636 
L 618.251303 385.303636 
L 619.750852 44.976364 
L 621.250401 385.303636 
L 630.247695 385.303636 
L 631.747244 44.976364 
L 633.246793 385.303636 
L 634.746342 385.303636 
L 636.245891 44.976364 
L 642.244087 44.976364 
L 642.244087 44.976364 
" clip-path="url(#p7c98e80e9c)" style="fill: none; stroke: #ff0000; stroke-width: 1.5; stroke-linecap: square"/>
   </g>
   <g id="patch_3">
    <path d="M 40.7 402.32 
L 40.7 27.96 
" style="fill: none; stroke: #000000; stroke-width: 0.8; stroke-linejoin: miter; stroke-linecap: square"/>
   </g>
   <g id="patch_4">
    <path d="M 672.46 402.32 
L 672.46 27.96 
" style="fill: none; stroke: #000000; stroke-width: 0.8; stroke-linejoin: miter; stroke-linecap: square"/>
   </g>
   <g id="patch_5">
    <path d="M 40.7 402.32 
L 672.46 402.32 
" style="fill: none; stroke: #000000; stroke-width: 0.8; stroke-linejoin: miter; stroke-linecap: square"/>
   </g>
   <g id="patch_6">
    <path d="M 40.7 27.96 
L 672.46 27.96 
" style="fill: none; stroke: #000000; stroke-width: 0.8; stroke-linejoin: miter; stroke-linecap: square"/>
   </g>
   <g id="text_13">
    <!-- Wärmeversorgung &amp; Pufferung -->
    <g transform="translate(254.476969 21.96) scale(0.132 -0.132)">
     <defs>
      <path id="DejaVuSans-e4" d="M 2194 1759 
Q 1497 1759 1228 1600 
Q 959 1441 959 1056 
Q 959 750 1161 570 
Q 1363 391 1709 391 
Q 2188 391 2477 730 
Q 2766 1069 2766 1631 
L 2766 1759 
L 2194 1759 
z
M 3341 1997 
L 3341 0 
L 2766 0 
L 2766 531 
Q 2569 213 2275 61 
Q 1981 -91 1556 -91 
Q 1019 -91 701 211 
Q 384 513 384 1019 
Q 384 1609 779 1909 
Q 1175 2209 1959 2209 
L 2766 2209 
L 2766 2266 
Q 2766 2663 2505 2880 
Q 2244 3097 1772 3097 
Q 1472 3097 1187 3025 
Q 903 2953 641 2809 
L 641 3341 
Q 956 3463 1253 3523 
Q 1550 3584 1831 3584 
Q 2591 3584 2966 3190 
Q 3341 2797 3341 1997 
z
M 2150 4850 
L 2784 4850 
L 2784 4219 
L 2150 4219 
L 2150 4850 
z
M 928 4850 
L 1562 4850 
L 1562 4219 
L 928 4219 
L 928 4850 
z
" transform="scale(0.015625)"/>
      <path id="DejaVuSans-76" d="M 191 3500 
L 800 3500 
L 1894 563 
L 2988 3500 
L 3597 3500 
L 2284 0 
L 1503 0 
L 191 3500 
z
" transform="scale(0.015625)"/>
      <path id="DejaVuSans-6f" d="M 1959 3097 
Q 1497 3097 1228 2736 
Q 959 2375 959 1747 
Q 959 1119 1226 758 
Q 1494 397 1959 397 
Q 2419 397 2687 759 
Q 2956 1122 2956 1747 
Q 2956 2369 2687 2733 
Q 2419 3097 1959 3097 
z
M 1959 3584 
Q 2709 3584 3137 3096 
Q 3566 2609 3566 1747 
Q 3566 888 3137 398 
Q 2709 -91 1959 -91 
Q 1206 -91 779 398 
Q 353 888 353 1747 
Q 353 2609 779 3096 
Q 1206 3584 1959 3584 
z
" transform="scale(0.015625)"/>
      <path id="DejaVuSans-26" d="M 1556 2509 
Q 1272 2256 1139 2004 
Q 1006 1753 1006 1478 
Q 1006 1022 1337 719 
Q 1669 416 2169 416 
Q 2466 416 2725 514 
Q 2984 613 3213 813 
L 1556 2509 
z
M 1997 2859 
L 3584 1234 
Q 3769 1513 3872 1830 
Q 3975 2147 3994 2503 
L 4575 2503 
Q 4538 2091 4375 1687 
Q 4213 1284 3922 891 
L 4794 0 
L 4006 0 
L 3559 459 
Q 3234 181 2878 45 
Q 2522 -91 2113 -91 
Q 1359 -91 881 339 
Q 403 769 403 1441 
Q 403 1841 612 2192 
Q 822 2544 1241 2853 
Q 1091 3050 1012 3245 
Q 934 3441 934 3628 
Q 934 4134 1281 4442 
Q 1628 4750 2203 4750 
Q 2463 4750 2720 4694 
Q 2978 4638 3244 4525 
L 3244 3956 
Q 2972 4103 2725 4179 
Q 2478 4256 2266 4256 
Q 1938 4256 1733 4082 
Q 1528 3909 1528 3634 
Q 1528 3475 1620 3314 
Q 1713 3153 1997 2859 
z
" transform="scale(0.015625)"/>
      <path id="DejaVuSans-50" d="M 1259 4147 
L 1259 2394 
L 2053 2394 
Q 2494 2394 2734 2622 
Q 2975 2850 2975 3272 
Q 2975 3691 2734 3919 
Q 2494 4147 2053 4147 
L 1259 4147 
z
M 628 4666 
L 2053 4666 
Q 2838 4666 3239 4311 
Q 3641 3956 3641 3272 
Q 3641 2581 3239 2228 
Q 2838 1875 2053 1875 
L 1259 1875 
L 1259 0 
L 628 0 
L 628 4666 
z
" transform="scale(0.015625)"/>
      <path id="DejaVuSans-66" d="M 2375 4863 
L 2375 4384 
L 1825 4384 
Q 1516 4384 1395 4259 
Q 1275 4134 1275 3809 
L 1275 3500 
L 2222 3500 
L 2222 3053 
L 1275 3053 
L 1275 0 
L 697 0 
L 697 3053 
L 147 3053 
L 147 3500 
L 697 3500 
L 697 3744 
Q 697 4328 969 4595 
Q 1241 4863 1831 4863 
L 2375 4863 
z
" transform="scale(0.015625)"/>
     </defs>
     <use xlink:href="#DejaVuSans-57"/>
     <use xlink:href="#DejaVuSans-e4" transform="translate(92.501953 0)"/>
     <use xlink:href="#DejaVuSans-72" transform="translate(153.78125 0)"/>
     <use xlink:href="#DejaVuSans-6d" transform="translate(193.144531 0)"/>
     <use xlink:href="#DejaVuSans-65" transform="translate(290.556641 0)"/>
     <use xlink:href="#DejaVuSans-76" transform="translate(352.080078 0)"/>
     <use xlink:href="#DejaVuSans-65" transform="translate(411.259766 0)"/>
     <use xlink:href="#DejaVuSans-72" transform="translate(472.783203 0)"/>
     <use xlink:href="#DejaVuSans-73" transform="translate(513.896484 0)"/>
     <use xlink:href="#DejaVuSans-6f" transform="translate(565.996094 0)"/>
     <use xlink:href="#DejaVuSans-72" transform="translate(627.177734 0)"/>
     <use xlink:href="#DejaVuSans-67" transform="translate(666.541016 0)"/>
     <use xlink:href="#DejaVuSans-75" transform="translate(730.017578 0)"/>
     <use xlink:href="#DejaVuSans-6e" transform="translate(793.396484 0)"/>
     <use xlink:href="#DejaVuSans-67" transform="translate(856.775391 0)"/>
     <use xlink:href="#DejaVuSans-20" transform="translate(920.251953 0)"/>
     <use xlink:href="#DejaVuSans-26" transform="translate(952.039062 0)"/>
     <use xlink:href="#DejaVuSans-20" transform="translate(1030.017578 0)"/>
     <use xlink:href="#DejaVuSans-50" transform="translate(1061.804688 0)"/>
     <use xlink:href="#DejaVuSans-75" transform="translate(1120.357422 0)"/>
     <use xlink:href="#DejaVuSans-66" transform="translate(1183.736328 0)"/>
     <use xlink:href="#DejaVuSans-66" transform="translate(1218.941406 0)"/>
     <use xlink:href="#DejaVuSans-65" transform="translate(1254.146484 0)"/>
     <use xlink:href="#DejaVuSans-72" transform="translate(1315.669922 0)"/>
     <use xlink:href="#DejaVuSans-75" transform="translate(1356.783203 0)"/>
     <use xlink:href="#DejaVuSans-6e" transform="translate(1420.162109 0)"/>
     <use xlink:href="#DejaVuSans-67" transform="translate(1483.541016 0)"/>
    </g>
   </g>
   <g id="legend_1">
    <g id="patch_7">
     <path d="M 48.4 69.051875 
L 165.207969 69.051875 
Q 167.407969 69.051875 167.407969 66.851875 
L 167.407969 35.66 
Q 167.407969 33.46 165.207969 33.46 
L 48.4 33.46 
Q 46.2 33.46 46.2 35.66 
L 46.2 66.851875 
Q 46.2 69.051875 48.4 69.051875 
z
" style="fill: #ffffff; opacity: 0.8; stroke: #cccccc; stroke-linejoin: miter"/>
    </g>
    <g id="line2d_25">
     <path d="M 50.6 42.368281 
L 61.6 42.368281 
L 72.6 42.368281 
" style="fill: none; stroke-dasharray: 5.55,2.4; stroke-dashoffset: 0; stroke: #000000; stroke-width: 1.5"/>
    </g>
    <g id="text_14">
     <!-- Wärmebedarf -->
     <g transform="translate(81.4 46.218281) scale(0.11 -0.11)">
      <defs>
       <path id="DejaVuSans-62" d="M 3116 1747 
Q 3116 2381 2855 2742 
Q 2594 3103 2138 3103 
Q 1681 3103 1420 2742 
Q 1159 2381 1159 1747 
Q 1159 1113 1420 752 
Q 1681 391 2138 391 
Q 2594 391 2855 752 
Q 3116 1113 3116 1747 
z
M 1159 2969 
Q 1341 3281 1617 3432 
Q 1894 3584 2278 3584 
Q 2916 3584 3314 3078 
Q 3713 2572 3713 1747 
Q 3713 922 3314 415 
Q 2916 -91 2278 -91 
Q 1894 -91 1617 61 
Q 1341 213 1159 525 
L 1159 0 
L 581 0 
L 581 4863 
L 1159 4863 
L 1159 2969 
z
" transform="scale(0.015625)"/>
       <path id="DejaVuSans-64" d="M 2906 2969 
L 2906 4863 
L 3481 4863 
L 3481 0 
L 2906 0 
L 2906 525 
Q 2725 213 2448 61 
Q 2172 -91 1784 -91 
Q 1150 -91 751 415 
Q 353 922 353 1747 
Q 353 2572 751 3078 
Q 1150 3584 1784 3584 
Q 2172 3584 2448 3432 
Q 2725 3281 2906 2969 
z
M 947 1747 
Q 947 1113 1208 752 
Q 1469 391 1925 391 
Q 2381 391 2643 752 
Q 2906 1113 2906 1747 
Q 2906 2381 2643 2742 
Q 2381 3103 1925 3103 
Q 1469 3103 1208 2742 
Q 947 2381 947 1747 
z
" transform="scale(0.015625)"/>
       <path id="DejaVuSans-61" d="M 2194 1759 
Q 1497 1759 1228 1600 
Q 959 1441 959 1056 
Q 959 750 1161 570 
Q 1363 391 1709 391 
Q 2188 391 2477 730 
Q 2766 1069 2766 1631 
L 2766 1759 
L 2194 1759 
z
M 3341 1997 
L 3341 0 
L 2766 0 
L 2766 531 
Q 2569 213 2275 61 
Q 1981 -91 1556 -91 
Q 1019 -91 701 211 
Q 384 513 384 1019 
Q 384 1609 779 1909 
Q 1175 2209 1959 2209 
L 2766 2209 
L 2766 2266 
Q 2766 2663 2505 2880 
Q 2244 3097 1772 3097 
Q 1472 3097 1187 3025 
Q 903 2953 641 2809 
L 641 3341 
Q 956 3463 1253 3523 
Q 1550 3584 1831 3584 
Q 2591 3584 2966 3190 
Q 3341 2797 3341 1997 
z
" transform="scale(0.015625)"/>
      </defs>
      <use xlink:href="#DejaVuSans-57"/>
      <use xlink:href="#DejaVuSans-e4" transform="translate(92.501953 0)"/>
      <use xlink:href="#DejaVuSans-72" transform="translate(153.78125 0)"/>
      <use xlink:href="#DejaVuSans-6d" transform="translate(193.144531 0)"/>
      <use xlink:href="#DejaVuSans-65" transform="translate(290.556641 0)"/>
      <use xlink:href="#DejaVuSans-62" transform="translate(352.080078 0)"/>
      <use xlink:href="#DejaVuSans-65" transform="translate(415.556641 0)"/>
      <use xlink:href="#DejaVuSans-64" transform="translate(477.080078 0)"/>
      <use xlink:href="#DejaVuSans-61" transform="translate(540.556641 0)"/>
      <use xlink:href="#DejaVuSans-72" transform="translate(601.835938 0)"/>
      <use xlink:href="#DejaVuSans-66" transform="translate(642.949219 0)"/>
     </g>
    </g>
    <g id="line2d_26">
     <path d="M 50.6 58.514219 
L 61.6 58.514219 
L 72.6 58.514219 
" style="fill: none; stroke: #ff0000; stroke-width: 1.5; stroke-linecap: square"/>
    </g>
    <g id="text_15">
     <!-- PtH Erzeugung -->
     <g transform="translate(81.4 62.364219) scale(0.11 -0.11)">
      <defs>
       <path id="DejaVuSans-48" d="M 628 4666 
L 1259 4666 
L 1259 2753 
L 3553 2753 
L 3553 4666 
L 4184 4666 
L 4184 0 
L 3553 0 
L 3553 2222 
L 1259 2222 
L 1259 0 
L 628 0 
L 628 4666 
z
" transform="scale(0.015625)"/>
       <path id="DejaVuSans-45" d="M 628 4666 
L 3578 4666 
L 3578 4134 
L 1259 4134 
L 1259 2753 
L 3481 2753 
L 3481 2222 
L 1259 2222 
L 1259 531 
L 3634 531 
L 3634 0 
L 628 0 
L 628 4666 
z
" transform="scale(0.015625)"/>
       <path id="DejaVuSans-7a" d="M 353 3500 
L 3084 3500 
L 3084 2975 
L 922 459 
L 3084 459 
L 3084 0 
L 275 0 
L 275 525 
L 2438 3041 
L 353 3041 
L 353 3500 
z
" transform="scale(0.015625)"/>
      </defs>
      <use xlink:href="#DejaVuSans-50"/>
      <use xlink:href="#DejaVuSans-74" transform="translate(60.302734 0)"/>
      <use xlink:href="#DejaVuSans-48" transform="translate(99.511719 0)"/>
      <use xlink:href="#DejaVuSans-20" transform="translate(174.707031 0)"/>
      <use xlink:href="#DejaVuSans-45" transform="translate(206.494141 0)"/>
      <use xlink:href="#DejaVuSans-72" transform="translate(269.677734 0)"/>
      <use xlink:href="#DejaVuSans-7a" transform="translate(310.791016 0)"/>
      <use xlink:href="#DejaVuSans-65" transform="translate(363.28125 0)"/>
      <use xlink:href="#DejaVuSans-75" transform="translate(424.804688 0)"/>
      <use xlink:href="#DejaVuSans-67" transform="translate(488.183594 0)"/>
      <use xlink:href="#DejaVuSans-75" transform="translate(551.660156 0)"/>
      <use xlink:href="#DejaVuSans-6e" transform="translate(615.039062 0)"/>
      <use xlink:href="#DejaVuSans-67" transform="translate(678.417969 0)"/>
     </g>
    </g>
   </g>
  </g>
  <g id="axes_2">
   <g id="matplotlib.axis_3">
    <g id="ytick_7">
     <g id="line2d_27">
      <path d="M 40.7 385.303636 
L 672.46 385.303636 
" clip-path="url(#p7c98e80e9c)" style="fill: none; stroke: #b0b0b0; stroke-opacity: 0.5; stroke-width: 0.8; stroke-linecap: square"/>
     </g>
     <g id="line2d_28">
      <defs>
       <path id="mdf446fdff6" d="M 0 0 
L 3.5 0 
" style="stroke: #000000; stroke-width: 0.8"/>
      </defs>
      <g>
       <use xlink:href="#mdf446fdff6" x="672.46" y="385.303636" style="stroke: #000000; stroke-width: 0.8"/>
      </g>
     </g>
     <g id="text_16">
      <!-- 0 -->
      <g transform="translate(679.46 389.482777) scale(0.11 -0.11)">
       <use xlink:href="#DejaVuSans-30"/>
      </g>
     </g>
    </g>
    <g id="ytick_8">
     <g id="line2d_29">
      <path d="M 40.7 339.926667 
L 672.46 339.926667 
" clip-path="url(#p7c98e80e9c)" style="fill: none; stroke: #b0b0b0; stroke-opacity: 0.5; stroke-width: 0.8; stroke-linecap: square"/>
     </g>
     <g id="line2d_30">
      <g>
       <use xlink:href="#mdf446fdff6" x="672.46" y="339.926667" style="stroke: #000000; stroke-width: 0.8"/>
      </g>
     </g>
     <g id="text_17">
      <!-- 2 -->
      <g transform="translate(679.46 344.105807) scale(0.11 -0.11)">
       <use xlink:href="#DejaVuSans-32"/>
      </g>
     </g>
    </g>
    <g id="ytick_9">
     <g id="line2d_31">
      <path d="M 40.7 294.549697 
L 672.46 294.549697 
" clip-path="url(#p7c98e80e9c)" style="fill: none; stroke: #b0b0b0; stroke-opacity: 0.5; stroke-width: 0.8; stroke-linecap: square"/>
     </g>
     <g id="line2d_32">
      <g>
       <use xlink:href="#mdf446fdff6" x="672.46" y="294.549697" style="stroke: #000000; stroke-width: 0.8"/>
      </g>
     </g>
     <g id="text_18">
      <!-- 4 -->
      <g transform="translate(679.46 298.728838) scale(0.11 -0.11)">
       <use xlink:href="#DejaVuSans-34"/>
      </g>
     </g>
    </g>
    <g id="ytick_10">
     <g id="line2d_33">
      <path d="M 40.7 249.172727 
L 672.46 249.172727 
" clip-path="url(#p7c98e80e9c)" style="fill: none; stroke: #b0b0b0; stroke-opacity: 0.5; stroke-width: 0.8; stroke-linecap: square"/>
     </g>
     <g id="line2d_34">
      <g>
       <use xlink:href="#mdf446fdff6" x="672.46" y="249.172727" style="stroke: #000000; stroke-width: 0.8"/>
      </g>
     </g>
     <g id="text_19">
      <!-- 6 -->
      <g transform="translate(679.46 253.351868) scale(0.11 -0.11)">
       <defs>
        <path id="DejaVuSans-36" d="M 2113 2584 
Q 1688 2584 1439 2293 
Q 1191 2003 1191 1497 
Q 1191 994 1439 701 
Q 1688 409 2113 409 
Q 2538 409 2786 701 
Q 3034 994 3034 1497 
Q 3034 2003 2786 2293 
Q 2538 2584 2113 2584 
z
M 3366 4563 
L 3366 3988 
Q 3128 4100 2886 4159 
Q 2644 4219 2406 4219 
Q 1781 4219 1451 3797 
Q 1122 3375 1075 2522 
Q 1259 2794 1537 2939 
Q 1816 3084 2150 3084 
Q 2853 3084 3261 2657 
Q 3669 2231 3669 1497 
Q 3669 778 3244 343 
Q 2819 -91 2113 -91 
Q 1303 -91 875 529 
Q 447 1150 447 2328 
Q 447 3434 972 4092 
Q 1497 4750 2381 4750 
Q 2619 4750 2861 4703 
Q 3103 4656 3366 4563 
z
" transform="scale(0.015625)"/>
       </defs>
       <use xlink:href="#DejaVuSans-36"/>
      </g>
     </g>
    </g>
    <g id="ytick_11">
     <g id="line2d_35">
      <path d="M 40.7 203.795758 
L 672.46 203.795758 
" clip-path="url(#p7c98e80e9c)" style="fill: none; stroke: #b0b0b0; stroke-opacity: 0.5; stroke-width: 0.8; stroke-linecap: square"/>
     </g>
     <g id="line2d_36">
      <g>
       <use xlink:href="#mdf446fdff6" x="672.46" y="203.795758" style="stroke: #000000; stroke-width: 0.8"/>
      </g>
     </g>
     <g id="text_20">
      <!-- 8 -->
      <g transform="translate(679.46 207.974898) scale(0.11 -0.11)">
       <defs>
        <path id="DejaVuSans-38" d="M 2034 2216 
Q 1584 2216 1326 1975 
Q 1069 1734 1069 1313 
Q 1069 891 1326 650 
Q 1584 409 2034 409 
Q 2484 409 2743 651 
Q 3003 894 3003 1313 
Q 3003 1734 2745 1975 
Q 2488 2216 2034 2216 
z
M 1403 2484 
Q 997 2584 770 2862 
Q 544 3141 544 3541 
Q 544 4100 942 4425 
Q 1341 4750 2034 4750 
Q 2731 4750 3128 4425 
Q 3525 4100 3525 3541 
Q 3525 3141 3298 2862 
Q 3072 2584 2669 2484 
Q 3125 2378 3379 2068 
Q 3634 1759 3634 1313 
Q 3634 634 3220 271 
Q 2806 -91 2034 -91 
Q 1263 -91 848 271 
Q 434 634 434 1313 
Q 434 1759 690 2068 
Q 947 2378 1403 2484 
z
M 1172 3481 
Q 1172 3119 1398 2916 
Q 1625 2713 2034 2713 
Q 2441 2713 2670 2916 
Q 2900 3119 2900 3481 
Q 2900 3844 2670 4047 
Q 2441 4250 2034 4250 
Q 1625 4250 1398 4047 
Q 1172 3844 1172 3481 
z
" transform="scale(0.015625)"/>
       </defs>
       <use xlink:href="#DejaVuSans-38"/>
      </g>
     </g>
    </g>
    <g id="ytick_12">
     <g id="line2d_37">
      <path d="M 40.7 158.418788 
L 672.46 158.418788 
" clip-path="url(#p7c98e80e9c)" style="fill: none; stroke: #b0b0b0; stroke-opacity: 0.5; stroke-width: 0.8; stroke-linecap: square"/>
     </g>
     <g id="line2d_38">
      <g>
       <use xlink:href="#mdf446fdff6" x="672.46" y="158.418788" style="stroke: #000000; stroke-width: 0.8"/>
      </g>
     </g>
     <g id="text_21">
      <!-- 10 -->
      <g transform="translate(679.46 162.597929) scale(0.11 -0.11)">
       <use xlink:href="#DejaVuSans-31"/>
       <use xlink:href="#DejaVuSans-30" transform="translate(63.623047 0)"/>
      </g>
     </g>
    </g>
    <g id="ytick_13">
     <g id="line2d_39">
      <path d="M 40.7 113.041818 
L 672.46 113.041818 
" clip-path="url(#p7c98e80e9c)" style="fill: none; stroke: #b0b0b0; stroke-opacity: 0.5; stroke-width: 0.8; stroke-linecap: square"/>
     </g>
     <g id="line2d_40">
      <g>
       <use xlink:href="#mdf446fdff6" x="672.46" y="113.041818" style="stroke: #000000; stroke-width: 0.8"/>
      </g>
     </g>
     <g id="text_22">
      <!-- 12 -->
      <g transform="translate(679.46 117.220959) scale(0.11 -0.11)">
       <use xlink:href="#DejaVuSans-31"/>
       <use xlink:href="#DejaVuSans-32" transform="translate(63.623047 0)"/>
      </g>
     </g>
    </g>
    <g id="ytick_14">
     <g id="line2d_41">
      <path d="M 40.7 67.664848 
L 672.46 67.664848 
" clip-path="url(#p7c98e80e9c)" style="fill: none; stroke: #b0b0b0; stroke-opacity: 0.5; stroke-width: 0.8; stroke-linecap: square"/>
     </g>
     <g id="line2d_42">
      <g>
       <use xlink:href="#mdf446fdff6" x="672.46" y="67.664848" style="stroke: #000000; stroke-width: 0.8"/>
      </g>
     </g>
     <g id="text_23">
      <!-- 14 -->
      <g transform="translate(679.46 71.843989) scale(0.11 -0.11)">
       <use xlink:href="#DejaVuSans-31"/>
       <use xlink:href="#DejaVuSans-34" transform="translate(63.623047 0)"/>
      </g>
     </g>
    </g>
    <g id="text_24">
     <!-- Wärmespeicher [MWh] -->
     <g transform="translate(705.815781 277.637187) rotate(-90) scale(0.11 -0.11)">
      <defs>
       <path id="DejaVuSans-70" d="M 1159 525 
L 1159 -1331 
L 581 -1331 
L 581 3500 
L 1159 3500 
L 1159 2969 
Q 1341 3281 1617 3432 
Q 1894 3584 2278 3584 
Q 2916 3584 3314 3078 
Q 3713 2572 3713 1747 
Q 3713 922 3314 415 
Q 2916 -91 2278 -91 
Q 1894 -91 1617 61 
Q 1341 213 1159 525 
z
M 3116 1747 
Q 3116 2381 2855 2742 
Q 2594 3103 2138 3103 
Q 1681 3103 1420 2742 
Q 1159 2381 1159 1747 
Q 1159 1113 1420 752 
Q 1681 391 2138 391 
Q 2594 391 2855 752 
Q 3116 1113 3116 1747 
z
" transform="scale(0.015625)"/>
      </defs>
      <use xlink:href="#DejaVuSans-57"/>
      <use xlink:href="#DejaVuSans-e4" transform="translate(92.501953 0)"/>
      <use xlink:href="#DejaVuSans-72" transform="translate(153.78125 0)"/>
      <use xlink:href="#DejaVuSans-6d" transform="translate(193.144531 0)"/>
      <use xlink:href="#DejaVuSans-65" transform="translate(290.556641 0)"/>
      <use xlink:href="#DejaVuSans-73" transform="translate(352.080078 0)"/>
      <use xlink:href="#DejaVuSans-70" transform="translate(404.179688 0)"/>
      <use xlink:href="#DejaVuSans-65" transform="translate(467.65625 0)"/>
      <use xlink:href="#DejaVuSans-69" transform="translate(529.179688 0)"/>
      <use xlink:href="#DejaVuSans-63" transform="translate(556.962891 0)"/>
      <use xlink:href="#DejaVuSans-68" transform="translate(611.943359 0)"/>
      <use xlink:href="#DejaVuSans-65" transform="translate(675.322266 0)"/>
      <use xlink:href="#DejaVuSans-72" transform="translate(736.845703 0)"/>
      <use xlink:href="#DejaVuSans-20" transform="translate(777.958984 0)"/>
      <use xlink:href="#DejaVuSans-5b" transform="translate(809.746094 0)"/>
      <use xlink:href="#DejaVuSans-4d" transform="translate(848.759766 0)"/>
      <use xlink:href="#DejaVuSans-57" transform="translate(935.039062 0)"/>
      <use xlink:href="#DejaVuSans-68" transform="translate(1033.916016 0)"/>
      <use xlink:href="#DejaVuSans-5d" transform="translate(1097.294922 0)"/>
     </g>
    </g>
   </g>
   <g id="line2d_43">
    <path d="M 69.416364 317.238182 
L 73.915011 377.595234 
L 75.41456 369.038918 
L 76.914109 385.303636 
L 79.913207 385.303636 
L 81.412756 376.47261 
L 82.912305 366.2602 
L 84.411854 358.269342 
L 85.911403 375.394032 
L 87.410952 365.139557 
L 88.910501 380.765338 
L 90.41005 385.303636 
L 91.909599 385.303636 
L 93.409148 371.446088 
L 94.908697 353.069598 
L 99.407344 303.10135 
L 103.905991 248.983548 
L 106.905089 211.720993 
L 111.403736 152.877942 
L 117.401932 79.724232 
L 120.40103 104.946567 
L 121.900579 115.839263 
L 123.400128 99.089534 
L 126.399226 131.771503 
L 127.898775 120.102293 
L 129.398324 106.866648 
L 130.897873 124.380842 
L 132.397422 114.642854 
L 133.896971 101.526096 
L 135.39652 90.772617 
L 136.896069 84.071141 
L 138.395618 75.353772 
L 139.895167 68.03973 
L 141.394716 57.9699 
L 142.894265 53.3407 
L 144.393814 44.976364 
L 147.392912 44.976364 
L 150.39201 61.196203 
L 151.891559 54.064713 
L 153.391108 45.834737 
L 154.890657 44.976364 
L 156.390207 47.68437 
L 157.889756 52.722689 
L 159.389305 59.640362 
L 160.888854 46.648777 
L 162.388403 46.860756 
L 165.387501 44.976364 
L 166.88705 44.976364 
L 168.386599 46.117027 
L 169.886148 48.96205 
L 171.385697 50.263484 
L 172.885246 48.574462 
L 174.384795 48.173602 
L 175.884344 50.02673 
L 177.383893 48.723435 
L 178.883442 49.852664 
L 180.382991 49.621173 
L 181.88254 49.582534 
L 183.382089 49.112815 
L 184.881638 47.455126 
L 186.381187 47.759016 
L 187.880736 45.9178 
L 189.380285 44.976364 
L 190.879834 56.971176 
L 192.379383 70.794385 
L 195.378481 94.270795 
L 198.377579 124.507648 
L 201.376677 152.092626 
L 204.375775 187.347868 
L 208.874422 242.866635 
L 210.373971 264.3506 
L 213.373069 303.654654 
L 219.371265 277.07258 
L 223.869912 253.125896 
L 225.369461 246.237166 
L 231.367657 203.160367 
L 232.867206 189.951342 
L 234.366755 177.789527 
L 237.365853 150.469514 
L 238.865402 134.407269 
L 240.364951 117.024963 
L 241.8645 101.273687 
L 243.364049 103.109185 
L 244.863598 83.586765 
L 246.363147 85.316626 
L 247.862696 67.074698 
L 249.362245 69.134972 
L 250.861794 50.614316 
L 252.361343 46.194645 
L 253.860892 44.976364 
L 255.360441 45.555782 
L 256.859991 47.919627 
L 258.35954 52.32201 
L 259.859089 54.270792 
L 261.358638 55.074441 
L 262.858187 56.394707 
L 264.357736 57.077902 
L 265.857285 58.793265 
L 267.356834 44.976364 
L 268.856383 50.087376 
L 270.355932 54.268886 
L 271.855481 59.287897 
L 273.35503 47.059008 
L 274.854579 55.87716 
L 276.354128 62.620472 
L 277.853677 54.50319 
L 279.353226 44.976364 
L 282.352324 62.876081 
L 283.851873 70.149555 
L 285.351422 61.802167 
L 286.850971 56.145315 
L 288.35052 49.4722 
L 289.850069 44.976364 
L 291.349618 56.033687 
L 292.849167 50.965216 
L 294.348716 44.976364 
L 295.848265 44.976364 
L 297.347814 66.758738 
L 300.346912 45.871084 
L 303.34601 83.437452 
L 307.844657 132.89937 
L 309.344206 149.447466 
L 310.843755 162.089746 
L 312.343304 172.01435 
L 313.842853 185.254873 
L 316.841951 206.839114 
L 321.340598 234.033784 
L 322.840147 242.102065 
L 324.339696 248.975496 
L 325.839245 261.030294 
L 328.838343 277.522307 
L 334.836539 320.556193 
L 336.336088 333.04927 
L 339.335186 301.784209 
L 340.834735 316.304762 
L 342.334284 316.855273 
L 343.833833 332.807065 
L 345.333382 319.483954 
L 346.832931 339.33979 
L 349.832029 373.86297 
L 351.331578 363.650393 
L 352.831127 385.303636 
L 355.830225 385.303636 
L 357.329775 377.896426 
L 358.829324 383.329529 
L 360.328873 374.551259 
L 361.828422 379.593537 
L 363.327971 373.734684 
L 366.327069 385.303636 
L 367.826618 385.303636 
L 369.326167 377.721812 
L 370.825716 381.974888 
L 372.325265 377.978299 
L 375.324363 358.397131 
L 379.82301 317.979598 
L 381.322559 303.520944 
L 382.822108 287.644729 
L 384.321657 270.136032 
L 385.821206 283.061487 
L 387.320755 292.885088 
L 390.319853 258.973928 
L 391.819402 267.954309 
L 394.8185 230.797351 
L 396.318049 240.131411 
L 397.817598 248.570382 
L 400.816696 263.803755 
L 402.316245 272.832316 
L 403.815794 281.065871 
L 405.315343 291.776806 
L 406.814892 305.60379 
L 409.81399 325.311537 
L 411.313539 336.64416 
L 414.312637 366.437737 
L 415.812186 379.809127 
L 417.311735 366.449878 
L 418.811284 385.303636 
L 420.310833 385.303636 
L 423.309931 365.217501 
L 424.80948 364.705808 
L 426.309029 385.303636 
L 427.808578 375.979308 
L 429.308127 381.460524 
L 430.807676 375.752005 
L 432.307225 367.881136 
L 433.806774 361.264397 
L 438.305421 339.087987 
L 439.80497 333.112791 
L 441.304519 325.53745 
L 442.804068 315.664951 
L 444.303617 303.260117 
L 447.302715 282.576863 
L 448.802264 270.411901 
L 450.301813 256.746985 
L 451.801362 244.484111 
L 453.300911 230.548383 
L 454.80046 242.469024 
L 457.799559 268.296758 
L 460.798657 290.951657 
L 463.797755 310.952857 
L 465.297304 321.806742 
L 466.796853 331.183875 
L 468.296402 338.251487 
L 469.795951 346.817141 
L 471.2955 354.267702 
L 472.795049 365.89969 
L 475.794147 385.303636 
L 477.293696 366.758176 
L 478.793245 375.450836 
L 480.292794 385.303636 
L 481.792343 385.303636 
L 483.291892 374.449976 
L 484.791441 385.303636 
L 486.29099 371.600627 
L 487.790539 384.933315 
L 489.290088 370.561648 
L 490.789637 385.303636 
L 492.289186 378.640764 
L 493.788735 369.688867 
L 495.288284 357.89832 
L 496.787833 349.881031 
L 499.786931 332.284663 
L 502.786029 315.192944 
L 504.285578 308.804375 
L 505.785127 300.561399 
L 510.283774 278.813359 
L 511.783323 270.635287 
L 513.282872 265.150069 
L 514.782421 255.185775 
L 516.28197 246.525671 
L 517.781519 232.310239 
L 519.281068 222.989324 
L 520.780617 211.611659 
L 522.280166 199.230095 
L 523.779715 188.095052 
L 525.279264 175.838042 
L 526.778813 159.562233 
L 534.276558 71.169403 
L 535.776107 80.415437 
L 537.275656 91.864613 
L 538.775205 72.230293 
L 540.274754 82.796616 
L 543.273852 98.720052 
L 544.773401 107.956013 
L 546.27295 115.333491 
L 549.272048 134.832293 
L 550.771597 131.356281 
L 552.271146 130.051897 
L 553.770695 125.694029 
L 555.270244 124.166776 
L 556.769793 125.316039 
L 558.269343 125.173101 
L 559.768892 126.522749 
L 561.268441 112.600618 
L 562.76799 115.703654 
L 564.267539 119.956678 
L 565.767088 110.649227 
L 567.266637 102.761688 
L 570.265735 91.313329 
L 573.264833 76.48865 
L 574.764382 70.568294 
L 576.263931 65.372858 
L 579.263029 52.288114 
L 580.762578 44.976364 
L 582.262127 44.976364 
L 583.761676 45.141377 
L 585.261225 64.23857 
L 586.760774 53.193316 
L 588.260323 44.976364 
L 589.759872 64.23199 
L 591.259421 81.432471 
L 592.75897 71.56838 
L 597.257617 117.647354 
L 600.256715 139.36645 
L 601.756264 153.041935 
L 603.255813 168.502243 
L 604.755362 178.108434 
L 606.254911 188.742619 
L 607.75446 200.357486 
L 609.254009 208.678102 
L 610.753558 217.918908 
L 612.253107 225.022861 
L 613.752656 234.489967 
L 616.751754 251.65031 
L 618.251303 261.901902 
L 619.750852 270.239734 
L 621.250401 253.372865 
L 624.249499 275.173513 
L 627.248597 298.666879 
L 628.748146 311.251857 
L 631.747244 339.180694 
L 633.246793 324.047021 
L 636.245891 360.624673 
L 639.244989 341.062981 
L 640.744538 334.30009 
L 642.244087 324.858718 
L 643.743636 317.238182 
L 643.743636 317.238182 
" clip-path="url(#p7c98e80e9c)" style="fill: none; stroke-dasharray: 1.5,2.475; stroke-dashoffset: 0; stroke: #800080; stroke-width: 1.5"/>
   </g>
   <g id="patch_8">
    <path d="M 40.7 402.32 
L 40.7 27.96 
" style="fill: none; stroke: #000000; stroke-width: 0.8; stroke-linejoin: miter; stroke-linecap: square"/>
   </g>
   <g id="patch_9">
    <path d="M 672.46 402.32 
L 672.46 27.96 
" style="fill: none; stroke: #000000; stroke-width: 0.8; stroke-linejoin: miter; stroke-linecap: square"/>
   </g>
   <g id="patch_10">
    <path d="M 40.7 402.32 
L 672.46 402.32 
" style="fill: none; stroke: #000000; stroke-width: 0.8; stroke-linejoin: miter; stroke-linecap: square"/>
   </g>
   <g id="patch_11">
    <path d="M 40.7 27.96 
L 672.46 27.96 
" style="fill: none; stroke: #000000; stroke-width: 0.8; stroke-linejoin: miter; stroke-linecap: square"/>
   </g>
   <g id="legend_2">
    <g id="patch_12">
     <path d="M 582.088125 52.905937 
L 664.76 52.905937 
Q 666.96 52.905937 666.96 50.705938 
L 666.96 35.66 
Q 666.96 33.46 664.76 33.46 
L 582.088125 33.46 
Q 579.888125 33.46 579.888125 35.66 
L 579.888125 50.705938 
Q 579.888125 52.905937 582.088125 52.905937 
z
" style="fill: #ffffff; opacity: 0.8; stroke: #cccccc; stroke-linejoin: miter"/>
    </g>
    <g id="line2d_44">
     <path d="M 584.288125 42.368281 
L 595.288125 42.368281 
L 606.288125 42.368281 
" style="fill: none; stroke-dasharray: 1.5,2.475; stroke-dashoffset: 0; stroke: #800080; stroke-width: 1.5"/>
    </g>
    <g id="text_25">
     <!-- TES SOC -->
     <g transform="translate(615.088125 46.218281) scale(0.11 -0.11)">
      <defs>
       <path id="DejaVuSans-53" d="M 3425 4513 
L 3425 3897 
Q 3066 4069 2747 4153 
Q 2428 4238 2131 4238 
Q 1616 4238 1336 4038 
Q 1056 3838 1056 3469 
Q 1056 3159 1242 3001 
Q 1428 2844 1947 2747 
L 2328 2669 
Q 3034 2534 3370 2195 
Q 3706 1856 3706 1288 
Q 3706 609 3251 259 
Q 2797 -91 1919 -91 
Q 1588 -91 1214 -16 
Q 841 59 441 206 
L 441 856 
Q 825 641 1194 531 
Q 1563 422 1919 422 
Q 2459 422 2753 634 
Q 3047 847 3047 1241 
Q 3047 1584 2836 1778 
Q 2625 1972 2144 2069 
L 1759 2144 
Q 1053 2284 737 2584 
Q 422 2884 422 3419 
Q 422 4038 858 4394 
Q 1294 4750 2059 4750 
Q 2388 4750 2728 4690 
Q 3069 4631 3425 4513 
z
" transform="scale(0.015625)"/>
       <path id="DejaVuSans-4f" d="M 2522 4238 
Q 1834 4238 1429 3725 
Q 1025 3213 1025 2328 
Q 1025 1447 1429 934 
Q 1834 422 2522 422 
Q 3209 422 3611 934 
Q 4013 1447 4013 2328 
Q 4013 3213 3611 3725 
Q 3209 4238 2522 4238 
z
M 2522 4750 
Q 3503 4750 4090 4092 
Q 4678 3434 4678 2328 
Q 4678 1225 4090 567 
Q 3503 -91 2522 -91 
Q 1538 -91 948 565 
Q 359 1222 359 2328 
Q 359 3434 948 4092 
Q 1538 4750 2522 4750 
z
" transform="scale(0.015625)"/>
       <path id="DejaVuSans-43" d="M 4122 4306 
L 4122 3641 
Q 3803 3938 3442 4084 
Q 3081 4231 2675 4231 
Q 1875 4231 1450 3742 
Q 1025 3253 1025 2328 
Q 1025 1406 1450 917 
Q 1875 428 2675 428 
Q 3081 428 3442 575 
Q 3803 722 4122 1019 
L 4122 359 
Q 3791 134 3420 21 
Q 3050 -91 2638 -91 
Q 1578 -91 968 557 
Q 359 1206 359 2328 
Q 359 3453 968 4101 
Q 1578 4750 2638 4750 
Q 3056 4750 3426 4639 
Q 3797 4528 4122 4306 
z
" transform="scale(0.015625)"/>
      </defs>
      <use xlink:href="#DejaVuSans-54"/>
      <use xlink:href="#DejaVuSans-45" transform="translate(61.083984 0)"/>
      <use xlink:href="#DejaVuSans-53" transform="translate(124.267578 0)"/>
      <use xlink:href="#DejaVuSans-20" transform="translate(187.744141 0)"/>
      <use xlink:href="#DejaVuSans-53" transform="translate(219.53125 0)"/>
      <use xlink:href="#DejaVuSans-4f" transform="translate(283.007812 0)"/>
      <use xlink:href="#DejaVuSans-43" transform="translate(361.71875 0)"/>
     </g>
    </g>
   </g>
  </g>
 </g>
 <defs>
  <clipPath id="p7c98e80e9c">
   <rect x="40.7" y="27.96" width="631.76" height="374.36"/>
  </clipPath>
 </defs>
</svg>
