<?xml version="1.0" encoding="utf-8" standalone="no"?>
<!DOCTYPE svg PUBLIC "-//W3C//DTD SVG 1.1//EN"
  "http://www.w3.org/Graphics/SVG/1.1/DTD/svg11.dtd">
<svg xmlns:xlink="http://www.w3.org/1999/xlink" width="636.688125pt" height="334.235875pt" viewBox="0 0 636.688125 334.235875" xmlns="http://www.w3.org/2000/svg" version="1.1">
 <metadata>
  <rdf:RDF xmlns:dc="http://purl.org/dc/elements/1.1/" xmlns:cc="http://creativecommons.org/ns#" xmlns:rdf="http://www.w3.org/1999/02/22-rdf-syntax-ns#">
   <cc:Work>
    <dc:type rdf:resource="http://purl.org/dc/dcmitype/StillImage"/>
    <dc:date>2026-01-02T19:53:09.331273</dc:date>
    <dc:format>image/svg+xml</dc:format>
    <dc:creator>
     <cc:Agent>
      <dc:title>Matplotlib v3.10.7, https://matplotlib.org/</dc:title>
     </cc:Agent>
    </dc:creator>
   </cc:Work>
  </rdf:RDF>
 </metadata>
 <defs>
  <style type="text/css">*{stroke-linejoin: round; stroke-linecap: butt}</style>
 </defs>
 <g id="figure_1">
  <g id="patch_1">
   <path d="M 0 334.235875 
L 636.688125 334.235875 
L 636.688125 0 
L 0 0 
z
" style="fill: #ffffff"/>
  </g>
  <g id="axes_1">
   <g id="patch_2">
    <path d="M 35.844688 309.389937 
L 593.844687 309.389937 
L 593.844687 32.189937 
L 35.844688 32.189937 
z
" style="fill: #ffffff"/>
   </g>
   <g id="matplotlib.axis_1">
    <g id="xtick_1">
     <g id="line2d_1">
      <path d="M 137.697615 309.389937 
L 137.697615 32.189937 
" clip-path="url(#p608aef7791)" style="fill: none; stroke: #b0b0b0; stroke-opacity: 0.5; stroke-width: 0.8; stroke-linecap: square"/>
     </g>
     <g id="line2d_2">
      <defs>
       <path id="m7a71c879eb" d="M 0 0 
L 0 3.5 
" style="stroke: #000000; stroke-width: 0.8"/>
      </defs>
      <g>
       <use xlink:href="#m7a71c879eb" x="137.697615" y="309.389937" style="stroke: #000000; stroke-width: 0.8"/>
      </g>
     </g>
     <g id="text_1">
      <text style="font-size: 11px; font-family: 'DejaVu Sans', 'Bitstream Vera Sans', 'Computer Modern Sans Serif', 'Lucida Grande', 'Verdana', 'Geneva', 'Lucid', 'Arial', 'Helvetica', 'Avant Garde', sans-serif; text-anchor: middle" x="137.697615" y="324.748219" transform="rotate(-0 137.697615 324.748219)">01.11.</text>
     </g>
    </g>
    <g id="xtick_2">
     <g id="line2d_3">
      <path d="M 239.683336 309.389937 
L 239.683336 32.189937 
" clip-path="url(#p608aef7791)" style="fill: none; stroke: #b0b0b0; stroke-opacity: 0.5; stroke-width: 0.8; stroke-linecap: square"/>
     </g>
     <g id="line2d_4">
      <g>
       <use xlink:href="#m7a71c879eb" x="239.683336" y="309.389937" style="stroke: #000000; stroke-width: 0.8"/>
      </g>
     </g>
     <g id="text_2">
      <text style="font-size: 11px; font-family: 'DejaVu Sans', 'Bitstream Vera Sans', 'Computer Modern Sans Serif', 'Lucida Grande', 'Verdana', 'Geneva', 'Lucid', 'Arial', 'Helvetica', 'Avant Garde', sans-serif; text-anchor: middle" x="239.683336" y="324.748219" transform="rotate(-0 239.683336 324.748219)">02.11.</text>
     </g>
    </g>
    <g id="xtick_3">
     <g id="line2d_5">
      <path d="M 341.669057 309.389937 
L 341.669057 32.189937 
" clip-path="url(#p608aef7791)" style="fill: none; stroke: #b0b0b0; stroke-opacity: 0.5; stroke-width: 0.8; stroke-linecap: square"/>
     </g>
     <g id="line2d_6">
      <g>
       <use xlink:href="#m7a71c879eb" x="341.669057" y="309.389937" style="stroke: #000000; stroke-width: 0.8"/>
      </g>
     </g>
     <g id="text_3">
      <text style="font-size: 11px; font-family: 'DejaVu Sans', 'Bitstream Vera Sans', 'Computer Modern Sans Serif', 'Lucida Grande', 'Verdana', 'Geneva', 'Lucid', 'Arial', 'Helvetica', 'Avant Garde', sans-serif; text-anchor: middle" x="341.669057" y="324.748219" transform="rotate(-0 341.669057 324.748219)">03.11.</text>
     </g>
    </g>
    <g id="xtick_4">
     <g id="line2d_7">
      <path d="M 443.654778 309.389937 
L 443.654778 32.189937 
" clip-path="url(#p608aef7791)" style="fill: none; stroke: #b0b0b0; stroke-opacity: 0.5; stroke-width: 0.8; stroke-linecap: square"/>
     </g>
     <g id="line2d_8">
      <g>
       <use xlink:href="#m7a71c879eb" x="443.654778" y="309.389937" style="stroke: #000000; stroke-width: 0.8"/>
      </g>
     </g>
     <g id="text_4">
      <text style="font-size: 11px; font-family: 'DejaVu Sans', 'Bitstream Vera Sans', 'Computer Modern Sans Serif', 'Lucida Grande', 'Verdana', 'Geneva', 'Lucid', 'Arial', 'Helvetica', 'Avant Garde', sans-serif; text-anchor: middle" x="443.654778" y="324.748219" transform="rotate(-0 443.654778 324.748219)">04.11.</text>
     </g>
    </g>
    <g id="xtick_5">
     <g id="line2d_9">
      <path d="M 545.640499 309.389937 
L 545.640499 32.189937 
" clip-path="url(#p608aef7791)" style="fill: none; stroke: #b0b0b0; stroke-opacity: 0.5; stroke-width: 0.8; stroke-linecap: square"/>
     </g>
     <g id="line2d_10">
      <g>
       <use xlink:href="#m7a71c879eb" x="545.640499" y="309.389937" style="stroke: #000000; stroke-width: 0.8"/>
      </g>
     </g>
     <g id="text_5">
      <text style="font-size: 11px; font-family: 'DejaVu Sans', 'Bitstream Vera Sans', 'Computer Modern Sans Serif', 'Lucida Grande', 'Verdana', 'Geneva', 'Lucid', 'Arial', 'Helvetica', 'Avant Garde', sans-serif; text-anchor: middle" x="545.640499" y="324.748219" transform="rotate(-0 545.640499 324.748219)">04.11.</text>
     </g>
    </g>
   </g>
   <g id="matplotlib.axis_2">
    <g id="ytick_1">
     <g id="line2d_11">
      <path d="M 35.844688 295.499284 
L 593.844687 295.499284 
" clip-path="url(#p608aef7791)" style="fill: none; stroke: #b0b0b0; stroke-opacity: 0.5; stroke-width: 0.8; stroke-linecap: square"/>
     </g>
     <g id="line2d_12">
      <defs>
       <path id="mbee20c8806" d="M 0 0 
L -3.5 0 
" style="stroke: #000000; stroke-width: 0.8"/>
      </defs>
      <g>
       <use xlink:href="#mbee20c8806" x="35.844688" y="295.499284" style="stroke: #000000; stroke-width: 0.8"/>
      </g>
     </g>
     <g id="text_6">
      <text style="font-size: 11px; font-family: 'DejaVu Sans', 'Bitstream Vera Sans', 'Computer Modern Sans Serif', 'Lucida Grande', 'Verdana', 'Geneva', 'Lucid', 'Arial', 'Helvetica', 'Avant Garde', sans-serif; text-anchor: end" x="28.844688" y="299.678425" transform="rotate(-0 28.844688 299.678425)">1</text>
     </g>
    </g>
    <g id="ytick_2">
     <g id="line2d_13">
      <path d="M 35.844688 263.232959 
L 593.844687 263.232959 
" clip-path="url(#p608aef7791)" style="fill: none; stroke: #b0b0b0; stroke-opacity: 0.5; stroke-width: 0.8; stroke-linecap: square"/>
     </g>
     <g id="line2d_14">
      <g>
       <use xlink:href="#mbee20c8806" x="35.844688" y="263.232959" style="stroke: #000000; stroke-width: 0.8"/>
      </g>
     </g>
     <g id="text_7">
      <text style="font-size: 11px; font-family: 'DejaVu Sans', 'Bitstream Vera Sans', 'Computer Modern Sans Serif', 'Lucida Grande', 'Verdana', 'Geneva', 'Lucid', 'Arial', 'Helvetica', 'Avant Garde', sans-serif; text-anchor: end" x="28.844688" y="267.4121" transform="rotate(-0 28.844688 267.4121)">2</text>
     </g>
    </g>
    <g id="ytick_3">
     <g id="line2d_15">
      <path d="M 35.844688 230.966634 
L 593.844687 230.966634 
" clip-path="url(#p608aef7791)" style="fill: none; stroke: #b0b0b0; stroke-opacity: 0.5; stroke-width: 0.8; stroke-linecap: square"/>
     </g>
     <g id="line2d_16">
      <g>
       <use xlink:href="#mbee20c8806" x="35.844688" y="230.966634" style="stroke: #000000; stroke-width: 0.8"/>
      </g>
     </g>
     <g id="text_8">
      <text style="font-size: 11px; font-family: 'DejaVu Sans', 'Bitstream Vera Sans', 'Computer Modern Sans Serif', 'Lucida Grande', 'Verdana', 'Geneva', 'Lucid', 'Arial', 'Helvetica', 'Avant Garde', sans-serif; text-anchor: end" x="28.844688" y="235.145775" transform="rotate(-0 28.844688 235.145775)">3</text>
     </g>
    </g>
    <g id="ytick_4">
     <g id="line2d_17">
      <path d="M 35.844688 198.700309 
L 593.844687 198.700309 
" clip-path="url(#p608aef7791)" style="fill: none; stroke: #b0b0b0; stroke-opacity: 0.5; stroke-width: 0.8; stroke-linecap: square"/>
     </g>
     <g id="line2d_18">
      <g>
       <use xlink:href="#mbee20c8806" x="35.844688" y="198.700309" style="stroke: #000000; stroke-width: 0.8"/>
      </g>
     </g>
     <g id="text_9">
      <text style="font-size: 11px; font-family: 'DejaVu Sans', 'Bitstream Vera Sans', 'Computer Modern Sans Serif', 'Lucida Grande', 'Verdana', 'Geneva', 'Lucid', 'Arial', 'Helvetica', 'Avant Garde', sans-serif; text-anchor: end" x="28.844688" y="202.879449" transform="rotate(-0 28.844688 202.879449)">4</text>
     </g>
    </g>
    <g id="ytick_5">
     <g id="line2d_19">
      <path d="M 35.844688 166.433984 
L 593.844687 166.433984 
" clip-path="url(#p608aef7791)" style="fill: none; stroke: #b0b0b0; stroke-opacity: 0.5; stroke-width: 0.8; stroke-linecap: square"/>
     </g>
     <g id="line2d_20">
      <g>
       <use xlink:href="#mbee20c8806" x="35.844688" y="166.433984" style="stroke: #000000; stroke-width: 0.8"/>
      </g>
     </g>
     <g id="text_10">
      <text style="font-size: 11px; font-family: 'DejaVu Sans', 'Bitstream Vera Sans', 'Computer Modern Sans Serif', 'Lucida Grande', 'Verdana', 'Geneva', 'Lucid', 'Arial', 'Helvetica', 'Avant Garde', sans-serif; text-anchor: end" x="28.844688" y="170.613124" transform="rotate(-0 28.844688 170.613124)">5</text>
     </g>
    </g>
    <g id="ytick_6">
     <g id="line2d_21">
      <path d="M 35.844688 134.167658 
L 593.844687 134.167658 
" clip-path="url(#p608aef7791)" style="fill: none; stroke: #b0b0b0; stroke-opacity: 0.5; stroke-width: 0.8; stroke-linecap: square"/>
     </g>
     <g id="line2d_22">
      <g>
       <use xlink:href="#mbee20c8806" x="35.844688" y="134.167658" style="stroke: #000000; stroke-width: 0.8"/>
      </g>
     </g>
     <g id="text_11">
      <text style="font-size: 11px; font-family: 'DejaVu Sans', 'Bitstream Vera Sans', 'Computer Modern Sans Serif', 'Lucida Grande', 'Verdana', 'Geneva', 'Lucid', 'Arial', 'Helvetica', 'Avant Garde', sans-serif; text-anchor: end" x="28.844688" y="138.346799" transform="rotate(-0 28.844688 138.346799)">6</text>
     </g>
    </g>
    <g id="ytick_7">
     <g id="line2d_23">
      <path d="M 35.844688 101.901333 
L 593.844687 101.901333 
" clip-path="url(#p608aef7791)" style="fill: none; stroke: #b0b0b0; stroke-opacity: 0.5; stroke-width: 0.8; stroke-linecap: square"/>
     </g>
     <g id="line2d_24">
      <g>
       <use xlink:href="#mbee20c8806" x="35.844688" y="101.901333" style="stroke: #000000; stroke-width: 0.8"/>
      </g>
     </g>
     <g id="text_12">
      <text style="font-size: 11px; font-family: 'DejaVu Sans', 'Bitstream Vera Sans', 'Computer Modern Sans Serif', 'Lucida Grande', 'Verdana', 'Geneva', 'Lucid', 'Arial', 'Helvetica', 'Avant Garde', sans-serif; text-anchor: end" x="28.844688" y="106.080474" transform="rotate(-0 28.844688 106.080474)">7</text>
     </g>
    </g>
    <g id="ytick_8">
     <g id="line2d_25">
      <path d="M 35.844688 69.635008 
L 593.844687 69.635008 
" clip-path="url(#p608aef7791)" style="fill: none; stroke: #b0b0b0; stroke-opacity: 0.5; stroke-width: 0.8; stroke-linecap: square"/>
     </g>
     <g id="line2d_26">
      <g>
       <use xlink:href="#mbee20c8806" x="35.844688" y="69.635008" style="stroke: #000000; stroke-width: 0.8"/>
      </g>
     </g>
     <g id="text_13">
      <text style="font-size: 11px; font-family: 'DejaVu Sans', 'Bitstream Vera Sans', 'Computer Modern Sans Serif', 'Lucida Grande', 'Verdana', 'Geneva', 'Lucid', 'Arial', 'Helvetica', 'Avant Garde', sans-serif; text-anchor: end" x="28.844688" y="73.814149" transform="rotate(-0 28.844688 73.814149)">8</text>
     </g>
    </g>
    <g id="ytick_9">
     <g id="line2d_27">
      <path d="M 35.844688 37.368683 
L 593.844687 37.368683 
" clip-path="url(#p608aef7791)" style="fill: none; stroke: #b0b0b0; stroke-opacity: 0.5; stroke-width: 0.8; stroke-linecap: square"/>
     </g>
     <g id="line2d_28">
      <g>
       <use xlink:href="#mbee20c8806" x="35.844688" y="37.368683" style="stroke: #000000; stroke-width: 0.8"/>
      </g>
     </g>
     <g id="text_14">
      <text style="font-size: 11px; font-family: 'DejaVu Sans', 'Bitstream Vera Sans', 'Computer Modern Sans Serif', 'Lucida Grande', 'Verdana', 'Geneva', 'Lucid', 'Arial', 'Helvetica', 'Avant Garde', sans-serif; text-anchor: end" x="28.844688" y="41.547823" transform="rotate(-0 28.844688 41.547823)">9</text>
     </g>
    </g>
    <g id="text_15">
     <text style="font-size: 11px; font-family: 'DejaVu Sans', 'Bitstream Vera Sans', 'Computer Modern Sans Serif', 'Lucida Grande', 'Verdana', 'Geneva', 'Lucid', 'Arial', 'Helvetica', 'Avant Garde', sans-serif; text-anchor: middle" x="15.558281" y="170.789937" transform="rotate(-90 15.558281 170.789937)">Leistungspreis [€/MW]</text>
    </g>
   </g>
   <g id="line2d_29">
    <path d="M 61.208324 286.787377 
L 81.12741 286.787377 
L 82.455349 261.29698 
L 102.374435 261.29698 
L 103.702374 202.572268 
L 123.62146 202.572268 
L 124.9494 226.449349 
L 144.868486 226.449349 
L 146.196425 158.044739 
L 166.115511 158.044739 
L 167.44345 262.26497 
L 187.362536 262.26497 
L 188.690475 287.755366 
L 208.609561 287.755366 
L 209.9375 271.299541 
L 229.856587 271.299541 
L 231.184526 233.54794 
L 251.103612 233.54794 
L 252.431551 243.873164 
L 272.350637 243.873164 
L 273.678576 177.727197 
L 293.597662 177.727197 
L 294.925601 271.299541 
L 314.844687 271.299541 
L 316.172627 289.046019 
L 336.091713 289.046019 
L 337.419652 249.035776 
L 357.338738 249.035776 
L 358.666677 44.789937 
L 378.585763 44.789937 
L 379.913702 111.903894 
L 399.832788 111.903894 
L 401.160727 51.565866 
L 421.079814 51.565866 
L 422.407753 242.905174 
L 442.326839 242.905174 
L 443.654778 290.659336 
L 463.573864 290.659336 
L 464.901803 247.745123 
L 484.820889 247.745123 
L 486.148828 59.95511 
L 506.067915 59.95511 
L 507.395854 128.682383 
L 527.31494 128.682383 
L 528.642879 55.760488 
L 548.561965 55.760488 
L 549.889904 245.809144 
L 568.481051 245.809144 
L 568.481051 245.809144 
" clip-path="url(#p608aef7791)" style="fill: none; stroke-dasharray: 5.55,2.4; stroke-dashoffset: 0; stroke: #008000; stroke-width: 1.5"/>
   </g>
   <g id="line2d_30">
    <path d="M 61.208324 247.745123 
L 81.12741 247.745123 
L 82.455349 248.39045 
L 102.374435 248.39045 
L 103.702374 146.106199 
L 123.62146 146.106199 
L 124.9494 54.469835 
L 144.868486 54.469835 
L 146.196425 270.976877 
L 166.115511 270.976877 
L 167.44345 289.046019 
L 187.362536 289.046019 
L 188.690475 250.326429 
L 208.609561 250.326429 
L 209.9375 252.262409 
L 229.856587 252.262409 
L 231.184526 183.857799 
L 251.103612 183.857799 
L 252.431551 117.066506 
L 272.350637 117.066506 
L 273.678576 284.528734 
L 293.597662 284.528734 
L 294.925601 296.789937 
L 314.844687 296.789937 
L 316.172627 255.166378 
L 336.091713 255.166378 
L 337.419652 259.683663 
L 357.338738 259.683663 
L 358.666677 214.833471 
L 378.585763 214.833471 
L 379.913702 160.303382 
L 399.832788 160.303382 
L 401.160727 291.949989 
L 421.079814 291.949989 
L 422.407753 293.563305 
L 442.326839 293.563305 
L 443.654778 198.054982 
L 463.573864 198.054982 
L 464.901803 243.227838 
L 484.820889 243.227838 
L 486.148828 223.222716 
L 506.067915 223.222716 
L 507.395854 174.823228 
L 527.31494 174.823228 
L 528.642879 294.208631 
L 568.481051 294.208631 
L 568.481051 294.208631 
" clip-path="url(#p608aef7791)" style="fill: none; stroke-dasharray: 5.55,2.4; stroke-dashoffset: 0; stroke: #ff0000; stroke-width: 1.5"/>
   </g>
   <g id="patch_3">
    <path d="M 35.844688 309.389937 
L 35.844688 32.189937 
" style="fill: none; stroke: #000000; stroke-width: 0.8; stroke-linejoin: miter; stroke-linecap: square"/>
   </g>
   <g id="patch_4">
    <path d="M 593.844687 309.389937 
L 593.844687 32.189937 
" style="fill: none; stroke: #000000; stroke-width: 0.8; stroke-linejoin: miter; stroke-linecap: square"/>
   </g>
   <g id="patch_5">
    <path d="M 35.844688 309.389937 
L 593.844688 309.389937 
" style="fill: none; stroke: #000000; stroke-width: 0.8; stroke-linejoin: miter; stroke-linecap: square"/>
   </g>
   <g id="patch_6">
    <path d="M 35.844688 32.189937 
L 593.844688 32.189937 
" style="fill: none; stroke: #000000; stroke-width: 0.8; stroke-linejoin: miter; stroke-linecap: square"/>
   </g>
   <g id="legend_1">
    <g id="line2d_31">
     <path d="M 40.244688 16.108281 
L 51.244688 16.108281 
L 62.244688 16.108281 
" style="fill: none; stroke-dasharray: 5.55,2.4; stroke-dashoffset: 0; stroke: #ff0000; stroke-width: 1.5"/>
    </g>
    <g id="text_16">
     <text style="font-size: 11px; font-family: 'DejaVu Sans', 'Bitstream Vera Sans', 'Computer Modern Sans Serif', 'Lucida Grande', 'Verdana', 'Geneva', 'Lucid', 'Arial', 'Helvetica', 'Avant Garde', sans-serif; text-anchor: start" x="71.044688" y="19.958281" transform="rotate(-0 71.044688 19.958281)">Preis aFRR-</text>
    </g>
    <g id="line2d_32">
     <path d="M 190.786875 16.108281 
L 201.786875 16.108281 
L 212.786875 16.108281 
" style="fill: none; stroke-dasharray: 5.55,2.4; stroke-dashoffset: 0; stroke: #008000; stroke-width: 1.5"/>
    </g>
    <g id="text_17">
     <text style="font-size: 11px; font-family: 'DejaVu Sans', 'Bitstream Vera Sans', 'Computer Modern Sans Serif', 'Lucida Grande', 'Verdana', 'Geneva', 'Lucid', 'Arial', 'Helvetica', 'Avant Garde', sans-serif; text-anchor: start" x="221.586875" y="19.958281" transform="rotate(-0 221.586875 19.958281)">Preis aFRR+</text>
    </g>
    <g id="patch_7">
     <path d="M 347.018125 19.958281 
L 369.018125 19.958281 
L 369.018125 12.258281 
L 347.018125 12.258281 
z
" style="fill: #f08080; opacity: 0.5; stroke: #f08080; stroke-linejoin: miter"/>
    </g>
    <g id="text_18">
     <text style="font-size: 11px; font-family: 'DejaVu Sans', 'Bitstream Vera Sans', 'Computer Modern Sans Serif', 'Lucida Grande', 'Verdana', 'Geneva', 'Lucid', 'Arial', 'Helvetica', 'Avant Garde', sans-serif; text-anchor: start" x="377.818125" y="19.958281" transform="rotate(-0 377.818125 19.958281)">Res. aFRR-</text>
    </g>
    <g id="patch_8">
     <path d="M 494.433906 19.958281 
L 516.433906 19.958281 
L 516.433906 12.258281 
L 494.433906 12.258281 
z
" style="fill: #90ee90; opacity: 0.5; stroke: #90ee90; stroke-linejoin: miter"/>
    </g>
    <g id="text_19">
     <text style="font-size: 11px; font-family: 'DejaVu Sans', 'Bitstream Vera Sans', 'Computer Modern Sans Serif', 'Lucida Grande', 'Verdana', 'Geneva', 'Lucid', 'Arial', 'Helvetica', 'Avant Garde', sans-serif; text-anchor: start" x="525.233906" y="19.958281" transform="rotate(-0 525.233906 19.958281)">Res. aFRR+</text>
    </g>
   </g>
  </g>
  <g id="axes_2">
   <g id="FillBetweenPolyCollection_1">
    <path d="M 61.208324 309.389937 
L 61.208324 309.389937 
L 62.536263 309.389937 
L 63.864202 309.389937 
L 65.192141 309.389937 
L 66.52008 309.389937 
L 67.848019 309.389937 
L 69.175958 309.389937 
L 70.503897 309.389937 
L 71.831836 309.389937 
L 73.159776 309.389937 
L 74.487715 309.389937 
L 75.815654 309.389937 
L 77.143593 309.389937 
L 78.471532 309.389937 
L 79.799471 309.389937 
L 81.12741 309.389937 
L 82.455349 309.389937 
L 83.783288 309.389937 
L 85.111227 309.389937 
L 86.439166 309.389937 
L 87.767105 309.389937 
L 89.095044 309.389937 
L 90.422984 309.389937 
L 91.750923 309.389937 
L 93.078862 309.389937 
L 94.406801 309.389937 
L 95.73474 309.389937 
L 97.062679 309.389937 
L 98.390618 309.389937 
L 99.718557 309.389937 
L 101.046496 309.389937 
L 102.374435 309.389937 
L 103.702374 309.389937 
L 105.030313 309.389937 
L 106.358252 309.389937 
L 107.686192 309.389937 
L 109.014131 309.389937 
L 110.34207 309.389937 
L 111.670009 309.389937 
L 112.997948 309.389937 
L 114.325887 309.389937 
L 115.653826 309.389937 
L 116.981765 309.389937 
L 118.309704 309.389937 
L 119.637643 309.389937 
L 120.965582 309.389937 
L 122.293521 309.389937 
L 123.62146 309.389937 
L 124.9494 309.389937 
L 126.277339 309.389937 
L 127.605278 309.389937 
L 128.933217 309.389937 
L 130.261156 309.389937 
L 131.589095 309.389937 
L 132.917034 309.389937 
L 134.244973 309.389937 
L 135.572912 309.389937 
L 136.900851 309.389937 
L 138.22879 309.389937 
L 139.556729 309.389937 
L 140.884668 309.389937 
L 142.212608 309.389937 
L 143.540547 309.389937 
L 144.868486 309.389937 
L 146.196425 309.389937 
L 147.524364 309.389937 
L 148.852303 309.389937 
L 150.180242 309.389937 
L 151.508181 309.389937 
L 152.83612 309.389937 
L 154.164059 309.389937 
L 155.491998 309.389937 
L 156.819937 309.389937 
L 158.147876 309.389937 
L 159.475816 309.389937 
L 160.803755 309.389937 
L 162.131694 309.389937 
L 163.459633 309.389937 
L 164.787572 309.389937 
L 166.115511 309.389937 
L 167.44345 309.389937 
L 168.771389 309.389937 
L 170.099328 309.389937 
L 171.427267 309.389937 
L 172.755206 309.389937 
L 174.083145 309.389937 
L 175.411084 309.389937 
L 176.739024 309.389937 
L 178.066963 309.389937 
L 179.394902 309.389937 
L 180.722841 309.389937 
L 182.05078 309.389937 
L 183.378719 309.389937 
L 184.706658 309.389937 
L 186.034597 309.389937 
L 187.362536 309.389937 
L 188.690475 309.389937 
L 190.018414 309.389937 
L 191.346353 309.389937 
L 192.674292 309.389937 
L 194.002232 309.389937 
L 195.330171 309.389937 
L 196.65811 309.389937 
L 197.986049 309.389937 
L 199.313988 309.389937 
L 200.641927 309.389937 
L 201.969866 309.389937 
L 203.297805 309.389937 
L 204.625744 309.389937 
L 205.953683 309.389937 
L 207.281622 309.389937 
L 208.609561 309.389937 
L 209.9375 309.389937 
L 211.26544 309.389937 
L 212.593379 309.389937 
L 213.921318 309.389937 
L 215.249257 309.389937 
L 216.577196 309.389937 
L 217.905135 309.389937 
L 219.233074 309.389937 
L 220.561013 309.389937 
L 221.888952 309.389937 
L 223.216891 309.389937 
L 224.54483 309.389937 
L 225.872769 309.389937 
L 227.200708 309.389937 
L 228.528648 309.389937 
L 229.856587 309.389937 
L 231.184526 309.389937 
L 232.512465 309.389937 
L 233.840404 309.389937 
L 235.168343 309.389937 
L 236.496282 309.389937 
L 237.824221 309.389937 
L 239.15216 309.389937 
L 240.480099 309.389937 
L 241.808038 309.389937 
L 243.135977 309.389937 
L 244.463916 309.389937 
L 245.791856 309.389937 
L 247.119795 309.389937 
L 248.447734 309.389937 
L 249.775673 309.389937 
L 251.103612 309.389937 
L 252.431551 309.389937 
L 253.75949 309.389937 
L 255.087429 309.389937 
L 256.415368 309.389937 
L 257.743307 309.389937 
L 259.071246 309.389937 
L 260.399185 309.389937 
L 261.727124 309.389937 
L 263.055064 309.389937 
L 264.383003 309.389937 
L 265.710942 309.389937 
L 267.038881 309.389937 
L 268.36682 309.389937 
L 269.694759 309.389937 
L 271.022698 309.389937 
L 272.350637 309.389937 
L 273.678576 309.389937 
L 275.006515 309.389937 
L 276.334454 309.389937 
L 277.662393 309.389937 
L 278.990332 309.389937 
L 280.318272 309.389937 
L 281.646211 309.389937 
L 282.97415 309.389937 
L 284.302089 309.389937 
L 285.630028 309.389937 
L 286.957967 309.389937 
L 288.285906 309.389937 
L 289.613845 309.389937 
L 290.941784 309.389937 
L 292.269723 309.389937 
L 293.597662 309.389937 
L 294.925601 309.389937 
L 296.25354 309.389937 
L 297.58148 309.389937 
L 298.909419 309.389937 
L 300.237358 309.389937 
L 301.565297 309.389937 
L 302.893236 309.389937 
L 304.221175 309.389937 
L 305.549114 309.389937 
L 306.877053 309.389937 
L 308.204992 309.389937 
L 309.532931 309.389937 
L 310.86087 309.389937 
L 312.188809 309.389937 
L 313.516748 309.389937 
L 314.844687 309.389937 
L 316.172627 309.389937 
L 317.500566 309.389937 
L 318.828505 309.389937 
L 320.156444 309.389937 
L 321.484383 309.389937 
L 322.812322 309.389937 
L 324.140261 309.389937 
L 325.4682 309.389937 
L 326.796139 309.389937 
L 328.124078 309.389937 
L 329.452017 309.389937 
L 330.779956 309.389937 
L 332.107895 309.389937 
L 333.435835 309.389937 
L 334.763774 309.389937 
L 336.091713 309.389937 
L 337.419652 309.389937 
L 338.747591 309.389937 
L 340.07553 309.389937 
L 341.403469 309.389937 
L 342.731408 309.389937 
L 344.059347 309.389937 
L 345.387286 309.389937 
L 346.715225 309.389937 
L 348.043164 309.389937 
L 349.371103 309.389937 
L 350.699043 309.389937 
L 352.026982 309.389937 
L 353.354921 309.389937 
L 354.68286 309.389937 
L 356.010799 309.389937 
L 357.338738 309.389937 
L 358.666677 309.389937 
L 359.994616 309.389937 
L 361.322555 309.389937 
L 362.650494 309.389937 
L 363.978433 309.389937 
L 365.306372 309.389937 
L 366.634311 309.389937 
L 367.962251 309.389937 
L 369.29019 309.389937 
L 370.618129 309.389937 
L 371.946068 309.389937 
L 373.274007 309.389937 
L 374.601946 309.389937 
L 375.929885 309.389937 
L 377.257824 309.389937 
L 378.585763 309.389937 
L 379.913702 309.389937 
L 381.241641 309.389937 
L 382.56958 309.389937 
L 383.897519 309.389937 
L 385.225459 309.389937 
L 386.553398 309.389937 
L 387.881337 309.389937 
L 389.209276 309.389937 
L 390.537215 309.389937 
L 391.865154 309.389937 
L 393.193093 309.389937 
L 394.521032 309.389937 
L 395.848971 309.389937 
L 397.17691 309.389937 
L 398.504849 309.389937 
L 399.832788 309.389937 
L 401.160727 309.389937 
L 402.488667 309.389937 
L 403.816606 309.389937 
L 405.144545 309.389937 
L 406.472484 309.389937 
L 407.800423 309.389937 
L 409.128362 309.389937 
L 410.456301 309.389937 
L 411.78424 309.389937 
L 413.112179 309.389937 
L 414.440118 309.389937 
L 415.768057 309.389937 
L 417.095996 309.389937 
L 418.423935 309.389937 
L 419.751875 309.389937 
L 421.079814 309.389937 
L 422.407753 309.389937 
L 423.735692 309.389937 
L 425.063631 309.389937 
L 426.39157 309.389937 
L 427.719509 309.389937 
L 429.047448 309.389937 
L 430.375387 309.389937 
L 431.703326 309.389937 
L 433.031265 309.389937 
L 434.359204 309.389937 
L 435.687143 309.389937 
L 437.015083 309.389937 
L 438.343022 309.389937 
L 439.670961 309.389937 
L 440.9989 309.389937 
L 442.326839 309.389937 
L 443.654778 309.389937 
L 444.982717 309.389937 
L 446.310656 309.389937 
L 447.638595 309.389937 
L 448.966534 309.389937 
L 450.294473 309.389937 
L 451.622412 309.389937 
L 452.950351 309.389937 
L 454.278291 309.389937 
L 455.60623 309.389937 
L 456.934169 309.389937 
L 458.262108 309.389937 
L 459.590047 309.389937 
L 460.917986 309.389937 
L 462.245925 309.389937 
L 463.573864 309.389937 
L 464.901803 309.389937 
L 466.229742 309.389937 
L 467.557681 309.389937 
L 468.88562 309.389937 
L 470.213559 309.389937 
L 471.541499 309.389937 
L 472.869438 309.389937 
L 474.197377 309.389937 
L 475.525316 309.389937 
L 476.853255 309.389937 
L 478.181194 309.389937 
L 479.509133 309.389937 
L 480.837072 309.389937 
L 482.165011 309.389937 
L 483.49295 309.389937 
L 484.820889 309.389937 
L 486.148828 309.389937 
L 487.476767 309.389937 
L 488.804707 309.389937 
L 490.132646 309.389937 
L 491.460585 309.389937 
L 492.788524 309.389937 
L 494.116463 309.389937 
L 495.444402 309.389937 
L 496.772341 309.389937 
L 498.10028 309.389937 
L 499.428219 309.389937 
L 500.756158 309.389937 
L 502.084097 309.389937 
L 503.412036 309.389937 
L 504.739975 309.389937 
L 506.067915 309.389937 
L 507.395854 309.389937 
L 508.723793 309.389937 
L 510.051732 309.389937 
L 511.379671 309.389937 
L 512.70761 309.389937 
L 514.035549 309.389937 
L 515.363488 309.389937 
L 516.691427 309.389937 
L 518.019366 309.389937 
L 519.347305 309.389937 
L 520.675244 309.389937 
L 522.003183 309.389937 
L 523.331123 309.389937 
L 524.659062 309.389937 
L 525.987001 309.389937 
L 527.31494 309.389937 
L 528.642879 309.389937 
L 529.970818 309.389937 
L 531.298757 309.389937 
L 532.626696 309.389937 
L 533.954635 309.389937 
L 535.282574 309.389937 
L 536.610513 309.389937 
L 537.938452 309.389937 
L 539.266391 309.389937 
L 540.594331 309.389937 
L 541.92227 309.389937 
L 543.250209 309.389937 
L 544.578148 309.389937 
L 545.906087 309.389937 
L 547.234026 309.389937 
L 548.561965 309.389937 
L 549.889904 309.389937 
L 551.217843 309.389937 
L 552.545782 309.389937 
L 553.873721 309.389937 
L 555.20166 309.389937 
L 556.529599 309.389937 
L 557.857539 309.389937 
L 559.185478 309.389937 
L 560.513417 309.389937 
L 561.841356 309.389937 
L 563.169295 309.389937 
L 564.497234 309.389937 
L 565.825173 309.389937 
L 567.153112 309.389937 
L 568.481051 309.389937 
L 568.481051 309.389937 
L 568.481051 309.389937 
L 567.153112 309.389937 
L 565.825173 309.389937 
L 564.497234 309.389937 
L 563.169295 309.389937 
L 561.841356 309.389937 
L 560.513417 309.389937 
L 559.185478 309.389937 
L 557.857539 309.389937 
L 556.529599 309.389937 
L 555.20166 309.389937 
L 553.873721 309.389937 
L 552.545782 309.389937 
L 551.217843 309.389937 
L 549.889904 309.389937 
L 548.561965 309.389937 
L 547.234026 309.389937 
L 545.906087 309.389937 
L 544.578148 309.389937 
L 543.250209 309.389937 
L 541.92227 309.389937 
L 540.594331 309.389937 
L 539.266391 309.389937 
L 537.938452 309.389937 
L 536.610513 309.389937 
L 535.282574 309.389937 
L 533.954635 309.389937 
L 532.626696 309.389937 
L 531.298757 309.389937 
L 529.970818 309.389937 
L 528.642879 309.389937 
L 527.31494 309.389937 
L 525.987001 309.389937 
L 524.659062 309.389937 
L 523.331123 309.389937 
L 522.003183 309.389937 
L 520.675244 309.389937 
L 519.347305 309.389937 
L 518.019366 309.389937 
L 516.691427 309.389937 
L 515.363488 309.389937 
L 514.035549 309.389937 
L 512.70761 309.389937 
L 511.379671 309.389937 
L 510.051732 309.389937 
L 508.723793 309.389937 
L 507.395854 309.389937 
L 506.067915 309.389937 
L 504.739975 309.389937 
L 503.412036 309.389937 
L 502.084097 309.389937 
L 500.756158 309.389937 
L 499.428219 309.389937 
L 498.10028 309.389937 
L 496.772341 309.389937 
L 495.444402 309.389937 
L 494.116463 309.389937 
L 492.788524 309.389937 
L 491.460585 309.389937 
L 490.132646 309.389937 
L 488.804707 309.389937 
L 487.476767 309.389937 
L 486.148828 309.389937 
L 484.820889 309.389937 
L 483.49295 309.389937 
L 482.165011 309.389937 
L 480.837072 309.389937 
L 479.509133 309.389937 
L 478.181194 309.389937 
L 476.853255 309.389937 
L 475.525316 309.389937 
L 474.197377 309.389937 
L 472.869438 309.389937 
L 471.541499 309.389937 
L 470.213559 309.389937 
L 468.88562 309.389937 
L 467.557681 309.389937 
L 466.229742 309.389937 
L 464.901803 309.389937 
L 463.573864 309.389937 
L 462.245925 309.389937 
L 460.917986 309.389937 
L 459.590047 309.389937 
L 458.262108 309.389937 
L 456.934169 309.389937 
L 455.60623 309.389937 
L 454.278291 309.389937 
L 452.950351 309.389937 
L 451.622412 309.389937 
L 450.294473 309.389937 
L 448.966534 309.389937 
L 447.638595 309.389937 
L 446.310656 309.389937 
L 444.982717 309.389937 
L 443.654778 309.389937 
L 442.326839 309.389937 
L 440.9989 309.389937 
L 439.670961 309.389937 
L 438.343022 309.389937 
L 437.015083 309.389937 
L 435.687143 309.389937 
L 434.359204 309.389937 
L 433.031265 309.389937 
L 431.703326 309.389937 
L 430.375387 309.389937 
L 429.047448 309.389937 
L 427.719509 309.389937 
L 426.39157 309.389937 
L 425.063631 309.389937 
L 423.735692 309.389937 
L 422.407753 309.389937 
L 421.079814 309.389937 
L 419.751875 309.389937 
L 418.423935 309.389937 
L 417.095996 309.389937 
L 415.768057 309.389937 
L 414.440118 309.389937 
L 413.112179 309.389937 
L 411.78424 309.389937 
L 410.456301 309.389937 
L 409.128362 309.389937 
L 407.800423 309.389937 
L 406.472484 309.389937 
L 405.144545 309.389937 
L 403.816606 309.389937 
L 402.488667 309.389937 
L 401.160727 309.389937 
L 399.832788 309.389937 
L 398.504849 309.389937 
L 397.17691 309.389937 
L 395.848971 309.389937 
L 394.521032 309.389937 
L 393.193093 309.389937 
L 391.865154 309.389937 
L 390.537215 309.389937 
L 389.209276 309.389937 
L 387.881337 309.389937 
L 386.553398 309.389937 
L 385.225459 309.389937 
L 383.897519 309.389937 
L 382.56958 309.389937 
L 381.241641 309.389937 
L 379.913702 309.389937 
L 378.585763 309.389937 
L 377.257824 309.389937 
L 375.929885 309.389937 
L 374.601946 309.389937 
L 373.274007 309.389937 
L 371.946068 309.389937 
L 370.618129 309.389937 
L 369.29019 309.389937 
L 367.962251 309.389937 
L 366.634311 309.389937 
L 365.306372 309.389937 
L 363.978433 309.389937 
L 362.650494 309.389937 
L 361.322555 309.389937 
L 359.994616 309.389937 
L 358.666677 309.389937 
L 357.338738 309.389937 
L 356.010799 309.389937 
L 354.68286 309.389937 
L 353.354921 309.389937 
L 352.026982 309.389937 
L 350.699043 309.389937 
L 349.371103 309.389937 
L 348.043164 309.389937 
L 346.715225 309.389937 
L 345.387286 309.389937 
L 344.059347 309.389937 
L 342.731408 309.389937 
L 341.403469 309.389937 
L 340.07553 309.389937 
L 338.747591 309.389937 
L 337.419652 309.389937 
L 336.091713 309.389937 
L 334.763774 309.389937 
L 333.435835 309.389937 
L 332.107895 309.389937 
L 330.779956 309.389937 
L 329.452017 309.389937 
L 328.124078 309.389937 
L 326.796139 309.389937 
L 325.4682 309.389937 
L 324.140261 309.389937 
L 322.812322 309.389937 
L 321.484383 309.389937 
L 320.156444 309.389937 
L 318.828505 309.389937 
L 317.500566 309.389937 
L 316.172627 309.389937 
L 314.844687 309.389937 
L 313.516748 309.389937 
L 312.188809 309.389937 
L 310.86087 309.389937 
L 309.532931 309.389937 
L 308.204992 309.389937 
L 306.877053 309.389937 
L 305.549114 309.389937 
L 304.221175 309.389937 
L 302.893236 309.389937 
L 301.565297 309.389937 
L 300.237358 309.389937 
L 298.909419 309.389937 
L 297.58148 309.389937 
L 296.25354 309.389937 
L 294.925601 309.389937 
L 293.597662 309.389937 
L 292.269723 309.389937 
L 290.941784 309.389937 
L 289.613845 309.389937 
L 288.285906 309.389937 
L 286.957967 309.389937 
L 285.630028 309.389937 
L 284.302089 309.389937 
L 282.97415 309.389937 
L 281.646211 309.389937 
L 280.318272 309.389937 
L 278.990332 309.389937 
L 277.662393 309.389937 
L 276.334454 309.389937 
L 275.006515 309.389937 
L 273.678576 309.389937 
L 272.350637 309.389937 
L 271.022698 309.389937 
L 269.694759 309.389937 
L 268.36682 309.389937 
L 267.038881 309.389937 
L 265.710942 309.389937 
L 264.383003 309.389937 
L 263.055064 309.389937 
L 261.727124 309.389937 
L 260.399185 309.389937 
L 259.071246 309.389937 
L 257.743307 309.389937 
L 256.415368 309.389937 
L 255.087429 309.389937 
L 253.75949 309.389937 
L 252.431551 309.389937 
L 251.103612 309.389937 
L 249.775673 309.389937 
L 248.447734 309.389937 
L 247.119795 309.389937 
L 245.791856 309.389937 
L 244.463916 309.389937 
L 243.135977 309.389937 
L 241.808038 309.389937 
L 240.480099 309.389937 
L 239.15216 309.389937 
L 237.824221 309.389937 
L 236.496282 309.389937 
L 235.168343 309.389937 
L 233.840404 309.389937 
L 232.512465 309.389937 
L 231.184526 309.389937 
L 229.856587 309.389937 
L 228.528648 309.389937 
L 227.200708 309.389937 
L 225.872769 309.389937 
L 224.54483 309.389937 
L 223.216891 309.389937 
L 221.888952 309.389937 
L 220.561013 309.389937 
L 219.233074 309.389937 
L 217.905135 309.389937 
L 216.577196 309.389937 
L 215.249257 309.389937 
L 213.921318 309.389937 
L 212.593379 309.389937 
L 211.26544 309.389937 
L 209.9375 309.389937 
L 208.609561 309.389937 
L 207.281622 309.389937 
L 205.953683 309.389937 
L 204.625744 309.389937 
L 203.297805 309.389937 
L 201.969866 309.389937 
L 200.641927 309.389937 
L 199.313988 309.389937 
L 197.986049 309.389937 
L 196.65811 309.389937 
L 195.330171 309.389937 
L 194.002232 309.389937 
L 192.674292 309.389937 
L 191.346353 309.389937 
L 190.018414 309.389937 
L 188.690475 309.389937 
L 187.362536 309.389937 
L 186.034597 309.389937 
L 184.706658 309.389937 
L 183.378719 309.389937 
L 182.05078 309.389937 
L 180.722841 309.389937 
L 179.394902 309.389937 
L 178.066963 309.389937 
L 176.739024 309.389937 
L 175.411084 309.389937 
L 174.083145 309.389937 
L 172.755206 309.389937 
L 171.427267 309.389937 
L 170.099328 309.389937 
L 168.771389 309.389937 
L 167.44345 309.389937 
L 166.115511 309.389937 
L 164.787572 309.389937 
L 163.459633 309.389937 
L 162.131694 309.389937 
L 160.803755 309.389937 
L 159.475816 309.389937 
L 158.147876 309.389937 
L 156.819937 309.389937 
L 155.491998 309.389937 
L 154.164059 309.389937 
L 152.83612 309.389937 
L 151.508181 309.389937 
L 150.180242 309.389937 
L 148.852303 309.389937 
L 147.524364 309.389937 
L 146.196425 309.389937 
L 144.868486 309.389937 
L 143.540547 309.389937 
L 142.212608 309.389937 
L 140.884668 309.389937 
L 139.556729 309.389937 
L 138.22879 309.389937 
L 136.900851 309.389937 
L 135.572912 309.389937 
L 134.244973 309.389937 
L 132.917034 309.389937 
L 131.589095 309.389937 
L 130.261156 309.389937 
L 128.933217 309.389937 
L 127.605278 309.389937 
L 126.277339 309.389937 
L 124.9494 309.389937 
L 123.62146 309.389937 
L 122.293521 309.389937 
L 120.965582 309.389937 
L 119.637643 309.389937 
L 118.309704 309.389937 
L 116.981765 309.389937 
L 115.653826 309.389937 
L 114.325887 309.389937 
L 112.997948 309.389937 
L 111.670009 309.389937 
L 110.34207 309.389937 
L 109.014131 309.389937 
L 107.686192 309.389937 
L 106.358252 309.389937 
L 105.030313 309.389937 
L 103.702374 309.389937 
L 102.374435 309.389937 
L 101.046496 309.389937 
L 99.718557 309.389937 
L 98.390618 309.389937 
L 97.062679 309.389937 
L 95.73474 309.389937 
L 94.406801 309.389937 
L 93.078862 309.389937 
L 91.750923 309.389937 
L 90.422984 309.389937 
L 89.095044 309.389937 
L 87.767105 309.389937 
L 86.439166 309.389937 
L 85.111227 309.389937 
L 83.783288 309.389937 
L 82.455349 309.389937 
L 81.12741 309.389937 
L 79.799471 309.389937 
L 78.471532 309.389937 
L 77.143593 309.389937 
L 75.815654 309.389937 
L 74.487715 309.389937 
L 73.159776 309.389937 
L 71.831836 309.389937 
L 70.503897 309.389937 
L 69.175958 309.389937 
L 67.848019 309.389937 
L 66.52008 309.389937 
L 65.192141 309.389937 
L 63.864202 309.389937 
L 62.536263 309.389937 
L 61.208324 309.389937 
z
" clip-path="url(#p608aef7791)" style="fill: #f08080; fill-opacity: 0.5"/>
   </g>
   <g id="FillBetweenPolyCollection_2">
    <path d="M 61.208324 309.389937 
L 61.208324 309.389937 
L 62.536263 309.389937 
L 63.864202 309.389937 
L 65.192141 309.389937 
L 66.52008 309.389937 
L 67.848019 309.389937 
L 69.175958 309.389937 
L 70.503897 309.389937 
L 71.831836 309.389937 
L 73.159776 309.389937 
L 74.487715 309.389937 
L 75.815654 309.389937 
L 77.143593 309.389937 
L 78.471532 309.389937 
L 79.799471 309.389937 
L 81.12741 309.389937 
L 82.455349 309.389937 
L 83.783288 309.389937 
L 85.111227 309.389937 
L 86.439166 309.389937 
L 87.767105 309.389937 
L 89.095044 309.389937 
L 90.422984 309.389937 
L 91.750923 309.389937 
L 93.078862 309.389937 
L 94.406801 309.389937 
L 95.73474 309.389937 
L 97.062679 309.389937 
L 98.390618 309.389937 
L 99.718557 309.389937 
L 101.046496 309.389937 
L 102.374435 309.389937 
L 103.702374 309.389937 
L 105.030313 309.389937 
L 106.358252 309.389937 
L 107.686192 309.389937 
L 109.014131 309.389937 
L 110.34207 309.389937 
L 111.670009 309.389937 
L 112.997948 309.389937 
L 114.325887 309.389937 
L 115.653826 309.389937 
L 116.981765 309.389937 
L 118.309704 309.389937 
L 119.637643 309.389937 
L 120.965582 309.389937 
L 122.293521 309.389937 
L 123.62146 309.389937 
L 124.9494 309.389937 
L 126.277339 309.389937 
L 127.605278 309.389937 
L 128.933217 309.389937 
L 130.261156 309.389937 
L 131.589095 309.389937 
L 132.917034 309.389937 
L 134.244973 309.389937 
L 135.572912 309.389937 
L 136.900851 309.389937 
L 138.22879 309.389937 
L 139.556729 309.389937 
L 140.884668 309.389937 
L 142.212608 309.389937 
L 143.540547 309.389937 
L 144.868486 309.389937 
L 146.196425 309.389937 
L 147.524364 309.389937 
L 148.852303 309.389937 
L 150.180242 309.389937 
L 151.508181 309.389937 
L 152.83612 309.389937 
L 154.164059 309.389937 
L 155.491998 309.389937 
L 156.819937 309.389937 
L 158.147876 309.389937 
L 159.475816 309.389937 
L 160.803755 309.389937 
L 162.131694 309.389937 
L 163.459633 309.389937 
L 164.787572 309.389937 
L 166.115511 309.389937 
L 167.44345 309.389937 
L 168.771389 309.389937 
L 170.099328 309.389937 
L 171.427267 309.389937 
L 172.755206 309.389937 
L 174.083145 309.389937 
L 175.411084 309.389937 
L 176.739024 309.389937 
L 178.066963 309.389937 
L 179.394902 309.389937 
L 180.722841 309.389937 
L 182.05078 309.389937 
L 183.378719 309.389937 
L 184.706658 309.389937 
L 186.034597 309.389937 
L 187.362536 309.389937 
L 188.690475 309.389937 
L 190.018414 309.389937 
L 191.346353 309.389937 
L 192.674292 309.389937 
L 194.002232 309.389937 
L 195.330171 309.389937 
L 196.65811 309.389937 
L 197.986049 309.389937 
L 199.313988 309.389937 
L 200.641927 309.389937 
L 201.969866 309.389937 
L 203.297805 309.389937 
L 204.625744 309.389937 
L 205.953683 309.389937 
L 207.281622 309.389937 
L 208.609561 309.389937 
L 209.9375 309.389937 
L 211.26544 309.389937 
L 212.593379 309.389937 
L 213.921318 309.389937 
L 215.249257 309.389937 
L 216.577196 309.389937 
L 217.905135 309.389937 
L 219.233074 309.389937 
L 220.561013 309.389937 
L 221.888952 309.389937 
L 223.216891 309.389937 
L 224.54483 309.389937 
L 225.872769 309.389937 
L 227.200708 309.389937 
L 228.528648 309.389937 
L 229.856587 309.389937 
L 231.184526 309.389937 
L 232.512465 309.389937 
L 233.840404 309.389937 
L 235.168343 309.389937 
L 236.496282 309.389937 
L 237.824221 309.389937 
L 239.15216 309.389937 
L 240.480099 309.389937 
L 241.808038 309.389937 
L 243.135977 309.389937 
L 244.463916 309.389937 
L 245.791856 309.389937 
L 247.119795 309.389937 
L 248.447734 309.389937 
L 249.775673 309.389937 
L 251.103612 309.389937 
L 252.431551 309.389937 
L 253.75949 309.389937 
L 255.087429 309.389937 
L 256.415368 309.389937 
L 257.743307 309.389937 
L 259.071246 309.389937 
L 260.399185 309.389937 
L 261.727124 309.389937 
L 263.055064 309.389937 
L 264.383003 309.389937 
L 265.710942 309.389937 
L 267.038881 309.389937 
L 268.36682 309.389937 
L 269.694759 309.389937 
L 271.022698 309.389937 
L 272.350637 309.389937 
L 273.678576 309.389937 
L 275.006515 309.389937 
L 276.334454 309.389937 
L 277.662393 309.389937 
L 278.990332 309.389937 
L 280.318272 309.389937 
L 281.646211 309.389937 
L 282.97415 309.389937 
L 284.302089 309.389937 
L 285.630028 309.389937 
L 286.957967 309.389937 
L 288.285906 309.389937 
L 289.613845 309.389937 
L 290.941784 309.389937 
L 292.269723 309.389937 
L 293.597662 309.389937 
L 294.925601 309.389937 
L 296.25354 309.389937 
L 297.58148 309.389937 
L 298.909419 309.389937 
L 300.237358 309.389937 
L 301.565297 309.389937 
L 302.893236 309.389937 
L 304.221175 309.389937 
L 305.549114 309.389937 
L 306.877053 309.389937 
L 308.204992 309.389937 
L 309.532931 309.389937 
L 310.86087 309.389937 
L 312.188809 309.389937 
L 313.516748 309.389937 
L 314.844687 309.389937 
L 316.172627 309.389937 
L 317.500566 309.389937 
L 318.828505 309.389937 
L 320.156444 309.389937 
L 321.484383 309.389937 
L 322.812322 309.389937 
L 324.140261 309.389937 
L 325.4682 309.389937 
L 326.796139 309.389937 
L 328.124078 309.389937 
L 329.452017 309.389937 
L 330.779956 309.389937 
L 332.107895 309.389937 
L 333.435835 309.389937 
L 334.763774 309.389937 
L 336.091713 309.389937 
L 337.419652 309.389937 
L 338.747591 309.389937 
L 340.07553 309.389937 
L 341.403469 309.389937 
L 342.731408 309.389937 
L 344.059347 309.389937 
L 345.387286 309.389937 
L 346.715225 309.389937 
L 348.043164 309.389937 
L 349.371103 309.389937 
L 350.699043 309.389937 
L 352.026982 309.389937 
L 353.354921 309.389937 
L 354.68286 309.389937 
L 356.010799 309.389937 
L 357.338738 309.389937 
L 358.666677 309.389937 
L 359.994616 309.389937 
L 361.322555 309.389937 
L 362.650494 309.389937 
L 363.978433 309.389937 
L 365.306372 309.389937 
L 366.634311 309.389937 
L 367.962251 309.389937 
L 369.29019 309.389937 
L 370.618129 309.389937 
L 371.946068 309.389937 
L 373.274007 309.389937 
L 374.601946 309.389937 
L 375.929885 309.389937 
L 377.257824 309.389937 
L 378.585763 309.389937 
L 379.913702 309.389937 
L 381.241641 309.389937 
L 382.56958 309.389937 
L 383.897519 309.389937 
L 385.225459 309.389937 
L 386.553398 309.389937 
L 387.881337 309.389937 
L 389.209276 309.389937 
L 390.537215 309.389937 
L 391.865154 309.389937 
L 393.193093 309.389937 
L 394.521032 309.389937 
L 395.848971 309.389937 
L 397.17691 309.389937 
L 398.504849 309.389937 
L 399.832788 309.389937 
L 401.160727 309.389937 
L 402.488667 309.389937 
L 403.816606 309.389937 
L 405.144545 309.389937 
L 406.472484 309.389937 
L 407.800423 309.389937 
L 409.128362 309.389937 
L 410.456301 309.389937 
L 411.78424 309.389937 
L 413.112179 309.389937 
L 414.440118 309.389937 
L 415.768057 309.389937 
L 417.095996 309.389937 
L 418.423935 309.389937 
L 419.751875 309.389937 
L 421.079814 309.389937 
L 422.407753 309.389937 
L 423.735692 309.389937 
L 425.063631 309.389937 
L 426.39157 309.389937 
L 427.719509 309.389937 
L 429.047448 309.389937 
L 430.375387 309.389937 
L 431.703326 309.389937 
L 433.031265 309.389937 
L 434.359204 309.389937 
L 435.687143 309.389937 
L 437.015083 309.389937 
L 438.343022 309.389937 
L 439.670961 309.389937 
L 440.9989 309.389937 
L 442.326839 309.389937 
L 443.654778 309.389937 
L 444.982717 309.389937 
L 446.310656 309.389937 
L 447.638595 309.389937 
L 448.966534 309.389937 
L 450.294473 309.389937 
L 451.622412 309.389937 
L 452.950351 309.389937 
L 454.278291 309.389937 
L 455.60623 309.389937 
L 456.934169 309.389937 
L 458.262108 309.389937 
L 459.590047 309.389937 
L 460.917986 309.389937 
L 462.245925 309.389937 
L 463.573864 309.389937 
L 464.901803 309.389937 
L 466.229742 309.389937 
L 467.557681 309.389937 
L 468.88562 309.389937 
L 470.213559 309.389937 
L 471.541499 309.389937 
L 472.869438 309.389937 
L 474.197377 309.389937 
L 475.525316 309.389937 
L 476.853255 309.389937 
L 478.181194 309.389937 
L 479.509133 309.389937 
L 480.837072 309.389937 
L 482.165011 309.389937 
L 483.49295 309.389937 
L 484.820889 309.389937 
L 486.148828 309.389937 
L 487.476767 309.389937 
L 488.804707 309.389937 
L 490.132646 309.389937 
L 491.460585 309.389937 
L 492.788524 309.389937 
L 494.116463 309.389937 
L 495.444402 309.389937 
L 496.772341 309.389937 
L 498.10028 309.389937 
L 499.428219 309.389937 
L 500.756158 309.389937 
L 502.084097 309.389937 
L 503.412036 309.389937 
L 504.739975 309.389937 
L 506.067915 309.389937 
L 507.395854 309.389937 
L 508.723793 309.389937 
L 510.051732 309.389937 
L 511.379671 309.389937 
L 512.70761 309.389937 
L 514.035549 309.389937 
L 515.363488 309.389937 
L 516.691427 309.389937 
L 518.019366 309.389937 
L 519.347305 309.389937 
L 520.675244 309.389937 
L 522.003183 309.389937 
L 523.331123 309.389937 
L 524.659062 309.389937 
L 525.987001 309.389937 
L 527.31494 309.389937 
L 528.642879 309.389937 
L 529.970818 309.389937 
L 531.298757 309.389937 
L 532.626696 309.389937 
L 533.954635 309.389937 
L 535.282574 309.389937 
L 536.610513 309.389937 
L 537.938452 309.389937 
L 539.266391 309.389937 
L 540.594331 309.389937 
L 541.92227 309.389937 
L 543.250209 309.389937 
L 544.578148 309.389937 
L 545.906087 309.389937 
L 547.234026 309.389937 
L 548.561965 309.389937 
L 549.889904 309.389937 
L 551.217843 309.389937 
L 552.545782 309.389937 
L 553.873721 309.389937 
L 555.20166 309.389937 
L 556.529599 309.389937 
L 557.857539 309.389937 
L 559.185478 309.389937 
L 560.513417 309.389937 
L 561.841356 309.389937 
L 563.169295 309.389937 
L 564.497234 309.389937 
L 565.825173 309.389937 
L 567.153112 309.389937 
L 568.481051 309.389937 
L 568.481051 309.389938 
L 568.481051 309.389938 
L 567.153112 309.389938 
L 565.825173 309.389938 
L 564.497234 309.389938 
L 563.169295 309.389938 
L 561.841356 309.389938 
L 560.513417 309.389938 
L 559.185478 309.389938 
L 557.857539 309.389938 
L 556.529599 309.389938 
L 555.20166 309.389938 
L 553.873721 309.389938 
L 552.545782 309.389938 
L 551.217843 309.389938 
L 549.889904 309.389938 
L 548.561965 309.389938 
L 547.234026 309.389938 
L 545.906087 309.389938 
L 544.578148 309.389938 
L 543.250209 309.389938 
L 541.92227 309.389938 
L 540.594331 309.389938 
L 539.266391 309.389938 
L 537.938452 309.389938 
L 536.610513 309.389938 
L 535.282574 309.389938 
L 533.954635 309.389938 
L 532.626696 309.389938 
L 531.298757 309.389938 
L 529.970818 309.389938 
L 528.642879 309.389938 
L 527.31494 309.389937 
L 525.987001 309.389937 
L 524.659062 309.389937 
L 523.331123 309.389937 
L 522.003183 309.389937 
L 520.675244 309.389937 
L 519.347305 309.389937 
L 518.019366 309.389937 
L 516.691427 309.389937 
L 515.363488 309.389937 
L 514.035549 309.389937 
L 512.70761 309.389937 
L 511.379671 309.389937 
L 510.051732 309.389937 
L 508.723793 309.389937 
L 507.395854 309.389937 
L 506.067915 309.389938 
L 504.739975 309.389938 
L 503.412036 309.389938 
L 502.084097 309.389938 
L 500.756158 309.389938 
L 499.428219 309.389938 
L 498.10028 309.389938 
L 496.772341 309.389938 
L 495.444402 309.389938 
L 494.116463 309.389938 
L 492.788524 309.389938 
L 491.460585 309.389938 
L 490.132646 309.389938 
L 488.804707 309.389938 
L 487.476767 309.389938 
L 486.148828 309.389938 
L 484.820889 309.389938 
L 483.49295 309.389938 
L 482.165011 309.389938 
L 480.837072 309.389938 
L 479.509133 309.389938 
L 478.181194 309.389938 
L 476.853255 309.389938 
L 475.525316 309.389938 
L 474.197377 309.389938 
L 472.869438 309.389938 
L 471.541499 309.389938 
L 470.213559 309.389938 
L 468.88562 309.389938 
L 467.557681 309.389938 
L 466.229742 309.389938 
L 464.901803 309.389938 
L 463.573864 57.389937 
L 462.245925 57.389937 
L 460.917986 57.389937 
L 459.590047 57.389937 
L 458.262108 57.389937 
L 456.934169 57.389937 
L 455.60623 57.389937 
L 454.278291 57.389937 
L 452.950351 57.389937 
L 451.622412 57.389937 
L 450.294473 57.389937 
L 448.966534 57.389937 
L 447.638595 57.389937 
L 446.310656 57.389937 
L 444.982717 57.389937 
L 443.654778 57.389937 
L 442.326839 309.389937 
L 440.9989 309.389937 
L 439.670961 309.389937 
L 438.343022 309.389937 
L 437.015083 309.389937 
L 435.687143 309.389937 
L 434.359204 309.389937 
L 433.031265 309.389937 
L 431.703326 309.389937 
L 430.375387 309.389937 
L 429.047448 309.389937 
L 427.719509 309.389937 
L 426.39157 309.389937 
L 425.063631 309.389937 
L 423.735692 309.389937 
L 422.407753 309.389937 
L 421.079814 309.389938 
L 419.751875 309.389938 
L 418.423935 309.389938 
L 417.095996 309.389938 
L 415.768057 309.389938 
L 414.440118 309.389938 
L 413.112179 309.389938 
L 411.78424 309.389938 
L 410.456301 309.389938 
L 409.128362 309.389938 
L 407.800423 309.389938 
L 406.472484 309.389938 
L 405.144545 309.389938 
L 403.816606 309.389938 
L 402.488667 309.389938 
L 401.160727 309.389938 
L 399.832788 150.82519 
L 398.504849 150.82519 
L 397.17691 150.82519 
L 395.848971 150.82519 
L 394.521032 150.82519 
L 393.193093 150.82519 
L 391.865154 150.82519 
L 390.537215 150.82519 
L 389.209276 150.82519 
L 387.881337 150.82519 
L 386.553398 150.82519 
L 385.225459 150.82519 
L 383.897519 150.82519 
L 382.56958 150.82519 
L 381.241641 150.82519 
L 379.913702 150.82519 
L 378.585763 309.389938 
L 377.257824 309.389938 
L 375.929885 309.389938 
L 374.601946 309.389938 
L 373.274007 309.389938 
L 371.946068 309.389938 
L 370.618129 309.389938 
L 369.29019 309.389938 
L 367.962251 309.389938 
L 366.634311 309.389938 
L 365.306372 309.389938 
L 363.978433 309.389938 
L 362.650494 309.389938 
L 361.322555 309.389938 
L 359.994616 309.389938 
L 358.666677 309.389938 
L 357.338738 309.389938 
L 356.010799 309.389938 
L 354.68286 309.389938 
L 353.354921 309.389938 
L 352.026982 309.389938 
L 350.699043 309.389938 
L 349.371103 309.389938 
L 348.043164 309.389938 
L 346.715225 309.389938 
L 345.387286 309.389938 
L 344.059347 309.389938 
L 342.731408 309.389938 
L 341.403469 309.389938 
L 340.07553 309.389938 
L 338.747591 309.389938 
L 337.419652 309.389938 
L 336.091713 309.389938 
L 334.763774 309.389938 
L 333.435835 309.389938 
L 332.107895 309.389938 
L 330.779956 309.389938 
L 329.452017 309.389938 
L 328.124078 309.389938 
L 326.796139 309.389938 
L 325.4682 309.389938 
L 324.140261 309.389938 
L 322.812322 309.389938 
L 321.484383 309.389938 
L 320.156444 309.389938 
L 318.828505 309.389938 
L 317.500566 309.389938 
L 316.172627 309.389938 
L 314.844687 309.389937 
L 313.516748 309.389937 
L 312.188809 309.389937 
L 310.86087 309.389937 
L 309.532931 309.389937 
L 308.204992 309.389937 
L 306.877053 309.389937 
L 305.549114 309.389937 
L 304.221175 309.389937 
L 302.893236 309.389937 
L 301.565297 309.389937 
L 300.237358 309.389937 
L 298.909419 309.389937 
L 297.58148 309.389937 
L 296.25354 309.389937 
L 294.925601 309.389937 
L 293.597662 309.389937 
L 292.269723 309.389937 
L 290.941784 309.389937 
L 289.613845 309.389937 
L 288.285906 309.389937 
L 286.957967 309.389937 
L 285.630028 309.389937 
L 284.302089 309.389937 
L 282.97415 309.389937 
L 281.646211 309.389937 
L 280.318272 309.389937 
L 278.990332 309.389937 
L 277.662393 309.389937 
L 276.334454 309.389937 
L 275.006515 309.389937 
L 273.678576 309.389937 
L 272.350637 309.389938 
L 271.022698 309.389938 
L 269.694759 309.389938 
L 268.36682 309.389938 
L 267.038881 309.389938 
L 265.710942 309.389938 
L 264.383003 309.389938 
L 263.055064 309.389938 
L 261.727124 309.389938 
L 260.399185 309.389938 
L 259.071246 309.389938 
L 257.743307 309.389938 
L 256.415368 309.389938 
L 255.087429 309.389938 
L 253.75949 309.389938 
L 252.431551 309.389938 
L 251.103612 293.909807 
L 249.775673 293.909807 
L 248.447734 293.909807 
L 247.119795 293.909807 
L 245.791856 293.909807 
L 244.463916 293.909807 
L 243.135977 293.909807 
L 241.808038 293.909807 
L 240.480099 293.909807 
L 239.15216 293.909807 
L 237.824221 293.909807 
L 236.496282 293.909807 
L 235.168343 293.909807 
L 233.840404 293.909807 
L 232.512465 293.909807 
L 231.184526 293.909807 
L 229.856587 252.563885 
L 228.528648 252.563885 
L 227.200708 252.563885 
L 225.872769 252.563885 
L 224.54483 252.563885 
L 223.216891 252.563885 
L 221.888952 252.563885 
L 220.561013 252.563885 
L 219.233074 252.563885 
L 217.905135 252.563885 
L 216.577196 252.563885 
L 215.249257 252.563885 
L 213.921318 252.563885 
L 212.593379 252.563885 
L 211.26544 252.563885 
L 209.9375 252.563885 
L 208.609561 57.389937 
L 207.281622 57.389937 
L 205.953683 57.389937 
L 204.625744 57.389937 
L 203.297805 57.389937 
L 201.969866 57.389937 
L 200.641927 57.389937 
L 199.313988 57.389937 
L 197.986049 57.389937 
L 196.65811 57.389937 
L 195.330171 57.389937 
L 194.002232 57.389937 
L 192.674292 57.389937 
L 191.346353 57.389937 
L 190.018414 57.389937 
L 188.690475 57.389937 
L 187.362536 309.389938 
L 186.034597 309.389938 
L 184.706658 309.389938 
L 183.378719 309.389938 
L 182.05078 309.389938 
L 180.722841 309.389938 
L 179.394902 309.389938 
L 178.066963 309.389938 
L 176.739024 309.389938 
L 175.411084 309.389938 
L 174.083145 309.389938 
L 172.755206 309.389938 
L 171.427267 309.389938 
L 170.099328 309.389938 
L 168.771389 309.389938 
L 167.44345 309.389938 
L 166.115511 309.389938 
L 164.787572 309.389938 
L 163.459633 309.389938 
L 162.131694 309.389938 
L 160.803755 309.389938 
L 159.475816 309.389938 
L 158.147876 309.389938 
L 156.819937 309.389938 
L 155.491998 309.389938 
L 154.164059 309.389938 
L 152.83612 309.389938 
L 151.508181 309.389938 
L 150.180242 309.389938 
L 148.852303 309.389938 
L 147.524364 309.389938 
L 146.196425 309.389938 
L 144.868486 190.362662 
L 143.540547 190.362662 
L 142.212608 190.362662 
L 140.884668 190.362662 
L 139.556729 190.362662 
L 138.22879 190.362662 
L 136.900851 190.362662 
L 135.572912 190.362662 
L 134.244973 190.362662 
L 132.917034 190.362662 
L 131.589095 190.362662 
L 130.261156 190.362662 
L 128.933217 190.362662 
L 127.605278 190.362662 
L 126.277339 190.362662 
L 124.9494 190.362662 
L 123.62146 309.389937 
L 122.293521 309.389937 
L 120.965582 309.389937 
L 119.637643 309.389937 
L 118.309704 309.389937 
L 116.981765 309.389937 
L 115.653826 309.389937 
L 114.325887 309.389937 
L 112.997948 309.389937 
L 111.670009 309.389937 
L 110.34207 309.389937 
L 109.014131 309.389937 
L 107.686192 309.389937 
L 106.358252 309.389937 
L 105.030313 309.389937 
L 103.702374 309.389937 
L 102.374435 57.389937 
L 101.046496 57.389937 
L 99.718557 57.389937 
L 98.390618 57.389937 
L 97.062679 57.389937 
L 95.73474 57.389937 
L 94.406801 57.389937 
L 93.078862 57.389937 
L 91.750923 57.389937 
L 90.422984 57.389937 
L 89.095044 57.389937 
L 87.767105 57.389937 
L 86.439166 57.389937 
L 85.111227 57.389937 
L 83.783288 57.389937 
L 82.455349 57.389937 
L 81.12741 309.389937 
L 79.799471 309.389937 
L 78.471532 309.389937 
L 77.143593 309.389937 
L 75.815654 309.389937 
L 74.487715 309.389937 
L 73.159776 309.389937 
L 71.831836 309.389937 
L 70.503897 309.389937 
L 69.175958 309.389937 
L 67.848019 309.389937 
L 66.52008 309.389937 
L 65.192141 309.389937 
L 63.864202 309.389937 
L 62.536263 309.389937 
L 61.208324 309.389937 
z
" clip-path="url(#p608aef7791)" style="fill: #90ee90; fill-opacity: 0.5"/>
   </g>
   <g id="matplotlib.axis_3">
    <g id="ytick_10">
     <g id="line2d_33">
      <path d="M 35.844688 309.389937 
L 593.844687 309.389937 
" clip-path="url(#p608aef7791)" style="fill: none; stroke: #b0b0b0; stroke-opacity: 0.5; stroke-width: 0.8; stroke-linecap: square"/>
     </g>
     <g id="line2d_34">
      <defs>
       <path id="m83564eb65b" d="M 0 0 
L 3.5 0 
" style="stroke: #000000; stroke-width: 0.8"/>
      </defs>
      <g>
       <use xlink:href="#m83564eb65b" x="593.844687" y="309.389937" style="stroke: #000000; stroke-width: 0.8"/>
      </g>
     </g>
     <g id="text_20">
      <text style="font-size: 11px; font-family: 'DejaVu Sans', 'Bitstream Vera Sans', 'Computer Modern Sans Serif', 'Lucida Grande', 'Verdana', 'Geneva', 'Lucid', 'Arial', 'Helvetica', 'Avant Garde', sans-serif; text-anchor: start" x="600.844687" y="313.569078" transform="rotate(-0 600.844687 313.569078)">0</text>
     </g>
    </g>
    <g id="ytick_11">
     <g id="line2d_35">
      <path d="M 35.844688 258.989937 
L 593.844687 258.989937 
" clip-path="url(#p608aef7791)" style="fill: none; stroke: #b0b0b0; stroke-opacity: 0.5; stroke-width: 0.8; stroke-linecap: square"/>
     </g>
     <g id="line2d_36">
      <g>
       <use xlink:href="#m83564eb65b" x="593.844687" y="258.989937" style="stroke: #000000; stroke-width: 0.8"/>
      </g>
     </g>
     <g id="text_21">
      <text style="font-size: 11px; font-family: 'DejaVu Sans', 'Bitstream Vera Sans', 'Computer Modern Sans Serif', 'Lucida Grande', 'Verdana', 'Geneva', 'Lucid', 'Arial', 'Helvetica', 'Avant Garde', sans-serif; text-anchor: start" x="600.844687" y="263.169078" transform="rotate(-0 600.844687 263.169078)">2</text>
     </g>
    </g>
    <g id="ytick_12">
     <g id="line2d_37">
      <path d="M 35.844688 208.589937 
L 593.844687 208.589937 
" clip-path="url(#p608aef7791)" style="fill: none; stroke: #b0b0b0; stroke-opacity: 0.5; stroke-width: 0.8; stroke-linecap: square"/>
     </g>
     <g id="line2d_38">
      <g>
       <use xlink:href="#m83564eb65b" x="593.844687" y="208.589937" style="stroke: #000000; stroke-width: 0.8"/>
      </g>
     </g>
     <g id="text_22">
      <text style="font-size: 11px; font-family: 'DejaVu Sans', 'Bitstream Vera Sans', 'Computer Modern Sans Serif', 'Lucida Grande', 'Verdana', 'Geneva', 'Lucid', 'Arial', 'Helvetica', 'Avant Garde', sans-serif; text-anchor: start" x="600.844687" y="212.769078" transform="rotate(-0 600.844687 212.769078)">4</text>
     </g>
    </g>
    <g id="ytick_13">
     <g id="line2d_39">
      <path d="M 35.844688 158.189937 
L 593.844687 158.189937 
" clip-path="url(#p608aef7791)" style="fill: none; stroke: #b0b0b0; stroke-opacity: 0.5; stroke-width: 0.8; stroke-linecap: square"/>
     </g>
     <g id="line2d_40">
      <g>
       <use xlink:href="#m83564eb65b" x="593.844687" y="158.189937" style="stroke: #000000; stroke-width: 0.8"/>
      </g>
     </g>
     <g id="text_23">
      <text style="font-size: 11px; font-family: 'DejaVu Sans', 'Bitstream Vera Sans', 'Computer Modern Sans Serif', 'Lucida Grande', 'Verdana', 'Geneva', 'Lucid', 'Arial', 'Helvetica', 'Avant Garde', sans-serif; text-anchor: start" x="600.844687" y="162.369078" transform="rotate(-0 600.844687 162.369078)">6</text>
     </g>
    </g>
    <g id="ytick_14">
     <g id="line2d_41">
      <path d="M 35.844688 107.789937 
L 593.844687 107.789937 
" clip-path="url(#p608aef7791)" style="fill: none; stroke: #b0b0b0; stroke-opacity: 0.5; stroke-width: 0.8; stroke-linecap: square"/>
     </g>
     <g id="line2d_42">
      <g>
       <use xlink:href="#m83564eb65b" x="593.844687" y="107.789937" style="stroke: #000000; stroke-width: 0.8"/>
      </g>
     </g>
     <g id="text_24">
      <text style="font-size: 11px; font-family: 'DejaVu Sans', 'Bitstream Vera Sans', 'Computer Modern Sans Serif', 'Lucida Grande', 'Verdana', 'Geneva', 'Lucid', 'Arial', 'Helvetica', 'Avant Garde', sans-serif; text-anchor: start" x="600.844687" y="111.969078" transform="rotate(-0 600.844687 111.969078)">8</text>
     </g>
    </g>
    <g id="ytick_15">
     <g id="line2d_43">
      <path d="M 35.844688 57.389937 
L 593.844687 57.389937 
" clip-path="url(#p608aef7791)" style="fill: none; stroke: #b0b0b0; stroke-opacity: 0.5; stroke-width: 0.8; stroke-linecap: square"/>
     </g>
     <g id="line2d_44">
      <g>
       <use xlink:href="#m83564eb65b" x="593.844687" y="57.389937" style="stroke: #000000; stroke-width: 0.8"/>
      </g>
     </g>
     <g id="text_25">
      <text style="font-size: 11px; font-family: 'DejaVu Sans', 'Bitstream Vera Sans', 'Computer Modern Sans Serif', 'Lucida Grande', 'Verdana', 'Geneva', 'Lucid', 'Arial', 'Helvetica', 'Avant Garde', sans-serif; text-anchor: start" x="600.844687" y="61.569078" transform="rotate(-0 600.844687 61.569078)">10</text>
     </g>
    </g>
    <g id="text_26">
     <text style="font-size: 11px; font-family: 'DejaVu Sans', 'Bitstream Vera Sans', 'Computer Modern Sans Serif', 'Lucida Grande', 'Verdana', 'Geneva', 'Lucid', 'Arial', 'Helvetica', 'Avant Garde', sans-serif; text-anchor: middle" x="627.200469" y="170.789937" transform="rotate(-90 627.200469 170.789937)">Reservierte Leistung [MW]</text>
    </g>
   </g>
   <g id="patch_9">
    <path d="M 35.844688 309.389937 
L 35.844688 32.189937 
" style="fill: none; stroke: #000000; stroke-width: 0.8; stroke-linejoin: miter; stroke-linecap: square"/>
   </g>
   <g id="patch_10">
    <path d="M 593.844687 309.389937 
L 593.844687 32.189937 
" style="fill: none; stroke: #000000; stroke-width: 0.8; stroke-linejoin: miter; stroke-linecap: square"/>
   </g>
   <g id="patch_11">
    <path d="M 35.844688 309.389937 
L 593.844688 309.389937 
" style="fill: none; stroke: #000000; stroke-width: 0.8; stroke-linejoin: miter; stroke-linecap: square"/>
   </g>
   <g id="patch_12">
    <path d="M 35.844688 32.189937 
L 593.844688 32.189937 
" style="fill: none; stroke: #000000; stroke-width: 0.8; stroke-linejoin: miter; stroke-linecap: square"/>
   </g>
  </g>
 </g>
 <defs>
  <clipPath id="p608aef7791">
   <rect x="35.844688" y="32.189937" width="558" height="277.2"/>
  </clipPath>
 </defs>
</svg>
