<?xml version="1.0" encoding="utf-8" standalone="no"?>
<!DOCTYPE svg PUBLIC "-//W3C//DTD SVG 1.1//EN"
  "http://www.w3.org/Graphics/SVG/1.1/DTD/svg11.dtd">
<svg xmlns:xlink="http://www.w3.org/1999/xlink" width="608.043437pt" height="334.235875pt" viewBox="0 0 608.043437 334.235875" xmlns="http://www.w3.org/2000/svg" version="1.1">
 <metadata>
  <rdf:RDF xmlns:dc="http://purl.org/dc/elements/1.1/" xmlns:cc="http://creativecommons.org/ns#" xmlns:rdf="http://www.w3.org/1999/02/22-rdf-syntax-ns#">
   <cc:Work>
    <dc:type rdf:resource="http://purl.org/dc/dcmitype/StillImage"/>
    <dc:date>2026-01-02T19:53:09.493737</dc:date>
    <dc:format>image/svg+xml</dc:format>
    <dc:creator>
     <cc:Agent>
      <dc:title>Matplotlib v3.10.7, https://matplotlib.org/</dc:title>
     </cc:Agent>
    </dc:creator>
   </cc:Work>
  </rdf:RDF>
 </metadata>
 <defs>
  <style type="text/css">*{stroke-linejoin: round; stroke-linecap: butt}</style>
 </defs>
 <g id="figure_1">
  <g id="patch_1">
   <path d="M 0 334.235875 
L 608.043437 334.235875 
L 608.043437 0 
L 0 0 
z
" style="fill: #ffffff"/>
  </g>
  <g id="axes_1">
   <g id="patch_2">
    <path d="M 42.843438 309.389937 
L 600.843438 309.389937 
L 600.843438 32.189937 
L 42.843438 32.189937 
z
" style="fill: #ffffff"/>
   </g>
   <g id="FillBetweenPolyCollection_1">
    <defs>
     <path id="m6f111372e7" d="M 68.207074 -24.845938 
L 68.207074 -150.845938 
L 69.535013 -143.813958 
L 70.862952 -135.343265 
L 72.190891 -127.349155 
L 73.51883 -119.428578 
L 74.846769 -111.755209 
L 76.174708 -103.87907 
L 77.502647 -96.756758 
L 78.830586 -90.521341 
L 80.158526 -84.305317 
L 81.486465 -78.724384 
L 82.814404 -73.174974 
L 84.142343 -65.971526 
L 85.470282 -60.111999 
L 86.798221 -55.79634 
L 88.12616 -62.917232 
L 89.454099 -70.209042 
L 90.782038 -79.195498 
L 92.109977 -87.925282 
L 93.437916 -96.945476 
L 94.765855 -106.589461 
L 96.093794 -116.698557 
L 97.421734 -126.46834 
L 98.749673 -135.546629 
L 100.077612 -145.595291 
L 101.405551 -154.721461 
L 102.73349 -164.093114 
L 104.061429 -174.208081 
L 105.389368 -183.188338 
L 106.717307 -191.916388 
L 108.045246 -200.766664 
L 109.373185 -209.267657 
L 110.701124 -218.033326 
L 112.029063 -213.981629 
L 113.357002 -208.917196 
L 114.684942 -217.159556 
L 116.012881 -225.244386 
L 117.34082 -219.310865 
L 118.668759 -214.041358 
L 119.996698 -220.040526 
L 121.324637 -228.108256 
L 122.652576 -227.432694 
L 123.980515 -233.549374 
L 125.308454 -240.036066 
L 126.636393 -245.715803 
L 127.964332 -249.59933 
L 129.292271 -255.124762 
L 130.62021 -259.416055 
L 131.94815 -265.065346 
L 133.276089 -270.185638 
L 134.604028 -275.520377 
L 135.931967 -274.228111 
L 137.259906 -272.346669 
L 138.587845 -276.845938 
L 139.915784 -276.845938 
L 141.243723 -276.845938 
L 142.571662 -276.845938 
L 143.899601 -276.845938 
L 145.22754 -275.640989 
L 146.555479 -276.821539 
L 147.883418 -275.728796 
L 149.211358 -276.845938 
L 150.539297 -276.682702 
L 151.867236 -276.845938 
L 153.195175 -276.261575 
L 154.523114 -276.845938 
L 155.851053 -272.719196 
L 157.178992 -268.509858 
L 158.506931 -265.149161 
L 159.83487 -262.347964 
L 161.162809 -260.404581 
L 162.490748 -257.025518 
L 163.818687 -254.020115 
L 165.146626 -250.333259 
L 166.474566 -247.943014 
L 167.802505 -244.392249 
L 169.130444 -241.292507 
L 170.458383 -237.797802 
L 171.786322 -234.735417 
L 173.114261 -230.870468 
L 174.4422 -228.687871 
L 175.770139 -224.522149 
L 177.098078 -221.176618 
L 178.426017 -217.117885 
L 179.753956 -212.422551 
L 181.081895 -206.079575 
L 182.409834 -199.500137 
L 183.737774 -193.13939 
L 185.065713 -187.931407 
L 186.393652 -180.820335 
L 187.721591 -175.056147 
L 189.04953 -167.565623 
L 190.377469 -160.938301 
L 191.705408 -153.495304 
L 193.033347 -146.576992 
L 194.361286 -139.839243 
L 195.689225 -132.256769 
L 197.017164 -135.776327 
L 198.345103 -140.10417 
L 199.673042 -144.924094 
L 201.000982 -149.762962 
L 202.328921 -154.549405 
L 203.65686 -159.226943 
L 204.984799 -163.726272 
L 206.312738 -169.734527 
L 207.640677 -176.40535 
L 208.968616 -183.151294 
L 210.296555 -189.672056 
L 211.624494 -195.3948 
L 212.952433 -202.432147 
L 214.280372 -210.602662 
L 215.608311 -218.056389 
L 216.93625 -224.593193 
L 218.26419 -233.086642 
L 219.592129 -241.26391 
L 220.920068 -249.755383 
L 222.248007 -248.999106 
L 223.575946 -258.297563 
L 224.903885 -257.769583 
L 226.231824 -267.440012 
L 227.559763 -266.625513 
L 228.887702 -276.378745 
L 230.215641 -276.845938 
L 231.54358 -276.765217 
L 232.871519 -276.461663 
L 234.199458 -276.542524 
L 235.527398 -276.55266 
L 236.855337 -276.390674 
L 238.183276 -276.845938 
L 239.511215 -273.46758 
L 240.839154 -270.12795 
L 242.167093 -268.41875 
L 243.495032 -276.845938 
L 244.822971 -272.42053 
L 246.15091 -268.533203 
L 247.478849 -263.894156 
L 248.806788 -271.201823 
L 250.134727 -265.110192 
L 251.462666 -259.042823 
L 252.790606 -265.054167 
L 254.118545 -271.929307 
L 255.446484 -264.60471 
L 256.774423 -257.831963 
L 258.102362 -252.739602 
L 259.430301 -257.933 
L 260.75824 -261.17371 
L 262.086179 -266.778643 
L 263.414118 -271.782658 
L 264.742057 -264.554592 
L 266.069996 -256.622691 
L 267.397935 -248.740378 
L 268.725874 -241.100725 
L 270.053814 -232.734557 
L 271.381753 -226.348041 
L 272.709692 -221.527286 
L 274.037631 -215.668316 
L 275.36557 -209.12623 
L 276.693509 -203.895299 
L 278.021448 -198.462209 
L 279.349387 -192.838325 
L 280.677326 -188.308081 
L 282.005265 -184.582105 
L 283.333204 -179.839278 
L 284.661143 -174.366277 
L 285.989082 -169.503715 
L 287.317022 -166.765186 
L 288.644961 -163.627851 
L 289.9729 -160.57409 
L 291.300839 -156.806846 
L 292.628778 -153.478264 
L 293.956717 -151.115472 
L 295.284656 -148.539689 
L 296.612595 -145.742358 
L 297.940534 -143.650254 
L 299.268473 -141.043485 
L 300.596412 -137.441594 
L 301.924351 -133.759324 
L 303.25229 -129.806049 
L 304.58023 -126.144862 
L 305.908169 -121.593324 
L 307.236108 -118.412524 
L 308.564047 -113.648066 
L 309.891986 -108.83977 
L 311.219925 -103.515534 
L 312.547864 -98.509045 
L 313.875803 -91.709733 
L 315.203742 -85.464008 
L 316.531681 -78.369573 
L 317.85962 -71.689764 
L 319.187559 -64.55262 
L 320.515498 -56.231234 
L 321.843437 -48.871634 
L 323.171377 -54.973016 
L 324.499316 -47.02658 
L 325.827255 -40.289051 
L 327.155194 -33.443738 
L 328.483133 -38.31499 
L 329.811072 -31.226397 
L 331.139011 -24.845937 
L 332.46695 -24.845937 
L 333.794889 -31.005736 
L 335.122828 -25.237165 
L 336.450767 -24.845938 
L 337.778706 -27.783495 
L 339.106645 -34.599749 
L 340.434585 -29.228106 
L 341.762524 -37.708761 
L 343.090463 -45.120776 
L 344.418402 -52.599161 
L 345.746341 -62.165111 
L 347.07428 -59.006836 
L 348.402219 -54.977502 
L 349.730158 -51.143633 
L 351.058097 -61.933727 
L 352.386036 -58.860446 
L 353.713975 -56.520906 
L 355.041914 -65.529022 
L 356.369853 -75.793654 
L 357.697793 -73.023286 
L 359.025732 -71.530682 
L 360.353671 -69.591095 
L 361.68161 -66.189716 
L 363.009549 -63.604544 
L 364.337488 -61.236592 
L 365.665427 -57.409972 
L 366.993366 -53.032987 
L 368.321305 -48.01454 
L 369.649244 -44.078425 
L 370.977183 -39.572643 
L 372.305122 -35.297692 
L 373.633061 -30.37077 
L 374.961001 -24.845937 
L 376.28894 -32.723806 
L 377.616879 -26.545462 
L 378.944818 -24.845938 
L 380.272757 -31.720902 
L 381.600696 -37.263427 
L 382.928635 -31.220951 
L 384.256574 -24.845938 
L 385.584513 -31.048471 
L 386.912452 -24.845938 
L 388.240391 -24.845938 
L 389.56833 -29.494051 
L 390.896269 -33.868633 
L 392.224209 -34.55182 
L 393.552148 -39.314397 
L 394.880087 -39.535543 
L 396.208026 -38.867257 
L 397.535965 -39.20437 
L 398.863904 -44.854903 
L 400.191843 -50.28222 
L 401.519782 -52.147823 
L 402.847721 -53.222593 
L 404.17566 -61.096022 
L 405.503599 -63.783574 
L 406.831538 -66.301441 
L 408.159477 -68.30281 
L 409.487417 -64.227309 
L 410.815356 -60.856952 
L 412.143295 -57.281478 
L 413.471234 -54.376552 
L 414.799173 -51.882517 
L 416.127112 -49.331704 
L 417.455051 -46.722116 
L 418.78299 -43.99744 
L 420.110929 -41.508358 
L 421.438868 -38.625402 
L 422.766807 -37.052758 
L 424.094746 -33.53816 
L 425.422685 -30.987876 
L 426.750625 -28.045123 
L 428.078564 -24.845937 
L 429.406503 -34.087636 
L 430.734442 -30.469477 
L 432.062381 -27.487459 
L 433.39032 -24.845938 
L 434.718259 -30.014469 
L 436.046198 -24.845937 
L 437.374137 -33.335888 
L 438.702076 -27.361986 
L 440.030015 -34.044953 
L 441.357954 -27.378363 
L 442.685893 -32.007346 
L 444.013833 -36.760139 
L 445.341772 -43.129329 
L 446.669711 -47.417104 
L 447.99765 -52.309542 
L 449.325589 -56.644566 
L 450.653528 -62.245412 
L 451.981467 -67.464471 
L 453.309406 -72.847545 
L 454.637345 -76.905589 
L 455.965284 -81.868916 
L 457.293223 -86.297231 
L 458.621162 -92.615143 
L 459.949101 -97.236566 
L 461.277041 -102.080793 
L 462.60498 -107.435052 
L 463.932919 -114.139073 
L 465.260858 -120.693432 
L 466.588797 -127.19286 
L 467.916736 -133.483823 
L 469.244675 -140.984432 
L 470.572614 -148.144366 
L 471.900553 -155.828764 
L 473.228492 -162.811129 
L 474.556431 -172.182596 
L 475.88437 -181.096123 
L 477.212309 -189.600458 
L 478.540249 -198.964002 
L 479.868188 -208.164537 
L 481.196127 -204.299779 
L 482.524066 -202.203366 
L 483.852005 -212.30459 
L 485.179944 -209.21765 
L 486.507883 -206.85892 
L 487.835822 -204.973023 
L 489.163761 -202.50945 
L 490.4917 -197.243704 
L 491.819639 -194.59855 
L 493.147578 -190.989669 
L 494.475517 -187.355713 
L 495.803457 -182.809859 
L 497.131396 -178.791704 
L 498.459335 -175.520235 
L 499.787274 -170.157625 
L 501.115213 -165.44464 
L 502.443152 -160.277461 
L 503.771091 -167.448983 
L 505.09903 -160.719575 
L 506.426969 -158.261274 
L 507.754908 -165.027071 
L 509.082847 -170.63517 
L 510.410786 -175.245626 
L 511.738725 -180.268097 
L 513.066665 -185.896018 
L 514.394604 -190.866017 
L 515.722543 -196.355908 
L 517.050482 -200.799313 
L 518.378421 -206.620745 
L 519.70636 -211.630515 
L 521.034299 -216.741468 
L 522.362238 -210.357738 
L 523.690177 -203.026202 
L 525.018116 -195.25999 
L 526.346055 -201.745694 
L 527.673994 -194.568058 
L 529.001933 -187.679008 
L 530.329873 -181.348456 
L 531.657812 -177.564273 
L 532.985751 -172.021518 
L 534.31369 -166.418716 
L 535.641629 -161.12602 
L 536.969568 -156.821377 
L 538.297507 -152.378884 
L 539.625446 -148.312985 
L 540.953385 -145.22416 
L 542.281324 -141.716502 
L 543.609263 -137.755999 
L 544.937202 -135.248992 
L 546.265141 -131.551638 
L 547.593081 -128.228439 
L 548.92102 -125.107252 
L 550.248959 -122.234871 
L 551.576898 -120.785336 
L 552.904837 -117.712645 
L 554.232776 -113.996819 
L 555.560715 -110.60561 
L 556.888654 -106.578085 
L 558.216593 -102.012979 
L 559.544532 -98.1203 
L 560.872471 -94.871723 
L 562.20041 -90.23515 
L 563.528349 -84.575804 
L 564.856289 -80.255677 
L 566.184228 -75.247797 
L 567.512167 -70.853354 
L 568.840106 -65.417738 
L 570.168045 -58.671689 
L 571.495984 -53.196609 
L 572.823923 -46.481297 
L 574.151862 -39.893259 
L 575.479801 -32.819052 
L 575.479801 -24.845938 
L 575.479801 -24.845938 
L 574.151862 -24.845938 
L 572.823923 -24.845938 
L 571.495984 -24.845938 
L 570.168045 -24.845938 
L 568.840106 -24.845938 
L 567.512167 -24.845938 
L 566.184228 -24.845938 
L 564.856289 -24.845938 
L 563.528349 -24.845938 
L 562.20041 -24.845938 
L 560.872471 -24.845938 
L 559.544532 -24.845938 
L 558.216593 -24.845938 
L 556.888654 -24.845938 
L 555.560715 -24.845938 
L 554.232776 -24.845938 
L 552.904837 -24.845938 
L 551.576898 -24.845938 
L 550.248959 -24.845938 
L 548.92102 -24.845938 
L 547.593081 -24.845938 
L 546.265141 -24.845938 
L 544.937202 -24.845938 
L 543.609263 -24.845938 
L 542.281324 -24.845938 
L 540.953385 -24.845938 
L 539.625446 -24.845938 
L 538.297507 -24.845938 
L 536.969568 -24.845938 
L 535.641629 -24.845938 
L 534.31369 -24.845938 
L 532.985751 -24.845938 
L 531.657812 -24.845938 
L 530.329873 -24.845938 
L 529.001933 -24.845938 
L 527.673994 -24.845938 
L 526.346055 -24.845938 
L 525.018116 -24.845938 
L 523.690177 -24.845938 
L 522.362238 -24.845938 
L 521.034299 -24.845938 
L 519.70636 -24.845938 
L 518.378421 -24.845938 
L 517.050482 -24.845938 
L 515.722543 -24.845938 
L 514.394604 -24.845938 
L 513.066665 -24.845938 
L 511.738725 -24.845938 
L 510.410786 -24.845938 
L 509.082847 -24.845938 
L 507.754908 -24.845938 
L 506.426969 -24.845938 
L 505.09903 -24.845938 
L 503.771091 -24.845938 
L 502.443152 -24.845938 
L 501.115213 -24.845938 
L 499.787274 -24.845938 
L 498.459335 -24.845938 
L 497.131396 -24.845938 
L 495.803457 -24.845938 
L 494.475517 -24.845938 
L 493.147578 -24.845938 
L 491.819639 -24.845938 
L 490.4917 -24.845938 
L 489.163761 -24.845938 
L 487.835822 -24.845938 
L 486.507883 -24.845938 
L 485.179944 -24.845938 
L 483.852005 -24.845938 
L 482.524066 -24.845938 
L 481.196127 -24.845938 
L 479.868188 -24.845938 
L 478.540249 -24.845938 
L 477.212309 -24.845938 
L 475.88437 -24.845938 
L 474.556431 -24.845938 
L 473.228492 -24.845938 
L 471.900553 -24.845938 
L 470.572614 -24.845938 
L 469.244675 -24.845938 
L 467.916736 -24.845938 
L 466.588797 -24.845938 
L 465.260858 -24.845938 
L 463.932919 -24.845938 
L 462.60498 -24.845938 
L 461.277041 -24.845938 
L 459.949101 -24.845938 
L 458.621162 -24.845938 
L 457.293223 -24.845938 
L 455.965284 -24.845938 
L 454.637345 -24.845938 
L 453.309406 -24.845938 
L 451.981467 -24.845938 
L 450.653528 -24.845938 
L 449.325589 -24.845938 
L 447.99765 -24.845938 
L 446.669711 -24.845938 
L 445.341772 -24.845938 
L 444.013833 -24.845938 
L 442.685893 -24.845938 
L 441.357954 -24.845938 
L 440.030015 -24.845938 
L 438.702076 -24.845938 
L 437.374137 -24.845938 
L 436.046198 -24.845938 
L 434.718259 -24.845938 
L 433.39032 -24.845938 
L 432.062381 -24.845938 
L 430.734442 -24.845938 
L 429.406503 -24.845938 
L 428.078564 -24.845938 
L 426.750625 -24.845938 
L 425.422685 -24.845938 
L 424.094746 -24.845938 
L 422.766807 -24.845938 
L 421.438868 -24.845938 
L 420.110929 -24.845938 
L 418.78299 -24.845938 
L 417.455051 -24.845938 
L 416.127112 -24.845938 
L 414.799173 -24.845938 
L 413.471234 -24.845938 
L 412.143295 -24.845938 
L 410.815356 -24.845938 
L 409.487417 -24.845938 
L 408.159477 -24.845938 
L 406.831538 -24.845938 
L 405.503599 -24.845938 
L 404.17566 -24.845938 
L 402.847721 -24.845938 
L 401.519782 -24.845938 
L 400.191843 -24.845938 
L 398.863904 -24.845938 
L 397.535965 -24.845938 
L 396.208026 -24.845938 
L 394.880087 -24.845938 
L 393.552148 -24.845938 
L 392.224209 -24.845938 
L 390.896269 -24.845938 
L 389.56833 -24.845938 
L 388.240391 -24.845938 
L 386.912452 -24.845938 
L 385.584513 -24.845938 
L 384.256574 -24.845938 
L 382.928635 -24.845938 
L 381.600696 -24.845938 
L 380.272757 -24.845938 
L 378.944818 -24.845938 
L 377.616879 -24.845938 
L 376.28894 -24.845938 
L 374.961001 -24.845938 
L 373.633061 -24.845938 
L 372.305122 -24.845938 
L 370.977183 -24.845938 
L 369.649244 -24.845938 
L 368.321305 -24.845938 
L 366.993366 -24.845938 
L 365.665427 -24.845938 
L 364.337488 -24.845938 
L 363.009549 -24.845938 
L 361.68161 -24.845938 
L 360.353671 -24.845938 
L 359.025732 -24.845938 
L 357.697793 -24.845938 
L 356.369853 -24.845938 
L 355.041914 -24.845938 
L 353.713975 -24.845938 
L 352.386036 -24.845938 
L 351.058097 -24.845938 
L 349.730158 -24.845938 
L 348.402219 -24.845938 
L 347.07428 -24.845938 
L 345.746341 -24.845938 
L 344.418402 -24.845938 
L 343.090463 -24.845938 
L 341.762524 -24.845938 
L 340.434585 -24.845938 
L 339.106645 -24.845938 
L 337.778706 -24.845938 
L 336.450767 -24.845938 
L 335.122828 -24.845938 
L 333.794889 -24.845938 
L 332.46695 -24.845938 
L 331.139011 -24.845938 
L 329.811072 -24.845938 
L 328.483133 -24.845938 
L 327.155194 -24.845938 
L 325.827255 -24.845938 
L 324.499316 -24.845938 
L 323.171377 -24.845938 
L 321.843437 -24.845938 
L 320.515498 -24.845938 
L 319.187559 -24.845938 
L 317.85962 -24.845938 
L 316.531681 -24.845938 
L 315.203742 -24.845938 
L 313.875803 -24.845938 
L 312.547864 -24.845938 
L 311.219925 -24.845938 
L 309.891986 -24.845938 
L 308.564047 -24.845938 
L 307.236108 -24.845938 
L 305.908169 -24.845938 
L 304.58023 -24.845938 
L 303.25229 -24.845938 
L 301.924351 -24.845938 
L 300.596412 -24.845938 
L 299.268473 -24.845938 
L 297.940534 -24.845938 
L 296.612595 -24.845938 
L 295.284656 -24.845938 
L 293.956717 -24.845938 
L 292.628778 -24.845938 
L 291.300839 -24.845938 
L 289.9729 -24.845938 
L 288.644961 -24.845938 
L 287.317022 -24.845938 
L 285.989082 -24.845938 
L 284.661143 -24.845938 
L 283.333204 -24.845938 
L 282.005265 -24.845938 
L 280.677326 -24.845938 
L 279.349387 -24.845938 
L 278.021448 -24.845938 
L 276.693509 -24.845938 
L 275.36557 -24.845938 
L 274.037631 -24.845938 
L 272.709692 -24.845938 
L 271.381753 -24.845938 
L 270.053814 -24.845938 
L 268.725874 -24.845938 
L 267.397935 -24.845938 
L 266.069996 -24.845938 
L 264.742057 -24.845938 
L 263.414118 -24.845938 
L 262.086179 -24.845938 
L 260.75824 -24.845938 
L 259.430301 -24.845938 
L 258.102362 -24.845938 
L 256.774423 -24.845938 
L 255.446484 -24.845938 
L 254.118545 -24.845938 
L 252.790606 -24.845938 
L 251.462666 -24.845938 
L 250.134727 -24.845938 
L 248.806788 -24.845938 
L 247.478849 -24.845938 
L 246.15091 -24.845938 
L 244.822971 -24.845938 
L 243.495032 -24.845938 
L 242.167093 -24.845938 
L 240.839154 -24.845938 
L 239.511215 -24.845938 
L 238.183276 -24.845938 
L 236.855337 -24.845938 
L 235.527398 -24.845938 
L 234.199458 -24.845938 
L 232.871519 -24.845938 
L 231.54358 -24.845938 
L 230.215641 -24.845938 
L 228.887702 -24.845938 
L 227.559763 -24.845938 
L 226.231824 -24.845938 
L 224.903885 -24.845938 
L 223.575946 -24.845938 
L 222.248007 -24.845938 
L 220.920068 -24.845938 
L 219.592129 -24.845938 
L 218.26419 -24.845938 
L 216.93625 -24.845938 
L 215.608311 -24.845938 
L 214.280372 -24.845938 
L 212.952433 -24.845938 
L 211.624494 -24.845938 
L 210.296555 -24.845938 
L 208.968616 -24.845938 
L 207.640677 -24.845938 
L 206.312738 -24.845938 
L 204.984799 -24.845938 
L 203.65686 -24.845938 
L 202.328921 -24.845938 
L 201.000982 -24.845938 
L 199.673042 -24.845938 
L 198.345103 -24.845938 
L 197.017164 -24.845938 
L 195.689225 -24.845938 
L 194.361286 -24.845938 
L 193.033347 -24.845938 
L 191.705408 -24.845938 
L 190.377469 -24.845938 
L 189.04953 -24.845938 
L 187.721591 -24.845938 
L 186.393652 -24.845938 
L 185.065713 -24.845938 
L 183.737774 -24.845938 
L 182.409834 -24.845938 
L 181.081895 -24.845938 
L 179.753956 -24.845938 
L 178.426017 -24.845938 
L 177.098078 -24.845938 
L 175.770139 -24.845938 
L 174.4422 -24.845938 
L 173.114261 -24.845938 
L 171.786322 -24.845938 
L 170.458383 -24.845938 
L 169.130444 -24.845938 
L 167.802505 -24.845938 
L 166.474566 -24.845938 
L 165.146626 -24.845938 
L 163.818687 -24.845938 
L 162.490748 -24.845938 
L 161.162809 -24.845938 
L 159.83487 -24.845938 
L 158.506931 -24.845938 
L 157.178992 -24.845938 
L 155.851053 -24.845938 
L 154.523114 -24.845938 
L 153.195175 -24.845938 
L 151.867236 -24.845938 
L 150.539297 -24.845938 
L 149.211358 -24.845938 
L 147.883418 -24.845938 
L 146.555479 -24.845938 
L 145.22754 -24.845938 
L 143.899601 -24.845938 
L 142.571662 -24.845938 
L 141.243723 -24.845938 
L 139.915784 -24.845938 
L 138.587845 -24.845938 
L 137.259906 -24.845938 
L 135.931967 -24.845938 
L 134.604028 -24.845938 
L 133.276089 -24.845938 
L 131.94815 -24.845938 
L 130.62021 -24.845938 
L 129.292271 -24.845938 
L 127.964332 -24.845938 
L 126.636393 -24.845938 
L 125.308454 -24.845938 
L 123.980515 -24.845938 
L 122.652576 -24.845938 
L 121.324637 -24.845938 
L 119.996698 -24.845938 
L 118.668759 -24.845938 
L 117.34082 -24.845938 
L 116.012881 -24.845938 
L 114.684942 -24.845938 
L 113.357002 -24.845938 
L 112.029063 -24.845938 
L 110.701124 -24.845938 
L 109.373185 -24.845938 
L 108.045246 -24.845938 
L 106.717307 -24.845938 
L 105.389368 -24.845938 
L 104.061429 -24.845938 
L 102.73349 -24.845938 
L 101.405551 -24.845938 
L 100.077612 -24.845938 
L 98.749673 -24.845938 
L 97.421734 -24.845938 
L 96.093794 -24.845938 
L 94.765855 -24.845938 
L 93.437916 -24.845938 
L 92.109977 -24.845938 
L 90.782038 -24.845938 
L 89.454099 -24.845938 
L 88.12616 -24.845938 
L 86.798221 -24.845938 
L 85.470282 -24.845938 
L 84.142343 -24.845938 
L 82.814404 -24.845938 
L 81.486465 -24.845938 
L 80.158526 -24.845938 
L 78.830586 -24.845938 
L 77.502647 -24.845938 
L 76.174708 -24.845938 
L 74.846769 -24.845938 
L 73.51883 -24.845938 
L 72.190891 -24.845938 
L 70.862952 -24.845938 
L 69.535013 -24.845938 
L 68.207074 -24.845938 
z
" style="stroke: #800080; stroke-opacity: 0.1"/>
    </defs>
    <g clip-path="url(#p9828ffc62f)">
     <use xlink:href="#m6f111372e7" x="0" y="334.235875" style="fill: #800080; fill-opacity: 0.1; stroke: #800080; stroke-opacity: 0.1"/>
    </g>
   </g>
   <g id="matplotlib.axis_1">
    <g id="xtick_1">
     <g id="line2d_1">
      <path d="M 144.696365 309.389937 
L 144.696365 32.189937 
" clip-path="url(#p9828ffc62f)" style="fill: none; stroke: #b0b0b0; stroke-opacity: 0.5; stroke-width: 0.8; stroke-linecap: square"/>
     </g>
     <g id="line2d_2">
      <defs>
       <path id="m3a1249f1cb" d="M 0 0 
L 0 3.5 
" style="stroke: #000000; stroke-width: 0.8"/>
      </defs>
      <g>
       <use xlink:href="#m3a1249f1cb" x="144.696365" y="309.389937" style="stroke: #000000; stroke-width: 0.8"/>
      </g>
     </g>
     <g id="text_1">
      <text style="font-size: 11px; font-family: 'DejaVu Sans', 'Bitstream Vera Sans', 'Computer Modern Sans Serif', 'Lucida Grande', 'Verdana', 'Geneva', 'Lucid', 'Arial', 'Helvetica', 'Avant Garde', sans-serif; text-anchor: middle" x="144.696365" y="324.748219" transform="rotate(-0 144.696365 324.748219)">01.11.</text>
     </g>
    </g>
    <g id="xtick_2">
     <g id="line2d_3">
      <path d="M 246.682086 309.389937 
L 246.682086 32.189937 
" clip-path="url(#p9828ffc62f)" style="fill: none; stroke: #b0b0b0; stroke-opacity: 0.5; stroke-width: 0.8; stroke-linecap: square"/>
     </g>
     <g id="line2d_4">
      <g>
       <use xlink:href="#m3a1249f1cb" x="246.682086" y="309.389937" style="stroke: #000000; stroke-width: 0.8"/>
      </g>
     </g>
     <g id="text_2">
      <text style="font-size: 11px; font-family: 'DejaVu Sans', 'Bitstream Vera Sans', 'Computer Modern Sans Serif', 'Lucida Grande', 'Verdana', 'Geneva', 'Lucid', 'Arial', 'Helvetica', 'Avant Garde', sans-serif; text-anchor: middle" x="246.682086" y="324.748219" transform="rotate(-0 246.682086 324.748219)">02.11.</text>
     </g>
    </g>
    <g id="xtick_3">
     <g id="line2d_5">
      <path d="M 348.667807 309.389937 
L 348.667807 32.189937 
" clip-path="url(#p9828ffc62f)" style="fill: none; stroke: #b0b0b0; stroke-opacity: 0.5; stroke-width: 0.8; stroke-linecap: square"/>
     </g>
     <g id="line2d_6">
      <g>
       <use xlink:href="#m3a1249f1cb" x="348.667807" y="309.389937" style="stroke: #000000; stroke-width: 0.8"/>
      </g>
     </g>
     <g id="text_3">
      <text style="font-size: 11px; font-family: 'DejaVu Sans', 'Bitstream Vera Sans', 'Computer Modern Sans Serif', 'Lucida Grande', 'Verdana', 'Geneva', 'Lucid', 'Arial', 'Helvetica', 'Avant Garde', sans-serif; text-anchor: middle" x="348.667807" y="324.748219" transform="rotate(-0 348.667807 324.748219)">03.11.</text>
     </g>
    </g>
    <g id="xtick_4">
     <g id="line2d_7">
      <path d="M 450.653528 309.389937 
L 450.653528 32.189937 
" clip-path="url(#p9828ffc62f)" style="fill: none; stroke: #b0b0b0; stroke-opacity: 0.5; stroke-width: 0.8; stroke-linecap: square"/>
     </g>
     <g id="line2d_8">
      <g>
       <use xlink:href="#m3a1249f1cb" x="450.653528" y="309.389937" style="stroke: #000000; stroke-width: 0.8"/>
      </g>
     </g>
     <g id="text_4">
      <text style="font-size: 11px; font-family: 'DejaVu Sans', 'Bitstream Vera Sans', 'Computer Modern Sans Serif', 'Lucida Grande', 'Verdana', 'Geneva', 'Lucid', 'Arial', 'Helvetica', 'Avant Garde', sans-serif; text-anchor: middle" x="450.653528" y="324.748219" transform="rotate(-0 450.653528 324.748219)">04.11.</text>
     </g>
    </g>
    <g id="xtick_5">
     <g id="line2d_9">
      <path d="M 552.639249 309.389937 
L 552.639249 32.189937 
" clip-path="url(#p9828ffc62f)" style="fill: none; stroke: #b0b0b0; stroke-opacity: 0.5; stroke-width: 0.8; stroke-linecap: square"/>
     </g>
     <g id="line2d_10">
      <g>
       <use xlink:href="#m3a1249f1cb" x="552.639249" y="309.389937" style="stroke: #000000; stroke-width: 0.8"/>
      </g>
     </g>
     <g id="text_5">
      <text style="font-size: 11px; font-family: 'DejaVu Sans', 'Bitstream Vera Sans', 'Computer Modern Sans Serif', 'Lucida Grande', 'Verdana', 'Geneva', 'Lucid', 'Arial', 'Helvetica', 'Avant Garde', sans-serif; text-anchor: middle" x="552.639249" y="324.748219" transform="rotate(-0 552.639249 324.748219)">04.11.</text>
     </g>
    </g>
   </g>
   <g id="matplotlib.axis_2">
    <g id="ytick_1">
     <g id="line2d_11">
      <path d="M 42.843438 309.389937 
L 600.843438 309.389937 
" clip-path="url(#p9828ffc62f)" style="fill: none; stroke: #b0b0b0; stroke-opacity: 0.5; stroke-width: 0.8; stroke-linecap: square"/>
     </g>
     <g id="line2d_12">
      <defs>
       <path id="md06c7689fd" d="M 0 0 
L -3.5 0 
" style="stroke: #000000; stroke-width: 0.8"/>
      </defs>
      <g>
       <use xlink:href="#md06c7689fd" x="42.843438" y="309.389937" style="stroke: #000000; stroke-width: 0.8"/>
      </g>
     </g>
     <g id="text_6">
      <text style="font-size: 11px; font-family: 'DejaVu Sans', 'Bitstream Vera Sans', 'Computer Modern Sans Serif', 'Lucida Grande', 'Verdana', 'Geneva', 'Lucid', 'Arial', 'Helvetica', 'Avant Garde', sans-serif; text-anchor: end" x="35.843438" y="313.569078" transform="rotate(-0 35.843438 313.569078)">0</text>
     </g>
    </g>
    <g id="ytick_2">
     <g id="line2d_13">
      <path d="M 42.843438 258.989937 
L 600.843438 258.989937 
" clip-path="url(#p9828ffc62f)" style="fill: none; stroke: #b0b0b0; stroke-opacity: 0.5; stroke-width: 0.8; stroke-linecap: square"/>
     </g>
     <g id="line2d_14">
      <g>
       <use xlink:href="#md06c7689fd" x="42.843438" y="258.989937" style="stroke: #000000; stroke-width: 0.8"/>
      </g>
     </g>
     <g id="text_7">
      <text style="font-size: 11px; font-family: 'DejaVu Sans', 'Bitstream Vera Sans', 'Computer Modern Sans Serif', 'Lucida Grande', 'Verdana', 'Geneva', 'Lucid', 'Arial', 'Helvetica', 'Avant Garde', sans-serif; text-anchor: end" x="35.843438" y="263.169078" transform="rotate(-0 35.843438 263.169078)">10</text>
     </g>
    </g>
    <g id="ytick_3">
     <g id="line2d_15">
      <path d="M 42.843438 208.589937 
L 600.843438 208.589937 
" clip-path="url(#p9828ffc62f)" style="fill: none; stroke: #b0b0b0; stroke-opacity: 0.5; stroke-width: 0.8; stroke-linecap: square"/>
     </g>
     <g id="line2d_16">
      <g>
       <use xlink:href="#md06c7689fd" x="42.843438" y="208.589937" style="stroke: #000000; stroke-width: 0.8"/>
      </g>
     </g>
     <g id="text_8">
      <text style="font-size: 11px; font-family: 'DejaVu Sans', 'Bitstream Vera Sans', 'Computer Modern Sans Serif', 'Lucida Grande', 'Verdana', 'Geneva', 'Lucid', 'Arial', 'Helvetica', 'Avant Garde', sans-serif; text-anchor: end" x="35.843438" y="212.769078" transform="rotate(-0 35.843438 212.769078)">20</text>
     </g>
    </g>
    <g id="ytick_4">
     <g id="line2d_17">
      <path d="M 42.843438 158.189937 
L 600.843438 158.189937 
" clip-path="url(#p9828ffc62f)" style="fill: none; stroke: #b0b0b0; stroke-opacity: 0.5; stroke-width: 0.8; stroke-linecap: square"/>
     </g>
     <g id="line2d_18">
      <g>
       <use xlink:href="#md06c7689fd" x="42.843438" y="158.189937" style="stroke: #000000; stroke-width: 0.8"/>
      </g>
     </g>
     <g id="text_9">
      <text style="font-size: 11px; font-family: 'DejaVu Sans', 'Bitstream Vera Sans', 'Computer Modern Sans Serif', 'Lucida Grande', 'Verdana', 'Geneva', 'Lucid', 'Arial', 'Helvetica', 'Avant Garde', sans-serif; text-anchor: end" x="35.843438" y="162.369078" transform="rotate(-0 35.843438 162.369078)">30</text>
     </g>
    </g>
    <g id="ytick_5">
     <g id="line2d_19">
      <path d="M 42.843438 107.789937 
L 600.843438 107.789937 
" clip-path="url(#p9828ffc62f)" style="fill: none; stroke: #b0b0b0; stroke-opacity: 0.5; stroke-width: 0.8; stroke-linecap: square"/>
     </g>
     <g id="line2d_20">
      <g>
       <use xlink:href="#md06c7689fd" x="42.843438" y="107.789937" style="stroke: #000000; stroke-width: 0.8"/>
      </g>
     </g>
     <g id="text_10">
      <text style="font-size: 11px; font-family: 'DejaVu Sans', 'Bitstream Vera Sans', 'Computer Modern Sans Serif', 'Lucida Grande', 'Verdana', 'Geneva', 'Lucid', 'Arial', 'Helvetica', 'Avant Garde', sans-serif; text-anchor: end" x="35.843438" y="111.969078" transform="rotate(-0 35.843438 111.969078)">40</text>
     </g>
    </g>
    <g id="ytick_6">
     <g id="line2d_21">
      <path d="M 42.843438 57.389937 
L 600.843438 57.389937 
" clip-path="url(#p9828ffc62f)" style="fill: none; stroke: #b0b0b0; stroke-opacity: 0.5; stroke-width: 0.8; stroke-linecap: square"/>
     </g>
     <g id="line2d_22">
      <g>
       <use xlink:href="#md06c7689fd" x="42.843438" y="57.389937" style="stroke: #000000; stroke-width: 0.8"/>
      </g>
     </g>
     <g id="text_11">
      <text style="font-size: 11px; font-family: 'DejaVu Sans', 'Bitstream Vera Sans', 'Computer Modern Sans Serif', 'Lucida Grande', 'Verdana', 'Geneva', 'Lucid', 'Arial', 'Helvetica', 'Avant Garde', sans-serif; text-anchor: end" x="35.843438" y="61.569078" transform="rotate(-0 35.843438 61.569078)">50</text>
     </g>
    </g>
    <g id="text_12">
     <text style="font-size: 11px; font-family: 'DejaVu Sans', 'Bitstream Vera Sans', 'Computer Modern Sans Serif', 'Lucida Grande', 'Verdana', 'Geneva', 'Lucid', 'Arial', 'Helvetica', 'Avant Garde', sans-serif; text-anchor: middle" x="15.558281" y="170.789937" transform="rotate(-90 15.558281 170.789937)">Energie [MWh]</text>
    </g>
   </g>
   <g id="line2d_23">
    <path d="M 68.207074 183.389937 
L 69.535013 190.421917 
L 72.190891 206.88672 
L 76.174708 230.356805 
L 77.502647 237.479117 
L 80.158526 249.930558 
L 82.814404 261.060901 
L 84.142343 268.264349 
L 85.470282 274.123876 
L 86.798221 278.439535 
L 89.454099 264.026833 
L 94.765855 227.646414 
L 97.421734 207.767535 
L 98.749673 198.689246 
L 100.077612 188.640584 
L 102.73349 170.142761 
L 104.061429 160.027794 
L 108.045246 133.469211 
L 110.701124 116.202549 
L 112.029063 120.254246 
L 113.357002 125.318679 
L 116.012881 108.991489 
L 117.34082 114.92501 
L 118.668759 120.194517 
L 119.996698 114.195349 
L 121.324637 106.127619 
L 122.652576 106.803181 
L 126.636393 88.520072 
L 127.964332 84.636545 
L 129.292271 79.111113 
L 130.62021 74.81982 
L 131.94815 69.170529 
L 134.604028 58.715498 
L 135.931967 60.007764 
L 137.259906 61.889206 
L 138.587845 57.389937 
L 143.899601 57.389937 
L 145.22754 58.594886 
L 146.555479 57.414336 
L 147.883418 58.507079 
L 149.211358 57.389937 
L 150.539297 57.553173 
L 151.867236 57.389937 
L 153.195175 57.9743 
L 154.523114 57.389937 
L 157.178992 65.726017 
L 158.506931 69.086714 
L 159.83487 71.887911 
L 161.162809 73.831294 
L 162.490748 77.210357 
L 163.818687 80.21576 
L 165.146626 83.902616 
L 166.474566 86.292861 
L 167.802505 89.843626 
L 169.130444 92.943368 
L 170.458383 96.438073 
L 171.786322 99.500458 
L 173.114261 103.365407 
L 174.4422 105.548004 
L 175.770139 109.713726 
L 177.098078 113.059257 
L 178.426017 117.11799 
L 179.753956 121.813324 
L 183.737774 141.096485 
L 185.065713 146.304468 
L 186.393652 153.41554 
L 187.721591 159.179728 
L 189.04953 166.670252 
L 190.377469 173.297574 
L 193.033347 187.658883 
L 194.361286 194.396632 
L 195.689225 201.979106 
L 197.017164 198.459548 
L 198.345103 194.131705 
L 203.65686 175.008932 
L 204.984799 170.509603 
L 206.312738 164.501348 
L 210.296555 144.563819 
L 211.624494 138.841075 
L 212.952433 131.803728 
L 214.280372 123.633213 
L 215.608311 116.179486 
L 216.93625 109.642682 
L 220.920068 84.480492 
L 222.248007 85.236769 
L 223.575946 75.938312 
L 224.903885 76.466292 
L 226.231824 66.795863 
L 227.559763 67.610362 
L 228.887702 57.85713 
L 230.215641 57.389937 
L 231.54358 57.470658 
L 232.871519 57.774212 
L 235.527398 57.683215 
L 236.855337 57.845201 
L 238.183276 57.389937 
L 240.839154 64.107925 
L 242.167093 65.817125 
L 243.495032 57.389937 
L 244.822971 61.815345 
L 246.15091 65.702672 
L 247.478849 70.341719 
L 248.806788 63.034052 
L 251.462666 75.193052 
L 252.790606 69.181708 
L 254.118545 62.306568 
L 256.774423 76.403912 
L 258.102362 81.496273 
L 259.430301 76.302875 
L 260.75824 73.062165 
L 262.086179 67.457232 
L 263.414118 62.453217 
L 264.742057 69.681283 
L 270.053814 101.501318 
L 271.381753 107.887834 
L 272.709692 112.708589 
L 274.037631 118.567559 
L 275.36557 125.109645 
L 278.021448 135.773666 
L 279.349387 141.39755 
L 280.677326 145.927794 
L 282.005265 149.65377 
L 283.333204 154.396597 
L 284.661143 159.869598 
L 285.989082 164.73216 
L 287.317022 167.470689 
L 289.9729 173.661785 
L 291.300839 177.429029 
L 292.628778 180.757611 
L 295.284656 185.696186 
L 296.612595 188.493517 
L 297.940534 190.585621 
L 299.268473 193.19239 
L 301.924351 200.476551 
L 305.908169 212.642551 
L 307.236108 215.823351 
L 309.891986 225.396105 
L 312.547864 235.72683 
L 319.187559 269.683255 
L 320.515498 278.004641 
L 321.843437 285.364241 
L 323.171377 279.262859 
L 324.499316 287.209295 
L 327.155194 300.792137 
L 328.483133 295.920885 
L 329.811072 303.009478 
L 331.139011 309.389938 
L 332.46695 309.389938 
L 333.794889 303.230139 
L 335.122828 308.99871 
L 336.450767 309.389937 
L 337.778706 306.45238 
L 339.106645 299.636126 
L 340.434585 305.007769 
L 341.762524 296.527114 
L 344.418402 281.636714 
L 345.746341 272.070764 
L 347.07428 275.229039 
L 349.730158 283.092242 
L 351.058097 272.302148 
L 352.386036 275.375429 
L 353.713975 277.714969 
L 355.041914 268.706853 
L 356.369853 258.442221 
L 357.697793 261.212589 
L 359.025732 262.705193 
L 360.353671 264.64478 
L 361.68161 268.046159 
L 364.337488 272.999283 
L 365.665427 276.825903 
L 366.993366 281.202888 
L 368.321305 286.221335 
L 369.649244 290.15745 
L 373.633061 303.865105 
L 374.961001 309.389938 
L 376.28894 301.512069 
L 377.616879 307.690413 
L 378.944818 309.389937 
L 380.272757 302.514973 
L 381.600696 296.972448 
L 384.256574 309.389937 
L 385.584513 303.187404 
L 386.912452 309.389937 
L 388.240391 309.389937 
L 390.896269 300.367242 
L 392.224209 299.684055 
L 393.552148 294.921478 
L 394.880087 294.700332 
L 396.208026 295.368618 
L 397.535965 295.031505 
L 400.191843 283.953655 
L 401.519782 282.088052 
L 402.847721 281.013282 
L 404.17566 273.139853 
L 406.831538 267.934434 
L 408.159477 265.933065 
L 409.487417 270.008566 
L 413.471234 279.859323 
L 417.455051 287.513759 
L 421.438868 295.610473 
L 422.766807 297.183117 
L 424.094746 300.697715 
L 425.422685 303.247999 
L 428.078564 309.389938 
L 429.406503 300.148239 
L 430.734442 303.766398 
L 432.062381 306.748416 
L 433.39032 309.389937 
L 434.718259 304.221406 
L 436.046198 309.389938 
L 437.374137 300.899987 
L 438.702076 306.873889 
L 440.030015 300.190922 
L 441.357954 306.857512 
L 444.013833 297.475736 
L 445.341772 291.106546 
L 446.669711 286.818771 
L 447.99765 281.926333 
L 449.325589 277.591309 
L 451.981467 266.771404 
L 453.309406 261.38833 
L 454.637345 257.330286 
L 455.965284 252.366959 
L 457.293223 247.938644 
L 458.621162 241.620732 
L 461.277041 232.155082 
L 462.60498 226.800823 
L 466.588797 207.043015 
L 467.916736 200.752052 
L 471.900553 178.407111 
L 473.228492 171.424746 
L 475.88437 153.139752 
L 477.212309 144.635417 
L 479.868188 126.071338 
L 481.196127 129.936096 
L 482.524066 132.032509 
L 483.852005 121.931285 
L 485.179944 125.018225 
L 486.507883 127.376955 
L 487.835822 129.262852 
L 489.163761 131.726425 
L 490.4917 136.992171 
L 491.819639 139.637325 
L 494.475517 146.880162 
L 495.803457 151.426016 
L 497.131396 155.444171 
L 498.459335 158.71564 
L 499.787274 164.07825 
L 501.115213 168.791235 
L 502.443152 173.958414 
L 503.771091 166.786892 
L 505.09903 173.5163 
L 506.426969 175.974601 
L 507.754908 169.208804 
L 509.082847 163.600705 
L 510.410786 158.990249 
L 511.738725 153.967778 
L 513.066665 148.339857 
L 514.394604 143.369858 
L 515.722543 137.879967 
L 517.050482 133.436562 
L 518.378421 127.61513 
L 521.034299 117.494407 
L 522.362238 123.878137 
L 525.018116 138.975885 
L 526.346055 132.490181 
L 529.001933 146.556867 
L 530.329873 152.887419 
L 531.657812 156.671602 
L 535.641629 173.109855 
L 539.625446 185.92289 
L 540.953385 189.011715 
L 542.281324 192.519373 
L 543.609263 196.479876 
L 544.937202 198.986883 
L 546.265141 202.684237 
L 548.92102 209.128623 
L 550.248959 212.001004 
L 551.576898 213.450539 
L 552.904837 216.52323 
L 556.888654 227.65779 
L 558.216593 232.222896 
L 559.544532 236.115575 
L 560.872471 239.364152 
L 562.20041 244.000725 
L 563.528349 249.660071 
L 564.856289 253.980198 
L 566.184228 258.988078 
L 567.512167 263.382521 
L 568.840106 268.818137 
L 570.168045 275.564186 
L 571.495984 281.039266 
L 575.479801 301.416823 
L 575.479801 301.416823 
" clip-path="url(#p9828ffc62f)" style="fill: none; stroke: #800080; stroke-width: 2; stroke-linecap: square"/>
   </g>
   <g id="line2d_24">
    <path d="M 42.843438 57.389937 
L 600.843438 57.389937 
" clip-path="url(#p9828ffc62f)" style="fill: none; stroke-dasharray: 1.5,2.475; stroke-dashoffset: 0; stroke: #808080; stroke-width: 1.5"/>
   </g>
   <g id="patch_3">
    <path d="M 42.843438 309.389937 
L 42.843438 32.189937 
" style="fill: none; stroke: #000000; stroke-width: 0.8; stroke-linejoin: miter; stroke-linecap: square"/>
   </g>
   <g id="patch_4">
    <path d="M 600.843438 309.389937 
L 600.843438 32.189937 
" style="fill: none; stroke: #000000; stroke-width: 0.8; stroke-linejoin: miter; stroke-linecap: square"/>
   </g>
   <g id="patch_5">
    <path d="M 42.843437 309.389937 
L 600.843437 309.389937 
" style="fill: none; stroke: #000000; stroke-width: 0.8; stroke-linejoin: miter; stroke-linecap: square"/>
   </g>
   <g id="patch_6">
    <path d="M 42.843437 32.189937 
L 600.843437 32.189937 
" style="fill: none; stroke: #000000; stroke-width: 0.8; stroke-linejoin: miter; stroke-linecap: square"/>
   </g>
   <g id="legend_1">
    <g id="line2d_25">
     <path d="M 47.243438 16.108281 
L 58.243438 16.108281 
L 69.243437 16.108281 
" style="fill: none; stroke: #800080; stroke-width: 2; stroke-linecap: square"/>
    </g>
    <g id="text_13">
     <text style="font-size: 11px; font-family: 'DejaVu Sans', 'Bitstream Vera Sans', 'Computer Modern Sans Serif', 'Lucida Grande', 'Verdana', 'Geneva', 'Lucid', 'Arial', 'Helvetica', 'Avant Garde', sans-serif; text-anchor: start" x="78.043438" y="19.958281" transform="rotate(-0 78.043438 19.958281)">Wärmespeicher SOC</text>
    </g>
   </g>
  </g>
 </g>
 <defs>
  <clipPath id="p9828ffc62f">
   <rect x="42.843438" y="32.189937" width="558" height="277.2"/>
  </clipPath>
 </defs>
</svg>
