<?xml version="1.0" encoding="UTF-8"?><svg xmlns="http://www.w3.org/2000/svg" xmlns:xlink="http://www.w3.org/1999/xlink" fill-opacity="1" color-rendering="auto" color-interpolation="auto" text-rendering="auto" stroke="black" stroke-linecap="square" width="1052" stroke-miterlimit="10" shape-rendering="auto" stroke-opacity="1" fill="black" stroke-dasharray="none" font-weight="normal" stroke-width="1" height="475" font-family="'Dialog'" font-style="normal" stroke-linejoin="miter" font-size="12px" stroke-dashoffset="0" image-rendering="auto">
  <!--Generated by ySVG 2.5-->
  <defs id="genericDefs"/>
  <g>
    <defs id="defs1">
      <clipPath clipPathUnits="userSpaceOnUse" id="clipPath1">
        <path d="M0 0 L1052 0 L1052 475 L0 475 L0 0 Z"/>
      </clipPath>
      <clipPath clipPathUnits="userSpaceOnUse" id="clipPath2">
        <path d="M24 433 L896 433 L896 826.7263 L24 826.7263 L24 433 Z"/>
      </clipPath>
    </defs>
    <g fill="white" text-rendering="geometricPrecision" shape-rendering="geometricPrecision" transform="scale(1.2064,1.2064) translate(-24,-433)" stroke="white">
      <rect x="24" width="872" height="394" y="433" clip-path="url(#clipPath2)" stroke="none"/>
    </g>
    <g stroke-linecap="butt" transform="matrix(1.2064,0,0,1.2064,-28.9541,-522.3807)" text-rendering="geometricPrecision" font-family="sans-serif" shape-rendering="geometricPrecision" font-weight="bold" stroke-miterlimit="1.45">
      <text x="116.5098" xml:space="preserve" y="465.9668" clip-path="url(#clipPath2)" stroke="none">pv feedin series</text>
      <text x="168.4736" xml:space="preserve" y="479.9355" clip-path="url(#clipPath2)" stroke="none"> </text>
      <rect x="39.2188" y="448.8281" clip-path="url(#clipPath2)" fill="none" width="262.6875" rx="4" ry="4" height="68.75"/>
    </g>
    <g fill="rgb(239,239,239)" text-rendering="geometricPrecision" shape-rendering="geometricPrecision" transform="matrix(1.2064,0,0,1.2064,-28.9541,-522.3807)" stroke="rgb(239,239,239)">
      <rect x="132.9688" y="478.8281" clip-path="url(#clipPath2)" width="75" rx="4" ry="4" height="30" stroke="none"/>
    </g>
    <g text-rendering="geometricPrecision" stroke-miterlimit="1.45" shape-rendering="geometricPrecision" font-family="sans-serif" transform="matrix(1.2064,0,0,1.2064,-28.9541,-522.3807)" stroke-linecap="butt">
      <text x="144.5527" xml:space="preserve" y="497.9824" clip-path="url(#clipPath2)" stroke="none">feedinlib</text>
      <rect x="132.9688" y="478.8281" clip-path="url(#clipPath2)" fill="none" width="75" rx="4" ry="4" height="30"/>
    </g>
    <g fill="rgb(239,239,239)" text-rendering="geometricPrecision" shape-rendering="geometricPrecision" transform="matrix(1.2064,0,0,1.2064,-28.9541,-522.3807)" stroke="rgb(239,239,239)">
      <rect x="47.6354" y="479.3281" clip-path="url(#clipPath2)" width="75" rx="4" ry="4" height="30" stroke="none"/>
    </g>
    <g text-rendering="geometricPrecision" stroke-miterlimit="1.45" shape-rendering="geometricPrecision" font-family="sans-serif" transform="matrix(1.2064,0,0,1.2064,-28.9541,-522.3807)" stroke-linecap="butt">
      <text x="70.6335" xml:space="preserve" y="498.4824" clip-path="url(#clipPath2)" stroke="none">pvlib</text>
      <rect x="47.6354" y="479.3281" clip-path="url(#clipPath2)" fill="none" width="75" rx="4" ry="4" height="30"/>
      <text x="81.6699" xml:space="preserve" y="617.2949" clip-path="url(#clipPath2)" font-weight="bold" stroke="none">wind turbine feedin series</text>
      <rect x="39.2188" y="600.1562" clip-path="url(#clipPath2)" fill="none" width="262.6875" rx="4" ry="4" height="68.75"/>
    </g>
    <g fill="rgb(239,239,239)" text-rendering="geometricPrecision" shape-rendering="geometricPrecision" transform="matrix(1.2064,0,0,1.2064,-28.9541,-522.3807)" stroke="rgb(239,239,239)">
      <rect x="47.6354" y="630.6562" clip-path="url(#clipPath2)" width="75" rx="4" ry="4" height="30" stroke="none"/>
    </g>
    <g text-rendering="geometricPrecision" stroke-miterlimit="1.45" shape-rendering="geometricPrecision" font-family="sans-serif" transform="matrix(1.2064,0,0,1.2064,-28.9541,-522.3807)" stroke-linecap="butt">
      <text x="59.2194" xml:space="preserve" y="649.8105" clip-path="url(#clipPath2)" stroke="none">feedinlib</text>
      <rect x="47.6354" y="630.6562" clip-path="url(#clipPath2)" fill="none" width="75" rx="4" ry="4" height="30"/>
      <text x="413.5062" xml:space="preserve" y="638.6855" clip-path="url(#clipPath2)" stroke="none">Main application</text>
      <rect x="380.8333" y="593.75" clip-path="url(#clipPath2)" fill="none" width="164" rx="4" ry="4" height="81.5625"/>
      <text x="372.3031" xml:space="preserve" y="465.9668" clip-path="url(#clipPath2)" font-weight="bold" stroke="none">creating an energy system</text>
      <rect x="331.9062" y="448.8281" clip-path="url(#clipPath2)" fill="none" width="261.8542" rx="4" ry="4" height="68.75"/>
    </g>
    <g fill="rgb(239,239,239)" text-rendering="geometricPrecision" shape-rendering="geometricPrecision" transform="matrix(1.2064,0,0,1.2064,-28.9541,-522.3807)" stroke="rgb(239,239,239)">
      <rect x="425.3333" y="478.8281" clip-path="url(#clipPath2)" width="75" rx="4" ry="4" height="30" stroke="none"/>
    </g>
    <g text-rendering="geometricPrecision" stroke-miterlimit="1.45" shape-rendering="geometricPrecision" font-family="sans-serif" transform="matrix(1.2064,0,0,1.2064,-28.9541,-522.3807)" stroke-linecap="butt">
      <text x="446.7581" xml:space="preserve" y="497.9824" clip-path="url(#clipPath2)" stroke="none">solph</text>
      <rect x="425.3333" y="478.8281" clip-path="url(#clipPath2)" fill="none" width="75" rx="4" ry="4" height="30"/>
    </g>
    <g fill="rgb(239,239,239)" text-rendering="geometricPrecision" shape-rendering="geometricPrecision" transform="matrix(1.2064,0,0,1.2064,-28.9541,-522.3807)" stroke="rgb(239,239,239)">
      <rect x="337.9375" y="479.3281" clip-path="url(#clipPath2)" width="75" rx="4" ry="4" height="30" stroke="none"/>
    </g>
    <g text-rendering="geometricPrecision" stroke-miterlimit="1.45" shape-rendering="geometricPrecision" font-family="sans-serif" transform="matrix(1.2064,0,0,1.2064,-28.9541,-522.3807)" stroke-linecap="butt">
      <text x="351.0713" xml:space="preserve" y="498.4824" clip-path="url(#clipPath2)" stroke="none">network</text>
      <rect x="337.9375" y="479.3281" clip-path="url(#clipPath2)" fill="none" width="75" rx="4" ry="4" height="30"/>
    </g>
    <g fill="rgb(239,239,239)" text-rendering="geometricPrecision" shape-rendering="geometricPrecision" transform="matrix(1.2064,0,0,1.2064,-28.9541,-522.3807)" stroke="rgb(239,239,239)">
      <rect x="218.3021" y="478.8281" clip-path="url(#clipPath2)" width="75" rx="4" ry="4" height="30" stroke="none"/>
    </g>
    <g text-rendering="geometricPrecision" stroke-miterlimit="1.45" shape-rendering="geometricPrecision" transform="matrix(1.2064,0,0,1.2064,-28.9541,-522.3807)" stroke-linecap="butt">
      <rect x="218.3021" y="478.8281" clip-path="url(#clipPath2)" fill="none" width="75" rx="4" ry="4" height="30"/>
    </g>
    <g fill="rgb(239,239,239)" text-rendering="geometricPrecision" shape-rendering="geometricPrecision" transform="matrix(1.2064,0,0,1.2064,-28.9541,-522.3807)" stroke="rgb(239,239,239)">
      <rect x="133.0625" y="630.6562" clip-path="url(#clipPath2)" width="75" rx="4" ry="4" height="30" stroke="none"/>
    </g>
    <g text-rendering="geometricPrecision" stroke-miterlimit="1.45" shape-rendering="geometricPrecision" transform="matrix(1.2064,0,0,1.2064,-28.9541,-522.3807)" stroke-linecap="butt">
      <rect x="133.0625" y="630.6562" clip-path="url(#clipPath2)" fill="none" width="75" rx="4" ry="4" height="30"/>
    </g>
    <g fill="rgb(239,239,239)" text-rendering="geometricPrecision" shape-rendering="geometricPrecision" transform="matrix(1.2064,0,0,1.2064,-28.9541,-522.3807)" stroke="rgb(239,239,239)">
      <rect x="218.4896" y="630.6562" clip-path="url(#clipPath2)" width="75" rx="4" ry="4" height="30" stroke="none"/>
    </g>
    <g text-rendering="geometricPrecision" stroke-miterlimit="1.45" shape-rendering="geometricPrecision" transform="matrix(1.2064,0,0,1.2064,-28.9541,-522.3807)" stroke-linecap="butt">
      <rect x="218.4896" y="630.6562" clip-path="url(#clipPath2)" fill="none" width="75" rx="4" ry="4" height="30"/>
    </g>
    <g fill="rgb(239,239,239)" text-rendering="geometricPrecision" shape-rendering="geometricPrecision" transform="matrix(1.2064,0,0,1.2064,-28.9541,-522.3807)" stroke="rgb(239,239,239)">
      <rect x="512.7292" y="478.8281" clip-path="url(#clipPath2)" width="75" rx="4" ry="4" height="30" stroke="none"/>
    </g>
    <g text-rendering="geometricPrecision" stroke-miterlimit="1.45" shape-rendering="geometricPrecision" transform="matrix(1.2064,0,0,1.2064,-28.9541,-522.3807)" stroke-linecap="butt">
      <rect x="512.7292" y="478.8281" clip-path="url(#clipPath2)" fill="none" width="75" rx="4" ry="4" height="30"/>
      <text x="664.5397" y="465.4668" clip-path="url(#clipPath2)" font-family="sans-serif" stroke="none" font-weight="bold" xml:space="preserve">simulation / optimisation</text>
      <rect x="617.7292" y="448.3281" clip-path="url(#clipPath2)" fill="none" width="262.6875" rx="4" ry="4" height="68.75"/>
    </g>
    <g fill="rgb(239,239,239)" text-rendering="geometricPrecision" shape-rendering="geometricPrecision" transform="matrix(1.2064,0,0,1.2064,-28.9541,-522.3807)" stroke="rgb(239,239,239)">
      <rect x="711.4792" y="478.3281" clip-path="url(#clipPath2)" width="75" rx="4" ry="4" height="30" stroke="none"/>
    </g>
    <g text-rendering="geometricPrecision" stroke-miterlimit="1.45" shape-rendering="geometricPrecision" transform="matrix(1.2064,0,0,1.2064,-28.9541,-522.3807)" stroke-linecap="butt">
      <rect x="711.4792" y="478.3281" clip-path="url(#clipPath2)" fill="none" width="75" rx="4" ry="4" height="30"/>
    </g>
    <g fill="rgb(239,239,239)" text-rendering="geometricPrecision" shape-rendering="geometricPrecision" transform="matrix(1.2064,0,0,1.2064,-28.9541,-522.3807)" stroke="rgb(239,239,239)">
      <rect x="626.1458" y="478.8281" clip-path="url(#clipPath2)" width="75" rx="4" ry="4" height="30" stroke="none"/>
    </g>
    <g text-rendering="geometricPrecision" stroke-miterlimit="1.45" shape-rendering="geometricPrecision" font-family="sans-serif" transform="matrix(1.2064,0,0,1.2064,-28.9541,-522.3807)" stroke-linecap="butt">
      <text x="647.5706" xml:space="preserve" y="497.9824" clip-path="url(#clipPath2)" stroke="none">solph</text>
      <rect x="626.1458" y="478.8281" clip-path="url(#clipPath2)" fill="none" width="75" rx="4" ry="4" height="30"/>
    </g>
    <g fill="rgb(239,239,239)" text-rendering="geometricPrecision" shape-rendering="geometricPrecision" transform="matrix(1.2064,0,0,1.2064,-28.9541,-522.3807)" stroke="rgb(239,239,239)">
      <rect x="796.8125" y="478.3281" clip-path="url(#clipPath2)" width="75" rx="4" ry="4" height="30" stroke="none"/>
    </g>
    <g text-rendering="geometricPrecision" stroke-miterlimit="1.45" shape-rendering="geometricPrecision" transform="matrix(1.2064,0,0,1.2064,-28.9541,-522.3807)" stroke-linecap="butt">
      <rect x="796.8125" y="478.3281" clip-path="url(#clipPath2)" fill="none" width="75" rx="4" ry="4" height="30"/>
      <text x="653.5534" y="617.2949" clip-path="url(#clipPath2)" font-family="sans-serif" stroke="none" font-weight="bold" xml:space="preserve">processing results / plotting</text>
      <rect x="617.6354" y="600.1562" clip-path="url(#clipPath2)" fill="none" width="262.6875" rx="4" ry="4" height="68.75"/>
    </g>
    <g fill="rgb(239,239,239)" text-rendering="geometricPrecision" shape-rendering="geometricPrecision" transform="matrix(1.2064,0,0,1.2064,-28.9541,-522.3807)" stroke="rgb(239,239,239)">
      <rect x="711.3854" y="630.1562" clip-path="url(#clipPath2)" width="75" rx="4" ry="4" height="30" stroke="none"/>
    </g>
    <g text-rendering="geometricPrecision" stroke-miterlimit="1.45" shape-rendering="geometricPrecision" transform="matrix(1.2064,0,0,1.2064,-28.9541,-522.3807)" stroke-linecap="butt">
      <rect x="711.3854" y="630.1562" clip-path="url(#clipPath2)" fill="none" width="75" rx="4" ry="4" height="30"/>
    </g>
    <g fill="rgb(239,239,239)" text-rendering="geometricPrecision" shape-rendering="geometricPrecision" transform="matrix(1.2064,0,0,1.2064,-28.9541,-522.3807)" stroke="rgb(239,239,239)">
      <rect x="626.0521" y="630.6562" clip-path="url(#clipPath2)" width="75" rx="4" ry="4" height="30" stroke="none"/>
    </g>
    <g text-rendering="geometricPrecision" stroke-miterlimit="1.45" shape-rendering="geometricPrecision" font-family="sans-serif" transform="matrix(1.2064,0,0,1.2064,-28.9541,-522.3807)" stroke-linecap="butt">
      <text x="636.6194" xml:space="preserve" y="649.8105" clip-path="url(#clipPath2)" stroke="none">outputlib</text>
      <rect x="626.0521" y="630.6562" clip-path="url(#clipPath2)" fill="none" width="75" rx="4" ry="4" height="30"/>
    </g>
    <g fill="rgb(239,239,239)" text-rendering="geometricPrecision" shape-rendering="geometricPrecision" transform="matrix(1.2064,0,0,1.2064,-28.9541,-522.3807)" stroke="rgb(239,239,239)">
      <rect x="796.7188" y="630.1562" clip-path="url(#clipPath2)" width="75" rx="4" ry="4" height="30" stroke="none"/>
    </g>
    <g text-rendering="geometricPrecision" stroke-miterlimit="1.45" shape-rendering="geometricPrecision" transform="matrix(1.2064,0,0,1.2064,-28.9541,-522.3807)" stroke-linecap="butt">
      <rect x="796.7188" y="630.1562" clip-path="url(#clipPath2)" fill="none" width="75" rx="4" ry="4" height="30"/>
      <text x="115.502" y="760.373" clip-path="url(#clipPath2)" font-family="sans-serif" stroke="none" font-weight="bold" xml:space="preserve">demand profiles</text>
      <rect x="39.2188" y="743.2344" clip-path="url(#clipPath2)" fill="none" width="262.6875" rx="4" ry="4" height="68.75"/>
    </g>
    <g fill="rgb(239,239,239)" text-rendering="geometricPrecision" shape-rendering="geometricPrecision" transform="matrix(1.2064,0,0,1.2064,-28.9541,-522.3807)" stroke="rgb(239,239,239)">
      <rect x="47.6354" y="773.7344" clip-path="url(#clipPath2)" width="75" rx="4" ry="4" height="30" stroke="none"/>
    </g>
    <g text-rendering="geometricPrecision" stroke-miterlimit="1.45" shape-rendering="geometricPrecision" font-family="sans-serif" transform="matrix(1.2064,0,0,1.2064,-28.9541,-522.3807)" stroke-linecap="butt">
      <text x="53.36" xml:space="preserve" y="792.8887" clip-path="url(#clipPath2)" stroke="none">demandlib</text>
      <rect x="47.6354" y="773.7344" clip-path="url(#clipPath2)" fill="none" width="75" rx="4" ry="4" height="30"/>
    </g>
    <g fill="rgb(239,239,239)" text-rendering="geometricPrecision" shape-rendering="geometricPrecision" transform="matrix(1.2064,0,0,1.2064,-28.9541,-522.3807)" stroke="rgb(239,239,239)">
      <rect x="133.0625" y="773.7344" clip-path="url(#clipPath2)" width="75" rx="4" ry="4" height="30" stroke="none"/>
    </g>
    <g text-rendering="geometricPrecision" stroke-miterlimit="1.45" shape-rendering="geometricPrecision" transform="matrix(1.2064,0,0,1.2064,-28.9541,-522.3807)" stroke-linecap="butt">
      <rect x="133.0625" y="773.7344" clip-path="url(#clipPath2)" fill="none" width="75" rx="4" ry="4" height="30"/>
    </g>
    <g fill="rgb(239,239,239)" text-rendering="geometricPrecision" shape-rendering="geometricPrecision" transform="matrix(1.2064,0,0,1.2064,-28.9541,-522.3807)" stroke="rgb(239,239,239)">
      <rect x="218.4896" y="773.7344" clip-path="url(#clipPath2)" width="75" rx="4" ry="4" height="30" stroke="none"/>
    </g>
    <g text-rendering="geometricPrecision" stroke-miterlimit="1.45" shape-rendering="geometricPrecision" transform="matrix(1.2064,0,0,1.2064,-28.9541,-522.3807)" stroke-linecap="butt">
      <rect x="218.4896" y="773.7344" clip-path="url(#clipPath2)" fill="none" width="75" rx="4" ry="4" height="30"/>
      <text x="677.8464" y="760.373" clip-path="url(#clipPath2)" font-family="sans-serif" stroke="none" font-weight="bold" xml:space="preserve">missing functionality</text>
      <rect x="617.6354" y="743.2344" clip-path="url(#clipPath2)" fill="none" width="262.6875" rx="4" ry="4" height="68.75"/>
    </g>
    <g fill="rgb(239,239,239)" text-rendering="geometricPrecision" shape-rendering="geometricPrecision" transform="matrix(1.2064,0,0,1.2064,-28.9541,-522.3807)" stroke="rgb(239,239,239)">
      <rect x="626.0521" y="773.7344" clip-path="url(#clipPath2)" width="75" rx="4" ry="4" height="30" stroke="none"/>
    </g>
    <g text-rendering="geometricPrecision" stroke-miterlimit="1.45" shape-rendering="geometricPrecision" transform="matrix(1.2064,0,0,1.2064,-28.9541,-522.3807)" stroke-linecap="butt">
      <rect x="626.0521" y="773.7344" clip-path="url(#clipPath2)" fill="none" width="75" rx="4" ry="4" height="30"/>
    </g>
    <g fill="rgb(239,239,239)" text-rendering="geometricPrecision" shape-rendering="geometricPrecision" transform="matrix(1.2064,0,0,1.2064,-28.9541,-522.3807)" stroke="rgb(239,239,239)">
      <rect x="711.4792" y="773.7344" clip-path="url(#clipPath2)" width="75" rx="4" ry="4" height="30" stroke="none"/>
    </g>
    <g text-rendering="geometricPrecision" stroke-miterlimit="1.45" shape-rendering="geometricPrecision" transform="matrix(1.2064,0,0,1.2064,-28.9541,-522.3807)" stroke-linecap="butt">
      <rect x="711.4792" y="773.7344" clip-path="url(#clipPath2)" fill="none" width="75" rx="4" ry="4" height="30"/>
    </g>
    <g fill="rgb(239,239,239)" text-rendering="geometricPrecision" shape-rendering="geometricPrecision" transform="matrix(1.2064,0,0,1.2064,-28.9541,-522.3807)" stroke="rgb(239,239,239)">
      <rect x="796.9062" y="773.7344" clip-path="url(#clipPath2)" width="75" rx="4" ry="4" height="30" stroke="none"/>
    </g>
    <g text-rendering="geometricPrecision" stroke-miterlimit="1.45" shape-rendering="geometricPrecision" transform="matrix(1.2064,0,0,1.2064,-28.9541,-522.3807)" stroke-linecap="butt">
      <rect x="796.9062" y="773.7344" clip-path="url(#clipPath2)" fill="none" width="75" rx="4" ry="4" height="30"/>
      <path fill="none" d="M309.8917 634.5312 L372.8301 634.5312" clip-path="url(#clipPath2)"/>
      <path d="M301.8917 634.5312 L313.8917 639.5312 L310.8917 634.5312 L313.8917 629.5312 Z" clip-path="url(#clipPath2)" stroke="none"/>
      <path d="M380.8301 634.5312 L368.8301 629.5312 L371.8301 634.5312 L368.8301 639.5312 Z" clip-path="url(#clipPath2)" stroke="none"/>
      <path fill="none" d="M244.0627 521.2591 L377.0645 590.123" clip-path="url(#clipPath2)"/>
      <path d="M236.9585 517.5807 L245.3158 527.5384 L244.9507 521.7189 L249.9138 518.6581 Z" clip-path="url(#clipPath2)" stroke="none"/>
      <path d="M384.1687 593.8013 L375.8113 583.8437 L376.1764 589.6632 L371.2134 592.7239 Z" clip-path="url(#clipPath2)" stroke="none"/>
      <path fill="none" d="M462.8333 525.5992 L462.8333 585.7364" clip-path="url(#clipPath2)"/>
      <path d="M462.8333 517.5992 L457.8333 529.5992 L462.8333 526.5992 L467.8333 529.5992 Z" clip-path="url(#clipPath2)" stroke="none"/>
      <path d="M462.8333 593.7364 L467.8333 581.7364 L462.8333 584.7364 L457.8333 581.7364 Z" clip-path="url(#clipPath2)" stroke="none"/>
      <path fill="none" d="M677.1893 520.8318 L546.7988 589.994" clip-path="url(#clipPath2)"/>
      <path d="M684.2567 517.0831 L671.3127 518.2891 L676.3059 521.3004 L675.9986 527.1232 Z" clip-path="url(#clipPath2)" stroke="none"/>
      <path d="M539.7314 593.7427 L552.6754 592.5368 L547.6823 589.5255 L547.9896 583.7026 Z" clip-path="url(#clipPath2)" stroke="none"/>
      <path fill="none" d="M552.8138 634.5312 L609.6375 634.5312" clip-path="url(#clipPath2)"/>
      <path d="M544.8138 634.5312 L556.8138 639.5312 L553.8138 634.5312 L556.8138 629.5312 Z" clip-path="url(#clipPath2)" stroke="none"/>
      <path d="M617.6375 634.5312 L605.6375 629.5312 L608.6375 634.5312 L605.6375 639.5312 Z" clip-path="url(#clipPath2)" stroke="none"/>
      <path fill="none" d="M247.9969 739.7021 L374.8021 677.626" clip-path="url(#clipPath2)"/>
      <path d="M240.8117 743.2196 L253.7879 742.4342 L248.8951 739.2625 L249.3911 733.4526 Z" clip-path="url(#clipPath2)" stroke="none"/>
      <path d="M381.9873 674.1086 L369.011 674.894 L373.9039 678.0657 L373.4079 683.8755 Z" clip-path="url(#clipPath2)" stroke="none"/>
      <path fill="none" d="M550.2227 678.2275 L673.0776 739.6572" clip-path="url(#clipPath2)"/>
      <path d="M543.0673 674.6497 L551.5643 684.4885 L551.1171 678.6747 L556.0365 675.5443 Z" clip-path="url(#clipPath2)" stroke="none"/>
      <path d="M680.233 743.235 L671.736 733.3962 L672.1832 739.21 L667.2638 742.3405 Z" clip-path="url(#clipPath2)" stroke="none"/>
    </g>
  </g>
</svg>
