<?xml version="1.0" encoding="utf-8" standalone="no"?>
<!DOCTYPE svg PUBLIC "-//W3C//DTD SVG 1.1//EN"
  "http://www.w3.org/Graphics/SVG/1.1/DTD/svg11.dtd">
<svg xmlns:xlink="http://www.w3.org/1999/xlink" width="288pt" height="144pt" viewBox="0 0 288 144" xmlns="http://www.w3.org/2000/svg" version="1.1">
 <metadata>
  <rdf:RDF xmlns:dc="http://purl.org/dc/elements/1.1/" xmlns:cc="http://creativecommons.org/ns#" xmlns:rdf="http://www.w3.org/1999/02/22-rdf-syntax-ns#">
   <cc:Work>
    <dc:type rdf:resource="http://purl.org/dc/dcmitype/StillImage"/>
    <dc:date>2026-02-02T14:15:15.225825</dc:date>
    <dc:format>image/svg+xml</dc:format>
    <dc:creator>
     <cc:Agent>
      <dc:title>Matplotlib v3.10.1, https://matplotlib.org/</dc:title>
     </cc:Agent>
    </dc:creator>
   </cc:Work>
  </rdf:RDF>
 </metadata>
 <defs>
  <style type="text/css">*{stroke-linejoin: round; stroke-linecap: butt}</style>
 </defs>
 <g id="figure_1">
  <g id="patch_1">
   <path d="M 0 144 
L 288 144 
L 288 0 
L 0 0 
z
" style="fill: #ffffff"/>
  </g>
  <g id="axes_1">
   <g id="patch_2">
    <path d="M 54.978125 102.84375 
L 272.667008 102.84375 
L 272.667008 10.8 
L 54.978125 10.8 
z
" style="fill: #ffffff"/>
   </g>
   <g id="matplotlib.axis_1">
    <g id="xtick_1">
     <g id="line2d_1">
      <path d="M 56.76246 102.84375 
L 56.76246 10.8 
" clip-path="url(#p266c18231d)" style="fill: none; stroke: #b0b0b0; stroke-width: 0.8; stroke-linecap: square"/>
     </g>
     <g id="line2d_2">
      <defs>
       <path id="m63ff19baf1" d="M 0 0 
L 0 3.5 
" style="stroke: #000000; stroke-width: 0.8"/>
      </defs>
      <g>
       <use xlink:href="#m63ff19baf1" x="56.76246" y="102.84375" style="stroke: #000000; stroke-width: 0.8"/>
      </g>
     </g>
     <g id="text_1">
      <!-- 0 -->
      <g transform="translate(53.58121 117.442187) scale(0.1 -0.1)">
       <defs>
        <path id="DejaVuSans-30" d="M 2034 4250 
Q 1547 4250 1301 3770 
Q 1056 3291 1056 2328 
Q 1056 1369 1301 889 
Q 1547 409 2034 409 
Q 2525 409 2770 889 
Q 3016 1369 3016 2328 
Q 3016 3291 2770 3770 
Q 2525 4250 2034 4250 
z
M 2034 4750 
Q 2819 4750 3233 4129 
Q 3647 3509 3647 2328 
Q 3647 1150 3233 529 
Q 2819 -91 2034 -91 
Q 1250 -91 836 529 
Q 422 1150 422 2328 
Q 422 3509 836 4129 
Q 1250 4750 2034 4750 
z
" transform="scale(0.015625)"/>
       </defs>
       <use xlink:href="#DejaVuSans-30"/>
      </g>
     </g>
    </g>
    <g id="xtick_2">
     <g id="line2d_3">
      <path d="M 92.449162 102.84375 
L 92.449162 10.8 
" clip-path="url(#p266c18231d)" style="fill: none; stroke: #b0b0b0; stroke-width: 0.8; stroke-linecap: square"/>
     </g>
     <g id="line2d_4">
      <g>
       <use xlink:href="#m63ff19baf1" x="92.449162" y="102.84375" style="stroke: #000000; stroke-width: 0.8"/>
      </g>
     </g>
     <g id="text_2">
      <!-- 2 -->
      <g transform="translate(89.267912 117.442187) scale(0.1 -0.1)">
       <defs>
        <path id="DejaVuSans-32" d="M 1228 531 
L 3431 531 
L 3431 0 
L 469 0 
L 469 531 
Q 828 903 1448 1529 
Q 2069 2156 2228 2338 
Q 2531 2678 2651 2914 
Q 2772 3150 2772 3378 
Q 2772 3750 2511 3984 
Q 2250 4219 1831 4219 
Q 1534 4219 1204 4116 
Q 875 4013 500 3803 
L 500 4441 
Q 881 4594 1212 4672 
Q 1544 4750 1819 4750 
Q 2544 4750 2975 4387 
Q 3406 4025 3406 3419 
Q 3406 3131 3298 2873 
Q 3191 2616 2906 2266 
Q 2828 2175 2409 1742 
Q 1991 1309 1228 531 
z
" transform="scale(0.015625)"/>
       </defs>
       <use xlink:href="#DejaVuSans-32"/>
      </g>
     </g>
    </g>
    <g id="xtick_3">
     <g id="line2d_5">
      <path d="M 128.135864 102.84375 
L 128.135864 10.8 
" clip-path="url(#p266c18231d)" style="fill: none; stroke: #b0b0b0; stroke-width: 0.8; stroke-linecap: square"/>
     </g>
     <g id="line2d_6">
      <g>
       <use xlink:href="#m63ff19baf1" x="128.135864" y="102.84375" style="stroke: #000000; stroke-width: 0.8"/>
      </g>
     </g>
     <g id="text_3">
      <!-- 4 -->
      <g transform="translate(124.954614 117.442187) scale(0.1 -0.1)">
       <defs>
        <path id="DejaVuSans-34" d="M 2419 4116 
L 825 1625 
L 2419 1625 
L 2419 4116 
z
M 2253 4666 
L 3047 4666 
L 3047 1625 
L 3713 1625 
L 3713 1100 
L 3047 1100 
L 3047 0 
L 2419 0 
L 2419 1100 
L 313 1100 
L 313 1709 
L 2253 4666 
z
" transform="scale(0.015625)"/>
       </defs>
       <use xlink:href="#DejaVuSans-34"/>
      </g>
     </g>
    </g>
    <g id="xtick_4">
     <g id="line2d_7">
      <path d="M 163.822567 102.84375 
L 163.822567 10.8 
" clip-path="url(#p266c18231d)" style="fill: none; stroke: #b0b0b0; stroke-width: 0.8; stroke-linecap: square"/>
     </g>
     <g id="line2d_8">
      <g>
       <use xlink:href="#m63ff19baf1" x="163.822567" y="102.84375" style="stroke: #000000; stroke-width: 0.8"/>
      </g>
     </g>
     <g id="text_4">
      <!-- 6 -->
      <g transform="translate(160.641317 117.442187) scale(0.1 -0.1)">
       <defs>
        <path id="DejaVuSans-36" d="M 2113 2584 
Q 1688 2584 1439 2293 
Q 1191 2003 1191 1497 
Q 1191 994 1439 701 
Q 1688 409 2113 409 
Q 2538 409 2786 701 
Q 3034 994 3034 1497 
Q 3034 2003 2786 2293 
Q 2538 2584 2113 2584 
z
M 3366 4563 
L 3366 3988 
Q 3128 4100 2886 4159 
Q 2644 4219 2406 4219 
Q 1781 4219 1451 3797 
Q 1122 3375 1075 2522 
Q 1259 2794 1537 2939 
Q 1816 3084 2150 3084 
Q 2853 3084 3261 2657 
Q 3669 2231 3669 1497 
Q 3669 778 3244 343 
Q 2819 -91 2113 -91 
Q 1303 -91 875 529 
Q 447 1150 447 2328 
Q 447 3434 972 4092 
Q 1497 4750 2381 4750 
Q 2619 4750 2861 4703 
Q 3103 4656 3366 4563 
z
" transform="scale(0.015625)"/>
       </defs>
       <use xlink:href="#DejaVuSans-36"/>
      </g>
     </g>
    </g>
    <g id="xtick_5">
     <g id="line2d_9">
      <path d="M 199.509269 102.84375 
L 199.509269 10.8 
" clip-path="url(#p266c18231d)" style="fill: none; stroke: #b0b0b0; stroke-width: 0.8; stroke-linecap: square"/>
     </g>
     <g id="line2d_10">
      <g>
       <use xlink:href="#m63ff19baf1" x="199.509269" y="102.84375" style="stroke: #000000; stroke-width: 0.8"/>
      </g>
     </g>
     <g id="text_5">
      <!-- 8 -->
      <g transform="translate(196.328019 117.442187) scale(0.1 -0.1)">
       <defs>
        <path id="DejaVuSans-38" d="M 2034 2216 
Q 1584 2216 1326 1975 
Q 1069 1734 1069 1313 
Q 1069 891 1326 650 
Q 1584 409 2034 409 
Q 2484 409 2743 651 
Q 3003 894 3003 1313 
Q 3003 1734 2745 1975 
Q 2488 2216 2034 2216 
z
M 1403 2484 
Q 997 2584 770 2862 
Q 544 3141 544 3541 
Q 544 4100 942 4425 
Q 1341 4750 2034 4750 
Q 2731 4750 3128 4425 
Q 3525 4100 3525 3541 
Q 3525 3141 3298 2862 
Q 3072 2584 2669 2484 
Q 3125 2378 3379 2068 
Q 3634 1759 3634 1313 
Q 3634 634 3220 271 
Q 2806 -91 2034 -91 
Q 1263 -91 848 271 
Q 434 634 434 1313 
Q 434 1759 690 2068 
Q 947 2378 1403 2484 
z
M 1172 3481 
Q 1172 3119 1398 2916 
Q 1625 2713 2034 2713 
Q 2441 2713 2670 2916 
Q 2900 3119 2900 3481 
Q 2900 3844 2670 4047 
Q 2441 4250 2034 4250 
Q 1625 4250 1398 4047 
Q 1172 3844 1172 3481 
z
" transform="scale(0.015625)"/>
       </defs>
       <use xlink:href="#DejaVuSans-38"/>
      </g>
     </g>
    </g>
    <g id="xtick_6">
     <g id="line2d_11">
      <path d="M 235.195971 102.84375 
L 235.195971 10.8 
" clip-path="url(#p266c18231d)" style="fill: none; stroke: #b0b0b0; stroke-width: 0.8; stroke-linecap: square"/>
     </g>
     <g id="line2d_12">
      <g>
       <use xlink:href="#m63ff19baf1" x="235.195971" y="102.84375" style="stroke: #000000; stroke-width: 0.8"/>
      </g>
     </g>
     <g id="text_6">
      <!-- 10 -->
      <g transform="translate(228.833471 117.442187) scale(0.1 -0.1)">
       <defs>
        <path id="DejaVuSans-31" d="M 794 531 
L 1825 531 
L 1825 4091 
L 703 3866 
L 703 4441 
L 1819 4666 
L 2450 4666 
L 2450 531 
L 3481 531 
L 3481 0 
L 794 0 
L 794 531 
z
" transform="scale(0.015625)"/>
       </defs>
       <use xlink:href="#DejaVuSans-31"/>
       <use xlink:href="#DejaVuSans-30" transform="translate(63.623047 0)"/>
      </g>
     </g>
    </g>
    <g id="xtick_7">
     <g id="line2d_13">
      <path d="M 270.882673 102.84375 
L 270.882673 10.8 
" clip-path="url(#p266c18231d)" style="fill: none; stroke: #b0b0b0; stroke-width: 0.8; stroke-linecap: square"/>
     </g>
     <g id="line2d_14">
      <g>
       <use xlink:href="#m63ff19baf1" x="270.882673" y="102.84375" style="stroke: #000000; stroke-width: 0.8"/>
      </g>
     </g>
     <g id="text_7">
      <!-- 12 -->
      <g transform="translate(264.520173 117.442187) scale(0.1 -0.1)">
       <use xlink:href="#DejaVuSans-31"/>
       <use xlink:href="#DejaVuSans-32" transform="translate(63.623047 0)"/>
      </g>
     </g>
    </g>
    <g id="text_8">
     <!-- Duration (h) -->
     <g transform="translate(133.447567 131.120312) scale(0.1 -0.1)">
      <defs>
       <path id="DejaVuSans-44" d="M 1259 4147 
L 1259 519 
L 2022 519 
Q 2988 519 3436 956 
Q 3884 1394 3884 2338 
Q 3884 3275 3436 3711 
Q 2988 4147 2022 4147 
L 1259 4147 
z
M 628 4666 
L 1925 4666 
Q 3281 4666 3915 4102 
Q 4550 3538 4550 2338 
Q 4550 1131 3912 565 
Q 3275 0 1925 0 
L 628 0 
L 628 4666 
z
" transform="scale(0.015625)"/>
       <path id="DejaVuSans-75" d="M 544 1381 
L 544 3500 
L 1119 3500 
L 1119 1403 
Q 1119 906 1312 657 
Q 1506 409 1894 409 
Q 2359 409 2629 706 
Q 2900 1003 2900 1516 
L 2900 3500 
L 3475 3500 
L 3475 0 
L 2900 0 
L 2900 538 
Q 2691 219 2414 64 
Q 2138 -91 1772 -91 
Q 1169 -91 856 284 
Q 544 659 544 1381 
z
M 1991 3584 
L 1991 3584 
z
" transform="scale(0.015625)"/>
       <path id="DejaVuSans-72" d="M 2631 2963 
Q 2534 3019 2420 3045 
Q 2306 3072 2169 3072 
Q 1681 3072 1420 2755 
Q 1159 2438 1159 1844 
L 1159 0 
L 581 0 
L 581 3500 
L 1159 3500 
L 1159 2956 
Q 1341 3275 1631 3429 
Q 1922 3584 2338 3584 
Q 2397 3584 2469 3576 
Q 2541 3569 2628 3553 
L 2631 2963 
z
" transform="scale(0.015625)"/>
       <path id="DejaVuSans-61" d="M 2194 1759 
Q 1497 1759 1228 1600 
Q 959 1441 959 1056 
Q 959 750 1161 570 
Q 1363 391 1709 391 
Q 2188 391 2477 730 
Q 2766 1069 2766 1631 
L 2766 1759 
L 2194 1759 
z
M 3341 1997 
L 3341 0 
L 2766 0 
L 2766 531 
Q 2569 213 2275 61 
Q 1981 -91 1556 -91 
Q 1019 -91 701 211 
Q 384 513 384 1019 
Q 384 1609 779 1909 
Q 1175 2209 1959 2209 
L 2766 2209 
L 2766 2266 
Q 2766 2663 2505 2880 
Q 2244 3097 1772 3097 
Q 1472 3097 1187 3025 
Q 903 2953 641 2809 
L 641 3341 
Q 956 3463 1253 3523 
Q 1550 3584 1831 3584 
Q 2591 3584 2966 3190 
Q 3341 2797 3341 1997 
z
" transform="scale(0.015625)"/>
       <path id="DejaVuSans-74" d="M 1172 4494 
L 1172 3500 
L 2356 3500 
L 2356 3053 
L 1172 3053 
L 1172 1153 
Q 1172 725 1289 603 
Q 1406 481 1766 481 
L 2356 481 
L 2356 0 
L 1766 0 
Q 1100 0 847 248 
Q 594 497 594 1153 
L 594 3053 
L 172 3053 
L 172 3500 
L 594 3500 
L 594 4494 
L 1172 4494 
z
" transform="scale(0.015625)"/>
       <path id="DejaVuSans-69" d="M 603 3500 
L 1178 3500 
L 1178 0 
L 603 0 
L 603 3500 
z
M 603 4863 
L 1178 4863 
L 1178 4134 
L 603 4134 
L 603 4863 
z
" transform="scale(0.015625)"/>
       <path id="DejaVuSans-6f" d="M 1959 3097 
Q 1497 3097 1228 2736 
Q 959 2375 959 1747 
Q 959 1119 1226 758 
Q 1494 397 1959 397 
Q 2419 397 2687 759 
Q 2956 1122 2956 1747 
Q 2956 2369 2687 2733 
Q 2419 3097 1959 3097 
z
M 1959 3584 
Q 2709 3584 3137 3096 
Q 3566 2609 3566 1747 
Q 3566 888 3137 398 
Q 2709 -91 1959 -91 
Q 1206 -91 779 398 
Q 353 888 353 1747 
Q 353 2609 779 3096 
Q 1206 3584 1959 3584 
z
" transform="scale(0.015625)"/>
       <path id="DejaVuSans-6e" d="M 3513 2113 
L 3513 0 
L 2938 0 
L 2938 2094 
Q 2938 2591 2744 2837 
Q 2550 3084 2163 3084 
Q 1697 3084 1428 2787 
Q 1159 2491 1159 1978 
L 1159 0 
L 581 0 
L 581 3500 
L 1159 3500 
L 1159 2956 
Q 1366 3272 1645 3428 
Q 1925 3584 2291 3584 
Q 2894 3584 3203 3211 
Q 3513 2838 3513 2113 
z
" transform="scale(0.015625)"/>
       <path id="DejaVuSans-20" transform="scale(0.015625)"/>
       <path id="DejaVuSans-28" d="M 1984 4856 
Q 1566 4138 1362 3434 
Q 1159 2731 1159 2009 
Q 1159 1288 1364 580 
Q 1569 -128 1984 -844 
L 1484 -844 
Q 1016 -109 783 600 
Q 550 1309 550 2009 
Q 550 2706 781 3412 
Q 1013 4119 1484 4856 
L 1984 4856 
z
" transform="scale(0.015625)"/>
       <path id="DejaVuSans-68" d="M 3513 2113 
L 3513 0 
L 2938 0 
L 2938 2094 
Q 2938 2591 2744 2837 
Q 2550 3084 2163 3084 
Q 1697 3084 1428 2787 
Q 1159 2491 1159 1978 
L 1159 0 
L 581 0 
L 581 4863 
L 1159 4863 
L 1159 2956 
Q 1366 3272 1645 3428 
Q 1925 3584 2291 3584 
Q 2894 3584 3203 3211 
Q 3513 2838 3513 2113 
z
" transform="scale(0.015625)"/>
       <path id="DejaVuSans-29" d="M 513 4856 
L 1013 4856 
Q 1481 4119 1714 3412 
Q 1947 2706 1947 2009 
Q 1947 1309 1714 600 
Q 1481 -109 1013 -844 
L 513 -844 
Q 928 -128 1133 580 
Q 1338 1288 1338 2009 
Q 1338 2731 1133 3434 
Q 928 4138 513 4856 
z
" transform="scale(0.015625)"/>
      </defs>
      <use xlink:href="#DejaVuSans-44"/>
      <use xlink:href="#DejaVuSans-75" transform="translate(77.001953 0)"/>
      <use xlink:href="#DejaVuSans-72" transform="translate(140.380859 0)"/>
      <use xlink:href="#DejaVuSans-61" transform="translate(181.494141 0)"/>
      <use xlink:href="#DejaVuSans-74" transform="translate(242.773438 0)"/>
      <use xlink:href="#DejaVuSans-69" transform="translate(281.982422 0)"/>
      <use xlink:href="#DejaVuSans-6f" transform="translate(309.765625 0)"/>
      <use xlink:href="#DejaVuSans-6e" transform="translate(370.947266 0)"/>
      <use xlink:href="#DejaVuSans-20" transform="translate(434.326172 0)"/>
      <use xlink:href="#DejaVuSans-28" transform="translate(466.113281 0)"/>
      <use xlink:href="#DejaVuSans-68" transform="translate(505.126953 0)"/>
      <use xlink:href="#DejaVuSans-29" transform="translate(568.505859 0)"/>
     </g>
    </g>
   </g>
   <g id="matplotlib.axis_2">
    <g id="ytick_1">
     <g id="line2d_15">
      <path d="M 54.978125 82.193902 
L 272.667008 82.193902 
" clip-path="url(#p266c18231d)" style="fill: none; stroke: #b0b0b0; stroke-width: 0.8; stroke-linecap: square"/>
     </g>
     <g id="line2d_16">
      <defs>
       <path id="mb6921317e4" d="M 0 0 
L -3.5 0 
" style="stroke: #000000; stroke-width: 0.8"/>
      </defs>
      <g>
       <use xlink:href="#mb6921317e4" x="54.978125" y="82.193902" style="stroke: #000000; stroke-width: 0.8"/>
      </g>
     </g>
     <g id="text_9">
      <!-- $\mathdefault{10^{-1}}$ -->
      <g transform="translate(24.478125 85.99312) scale(0.1 -0.1)">
       <defs>
        <path id="DejaVuSans-2212" d="M 678 2272 
L 4684 2272 
L 4684 1741 
L 678 1741 
L 678 2272 
z
" transform="scale(0.015625)"/>
       </defs>
       <use xlink:href="#DejaVuSans-31" transform="translate(0 0.684375)"/>
       <use xlink:href="#DejaVuSans-30" transform="translate(63.623047 0.684375)"/>
       <use xlink:href="#DejaVuSans-2212" transform="translate(128.203125 38.965625) scale(0.7)"/>
       <use xlink:href="#DejaVuSans-31" transform="translate(186.855469 38.965625) scale(0.7)"/>
      </g>
     </g>
    </g>
    <g id="ytick_2">
     <g id="line2d_17">
      <path d="M 54.978125 50.930606 
L 272.667008 50.930606 
" clip-path="url(#p266c18231d)" style="fill: none; stroke: #b0b0b0; stroke-width: 0.8; stroke-linecap: square"/>
     </g>
     <g id="line2d_18">
      <g>
       <use xlink:href="#mb6921317e4" x="54.978125" y="50.930606" style="stroke: #000000; stroke-width: 0.8"/>
      </g>
     </g>
     <g id="text_10">
      <!-- $\mathdefault{10^{0}}$ -->
      <g transform="translate(30.378125 54.729825) scale(0.1 -0.1)">
       <use xlink:href="#DejaVuSans-31" transform="translate(0 0.765625)"/>
       <use xlink:href="#DejaVuSans-30" transform="translate(63.623047 0.765625)"/>
       <use xlink:href="#DejaVuSans-30" transform="translate(128.203125 39.046875) scale(0.7)"/>
      </g>
     </g>
    </g>
    <g id="ytick_3">
     <g id="line2d_19">
      <path d="M 54.978125 19.667311 
L 272.667008 19.667311 
" clip-path="url(#p266c18231d)" style="fill: none; stroke: #b0b0b0; stroke-width: 0.8; stroke-linecap: square"/>
     </g>
     <g id="line2d_20">
      <g>
       <use xlink:href="#mb6921317e4" x="54.978125" y="19.667311" style="stroke: #000000; stroke-width: 0.8"/>
      </g>
     </g>
     <g id="text_11">
      <!-- $\mathdefault{10^{1}}$ -->
      <g transform="translate(30.378125 23.46653) scale(0.1 -0.1)">
       <use xlink:href="#DejaVuSans-31" transform="translate(0 0.684375)"/>
       <use xlink:href="#DejaVuSans-30" transform="translate(63.623047 0.684375)"/>
       <use xlink:href="#DejaVuSans-31" transform="translate(128.203125 38.965625) scale(0.7)"/>
      </g>
     </g>
    </g>
    <g id="ytick_4">
     <g id="line2d_21">
      <defs>
       <path id="m43cfc795d0" d="M 0 0 
L -2 0 
" style="stroke: #000000; stroke-width: 0.6"/>
      </defs>
      <g>
       <use xlink:href="#m43cfc795d0" x="54.978125" y="98.540814" style="stroke: #000000; stroke-width: 0.6"/>
      </g>
     </g>
    </g>
    <g id="ytick_5">
     <g id="line2d_22">
      <g>
       <use xlink:href="#m43cfc795d0" x="54.978125" y="94.634818" style="stroke: #000000; stroke-width: 0.6"/>
      </g>
     </g>
    </g>
    <g id="ytick_6">
     <g id="line2d_23">
      <g>
       <use xlink:href="#m43cfc795d0" x="54.978125" y="91.605091" style="stroke: #000000; stroke-width: 0.6"/>
      </g>
     </g>
    </g>
    <g id="ytick_7">
     <g id="line2d_24">
      <g>
       <use xlink:href="#m43cfc795d0" x="54.978125" y="89.129625" style="stroke: #000000; stroke-width: 0.6"/>
      </g>
     </g>
    </g>
    <g id="ytick_8">
     <g id="line2d_25">
      <g>
       <use xlink:href="#m43cfc795d0" x="54.978125" y="87.036647" style="stroke: #000000; stroke-width: 0.6"/>
      </g>
     </g>
    </g>
    <g id="ytick_9">
     <g id="line2d_26">
      <g>
       <use xlink:href="#m43cfc795d0" x="54.978125" y="85.223628" style="stroke: #000000; stroke-width: 0.6"/>
      </g>
     </g>
    </g>
    <g id="ytick_10">
     <g id="line2d_27">
      <g>
       <use xlink:href="#m43cfc795d0" x="54.978125" y="83.624432" style="stroke: #000000; stroke-width: 0.6"/>
      </g>
     </g>
    </g>
    <g id="ytick_11">
     <g id="line2d_28">
      <g>
       <use xlink:href="#m43cfc795d0" x="54.978125" y="72.782712" style="stroke: #000000; stroke-width: 0.6"/>
      </g>
     </g>
    </g>
    <g id="ytick_12">
     <g id="line2d_29">
      <g>
       <use xlink:href="#m43cfc795d0" x="54.978125" y="67.277519" style="stroke: #000000; stroke-width: 0.6"/>
      </g>
     </g>
    </g>
    <g id="ytick_13">
     <g id="line2d_30">
      <g>
       <use xlink:href="#m43cfc795d0" x="54.978125" y="63.371522" style="stroke: #000000; stroke-width: 0.6"/>
      </g>
     </g>
    </g>
    <g id="ytick_14">
     <g id="line2d_31">
      <g>
       <use xlink:href="#m43cfc795d0" x="54.978125" y="60.341796" style="stroke: #000000; stroke-width: 0.6"/>
      </g>
     </g>
    </g>
    <g id="ytick_15">
     <g id="line2d_32">
      <g>
       <use xlink:href="#m43cfc795d0" x="54.978125" y="57.866329" style="stroke: #000000; stroke-width: 0.6"/>
      </g>
     </g>
    </g>
    <g id="ytick_16">
     <g id="line2d_33">
      <g>
       <use xlink:href="#m43cfc795d0" x="54.978125" y="55.773352" style="stroke: #000000; stroke-width: 0.6"/>
      </g>
     </g>
    </g>
    <g id="ytick_17">
     <g id="line2d_34">
      <g>
       <use xlink:href="#m43cfc795d0" x="54.978125" y="53.960333" style="stroke: #000000; stroke-width: 0.6"/>
      </g>
     </g>
    </g>
    <g id="ytick_18">
     <g id="line2d_35">
      <g>
       <use xlink:href="#m43cfc795d0" x="54.978125" y="52.361136" style="stroke: #000000; stroke-width: 0.6"/>
      </g>
     </g>
    </g>
    <g id="ytick_19">
     <g id="line2d_36">
      <g>
       <use xlink:href="#m43cfc795d0" x="54.978125" y="41.519417" style="stroke: #000000; stroke-width: 0.6"/>
      </g>
     </g>
    </g>
    <g id="ytick_20">
     <g id="line2d_37">
      <g>
       <use xlink:href="#m43cfc795d0" x="54.978125" y="36.014224" style="stroke: #000000; stroke-width: 0.6"/>
      </g>
     </g>
    </g>
    <g id="ytick_21">
     <g id="line2d_38">
      <g>
       <use xlink:href="#m43cfc795d0" x="54.978125" y="32.108227" style="stroke: #000000; stroke-width: 0.6"/>
      </g>
     </g>
    </g>
    <g id="ytick_22">
     <g id="line2d_39">
      <g>
       <use xlink:href="#m43cfc795d0" x="54.978125" y="29.078501" style="stroke: #000000; stroke-width: 0.6"/>
      </g>
     </g>
    </g>
    <g id="ytick_23">
     <g id="line2d_40">
      <g>
       <use xlink:href="#m43cfc795d0" x="54.978125" y="26.603034" style="stroke: #000000; stroke-width: 0.6"/>
      </g>
     </g>
    </g>
    <g id="ytick_24">
     <g id="line2d_41">
      <g>
       <use xlink:href="#m43cfc795d0" x="54.978125" y="24.510057" style="stroke: #000000; stroke-width: 0.6"/>
      </g>
     </g>
    </g>
    <g id="ytick_25">
     <g id="line2d_42">
      <g>
       <use xlink:href="#m43cfc795d0" x="54.978125" y="22.697037" style="stroke: #000000; stroke-width: 0.6"/>
      </g>
     </g>
    </g>
    <g id="ytick_26">
     <g id="line2d_43">
      <g>
       <use xlink:href="#m43cfc795d0" x="54.978125" y="21.097841" style="stroke: #000000; stroke-width: 0.6"/>
      </g>
     </g>
    </g>
    <g id="text_12">
     <!-- Power (kW) -->
     <g transform="translate(18.398438 85.265625) rotate(-90) scale(0.1 -0.1)">
      <defs>
       <path id="DejaVuSans-50" d="M 1259 4147 
L 1259 2394 
L 2053 2394 
Q 2494 2394 2734 2622 
Q 2975 2850 2975 3272 
Q 2975 3691 2734 3919 
Q 2494 4147 2053 4147 
L 1259 4147 
z
M 628 4666 
L 2053 4666 
Q 2838 4666 3239 4311 
Q 3641 3956 3641 3272 
Q 3641 2581 3239 2228 
Q 2838 1875 2053 1875 
L 1259 1875 
L 1259 0 
L 628 0 
L 628 4666 
z
" transform="scale(0.015625)"/>
       <path id="DejaVuSans-77" d="M 269 3500 
L 844 3500 
L 1563 769 
L 2278 3500 
L 2956 3500 
L 3675 769 
L 4391 3500 
L 4966 3500 
L 4050 0 
L 3372 0 
L 2619 2869 
L 1863 0 
L 1184 0 
L 269 3500 
z
" transform="scale(0.015625)"/>
       <path id="DejaVuSans-65" d="M 3597 1894 
L 3597 1613 
L 953 1613 
Q 991 1019 1311 708 
Q 1631 397 2203 397 
Q 2534 397 2845 478 
Q 3156 559 3463 722 
L 3463 178 
Q 3153 47 2828 -22 
Q 2503 -91 2169 -91 
Q 1331 -91 842 396 
Q 353 884 353 1716 
Q 353 2575 817 3079 
Q 1281 3584 2069 3584 
Q 2775 3584 3186 3129 
Q 3597 2675 3597 1894 
z
M 3022 2063 
Q 3016 2534 2758 2815 
Q 2500 3097 2075 3097 
Q 1594 3097 1305 2825 
Q 1016 2553 972 2059 
L 3022 2063 
z
" transform="scale(0.015625)"/>
       <path id="DejaVuSans-6b" d="M 581 4863 
L 1159 4863 
L 1159 1991 
L 2875 3500 
L 3609 3500 
L 1753 1863 
L 3688 0 
L 2938 0 
L 1159 1709 
L 1159 0 
L 581 0 
L 581 4863 
z
" transform="scale(0.015625)"/>
       <path id="DejaVuSans-57" d="M 213 4666 
L 850 4666 
L 1831 722 
L 2809 4666 
L 3519 4666 
L 4500 722 
L 5478 4666 
L 6119 4666 
L 4947 0 
L 4153 0 
L 3169 4050 
L 2175 0 
L 1381 0 
L 213 4666 
z
" transform="scale(0.015625)"/>
      </defs>
      <use xlink:href="#DejaVuSans-50"/>
      <use xlink:href="#DejaVuSans-6f" transform="translate(56.677734 0)"/>
      <use xlink:href="#DejaVuSans-77" transform="translate(117.859375 0)"/>
      <use xlink:href="#DejaVuSans-65" transform="translate(199.646484 0)"/>
      <use xlink:href="#DejaVuSans-72" transform="translate(261.169922 0)"/>
      <use xlink:href="#DejaVuSans-20" transform="translate(302.283203 0)"/>
      <use xlink:href="#DejaVuSans-28" transform="translate(334.070312 0)"/>
      <use xlink:href="#DejaVuSans-6b" transform="translate(373.083984 0)"/>
      <use xlink:href="#DejaVuSans-57" transform="translate(430.994141 0)"/>
      <use xlink:href="#DejaVuSans-29" transform="translate(529.871094 0)"/>
     </g>
    </g>
   </g>
   <g id="line2d_44">
    <path d="M 56.76246 14.983807 
L 57.059849 14.983807 
L 57.059849 15.449247 
L 57.654628 15.546836 
L 57.654628 15.762518 
L 58.249406 15.792836 
L 58.249406 16.261547 
L 58.844184 16.304254 
L 58.844184 17.031411 
L 59.141574 17.031411 
L 59.141574 17.540815 
L 59.438963 17.540815 
L 59.438963 17.747047 
L 60.33113 17.841261 
L 60.33113 17.860183 
L 61.223298 17.957731 
L 61.223298 17.984457 
L 61.818076 18.034231 
L 61.818076 18.133042 
L 62.412855 18.169152 
L 62.412855 18.294997 
L 62.710244 18.294997 
L 62.710244 18.454949 
L 63.007633 18.454949 
L 63.007633 18.771169 
L 64.791968 18.852406 
L 64.791968 19.107377 
L 65.089357 19.107377 
L 65.089357 19.277254 
L 65.386746 19.277254 
L 65.386746 19.416685 
L 66.278914 19.503316 
L 66.278914 20.026149 
L 67.171082 20.131684 
L 67.171082 20.268157 
L 68.063249 20.325554 
L 68.063249 20.386236 
L 68.658027 20.457885 
L 68.658027 20.619332 
L 69.550195 20.729598 
L 69.550195 20.941763 
L 69.847584 20.941763 
L 69.847584 21.110706 
L 70.144973 21.110706 
L 70.144973 21.257439 
L 70.442363 21.257439 
L 70.442363 21.501171 
L 71.037141 21.530914 
L 71.037141 21.764496 
L 71.631919 21.808322 
L 71.631919 21.920211 
L 72.226698 21.988474 
L 72.226698 22.070845 
L 72.821476 22.113945 
L 72.821476 22.350839 
L 73.118865 22.350839 
L 73.118865 22.493919 
L 74.308422 22.581211 
L 74.308422 22.665471 
L 74.605811 22.665471 
L 74.605811 22.806471 
L 74.9032 22.806471 
L 74.9032 23.059578 
L 75.20059 23.059578 
L 75.20059 23.176714 
L 75.795368 23.268524 
L 75.795368 23.436884 
L 76.092757 23.436884 
L 76.092757 23.638235 
L 76.390146 23.638235 
L 76.390146 23.783907 
L 76.687535 23.783907 
L 76.687535 23.960802 
L 77.282314 24.012337 
L 77.282314 24.107995 
L 77.877092 24.166117 
L 77.877092 24.291219 
L 78.471871 24.344026 
L 78.471871 24.736287 
L 79.066649 24.736287 
L 79.066649 24.849872 
L 79.661427 24.947384 
L 79.661427 25.129433 
L 80.256206 25.187775 
L 80.256206 25.810329 
L 80.850984 25.84665 
L 80.850984 25.95391 
L 81.445762 26.050482 
L 81.445762 26.073577 
L 82.040541 26.075889 
L 82.040541 26.531962 
L 82.635319 26.579863 
L 82.635319 27.060942 
L 83.527487 27.063428 
L 83.527487 27.2638 
L 83.824876 27.2638 
L 83.824876 27.444142 
L 84.419654 27.52364 
L 84.419654 27.812174 
L 85.311822 27.875374 
L 85.311822 28.053381 
L 85.9066 28.069436 
L 85.9066 28.269029 
L 86.501379 28.378152 
L 86.501379 28.587932 
L 87.393546 28.621353 
L 87.393546 28.705269 
L 87.988325 28.741794 
L 87.988325 28.914505 
L 88.285714 28.914505 
L 88.285714 29.031837 
L 88.583103 29.031837 
L 88.583103 29.434378 
L 88.880492 29.434378 
L 88.880492 29.583223 
L 89.47527 29.634204 
L 89.47527 30.042901 
L 90.070049 30.067694 
L 90.070049 30.397375 
L 90.664827 30.422825 
L 90.664827 30.518689 
L 91.259606 30.624927 
L 91.259606 30.641096 
L 91.854384 30.725489 
L 91.854384 30.866224 
L 92.151773 30.866224 
L 92.151773 31.008432 
L 92.746551 31.05172 
L 92.746551 31.12194 
L 93.34133 31.216135 
L 93.34133 31.334805 
L 93.936108 31.396242 
L 93.936108 31.606536 
L 94.233497 31.606536 
L 94.233497 32.091055 
L 94.530887 32.091055 
L 94.530887 32.206763 
L 95.423054 32.305164 
L 95.423054 32.60472 
L 95.720443 32.60472 
L 95.720443 32.888106 
L 96.017832 32.888106 
L 96.017832 33.003138 
L 96.91 33.064889 
L 96.91 33.275396 
L 98.099557 33.381887 
L 98.099557 33.393771 
L 98.694335 33.473265 
L 98.694335 33.521185 
L 99.289114 33.629629 
L 99.289114 33.657886 
L 99.883892 33.706464 
L 99.883892 33.898418 
L 101.073449 34.001638 
L 101.073449 34.022376 
L 101.668227 34.059785 
L 101.668227 34.223094 
L 102.263005 34.273741 
L 102.263005 34.747021 
L 102.857784 34.821659 
L 102.857784 35.173993 
L 103.155173 35.173993 
L 103.155173 35.512533 
L 104.04734 35.577541 
L 104.04734 35.64754 
L 105.534286 35.750863 
L 105.534286 35.84548 
L 106.723843 35.902568 
L 106.723843 35.964686 
L 107.9134 36.07046 
L 107.9134 36.118813 
L 108.805567 36.138202 
L 108.805567 36.368127 
L 110.292513 36.467161 
L 110.292513 36.511963 
L 110.589903 36.511963 
L 110.589903 36.697718 
L 111.48207 36.783925 
L 111.48207 36.921976 
L 112.671627 36.947696 
L 112.671627 37.071833 
L 113.266405 37.087431 
L 113.266405 37.244398 
L 113.861184 37.297126 
L 113.861184 37.488661 
L 114.455962 37.590849 
L 114.455962 37.617868 
L 115.348129 37.67207 
L 115.348129 37.781127 
L 116.240297 37.808528 
L 116.240297 37.946372 
L 116.835075 38.013037 
L 116.835075 38.085629 
L 117.429854 38.147358 
L 117.429854 38.237649 
L 117.727243 38.237649 
L 117.727243 38.443027 
L 118.322021 38.506405 
L 118.322021 38.5875 
L 119.214189 38.674928 
L 119.214189 38.79828 
L 120.106356 38.85149 
L 120.106356 39.157019 
L 121.295913 39.260409 
L 121.295913 39.278736 
L 121.593302 39.278736 
L 121.593302 39.550418 
L 122.188081 39.562897 
L 122.188081 39.713551 
L 122.782859 39.713551 
L 122.782859 39.910652 
L 123.675027 39.955557 
L 123.675027 40.071715 
L 124.269805 40.084683 
L 124.269805 40.234712 
L 124.567194 40.234712 
L 124.567194 40.346678 
L 125.161973 40.412974 
L 125.161973 40.695009 
L 126.05414 40.783507 
L 126.05414 40.913895 
L 126.648919 40.941506 
L 126.648919 41.094376 
L 127.243697 41.199601 
L 127.243697 41.270207 
L 128.433254 41.376809 
L 128.433254 41.462697 
L 129.325421 41.520259 
L 129.325421 41.592557 
L 130.217589 41.701731 
L 130.217589 41.745647 
L 130.514978 41.745647 
L 130.514978 41.870854 
L 131.109756 41.878255 
L 131.109756 42.01965 
L 131.407145 42.01965 
L 131.407145 42.230742 
L 132.001924 42.329876 
L 132.001924 42.352856 
L 133.191481 42.414327 
L 133.191481 42.530342 
L 134.083648 42.577027 
L 134.083648 42.647356 
L 134.678426 42.718052 
L 134.678426 42.797037 
L 135.273205 42.797037 
L 135.273205 43.07716 
L 136.462762 43.133885 
L 136.462762 43.330189 
L 137.949708 43.404541 
L 137.949708 43.446024 
L 138.544486 43.479302 
L 138.544486 43.579629 
L 139.436653 43.689159 
L 139.436653 43.697621 
L 140.328821 43.791055 
L 140.328821 43.953969 
L 141.518378 43.979872 
L 141.518378 44.066574 
L 142.410545 44.136336 
L 142.410545 44.180121 
L 143.005324 44.188894 
L 143.005324 44.312327 
L 143.897491 44.410103 
L 143.897491 44.45478 
L 144.789659 44.56261 
L 144.789659 44.725977 
L 145.979216 44.826789 
L 145.979216 44.845199 
L 146.871383 44.928355 
L 146.871383 45.133796 
L 147.168772 45.133796 
L 147.168772 45.285184 
L 147.763551 45.332841 
L 147.763551 45.42866 
L 148.358329 45.486477 
L 148.358329 45.58339 
L 148.953107 45.671208 
L 148.953107 45.779317 
L 149.845275 45.868415 
L 149.845275 45.958101 
L 150.440053 46.058453 
L 150.440053 46.098802 
L 150.737442 46.098802 
L 150.737442 46.343448 
L 152.224388 46.446699 
L 152.224388 46.467444 
L 153.116556 46.550741 
L 153.116556 46.666117 
L 153.413945 46.666117 
L 153.413945 46.793109 
L 153.711334 46.793109 
L 153.711334 46.9213 
L 154.900891 46.953538 
L 154.900891 47.08326 
L 156.090448 47.137679 
L 156.090448 47.258173 
L 156.685226 47.291222 
L 156.685226 47.413093 
L 157.577394 47.502419 
L 157.577394 47.558548 
L 158.469561 47.614909 
L 158.469561 47.705577 
L 159.361729 47.728339 
L 159.361729 47.831242 
L 159.659118 47.831242 
L 159.659118 47.958082 
L 160.253896 48.004501 
L 160.253896 48.121247 
L 161.443453 48.227183 
L 161.443453 48.429569 
L 162.038231 48.453579 
L 162.038231 48.671598 
L 162.63301 48.69604 
L 162.63301 48.868377 
L 163.227788 48.91802 
L 163.227788 49.181669 
L 163.822567 49.194352 
L 163.822567 49.398913 
L 164.714734 49.476425 
L 164.714734 49.724841 
L 165.012123 49.724841 
L 165.012123 49.844116 
L 165.309513 49.844116 
L 165.309513 50.004798 
L 165.606902 50.004798 
L 165.606902 50.484618 
L 166.20168 50.526545 
L 166.20168 50.61079 
L 166.796458 50.695562 
L 166.796458 51.393487 
L 167.688626 51.483305 
L 167.688626 51.543516 
L 168.283404 51.619157 
L 168.283404 51.725767 
L 168.878183 51.725767 
L 168.878183 51.926005 
L 170.365129 52.019429 
L 170.365129 52.208226 
L 170.959907 52.303619 
L 170.959907 52.399686 
L 171.852075 52.496438 
L 171.852075 52.577595 
L 172.149464 52.577595 
L 172.149464 52.824017 
L 172.744242 52.923852 
L 172.744242 52.940563 
L 173.63641 53.024426 
L 173.63641 53.091892 
L 174.528577 53.176699 
L 174.528577 53.296325 
L 175.123356 53.399707 
L 175.123356 53.417014 
L 175.420745 53.417014 
L 175.420745 53.556272 
L 176.312912 53.62644 
L 176.312912 53.696972 
L 176.907691 53.803463 
L 176.907691 53.821293 
L 177.502469 53.892847 
L 177.502469 54.037098 
L 177.799858 54.037098 
L 177.799858 54.182898 
L 178.394637 54.219594 
L 178.394637 54.385964 
L 178.989415 54.441877 
L 178.989415 54.897667 
L 179.881583 54.955732 
L 179.881583 55.014046 
L 180.178972 55.014046 
L 180.178972 55.190507 
L 181.071139 55.210256 
L 181.071139 55.349309 
L 181.665918 55.349309 
L 181.665918 55.489802 
L 182.260696 55.509991 
L 182.260696 55.837175 
L 183.152864 55.857889 
L 183.152864 55.961931 
L 184.045031 56.066777 
L 184.045031 56.108943 
L 184.63981 56.214935 
L 184.63981 56.236233 
L 185.234588 56.343227 
L 185.234588 56.516191 
L 185.531977 56.516191 
L 185.531977 56.669363 
L 186.126755 56.757672 
L 186.126755 56.824283 
L 186.424145 56.824283 
L 186.424145 57.026099 
L 186.721534 57.026099 
L 186.721534 57.139529 
L 187.316312 57.208044 
L 187.316312 57.299939 
L 187.613701 57.299939 
L 187.613701 57.41569 
L 187.911091 57.41569 
L 187.911091 57.650195 
L 188.20848 57.650195 
L 188.20848 58.429045 
L 189.100647 58.529619 
L 189.100647 58.991657 
L 189.695426 59.017793 
L 189.695426 59.122842 
L 190.290204 59.22871 
L 190.290204 59.715604 
L 190.884982 59.826215 
L 190.884982 59.854009 
L 191.182372 59.854009 
L 191.182372 60.078435 
L 192.074539 60.163561 
L 192.074539 60.715449 
L 192.371928 60.715449 
L 192.371928 61.540431 
L 192.669318 61.540431 
L 192.669318 62.152568 
L 192.966707 62.152568 
L 192.966707 62.828204 
L 193.264096 62.828204 
L 193.264096 64.251039 
L 193.561485 64.251039 
L 193.561485 65.414962 
L 194.156263 65.499033 
L 194.156263 66.058565 
L 195.048431 66.146731 
L 195.048431 66.280062 
L 195.643209 66.369683 
L 195.643209 66.505233 
L 197.427544 66.596357 
L 197.427544 66.688097 
L 198.319712 66.780461 
L 198.319712 66.82688 
L 199.21188 66.873458 
L 199.21188 67.014158 
L 200.104047 67.061384 
L 200.104047 67.156332 
L 200.401436 67.156332 
L 200.401436 67.300011 
L 200.996215 67.300011 
L 200.996215 67.790225 
L 201.293604 67.790225 
L 201.293604 68.144221 
L 201.590993 68.144221 
L 201.590993 68.827178 
L 201.888382 68.827178 
L 201.888382 69.43317 
L 202.483161 69.43317 
L 202.483161 69.775477 
L 202.78055 69.775477 
L 202.78055 70.487124 
L 203.375328 70.487124 
L 203.375328 71.046458 
L 203.970107 71.110053 
L 203.970107 72.239394 
L 204.267496 72.239394 
L 204.267496 72.519351 
L 204.564885 72.519351 
L 204.564885 73.023613 
L 204.862274 73.023613 
L 204.862274 73.62382 
L 205.159663 73.62382 
L 205.159663 74.012886 
L 205.457052 74.012886 
L 205.457052 74.171689 
L 205.754442 74.171689 
L 205.754442 74.826152 
L 206.051831 74.826152 
L 206.051831 75.425885 
L 206.34922 75.425885 
L 206.34922 75.961908 
L 206.646609 75.961908 
L 206.646609 77.201415 
L 206.943998 77.201415 
L 206.943998 77.606743 
L 207.241388 77.606743 
L 207.241388 78.024544 
L 207.538777 78.024544 
L 207.538777 78.565551 
L 208.133555 78.676389 
L 208.133555 78.788138 
L 208.728333 78.788138 
L 208.728333 79.014434 
L 209.91789 79.014434 
L 209.91789 79.361112 
L 210.215279 79.361112 
L 210.215279 80.206206 
L 210.512669 80.206206 
L 210.512669 80.457648 
L 210.810058 80.457648 
L 210.810058 80.585137 
L 211.702225 80.585137 
L 211.702225 81.107412 
L 211.999615 81.107412 
L 211.999615 81.241181 
L 212.297004 81.241181 
L 212.297004 82.361608 
L 212.594393 82.361608 
L 212.594393 82.508393 
L 212.891782 82.508393 
L 212.891782 83.267109 
L 213.189171 83.267109 
L 213.189171 83.74356 
L 213.48656 83.74356 
L 213.48656 84.74976 
L 213.78395 84.74976 
L 213.78395 85.282278 
L 214.081339 85.282278 
L 214.081339 86.026436 
L 214.378728 86.026436 
L 214.378728 87.225226 
L 214.676117 87.225226 
L 214.676117 87.435734 
L 214.973506 87.435734 
L 214.973506 87.866801 
L 215.568285 87.866801 
L 215.568285 88.312004 
L 215.865674 88.312004 
L 215.865674 88.540203 
L 216.163063 88.540203 
L 216.163063 88.772302 
L 216.460452 88.772302 
L 216.460452 89.008438 
L 216.757841 89.008438 
L 216.757841 89.493399 
L 217.650009 89.493399 
L 217.650009 89.996326 
L 217.947398 89.996326 
L 217.947398 90.254953 
L 218.542177 90.254953 
L 218.542177 90.518601 
L 219.434344 90.518601 
L 219.434344 91.061773 
L 220.326512 91.061773 
L 220.326512 91.341731 
L 221.813458 91.341731 
L 221.813458 91.627583 
L 222.408236 91.627583 
L 222.408236 91.919583 
L 223.003014 91.919583 
L 223.003014 92.218001 
L 223.300404 92.218001 
L 223.300404 95.630217 
L 223.597793 95.630217 
L 223.597793 98.659943 
L 223.895182 98.659943 
L 223.895182 145 
L 223.895182 145 
" clip-path="url(#p266c18231d)" style="fill: none; stroke: #1f77b4; stroke-width: 1.5; stroke-linecap: square"/>
   </g>
   <g id="line2d_45">
    <path d="M 56.76246 18.819492 
L 61.223298 18.819492 
L 61.223298 20.361627 
L 65.684136 20.361627 
L 65.684136 20.52551 
L 70.144973 20.52551 
L 70.144973 22.9791 
L 74.605811 22.9791 
L 74.605811 25.851349 
L 79.066649 25.851349 
L 79.066649 27.740552 
L 83.527487 27.740552 
L 83.527487 27.979947 
L 87.988325 27.979947 
L 87.988325 28.614848 
L 92.449162 28.614848 
L 92.449162 28.811181 
L 96.91 28.811181 
L 96.91 31.082439 
L 101.370838 31.082439 
L 101.370838 33.747621 
L 105.831676 33.747621 
L 105.831676 34.504878 
L 110.292513 34.504878 
L 110.292513 34.803767 
L 114.753351 34.803767 
L 114.753351 35.804398 
L 119.214189 35.804398 
L 119.214189 38.303867 
L 123.675027 38.303867 
L 123.675027 38.817569 
L 128.135864 38.817569 
L 128.135864 41.413006 
L 132.596702 41.413006 
L 132.596702 42.248989 
L 137.05754 42.248989 
L 137.05754 43.550569 
L 145.979216 43.581307 
L 145.979216 44.209975 
L 150.440053 44.209975 
L 150.440053 44.813304 
L 154.900891 44.813304 
L 154.900891 45.962101 
L 159.361729 45.962101 
L 159.361729 48.548431 
L 163.822567 48.548431 
L 163.822567 49.646776 
L 168.283404 49.646776 
L 168.283404 52.919399 
L 172.744242 52.919399 
L 172.744242 53.955168 
L 177.20508 53.955168 
L 177.20508 54.249022 
L 181.665918 54.249022 
L 181.665918 55.237953 
L 186.126755 55.237953 
L 186.126755 57.150164 
L 190.587593 57.150164 
L 190.587593 65.311986 
L 195.048431 65.311986 
L 195.048431 65.875259 
L 199.509269 65.875259 
L 199.509269 66.672764 
L 203.970107 66.672764 
L 203.970107 73.466207 
L 208.430944 73.466207 
L 208.430944 79.886142 
L 212.891782 79.886142 
L 212.891782 88.741125 
L 217.35262 88.741125 
L 217.35262 93.504029 
L 221.813458 93.504029 
L 221.813458 94.949309 
L 226.274295 94.949309 
L 226.274295 145 
L 226.274295 145 
" clip-path="url(#p266c18231d)" style="fill: none; stroke: #ff7f0e; stroke-width: 1.5; stroke-linecap: square"/>
   </g>
   <g id="line2d_46">
    <path d="M 56.76246 25.446177 
L 74.605811 25.446177 
L 74.605811 25.791072 
L 92.449162 25.791072 
L 92.449162 28.122509 
L 110.292513 28.122509 
L 110.292513 34.098829 
L 128.135864 34.098829 
L 128.135864 43.093208 
L 145.979216 43.093208 
L 145.979216 44.291382 
L 163.822567 44.291382 
L 163.822567 54.743394 
L 181.665918 54.743394 
L 181.665918 56.478166 
L 199.509269 56.478166 
L 199.509269 76.485196 
L 217.35262 76.485196 
L 217.35262 94.839072 
L 235.195971 94.839072 
L 235.195971 145 
" clip-path="url(#p266c18231d)" style="fill: none; stroke: #2ca02c; stroke-width: 1.5; stroke-linecap: square"/>
   </g>
   <g id="line2d_47">
    <path d="M 56.76246 27.901853 
L 110.292513 27.901853 
L 110.292513 37.939015 
L 163.822567 37.939015 
L 163.822567 53.818319 
L 217.35262 53.818319 
L 217.35262 91.401578 
L 270.882673 91.401578 
L 270.882673 145 
" clip-path="url(#p266c18231d)" style="fill: none; stroke: #d62728; stroke-width: 1.5; stroke-linecap: square"/>
   </g>
   <g id="patch_3">
    <path d="M 54.978125 102.84375 
L 54.978125 10.8 
" style="fill: none; stroke: #000000; stroke-width: 0.8; stroke-linejoin: miter; stroke-linecap: square"/>
   </g>
   <g id="patch_4">
    <path d="M 272.667008 102.84375 
L 272.667008 10.8 
" style="fill: none; stroke: #000000; stroke-width: 0.8; stroke-linejoin: miter; stroke-linecap: square"/>
   </g>
   <g id="patch_5">
    <path d="M 54.978125 102.84375 
L 272.667008 102.84375 
" style="fill: none; stroke: #000000; stroke-width: 0.8; stroke-linejoin: miter; stroke-linecap: square"/>
   </g>
   <g id="patch_6">
    <path d="M 54.978125 10.8 
L 272.667008 10.8 
" style="fill: none; stroke: #000000; stroke-width: 0.8; stroke-linejoin: miter; stroke-linecap: square"/>
   </g>
  </g>
 </g>
 <defs>
  <clipPath id="p266c18231d">
   <rect x="54.978125" y="10.8" width="217.688883" height="92.04375"/>
  </clipPath>
 </defs>
</svg>
