<?xml version="1.0" encoding="utf-8" standalone="no"?>
<!DOCTYPE svg PUBLIC "-//W3C//DTD SVG 1.1//EN"
  "http://www.w3.org/Graphics/SVG/1.1/DTD/svg11.dtd">
<svg xmlns:xlink="http://www.w3.org/1999/xlink" width="288pt" height="144pt" viewBox="0 0 288 144" xmlns="http://www.w3.org/2000/svg" version="1.1">
 <metadata>
  <rdf:RDF xmlns:dc="http://purl.org/dc/elements/1.1/" xmlns:cc="http://creativecommons.org/ns#" xmlns:rdf="http://www.w3.org/1999/02/22-rdf-syntax-ns#">
   <cc:Work>
    <dc:type rdf:resource="http://purl.org/dc/dcmitype/StillImage"/>
    <dc:date>2026-02-02T14:05:35.410978</dc:date>
    <dc:format>image/svg+xml</dc:format>
    <dc:creator>
     <cc:Agent>
      <dc:title>Matplotlib v3.10.1, https://matplotlib.org/</dc:title>
     </cc:Agent>
    </dc:creator>
   </cc:Work>
  </rdf:RDF>
 </metadata>
 <defs>
  <style type="text/css">*{stroke-linejoin: round; stroke-linecap: butt}</style>
 </defs>
 <g id="figure_1">
  <g id="patch_1">
   <path d="M 0 144 
L 288 144 
L 288 0 
L 0 0 
z
" style="fill: #ffffff"/>
  </g>
  <g id="axes_1">
   <g id="patch_2">
    <path d="M 44.203125 102.84375 
L 272.710638 102.84375 
L 272.710638 10.8 
L 44.203125 10.8 
z
" style="fill: #ffffff"/>
   </g>
   <g id="matplotlib.axis_1">
    <g id="xtick_1">
     <g id="line2d_1">
      <path d="M 46.076137 102.84375 
L 46.076137 10.8 
" clip-path="url(#p99005ef60b)" style="fill: none; stroke: #b0b0b0; stroke-width: 0.8; stroke-linecap: square"/>
     </g>
     <g id="line2d_2">
      <defs>
       <path id="m74787dc3c7" d="M 0 0 
L 0 3.5 
" style="stroke: #000000; stroke-width: 0.8"/>
      </defs>
      <g>
       <use xlink:href="#m74787dc3c7" x="46.076137" y="102.84375" style="stroke: #000000; stroke-width: 0.8"/>
      </g>
     </g>
     <g id="text_1">
      <!-- 6 -->
      <g transform="translate(42.894887 117.442187) scale(0.1 -0.1)">
       <defs>
        <path id="DejaVuSans-36" d="M 2113 2584 
Q 1688 2584 1439 2293 
Q 1191 2003 1191 1497 
Q 1191 994 1439 701 
Q 1688 409 2113 409 
Q 2538 409 2786 701 
Q 3034 994 3034 1497 
Q 3034 2003 2786 2293 
Q 2538 2584 2113 2584 
z
M 3366 4563 
L 3366 3988 
Q 3128 4100 2886 4159 
Q 2644 4219 2406 4219 
Q 1781 4219 1451 3797 
Q 1122 3375 1075 2522 
Q 1259 2794 1537 2939 
Q 1816 3084 2150 3084 
Q 2853 3084 3261 2657 
Q 3669 2231 3669 1497 
Q 3669 778 3244 343 
Q 2819 -91 2113 -91 
Q 1303 -91 875 529 
Q 447 1150 447 2328 
Q 447 3434 972 4092 
Q 1497 4750 2381 4750 
Q 2619 4750 2861 4703 
Q 3103 4656 3366 4563 
z
" transform="scale(0.015625)"/>
       </defs>
       <use xlink:href="#DejaVuSans-36"/>
      </g>
     </g>
    </g>
    <g id="xtick_2">
     <g id="line2d_3">
      <path d="M 83.536385 102.84375 
L 83.536385 10.8 
" clip-path="url(#p99005ef60b)" style="fill: none; stroke: #b0b0b0; stroke-width: 0.8; stroke-linecap: square"/>
     </g>
     <g id="line2d_4">
      <g>
       <use xlink:href="#m74787dc3c7" x="83.536385" y="102.84375" style="stroke: #000000; stroke-width: 0.8"/>
      </g>
     </g>
     <g id="text_2">
      <!-- 8 -->
      <g transform="translate(80.355135 117.442187) scale(0.1 -0.1)">
       <defs>
        <path id="DejaVuSans-38" d="M 2034 2216 
Q 1584 2216 1326 1975 
Q 1069 1734 1069 1313 
Q 1069 891 1326 650 
Q 1584 409 2034 409 
Q 2484 409 2743 651 
Q 3003 894 3003 1313 
Q 3003 1734 2745 1975 
Q 2488 2216 2034 2216 
z
M 1403 2484 
Q 997 2584 770 2862 
Q 544 3141 544 3541 
Q 544 4100 942 4425 
Q 1341 4750 2034 4750 
Q 2731 4750 3128 4425 
Q 3525 4100 3525 3541 
Q 3525 3141 3298 2862 
Q 3072 2584 2669 2484 
Q 3125 2378 3379 2068 
Q 3634 1759 3634 1313 
Q 3634 634 3220 271 
Q 2806 -91 2034 -91 
Q 1263 -91 848 271 
Q 434 634 434 1313 
Q 434 1759 690 2068 
Q 947 2378 1403 2484 
z
M 1172 3481 
Q 1172 3119 1398 2916 
Q 1625 2713 2034 2713 
Q 2441 2713 2670 2916 
Q 2900 3119 2900 3481 
Q 2900 3844 2670 4047 
Q 2441 4250 2034 4250 
Q 1625 4250 1398 4047 
Q 1172 3844 1172 3481 
z
" transform="scale(0.015625)"/>
       </defs>
       <use xlink:href="#DejaVuSans-38"/>
      </g>
     </g>
    </g>
    <g id="xtick_3">
     <g id="line2d_5">
      <path d="M 120.996633 102.84375 
L 120.996633 10.8 
" clip-path="url(#p99005ef60b)" style="fill: none; stroke: #b0b0b0; stroke-width: 0.8; stroke-linecap: square"/>
     </g>
     <g id="line2d_6">
      <g>
       <use xlink:href="#m74787dc3c7" x="120.996633" y="102.84375" style="stroke: #000000; stroke-width: 0.8"/>
      </g>
     </g>
     <g id="text_3">
      <!-- 10 -->
      <g transform="translate(114.634133 117.442187) scale(0.1 -0.1)">
       <defs>
        <path id="DejaVuSans-31" d="M 794 531 
L 1825 531 
L 1825 4091 
L 703 3866 
L 703 4441 
L 1819 4666 
L 2450 4666 
L 2450 531 
L 3481 531 
L 3481 0 
L 794 0 
L 794 531 
z
" transform="scale(0.015625)"/>
        <path id="DejaVuSans-30" d="M 2034 4250 
Q 1547 4250 1301 3770 
Q 1056 3291 1056 2328 
Q 1056 1369 1301 889 
Q 1547 409 2034 409 
Q 2525 409 2770 889 
Q 3016 1369 3016 2328 
Q 3016 3291 2770 3770 
Q 2525 4250 2034 4250 
z
M 2034 4750 
Q 2819 4750 3233 4129 
Q 3647 3509 3647 2328 
Q 3647 1150 3233 529 
Q 2819 -91 2034 -91 
Q 1250 -91 836 529 
Q 422 1150 422 2328 
Q 422 3509 836 4129 
Q 1250 4750 2034 4750 
z
" transform="scale(0.015625)"/>
       </defs>
       <use xlink:href="#DejaVuSans-31"/>
       <use xlink:href="#DejaVuSans-30" transform="translate(63.623047 0)"/>
      </g>
     </g>
    </g>
    <g id="xtick_4">
     <g id="line2d_7">
      <path d="M 158.456881 102.84375 
L 158.456881 10.8 
" clip-path="url(#p99005ef60b)" style="fill: none; stroke: #b0b0b0; stroke-width: 0.8; stroke-linecap: square"/>
     </g>
     <g id="line2d_8">
      <g>
       <use xlink:href="#m74787dc3c7" x="158.456881" y="102.84375" style="stroke: #000000; stroke-width: 0.8"/>
      </g>
     </g>
     <g id="text_4">
      <!-- 12 -->
      <g transform="translate(152.094381 117.442187) scale(0.1 -0.1)">
       <defs>
        <path id="DejaVuSans-32" d="M 1228 531 
L 3431 531 
L 3431 0 
L 469 0 
L 469 531 
Q 828 903 1448 1529 
Q 2069 2156 2228 2338 
Q 2531 2678 2651 2914 
Q 2772 3150 2772 3378 
Q 2772 3750 2511 3984 
Q 2250 4219 1831 4219 
Q 1534 4219 1204 4116 
Q 875 4013 500 3803 
L 500 4441 
Q 881 4594 1212 4672 
Q 1544 4750 1819 4750 
Q 2544 4750 2975 4387 
Q 3406 4025 3406 3419 
Q 3406 3131 3298 2873 
Q 3191 2616 2906 2266 
Q 2828 2175 2409 1742 
Q 1991 1309 1228 531 
z
" transform="scale(0.015625)"/>
       </defs>
       <use xlink:href="#DejaVuSans-31"/>
       <use xlink:href="#DejaVuSans-32" transform="translate(63.623047 0)"/>
      </g>
     </g>
    </g>
    <g id="xtick_5">
     <g id="line2d_9">
      <path d="M 195.917129 102.84375 
L 195.917129 10.8 
" clip-path="url(#p99005ef60b)" style="fill: none; stroke: #b0b0b0; stroke-width: 0.8; stroke-linecap: square"/>
     </g>
     <g id="line2d_10">
      <g>
       <use xlink:href="#m74787dc3c7" x="195.917129" y="102.84375" style="stroke: #000000; stroke-width: 0.8"/>
      </g>
     </g>
     <g id="text_5">
      <!-- 14 -->
      <g transform="translate(189.554629 117.442187) scale(0.1 -0.1)">
       <defs>
        <path id="DejaVuSans-34" d="M 2419 4116 
L 825 1625 
L 2419 1625 
L 2419 4116 
z
M 2253 4666 
L 3047 4666 
L 3047 1625 
L 3713 1625 
L 3713 1100 
L 3047 1100 
L 3047 0 
L 2419 0 
L 2419 1100 
L 313 1100 
L 313 1709 
L 2253 4666 
z
" transform="scale(0.015625)"/>
       </defs>
       <use xlink:href="#DejaVuSans-31"/>
       <use xlink:href="#DejaVuSans-34" transform="translate(63.623047 0)"/>
      </g>
     </g>
    </g>
    <g id="xtick_6">
     <g id="line2d_11">
      <path d="M 233.377377 102.84375 
L 233.377377 10.8 
" clip-path="url(#p99005ef60b)" style="fill: none; stroke: #b0b0b0; stroke-width: 0.8; stroke-linecap: square"/>
     </g>
     <g id="line2d_12">
      <g>
       <use xlink:href="#m74787dc3c7" x="233.377377" y="102.84375" style="stroke: #000000; stroke-width: 0.8"/>
      </g>
     </g>
     <g id="text_6">
      <!-- 16 -->
      <g transform="translate(227.014877 117.442187) scale(0.1 -0.1)">
       <use xlink:href="#DejaVuSans-31"/>
       <use xlink:href="#DejaVuSans-36" transform="translate(63.623047 0)"/>
      </g>
     </g>
    </g>
    <g id="xtick_7">
     <g id="line2d_13">
      <path d="M 270.837625 102.84375 
L 270.837625 10.8 
" clip-path="url(#p99005ef60b)" style="fill: none; stroke: #b0b0b0; stroke-width: 0.8; stroke-linecap: square"/>
     </g>
     <g id="line2d_14">
      <g>
       <use xlink:href="#m74787dc3c7" x="270.837625" y="102.84375" style="stroke: #000000; stroke-width: 0.8"/>
      </g>
     </g>
     <g id="text_7">
      <!-- 18 -->
      <g transform="translate(264.475125 117.442187) scale(0.1 -0.1)">
       <use xlink:href="#DejaVuSans-31"/>
       <use xlink:href="#DejaVuSans-38" transform="translate(63.623047 0)"/>
      </g>
     </g>
    </g>
    <g id="text_8">
     <!-- Time (UTC) -->
     <g transform="translate(130.821725 131.120312) scale(0.1 -0.1)">
      <defs>
       <path id="DejaVuSans-54" d="M -19 4666 
L 3928 4666 
L 3928 4134 
L 2272 4134 
L 2272 0 
L 1638 0 
L 1638 4134 
L -19 4134 
L -19 4666 
z
" transform="scale(0.015625)"/>
       <path id="DejaVuSans-69" d="M 603 3500 
L 1178 3500 
L 1178 0 
L 603 0 
L 603 3500 
z
M 603 4863 
L 1178 4863 
L 1178 4134 
L 603 4134 
L 603 4863 
z
" transform="scale(0.015625)"/>
       <path id="DejaVuSans-6d" d="M 3328 2828 
Q 3544 3216 3844 3400 
Q 4144 3584 4550 3584 
Q 5097 3584 5394 3201 
Q 5691 2819 5691 2113 
L 5691 0 
L 5113 0 
L 5113 2094 
Q 5113 2597 4934 2840 
Q 4756 3084 4391 3084 
Q 3944 3084 3684 2787 
Q 3425 2491 3425 1978 
L 3425 0 
L 2847 0 
L 2847 2094 
Q 2847 2600 2669 2842 
Q 2491 3084 2119 3084 
Q 1678 3084 1418 2786 
Q 1159 2488 1159 1978 
L 1159 0 
L 581 0 
L 581 3500 
L 1159 3500 
L 1159 2956 
Q 1356 3278 1631 3431 
Q 1906 3584 2284 3584 
Q 2666 3584 2933 3390 
Q 3200 3197 3328 2828 
z
" transform="scale(0.015625)"/>
       <path id="DejaVuSans-65" d="M 3597 1894 
L 3597 1613 
L 953 1613 
Q 991 1019 1311 708 
Q 1631 397 2203 397 
Q 2534 397 2845 478 
Q 3156 559 3463 722 
L 3463 178 
Q 3153 47 2828 -22 
Q 2503 -91 2169 -91 
Q 1331 -91 842 396 
Q 353 884 353 1716 
Q 353 2575 817 3079 
Q 1281 3584 2069 3584 
Q 2775 3584 3186 3129 
Q 3597 2675 3597 1894 
z
M 3022 2063 
Q 3016 2534 2758 2815 
Q 2500 3097 2075 3097 
Q 1594 3097 1305 2825 
Q 1016 2553 972 2059 
L 3022 2063 
z
" transform="scale(0.015625)"/>
       <path id="DejaVuSans-20" transform="scale(0.015625)"/>
       <path id="DejaVuSans-28" d="M 1984 4856 
Q 1566 4138 1362 3434 
Q 1159 2731 1159 2009 
Q 1159 1288 1364 580 
Q 1569 -128 1984 -844 
L 1484 -844 
Q 1016 -109 783 600 
Q 550 1309 550 2009 
Q 550 2706 781 3412 
Q 1013 4119 1484 4856 
L 1984 4856 
z
" transform="scale(0.015625)"/>
       <path id="DejaVuSans-55" d="M 556 4666 
L 1191 4666 
L 1191 1831 
Q 1191 1081 1462 751 
Q 1734 422 2344 422 
Q 2950 422 3222 751 
Q 3494 1081 3494 1831 
L 3494 4666 
L 4128 4666 
L 4128 1753 
Q 4128 841 3676 375 
Q 3225 -91 2344 -91 
Q 1459 -91 1007 375 
Q 556 841 556 1753 
L 556 4666 
z
" transform="scale(0.015625)"/>
       <path id="DejaVuSans-43" d="M 4122 4306 
L 4122 3641 
Q 3803 3938 3442 4084 
Q 3081 4231 2675 4231 
Q 1875 4231 1450 3742 
Q 1025 3253 1025 2328 
Q 1025 1406 1450 917 
Q 1875 428 2675 428 
Q 3081 428 3442 575 
Q 3803 722 4122 1019 
L 4122 359 
Q 3791 134 3420 21 
Q 3050 -91 2638 -91 
Q 1578 -91 968 557 
Q 359 1206 359 2328 
Q 359 3453 968 4101 
Q 1578 4750 2638 4750 
Q 3056 4750 3426 4639 
Q 3797 4528 4122 4306 
z
" transform="scale(0.015625)"/>
       <path id="DejaVuSans-29" d="M 513 4856 
L 1013 4856 
Q 1481 4119 1714 3412 
Q 1947 2706 1947 2009 
Q 1947 1309 1714 600 
Q 1481 -109 1013 -844 
L 513 -844 
Q 928 -128 1133 580 
Q 1338 1288 1338 2009 
Q 1338 2731 1133 3434 
Q 928 4138 513 4856 
z
" transform="scale(0.015625)"/>
      </defs>
      <use xlink:href="#DejaVuSans-54"/>
      <use xlink:href="#DejaVuSans-69" transform="translate(57.958984 0)"/>
      <use xlink:href="#DejaVuSans-6d" transform="translate(85.742188 0)"/>
      <use xlink:href="#DejaVuSans-65" transform="translate(183.154297 0)"/>
      <use xlink:href="#DejaVuSans-20" transform="translate(244.677734 0)"/>
      <use xlink:href="#DejaVuSans-28" transform="translate(276.464844 0)"/>
      <use xlink:href="#DejaVuSans-55" transform="translate(315.478516 0)"/>
      <use xlink:href="#DejaVuSans-54" transform="translate(388.671875 0)"/>
      <use xlink:href="#DejaVuSans-43" transform="translate(443.880859 0)"/>
      <use xlink:href="#DejaVuSans-29" transform="translate(513.705078 0)"/>
     </g>
    </g>
   </g>
   <g id="matplotlib.axis_2">
    <g id="ytick_1">
     <g id="line2d_15">
      <path d="M 44.203125 98.659943 
L 272.710638 98.659943 
" clip-path="url(#p99005ef60b)" style="fill: none; stroke: #b0b0b0; stroke-width: 0.8; stroke-linecap: square"/>
     </g>
     <g id="line2d_16">
      <defs>
       <path id="m375bab4fff" d="M 0 0 
L -3.5 0 
" style="stroke: #000000; stroke-width: 0.8"/>
      </defs>
      <g>
       <use xlink:href="#m375bab4fff" x="44.203125" y="98.659943" style="stroke: #000000; stroke-width: 0.8"/>
      </g>
     </g>
     <g id="text_9">
      <!-- 0 -->
      <g transform="translate(30.840625 102.459162) scale(0.1 -0.1)">
       <use xlink:href="#DejaVuSans-30"/>
      </g>
     </g>
    </g>
    <g id="ytick_2">
     <g id="line2d_17">
      <path d="M 44.203125 69.027789 
L 272.710638 69.027789 
" clip-path="url(#p99005ef60b)" style="fill: none; stroke: #b0b0b0; stroke-width: 0.8; stroke-linecap: square"/>
     </g>
     <g id="line2d_18">
      <g>
       <use xlink:href="#m375bab4fff" x="44.203125" y="69.027789" style="stroke: #000000; stroke-width: 0.8"/>
      </g>
     </g>
     <g id="text_10">
      <!-- 5 -->
      <g transform="translate(30.840625 72.827007) scale(0.1 -0.1)">
       <defs>
        <path id="DejaVuSans-35" d="M 691 4666 
L 3169 4666 
L 3169 4134 
L 1269 4134 
L 1269 2991 
Q 1406 3038 1543 3061 
Q 1681 3084 1819 3084 
Q 2600 3084 3056 2656 
Q 3513 2228 3513 1497 
Q 3513 744 3044 326 
Q 2575 -91 1722 -91 
Q 1428 -91 1123 -41 
Q 819 9 494 109 
L 494 744 
Q 775 591 1075 516 
Q 1375 441 1709 441 
Q 2250 441 2565 725 
Q 2881 1009 2881 1497 
Q 2881 1984 2565 2268 
Q 2250 2553 1709 2553 
Q 1456 2553 1204 2497 
Q 953 2441 691 2322 
L 691 4666 
z
" transform="scale(0.015625)"/>
       </defs>
       <use xlink:href="#DejaVuSans-35"/>
      </g>
     </g>
    </g>
    <g id="ytick_3">
     <g id="line2d_19">
      <path d="M 44.203125 39.395634 
L 272.710638 39.395634 
" clip-path="url(#p99005ef60b)" style="fill: none; stroke: #b0b0b0; stroke-width: 0.8; stroke-linecap: square"/>
     </g>
     <g id="line2d_20">
      <g>
       <use xlink:href="#m375bab4fff" x="44.203125" y="39.395634" style="stroke: #000000; stroke-width: 0.8"/>
      </g>
     </g>
     <g id="text_11">
      <!-- 10 -->
      <g transform="translate(24.478125 43.194853) scale(0.1 -0.1)">
       <use xlink:href="#DejaVuSans-31"/>
       <use xlink:href="#DejaVuSans-30" transform="translate(63.623047 0)"/>
      </g>
     </g>
    </g>
    <g id="text_12">
     <!-- Power (kW) -->
     <g transform="translate(18.398438 85.265625) rotate(-90) scale(0.1 -0.1)">
      <defs>
       <path id="DejaVuSans-50" d="M 1259 4147 
L 1259 2394 
L 2053 2394 
Q 2494 2394 2734 2622 
Q 2975 2850 2975 3272 
Q 2975 3691 2734 3919 
Q 2494 4147 2053 4147 
L 1259 4147 
z
M 628 4666 
L 2053 4666 
Q 2838 4666 3239 4311 
Q 3641 3956 3641 3272 
Q 3641 2581 3239 2228 
Q 2838 1875 2053 1875 
L 1259 1875 
L 1259 0 
L 628 0 
L 628 4666 
z
" transform="scale(0.015625)"/>
       <path id="DejaVuSans-6f" d="M 1959 3097 
Q 1497 3097 1228 2736 
Q 959 2375 959 1747 
Q 959 1119 1226 758 
Q 1494 397 1959 397 
Q 2419 397 2687 759 
Q 2956 1122 2956 1747 
Q 2956 2369 2687 2733 
Q 2419 3097 1959 3097 
z
M 1959 3584 
Q 2709 3584 3137 3096 
Q 3566 2609 3566 1747 
Q 3566 888 3137 398 
Q 2709 -91 1959 -91 
Q 1206 -91 779 398 
Q 353 888 353 1747 
Q 353 2609 779 3096 
Q 1206 3584 1959 3584 
z
" transform="scale(0.015625)"/>
       <path id="DejaVuSans-77" d="M 269 3500 
L 844 3500 
L 1563 769 
L 2278 3500 
L 2956 3500 
L 3675 769 
L 4391 3500 
L 4966 3500 
L 4050 0 
L 3372 0 
L 2619 2869 
L 1863 0 
L 1184 0 
L 269 3500 
z
" transform="scale(0.015625)"/>
       <path id="DejaVuSans-72" d="M 2631 2963 
Q 2534 3019 2420 3045 
Q 2306 3072 2169 3072 
Q 1681 3072 1420 2755 
Q 1159 2438 1159 1844 
L 1159 0 
L 581 0 
L 581 3500 
L 1159 3500 
L 1159 2956 
Q 1341 3275 1631 3429 
Q 1922 3584 2338 3584 
Q 2397 3584 2469 3576 
Q 2541 3569 2628 3553 
L 2631 2963 
z
" transform="scale(0.015625)"/>
       <path id="DejaVuSans-6b" d="M 581 4863 
L 1159 4863 
L 1159 1991 
L 2875 3500 
L 3609 3500 
L 1753 1863 
L 3688 0 
L 2938 0 
L 1159 1709 
L 1159 0 
L 581 0 
L 581 4863 
z
" transform="scale(0.015625)"/>
       <path id="DejaVuSans-57" d="M 213 4666 
L 850 4666 
L 1831 722 
L 2809 4666 
L 3519 4666 
L 4500 722 
L 5478 4666 
L 6119 4666 
L 4947 0 
L 4153 0 
L 3169 4050 
L 2175 0 
L 1381 0 
L 213 4666 
z
" transform="scale(0.015625)"/>
      </defs>
      <use xlink:href="#DejaVuSans-50"/>
      <use xlink:href="#DejaVuSans-6f" transform="translate(56.677734 0)"/>
      <use xlink:href="#DejaVuSans-77" transform="translate(117.859375 0)"/>
      <use xlink:href="#DejaVuSans-65" transform="translate(199.646484 0)"/>
      <use xlink:href="#DejaVuSans-72" transform="translate(261.169922 0)"/>
      <use xlink:href="#DejaVuSans-20" transform="translate(302.283203 0)"/>
      <use xlink:href="#DejaVuSans-28" transform="translate(334.070312 0)"/>
      <use xlink:href="#DejaVuSans-6b" transform="translate(373.083984 0)"/>
      <use xlink:href="#DejaVuSans-57" transform="translate(430.994141 0)"/>
      <use xlink:href="#DejaVuSans-29" transform="translate(529.871094 0)"/>
     </g>
    </g>
   </g>
   <g id="line2d_21">
    <path d="M 43.890956 98.659943 
L 57.314212 98.659943 
L 57.314212 98.439643 
L 57.626381 98.439643 
L 57.626381 98.313758 
L 59.499393 98.250815 
L 59.499393 98.168989 
L 60.748068 98.08087 
L 60.748068 98.024221 
L 62.308912 97.929807 
L 62.308912 97.910924 
L 65.430599 97.803921 
L 65.430599 97.68433 
L 66.054936 97.577327 
L 66.054936 97.495502 
L 66.679274 97.426265 
L 66.679274 97.319262 
L 66.991443 97.319262 
L 66.991443 97.073785 
L 67.303611 97.073785 
L 67.303611 96.777954 
L 67.61578 96.777954 
L 67.61578 96.066701 
L 67.927949 96.066701 
L 67.927949 95.777164 
L 68.240117 95.777164 
L 68.240117 95.582041 
L 68.552286 95.582041 
L 68.552286 94.908553 
L 68.864455 94.908553 
L 68.864455 95.393213 
L 69.176624 95.393213 
L 69.176624 95.588335 
L 69.488792 95.588335 
L 69.488792 95.248444 
L 69.800961 95.248444 
L 69.800961 95.41839 
L 70.11313 95.41839 
L 70.11313 95.657572 
L 70.737467 95.63869 
L 70.737467 95.273621 
L 71.049636 95.273621 
L 71.049636 95.047027 
L 71.673974 94.952613 
L 71.673974 94.927436 
L 72.298311 94.877082 
L 72.298311 94.776373 
L 72.61048 94.776373 
L 72.61048 94.612722 
L 73.234817 94.568662 
L 73.234817 94.335774 
L 73.859155 94.253948 
L 73.859155 94.084003 
L 74.171323 94.084003 
L 74.171323 93.895174 
L 75.10783 93.869997 
L 75.10783 93.718935 
L 75.419998 93.718935 
L 75.419998 93.504929 
L 75.732167 93.504929 
L 75.732167 93.637109 
L 76.044336 93.637109 
L 76.044336 93.781877 
L 76.356505 93.781877 
L 76.356505 93.611932 
L 77.605179 93.605638 
L 77.605179 93.410515 
L 77.917348 93.410515 
L 77.917348 93.15245 
L 78.541686 93.070624 
L 78.541686 92.93215 
L 78.853854 92.93215 
L 78.853854 92.592259 
L 79.166023 92.592259 
L 79.166023 92.315311 
L 79.790361 92.239779 
L 79.790361 92.183131 
L 80.102529 92.183131 
L 80.102529 91.918771 
L 80.414698 91.918771 
L 80.414698 91.761414 
L 80.726867 91.761414 
L 80.726867 91.53482 
L 81.039035 91.53482 
L 81.039035 91.408935 
L 81.975542 91.308226 
L 81.975542 91.157163 
L 82.912048 91.157163 
L 82.912048 90.987218 
L 83.536385 90.892804 
L 83.536385 90.792095 
L 84.160723 90.71027 
L 84.160723 90.546618 
L 84.472892 90.546618 
L 84.472892 90.112313 
L 84.78506 90.112313 
L 84.78506 89.810188 
L 85.097229 89.810188 
L 85.097229 89.438825 
L 85.409398 89.438825 
L 85.409398 89.161877 
L 85.721566 89.161877 
L 85.721566 89.382177 
L 86.345904 89.344411 
L 86.345904 89.873131 
L 86.658073 89.873131 
L 86.658073 90.175256 
L 86.970241 90.175256 
L 86.970241 90.389261 
L 87.28241 90.389261 
L 87.28241 90.716564 
L 87.906748 90.792095 
L 87.906748 90.477381 
L 88.218916 90.477381 
L 88.218916 89.772422 
L 88.531085 89.772422 
L 88.531085 89.187054 
L 88.843254 89.187054 
L 88.843254 88.922695 
L 89.155423 88.922695 
L 89.155423 88.475801 
L 89.467591 88.475801 
L 89.467591 88.098144 
L 89.77976 88.098144 
L 89.77976 88.331032 
L 90.091929 88.331032 
L 90.091929 88.834575 
L 90.404097 88.834575 
L 90.404097 89.029697 
L 90.716266 89.029697 
L 90.716266 88.884929 
L 91.028435 88.884929 
L 91.028435 88.614275 
L 91.652772 88.563921 
L 91.652772 88.771632 
L 91.964941 88.771632 
L 91.964941 89.080052 
L 92.27711 89.080052 
L 92.27711 89.300351 
L 92.589279 89.300351 
L 92.589279 90.200433 
L 92.901447 90.200433 
L 92.901447 90.804684 
L 93.213616 90.804684 
L 93.213616 91.144575 
L 93.837954 91.213812 
L 93.837954 90.911687 
L 94.150122 90.911687 
L 94.150122 90.364084 
L 94.462291 90.364084 
L 94.462291 89.678008 
L 94.77446 89.678008 
L 94.77446 88.9164 
L 95.086628 88.9164 
L 95.086628 88.400269 
L 95.398797 88.400269 
L 95.398797 87.512776 
L 95.710966 87.512776 
L 95.710966 87.235828 
L 96.023135 87.235828 
L 96.023135 86.965174 
L 96.335303 86.965174 
L 96.335303 86.43016 
L 96.647472 86.43016 
L 96.647472 85.800733 
L 96.959641 85.800733 
L 96.959641 85.630787 
L 97.27181 85.630787 
L 97.27181 86.146918 
L 97.583978 86.146918 
L 97.583978 86.965174 
L 97.896147 86.965174 
L 97.896147 87.69531 
L 98.208316 87.69531 
L 98.208316 88.13591 
L 98.520485 88.13591 
L 98.520485 88.337327 
L 98.832653 88.337327 
L 98.832653 88.752749 
L 99.144822 88.752749 
L 99.144822 89.369588 
L 99.456991 89.369588 
L 99.456991 89.709479 
L 99.769159 89.709479 
L 99.769159 89.999016 
L 100.081328 89.999016 
L 100.081328 90.351496 
L 100.393497 90.351496 
L 100.393497 90.00531 
L 100.705666 90.00531 
L 100.705666 89.5773 
L 101.017834 89.5773 
L 101.017834 88.475801 
L 101.330003 88.475801 
L 101.330003 87.550542 
L 101.642172 87.550542 
L 101.642172 86.524575 
L 101.954341 86.524575 
L 101.954341 85.360133 
L 102.266509 85.360133 
L 102.266509 83.396318 
L 102.578678 83.396318 
L 102.578678 81.520623 
L 102.890847 81.520623 
L 102.890847 73.035936 
L 103.203016 73.035936 
L 103.203016 77.076863 
L 103.515184 77.076863 
L 103.515184 80.393947 
L 103.827353 80.393947 
L 103.827353 81.432503 
L 104.139522 81.432503 
L 104.139522 81.860514 
L 104.45169 81.860514 
L 104.45169 82.061931 
L 104.763859 82.061931 
L 104.763859 80.954138 
L 105.076028 80.954138 
L 105.076028 80.261768 
L 105.388197 80.261768 
L 105.388197 80.872313 
L 105.700365 80.872313 
L 105.700365 81.407326 
L 106.012534 81.407326 
L 106.012534 80.431713 
L 106.324703 80.431713 
L 106.324703 76.932094 
L 106.636872 76.932094 
L 106.636872 66.703892 
L 106.94904 66.703892 
L 106.94904 67.937571 
L 107.261209 67.937571 
L 107.261209 48.456779 
L 107.573378 48.456779 
L 107.573378 54.423755 
L 107.885547 54.423755 
L 107.885547 49.168033 
L 108.197715 49.168033 
L 108.197715 47.877705 
L 108.509884 47.877705 
L 108.509884 41.212065 
L 108.822053 41.212065 
L 108.822053 61.064219 
L 109.134221 61.064219 
L 109.134221 46.996506 
L 109.44639 46.996506 
L 109.44639 35.729748 
L 109.758559 35.729748 
L 109.758559 50.533891 
L 110.070728 50.533891 
L 110.070728 50.842311 
L 110.382896 50.842311 
L 110.382896 50.024054 
L 110.695065 50.024054 
L 110.695065 61.687352 
L 111.007234 61.687352 
L 111.007234 59.194818 
L 111.319403 59.194818 
L 111.319403 58.200322 
L 111.631571 58.200322 
L 111.631571 48.041357 
L 111.94374 48.041357 
L 111.94374 45.372583 
L 112.255909 45.372583 
L 112.255909 42.452038 
L 112.568078 42.452038 
L 112.568078 52.497706 
L 112.880246 52.497706 
L 112.880246 46.883209 
L 113.192415 46.883209 
L 113.192415 54.895826 
L 113.504584 54.895826 
L 113.504584 36.900484 
L 113.816752 36.900484 
L 113.816752 38.675471 
L 114.128921 38.675471 
L 114.128921 35.490566 
L 115.065427 35.566097 
L 115.065427 37.668386 
L 115.377596 37.668386 
L 115.377596 53.762856 
L 115.689765 53.762856 
L 115.689765 38.392228 
L 116.001934 38.392228 
L 116.001934 33.092446 
L 116.314102 33.092446 
L 116.314102 35.603863 
L 116.626271 35.603863 
L 116.626271 50.754191 
L 116.93844 50.754191 
L 116.93844 59.024872 
L 117.250609 59.024872 
L 117.250609 68.283756 
L 117.562777 68.283756 
L 117.562777 65.432448 
L 117.874946 65.432448 
L 117.874946 68.013102 
L 118.187115 68.013102 
L 118.187115 66.131113 
L 118.499283 66.131113 
L 118.499283 67.207434 
L 118.811452 67.207434 
L 118.811452 72.21768 
L 119.123621 72.21768 
L 119.123621 68.925772 
L 119.43579 68.925772 
L 119.43579 72.683456 
L 119.747958 72.683456 
L 119.747958 72.249151 
L 120.060127 72.249151 
L 120.060127 72.009969 
L 120.372296 72.009969 
L 120.372296 72.95411 
L 120.684465 72.95411 
L 120.684465 77.895119 
L 120.996633 77.895119 
L 120.996633 78.373484 
L 121.308802 78.373484 
L 121.308802 70.109097 
L 121.620971 70.109097 
L 121.620971 65.237325 
L 121.93314 65.237325 
L 121.93314 67.459205 
L 122.245308 67.459205 
L 122.245308 56.110622 
L 122.557477 56.110622 
L 122.557477 71.059533 
L 122.869646 71.059533 
L 122.869646 43.855662 
L 123.181814 43.855662 
L 123.181814 51.629095 
L 123.493983 51.629095 
L 123.493983 68.20193 
L 123.806152 68.20193 
L 123.806152 80.419125 
L 124.118321 80.419125 
L 124.118321 64.790431 
L 124.430489 64.790431 
L 124.430489 77.586699 
L 124.742658 77.586699 
L 124.742658 71.109887 
L 125.054827 71.109887 
L 125.054827 77.92659 
L 125.366996 77.92659 
L 125.366996 82.710242 
L 125.679164 82.710242 
L 125.679164 45.945362 
L 125.991333 45.945362 
L 125.991333 30.581029 
L 126.303502 30.581029 
L 126.303502 30.958685 
L 126.927839 30.864271 
L 126.927839 31.443345 
L 127.240008 31.443345 
L 127.240008 31.821001 
L 127.552177 31.821001 
L 127.552177 33.860348 
L 127.864345 33.860348 
L 127.864345 32.481901 
L 128.176514 32.481901 
L 128.176514 32.305661 
L 128.488683 32.305661 
L 128.488683 31.575525 
L 128.800852 31.575525 
L 128.800852 41.388304 
L 129.11302 41.388304 
L 129.11302 42.200266 
L 129.425189 42.200266 
L 129.425189 58.489859 
L 129.737358 58.489859 
L 129.737358 29.34735 
L 130.049527 29.34735 
L 130.049527 30.3922 
L 130.361695 30.3922 
L 130.361695 31.065688 
L 130.673864 31.065688 
L 130.673864 51.138142 
L 130.986033 51.138142 
L 130.986033 80.708661 
L 131.298202 80.708661 
L 131.298202 55.928087 
L 131.61037 55.928087 
L 131.61037 61.36005 
L 131.922539 61.36005 
L 131.922539 68.006808 
L 132.234708 68.006808 
L 132.234708 64.286889 
L 132.546876 64.286889 
L 132.546876 57.860431 
L 132.859045 57.860431 
L 132.859045 56.664518 
L 133.171214 56.664518 
L 133.171214 75.805418 
L 133.483383 75.805418 
L 133.483383 71.82114 
L 133.795551 71.82114 
L 133.795551 79.248389 
L 134.10772 79.248389 
L 134.10772 72.412802 
L 134.419889 72.412802 
L 134.419889 86.681931 
L 134.732058 86.681931 
L 134.732058 84.969888 
L 135.044226 84.969888 
L 135.044226 68.667707 
L 135.356395 68.667707 
L 135.356395 42.747869 
L 135.668564 42.747869 
L 135.668564 84.567054 
L 135.980733 84.567054 
L 135.980733 83.994275 
L 136.292901 83.994275 
L 136.292901 69.794383 
L 136.60507 69.794383 
L 136.60507 35.352092 
L 136.917239 35.352092 
L 136.917239 74.061903 
L 137.229407 74.061903 
L 137.229407 83.566264 
L 137.541576 83.566264 
L 137.541576 83.950215 
L 137.853745 83.950215 
L 137.853745 82.89907 
L 138.165914 82.89907 
L 138.165914 81.02967 
L 138.478082 81.02967 
L 138.478082 76.277489 
L 138.790251 76.277489 
L 138.790251 77.467108 
L 139.10242 77.467108 
L 139.10242 76.906917 
L 139.414589 76.906917 
L 139.414589 75.125636 
L 139.726757 75.125636 
L 139.726757 66.168878 
L 140.038926 66.168878 
L 140.038926 74.92422 
L 140.351095 74.92422 
L 140.351095 77.01392 
L 140.663264 77.01392 
L 140.663264 77.88253 
L 140.975432 77.88253 
L 140.975432 79.745637 
L 141.287601 79.745637 
L 141.287601 82.03046 
L 141.59977 82.03046 
L 141.59977 81.338089 
L 141.911938 81.338089 
L 141.911938 82.861305 
L 142.224107 82.861305 
L 142.224107 83.314493 
L 142.536276 83.314493 
L 142.536276 84.044629 
L 142.848445 84.044629 
L 142.848445 84.680351 
L 143.160613 84.680351 
L 143.160613 85.12095 
L 143.784951 85.12095 
L 143.784951 83.792858 
L 144.09712 83.792858 
L 144.09712 81.017081 
L 144.409288 81.017081 
L 144.409288 78.128007 
L 144.721457 78.128007 
L 144.721457 76.567026 
L 145.033626 76.567026 
L 145.033626 73.564655 
L 145.345794 73.564655 
L 145.345794 71.770786 
L 145.657963 71.770786 
L 145.657963 66.741658 
L 145.970132 66.741658 
L 145.970132 50.716425 
L 146.282301 50.716425 
L 146.282301 26.697459 
L 146.594469 26.697459 
L 146.594469 14.983807 
L 146.906638 14.983807 
L 146.906638 19.647867 
L 147.218807 19.647867 
L 147.218807 62.914736 
L 147.530976 62.914736 
L 147.530976 75.295582 
L 147.843144 75.295582 
L 147.843144 78.449015 
L 148.155313 78.449015 
L 148.155313 77.297162 
L 148.467482 77.297162 
L 148.467482 73.168116 
L 148.779651 73.168116 
L 148.779651 70.216099 
L 149.091819 70.216099 
L 149.091819 64.286889 
L 149.403988 64.286889 
L 149.403988 60.96351 
L 149.716157 60.96351 
L 149.716157 76.485201 
L 150.028325 76.485201 
L 150.028325 82.483648 
L 150.340494 82.483648 
L 150.340494 86.587517 
L 150.652663 86.587517 
L 150.652663 89.338117 
L 150.964832 89.338117 
L 150.964832 90.823567 
L 151.277 90.823567 
L 151.277 91.062749 
L 151.901338 91.031278 
L 151.901338 90.389261 
L 152.213507 90.389261 
L 152.213507 88.375092 
L 152.525675 88.375092 
L 152.525675 86.757463 
L 152.837844 86.757463 
L 152.837844 85.316073 
L 153.150013 85.316073 
L 153.150013 84.957299 
L 153.462182 84.957299 
L 153.462182 85.73779 
L 153.77435 85.73779 
L 153.77435 86.631577 
L 154.086519 86.631577 
L 154.086519 87.657545 
L 154.398688 87.657545 
L 154.398688 88.286972 
L 154.710856 88.286972 
L 154.710856 88.557626 
L 155.023025 88.557626 
L 155.023025 88.343621 
L 155.335194 88.343621 
L 155.335194 88.110733 
L 155.647363 88.110733 
L 155.647363 87.87155 
L 156.2717 87.87155 
L 156.2717 88.09185 
L 156.583869 88.09185 
L 156.583869 87.808607 
L 156.896038 87.808607 
L 156.896038 87.56313 
L 157.520375 87.493893 
L 157.520375 86.87076 
L 157.832544 86.87076 
L 157.832544 86.065092 
L 158.144713 86.065092 
L 158.144713 84.183103 
L 158.456881 84.183103 
L 158.456881 81.042258 
L 158.76905 81.042258 
L 158.76905 78.039887 
L 159.081219 78.039887 
L 159.081219 61.624409 
L 159.393387 61.624409 
L 159.393387 41.961084 
L 159.705556 41.961084 
L 159.705556 52.894245 
L 160.017725 52.894245 
L 160.017725 53.202665 
L 160.329894 53.202665 
L 160.329894 49.010676 
L 160.642062 49.010676 
L 160.642062 43.408768 
L 160.954231 43.408768 
L 160.954231 19.824107 
L 161.2664 19.824107 
L 161.2664 18.382717 
L 161.578569 18.382717 
L 161.578569 22.499175 
L 161.890737 22.499175 
L 161.890737 17.803644 
L 162.202906 17.803644 
L 162.202906 40.941411 
L 162.515075 40.941411 
L 162.515075 42.011438 
L 162.827244 42.011438 
L 162.827244 22.738358 
L 163.139412 22.738358 
L 163.139412 55.625962 
L 163.451581 55.625962 
L 163.451581 61.693646 
L 163.76375 61.693646 
L 163.76375 66.282175 
L 164.075918 66.282175 
L 164.075918 73.344356 
L 164.388087 73.344356 
L 164.388087 77.095746 
L 164.700256 77.095746 
L 164.700256 80.299533 
L 165.012425 80.299533 
L 165.012425 82.231877 
L 165.324593 82.231877 
L 165.324593 82.829833 
L 165.948931 82.924247 
L 165.948931 83.062721 
L 166.573268 83.081604 
L 166.573268 83.238961 
L 166.885437 83.238961 
L 166.885437 83.862095 
L 167.197606 83.862095 
L 167.197606 84.629997 
L 168.134112 84.661468 
L 168.134112 84.176809 
L 168.446281 84.176809 
L 168.446281 81.463975 
L 168.758449 81.463975 
L 168.758449 82.420705 
L 169.070618 82.420705 
L 169.070618 82.212994 
L 169.382787 82.212994 
L 169.382787 81.753512 
L 169.694956 81.753512 
L 169.694956 81.369561 
L 170.007124 81.369561 
L 170.007124 80.815664 
L 170.319293 80.815664 
L 170.319293 80.450596 
L 170.631462 80.450596 
L 170.631462 80.733838 
L 170.943631 80.733838 
L 170.943631 80.89749 
L 171.255799 80.89749 
L 171.255799 80.683484 
L 171.567968 80.683484 
L 171.567968 78.071359 
L 171.880137 78.071359 
L 171.880137 64.280595 
L 172.192306 64.280595 
L 172.192306 57.860431 
L 172.504474 57.860431 
L 172.504474 38.29152 
L 172.816643 38.29152 
L 172.816643 63.040622 
L 173.128812 63.040622 
L 173.128812 44.705389 
L 173.44098 44.705389 
L 173.44098 56.500867 
L 173.753149 56.500867 
L 173.753149 48.70855 
L 174.065318 48.70855 
L 174.065318 43.761247 
L 174.377487 43.761247 
L 174.377487 55.462311 
L 174.689655 55.462311 
L 174.689655 73.677952 
L 175.001824 73.677952 
L 175.001824 80.532422 
L 175.313993 80.532422 
L 175.313993 83.050133 
L 175.626162 83.050133 
L 175.626162 85.334956 
L 175.93833 85.334956 
L 175.93833 86.593812 
L 176.250499 86.593812 
L 176.250499 87.109942 
L 176.874837 87.116237 
L 176.874837 86.090269 
L 177.187005 86.090269 
L 177.187005 85.486019 
L 177.499174 85.486019 
L 177.499174 87.00294 
L 177.811343 87.00294 
L 177.811343 87.537953 
L 178.123511 87.537953 
L 178.123511 87.751959 
L 178.43568 87.751959 
L 178.43568 88.337327 
L 178.747849 88.337327 
L 178.747849 88.840869 
L 179.060018 88.840869 
L 179.060018 89.394765 
L 179.372186 89.394765 
L 179.372186 89.929779 
L 179.684355 89.929779 
L 179.684355 90.427027 
L 180.620861 90.44591 
L 180.620861 90.697681 
L 180.93303 90.697681 
L 180.93303 91.094221 
L 181.245199 91.094221 
L 181.245199 91.371169 
L 181.557368 91.371169 
L 181.557368 91.673294 
L 181.869536 91.673294 
L 181.869536 91.925065 
L 182.181705 91.925065 
L 182.181705 92.063539 
L 182.806042 92.025774 
L 182.806042 91.786591 
L 183.118211 91.786591 
L 183.118211 91.547409 
L 183.43038 91.547409 
L 183.43038 91.396346 
L 183.742549 91.396346 
L 183.742549 90.62215 
L 184.054717 90.62215 
L 184.054717 88.752749 
L 184.366886 88.752749 
L 184.366886 87.412068 
L 184.679055 87.412068 
L 184.679055 86.291686 
L 184.991224 86.291686 
L 184.991224 77.511168 
L 185.303392 77.511168 
L 185.303392 76.466318 
L 185.615561 76.466318 
L 185.615561 80.211413 
L 185.92773 80.211413 
L 185.92773 80.658307 
L 186.239899 80.658307 
L 186.239899 82.036754 
L 186.552067 82.036754 
L 186.552067 84.233457 
L 186.864236 84.233457 
L 186.864236 86.266509 
L 187.176405 86.266509 
L 187.176405 87.682722 
L 187.488573 87.682722 
L 187.488573 88.633158 
L 187.800742 88.633158 
L 187.800742 89.111523 
L 188.42508 89.010814 
L 188.42508 86.807817 
L 188.737248 86.807817 
L 188.737248 82.049343 
L 189.049417 82.049343 
L 189.049417 77.221631 
L 189.361586 77.221631 
L 189.361586 75.201168 
L 189.673755 75.201168 
L 189.673755 81.860514 
L 189.985923 81.860514 
L 189.985923 79.141386 
L 190.298092 79.141386 
L 190.298092 83.465555 
L 190.610261 83.465555 
L 190.610261 85.47343 
L 190.92243 85.47343 
L 190.92243 86.801523 
L 191.234598 86.801523 
L 191.234598 88.771632 
L 191.546767 88.771632 
L 191.546767 90.055665 
L 191.858936 90.055665 
L 191.858936 90.703975 
L 192.171104 90.703975 
L 192.171104 90.980924 
L 192.483273 90.980924 
L 192.483273 91.283049 
L 192.795442 91.283049 
L 192.795442 91.660706 
L 193.107611 91.660706 
L 193.107611 92.025774 
L 193.419779 92.025774 
L 193.419779 92.53561 
L 193.731948 92.53561 
L 193.731948 92.969916 
L 194.044117 92.969916 
L 194.044117 93.190215 
L 194.668454 93.265747 
L 194.668454 93.303512 
L 194.980623 93.303512 
L 194.980623 93.580461 
L 195.292792 93.580461 
L 195.292792 93.863703 
L 195.604961 93.863703 
L 195.604961 93.995883 
L 195.917129 93.995883 
L 195.917129 94.272831 
L 196.541467 94.32948 
L 196.541467 94.423894 
L 196.853635 94.423894 
L 196.853635 94.537191 
L 197.165804 94.537191 
L 197.165804 94.650488 
L 197.477973 94.650488 
L 197.477973 94.537191 
L 197.790142 94.537191 
L 197.790142 94.379834 
L 198.10231 94.379834 
L 198.10231 94.247654 
L 198.726648 94.235066 
L 198.726648 93.825937 
L 199.350985 93.775583 
L 199.350985 93.681169 
L 199.663154 93.681169 
L 199.663154 93.379044 
L 199.975323 93.379044 
L 199.975323 93.070624 
L 200.287492 93.070624 
L 200.287492 92.93215 
L 201.223998 92.995093 
L 201.223998 93.190215 
L 201.848335 93.171332 
L 201.848335 93.341278 
L 202.160504 93.341278 
L 202.160504 93.542695 
L 202.472673 93.542695 
L 202.472673 93.725229 
L 202.784841 93.725229 
L 202.784841 94.008471 
L 203.09701 94.008471 
L 203.09701 94.32948 
L 204.033516 94.430188 
L 204.033516 94.600134 
L 204.970023 94.681959 
L 204.970023 94.732313 
L 205.906529 94.801551 
L 205.906529 94.530897 
L 206.218697 94.530897 
L 206.218697 94.06512 
L 206.530866 94.06512 
L 206.530866 93.353867 
L 206.843035 93.353867 
L 206.843035 92.630025 
L 207.467372 92.554493 
L 207.467372 93.183921 
L 207.779541 93.183921 
L 207.779541 93.945529 
L 208.09171 93.945529 
L 208.09171 94.644194 
L 208.403879 94.644194 
L 208.403879 94.984085 
L 208.716047 94.984085 
L 208.716047 95.267327 
L 209.028216 95.267327 
L 209.028216 95.386918 
L 209.652553 95.443567 
L 209.652553 95.556864 
L 210.276891 95.63869 
L 210.276891 95.947109 
L 210.58906 95.947109 
L 210.58906 96.192586 
L 210.901228 96.192586 
L 210.901228 96.438063 
L 211.213397 96.438063 
L 211.213397 96.759071 
L 212.774241 96.866074 
L 212.774241 96.884957 
L 214.647253 96.777954 
L 214.647253 96.7276 
L 216.520266 96.81572 
L 216.520266 96.847191 
L 217.144603 96.822014 
L 217.144603 96.715011 
L 217.456772 96.715011 
L 217.456772 96.853485 
L 219.017615 96.947899 
L 219.017615 96.991959 
L 219.329784 96.991959 
L 219.329784 97.143022 
L 219.641953 97.143022 
L 219.641953 97.256319 
L 220.578459 97.256319 
L 220.578459 97.143022 
L 221.202797 97.180788 
L 221.202797 97.451442 
L 221.827134 97.545856 
L 221.827134 97.589916 
L 222.451472 97.64027 
L 222.451472 97.722096 
L 223.075809 97.829098 
L 223.075809 97.910924 
L 224.012315 98.017927 
L 224.012315 98.112341 
L 224.948821 98.213049 
L 224.948821 98.269698 
L 232.440871 98.326346 
L 232.440871 98.483703 
L 232.75304 98.483703 
L 232.75304 98.659943 
L 273.022806 98.659943 
L 273.022806 98.659943 
" clip-path="url(#p99005ef60b)" style="fill: none; stroke: #1f77b4; stroke-width: 1.5; stroke-linecap: square"/>
   </g>
   <g id="line2d_22">
    <path d="M -1 98.659943 
L 55.441199 98.659943 
L 55.441199 98.428314 
L 60.12373 98.428314 
L 60.12373 97.957502 
L 64.806261 97.957502 
L 64.806261 96.688575 
L 69.488792 96.688575 
L 69.488792 94.911491 
L 74.171323 94.911491 
L 74.171323 93.541016 
L 78.853854 93.541016 
L 78.853854 91.596924 
L 83.536385 91.596924 
L 83.536385 90.114831 
L 88.218916 90.114831 
L 88.218916 88.937801 
L 92.901447 88.937801 
L 92.901447 88.47706 
L 102.266509 88.453981 
L 102.266509 79.222792 
L 106.94904 79.222792 
L 106.94904 52.223275 
L 111.631571 52.223275 
L 111.631571 42.35007 
L 116.314102 42.35007 
L 116.314102 65.959069 
L 120.996633 65.959069 
L 120.996633 68.438595 
L 125.679164 68.438595 
L 125.679164 35.577007 
L 130.361695 35.577007 
L 130.361695 66.53059 
L 135.044226 66.53059 
L 135.044226 73.093843 
L 139.726757 73.093843 
L 139.726757 80.603757 
L 144.409288 80.603757 
L 144.409288 61.077227 
L 149.091819 61.077227 
L 149.091819 83.639697 
L 153.77435 83.639697 
L 153.77435 87.427174 
L 158.456881 87.427174 
L 158.456881 43.025656 
L 163.139412 43.025656 
L 163.139412 77.650481 
L 167.821943 77.650481 
L 167.821943 78.790165 
L 172.504474 78.790165 
L 172.504474 67.998415 
L 177.187005 67.998415 
L 177.187005 89.360357 
L 181.869536 89.360357 
L 181.869536 86.713822 
L 186.552067 86.713822 
L 186.552067 84.19737 
L 191.234598 84.19737 
L 191.234598 92.145785 
L 195.917129 92.145785 
L 195.917129 94.018542 
L 205.282191 93.916995 
L 205.282191 94.344586 
L 209.964722 94.344586 
L 209.964722 96.605071 
L 214.647253 96.605071 
L 214.647253 96.801033 
L 219.329784 96.801033 
L 219.329784 97.532848 
L 224.012315 97.532848 
L 224.012315 98.294036 
L 233.377377 98.402297 
L 233.377377 98.659943 
L 289 98.659943 
L 289 98.659943 
" clip-path="url(#p99005ef60b)" style="fill: none; stroke: #ff7f0e; stroke-width: 1.5; stroke-linecap: square"/>
   </g>
   <g id="line2d_23">
    <path d="M -1 98.659943 
L 8.615889 98.659943 
L 8.615889 98.659943 
L 27.346013 98.659943 
L 27.346013 98.659943 
L 46.076137 98.659943 
L 46.076137 98.426425 
L 64.806261 98.426425 
L 64.806261 94.184501 
L 83.536385 94.184501 
L 83.536385 88.995918 
L 102.266509 88.995918 
L 102.266509 59.938802 
L 120.996633 59.938802 
L 120.996633 60.910009 
L 139.726757 60.910009 
L 139.726757 78.186964 
L 158.456881 78.186964 
L 158.456881 66.866179 
L 177.187005 66.866179 
L 177.187005 88.104333 
L 195.917129 88.104333 
L 195.917129 94.721299 
L 214.647253 94.721299 
L 214.647253 97.757553 
L 233.377377 97.757553 
L 233.377377 98.659943 
L 252.107501 98.659943 
L 252.107501 98.659943 
L 270.837625 98.659943 
L 270.837625 98.659943 
L 289 98.659943 
" clip-path="url(#p99005ef60b)" style="fill: none; stroke: #2ca02c; stroke-width: 1.5; stroke-linecap: square"/>
   </g>
   <g id="line2d_24">
    <path d="M -1 98.659943 
L 46.076137 98.659943 
L 46.076137 93.868948 
L 102.266509 93.868948 
L 102.266509 66.345258 
L 158.456881 66.345258 
L 158.456881 83.230604 
L 214.647253 83.230604 
L 214.647253 98.359147 
L 270.837625 98.359147 
L 270.837625 98.659943 
L 289 98.659943 
" clip-path="url(#p99005ef60b)" style="fill: none; stroke: #d62728; stroke-width: 1.5; stroke-linecap: square"/>
   </g>
   <g id="patch_3">
    <path d="M 44.203125 102.84375 
L 44.203125 10.8 
" style="fill: none; stroke: #000000; stroke-width: 0.8; stroke-linejoin: miter; stroke-linecap: square"/>
   </g>
   <g id="patch_4">
    <path d="M 272.710638 102.84375 
L 272.710638 10.8 
" style="fill: none; stroke: #000000; stroke-width: 0.8; stroke-linejoin: miter; stroke-linecap: square"/>
   </g>
   <g id="patch_5">
    <path d="M 44.203125 102.84375 
L 272.710638 102.84375 
" style="fill: none; stroke: #000000; stroke-width: 0.8; stroke-linejoin: miter; stroke-linecap: square"/>
   </g>
   <g id="patch_6">
    <path d="M 44.203125 10.8 
L 272.710638 10.8 
" style="fill: none; stroke: #000000; stroke-width: 0.8; stroke-linejoin: miter; stroke-linecap: square"/>
   </g>
   <g id="legend_1">
    <g id="patch_7">
     <path d="M 198.951263 77.5125 
L 265.710638 77.5125 
Q 267.710638 77.5125 267.710638 75.5125 
L 267.710638 17.8 
Q 267.710638 15.8 265.710638 15.8 
L 198.951263 15.8 
Q 196.951263 15.8 196.951263 17.8 
L 196.951263 75.5125 
Q 196.951263 77.5125 198.951263 77.5125 
z
" style="fill: #ffffff; opacity: 0.8; stroke: #cccccc; stroke-linejoin: miter"/>
    </g>
    <g id="line2d_25">
     <path d="M 200.951263 23.898437 
L 210.951263 23.898437 
L 210.951263 23.898437 
L 220.951263 23.898437 
L 220.951263 23.898437 
" style="fill: none; stroke: #1f77b4; stroke-width: 1.5; stroke-linecap: square"/>
    </g>
    <g id="text_13">
     <!-- 1 min -->
     <g transform="translate(228.951263 27.398437) scale(0.1 -0.1)">
      <defs>
       <path id="DejaVuSans-6e" d="M 3513 2113 
L 3513 0 
L 2938 0 
L 2938 2094 
Q 2938 2591 2744 2837 
Q 2550 3084 2163 3084 
Q 1697 3084 1428 2787 
Q 1159 2491 1159 1978 
L 1159 0 
L 581 0 
L 581 3500 
L 1159 3500 
L 1159 2956 
Q 1366 3272 1645 3428 
Q 1925 3584 2291 3584 
Q 2894 3584 3203 3211 
Q 3513 2838 3513 2113 
z
" transform="scale(0.015625)"/>
      </defs>
      <use xlink:href="#DejaVuSans-31"/>
      <use xlink:href="#DejaVuSans-20" transform="translate(63.623047 0)"/>
      <use xlink:href="#DejaVuSans-6d" transform="translate(95.410156 0)"/>
      <use xlink:href="#DejaVuSans-69" transform="translate(192.822266 0)"/>
      <use xlink:href="#DejaVuSans-6e" transform="translate(220.605469 0)"/>
     </g>
    </g>
    <g id="line2d_26">
     <path d="M 200.951263 38.576562 
L 210.951263 38.576562 
L 210.951263 38.576562 
L 220.951263 38.576562 
L 220.951263 38.576562 
" style="fill: none; stroke: #ff7f0e; stroke-width: 1.5; stroke-linecap: square"/>
    </g>
    <g id="text_14">
     <!-- 15 min -->
     <g transform="translate(228.951263 42.076562) scale(0.1 -0.1)">
      <use xlink:href="#DejaVuSans-31"/>
      <use xlink:href="#DejaVuSans-35" transform="translate(63.623047 0)"/>
      <use xlink:href="#DejaVuSans-20" transform="translate(127.246094 0)"/>
      <use xlink:href="#DejaVuSans-6d" transform="translate(159.033203 0)"/>
      <use xlink:href="#DejaVuSans-69" transform="translate(256.445312 0)"/>
      <use xlink:href="#DejaVuSans-6e" transform="translate(284.228516 0)"/>
     </g>
    </g>
    <g id="line2d_27">
     <path d="M 200.951263 53.254687 
L 210.951263 53.254687 
L 210.951263 53.254687 
L 220.951263 53.254687 
L 220.951263 53.254687 
" style="fill: none; stroke: #2ca02c; stroke-width: 1.5; stroke-linecap: square"/>
    </g>
    <g id="text_15">
     <!-- 1 h -->
     <g transform="translate(228.951263 56.754687) scale(0.1 -0.1)">
      <defs>
       <path id="DejaVuSans-68" d="M 3513 2113 
L 3513 0 
L 2938 0 
L 2938 2094 
Q 2938 2591 2744 2837 
Q 2550 3084 2163 3084 
Q 1697 3084 1428 2787 
Q 1159 2491 1159 1978 
L 1159 0 
L 581 0 
L 581 4863 
L 1159 4863 
L 1159 2956 
Q 1366 3272 1645 3428 
Q 1925 3584 2291 3584 
Q 2894 3584 3203 3211 
Q 3513 2838 3513 2113 
z
" transform="scale(0.015625)"/>
      </defs>
      <use xlink:href="#DejaVuSans-31"/>
      <use xlink:href="#DejaVuSans-20" transform="translate(63.623047 0)"/>
      <use xlink:href="#DejaVuSans-68" transform="translate(95.410156 0)"/>
     </g>
    </g>
    <g id="line2d_28">
     <path d="M 200.951263 67.932812 
L 210.951263 67.932812 
L 210.951263 67.932812 
L 220.951263 67.932812 
L 220.951263 67.932812 
" style="fill: none; stroke: #d62728; stroke-width: 1.5; stroke-linecap: square"/>
    </g>
    <g id="text_16">
     <!-- 3 h -->
     <g transform="translate(228.951263 71.432812) scale(0.1 -0.1)">
      <defs>
       <path id="DejaVuSans-33" d="M 2597 2516 
Q 3050 2419 3304 2112 
Q 3559 1806 3559 1356 
Q 3559 666 3084 287 
Q 2609 -91 1734 -91 
Q 1441 -91 1130 -33 
Q 819 25 488 141 
L 488 750 
Q 750 597 1062 519 
Q 1375 441 1716 441 
Q 2309 441 2620 675 
Q 2931 909 2931 1356 
Q 2931 1769 2642 2001 
Q 2353 2234 1838 2234 
L 1294 2234 
L 1294 2753 
L 1863 2753 
Q 2328 2753 2575 2939 
Q 2822 3125 2822 3475 
Q 2822 3834 2567 4026 
Q 2313 4219 1838 4219 
Q 1578 4219 1281 4162 
Q 984 4106 628 3988 
L 628 4550 
Q 988 4650 1302 4700 
Q 1616 4750 1894 4750 
Q 2613 4750 3031 4423 
Q 3450 4097 3450 3541 
Q 3450 3153 3228 2886 
Q 3006 2619 2597 2516 
z
" transform="scale(0.015625)"/>
      </defs>
      <use xlink:href="#DejaVuSans-33"/>
      <use xlink:href="#DejaVuSans-20" transform="translate(63.623047 0)"/>
      <use xlink:href="#DejaVuSans-68" transform="translate(95.410156 0)"/>
     </g>
    </g>
   </g>
  </g>
 </g>
 <defs>
  <clipPath id="p99005ef60b">
   <rect x="44.203125" y="10.8" width="228.507513" height="92.04375"/>
  </clipPath>
 </defs>
</svg>
