<?xml version="1.0" encoding="utf-8" standalone="no"?>
<!DOCTYPE svg PUBLIC "-//W3C//DTD SVG 1.1//EN"
  "http://www.w3.org/Graphics/SVG/1.1/DTD/svg11.dtd">
<svg xmlns:xlink="http://www.w3.org/1999/xlink" width="460.8pt" height="345.6pt" viewBox="0 0 460.8 345.6" xmlns="http://www.w3.org/2000/svg" version="1.1">
 <metadata>
  <rdf:RDF xmlns:dc="http://purl.org/dc/elements/1.1/" xmlns:cc="http://creativecommons.org/ns#" xmlns:rdf="http://www.w3.org/1999/02/22-rdf-syntax-ns#">
   <cc:Work>
    <dc:type rdf:resource="http://purl.org/dc/dcmitype/StillImage"/>
    <dc:date>2025-05-15T13:06:43.360878</dc:date>
    <dc:format>image/svg+xml</dc:format>
    <dc:creator>
     <cc:Agent>
      <dc:title>Matplotlib v3.9.1, https://matplotlib.org/</dc:title>
     </cc:Agent>
    </dc:creator>
   </cc:Work>
  </rdf:RDF>
 </metadata>
 <defs>
  <style type="text/css">*{stroke-linejoin: round; stroke-linecap: butt}</style>
 </defs>
 <g id="figure_1">
  <g id="patch_1">
   <path d="M 0 345.6 
L 460.8 345.6 
L 460.8 0 
L 0 0 
z
"/>
  </g>
  <g id="axes_1">
   <g id="patch_2">
    <path d="M 57.6 307.584 
L 414.72 307.584 
L 414.72 41.472 
L 57.6 41.472 
z
"/>
   </g>
   <g id="matplotlib.axis_1">
    <g id="xtick_1">
     <g id="line2d_1">
      <defs>
       <path id="mfde702a883" d="M 0 0 
L 0 3.5 
" style="stroke: #ffffff; stroke-width: 0.8"/>
      </defs>
      <g>
       <use xlink:href="#mfde702a883" x="57.6" y="307.584" style="fill: #ffffff; stroke: #ffffff; stroke-width: 0.8"/>
      </g>
     </g>
     <g id="text_1">
      <!-- 01 -->
      <g style="fill: #ffffff" transform="translate(51.2375 322.182437) scale(0.1 -0.1)">
       <defs>
        <path id="DejaVuSans-30" d="M 2034 4250 
Q 1547 4250 1301 3770 
Q 1056 3291 1056 2328 
Q 1056 1369 1301 889 
Q 1547 409 2034 409 
Q 2525 409 2770 889 
Q 3016 1369 3016 2328 
Q 3016 3291 2770 3770 
Q 2525 4250 2034 4250 
z
M 2034 4750 
Q 2819 4750 3233 4129 
Q 3647 3509 3647 2328 
Q 3647 1150 3233 529 
Q 2819 -91 2034 -91 
Q 1250 -91 836 529 
Q 422 1150 422 2328 
Q 422 3509 836 4129 
Q 1250 4750 2034 4750 
z
" transform="scale(0.015625)"/>
        <path id="DejaVuSans-31" d="M 794 531 
L 1825 531 
L 1825 4091 
L 703 3866 
L 703 4441 
L 1819 4666 
L 2450 4666 
L 2450 531 
L 3481 531 
L 3481 0 
L 794 0 
L 794 531 
z
" transform="scale(0.015625)"/>
       </defs>
       <use xlink:href="#DejaVuSans-30"/>
       <use xlink:href="#DejaVuSans-31" x="63.623047"/>
      </g>
      <!-- Mär -->
      <g style="fill: #ffffff" transform="translate(48.166406 333.38025) scale(0.1 -0.1)">
       <defs>
        <path id="DejaVuSans-4d" d="M 628 4666 
L 1569 4666 
L 2759 1491 
L 3956 4666 
L 4897 4666 
L 4897 0 
L 4281 0 
L 4281 4097 
L 3078 897 
L 2444 897 
L 1241 4097 
L 1241 0 
L 628 0 
L 628 4666 
z
" transform="scale(0.015625)"/>
        <path id="DejaVuSans-e4" d="M 2194 1759 
Q 1497 1759 1228 1600 
Q 959 1441 959 1056 
Q 959 750 1161 570 
Q 1363 391 1709 391 
Q 2188 391 2477 730 
Q 2766 1069 2766 1631 
L 2766 1759 
L 2194 1759 
z
M 3341 1997 
L 3341 0 
L 2766 0 
L 2766 531 
Q 2569 213 2275 61 
Q 1981 -91 1556 -91 
Q 1019 -91 701 211 
Q 384 513 384 1019 
Q 384 1609 779 1909 
Q 1175 2209 1959 2209 
L 2766 2209 
L 2766 2266 
Q 2766 2663 2505 2880 
Q 2244 3097 1772 3097 
Q 1472 3097 1187 3025 
Q 903 2953 641 2809 
L 641 3341 
Q 956 3463 1253 3523 
Q 1550 3584 1831 3584 
Q 2591 3584 2966 3190 
Q 3341 2797 3341 1997 
z
M 2150 4850 
L 2784 4850 
L 2784 4219 
L 2150 4219 
L 2150 4850 
z
M 928 4850 
L 1562 4850 
L 1562 4219 
L 928 4219 
L 928 4850 
z
" transform="scale(0.015625)"/>
        <path id="DejaVuSans-72" d="M 2631 2963 
Q 2534 3019 2420 3045 
Q 2306 3072 2169 3072 
Q 1681 3072 1420 2755 
Q 1159 2438 1159 1844 
L 1159 0 
L 581 0 
L 581 3500 
L 1159 3500 
L 1159 2956 
Q 1341 3275 1631 3429 
Q 1922 3584 2338 3584 
Q 2397 3584 2469 3576 
Q 2541 3569 2628 3553 
L 2631 2963 
z
" transform="scale(0.015625)"/>
       </defs>
       <use xlink:href="#DejaVuSans-4d"/>
       <use xlink:href="#DejaVuSans-e4" x="86.279297"/>
       <use xlink:href="#DejaVuSans-72" x="147.558594"/>
      </g>
      <!-- 2020 -->
      <g style="fill: #ffffff" transform="translate(44.875 344.578062) scale(0.1 -0.1)">
       <defs>
        <path id="DejaVuSans-32" d="M 1228 531 
L 3431 531 
L 3431 0 
L 469 0 
L 469 531 
Q 828 903 1448 1529 
Q 2069 2156 2228 2338 
Q 2531 2678 2651 2914 
Q 2772 3150 2772 3378 
Q 2772 3750 2511 3984 
Q 2250 4219 1831 4219 
Q 1534 4219 1204 4116 
Q 875 4013 500 3803 
L 500 4441 
Q 881 4594 1212 4672 
Q 1544 4750 1819 4750 
Q 2544 4750 2975 4387 
Q 3406 4025 3406 3419 
Q 3406 3131 3298 2873 
Q 3191 2616 2906 2266 
Q 2828 2175 2409 1742 
Q 1991 1309 1228 531 
z
" transform="scale(0.015625)"/>
       </defs>
       <use xlink:href="#DejaVuSans-32"/>
       <use xlink:href="#DejaVuSans-30" x="63.623047"/>
       <use xlink:href="#DejaVuSans-32" x="127.246094"/>
       <use xlink:href="#DejaVuSans-30" x="190.869141"/>
      </g>
     </g>
    </g>
    <g id="xtick_2">
     <g id="line2d_2">
      <g>
       <use xlink:href="#mfde702a883" x="414.72" y="307.584" style="fill: #ffffff; stroke: #ffffff; stroke-width: 0.8"/>
      </g>
     </g>
     <g id="text_2">
      <!-- 07 -->
      <g style="fill: #ffffff" transform="translate(408.3575 322.182437) scale(0.1 -0.1)">
       <defs>
        <path id="DejaVuSans-37" d="M 525 4666 
L 3525 4666 
L 3525 4397 
L 1831 0 
L 1172 0 
L 2766 4134 
L 525 4134 
L 525 4666 
z
" transform="scale(0.015625)"/>
       </defs>
       <use xlink:href="#DejaVuSans-30"/>
       <use xlink:href="#DejaVuSans-37" x="63.623047"/>
      </g>
     </g>
    </g>
    <g id="xtick_3">
     <g id="line2d_3">
      <defs>
       <path id="m397013eaf2" d="M 0 0 
L 0 2 
" style="stroke: #ffffff; stroke-width: 0.6"/>
      </defs>
      <g>
       <use xlink:href="#m397013eaf2" x="117.12" y="307.584" style="fill: #ffffff; stroke: #ffffff; stroke-width: 0.6"/>
      </g>
     </g>
     <g id="text_3">
      <!-- 02 -->
      <g style="fill: #ffffff" transform="translate(110.7575 320.582437) scale(0.1 -0.1)">
       <use xlink:href="#DejaVuSans-30"/>
       <use xlink:href="#DejaVuSans-32" x="63.623047"/>
      </g>
     </g>
    </g>
    <g id="xtick_4">
     <g id="line2d_4">
      <g>
       <use xlink:href="#m397013eaf2" x="176.64" y="307.584" style="fill: #ffffff; stroke: #ffffff; stroke-width: 0.6"/>
      </g>
     </g>
     <g id="text_4">
      <!-- 03 -->
      <g style="fill: #ffffff" transform="translate(170.2775 320.582437) scale(0.1 -0.1)">
       <defs>
        <path id="DejaVuSans-33" d="M 2597 2516 
Q 3050 2419 3304 2112 
Q 3559 1806 3559 1356 
Q 3559 666 3084 287 
Q 2609 -91 1734 -91 
Q 1441 -91 1130 -33 
Q 819 25 488 141 
L 488 750 
Q 750 597 1062 519 
Q 1375 441 1716 441 
Q 2309 441 2620 675 
Q 2931 909 2931 1356 
Q 2931 1769 2642 2001 
Q 2353 2234 1838 2234 
L 1294 2234 
L 1294 2753 
L 1863 2753 
Q 2328 2753 2575 2939 
Q 2822 3125 2822 3475 
Q 2822 3834 2567 4026 
Q 2313 4219 1838 4219 
Q 1578 4219 1281 4162 
Q 984 4106 628 3988 
L 628 4550 
Q 988 4650 1302 4700 
Q 1616 4750 1894 4750 
Q 2613 4750 3031 4423 
Q 3450 4097 3450 3541 
Q 3450 3153 3228 2886 
Q 3006 2619 2597 2516 
z
" transform="scale(0.015625)"/>
       </defs>
       <use xlink:href="#DejaVuSans-30"/>
       <use xlink:href="#DejaVuSans-33" x="63.623047"/>
      </g>
     </g>
    </g>
    <g id="xtick_5">
     <g id="line2d_5">
      <g>
       <use xlink:href="#m397013eaf2" x="236.16" y="307.584" style="fill: #ffffff; stroke: #ffffff; stroke-width: 0.6"/>
      </g>
     </g>
     <g id="text_5">
      <!-- 04 -->
      <g style="fill: #ffffff" transform="translate(229.7975 320.582437) scale(0.1 -0.1)">
       <defs>
        <path id="DejaVuSans-34" d="M 2419 4116 
L 825 1625 
L 2419 1625 
L 2419 4116 
z
M 2253 4666 
L 3047 4666 
L 3047 1625 
L 3713 1625 
L 3713 1100 
L 3047 1100 
L 3047 0 
L 2419 0 
L 2419 1100 
L 313 1100 
L 313 1709 
L 2253 4666 
z
" transform="scale(0.015625)"/>
       </defs>
       <use xlink:href="#DejaVuSans-30"/>
       <use xlink:href="#DejaVuSans-34" x="63.623047"/>
      </g>
     </g>
    </g>
    <g id="xtick_6">
     <g id="line2d_6">
      <g>
       <use xlink:href="#m397013eaf2" x="295.68" y="307.584" style="fill: #ffffff; stroke: #ffffff; stroke-width: 0.6"/>
      </g>
     </g>
     <g id="text_6">
      <!-- 05 -->
      <g style="fill: #ffffff" transform="translate(289.3175 320.582437) scale(0.1 -0.1)">
       <defs>
        <path id="DejaVuSans-35" d="M 691 4666 
L 3169 4666 
L 3169 4134 
L 1269 4134 
L 1269 2991 
Q 1406 3038 1543 3061 
Q 1681 3084 1819 3084 
Q 2600 3084 3056 2656 
Q 3513 2228 3513 1497 
Q 3513 744 3044 326 
Q 2575 -91 1722 -91 
Q 1428 -91 1123 -41 
Q 819 9 494 109 
L 494 744 
Q 775 591 1075 516 
Q 1375 441 1709 441 
Q 2250 441 2565 725 
Q 2881 1009 2881 1497 
Q 2881 1984 2565 2268 
Q 2250 2553 1709 2553 
Q 1456 2553 1204 2497 
Q 953 2441 691 2322 
L 691 4666 
z
" transform="scale(0.015625)"/>
       </defs>
       <use xlink:href="#DejaVuSans-30"/>
       <use xlink:href="#DejaVuSans-35" x="63.623047"/>
      </g>
     </g>
    </g>
    <g id="xtick_7">
     <g id="line2d_7">
      <g>
       <use xlink:href="#m397013eaf2" x="355.2" y="307.584" style="fill: #ffffff; stroke: #ffffff; stroke-width: 0.6"/>
      </g>
     </g>
     <g id="text_7">
      <!-- 06 -->
      <g style="fill: #ffffff" transform="translate(348.8375 320.582437) scale(0.1 -0.1)">
       <defs>
        <path id="DejaVuSans-36" d="M 2113 2584 
Q 1688 2584 1439 2293 
Q 1191 2003 1191 1497 
Q 1191 994 1439 701 
Q 1688 409 2113 409 
Q 2538 409 2786 701 
Q 3034 994 3034 1497 
Q 3034 2003 2786 2293 
Q 2538 2584 2113 2584 
z
M 3366 4563 
L 3366 3988 
Q 3128 4100 2886 4159 
Q 2644 4219 2406 4219 
Q 1781 4219 1451 3797 
Q 1122 3375 1075 2522 
Q 1259 2794 1537 2939 
Q 1816 3084 2150 3084 
Q 2853 3084 3261 2657 
Q 3669 2231 3669 1497 
Q 3669 778 3244 343 
Q 2819 -91 2113 -91 
Q 1303 -91 875 529 
Q 447 1150 447 2328 
Q 447 3434 972 4092 
Q 1497 4750 2381 4750 
Q 2619 4750 2861 4703 
Q 3103 4656 3366 4563 
z
" transform="scale(0.015625)"/>
       </defs>
       <use xlink:href="#DejaVuSans-30"/>
       <use xlink:href="#DejaVuSans-36" x="63.623047"/>
      </g>
     </g>
    </g>
    <g id="text_8">
     <!-- timestep -->
     <g style="fill: #ffffff" transform="translate(214.048281 358.256187) scale(0.1 -0.1)">
      <defs>
       <path id="DejaVuSans-74" d="M 1172 4494 
L 1172 3500 
L 2356 3500 
L 2356 3053 
L 1172 3053 
L 1172 1153 
Q 1172 725 1289 603 
Q 1406 481 1766 481 
L 2356 481 
L 2356 0 
L 1766 0 
Q 1100 0 847 248 
Q 594 497 594 1153 
L 594 3053 
L 172 3053 
L 172 3500 
L 594 3500 
L 594 4494 
L 1172 4494 
z
" transform="scale(0.015625)"/>
       <path id="DejaVuSans-69" d="M 603 3500 
L 1178 3500 
L 1178 0 
L 603 0 
L 603 3500 
z
M 603 4863 
L 1178 4863 
L 1178 4134 
L 603 4134 
L 603 4863 
z
" transform="scale(0.015625)"/>
       <path id="DejaVuSans-6d" d="M 3328 2828 
Q 3544 3216 3844 3400 
Q 4144 3584 4550 3584 
Q 5097 3584 5394 3201 
Q 5691 2819 5691 2113 
L 5691 0 
L 5113 0 
L 5113 2094 
Q 5113 2597 4934 2840 
Q 4756 3084 4391 3084 
Q 3944 3084 3684 2787 
Q 3425 2491 3425 1978 
L 3425 0 
L 2847 0 
L 2847 2094 
Q 2847 2600 2669 2842 
Q 2491 3084 2119 3084 
Q 1678 3084 1418 2786 
Q 1159 2488 1159 1978 
L 1159 0 
L 581 0 
L 581 3500 
L 1159 3500 
L 1159 2956 
Q 1356 3278 1631 3431 
Q 1906 3584 2284 3584 
Q 2666 3584 2933 3390 
Q 3200 3197 3328 2828 
z
" transform="scale(0.015625)"/>
       <path id="DejaVuSans-65" d="M 3597 1894 
L 3597 1613 
L 953 1613 
Q 991 1019 1311 708 
Q 1631 397 2203 397 
Q 2534 397 2845 478 
Q 3156 559 3463 722 
L 3463 178 
Q 3153 47 2828 -22 
Q 2503 -91 2169 -91 
Q 1331 -91 842 396 
Q 353 884 353 1716 
Q 353 2575 817 3079 
Q 1281 3584 2069 3584 
Q 2775 3584 3186 3129 
Q 3597 2675 3597 1894 
z
M 3022 2063 
Q 3016 2534 2758 2815 
Q 2500 3097 2075 3097 
Q 1594 3097 1305 2825 
Q 1016 2553 972 2059 
L 3022 2063 
z
" transform="scale(0.015625)"/>
       <path id="DejaVuSans-73" d="M 2834 3397 
L 2834 2853 
Q 2591 2978 2328 3040 
Q 2066 3103 1784 3103 
Q 1356 3103 1142 2972 
Q 928 2841 928 2578 
Q 928 2378 1081 2264 
Q 1234 2150 1697 2047 
L 1894 2003 
Q 2506 1872 2764 1633 
Q 3022 1394 3022 966 
Q 3022 478 2636 193 
Q 2250 -91 1575 -91 
Q 1294 -91 989 -36 
Q 684 19 347 128 
L 347 722 
Q 666 556 975 473 
Q 1284 391 1588 391 
Q 1994 391 2212 530 
Q 2431 669 2431 922 
Q 2431 1156 2273 1281 
Q 2116 1406 1581 1522 
L 1381 1569 
Q 847 1681 609 1914 
Q 372 2147 372 2553 
Q 372 3047 722 3315 
Q 1072 3584 1716 3584 
Q 2034 3584 2315 3537 
Q 2597 3491 2834 3397 
z
" transform="scale(0.015625)"/>
       <path id="DejaVuSans-70" d="M 1159 525 
L 1159 -1331 
L 581 -1331 
L 581 3500 
L 1159 3500 
L 1159 2969 
Q 1341 3281 1617 3432 
Q 1894 3584 2278 3584 
Q 2916 3584 3314 3078 
Q 3713 2572 3713 1747 
Q 3713 922 3314 415 
Q 2916 -91 2278 -91 
Q 1894 -91 1617 61 
Q 1341 213 1159 525 
z
M 3116 1747 
Q 3116 2381 2855 2742 
Q 2594 3103 2138 3103 
Q 1681 3103 1420 2742 
Q 1159 2381 1159 1747 
Q 1159 1113 1420 752 
Q 1681 391 2138 391 
Q 2594 391 2855 752 
Q 3116 1113 3116 1747 
z
" transform="scale(0.015625)"/>
      </defs>
      <use xlink:href="#DejaVuSans-74"/>
      <use xlink:href="#DejaVuSans-69" x="39.208984"/>
      <use xlink:href="#DejaVuSans-6d" x="66.992188"/>
      <use xlink:href="#DejaVuSans-65" x="164.404297"/>
      <use xlink:href="#DejaVuSans-73" x="225.927734"/>
      <use xlink:href="#DejaVuSans-74" x="278.027344"/>
      <use xlink:href="#DejaVuSans-65" x="317.236328"/>
      <use xlink:href="#DejaVuSans-70" x="378.759766"/>
     </g>
    </g>
   </g>
   <g id="matplotlib.axis_2">
    <g id="ytick_1">
     <g id="line2d_8">
      <defs>
       <path id="maae617ab3f" d="M 0 0 
L -3.5 0 
" style="stroke: #ffffff; stroke-width: 0.8"/>
      </defs>
      <g>
       <use xlink:href="#maae617ab3f" x="57.6" y="295.488" style="fill: #ffffff; stroke: #ffffff; stroke-width: 0.8"/>
      </g>
     </g>
     <g id="text_9">
      <!-- 0.0 -->
      <g style="fill: #ffffff" transform="translate(34.696875 299.287219) scale(0.1 -0.1)">
       <defs>
        <path id="DejaVuSans-2e" d="M 684 794 
L 1344 794 
L 1344 0 
L 684 0 
L 684 794 
z
" transform="scale(0.015625)"/>
       </defs>
       <use xlink:href="#DejaVuSans-30"/>
       <use xlink:href="#DejaVuSans-2e" x="63.623047"/>
       <use xlink:href="#DejaVuSans-30" x="95.410156"/>
      </g>
     </g>
    </g>
    <g id="ytick_2">
     <g id="line2d_9">
      <g>
       <use xlink:href="#maae617ab3f" x="57.6" y="253.985816" style="fill: #ffffff; stroke: #ffffff; stroke-width: 0.8"/>
      </g>
     </g>
     <g id="text_10">
      <!-- 0.5 -->
      <g style="fill: #ffffff" transform="translate(34.696875 257.785035) scale(0.1 -0.1)">
       <use xlink:href="#DejaVuSans-30"/>
       <use xlink:href="#DejaVuSans-2e" x="63.623047"/>
       <use xlink:href="#DejaVuSans-35" x="95.410156"/>
      </g>
     </g>
    </g>
    <g id="ytick_3">
     <g id="line2d_10">
      <g>
       <use xlink:href="#maae617ab3f" x="57.6" y="212.483632" style="fill: #ffffff; stroke: #ffffff; stroke-width: 0.8"/>
      </g>
     </g>
     <g id="text_11">
      <!-- 1.0 -->
      <g style="fill: #ffffff" transform="translate(34.696875 216.282851) scale(0.1 -0.1)">
       <use xlink:href="#DejaVuSans-31"/>
       <use xlink:href="#DejaVuSans-2e" x="63.623047"/>
       <use xlink:href="#DejaVuSans-30" x="95.410156"/>
      </g>
     </g>
    </g>
    <g id="ytick_4">
     <g id="line2d_11">
      <g>
       <use xlink:href="#maae617ab3f" x="57.6" y="170.981448" style="fill: #ffffff; stroke: #ffffff; stroke-width: 0.8"/>
      </g>
     </g>
     <g id="text_12">
      <!-- 1.5 -->
      <g style="fill: #ffffff" transform="translate(34.696875 174.780667) scale(0.1 -0.1)">
       <use xlink:href="#DejaVuSans-31"/>
       <use xlink:href="#DejaVuSans-2e" x="63.623047"/>
       <use xlink:href="#DejaVuSans-35" x="95.410156"/>
      </g>
     </g>
    </g>
    <g id="ytick_5">
     <g id="line2d_12">
      <g>
       <use xlink:href="#maae617ab3f" x="57.6" y="129.479264" style="fill: #ffffff; stroke: #ffffff; stroke-width: 0.8"/>
      </g>
     </g>
     <g id="text_13">
      <!-- 2.0 -->
      <g style="fill: #ffffff" transform="translate(34.696875 133.278483) scale(0.1 -0.1)">
       <use xlink:href="#DejaVuSans-32"/>
       <use xlink:href="#DejaVuSans-2e" x="63.623047"/>
       <use xlink:href="#DejaVuSans-30" x="95.410156"/>
      </g>
     </g>
    </g>
    <g id="ytick_6">
     <g id="line2d_13">
      <g>
       <use xlink:href="#maae617ab3f" x="57.6" y="87.97708" style="fill: #ffffff; stroke: #ffffff; stroke-width: 0.8"/>
      </g>
     </g>
     <g id="text_14">
      <!-- 2.5 -->
      <g style="fill: #ffffff" transform="translate(34.696875 91.776299) scale(0.1 -0.1)">
       <use xlink:href="#DejaVuSans-32"/>
       <use xlink:href="#DejaVuSans-2e" x="63.623047"/>
       <use xlink:href="#DejaVuSans-35" x="95.410156"/>
      </g>
     </g>
    </g>
    <g id="ytick_7">
     <g id="line2d_14">
      <g>
       <use xlink:href="#maae617ab3f" x="57.6" y="46.474896" style="fill: #ffffff; stroke: #ffffff; stroke-width: 0.8"/>
      </g>
     </g>
     <g id="text_15">
      <!-- 3.0 -->
      <g style="fill: #ffffff" transform="translate(34.696875 50.274115) scale(0.1 -0.1)">
       <use xlink:href="#DejaVuSans-33"/>
       <use xlink:href="#DejaVuSans-2e" x="63.623047"/>
       <use xlink:href="#DejaVuSans-30" x="95.410156"/>
      </g>
     </g>
    </g>
   </g>
   <g id="line2d_15">
    <path d="M 55.12 285.144005 
L 55.12 283.558873 
L 57.6 283.558873 
L 57.6 282.57911 
L 62.56 282.481508 
L 62.56 282.169417 
L 65.04 282.169417 
L 65.04 269.423003 
L 67.52 269.423003 
L 67.52 258.340541 
L 70 258.340541 
L 70 281.117832 
L 72.48 281.117832 
L 72.48 280.206852 
L 74.96 280.206852 
L 74.96 256.744478 
L 77.44 256.744478 
L 77.44 253.641687 
L 79.92 253.641687 
L 79.92 279.526795 
L 82.4 279.526795 
L 82.4 213.370718 
L 84.88 213.370718 
L 84.88 260.966052 
L 87.36 260.966052 
L 87.36 275.731282 
L 89.84 275.731282 
L 89.84 268.89699 
L 92.32 268.89699 
L 92.32 276.414747 
L 94.8 276.414747 
L 94.8 275.929061 
L 97.28 275.929061 
L 97.28 257.444818 
L 99.76 257.444818 
L 99.76 276.822649 
L 102.24 276.822649 
L 102.24 274.303907 
L 104.72 274.303907 
L 104.72 281.335954 
L 107.2 281.335954 
L 107.2 278.441169 
L 109.68 278.441169 
L 109.68 285.081938 
L 112.16 285.081938 
L 112.16 281.479669 
L 114.64 281.479669 
L 114.64 282.996223 
L 117.12 282.996223 
L 117.12 286.005048 
L 119.6 286.005048 
L 119.6 277.410944 
L 122.08 277.410944 
L 122.08 286.502141 
L 124.56 286.502141 
L 124.56 276.959152 
L 127.04 276.959152 
L 127.04 285.862599 
L 129.52 285.862599 
L 129.52 283.738842 
L 132 283.738842 
L 132 283.046657 
L 134.48 283.046657 
L 134.48 285.996515 
L 136.96 285.996515 
L 136.96 281.853454 
L 139.44 281.853454 
L 139.44 286.439682 
L 141.92 286.439682 
L 141.92 281.925222 
L 144.4 281.925222 
L 144.4 284.320311 
L 146.88 284.320311 
L 146.88 282.761839 
L 149.36 282.761839 
L 149.36 285.711824 
L 151.84 285.711824 
L 151.84 283.219159 
L 154.32 283.219159 
L 154.32 282.926582 
L 156.8 282.926582 
L 156.8 227.650626 
L 159.28 227.650626 
L 159.28 274.612766 
L 161.76 274.612766 
L 161.76 277.546364 
L 164.24 277.546364 
L 164.24 277.300406 
L 166.72 277.300406 
L 166.72 284.429526 
L 169.2 284.429526 
L 169.2 283.565004 
L 171.68 283.565004 
L 171.68 284.196524 
L 174.16 284.196524 
L 174.16 284.620591 
L 176.64 284.620591 
L 176.64 282.059892 
L 179.12 282.059892 
L 179.12 286.008009 
L 181.6 286.008009 
L 181.6 280.194021 
L 184.08 280.194021 
L 184.08 284.698285 
L 186.56 284.698285 
L 186.56 281.213748 
L 189.04 281.213748 
L 189.04 284.908992 
L 191.52 284.908992 
L 191.52 284.033448 
L 194 284.033448 
L 194 283.173481 
L 196.48 283.173481 
L 196.48 287.649275 
L 198.96 287.649275 
L 198.96 279.358199 
L 201.44 279.358199 
L 201.44 286.977189 
L 203.92 286.977189 
L 203.92 280.685746 
L 206.4 280.685746 
L 206.4 285.027174 
L 208.88 285.027174 
L 208.88 285.192272 
L 211.36 285.192272 
L 211.36 281.648898 
L 213.84 281.648898 
L 213.84 250.326375 
L 216.32 250.326375 
L 216.32 272.171012 
L 218.8 272.171012 
L 218.8 279.860807 
L 221.28 279.860807 
L 221.28 275.988819 
L 223.76 275.988819 
L 223.76 280.832398 
L 226.24 280.832398 
L 226.24 283.179787 
L 228.72 283.179787 
L 228.72 280.463029 
L 231.2 280.463029 
L 231.2 285.029678 
L 233.68 285.029678 
L 233.68 282.958765 
L 236.16 282.958765 
L 236.16 284.99643 
L 238.64 284.99643 
L 238.64 278.882414 
L 241.12 278.882414 
L 241.12 283.708723 
L 243.6 283.708723 
L 243.6 280.364159 
L 246.08 280.364159 
L 246.08 285.164901 
L 248.56 285.164901 
L 248.56 283.131449 
L 251.04 283.131449 
L 251.04 285.016865 
L 256 285.055386 
L 256 282.622132 
L 258.48 282.622132 
L 258.48 287.07189 
L 260.96 287.07189 
L 260.96 280.044712 
L 263.44 280.044712 
L 263.44 287.267646 
L 265.92 287.267646 
L 265.92 281.513645 
L 268.4 281.513645 
L 268.4 285.444008 
L 270.88 285.444008 
L 270.88 284.94811 
L 273.36 284.94811 
L 273.36 272.878113 
L 275.84 272.878113 
L 275.84 232.525283 
L 278.32 232.525283 
L 278.32 273.028383 
L 280.8 273.028383 
L 280.8 278.918438 
L 283.28 278.918438 
L 283.28 277.049836 
L 285.76 277.049836 
L 285.76 282.794548 
L 288.24 282.794548 
L 288.24 281.76916 
L 290.72 281.76916 
L 290.72 283.31532 
L 293.2 283.31532 
L 293.2 284.390904 
L 295.68 284.390904 
L 295.68 284.780081 
L 298.16 284.780081 
L 298.16 282.217642 
L 300.64 282.217642 
L 300.64 283.303051 
L 303.12 283.303051 
L 303.12 281.294995 
L 305.6 281.294995 
L 305.6 281.009546 
L 308.08 281.009546 
L 308.08 286.738802 
L 310.56 286.738802 
L 310.56 281.601021 
L 313.04 281.601021 
L 313.04 237.86222 
L 315.52 237.86222 
L 315.52 251.103247 
L 318 251.103247 
L 318 238.024318 
L 320.48 238.024318 
L 320.48 283.440951 
L 322.96 283.440951 
L 322.96 283.203543 
L 325.44 283.203543 
L 325.44 286.34636 
L 327.92 286.34636 
L 327.92 280.613193 
L 330.4 280.613193 
L 330.4 286.73747 
L 332.88 286.73747 
L 332.88 207.672457 
L 335.36 207.672457 
L 335.36 185.979669 
L 337.84 185.979669 
L 337.84 274.289621 
L 340.32 274.289621 
L 340.32 275.841701 
L 342.8 275.841701 
L 342.8 279.009258 
L 345.28 279.009258 
L 345.28 282.374901 
L 350.24 282.278258 
L 350.24 282.134545 
L 352.72 282.134545 
L 352.72 284.55252 
L 355.2 284.55252 
L 355.2 282.422149 
L 357.68 282.422149 
L 357.68 284.181258 
L 360.16 284.181258 
L 360.16 276.709426 
L 362.64 276.709426 
L 362.64 272.725936 
L 365.12 272.725936 
L 365.12 280.390004 
L 367.6 280.390004 
L 367.6 264.825338 
L 370.08 264.825338 
L 370.08 271.556222 
L 372.56 271.556222 
L 372.56 244.586934 
L 375.04 244.586934 
L 375.04 283.032365 
L 377.52 283.032365 
L 377.52 280.812175 
L 380 280.812175 
L 380 287.374939 
L 382.48 287.374939 
L 382.48 281.930055 
L 384.96 281.930055 
L 384.96 284.664728 
L 387.44 284.664728 
L 387.44 283.775477 
L 389.92 283.775477 
L 389.92 283.92415 
L 392.4 283.92415 
L 392.4 282.334775 
L 394.88 282.334775 
L 394.88 283.261835 
L 397.36 283.261835 
L 397.36 282.052701 
L 399.84 282.052701 
L 399.84 281.223653 
L 402.32 281.223653 
L 402.32 282.992901 
L 404.8 282.992901 
L 404.8 280.330127 
L 407.28 280.330127 
L 407.28 287.259457 
L 409.76 287.259457 
L 409.76 278.928087 
L 412.24 278.928087 
L 412.24 285.719991 
L 414.72 285.719991 
L 414.72 281.365249 
L 417.2 281.365249 
L 417.2 281.365249 
" clip-path="url(#p5a88269e31)" style="fill: none; stroke: #8dd3c7; stroke-width: 1.5; stroke-linecap: square"/>
   </g>
   <g id="line2d_16">
    <path d="M 55.12 295.488 
L 70 295.488 
L 70 295.025666 
L 72.48 295.025666 
L 72.48 288.215987 
L 74.96 288.215987 
L 74.96 281.118284 
L 77.44 281.118284 
L 77.44 262.963568 
L 79.92 262.963568 
L 79.92 261.252848 
L 82.4 261.252848 
L 82.4 259.058213 
L 84.88 259.058213 
L 84.88 254.493803 
L 87.36 254.493803 
L 87.36 258.286272 
L 89.84 258.286272 
L 89.84 262.117754 
L 92.32 262.117754 
L 92.32 277.133244 
L 94.8 277.133244 
L 94.8 294.848866 
L 97.28 294.848866 
L 97.28 295.488 
L 129.52 295.488 
L 129.52 294.031273 
L 132 294.031273 
L 132 285.976529 
L 134.48 285.976529 
L 134.48 273.794808 
L 136.96 273.794808 
L 136.96 271.213373 
L 139.44 271.213373 
L 139.44 273.678602 
L 141.92 273.678602 
L 141.92 256.33401 
L 144.4 256.33401 
L 144.4 256.674328 
L 146.88 256.674328 
L 146.88 257.840539 
L 149.36 257.840539 
L 149.36 265.351604 
L 151.84 265.351604 
L 151.84 288.215987 
L 154.32 288.215987 
L 154.32 294.931871 
L 156.8 294.931871 
L 156.8 295.488 
L 191.52 295.488 
L 191.52 293.303325 
L 194 293.303325 
L 194 279.570252 
L 196.48 279.570252 
L 196.48 270.107754 
L 198.96 270.107754 
L 198.96 256.587173 
L 201.44 256.587173 
L 201.44 258.199118 
L 203.92 258.199118 
L 203.92 250.107022 
L 206.4 250.107022 
L 206.4 254.312023 
L 208.88 254.312023 
L 208.88 266.840702 
L 211.36 266.840702 
L 211.36 276.045057 
L 213.84 276.045057 
L 213.84 294.787443 
L 216.32 294.787443 
L 216.32 295.488 
L 248.56 295.488 
L 248.56 293.700086 
L 251.04 293.700086 
L 251.04 288.005986 
L 253.52 288.005986 
L 253.52 285.024469 
L 256 285.024469 
L 256 285.953288 
L 258.48 285.953288 
L 258.48 287.627486 
L 260.96 287.627486 
L 260.96 275.469837 
L 263.44 275.469837 
L 263.44 276.058338 
L 265.92 276.058338 
L 265.92 270.79254 
L 268.4 270.79254 
L 268.4 276.569644 
L 270.88 276.569644 
L 270.88 283.501339 
L 273.36 283.501339 
L 273.36 294.828945 
L 275.84 294.828945 
L 275.84 295.488 
L 308.08 295.488 
L 308.08 293.932498 
L 310.56 293.932498 
L 310.56 285.201269 
L 313.04 285.201269 
L 313.04 273.211288 
L 315.52 273.211288 
L 315.52 258.067971 
L 318 258.067971 
L 318 258.229829 
L 320.48 258.229829 
L 320.48 262.380878 
L 322.96 262.380878 
L 322.96 279.112898 
L 325.44 279.112898 
L 325.44 286.042933 
L 327.92 286.042933 
L 327.92 289.461883 
L 330.4 289.461883 
L 330.4 292.267431 
L 332.88 292.267431 
L 332.88 295.070488 
L 335.36 295.070488 
L 335.36 295.488 
L 367.6 295.488 
L 367.6 295.331952 
L 370.08 295.331952 
L 370.08 294.383212 
L 372.56 294.383212 
L 372.56 293.915897 
L 375.04 293.915897 
L 375.04 291.932093 
L 377.52 291.932093 
L 377.52 292.544665 
L 380 292.544665 
L 380 291.773555 
L 384.96 291.829998 
L 384.96 291.963635 
L 387.44 291.963635 
L 387.44 293.490085 
L 389.92 293.490085 
L 389.92 294.470366 
L 392.4 294.470366 
L 392.4 295.397525 
L 417.2 295.488 
L 417.2 295.488 
" clip-path="url(#p5a88269e31)" style="fill: none; stroke: #feffb3; stroke-width: 1.5; stroke-linecap: square"/>
   </g>
   <g id="patch_3">
    <path d="M 57.6 307.584 
L 57.6 41.472 
" style="fill: none; stroke: #ffffff; stroke-width: 0.8; stroke-linejoin: miter; stroke-linecap: square"/>
   </g>
   <g id="patch_4">
    <path d="M 414.72 307.584 
L 414.72 41.472 
" style="fill: none; stroke: #ffffff; stroke-width: 0.8; stroke-linejoin: miter; stroke-linecap: square"/>
   </g>
   <g id="patch_5">
    <path d="M 57.6 307.584 
L 414.72 307.584 
" style="fill: none; stroke: #ffffff; stroke-width: 0.8; stroke-linejoin: miter; stroke-linecap: square"/>
   </g>
   <g id="patch_6">
    <path d="M 57.6 41.472 
L 414.72 41.472 
" style="fill: none; stroke: #ffffff; stroke-width: 0.8; stroke-linejoin: miter; stroke-linecap: square"/>
   </g>
   <g id="legend_1">
    <g id="patch_7">
     <path d="M 255.318437 78.82825 
L 407.72 78.82825 
Q 409.72 78.82825 409.72 76.82825 
L 409.72 48.472 
Q 409.72 46.472 407.72 46.472 
L 255.318437 46.472 
Q 253.318437 46.472 253.318437 48.472 
L 253.318437 76.82825 
Q 253.318437 78.82825 255.318437 78.82825 
z
" style="opacity: 0.8; stroke: #cccccc; stroke-linejoin: miter"/>
    </g>
    <g id="line2d_17">
     <path d="M 257.318437 54.570437 
L 257.318437 54.570437 
L 267.318437 54.570437 
L 267.318437 54.570437 
L 277.318437 54.570437 
" style="fill: none; stroke: #8dd3c7; stroke-width: 1.5; stroke-linecap: square"/>
    </g>
    <g id="text_16">
     <!-- electricity demand (kW) -->
     <g style="fill: #ffffff" transform="translate(285.318437 58.070437) scale(0.1 -0.1)">
      <defs>
       <path id="DejaVuSans-6c" d="M 603 4863 
L 1178 4863 
L 1178 0 
L 603 0 
L 603 4863 
z
" transform="scale(0.015625)"/>
       <path id="DejaVuSans-63" d="M 3122 3366 
L 3122 2828 
Q 2878 2963 2633 3030 
Q 2388 3097 2138 3097 
Q 1578 3097 1268 2742 
Q 959 2388 959 1747 
Q 959 1106 1268 751 
Q 1578 397 2138 397 
Q 2388 397 2633 464 
Q 2878 531 3122 666 
L 3122 134 
Q 2881 22 2623 -34 
Q 2366 -91 2075 -91 
Q 1284 -91 818 406 
Q 353 903 353 1747 
Q 353 2603 823 3093 
Q 1294 3584 2113 3584 
Q 2378 3584 2631 3529 
Q 2884 3475 3122 3366 
z
" transform="scale(0.015625)"/>
       <path id="DejaVuSans-79" d="M 2059 -325 
Q 1816 -950 1584 -1140 
Q 1353 -1331 966 -1331 
L 506 -1331 
L 506 -850 
L 844 -850 
Q 1081 -850 1212 -737 
Q 1344 -625 1503 -206 
L 1606 56 
L 191 3500 
L 800 3500 
L 1894 763 
L 2988 3500 
L 3597 3500 
L 2059 -325 
z
" transform="scale(0.015625)"/>
       <path id="DejaVuSans-20" transform="scale(0.015625)"/>
       <path id="DejaVuSans-64" d="M 2906 2969 
L 2906 4863 
L 3481 4863 
L 3481 0 
L 2906 0 
L 2906 525 
Q 2725 213 2448 61 
Q 2172 -91 1784 -91 
Q 1150 -91 751 415 
Q 353 922 353 1747 
Q 353 2572 751 3078 
Q 1150 3584 1784 3584 
Q 2172 3584 2448 3432 
Q 2725 3281 2906 2969 
z
M 947 1747 
Q 947 1113 1208 752 
Q 1469 391 1925 391 
Q 2381 391 2643 752 
Q 2906 1113 2906 1747 
Q 2906 2381 2643 2742 
Q 2381 3103 1925 3103 
Q 1469 3103 1208 2742 
Q 947 2381 947 1747 
z
" transform="scale(0.015625)"/>
       <path id="DejaVuSans-61" d="M 2194 1759 
Q 1497 1759 1228 1600 
Q 959 1441 959 1056 
Q 959 750 1161 570 
Q 1363 391 1709 391 
Q 2188 391 2477 730 
Q 2766 1069 2766 1631 
L 2766 1759 
L 2194 1759 
z
M 3341 1997 
L 3341 0 
L 2766 0 
L 2766 531 
Q 2569 213 2275 61 
Q 1981 -91 1556 -91 
Q 1019 -91 701 211 
Q 384 513 384 1019 
Q 384 1609 779 1909 
Q 1175 2209 1959 2209 
L 2766 2209 
L 2766 2266 
Q 2766 2663 2505 2880 
Q 2244 3097 1772 3097 
Q 1472 3097 1187 3025 
Q 903 2953 641 2809 
L 641 3341 
Q 956 3463 1253 3523 
Q 1550 3584 1831 3584 
Q 2591 3584 2966 3190 
Q 3341 2797 3341 1997 
z
" transform="scale(0.015625)"/>
       <path id="DejaVuSans-6e" d="M 3513 2113 
L 3513 0 
L 2938 0 
L 2938 2094 
Q 2938 2591 2744 2837 
Q 2550 3084 2163 3084 
Q 1697 3084 1428 2787 
Q 1159 2491 1159 1978 
L 1159 0 
L 581 0 
L 581 3500 
L 1159 3500 
L 1159 2956 
Q 1366 3272 1645 3428 
Q 1925 3584 2291 3584 
Q 2894 3584 3203 3211 
Q 3513 2838 3513 2113 
z
" transform="scale(0.015625)"/>
       <path id="DejaVuSans-28" d="M 1984 4856 
Q 1566 4138 1362 3434 
Q 1159 2731 1159 2009 
Q 1159 1288 1364 580 
Q 1569 -128 1984 -844 
L 1484 -844 
Q 1016 -109 783 600 
Q 550 1309 550 2009 
Q 550 2706 781 3412 
Q 1013 4119 1484 4856 
L 1984 4856 
z
" transform="scale(0.015625)"/>
       <path id="DejaVuSans-6b" d="M 581 4863 
L 1159 4863 
L 1159 1991 
L 2875 3500 
L 3609 3500 
L 1753 1863 
L 3688 0 
L 2938 0 
L 1159 1709 
L 1159 0 
L 581 0 
L 581 4863 
z
" transform="scale(0.015625)"/>
       <path id="DejaVuSans-57" d="M 213 4666 
L 850 4666 
L 1831 722 
L 2809 4666 
L 3519 4666 
L 4500 722 
L 5478 4666 
L 6119 4666 
L 4947 0 
L 4153 0 
L 3169 4050 
L 2175 0 
L 1381 0 
L 213 4666 
z
" transform="scale(0.015625)"/>
       <path id="DejaVuSans-29" d="M 513 4856 
L 1013 4856 
Q 1481 4119 1714 3412 
Q 1947 2706 1947 2009 
Q 1947 1309 1714 600 
Q 1481 -109 1013 -844 
L 513 -844 
Q 928 -128 1133 580 
Q 1338 1288 1338 2009 
Q 1338 2731 1133 3434 
Q 928 4138 513 4856 
z
" transform="scale(0.015625)"/>
      </defs>
      <use xlink:href="#DejaVuSans-65"/>
      <use xlink:href="#DejaVuSans-6c" x="61.523438"/>
      <use xlink:href="#DejaVuSans-65" x="89.306641"/>
      <use xlink:href="#DejaVuSans-63" x="150.830078"/>
      <use xlink:href="#DejaVuSans-74" x="205.810547"/>
      <use xlink:href="#DejaVuSans-72" x="245.019531"/>
      <use xlink:href="#DejaVuSans-69" x="286.132812"/>
      <use xlink:href="#DejaVuSans-63" x="313.916016"/>
      <use xlink:href="#DejaVuSans-69" x="368.896484"/>
      <use xlink:href="#DejaVuSans-74" x="396.679688"/>
      <use xlink:href="#DejaVuSans-79" x="435.888672"/>
      <use xlink:href="#DejaVuSans-20" x="495.068359"/>
      <use xlink:href="#DejaVuSans-64" x="526.855469"/>
      <use xlink:href="#DejaVuSans-65" x="590.332031"/>
      <use xlink:href="#DejaVuSans-6d" x="651.855469"/>
      <use xlink:href="#DejaVuSans-61" x="749.267578"/>
      <use xlink:href="#DejaVuSans-6e" x="810.546875"/>
      <use xlink:href="#DejaVuSans-64" x="873.925781"/>
      <use xlink:href="#DejaVuSans-20" x="937.402344"/>
      <use xlink:href="#DejaVuSans-28" x="969.189453"/>
      <use xlink:href="#DejaVuSans-6b" x="1008.203125"/>
      <use xlink:href="#DejaVuSans-57" x="1066.113281"/>
      <use xlink:href="#DejaVuSans-29" x="1164.990234"/>
     </g>
    </g>
    <g id="line2d_18">
     <path d="M 257.318437 69.248562 
L 257.318437 69.248562 
L 267.318437 69.248562 
L 267.318437 69.248562 
L 277.318437 69.248562 
" style="fill: none; stroke: #feffb3; stroke-width: 1.5; stroke-linecap: square"/>
    </g>
    <g id="text_17">
     <!-- pv gain (1) -->
     <g style="fill: #ffffff" transform="translate(285.318437 72.748562) scale(0.1 -0.1)">
      <defs>
       <path id="DejaVuSans-76" d="M 191 3500 
L 800 3500 
L 1894 563 
L 2988 3500 
L 3597 3500 
L 2284 0 
L 1503 0 
L 191 3500 
z
" transform="scale(0.015625)"/>
       <path id="DejaVuSans-67" d="M 2906 1791 
Q 2906 2416 2648 2759 
Q 2391 3103 1925 3103 
Q 1463 3103 1205 2759 
Q 947 2416 947 1791 
Q 947 1169 1205 825 
Q 1463 481 1925 481 
Q 2391 481 2648 825 
Q 2906 1169 2906 1791 
z
M 3481 434 
Q 3481 -459 3084 -895 
Q 2688 -1331 1869 -1331 
Q 1566 -1331 1297 -1286 
Q 1028 -1241 775 -1147 
L 775 -588 
Q 1028 -725 1275 -790 
Q 1522 -856 1778 -856 
Q 2344 -856 2625 -561 
Q 2906 -266 2906 331 
L 2906 616 
Q 2728 306 2450 153 
Q 2172 0 1784 0 
Q 1141 0 747 490 
Q 353 981 353 1791 
Q 353 2603 747 3093 
Q 1141 3584 1784 3584 
Q 2172 3584 2450 3431 
Q 2728 3278 2906 2969 
L 2906 3500 
L 3481 3500 
L 3481 434 
z
" transform="scale(0.015625)"/>
      </defs>
      <use xlink:href="#DejaVuSans-70"/>
      <use xlink:href="#DejaVuSans-76" x="63.476562"/>
      <use xlink:href="#DejaVuSans-20" x="122.65625"/>
      <use xlink:href="#DejaVuSans-67" x="154.443359"/>
      <use xlink:href="#DejaVuSans-61" x="217.919922"/>
      <use xlink:href="#DejaVuSans-69" x="279.199219"/>
      <use xlink:href="#DejaVuSans-6e" x="306.982422"/>
      <use xlink:href="#DejaVuSans-20" x="370.361328"/>
      <use xlink:href="#DejaVuSans-28" x="402.148438"/>
      <use xlink:href="#DejaVuSans-31" x="441.162109"/>
      <use xlink:href="#DejaVuSans-29" x="504.785156"/>
     </g>
    </g>
   </g>
  </g>
 </g>
 <defs>
  <clipPath id="p5a88269e31">
   <rect x="57.6" y="41.472" width="357.12" height="266.112"/>
  </clipPath>
 </defs>
</svg>
