<?xml version="1.0" encoding="UTF-8" standalone="no"?>
<svg
   xmlns:dc="http://purl.org/dc/elements/1.1/"
   xmlns:cc="http://creativecommons.org/ns#"
   xmlns:rdf="http://www.w3.org/1999/02/22-rdf-syntax-ns#"
   xmlns:svg="http://www.w3.org/2000/svg"
   xmlns="http://www.w3.org/2000/svg"
   xmlns:xlink="http://www.w3.org/1999/xlink"
   xmlns:sodipodi="http://sodipodi.sourceforge.net/DTD/sodipodi-0.dtd"
   xmlns:inkscape="http://www.inkscape.org/namespaces/inkscape"
   version="1.1"
   id="svg2"
   height="264.60095"
   width="1262.1409"
   sodipodi:docname="logo_oemof_solph_big.svg"
   inkscape:version="0.92.5 (2060ec1f9f, 2020-04-08)">
  <sodipodi:namedview
     pagecolor="#ffffff"
     bordercolor="#666666"
     borderopacity="1"
     objecttolerance="10"
     gridtolerance="10"
     guidetolerance="10"
     inkscape:pageopacity="0"
     inkscape:pageshadow="2"
     inkscape:window-width="1600"
     inkscape:window-height="872"
     id="namedview45"
     showgrid="false"
     fit-margin-top="0"
     fit-margin-left="0"
     fit-margin-right="0"
     fit-margin-bottom="0"
     inkscape:zoom="0.33407407"
     inkscape:cx="670.1622"
     inkscape:cy="135.68644"
     inkscape:window-x="0"
     inkscape:window-y="0"
     inkscape:window-maximized="1"
     inkscape:current-layer="svg2" />
  <defs
     id="defs4">
    <linearGradient
       id="linearGradient3960">
      <stop
         style="stop-color:#55d400;stop-opacity:0.74901961;"
         offset="0"
         id="stop3972" />
      <stop
         style="stop-color:#55d400;stop-opacity:0.49803922;"
         offset="0.5"
         id="stop3970" />
      <stop
         id="stop3976"
         offset="0.75"
         style="stop-color:#39d400;stop-opacity:0.24705882;" />
      <stop
         style="stop-color:#94d400;stop-opacity:0.24705882;"
         offset="0.875"
         id="stop3980" />
      <stop
         style="stop-color:#efd400;stop-opacity:0.24705882;"
         offset="1"
         id="stop3978" />
    </linearGradient>
    <marker
       style="overflow:visible"
       id="Arrow2Lstart"
       refX="0"
       refY="0"
       orient="auto">
      <path
         transform="matrix(1.1,0,0,1.1,1.1,0)"
         d="M 8.7185878,4.0337352 -2.2072895,0.01601326 8.7185884,-4.0017078 c -1.7454984,2.3720609 -1.7354408,5.6174519 -6e-7,8.035443 z"
         style="fill-rule:evenodd;stroke-width:0.625;stroke-linejoin:round"
         id="path4366"
         inkscape:connector-curvature="0" />
    </marker>
    <marker
       style="overflow:visible"
       id="EmptyDiamondL"
       refX="0"
       refY="0"
       orient="auto">
      <path
         transform="scale(0.8)"
         style="fill:#ffffff;fill-rule:evenodd;stroke:#000000;stroke-width:1.00000003pt"
         d="M 0,-7.0710768 -7.0710894,0 0,7.0710589 7.0710462,0 Z"
         id="path4454"
         inkscape:connector-curvature="0" />
    </marker>
    <marker
       style="overflow:visible"
       id="DiamondSstart"
       refX="0"
       refY="0"
       orient="auto">
      <path
         transform="matrix(0.2,0,0,0.2,1.2,0)"
         style="fill-rule:evenodd;stroke:#000000;stroke-width:1.00000003pt"
         d="M 0,-7.0710768 -7.0710894,0 0,7.0710589 7.0710462,0 Z"
         id="path4442"
         inkscape:connector-curvature="0" />
    </marker>
    <marker
       style="overflow:visible"
       id="Arrow1Lstart"
       refX="0"
       refY="0"
       orient="auto">
      <path
         transform="matrix(0.8,0,0,0.8,10,0)"
         style="fill-rule:evenodd;stroke:#000000;stroke-width:1.00000003pt"
         d="M 0,0 5,-5 -12.5,0 5,5 Z"
         id="path4348"
         inkscape:connector-curvature="0" />
    </marker>
    <marker
       style="overflow:visible"
       id="SquareL"
       refX="0"
       refY="0"
       orient="auto">
      <path
         transform="scale(0.8)"
         style="fill-rule:evenodd;stroke:#000000;stroke-width:1.00000003pt"
         d="M -5,-5 V 5 H 5 V -5 Z"
         id="path4418"
         inkscape:connector-curvature="0" />
    </marker>
    <radialGradient
       xlink:href="#linearGradient3684-76"
       id="radialGradient3013"
       gradientUnits="userSpaceOnUse"
       gradientTransform="translate(-139.2888,-90.7174)"
       cx="236.78572"
       cy="188.21428"
       fx="236.78572"
       fy="188.21428"
       r="97.496925" />
    <radialGradient
       xlink:href="#linearGradient3684-76"
       id="radialGradient3004"
       gradientUnits="userSpaceOnUse"
       gradientTransform="translate(-90.4365,1338.3028)"
       cx="236.78572"
       cy="188.21428"
       fx="236.78572"
       fy="188.21428"
       r="97.496925" />
    <linearGradient
       id="linearGradient3684-76">
      <stop
         id="stop3686-14"
         style="stop-color:#000000;stop-opacity:1"
         offset="0" />
      <stop
         id="stop3692-23"
         style="stop-color:#000000;stop-opacity:0.86666667"
         offset="0.89795917" />
      <stop
         id="stop3688-2"
         style="stop-color:#000000;stop-opacity:0"
         offset="1" />
    </linearGradient>
    <radialGradient
       cx="236.78572"
       cy="188.21428"
       r="97.496925"
       fx="236.78572"
       fy="188.21428"
       id="radialGradient4894"
       xlink:href="#linearGradient3684-76"
       gradientUnits="userSpaceOnUse"
       gradientTransform="translate(-90.4365,1338.3028)" />
    <path
       style="display:inline;fill:none;stroke:none"
       id="path3981-2-1-6-7-5-0-3-3-9"
       d="m 6.0609169,-68.571419 a 43.030457,35 0 1 1 -86.0609129,0 43.030457,35 0 1 1 86.0609129,0 z"
       transform="matrix(-1.655217,1.5156218,-1.8633661,-2.0349941,554.10899,812.95323)"
       inkscape:connector-curvature="0" />
  </defs>
  <metadata
     id="metadata7">
    <rdf:RDF>
      <cc:Work
         rdf:about="">
        <dc:format>image/svg+xml</dc:format>
        <dc:type
           rdf:resource="http://purl.org/dc/dcmitype/StillImage" />
        <dc:title></dc:title>
      </cc:Work>
    </rdf:RDF>
  </metadata>
  <g
     transform="matrix(0.91666939,0.00891669,-0.008729,0.91623053,9.8350711,-698.28087)"
     id="g3831-9-3-1-6-3"
     style="display:inline;fill:none;stroke:#cfcfcf;stroke-width:1.46722198;stroke-linecap:round;stroke-miterlimit:4;stroke-dasharray:none;stroke-opacity:1" />
  <text
     xml:space="preserve"
     style="font-style:normal;font-weight:normal;font-size:40px;line-height:1.25;font-family:sans-serif;letter-spacing:0px;word-spacing:0px;fill:#000000;fill-opacity:1;stroke:none"
     x="911.05554"
     y="85.195557"
     id="text85"><tspan
       id="tspan83"
       x="911.05554"
       y="120.58618" /></text>
  <g
     id="g1067"
     transform="translate(-4.8377979,-13.585498)">
    <g
       id="text3057"
       style="font-style:normal;font-weight:normal;line-height:0%;font-family:sans-serif;letter-spacing:0px;word-spacing:0px;fill:#000000;fill-opacity:1;stroke:none"
       aria-label=" " />
    <g
       id="text2997-0"
       style="font-style:normal;font-weight:normal;line-height:0%;font-family:sans-serif;letter-spacing:0px;word-spacing:0px;fill:#92b094;fill-opacity:1;stroke:none"
       aria-label="['sɒlv]">
      <path
         id="path1002"
         style="font-style:normal;font-variant:normal;font-weight:normal;font-stretch:normal;font-size:135px;line-height:1.25;font-family:FreeSans;-inkscape-font-specification:FreeSans;letter-spacing:10px;fill:#92b094;fill-opacity:1"
         d="m 875.2865,19.817712 h -25.11 V 146.85271 h 25.11 v -9.72 h -13.905 V 29.537712 h 13.905 z"
         inkscape:connector-curvature="0" />
      <path
         id="path1004"
         style="font-style:normal;font-variant:normal;font-weight:normal;font-stretch:normal;font-size:135px;line-height:1.25;font-family:FreeSans;-inkscape-font-specification:FreeSans;letter-spacing:10px;fill:#92b094;fill-opacity:1"
         d="m 896.13291,22.517712 v 14.985 l 3.645,18.09 h 5.4 l 3.645,-18.09 v -14.985 z"
         inkscape:connector-curvature="0" />
      <path
         id="path1006"
         style="font-style:normal;font-variant:normal;font-weight:normal;font-stretch:normal;font-size:135px;line-height:1.25;font-family:FreeSans;-inkscape-font-specification:FreeSans;letter-spacing:10px;fill:#92b094;fill-opacity:1"
         d="m 942.34244,97.172712 h -11.88 c 0.54,16.334998 9.72,24.164998 28.215,24.164998 17.82,0 29.16,-8.775 29.16,-22.409998 0,-10.53 -5.94,-16.335 -19.98,-19.71 l -10.8,-2.565 c -9.18,-2.16 -13.095,-5.13 -13.095,-10.125 0,-6.48 5.805,-10.665 14.985,-10.665 9.045,0 13.905,3.915 14.175,11.34 h 11.88 c -0.135,-13.905 -9.315,-21.735 -25.65,-21.735 -16.47,0 -27.135,8.505 -27.135,21.6 0,11.07 5.67,16.335 22.41,20.385 l 10.53,2.565 c 7.83,1.89 10.935,4.725 10.935,9.855 0,6.614998 -6.615,11.069998 -16.47,11.069998 -13.77,0 -16.335,-6.885 -17.28,-13.769998 z"
         inkscape:connector-curvature="0" />
      <path
         id="path1008"
         style="font-style:normal;font-variant:normal;font-weight:normal;font-stretch:normal;font-size:135px;line-height:1.25;font-family:FreeSans;-inkscape-font-specification:FreeSans;letter-spacing:10px;fill:#92b094;fill-opacity:1"
         d="m 1025.4027,82.997712 c 0,-13.905 5.535,-27.405 17.82,-27.405 12.42,0 20.52,13.23 20.52,27.135 0,13.77 -6.21,28.349998 -18.225,28.349998 -13.095,0 -20.115,-13.364998 -20.115,-28.079998 z m 22.14,-37.395 c -10.935,0.27 -16.605,3.51 -22.95,9.585 -0.945,-7.965 -4.86,-10.8 -11.88,-10.8 -2.295,0 -4.05,0.27 -7.695,1.215 v 8.505 c 1.215,-0.27 1.755,-0.27 2.43,-0.27 3.915,0 6.075,2.025 6.075,5.535 v 58.859998 h 11.205 v -8.91 c 5.94,7.155 12.96,10.8 21.06,10.8 20.25,0 29.7,-17.01 29.7,-37.799998 0,-22.545 -15.66,-36.72 -27.945,-36.72 z"
         inkscape:connector-curvature="0" />
      <path
         id="path1010"
         style="font-style:normal;font-variant:normal;font-weight:normal;font-stretch:normal;font-size:135px;line-height:1.25;font-family:FreeSans;-inkscape-font-specification:FreeSans;letter-spacing:10px;fill:#92b094;fill-opacity:1"
         d="m 1109.0136,19.817712 h -11.34 v 98.414998 h 11.34 z"
         inkscape:connector-curvature="0" />
      <path
         id="path1012"
         style="font-style:normal;font-variant:normal;font-weight:normal;font-stretch:normal;font-size:135px;line-height:1.25;font-family:FreeSans;-inkscape-font-specification:FreeSans;letter-spacing:10px;fill:#92b094;fill-opacity:1"
         d="m 1167.0525,118.23271 27.135,-70.739998 h -12.69 l -19.98,57.374998 -18.9,-57.374998 h -12.69 l 24.84,70.739998 z"
         inkscape:connector-curvature="0" />
      <path
         id="path1014"
         style="font-style:normal;font-variant:normal;font-weight:normal;font-stretch:normal;font-size:135px;line-height:1.25;font-family:FreeSans;-inkscape-font-specification:FreeSans;letter-spacing:10px;fill:#92b094;fill-opacity:1"
         d="m 1208.5202,146.85271 h 25.11 V 19.817712 h -25.11 v 9.72 h 13.905 V 137.13271 h -13.905 z"
         inkscape:connector-curvature="0" />
    </g>
    <g
       id="text3020-0"
       style="font-style:normal;font-weight:normal;line-height:0%;font-family:sans-serif;letter-spacing:0px;word-spacing:0px;fill:#000000;fill-opacity:1;stroke:none"
       aria-label="open energy modelling framework">
      <path
         id="path945"
         style="font-style:normal;font-variant:normal;font-weight:normal;font-stretch:normal;font-size:64px;line-height:1.25;font-family:FreeSans;-inkscape-font-specification:'FreeSans, Normal';font-variant-ligatures:normal;font-variant-caps:normal;font-variant-numeric:normal;font-feature-settings:normal;text-align:start;writing-mode:lr-tb;text-anchor:start"
         d="m 346.62166,186.28353 c -9.408,0 -15.104,6.72 -15.104,17.984 0,11.264 5.632,17.984 15.168,17.984 9.408,0 15.168,-6.72 15.168,-17.728 0,-11.584 -5.568,-18.24 -15.232,-18.24 z m 0.064,4.928 c 6.016,0 9.6,4.928 9.6,13.248 0,7.872 -3.712,12.864 -9.6,12.864 -5.952,0 -9.6,-4.928 -9.6,-13.056 0,-8.064 3.648,-13.056 9.6,-13.056 z"
         inkscape:connector-curvature="0" />
      <path
         id="path947"
         style="font-style:normal;font-variant:normal;font-weight:normal;font-stretch:normal;font-size:64px;line-height:1.25;font-family:FreeSans;-inkscape-font-specification:'FreeSans, Normal';font-variant-ligatures:normal;font-variant-caps:normal;font-variant-numeric:normal;font-feature-settings:normal;text-align:start;writing-mode:lr-tb;text-anchor:start"
         d="m 367.56266,234.73153 h 5.376 v -17.472 c 2.816,3.456 5.952,4.992 10.304,4.992 8.64,0 14.336,-6.976 14.336,-17.664 0,-11.264 -5.504,-18.304 -14.4,-18.304 -4.544,0 -8.192,2.048 -10.688,6.016 v -5.056 h -4.928 z m 14.72,-43.456 c 5.888,0 9.728,5.184 9.728,13.184 0,7.616 -3.904,12.8 -9.728,12.8 -5.632,0 -9.344,-5.12 -9.344,-12.992 0,-7.872 3.712,-12.992 9.344,-12.992 z"
         inkscape:connector-curvature="0" />
      <path
         id="path949"
         style="font-style:normal;font-variant:normal;font-weight:normal;font-stretch:normal;font-size:64px;line-height:1.25;font-family:FreeSans;-inkscape-font-specification:'FreeSans, Normal';font-variant-ligatures:normal;font-variant-caps:normal;font-variant-numeric:normal;font-feature-settings:normal;text-align:start;writing-mode:lr-tb;text-anchor:start"
         d="m 431.66466,205.80353 c 0,-12.16 -4.544,-19.52 -14.912,-19.52 -9.344,0 -15.36,7.168 -15.36,18.176 0,11.008 5.824,17.792 15.232,17.792 7.68,0 12.992,-4.352 14.336,-11.648 h -5.376 c -1.472,4.416 -4.48,6.72 -8.768,6.72 -6.208,0 -9.728,-4.672 -9.856,-11.52 z m -24.576,-4.352 c 0.448,-6.208 4.224,-10.24 9.6,-10.24 5.504,0 9.28,4.48 9.28,10.24 z"
         inkscape:connector-curvature="0" />
      <path
         id="path951"
         style="font-style:normal;font-variant:normal;font-weight:normal;font-stretch:normal;font-size:64px;line-height:1.25;font-family:FreeSans;-inkscape-font-specification:'FreeSans, Normal';font-variant-ligatures:normal;font-variant-caps:normal;font-variant-numeric:normal;font-feature-settings:normal;text-align:start;writing-mode:lr-tb;text-anchor:start"
         d="m 437.43766,187.24353 v 33.536 h 5.376 v -18.496 c 0,-6.848 3.584,-11.328 9.088,-11.328 4.224,0 6.912,2.56 6.912,6.592 v 23.232 h 5.312 v -25.344 c 0,-5.568 -4.16,-9.152 -10.624,-9.152 -4.992,0 -8.192,1.92 -11.136,6.592 v -5.632 z"
         inkscape:connector-curvature="0" />
      <path
         id="path953"
         style="font-style:normal;font-variant:normal;font-weight:normal;font-stretch:normal;font-size:64px;line-height:1.25;font-family:FreeSans;-inkscape-font-specification:'FreeSans, Normal';font-variant-ligatures:normal;font-variant-caps:normal;font-variant-numeric:normal;font-feature-settings:normal;text-align:start;writing-mode:lr-tb;text-anchor:start"
         d="m 516.16466,205.80353 c 0,-12.16 -4.544,-19.52 -14.912,-19.52 -9.344,0 -15.36,7.168 -15.36,18.176 0,11.008 5.824,17.792 15.232,17.792 7.68,0 12.992,-4.352 14.336,-11.648 h -5.376 c -1.472,4.416 -4.48,6.72 -8.768,6.72 -6.208,0 -9.728,-4.672 -9.856,-11.52 z m -24.576,-4.352 c 0.448,-6.208 4.224,-10.24 9.6,-10.24 5.504,0 9.28,4.48 9.28,10.24 z"
         inkscape:connector-curvature="0" />
      <path
         id="path955"
         style="font-style:normal;font-variant:normal;font-weight:normal;font-stretch:normal;font-size:64px;line-height:1.25;font-family:FreeSans;-inkscape-font-specification:'FreeSans, Normal';font-variant-ligatures:normal;font-variant-caps:normal;font-variant-numeric:normal;font-feature-settings:normal;text-align:start;writing-mode:lr-tb;text-anchor:start"
         d="m 521.93766,187.24353 v 33.536 h 5.376 v -18.496 c 0,-6.848 3.584,-11.328 9.088,-11.328 4.224,0 6.912,2.56 6.912,6.592 v 23.232 h 5.312 v -25.344 c 0,-5.568 -4.16,-9.152 -10.624,-9.152 -4.992,0 -8.192,1.92 -11.136,6.592 v -5.632 z"
         inkscape:connector-curvature="0" />
      <path
         id="path957"
         style="font-style:normal;font-variant:normal;font-weight:normal;font-stretch:normal;font-size:64px;line-height:1.25;font-family:FreeSans;-inkscape-font-specification:'FreeSans, Normal';font-variant-ligatures:normal;font-variant-caps:normal;font-variant-numeric:normal;font-feature-settings:normal;text-align:start;writing-mode:lr-tb;text-anchor:start"
         d="m 584.66466,205.80353 c 0,-12.16 -4.544,-19.52 -14.912,-19.52 -9.344,0 -15.36,7.168 -15.36,18.176 0,11.008 5.824,17.792 15.232,17.792 7.68,0 12.992,-4.352 14.336,-11.648 h -5.376 c -1.472,4.416 -4.48,6.72 -8.768,6.72 -6.208,0 -9.728,-4.672 -9.856,-11.52 z m -24.576,-4.352 c 0.448,-6.208 4.224,-10.24 9.6,-10.24 5.504,0 9.28,4.48 9.28,10.24 z"
         inkscape:connector-curvature="0" />
      <path
         id="path959"
         style="font-style:normal;font-variant:normal;font-weight:normal;font-stretch:normal;font-size:64px;line-height:1.25;font-family:FreeSans;-inkscape-font-specification:'FreeSans, Normal';font-variant-ligatures:normal;font-variant-caps:normal;font-variant-numeric:normal;font-feature-settings:normal;text-align:start;writing-mode:lr-tb;text-anchor:start"
         d="m 606.56566,191.91553 v -5.44 c -0.896,-0.128 -1.344,-0.192 -2.048,-0.192 -3.456,0 -6.08,2.048 -9.152,7.04 v -6.08 h -4.928 v 33.536 h 5.376 v -17.408 c 0,-9.408 4.288,-11.328 10.752,-11.456 z"
         inkscape:connector-curvature="0" />
      <path
         id="path961"
         style="font-style:normal;font-variant:normal;font-weight:normal;font-stretch:normal;font-size:64px;line-height:1.25;font-family:FreeSans;-inkscape-font-specification:'FreeSans, Normal';font-variant-ligatures:normal;font-variant-caps:normal;font-variant-numeric:normal;font-feature-settings:normal;text-align:start;writing-mode:lr-tb;text-anchor:start"
         d="m 623.59166,222.25153 c 4.224,0 7.168,-1.792 10.176,-6.016 v 1.728 c 0,7.68 -1.792,12.288 -9.344,12.288 -1.664,0 -7.232,-0.192 -8.128,-5.632 h -5.44 c 0.576,6.336 5.504,10.112 13.376,10.112 12.736,0 14.976,-7.808 14.976,-19.456 v -28.032 h -5.568 l 0.64,4.864 c -2.688,-3.968 -5.952,-5.824 -10.24,-5.824 -8.512,0 -14.272,7.424 -14.272,18.304 0,10.944 6.208,17.664 13.824,17.664 z m 1.024,-31.04 c 5.76,0 9.152,4.864 9.152,13.248 0,8 -3.456,12.864 -9.088,12.864 -5.824,0 -9.344,-4.928 -9.344,-13.056 0,-8.064 3.584,-13.056 9.28,-13.056 z"
         inkscape:connector-curvature="0" />
      <path
         id="path963"
         style="font-style:normal;font-variant:normal;font-weight:normal;font-stretch:normal;font-size:64px;line-height:1.25;font-family:FreeSans;-inkscape-font-specification:'FreeSans, Normal';font-variant-ligatures:normal;font-variant-caps:normal;font-variant-numeric:normal;font-feature-settings:normal;text-align:start;writing-mode:lr-tb;text-anchor:start"
         d="m 667.28966,187.24353 -9.28,26.112 -8.576,-26.112 h -5.696 l 11.328,33.664 -2.048,5.312 c -0.896,2.368 -2.048,3.264 -4.288,3.264 -0.768,0 -1.664,-0.128 -2.816,-0.384 v 4.8 c 1.088,0.576 2.176,0.832 3.584,0.832 3.648,0 6.784,-1.984 8.64,-6.912 l 14.912,-40.576 z"
         inkscape:connector-curvature="0" />
      <path
         id="path965"
         style="font-style:normal;font-variant:normal;font-weight:normal;font-stretch:normal;font-size:64px;line-height:1.25;font-family:FreeSans;-inkscape-font-specification:'FreeSans, Normal';font-variant-ligatures:normal;font-variant-caps:normal;font-variant-numeric:normal;font-feature-settings:normal;text-align:start;writing-mode:lr-tb;text-anchor:start"
         d="m 693.56266,187.24353 v 33.536 h 5.376 v -21.056 c 0,-4.864 3.52,-8.768 7.872,-8.768 3.968,0 6.208,2.432 6.208,6.72 v 23.104 h 5.376 v -21.056 c 0,-4.864 3.52,-8.768 7.872,-8.768 3.904,0 6.208,2.496 6.208,6.72 v 23.104 h 5.376 v -25.152 c 0,-6.016 -3.456,-9.344 -9.728,-9.344 -4.48,0 -7.168,1.344 -10.304,5.12 -1.984,-3.584 -4.672,-5.12 -9.024,-5.12 -4.48,0 -7.424,1.664 -10.304,5.696 v -4.736 z"
         inkscape:connector-curvature="0" />
      <path
         id="path967"
         style="font-style:normal;font-variant:normal;font-weight:normal;font-stretch:normal;font-size:64px;line-height:1.25;font-family:FreeSans;-inkscape-font-specification:'FreeSans, Normal';font-variant-ligatures:normal;font-variant-caps:normal;font-variant-numeric:normal;font-feature-settings:normal;text-align:start;writing-mode:lr-tb;text-anchor:start"
         d="m 758.74666,186.28353 c -9.408,0 -15.104,6.72 -15.104,17.984 0,11.264 5.632,17.984 15.168,17.984 9.408,0 15.168,-6.72 15.168,-17.728 0,-11.584 -5.568,-18.24 -15.232,-18.24 z m 0.064,4.928 c 6.016,0 9.6,4.928 9.6,13.248 0,7.872 -3.712,12.864 -9.6,12.864 -5.952,0 -9.6,-4.928 -9.6,-13.056 0,-8.064 3.648,-13.056 9.6,-13.056 z"
         inkscape:connector-curvature="0" />
      <path
         id="path969"
         style="font-style:normal;font-variant:normal;font-weight:normal;font-stretch:normal;font-size:64px;line-height:1.25;font-family:FreeSans;-inkscape-font-specification:'FreeSans, Normal';font-variant-ligatures:normal;font-variant-caps:normal;font-variant-numeric:normal;font-feature-settings:normal;text-align:start;writing-mode:lr-tb;text-anchor:start"
         d="m 807.78366,174.12353 h -5.312 v 17.344 c -2.24,-3.392 -5.824,-5.184 -10.304,-5.184 -8.704,0 -14.4,6.976 -14.4,17.664 0,11.328 5.568,18.304 14.592,18.304 4.608,0 7.808,-1.728 10.688,-5.888 v 4.416 h 4.736 z m -14.72,17.152 c 5.76,0 9.408,5.12 9.408,13.12 0,7.744 -3.712,12.864 -9.344,12.864 -5.888,0 -9.792,-5.184 -9.792,-12.992 0,-7.808 3.904,-12.992 9.728,-12.992 z"
         inkscape:connector-curvature="0" />
      <path
         id="path971"
         style="font-style:normal;font-variant:normal;font-weight:normal;font-stretch:normal;font-size:64px;line-height:1.25;font-family:FreeSans;-inkscape-font-specification:'FreeSans, Normal';font-variant-ligatures:normal;font-variant-caps:normal;font-variant-numeric:normal;font-feature-settings:normal;text-align:start;writing-mode:lr-tb;text-anchor:start"
         d="m 843.78966,205.80353 c 0,-12.16 -4.544,-19.52 -14.912,-19.52 -9.344,0 -15.36,7.168 -15.36,18.176 0,11.008 5.824,17.792 15.232,17.792 7.68,0 12.992,-4.352 14.336,-11.648 h -5.376 c -1.472,4.416 -4.48,6.72 -8.768,6.72 -6.208,0 -9.728,-4.672 -9.856,-11.52 z m -24.576,-4.352 c 0.448,-6.208 4.224,-10.24 9.6,-10.24 5.504,0 9.28,4.48 9.28,10.24 z"
         inkscape:connector-curvature="0" />
      <path
         id="path973"
         style="font-style:normal;font-variant:normal;font-weight:normal;font-stretch:normal;font-size:64px;line-height:1.25;font-family:FreeSans;-inkscape-font-specification:'FreeSans, Normal';font-variant-ligatures:normal;font-variant-caps:normal;font-variant-numeric:normal;font-feature-settings:normal;text-align:start;writing-mode:lr-tb;text-anchor:start"
         d="m 854.93866,174.12353 h -5.376 v 46.656 h 5.376 z"
         inkscape:connector-curvature="0" />
      <path
         id="path975"
         style="font-style:normal;font-variant:normal;font-weight:normal;font-stretch:normal;font-size:64px;line-height:1.25;font-family:FreeSans;-inkscape-font-specification:'FreeSans, Normal';font-variant-ligatures:normal;font-variant-caps:normal;font-variant-numeric:normal;font-feature-settings:normal;text-align:start;writing-mode:lr-tb;text-anchor:start"
         d="m 868.68866,174.12353 h -5.376 v 46.656 h 5.376 z"
         inkscape:connector-curvature="0" />
      <path
         id="path977"
         style="font-style:normal;font-variant:normal;font-weight:normal;font-stretch:normal;font-size:64px;line-height:1.25;font-family:FreeSans;-inkscape-font-specification:'FreeSans, Normal';font-variant-ligatures:normal;font-variant-caps:normal;font-variant-numeric:normal;font-feature-settings:normal;text-align:start;writing-mode:lr-tb;text-anchor:start"
         d="m 882.82266,187.24353 h -5.312 v 33.536 h 5.312 z m 0,-13.12 h -5.376 v 6.72 h 5.376 z"
         inkscape:connector-curvature="0" />
      <path
         id="path979"
         style="font-style:normal;font-variant:normal;font-weight:normal;font-stretch:normal;font-size:64px;line-height:1.25;font-family:FreeSans;-inkscape-font-specification:'FreeSans, Normal';font-variant-ligatures:normal;font-variant-caps:normal;font-variant-numeric:normal;font-feature-settings:normal;text-align:start;writing-mode:lr-tb;text-anchor:start"
         d="m 891.31266,187.24353 v 33.536 h 5.376 v -18.496 c 0,-6.848 3.584,-11.328 9.088,-11.328 4.224,0 6.912,2.56 6.912,6.592 v 23.232 h 5.312 v -25.344 c 0,-5.568 -4.16,-9.152 -10.624,-9.152 -4.992,0 -8.192,1.92 -11.136,6.592 v -5.632 z"
         inkscape:connector-curvature="0" />
      <path
         id="path981"
         style="font-style:normal;font-variant:normal;font-weight:normal;font-stretch:normal;font-size:64px;line-height:1.25;font-family:FreeSans;-inkscape-font-specification:'FreeSans, Normal';font-variant-ligatures:normal;font-variant-caps:normal;font-variant-numeric:normal;font-feature-settings:normal;text-align:start;writing-mode:lr-tb;text-anchor:start"
         d="m 937.59166,222.25153 c 4.224,0 7.168,-1.792 10.176,-6.016 v 1.728 c 0,7.68 -1.792,12.288 -9.344,12.288 -1.664,0 -7.232,-0.192 -8.128,-5.632 h -5.44 c 0.576,6.336 5.504,10.112 13.376,10.112 12.736,0 14.976,-7.808 14.976,-19.456 v -28.032 h -5.568 l 0.64,4.864 c -2.688,-3.968 -5.952,-5.824 -10.24,-5.824 -8.512,0 -14.272,7.424 -14.272,18.304 0,10.944 6.208,17.664 13.824,17.664 z m 1.024,-31.04 c 5.76,0 9.152,4.864 9.152,13.248 0,8 -3.456,12.864 -9.088,12.864 -5.824,0 -9.344,-4.928 -9.344,-13.056 0,-8.064 3.584,-13.056 9.28,-13.056 z"
         inkscape:connector-curvature="0" />
      <path
         id="path983"
         style="font-style:normal;font-variant:normal;font-weight:normal;font-stretch:normal;font-size:64px;line-height:1.25;font-family:FreeSans;-inkscape-font-specification:'FreeSans, Normal';font-variant-ligatures:normal;font-variant-caps:normal;font-variant-numeric:normal;font-feature-settings:normal;text-align:start;writing-mode:lr-tb;text-anchor:start"
         d="m 989.73766,187.24353 h -5.568 v -5.248 c 0,-2.24 1.28,-3.392 3.712,-3.392 0.448,0 0.64,0 1.856,0.064 v -4.416 c -1.216,-0.256 -1.92,-0.32 -3.008,-0.32 -4.928,0 -7.872,2.816 -7.872,7.616 v 5.696 h -4.48 v 4.352 h 4.48 v 29.184 h 5.312 v -29.184 h 5.568 z"
         inkscape:connector-curvature="0" />
      <path
         id="path985"
         style="font-style:normal;font-variant:normal;font-weight:normal;font-stretch:normal;font-size:64px;line-height:1.25;font-family:FreeSans;-inkscape-font-specification:'FreeSans, Normal';font-variant-ligatures:normal;font-variant-caps:normal;font-variant-numeric:normal;font-feature-settings:normal;text-align:start;writing-mode:lr-tb;text-anchor:start"
         d="m 1010.9407,191.91553 v -5.44 c -0.896,-0.128 -1.344,-0.192 -2.048,-0.192 -3.456,0 -6.08,2.048 -9.15204,7.04 v -6.08 h -4.928 v 33.536 h 5.37604 v -17.408 c 0,-9.408 4.288,-11.328 10.752,-11.456 z"
         inkscape:connector-curvature="0" />
      <path
         id="path987"
         style="font-style:normal;font-variant:normal;font-weight:normal;font-stretch:normal;font-size:64px;line-height:1.25;font-family:FreeSans;-inkscape-font-specification:'FreeSans, Normal';font-variant-ligatures:normal;font-variant-caps:normal;font-variant-numeric:normal;font-feature-settings:normal;text-align:start;writing-mode:lr-tb;text-anchor:start"
         d="m 1015.6147,197.16353 h 5.376 c 0.448,-4.096 2.88,-5.952 7.872,-5.952 4.8,0 7.488,1.792 7.488,4.992 v 1.408 c 0,2.24 -1.344,3.2 -5.568,3.712 -9.792,1.28 -16.64,2.048 -16.64,11.008 0,6.08 4.224,9.92 11.008,9.92 4.224,0 7.616,-1.472 11.392,-4.928 0.384,3.392 2.048,4.928 5.504,4.928 1.088,0 1.92,-0.128 3.648,-0.576 v -4.032 c -0.576,0.128 -0.832,0.128 -1.152,0.128 -1.856,0 -2.88,-0.96 -2.88,-2.624 v -19.712 c 0,-5.952 -4.352,-9.152 -12.608,-9.152 -6.016,0 -13.12,1.792 -13.44,10.88 z m 10.688,20.416 c -4.16,0 -6.592,-1.984 -6.592,-5.376 0,-7.36 11.2,-5.504 16.64,-8 v 6.016 c 0,3.2 -3.712,7.36 -10.048,7.36 z"
         inkscape:connector-curvature="0" />
      <path
         id="path989"
         style="font-style:normal;font-variant:normal;font-weight:normal;font-stretch:normal;font-size:64px;line-height:1.25;font-family:FreeSans;-inkscape-font-specification:'FreeSans, Normal';font-variant-ligatures:normal;font-variant-caps:normal;font-variant-numeric:normal;font-feature-settings:normal;text-align:start;writing-mode:lr-tb;text-anchor:start"
         d="m 1050.8127,187.24353 v 33.536 h 5.376 v -21.056 c 0,-4.864 3.52,-8.768 7.872,-8.768 3.968,0 6.208,2.432 6.208,6.72 v 23.104 h 5.376 v -21.056 c 0,-4.864 3.52,-8.768 7.872,-8.768 3.904,0 6.208,2.496 6.208,6.72 v 23.104 h 5.376 v -25.152 c 0,-6.016 -3.456,-9.344 -9.728,-9.344 -4.48,0 -7.168,1.344 -10.304,5.12 -1.984,-3.584 -4.672,-5.12 -9.024,-5.12 -4.48,0 -7.424,1.664 -10.304,5.696 v -4.736 z"
         inkscape:connector-curvature="0" />
      <path
         id="path991"
         style="font-style:normal;font-variant:normal;font-weight:normal;font-stretch:normal;font-size:64px;line-height:1.25;font-family:FreeSans;-inkscape-font-specification:'FreeSans, Normal';font-variant-ligatures:normal;font-variant-caps:normal;font-variant-numeric:normal;font-feature-settings:normal;text-align:start;writing-mode:lr-tb;text-anchor:start"
         d="m 1131.1647,205.80353 c 0,-12.16 -4.544,-19.52 -14.912,-19.52 -9.344,0 -15.36,7.168 -15.36,18.176 0,11.008 5.824,17.792 15.232,17.792 7.68,0 12.992,-4.352 14.336,-11.648 h -5.376 c -1.472,4.416 -4.48,6.72 -8.768,6.72 -6.208,0 -9.728,-4.672 -9.856,-11.52 z m -24.576,-4.352 c 0.448,-6.208 4.224,-10.24 9.6,-10.24 5.504,0 9.28,4.48 9.28,10.24 z"
         inkscape:connector-curvature="0" />
      <path
         id="path993"
         style="font-style:normal;font-variant:normal;font-weight:normal;font-stretch:normal;font-size:64px;line-height:1.25;font-family:FreeSans;-inkscape-font-specification:'FreeSans, Normal';font-variant-ligatures:normal;font-variant-caps:normal;font-variant-numeric:normal;font-feature-settings:normal;text-align:start;writing-mode:lr-tb;text-anchor:start"
         d="m 1168.8097,220.77953 9.856,-33.536 h -6.016 l -6.656,26.112 -6.592,-26.112 h -6.528 l -6.4,26.112 -6.848,-26.112 h -5.888 l 9.728,33.536 h 6.016 l 6.464,-26.304 6.784,26.304 z"
         inkscape:connector-curvature="0" />
      <path
         id="path995"
         style="font-style:normal;font-variant:normal;font-weight:normal;font-stretch:normal;font-size:64px;line-height:1.25;font-family:FreeSans;-inkscape-font-specification:'FreeSans, Normal';font-variant-ligatures:normal;font-variant-caps:normal;font-variant-numeric:normal;font-feature-settings:normal;text-align:start;writing-mode:lr-tb;text-anchor:start"
         d="m 1196.3717,186.28353 c -9.408,0 -15.104,6.72 -15.104,17.984 0,11.264 5.632,17.984 15.168,17.984 9.408,0 15.168,-6.72 15.168,-17.728 0,-11.584 -5.568,-18.24 -15.232,-18.24 z m 0.064,4.928 c 6.016,0 9.6,4.928 9.6,13.248 0,7.872 -3.712,12.864 -9.6,12.864 -5.952,0 -9.6,-4.928 -9.6,-13.056 0,-8.064 3.648,-13.056 9.6,-13.056 z"
         inkscape:connector-curvature="0" />
      <path
         id="path997"
         style="font-style:normal;font-variant:normal;font-weight:normal;font-stretch:normal;font-size:64px;line-height:1.25;font-family:FreeSans;-inkscape-font-specification:'FreeSans, Normal';font-variant-ligatures:normal;font-variant-caps:normal;font-variant-numeric:normal;font-feature-settings:normal;text-align:start;writing-mode:lr-tb;text-anchor:start"
         d="m 1233.4407,191.91553 v -5.44 c -0.896,-0.128 -1.344,-0.192 -2.048,-0.192 -3.456,0 -6.08,2.048 -9.152,7.04 v -6.08 h -4.928 v 33.536 h 5.376 v -17.408 c 0,-9.408 4.288,-11.328 10.752,-11.456 z"
         inkscape:connector-curvature="0" />
      <path
         id="path999"
         style="font-style:normal;font-variant:normal;font-weight:normal;font-stretch:normal;font-size:64px;line-height:1.25;font-family:FreeSans;-inkscape-font-specification:'FreeSans, Normal';font-variant-ligatures:normal;font-variant-caps:normal;font-variant-numeric:normal;font-feature-settings:normal;text-align:start;writing-mode:lr-tb;text-anchor:start"
         d="m 1243.8747,174.12353 h -5.312 v 46.656 h 5.312 v -13.056 l 5.184,-5.12 11.328,18.176 h 6.592 l -13.696,-21.952 11.648,-11.584 h -6.848 l -14.208,14.208 z"
         inkscape:connector-curvature="0" />
    </g>
    <path
       style="display:inline;opacity:1;vector-effect:none;fill:none;fill-opacity:1;fill-rule:nonzero;stroke:#1f567d;stroke-width:54.99999619;stroke-linecap:butt;stroke-linejoin:miter;stroke-miterlimit:4;stroke-dasharray:none;stroke-dashoffset:0;stroke-opacity:1"
       id="path3981-2-1-6-7-5-0-4-4-8-3-3"
       d="M 89.474706,254.3689 A 114.29869,114.29869 0 0 1 36.221857,125.79992 114.29869,114.29869 0 0 1 146.62714,41.085496 114.29869,114.29869 0 0 1 257.02997,125.80311 114.29869,114.29869 0 0 1 203.7734,254.37055"
       inkscape:connector-curvature="0" />
    <g
       id="text2987-2-0"
       style="font-style:normal;font-weight:normal;line-height:0%;font-family:sans-serif;letter-spacing:0px;word-spacing:0px;display:inline;fill:#5a8800;fill-opacity:1;stroke:none"
       aria-label="solph">
      <path
         id="path934"
         style="font-style:normal;font-variant:normal;font-weight:normal;font-stretch:normal;font-size:135px;line-height:0%;font-family:FreeSans;-inkscape-font-specification:FreeSans;letter-spacing:30px;writing-mode:lr-tb;fill:#5a8800;fill-opacity:1"
         d="m 344.552,96.115636 h -11.88 c 0.54,16.335004 9.72,24.165004 28.215,24.165004 17.82,0 29.16,-8.775 29.16,-22.410004 0,-10.53 -5.94,-16.335 -19.98,-19.71 l -10.8,-2.565 c -9.18,-2.16 -13.095,-5.13 -13.095,-10.125 0,-6.48 5.805,-10.665 14.985,-10.665 9.045,0 13.905,3.915 14.175,11.34 h 11.88 c -0.135,-13.905 -9.315,-21.735 -25.65,-21.735 -16.47,0 -27.135,8.505 -27.135,21.6 0,11.07 5.67,16.335 22.41,20.385 l 10.53,2.565 c 7.83,1.89 10.935,4.725 10.935,9.855 0,6.615004 -6.615,11.070004 -16.47,11.070004 -13.77,0 -16.335,-6.885 -17.28,-13.770004 z"
         inkscape:connector-curvature="0" />
      <path
         id="path936"
         style="font-style:normal;font-variant:normal;font-weight:normal;font-stretch:normal;font-size:135px;line-height:0%;font-family:FreeSans;-inkscape-font-specification:FreeSans;letter-spacing:30px;writing-mode:lr-tb;fill:#5a8800;fill-opacity:1"
         d="m 460.43731,44.410636 c -19.845,0 -31.86,14.175 -31.86,37.935 0,23.760004 11.88,37.935004 31.995,37.935004 19.845,0 31.995,-14.175 31.995,-37.395004 0,-24.435 -11.745,-38.475 -32.13,-38.475 z m 0.135,10.395 c 12.69,0 20.25,10.395 20.25,27.945 0,16.605 -7.83,27.135004 -20.25,27.135004 -12.555,0 -20.25,-10.395004 -20.25,-27.540004 0,-17.01 7.695,-27.54 20.25,-27.54 z"
         inkscape:connector-curvature="0" />
      <path
         id="path938"
         style="font-style:normal;font-variant:normal;font-weight:normal;font-stretch:normal;font-size:135px;line-height:0%;font-family:FreeSans;-inkscape-font-specification:FreeSans;letter-spacing:30px;writing-mode:lr-tb;fill:#5a8800;fill-opacity:1"
         d="m 545.94974,18.760636 h -11.34 v 98.415004 h 11.34 z"
         inkscape:connector-curvature="0" />
      <path
         id="path940"
         style="font-style:normal;font-variant:normal;font-weight:normal;font-stretch:normal;font-size:135px;line-height:0%;font-family:FreeSans;-inkscape-font-specification:FreeSans;letter-spacing:30px;writing-mode:lr-tb;fill:#5a8800;fill-opacity:1"
         d="m 593.61364,146.60564 h 11.34 v -36.855 c 5.94,7.29 12.555,10.53 21.735,10.53 18.225,0 30.24,-14.715 30.24,-37.260004 0,-23.76 -11.61,-38.61 -30.375,-38.61 -9.585,0 -17.28,4.32 -22.545,12.69 v -10.665 h -10.395 z m 31.05,-91.665004 c 12.42,0 20.52,10.935 20.52,27.81 0,16.065 -8.235,27.000004 -20.52,27.000004 -11.88,0 -19.71,-10.800004 -19.71,-27.405004 0,-16.605 7.83,-27.405 19.71,-27.405 z"
         inkscape:connector-curvature="0" />
      <path
         id="path942"
         style="font-style:normal;font-variant:normal;font-weight:normal;font-stretch:normal;font-size:135px;line-height:0%;font-family:FreeSans;-inkscape-font-specification:FreeSans;letter-spacing:30px;writing-mode:lr-tb;fill:#5a8800;fill-opacity:1"
         d="m 743.9788,68.170636 v 49.005004 h 11.205 V 63.715636 c 0,-11.88 -8.505,-19.305 -22.275,-19.305 -9.99,0 -16.065,3.105 -22.68,11.745 v -37.395 h -11.205 v 98.415004 h 11.205 V 78.160636 c 0,-14.445 7.56,-23.895 19.17,-23.895 5.805,0 14.58,2.835 14.58,13.905 z"
         inkscape:connector-curvature="0" />
    </g>
    <g
       id="text89"
       style="font-style:normal;font-variant:normal;font-weight:normal;font-stretch:normal;font-size:66.66666412px;line-height:1.25;font-family:sans-serif;-inkscape-font-specification:'sans-serif, Normal';font-variant-ligatures:normal;font-variant-caps:normal;font-variant-numeric:normal;font-feature-settings:normal;text-align:start;letter-spacing:0px;word-spacing:0px;writing-mode:lr-tb;text-anchor:start;fill:#5a8800;fill-opacity:1;stroke:none"
       aria-label="{s}">
      <path
         id="path927"
         style="font-style:normal;font-variant:normal;font-weight:600;font-stretch:normal;font-size:113.33333588px;font-family:FreeSans;-inkscape-font-specification:'FreeSans, Semi-Bold';font-variant-ligatures:normal;font-variant-caps:normal;font-variant-numeric:normal;font-feature-settings:normal;text-align:start;letter-spacing:-7.15000057px;word-spacing:-18.19998932px;writing-mode:lr-tb;text-anchor:start;fill:#5a8800;fill-opacity:1"
         d="m 91.537778,168.7047 v 23.8 c 0,9.29333 5.78,15.86666 13.940002,15.86666 h 8.61333 v -11.22 h -4.19333 c -3.85334,0 -5.1,-1.81333 -5.1,-7.36666 v -22.1 c 0,-8.27334 -2.49334,-11.10667 -10.993336,-12.46667 8.499996,-1.24667 10.993336,-4.08 10.993336,-12.35333 v -22.1 c 0,-4.53334 1.58666,-6.46 5.1,-6.46 h 4.19333 v -11.22001 h -8.61333 c -8.160002,0 -13.940002,6.57334 -13.940002,15.86667 v 23.91334 c 0,4.87333 -2.266667,7.02666 -7.366667,7.14 h -1.813334 v 10.42666 l 0.453334,0.11334 c 6.913333,0 8.726667,1.47333 8.726667,8.16 z"
         inkscape:connector-curvature="0" />
      <path
         id="path929"
         style="font-style:normal;font-variant:normal;font-weight:600;font-stretch:normal;font-size:113.33333588px;font-family:FreeSans;-inkscape-font-specification:'FreeSans, Semi-Bold';font-variant-ligatures:normal;font-variant-caps:normal;font-variant-numeric:normal;font-feature-settings:normal;text-align:start;letter-spacing:-7.15000057px;word-spacing:-18.19998932px;writing-mode:lr-tb;text-anchor:start;fill:#5a8800;fill-opacity:1"
         d="m 133.99059,167.91136 h -15.52667 c 0.45334,13.37334 10.31334,20.4 28.9,20.4 21.42,0 26.74667,-12.24 26.74667,-20.74 0,-7.93333 -3.96667,-13.03333 -12.01333,-15.41333 l -20.06,-5.78 c -4.42,-1.36 -5.55334,-2.26667 -5.55334,-4.76 0,-3.4 3.62667,-5.66667 9.18,-5.66667 7.59334,0 11.33334,2.72 11.44667,8.27334 h 15.3 c -0.22667,-12.92 -10.2,-20.74 -26.63333,-20.74 -15.52667,0 -25.16,7.82 -25.16,20.4 0,12.01333 9.86,13.94 13.37333,15.07333 l 18.92667,5.89333 c 3.96666,1.24667 5.32666,2.49334 5.32666,4.98667 0,3.74 -4.42,6.00667 -11.78666,6.00667 -9.97334,0 -11.56,-3.74 -12.46667,-7.93334 z"
         inkscape:connector-curvature="0" />
      <path
         id="path931"
         style="font-style:normal;font-variant:normal;font-weight:600;font-stretch:normal;font-size:113.33333588px;font-family:FreeSans;-inkscape-font-specification:'FreeSans, Semi-Bold';font-variant-ligatures:normal;font-variant-caps:normal;font-variant-numeric:normal;font-feature-settings:normal;text-align:start;letter-spacing:-7.15000057px;word-spacing:-18.19998932px;writing-mode:lr-tb;text-anchor:start;fill:#5a8800;fill-opacity:1"
         d="m 201.7132,142.75136 v -23.8 c 0,-9.29333 -5.78,-15.86667 -13.94,-15.86667 h -8.61334 v 11.22001 h 4.19334 c 3.85333,0 5.1,1.81333 5.1,7.36666 v 22.1 c 0,8.27334 2.49333,11.10667 10.99333,12.46667 -8.5,1.24667 -10.99333,4.08 -10.99333,12.35333 v 22.1 c 0,4.53334 -1.58667,6.46 -5.1,6.46 h -4.19334 v 11.22 h 8.61334 c 8.16,0 13.94,-6.57333 13.94,-15.86666 v -23.91334 c 0,-4.87333 2.26666,-7.02666 7.36666,-7.14 h 1.81334 V 151.0247 l -0.45334,-0.11334 c -6.91333,0 -8.72666,-1.47333 -8.72666,-8.16 z"
         inkscape:connector-curvature="0" />
    </g>
  </g>
</svg>
