<?xml version="1.0" encoding="UTF-8" standalone="no"?>
<svg
   xmlns:dc="http://purl.org/dc/elements/1.1/"
   xmlns:cc="http://creativecommons.org/ns#"
   xmlns:rdf="http://www.w3.org/1999/02/22-rdf-syntax-ns#"
   xmlns:svg="http://www.w3.org/2000/svg"
   xmlns="http://www.w3.org/2000/svg"
   xmlns:xlink="http://www.w3.org/1999/xlink"
   xmlns:sodipodi="http://sodipodi.sourceforge.net/DTD/sodipodi-0.dtd"
   xmlns:inkscape="http://www.inkscape.org/namespaces/inkscape"
   version="1.1"
   id="svg2"
   height="264.60095"
   width="721.3891"
   sodipodi:docname="logo_oemof_solph_mid.svg"
   inkscape:version="0.92.5 (2060ec1f9f, 2020-04-08)">
  <sodipodi:namedview
     pagecolor="#ffffff"
     bordercolor="#666666"
     borderopacity="1"
     objecttolerance="10"
     gridtolerance="10"
     guidetolerance="10"
     inkscape:pageopacity="0"
     inkscape:pageshadow="2"
     inkscape:window-width="1600"
     inkscape:window-height="872"
     id="namedview1082"
     showgrid="false"
     fit-margin-top="0"
     fit-margin-left="0"
     fit-margin-right="0"
     fit-margin-bottom="0"
     inkscape:zoom="0.33407407"
     inkscape:cx="670.1622"
     inkscape:cy="135.68644"
     inkscape:window-x="0"
     inkscape:window-y="0"
     inkscape:window-maximized="1"
     inkscape:current-layer="svg2" />
  <defs
     id="defs4">
    <linearGradient
       id="linearGradient3960">
      <stop
         style="stop-color:#55d400;stop-opacity:0.74901961;"
         offset="0"
         id="stop3972" />
      <stop
         style="stop-color:#55d400;stop-opacity:0.49803922;"
         offset="0.5"
         id="stop3970" />
      <stop
         id="stop3976"
         offset="0.75"
         style="stop-color:#39d400;stop-opacity:0.24705882;" />
      <stop
         style="stop-color:#94d400;stop-opacity:0.24705882;"
         offset="0.875"
         id="stop3980" />
      <stop
         style="stop-color:#efd400;stop-opacity:0.24705882;"
         offset="1"
         id="stop3978" />
    </linearGradient>
    <marker
       style="overflow:visible"
       id="Arrow2Lstart"
       refX="0"
       refY="0"
       orient="auto">
      <path
         transform="matrix(1.1,0,0,1.1,1.1,0)"
         d="M 8.7185878,4.0337352 -2.2072895,0.01601326 8.7185884,-4.0017078 c -1.7454984,2.3720609 -1.7354408,5.6174519 -6e-7,8.035443 z"
         style="fill-rule:evenodd;stroke-width:0.625;stroke-linejoin:round"
         id="path4366"
         inkscape:connector-curvature="0" />
    </marker>
    <marker
       style="overflow:visible"
       id="EmptyDiamondL"
       refX="0"
       refY="0"
       orient="auto">
      <path
         transform="scale(0.8)"
         style="fill:#ffffff;fill-rule:evenodd;stroke:#000000;stroke-width:1.00000003pt"
         d="M 0,-7.0710768 -7.0710894,0 0,7.0710589 7.0710462,0 Z"
         id="path4454"
         inkscape:connector-curvature="0" />
    </marker>
    <marker
       style="overflow:visible"
       id="DiamondSstart"
       refX="0"
       refY="0"
       orient="auto">
      <path
         transform="matrix(0.2,0,0,0.2,1.2,0)"
         style="fill-rule:evenodd;stroke:#000000;stroke-width:1.00000003pt"
         d="M 0,-7.0710768 -7.0710894,0 0,7.0710589 7.0710462,0 Z"
         id="path4442"
         inkscape:connector-curvature="0" />
    </marker>
    <marker
       style="overflow:visible"
       id="Arrow1Lstart"
       refX="0"
       refY="0"
       orient="auto">
      <path
         transform="matrix(0.8,0,0,0.8,10,0)"
         style="fill-rule:evenodd;stroke:#000000;stroke-width:1.00000003pt"
         d="M 0,0 5,-5 -12.5,0 5,5 Z"
         id="path4348"
         inkscape:connector-curvature="0" />
    </marker>
    <marker
       style="overflow:visible"
       id="SquareL"
       refX="0"
       refY="0"
       orient="auto">
      <path
         transform="scale(0.8)"
         style="fill-rule:evenodd;stroke:#000000;stroke-width:1.00000003pt"
         d="M -5,-5 V 5 H 5 V -5 Z"
         id="path4418"
         inkscape:connector-curvature="0" />
    </marker>
    <radialGradient
       xlink:href="#linearGradient3684-76"
       id="radialGradient3013"
       gradientUnits="userSpaceOnUse"
       gradientTransform="translate(-139.2888,-90.7174)"
       cx="236.78572"
       cy="188.21428"
       fx="236.78572"
       fy="188.21428"
       r="97.496925" />
    <radialGradient
       xlink:href="#linearGradient3684-76"
       id="radialGradient3004"
       gradientUnits="userSpaceOnUse"
       gradientTransform="translate(-90.4365,1338.3028)"
       cx="236.78572"
       cy="188.21428"
       fx="236.78572"
       fy="188.21428"
       r="97.496925" />
    <linearGradient
       id="linearGradient3684-76">
      <stop
         id="stop3686-14"
         style="stop-color:#000000;stop-opacity:1"
         offset="0" />
      <stop
         id="stop3692-23"
         style="stop-color:#000000;stop-opacity:0.86666667"
         offset="0.89795917" />
      <stop
         id="stop3688-2"
         style="stop-color:#000000;stop-opacity:0"
         offset="1" />
    </linearGradient>
    <radialGradient
       cx="236.78572"
       cy="188.21428"
       r="97.496925"
       fx="236.78572"
       fy="188.21428"
       id="radialGradient4894"
       xlink:href="#linearGradient3684-76"
       gradientUnits="userSpaceOnUse"
       gradientTransform="translate(-90.4365,1338.3028)" />
    <path
       style="display:inline;fill:none;stroke:none"
       id="path3981-2-1-6-7-5-0-3-3-9"
       d="m 6.0609169,-68.571419 a 43.030457,35 0 1 1 -86.0609129,0 43.030457,35 0 1 1 86.0609129,0 z"
       transform="matrix(-1.655217,1.5156218,-1.8633661,-2.0349941,554.10899,812.95323)"
       inkscape:connector-curvature="0" />
  </defs>
  <metadata
     id="metadata7">
    <rdf:RDF>
      <cc:Work
         rdf:about="">
        <dc:format>image/svg+xml</dc:format>
        <dc:type
           rdf:resource="http://purl.org/dc/dcmitype/StillImage" />
        <dc:title></dc:title>
      </cc:Work>
    </rdf:RDF>
  </metadata>
  <g
     id="g1776"
     transform="translate(-4.8377979,-13.585498)">
    <g
       id="text3057"
       style="font-style:normal;font-weight:normal;line-height:0%;font-family:sans-serif;letter-spacing:0px;word-spacing:0px;fill:#000000;fill-opacity:1;stroke:none"
       aria-label=" " />
    <g
       style="display:inline;fill:none;stroke:#cfcfcf;stroke-width:1.46722198;stroke-linecap:round;stroke-miterlimit:4;stroke-dasharray:none;stroke-opacity:1"
       id="g3831-9-3-1-6-3"
       transform="matrix(0.91666939,0.00891669,-0.008729,0.91623053,14.672869,-684.69537)" />
    <g
       id="text2997-0"
       style="font-style:normal;font-weight:normal;line-height:0%;font-family:sans-serif;letter-spacing:0px;word-spacing:0px;fill:#92b094;fill-opacity:1;stroke:none"
       aria-label="['sɒlv]">
      <path
         id="path1737"
         style="font-style:normal;font-variant:normal;font-weight:normal;font-stretch:normal;font-size:120px;line-height:1.25;font-family:FreeSans;-inkscape-font-specification:FreeSans;letter-spacing:10px;fill:#92b094;fill-opacity:1"
         d="m 372.46973,158.47341 h -22.32 v 112.92 h 22.32 v -8.64 h -12.36 v -95.64 h 12.36 z"
         inkscape:connector-curvature="0" />
      <path
         id="path1739"
         style="font-style:normal;font-variant:normal;font-weight:normal;font-stretch:normal;font-size:120px;line-height:1.25;font-family:FreeSans;-inkscape-font-specification:FreeSans;letter-spacing:10px;fill:#92b094;fill-opacity:1"
         d="m 392.11098,160.87341 v 13.32 l 3.24,16.08 h 4.8 l 3.24,-16.08 v -13.32 z"
         inkscape:connector-curvature="0" />
      <path
         id="path1741"
         style="font-style:normal;font-variant:normal;font-weight:normal;font-stretch:normal;font-size:120px;line-height:1.25;font-family:FreeSans;-inkscape-font-specification:FreeSans;letter-spacing:10px;fill:#92b094;fill-opacity:1"
         d="m 434.29723,227.23341 h -10.56 c 0.48,14.52 8.64,21.48 25.08,21.48 15.84,0 25.92,-7.8 25.92,-19.92 0,-9.36 -5.28,-14.52 -17.76,-17.52 l -9.6,-2.28 c -8.16,-1.92 -11.64,-4.56 -11.64,-9 0,-5.76 5.16,-9.48 13.32,-9.48 8.04,0 12.36,3.48 12.6,10.08 h 10.56 c -0.12,-12.36 -8.28,-19.32 -22.8,-19.32 -14.64,0 -24.12,7.56 -24.12,19.2 0,9.84 5.04,14.52 19.92,18.12 l 9.36,2.28 c 6.96,1.68 9.72,4.2 9.72,8.76 0,5.88 -5.88,9.84 -14.64,9.84 -12.24,0 -14.52,-6.12 -15.36,-12.24 z"
         inkscape:connector-curvature="0" />
      <path
         id="path1743"
         style="font-style:normal;font-variant:normal;font-weight:normal;font-stretch:normal;font-size:120px;line-height:1.25;font-family:FreeSans;-inkscape-font-specification:FreeSans;letter-spacing:10px;fill:#92b094;fill-opacity:1"
         d="m 509.23973,214.63341 c 0,-12.36 4.92,-24.36 15.84,-24.36 11.04,0 18.24,11.76 18.24,24.12 0,12.24 -5.52,25.2 -16.2,25.2 -11.64,0 -17.88,-11.88 -17.88,-24.96 z m 19.68,-33.24 c -9.72,0.24 -14.76,3.12 -20.4,8.52 -0.84,-7.08 -4.32,-9.6 -10.56,-9.6 -2.04,0 -3.6,0.24 -6.84,1.08 v 7.56 c 1.08,-0.24 1.56,-0.24 2.16,-0.24 3.48,0 5.4,1.8 5.4,4.92 v 52.32 h 9.96 v -7.92 c 5.28,6.36 11.52,9.6 18.72,9.6 18,0 26.4,-15.12 26.4,-33.6 0,-20.04 -13.92,-32.64 -24.84,-32.64 z"
         inkscape:connector-curvature="0" />
      <path
         id="path1745"
         style="font-style:normal;font-variant:normal;font-weight:normal;font-stretch:normal;font-size:120px;line-height:1.25;font-family:FreeSans;-inkscape-font-specification:FreeSans;letter-spacing:10px;fill:#92b094;fill-opacity:1"
         d="m 584.6716,158.47341 h -10.08 v 87.48 h 10.08 z"
         inkscape:connector-curvature="0" />
      <path
         id="path1747"
         style="font-style:normal;font-variant:normal;font-weight:normal;font-stretch:normal;font-size:120px;line-height:1.25;font-family:FreeSans;-inkscape-font-specification:FreeSans;letter-spacing:10px;fill:#92b094;fill-opacity:1"
         d="m 637.37285,245.95341 24.12,-62.88 h -11.28 l -17.76,51 -16.8,-51 h -11.28 l 22.08,62.88 z"
         inkscape:connector-curvature="0" />
      <path
         id="path1749"
         style="font-style:normal;font-variant:normal;font-weight:normal;font-stretch:normal;font-size:120px;line-height:1.25;font-family:FreeSans;-inkscape-font-specification:FreeSans;letter-spacing:10px;fill:#92b094;fill-opacity:1"
         d="m 675.3441,271.39341 h 22.32 v -112.92 h -22.32 v 8.64 h 12.36 v 95.64 h -12.36 z"
         inkscape:connector-curvature="0" />
    </g>
    <path
       style="display:inline;opacity:1;vector-effect:none;fill:none;fill-opacity:1;fill-rule:nonzero;stroke:#1f567d;stroke-width:54.99999619;stroke-linecap:butt;stroke-linejoin:miter;stroke-miterlimit:4;stroke-dasharray:none;stroke-dashoffset:0;stroke-opacity:1"
       id="path3981-2-1-6-7-5-0-4-4-8-3-3"
       d="M 89.474706,254.3689 A 114.29869,114.29869 0 0 1 36.221857,125.79992 114.29869,114.29869 0 0 1 146.62714,41.085496 114.29869,114.29869 0 0 1 257.02997,125.80311 114.29869,114.29869 0 0 1 203.7734,254.37055"
       inkscape:connector-curvature="0" />
    <g
       id="text2987-2-0"
       style="font-style:normal;font-weight:normal;line-height:0%;font-family:sans-serif;letter-spacing:0px;word-spacing:0px;display:inline;fill:#5a8800;fill-opacity:1;stroke:none"
       aria-label="solph">
      <path
         id="path1726"
         style="font-style:normal;font-variant:normal;font-weight:normal;font-stretch:normal;font-size:126.66666412px;line-height:0%;font-family:FreeSans;-inkscape-font-specification:FreeSans;letter-spacing:30px;writing-mode:lr-tb;fill:#5a8800;fill-opacity:1"
         d="m 333.53533,93.415637 h -11.14666 c 0.50666,15.326663 9.12,22.673333 26.47333,22.673333 16.72,0 27.36,-8.23333 27.36,-21.026667 0,-9.879999 -5.57333,-15.326666 -18.74667,-18.493333 L 347.342,74.162304 c -8.61333,-2.026667 -12.28667,-4.813333 -12.28667,-9.5 0,-6.08 5.44667,-10.006667 14.06,-10.006667 8.48667,0 13.04667,3.673334 13.3,10.64 H 373.562 c -0.12667,-13.046666 -8.74,-20.393333 -24.06667,-20.393333 -15.45333,0 -25.46,7.98 -25.46,20.266667 0,10.386666 5.32,15.326666 21.02667,19.126666 l 9.88,2.406666 c 7.34667,1.773334 10.26,4.433334 10.26,9.246667 0,6.20667 -6.20667,10.38667 -15.45333,10.38667 -12.92,0 -15.32667,-6.460003 -16.21334,-12.920003 z"
         inkscape:connector-curvature="0" />
      <path
         id="path1728"
         style="font-style:normal;font-variant:normal;font-weight:normal;font-stretch:normal;font-size:126.66666412px;line-height:0%;font-family:FreeSans;-inkscape-font-specification:FreeSans;letter-spacing:30px;writing-mode:lr-tb;fill:#5a8800;fill-opacity:1"
         d="m 444.11908,44.902304 c -18.62,0 -29.89333,13.3 -29.89333,35.593333 0,22.293333 11.14667,35.593333 30.02,35.593333 18.62,0 30.02,-13.3 30.02,-35.086666 0,-22.926667 -11.02,-36.1 -30.14667,-36.1 z m 0.12667,9.753333 c 11.90667,0 19,9.753334 19,26.22 0,15.58 -7.34667,25.460003 -19,25.460003 -11.78,0 -19,-9.753337 -19,-25.840003 0,-15.96 7.22,-25.84 19,-25.84 z"
         inkscape:connector-curvature="0" />
      <path
         id="path1730"
         style="font-style:normal;font-variant:normal;font-weight:normal;font-stretch:normal;font-size:126.66666412px;line-height:0%;font-family:FreeSans;-inkscape-font-specification:FreeSans;letter-spacing:30px;writing-mode:lr-tb;fill:#5a8800;fill-opacity:1"
         d="m 526.20481,20.835638 h -10.64 v 92.340002 h 10.64 z"
         inkscape:connector-curvature="0" />
      <path
         id="path1732"
         style="font-style:normal;font-variant:normal;font-weight:normal;font-stretch:normal;font-size:126.66666412px;line-height:0%;font-family:FreeSans;-inkscape-font-specification:FreeSans;letter-spacing:30px;writing-mode:lr-tb;fill:#5a8800;fill-opacity:1"
         d="m 572.77836,140.78897 h 10.64 v -34.58 c 5.57333,6.84 11.78,9.88 20.39333,9.88 17.1,0 28.37334,-13.80667 28.37334,-34.96 0,-22.293333 -10.89334,-36.226666 -28.5,-36.226666 -8.99334,0 -16.21334,4.053334 -21.15334,11.906667 V 46.802304 h -9.75333 z m 29.13333,-86.006666 c 11.65334,0 19.25334,10.26 19.25334,26.093333 0,15.073333 -7.72667,25.333333 -19.25334,25.333333 -11.14666,0 -18.49333,-10.133333 -18.49333,-25.713333 0,-15.58 7.34667,-25.713333 18.49333,-25.713333 z"
         inkscape:connector-curvature="0" />
      <path
         id="path1734"
         style="font-style:normal;font-variant:normal;font-weight:normal;font-stretch:normal;font-size:126.66666412px;line-height:0%;font-family:FreeSans;-inkscape-font-specification:FreeSans;letter-spacing:30px;writing-mode:lr-tb;fill:#5a8800;fill-opacity:1"
         d="M 715.71356,67.195637 V 113.17564 H 726.2269 V 63.015637 c 0,-11.146666 -7.98,-18.113333 -20.9,-18.113333 -9.37334,0 -15.07334,2.913334 -21.28,11.02 V 20.835638 H 673.53356 V 113.17564 H 684.0469 V 76.56897 c 0,-13.553333 7.09333,-22.419999 17.98666,-22.419999 5.44667,0 13.68,2.66 13.68,13.046666 z"
         inkscape:connector-curvature="0" />
    </g>
    <text
       id="text85"
       y="98.781052"
       x="915.89331"
       style="font-style:normal;font-weight:normal;font-size:40px;line-height:1.25;font-family:sans-serif;letter-spacing:0px;word-spacing:0px;fill:#000000;fill-opacity:1;stroke:none"
       xml:space="preserve"><tspan
         y="134.17168"
         x="915.89331"
         id="tspan83" /></text>
    <g
       id="text89"
       style="font-style:normal;font-variant:normal;font-weight:normal;font-stretch:normal;font-size:66.66666412px;line-height:1.25;font-family:sans-serif;-inkscape-font-specification:'sans-serif, Normal';font-variant-ligatures:normal;font-variant-caps:normal;font-variant-numeric:normal;font-feature-settings:normal;text-align:start;letter-spacing:0px;word-spacing:0px;writing-mode:lr-tb;text-anchor:start;fill:#5a8800;fill-opacity:1;stroke:none"
       aria-label="{s}">
      <path
         id="path1719"
         style="font-style:normal;font-variant:normal;font-weight:600;font-stretch:normal;font-size:113.33333588px;font-family:FreeSans;-inkscape-font-specification:'FreeSans, Semi-Bold';font-variant-ligatures:normal;font-variant-caps:normal;font-variant-numeric:normal;font-feature-settings:normal;text-align:start;letter-spacing:-7.15000057px;word-spacing:-18.19998932px;writing-mode:lr-tb;text-anchor:start;fill:#5a8800;fill-opacity:1"
         d="m 91.537778,168.7047 v 23.8 c 0,9.29333 5.78,15.86666 13.940002,15.86666 h 8.61333 v -11.22 h -4.19333 c -3.85334,0 -5.1,-1.81333 -5.1,-7.36666 v -22.1 c 0,-8.27334 -2.49334,-11.10667 -10.993336,-12.46667 8.499996,-1.24667 10.993336,-4.08 10.993336,-12.35333 v -22.1 c 0,-4.53334 1.58666,-6.46 5.1,-6.46 h 4.19333 v -11.22001 h -8.61333 c -8.160002,0 -13.940002,6.57334 -13.940002,15.86667 v 23.91334 c 0,4.87333 -2.266667,7.02666 -7.366667,7.14 h -1.813334 v 10.42666 l 0.453334,0.11334 c 6.913333,0 8.726667,1.47333 8.726667,8.16 z"
         inkscape:connector-curvature="0" />
      <path
         id="path1721"
         style="font-style:normal;font-variant:normal;font-weight:600;font-stretch:normal;font-size:113.33333588px;font-family:FreeSans;-inkscape-font-specification:'FreeSans, Semi-Bold';font-variant-ligatures:normal;font-variant-caps:normal;font-variant-numeric:normal;font-feature-settings:normal;text-align:start;letter-spacing:-7.15000057px;word-spacing:-18.19998932px;writing-mode:lr-tb;text-anchor:start;fill:#5a8800;fill-opacity:1"
         d="m 133.99059,167.91136 h -15.52667 c 0.45334,13.37334 10.31334,20.4 28.9,20.4 21.42,0 26.74667,-12.24 26.74667,-20.74 0,-7.93333 -3.96667,-13.03333 -12.01333,-15.41333 l -20.06,-5.78 c -4.42,-1.36 -5.55334,-2.26667 -5.55334,-4.76 0,-3.4 3.62667,-5.66667 9.18,-5.66667 7.59334,0 11.33334,2.72 11.44667,8.27334 h 15.3 c -0.22667,-12.92 -10.2,-20.74 -26.63333,-20.74 -15.52667,0 -25.16,7.82 -25.16,20.4 0,12.01333 9.86,13.94 13.37333,15.07333 l 18.92667,5.89333 c 3.96666,1.24667 5.32666,2.49334 5.32666,4.98667 0,3.74 -4.42,6.00667 -11.78666,6.00667 -9.97334,0 -11.56,-3.74 -12.46667,-7.93334 z"
         inkscape:connector-curvature="0" />
      <path
         id="path1723"
         style="font-style:normal;font-variant:normal;font-weight:600;font-stretch:normal;font-size:113.33333588px;font-family:FreeSans;-inkscape-font-specification:'FreeSans, Semi-Bold';font-variant-ligatures:normal;font-variant-caps:normal;font-variant-numeric:normal;font-feature-settings:normal;text-align:start;letter-spacing:-7.15000057px;word-spacing:-18.19998932px;writing-mode:lr-tb;text-anchor:start;fill:#5a8800;fill-opacity:1"
         d="m 201.7132,142.75136 v -23.8 c 0,-9.29333 -5.78,-15.86667 -13.94,-15.86667 h -8.61334 v 11.22001 h 4.19334 c 3.85333,0 5.1,1.81333 5.1,7.36666 v 22.1 c 0,8.27334 2.49333,11.10667 10.99333,12.46667 -8.5,1.24667 -10.99333,4.08 -10.99333,12.35333 v 22.1 c 0,4.53334 -1.58667,6.46 -5.1,6.46 h -4.19334 v 11.22 h 8.61334 c 8.16,0 13.94,-6.57333 13.94,-15.86666 v -23.91334 c 0,-4.87333 2.26666,-7.02666 7.36666,-7.14 h 1.81334 V 151.0247 l -0.45334,-0.11334 c -6.91333,0 -8.72666,-1.47333 -8.72666,-8.16 z"
         inkscape:connector-curvature="0" />
    </g>
  </g>
</svg>
