<?xml version="1.0" encoding="UTF-8" standalone="no"?>
<!DOCTYPE svg PUBLIC "-//W3C//DTD SVG 1.1//EN"
 "http://www.w3.org/Graphics/SVG/1.1/DTD/svg11.dtd">
<!-- Generated by graphviz version 12.2.1 (20241206.2353)
 -->
<!-- Pages: 1 -->
<svg width="616pt" height="353pt"
 viewBox="0.00 0.00 616.20 353.20" xmlns="http://www.w3.org/2000/svg" xmlns:xlink="http://www.w3.org/1999/xlink">
<g id="graph0" class="graph" transform="scale(1 1) rotate(0) translate(4 349.2)">
<polygon fill="white" stroke="none" points="-4,4 -4,-349.2 612.2,-349.2 612.2,4 -4,4"/>
<!-- natural gas -->
<g id="node1" class="node">
<title>natural gas</title>
<g id="a_node1"><a xlink:title="natural gas">
<polygon fill="lightgrey" stroke="lightgrey" points="608.2,-273.2 313,-273.2 313,-251.6 608.2,-251.6 608.2,-273.2"/>
<text text-anchor="middle" x="460.6" y="-258.52" font-family="Times New Roman,serif" font-size="10.00">natural gas</text>
</a>
</g>
</g>
<!-- Gas boiler -->
<g id="node9" class="node">
<title>Gas boiler</title>
<polygon fill="none" stroke="#7bf1a8" points="456.6,-203.1 398.6,-203.1 398.6,-167.1 456.6,-167.1 456.6,-203.1"/>
<text text-anchor="middle" x="427.6" y="-181.22" font-family="Times New Roman,serif" font-size="10.00">Gas boiler</text>
</g>
<!-- natural gas&#45;&gt;Gas boiler -->
<g id="edge2" class="edge">
<title>natural gas&#45;&gt;Gas boiler</title>
<path fill="none" stroke="black" d="M456.42,-251.86C452.23,-242.31 445.59,-227.14 439.73,-213.78"/>
<polygon fill="black" stroke="black" points="443.09,-212.73 435.87,-204.98 436.68,-215.54 443.09,-212.73"/>
</g>
<!-- electricity -->
<g id="node2" class="node">
<title>electricity</title>
<g id="a_node2"><a xlink:title="electricity">
<polygon fill="lightgrey" stroke="lightgrey" points="295.2,-273.2 0,-273.2 0,-251.6 295.2,-251.6 295.2,-273.2"/>
<text text-anchor="middle" x="147.6" y="-258.52" font-family="Times New Roman,serif" font-size="10.00">electricity</text>
</a>
</g>
</g>
<!-- Electricit
y Demand -->
<g id="node8" class="node">
<title>Electricit
y Demand</title>
<polygon fill="none" stroke="#ffd6e0" points="181.47,-215.6 113.73,-215.6 89.6,-154.6 205.6,-154.6 181.47,-215.6"/>
<text text-anchor="middle" x="147.6" y="-186.85" font-family="Times New Roman,serif" font-size="10.00">Electricit</text>
<text text-anchor="middle" x="147.6" y="-175.6" font-family="Times New Roman,serif" font-size="10.00">y Demand</text>
</g>
<!-- electricity&#45;&gt;Electricit
y Demand -->
<g id="edge5" class="edge">
<title>electricity&#45;&gt;Electricit
y Demand</title>
<path fill="none" stroke="black" d="M147.6,-251.86C147.6,-245.45 147.6,-236.5 147.6,-227.27"/>
<polygon fill="black" stroke="black" points="151.1,-227.54 147.6,-217.54 144.1,-227.54 151.1,-227.54"/>
</g>
<!-- Heatpump -->
<g id="node10" class="node">
<title>Heatpump</title>
<polygon fill="none" stroke="#7bf1a8" points="347.98,-203.1 289.23,-203.1 289.23,-167.1 347.98,-167.1 347.98,-203.1"/>
<text text-anchor="middle" x="318.6" y="-181.22" font-family="Times New Roman,serif" font-size="10.00">Heatpump</text>
</g>
<!-- electricity&#45;&gt;Heatpump -->
<g id="edge6" class="edge">
<title>electricity&#45;&gt;Heatpump</title>
<path fill="none" stroke="black" d="M169.61,-251.71C197.04,-239.63 244.44,-218.76 278.42,-203.79"/>
<polygon fill="black" stroke="black" points="279.81,-207.01 287.55,-199.77 276.99,-200.6 279.81,-207.01"/>
</g>
<!-- heat -->
<g id="node3" class="node">
<title>heat</title>
<g id="a_node3"><a xlink:title="heat">
<polygon fill="lightgrey" stroke="lightgrey" points="520.2,-118.6 225,-118.6 225,-97 520.2,-97 520.2,-118.6"/>
<text text-anchor="middle" x="372.6" y="-103.92" font-family="Times New Roman,serif" font-size="10.00">heat</text>
</a>
</g>
</g>
<!-- Heat Deman
d -->
<g id="node4" class="node">
<title>Heat Deman
d</title>
<polygon fill="none" stroke="#ffd6e0" points="411.73,-61 333.47,-61 305.6,0 439.6,0 411.73,-61"/>
<text text-anchor="middle" x="372.6" y="-32.25" font-family="Times New Roman,serif" font-size="10.00">Heat Deman</text>
<text text-anchor="middle" x="372.6" y="-21" font-family="Times New Roman,serif" font-size="10.00">d</text>
</g>
<!-- heat&#45;&gt;Heat Deman
d -->
<g id="edge9" class="edge">
<title>heat&#45;&gt;Heat Deman
d</title>
<path fill="none" stroke="black" d="M372.6,-97.26C372.6,-90.85 372.6,-81.9 372.6,-72.67"/>
<polygon fill="black" stroke="black" points="376.1,-72.94 372.6,-62.94 369.1,-72.94 376.1,-72.94"/>
</g>
<!-- Gas Grid -->
<g id="node5" class="node">
<title>Gas Grid</title>
<polygon fill="none" stroke="#a4adfb" points="434.82,-309.2 486.38,-309.2 504.74,-345.2 416.46,-345.2 434.82,-309.2"/>
<text text-anchor="middle" x="460.6" y="-323.32" font-family="Times New Roman,serif" font-size="10.00">Gas Grid</text>
</g>
<!-- Gas Grid&#45;&gt;natural gas -->
<g id="edge1" class="edge">
<title>Gas Grid&#45;&gt;natural gas</title>
<path fill="none" stroke="black" d="M460.6,-308.71C460.6,-301.18 460.6,-292.32 460.6,-284.44"/>
<polygon fill="black" stroke="black" points="464.1,-284.71 460.6,-274.71 457.1,-284.71 464.1,-284.71"/>
</g>
<!-- Power Grid -->
<g id="node6" class="node">
<title>Power Grid</title>
<polygon fill="none" stroke="#a4adfb" points="61.06,-309.2 122.14,-309.2 143.9,-345.2 39.3,-345.2 61.06,-309.2"/>
<text text-anchor="middle" x="91.6" y="-323.32" font-family="Times New Roman,serif" font-size="10.00">Power Grid</text>
</g>
<!-- Power Grid&#45;&gt;electricity -->
<g id="edge3" class="edge">
<title>Power Grid&#45;&gt;electricity</title>
<path fill="none" stroke="black" d="M107.2,-308.71C114.71,-300.28 123.71,-290.19 131.31,-281.67"/>
<polygon fill="black" stroke="black" points="133.82,-284.12 137.86,-274.32 128.59,-279.46 133.82,-284.12"/>
</g>
<!-- Pv Plant -->
<g id="node7" class="node">
<title>Pv Plant</title>
<polygon fill="none" stroke="#a4adfb" points="179.29,-309.2 227.91,-309.2 245.23,-345.2 161.97,-345.2 179.29,-309.2"/>
<text text-anchor="middle" x="203.6" y="-323.32" font-family="Times New Roman,serif" font-size="10.00">Pv Plant</text>
</g>
<!-- Pv Plant&#45;&gt;electricity -->
<g id="edge4" class="edge">
<title>Pv Plant&#45;&gt;electricity</title>
<path fill="none" stroke="black" d="M188,-308.71C180.49,-300.28 171.49,-290.19 163.89,-281.67"/>
<polygon fill="black" stroke="black" points="166.61,-279.46 157.34,-274.32 161.38,-284.12 166.61,-279.46"/>
</g>
<!-- Gas boiler&#45;&gt;heat -->
<g id="edge7" class="edge">
<title>Gas boiler&#45;&gt;heat</title>
<path fill="none" stroke="black" d="M414.84,-166.64C406.32,-154.96 395.1,-139.61 386.37,-127.65"/>
<polygon fill="black" stroke="black" points="389.35,-125.8 380.63,-119.79 383.7,-129.93 389.35,-125.8"/>
</g>
<!-- Heatpump&#45;&gt;heat -->
<g id="edge8" class="edge">
<title>Heatpump&#45;&gt;heat</title>
<path fill="none" stroke="black" d="M331.12,-166.64C339.5,-154.96 350.51,-139.61 359.08,-127.65"/>
<polygon fill="black" stroke="black" points="361.73,-129.96 364.71,-119.8 356.04,-125.88 361.73,-129.96"/>
</g>
</g>
</svg>
