<?xml version="1.0" encoding="UTF-8"?><svg xmlns="http://www.w3.org/2000/svg" xmlns:xlink="http://www.w3.org/1999/xlink" fill-opacity="1" color-rendering="auto" color-interpolation="auto" text-rendering="auto" stroke="black" stroke-linecap="square" width="512" stroke-miterlimit="10" shape-rendering="auto" stroke-opacity="1" fill="black" stroke-dasharray="none" font-weight="normal" stroke-width="1" height="180" font-family="'Dialog'" font-style="normal" stroke-linejoin="miter" font-size="12px" stroke-dashoffset="0" image-rendering="auto">
  <!--Generated by ySVG 2.5-->
  <defs id="genericDefs"/>
  <g>
    <defs id="defs1">
      <clipPath clipPathUnits="userSpaceOnUse" id="clipPath1">
        <path d="M0 0 L512 0 L512 180 L0 180 L0 0 Z"/>
      </clipPath>
      <clipPath clipPathUnits="userSpaceOnUse" id="clipPath2">
        <path d="M410 129 L922 129 L922 309 L410 309 L410 129 Z"/>
      </clipPath>
    </defs>
    <g fill="white" text-rendering="geometricPrecision" shape-rendering="geometricPrecision" transform="translate(-410,-129)" stroke="white">
      <rect x="410" width="512" height="180" y="129" clip-path="url(#clipPath2)" stroke="none"/>
    </g>
    <g fill="silver" text-rendering="geometricPrecision" shape-rendering="geometricPrecision" transform="matrix(1,0,0,1,-410,-129)" stroke="silver">
      <ellipse rx="60" ry="18" clip-path="url(#clipPath2)" cx="825" cy="219" stroke="none"/>
    </g>
    <g text-rendering="geometricPrecision" stroke-miterlimit="1.45" shape-rendering="geometricPrecision" font-family="sans-serif" transform="matrix(1,0,0,1,-410,-129)" stroke-linecap="butt">
      <text x="808.2305" xml:space="preserve" y="223.1543" clip-path="url(#clipPath2)" stroke="none">Bus 2</text>
      <ellipse rx="60" fill="none" ry="18" clip-path="url(#clipPath2)" cx="825" cy="219"/>
    </g>
    <g fill="silver" text-rendering="geometricPrecision" shape-rendering="geometricPrecision" transform="matrix(1,0,0,1,-410,-129)" stroke="silver">
      <ellipse rx="60" ry="18" clip-path="url(#clipPath2)" cx="507" cy="219" stroke="none"/>
    </g>
    <g text-rendering="geometricPrecision" stroke-miterlimit="1.45" shape-rendering="geometricPrecision" font-family="sans-serif" transform="matrix(1,0,0,1,-410,-129)" stroke-linecap="butt">
      <text x="490.2305" xml:space="preserve" y="223.1543" clip-path="url(#clipPath2)" stroke="none">Bus 1</text>
      <ellipse rx="60" fill="none" ry="18" clip-path="url(#clipPath2)" cx="507" cy="219"/>
      <text x="629.0098" xml:space="preserve" y="223.1543" clip-path="url(#clipPath2)" stroke="none">Converter</text>
      <rect fill="none" x="600" width="132" height="30" y="204" clip-path="url(#clipPath2)"/>
      <text x="488.5225" xml:space="preserve" y="283.1543" clip-path="url(#clipPath2)" stroke="none">Sink 1</text>
      <path fill="none" d="M425 294 L466 264 L548 264 L589 294 Z" clip-path="url(#clipPath2)" fill-rule="evenodd"/>
      <text x="806.5225" xml:space="preserve" y="283.1543" clip-path="url(#clipPath2)" stroke="none">Sink 2</text>
      <path fill="none" d="M743.0001 294 L784.0001 264 L866.0001 264 L907.0001 294 Z" clip-path="url(#clipPath2)" fill-rule="evenodd"/>
    </g>
    <g fill="white" text-rendering="geometricPrecision" shape-rendering="geometricPrecision" transform="matrix(1,0,0,1,-410,-129)" stroke="white">
      <path d="M425 144 L589 144 L548 174 L466 174 Z" fill-rule="evenodd" clip-path="url(#clipPath2)" stroke="none"/>
    </g>
    <g text-rendering="geometricPrecision" stroke-miterlimit="1.45" shape-rendering="geometricPrecision" font-family="sans-serif" transform="matrix(1,0,0,1,-410,-129)" stroke-linecap="butt">
      <text x="486.2607" xml:space="preserve" y="163.1543" clip-path="url(#clipPath2)" stroke="none">Source</text>
      <path fill="none" d="M425 144 L589 144 L548 174 L466 174 Z" clip-path="url(#clipPath2)" fill-rule="evenodd"/>
      <path fill="none" d="M567 219 L592 219" clip-path="url(#clipPath2)"/>
      <path d="M600 219 L588 214 L591 219 L588 224 Z" clip-path="url(#clipPath2)" stroke="none"/>
      <path fill="none" d="M732 219 L757 219" clip-path="url(#clipPath2)"/>
      <path d="M765 219 L753 214 L756 219 L753 224 Z" clip-path="url(#clipPath2)" stroke="none"/>
      <path fill="none" d="M507 237 L507 256.0293" clip-path="url(#clipPath2)"/>
      <path d="M507 264.0293 L512 252.0293 L507 255.0293 L502 252.0293 Z" clip-path="url(#clipPath2)" stroke="none"/>
      <path fill="none" d="M825 237 L825 259.5 L825 264.0322" clip-path="url(#clipPath2)"/>
      <path d="M825 264.0322 L830 252.0322 L825 255.0322 L820 252.0322 Z" clip-path="url(#clipPath2)" stroke="none"/>
      <path fill="none" d="M507 174.0264 L507 193" clip-path="url(#clipPath2)"/>
      <path d="M507 201 L512 189 L507 192 L502 189 Z" clip-path="url(#clipPath2)" stroke="none"/>
    </g>
  </g>
</svg>
