<?xml version="1.0" encoding="UTF-8" standalone="no"?>
<svg
   xmlns:dc="http://purl.org/dc/elements/1.1/"
   xmlns:cc="http://creativecommons.org/ns#"
   xmlns:rdf="http://www.w3.org/1999/02/22-rdf-syntax-ns#"
   xmlns:svg="http://www.w3.org/2000/svg"
   xmlns="http://www.w3.org/2000/svg"
   xmlns:sodipodi="http://sodipodi.sourceforge.net/DTD/sodipodi-0.dtd"
   xmlns:inkscape="http://www.inkscape.org/namespaces/inkscape"
   fill-opacity="1"
   color-rendering="auto"
   color-interpolation="auto"
   text-rendering="auto"
   stroke="black"
   stroke-linecap="square"
   width="755"
   stroke-miterlimit="10"
   shape-rendering="auto"
   stroke-opacity="1"
   fill="black"
   stroke-dasharray="none"
   font-weight="normal"
   stroke-width="1"
   height="260"
   font-family="'Dialog'"
   font-style="normal"
   stroke-linejoin="miter"
   font-size="12px"
   stroke-dashoffset="0"
   image-rendering="auto"
   id="svg2"
   version="1.1"
   inkscape:version="0.48.5 r10040"
   sodipodi:docname="variabel_chp.svg">
  <metadata
     id="metadata184">
    <rdf:RDF>
      <cc:Work
         rdf:about="">
        <dc:format>image/svg+xml</dc:format>
        <dc:type
           rdf:resource="http://purl.org/dc/dcmitype/StillImage" />
      </cc:Work>
    </rdf:RDF>
  </metadata>
  <sodipodi:namedview
     pagecolor="#ffffff"
     bordercolor="#666666"
     borderopacity="1"
     objecttolerance="10"
     gridtolerance="10"
     guidetolerance="10"
     inkscape:pageopacity="0"
     inkscape:pageshadow="2"
     inkscape:window-width="1920"
     inkscape:window-height="1058"
     id="namedview182"
     showgrid="false"
     inkscape:zoom="0.53774834"
     inkscape:cx="381.21921"
     inkscape:cy="130"
     inkscape:window-x="0"
     inkscape:window-y="0"
     inkscape:window-maximized="1"
     inkscape:current-layer="svg2" />
  <!--Generated by ySVG 2.5-->
  <defs
     id="genericDefs">
    <defs
       id="defs1">
      <clipPath
         id="clipPath1"
         clipPathUnits="userSpaceOnUse">
        <path
           id="path9"
           d="M0 0 L755 0 L755 260 L0 260 L0 0 Z" />
      </clipPath>
      <clipPath
         id="clipPath2"
         clipPathUnits="userSpaceOnUse">
        <path
           id="path12"
           d="M-202 -97 L553 -97 L553 163 L-202 163 L-202 -97 Z" />
      </clipPath>
    </defs>
  </defs>
  <g
     id="g3250">
    <g
       text-rendering="geometricPrecision"
       shape-rendering="geometricPrecision"
       transform="translate(202,97)"
       id="g18"
       style="fill:#800000;stroke:#800000">
      <ellipse
         rx="60"
         ry="18"
         clip-path="url(#clipPath2)"
         cx="67.373901"
         cy="77.539299"
         id="ellipse20"
         d="m 127.3739,77.539299 c 0,9.941126 -26.86291,18 -59.999999,18 -33.137085,0 -59.9999996,-8.058874 -59.9999996,-18 0,-9.941125 26.8629146,-18 59.9999996,-18 33.137089,0 59.999999,8.058875 59.999999,18 z"
         sodipodi:cx="67.373901"
         sodipodi:cy="77.539299"
         sodipodi:rx="60"
         sodipodi:ry="18"
         style="stroke:none" />
    </g>
    <g
       transform="translate(202,97)"
       text-rendering="geometricPrecision"
       shape-rendering="geometricPrecision"
       stroke-miterlimit="1.45"
       id="g22"
       style="fill:#ffffff;stroke:#ffffff;stroke-linecap:butt;stroke-miterlimit:1.45000005;font-family:sans-serif">
      <text
         x="30.8524"
         xml:space="preserve"
         y="81.693604"
         clip-path="url(#clipPath2)"
         id="text24"
         style="stroke:none">electricity_2</text>
      <ellipse
         rx="60"
         ry="18"
         clip-path="url(#clipPath2)"
         cx="67.373901"
         cy="77.539299"
         id="ellipse26"
         d="m 127.3739,77.539299 c 0,9.941126 -26.86291,18 -59.999999,18 -33.137085,0 -59.9999996,-8.058874 -59.9999996,-18 0,-9.941125 26.8629146,-18 59.9999996,-18 33.137089,0 59.999999,8.058875 59.999999,18 z"
         sodipodi:cx="67.373901"
         sodipodi:cy="77.539299"
         sodipodi:rx="60"
         sodipodi:ry="18"
         style="fill:none" />
    </g>
    <g
       text-rendering="geometricPrecision"
       shape-rendering="geometricPrecision"
       transform="translate(202,97)"
       id="g28"
       style="fill:#808080;stroke:#808080">
      <rect
         x="-77.331802"
         width="132"
         height="30"
         y="5.5393"
         clip-path="url(#clipPath2)"
         id="rect30"
         style="stroke:none" />
    </g>
    <g
       text-rendering="geometricPrecision"
       stroke-miterlimit="1.45"
       shape-rendering="geometricPrecision"
       transform="translate(202,97)"
       id="g32"
       style="stroke-linecap:butt;stroke-miterlimit:1.45000005;font-family:sans-serif">
      <text
         x="-63.011501"
         xml:space="preserve"
         y="24.6936"
         clip-path="url(#clipPath2)"
         id="text34"
         style="stroke:none">fixed chp plant_2</text>
      <rect
         x="-77.331802"
         width="132"
         height="30"
         y="5.5393"
         clip-path="url(#clipPath2)"
         id="rect36"
         style="fill:none" />
    </g>
    <g
       text-rendering="geometricPrecision"
       shape-rendering="geometricPrecision"
       transform="translate(202,97)"
       id="g38"
       style="fill:#008000;stroke:#008000">
      <path
         d="m -14.6261,147.5191 41,-30 82,0 41,30 z"
         clip-path="url(#clipPath2)"
         id="path40"
         inkscape:connector-curvature="0"
         style="fill-rule:evenodd;stroke:none" />
    </g>
    <g
       transform="translate(202,97)"
       text-rendering="geometricPrecision"
       shape-rendering="geometricPrecision"
       stroke-miterlimit="1.45"
       id="g42"
       style="fill:#ffffff;stroke:#ffffff;stroke-linecap:butt;stroke-miterlimit:1.45000005;font-family:sans-serif">
      <text
         x="21.6679"
         xml:space="preserve"
         y="136.6734"
         clip-path="url(#clipPath2)"
         id="text44"
         style="stroke:none">elec demand_2</text>
      <path
         d="m -14.6261,147.5191 41,-30 82,0 41,30 z"
         clip-path="url(#clipPath2)"
         id="path46"
         inkscape:connector-curvature="0"
         style="fill:none;stroke:#000000" />
    </g>
    <g
       text-rendering="geometricPrecision"
       shape-rendering="geometricPrecision"
       transform="translate(202,97)"
       id="g48"
       style="fill:#800000;stroke:#800000">
      <ellipse
         rx="60"
         ry="18"
         clip-path="url(#clipPath2)"
         cx="182.62019"
         cy="-14.1706"
         id="ellipse50"
         d="m 242.62019,-14.1706 c 0,9.9411256 -26.86291,18.0000001 -60,18.0000001 -33.13708,0 -60,-8.0588745 -60,-18.0000001 0,-9.941125 26.86292,-18 60,-18 33.13709,0 60,8.058875 60,18 z"
         sodipodi:cx="182.62019"
         sodipodi:cy="-14.1706"
         sodipodi:rx="60"
         sodipodi:ry="18"
         style="stroke:none" />
    </g>
    <g
       transform="translate(202,97)"
       text-rendering="geometricPrecision"
       shape-rendering="geometricPrecision"
       stroke-miterlimit="1.45"
       id="g52"
       style="fill:#ffffff;stroke:#ffffff;stroke-linecap:butt;stroke-miterlimit:1.45000005;font-family:sans-serif">
      <text
         x="148.6563"
         xml:space="preserve"
         y="-10.0163"
         clip-path="url(#clipPath2)"
         id="text54"
         style="stroke:none">natural gas</text>
      <ellipse
         rx="60"
         ry="18"
         clip-path="url(#clipPath2)"
         cx="182.62019"
         cy="-14.1706"
         id="ellipse56"
         d="m 242.62019,-14.1706 c 0,9.9411256 -26.86291,18.0000001 -60,18.0000001 -33.13708,0 -60,-8.0588745 -60,-18.0000001 0,-9.941125 26.86292,-18 60,-18 33.13709,0 60,8.058875 60,18 z"
         sodipodi:cx="182.62019"
         sodipodi:cy="-14.1706"
         sodipodi:rx="60"
         sodipodi:ry="18"
         style="fill:none" />
    </g>
    <g
       text-rendering="geometricPrecision"
       shape-rendering="geometricPrecision"
       transform="translate(202,97)"
       id="g58"
       style="fill:#ffcc00;stroke:#ffcc00">
      <path
         d="m 100.6202,-81.4215 164,0 -41,30 -82,0 z"
         clip-path="url(#clipPath2)"
         id="path60"
         inkscape:connector-curvature="0"
         style="fill-rule:evenodd;stroke:none" />
    </g>
    <g
       text-rendering="geometricPrecision"
       stroke-miterlimit="1.45"
       shape-rendering="geometricPrecision"
       transform="translate(202,97)"
       id="g62"
       style="stroke-linecap:butt;stroke-miterlimit:1.45000005;font-family:sans-serif">
      <text
         x="148.6563"
         xml:space="preserve"
         y="-62.2672"
         clip-path="url(#clipPath2)"
         id="text64"
         style="stroke:none">natural gas</text>
      <path
         d="m 100.6202,-81.4215 164,0 -41,30 -82,0 z"
         clip-path="url(#clipPath2)"
         id="path66"
         inkscape:connector-curvature="0"
         style="fill:none" />
    </g>
    <g
       text-rendering="geometricPrecision"
       shape-rendering="geometricPrecision"
       transform="translate(202,97)"
       id="g68"
       style="fill:#800000;stroke:#800000">
      <ellipse
         rx="60"
         ry="18"
         clip-path="url(#clipPath2)"
         cx="-104.6261"
         cy="77.539299"
         id="ellipse70"
         d="m -44.626099,77.539299 c 0,9.941126 -26.862915,18 -60.000001,18 -33.13708,0 -60,-8.058874 -60,-18 0,-9.941125 26.86292,-18 60,-18 33.137086,0 60.000001,8.058875 60.000001,18 z"
         sodipodi:cx="-104.6261"
         sodipodi:cy="77.539299"
         sodipodi:rx="60"
         sodipodi:ry="18"
         style="stroke:none" />
    </g>
    <g
       transform="translate(202,97)"
       text-rendering="geometricPrecision"
       shape-rendering="geometricPrecision"
       stroke-miterlimit="1.45"
       id="g72"
       style="fill:#ffffff;stroke:#ffffff;stroke-linecap:butt;stroke-miterlimit:1.45000005;font-family:sans-serif">
      <text
         x="-124.9669"
         xml:space="preserve"
         y="81.693604"
         clip-path="url(#clipPath2)"
         id="text74"
         style="stroke:none">heat_2</text>
      <ellipse
         rx="60"
         ry="18"
         clip-path="url(#clipPath2)"
         cx="-104.6261"
         cy="77.539299"
         id="ellipse76"
         d="m -44.626099,77.539299 c 0,9.941126 -26.862915,18 -60.000001,18 -33.13708,0 -60,-8.058874 -60,-18 0,-9.941125 26.86292,-18 60,-18 33.137086,0 60.000001,8.058875 60.000001,18 z"
         sodipodi:cx="-104.6261"
         sodipodi:cy="77.539299"
         sodipodi:rx="60"
         sodipodi:ry="18"
         style="fill:none" />
    </g>
    <g
       text-rendering="geometricPrecision"
       shape-rendering="geometricPrecision"
       transform="translate(202,97)"
       id="g78"
       style="fill:#008000;stroke:#008000">
      <path
         d="m -186.6261,147.5191 41,-30 82,0 41,30 z"
         clip-path="url(#clipPath2)"
         id="path80"
         inkscape:connector-curvature="0"
         style="fill-rule:evenodd;stroke:none" />
    </g>
    <g
       transform="translate(202,97)"
       text-rendering="geometricPrecision"
       shape-rendering="geometricPrecision"
       stroke-miterlimit="1.45"
       id="g82"
       style="fill:#ffffff;stroke:#ffffff;stroke-linecap:butt;stroke-miterlimit:1.45000005;font-family:sans-serif">
      <text
         x="-151.507"
         xml:space="preserve"
         y="136.6734"
         clip-path="url(#clipPath2)"
         id="text84"
         style="stroke:none">heat demand_2</text>
      <path
         d="m -186.6261,147.5191 41,-30 82,0 41,30 z"
         clip-path="url(#clipPath2)"
         id="path86"
         inkscape:connector-curvature="0"
         style="fill:none;stroke:#000000" />
    </g>
    <g
       text-rendering="geometricPrecision"
       shape-rendering="geometricPrecision"
       transform="translate(202,97)"
       id="g88"
       style="fill:#800000;stroke:#800000">
      <ellipse
         rx="60"
         ry="18"
         clip-path="url(#clipPath2)"
         cx="455.27789"
         cy="77.539299"
         id="ellipse90"
         d="m 515.27789,77.539299 c 0,9.941126 -26.86291,18 -60,18 -33.13708,0 -60,-8.058874 -60,-18 0,-9.941125 26.86292,-18 60,-18 33.13709,0 60,8.058875 60,18 z"
         sodipodi:cx="455.27789"
         sodipodi:cy="77.539299"
         sodipodi:rx="60"
         sodipodi:ry="18"
         style="stroke:none" />
    </g>
    <g
       transform="translate(202,97)"
       text-rendering="geometricPrecision"
       shape-rendering="geometricPrecision"
       stroke-miterlimit="1.45"
       id="g92"
       style="fill:#ffffff;stroke:#ffffff;stroke-linecap:butt;stroke-miterlimit:1.45000005;font-family:sans-serif">
      <text
         x="425.57391"
         xml:space="preserve"
         y="81.693604"
         clip-path="url(#clipPath2)"
         id="text94"
         style="stroke:none">electricity</text>
      <ellipse
         rx="60"
         ry="18"
         clip-path="url(#clipPath2)"
         cx="455.27789"
         cy="77.539299"
         id="ellipse96"
         d="m 515.27789,77.539299 c 0,9.941126 -26.86291,18 -60,18 -33.13708,0 -60,-8.058874 -60,-18 0,-9.941125 26.86292,-18 60,-18 33.13709,0 60,8.058875 60,18 z"
         sodipodi:cx="455.27789"
         sodipodi:cy="77.539299"
         sodipodi:rx="60"
         sodipodi:ry="18"
         style="fill:none" />
    </g>
    <g
       text-rendering="geometricPrecision"
       shape-rendering="geometricPrecision"
       transform="translate(202,97)"
       id="g98"
       style="fill:#808080;stroke:#808080">
      <rect
         x="310.5722"
         width="132"
         height="30"
         y="5.5393"
         clip-path="url(#clipPath2)"
         id="rect100"
         style="stroke:none" />
    </g>
    <g
       text-rendering="geometricPrecision"
       stroke-miterlimit="1.45"
       shape-rendering="geometricPrecision"
       transform="translate(202,97)"
       id="g102"
       style="stroke-linecap:butt;stroke-miterlimit:1.45000005;font-family:sans-serif">
      <text
         x="322.3349"
         xml:space="preserve"
         y="24.6936"
         clip-path="url(#clipPath2)"
         id="text104"
         style="stroke:none">variable chp plant</text>
      <rect
         x="310.5722"
         width="132"
         height="30"
         y="5.5393"
         clip-path="url(#clipPath2)"
         id="rect106"
         style="fill:none" />
    </g>
    <g
       text-rendering="geometricPrecision"
       shape-rendering="geometricPrecision"
       transform="translate(202,97)"
       id="g108"
       style="fill:#008000;stroke:#008000">
      <path
         d="m 373.278,147.5191 41,-30 82,0 41,30 z"
         clip-path="url(#clipPath2)"
         id="path110"
         inkscape:connector-curvature="0"
         style="fill-rule:evenodd;stroke:none" />
    </g>
    <g
       transform="translate(202,97)"
       text-rendering="geometricPrecision"
       shape-rendering="geometricPrecision"
       stroke-miterlimit="1.45"
       id="g112"
       style="fill:#ffffff;stroke:#ffffff;stroke-linecap:butt;stroke-miterlimit:1.45000005;font-family:sans-serif">
      <text
         x="416.38931"
         xml:space="preserve"
         y="136.6734"
         clip-path="url(#clipPath2)"
         id="text114"
         style="stroke:none">elec demand</text>
      <path
         d="m 373.278,147.5191 41,-30 82,0 41,30 z"
         clip-path="url(#clipPath2)"
         id="path116"
         inkscape:connector-curvature="0"
         style="fill:none;stroke:#000000" />
    </g>
    <g
       text-rendering="geometricPrecision"
       shape-rendering="geometricPrecision"
       transform="translate(202,97)"
       id="g118"
       style="fill:#800000;stroke:#800000">
      <ellipse
         rx="60"
         ry="18"
         clip-path="url(#clipPath2)"
         cx="283.27789"
         cy="77.539299"
         id="ellipse120"
         d="m 343.27789,77.539299 c 0,9.941126 -26.86291,18 -60,18 -33.13708,0 -60,-8.058874 -60,-18 0,-9.941125 26.86292,-18 60,-18 33.13709,0 60,8.058875 60,18 z"
         sodipodi:cx="283.27789"
         sodipodi:cy="77.539299"
         sodipodi:rx="60"
         sodipodi:ry="18"
         style="stroke:none" />
    </g>
    <g
       transform="translate(202,97)"
       text-rendering="geometricPrecision"
       shape-rendering="geometricPrecision"
       stroke-miterlimit="1.45"
       id="g122"
       style="fill:#ffffff;stroke:#ffffff;stroke-linecap:butt;stroke-miterlimit:1.45000005;font-family:sans-serif">
      <text
         x="269.75449"
         xml:space="preserve"
         y="81.693604"
         clip-path="url(#clipPath2)"
         id="text124"
         style="stroke:none">heat</text>
      <ellipse
         rx="60"
         ry="18"
         clip-path="url(#clipPath2)"
         cx="283.27789"
         cy="77.539299"
         id="ellipse126"
         d="m 343.27789,77.539299 c 0,9.941126 -26.86291,18 -60,18 -33.13708,0 -60,-8.058874 -60,-18 0,-9.941125 26.86292,-18 60,-18 33.13709,0 60,8.058875 60,18 z"
         sodipodi:cx="283.27789"
         sodipodi:cy="77.539299"
         sodipodi:rx="60"
         sodipodi:ry="18"
         style="fill:none" />
    </g>
    <g
       text-rendering="geometricPrecision"
       shape-rendering="geometricPrecision"
       transform="translate(202,97)"
       id="g128"
       style="fill:#008000;stroke:#008000">
      <path
         d="m 201.2779,147.5191 41,-30 82.0001,0 41,30 z"
         clip-path="url(#clipPath2)"
         id="path130"
         inkscape:connector-curvature="0"
         style="fill-rule:evenodd;stroke:none" />
    </g>
    <g
       transform="translate(202,97)"
       text-rendering="geometricPrecision"
       shape-rendering="geometricPrecision"
       stroke-miterlimit="1.45"
       id="g132"
       style="fill:#ffffff;stroke:#ffffff;stroke-linecap:butt;stroke-miterlimit:1.45000005;font-family:sans-serif">
      <text
         x="243.21449"
         xml:space="preserve"
         y="136.6734"
         clip-path="url(#clipPath2)"
         id="text134"
         style="stroke:none">heat demand</text>
      <path
         d="m 201.2779,147.5191 41,-30 82.0001,0 41,30 z"
         clip-path="url(#clipPath2)"
         id="path136"
         inkscape:connector-curvature="0"
         style="fill:none;stroke:#000000" />
      <path
         d="M 9.3802,35.5393 37.9323,56.2172"
         clip-path="url(#clipPath2)"
         id="path138"
         inkscape:connector-curvature="0"
         style="fill:none;stroke:#000000" />
      <path
         d="m 44.4116,60.9096 -6.7862,-11.0882 -0.503,5.8092 -5.3625,2.2899 z"
         clip-path="url(#clipPath2)"
         id="path140"
         inkscape:connector-curvature="0"
         style="fill:#000000;stroke:none" />
      <path
         d="m 67.3739,95.5393 0,13.9928"
         clip-path="url(#clipPath2)"
         id="path142"
         inkscape:connector-curvature="0"
         style="fill:none;stroke:#000000" />
      <path
         d="m 67.3739,117.5321 5,-12 -5,3 -5,-3 z"
         clip-path="url(#clipPath2)"
         id="path144"
         inkscape:connector-curvature="0"
         style="fill:#000000;stroke:none" />
      <path
         d="M 131.0921,-4.949 62.5431,7.3185"
         clip-path="url(#clipPath2)"
         id="path146"
         inkscape:connector-curvature="0"
         style="fill:none;stroke:#000000" />
      <path
         d="M 54.6682,8.7278 67.3613,11.5357 63.5274,7.1424 65.5997,1.6921 z"
         clip-path="url(#clipPath2)"
         id="path148"
         inkscape:connector-curvature="0"
         style="fill:#000000;stroke:none" />
      <path
         d="m 182.6202,-51.4453 0,11.2747"
         clip-path="url(#clipPath2)"
         id="path150"
         inkscape:connector-curvature="0"
         style="fill:none;stroke:#000000" />
      <path
         d="m 182.6202,-32.1706 5,-12 -5,3 -5,-3 z"
         clip-path="url(#clipPath2)"
         id="path152"
         inkscape:connector-curvature="0"
         style="fill:#000000;stroke:none" />
      <path
         d="M -35.8829,35.5393 -71.3541,57.2111"
         clip-path="url(#clipPath2)"
         id="path154"
         inkscape:connector-curvature="0"
         style="fill:none;stroke:#000000" />
      <path
         d="m -78.1808,61.382 12.8469,-1.9897 -5.1669,-2.7026 -0.0468,-5.8308 z"
         clip-path="url(#clipPath2)"
         id="path156"
         inkscape:connector-curvature="0"
         style="fill:#000000;stroke:none" />
      <path
         d="m -104.6261,95.5393 0,13.9928"
         clip-path="url(#clipPath2)"
         id="path158"
         inkscape:connector-curvature="0"
         style="fill:none;stroke:#000000" />
      <path
         d="m -104.6261,117.5321 5,-12 -5,3 -5,-3 z"
         clip-path="url(#clipPath2)"
         id="path160"
         inkscape:connector-curvature="0"
         style="fill:#000000;stroke:none" />
      <path
         d="m 234.1483,-4.949 68.549,12.2675"
         clip-path="url(#clipPath2)"
         id="path162"
         inkscape:connector-curvature="0"
         style="fill:none;stroke:#000000" />
      <path
         d="m 310.5722,8.7278 -10.9315,-7.0357 2.0723,5.4503 -3.8339,4.3933 z"
         clip-path="url(#clipPath2)"
         id="path164"
         inkscape:connector-curvature="0"
         style="fill:#000000;stroke:none" />
      <path
         d="m 397.2842,35.5393 28.5522,20.6779"
         clip-path="url(#clipPath2)"
         id="path166"
         inkscape:connector-curvature="0"
         style="fill:none;stroke:#000000" />
      <path
         d="m 432.3156,60.9096 -6.7861,-11.0882 -0.5031,5.8092 -5.3625,2.2899 z"
         clip-path="url(#clipPath2)"
         id="path168"
         inkscape:connector-curvature="0"
         style="fill:#000000;stroke:none" />
      <path
         d="m 455.278,95.5393 0,13.9928"
         clip-path="url(#clipPath2)"
         id="path170"
         inkscape:connector-curvature="0"
         style="fill:none;stroke:#000000" />
      <path
         d="m 455.278,117.5321 5,-12 -5,3 -5,-3 z"
         clip-path="url(#clipPath2)"
         id="path172"
         inkscape:connector-curvature="0"
         style="fill:#000000;stroke:none" />
      <path
         d="M 352.0211,35.5393 316.55,57.2111"
         clip-path="url(#clipPath2)"
         id="path174"
         inkscape:connector-curvature="0"
         style="fill:none;stroke:#000000" />
      <path
         d="m 309.7233,61.382 12.8468,-1.9897 -5.1668,-2.7026 -0.0468,-5.8308 z"
         clip-path="url(#clipPath2)"
         id="path176"
         inkscape:connector-curvature="0"
         style="fill:#000000;stroke:none" />
      <path
         d="m 283.278,95.5393 0,13.9928"
         clip-path="url(#clipPath2)"
         id="path178"
         inkscape:connector-curvature="0"
         style="fill:none;stroke:#000000" />
      <path
         d="m 283.278,117.5321 5,-12 -5,3 -5,-3 z"
         clip-path="url(#clipPath2)"
         id="path180"
         inkscape:connector-curvature="0"
         style="fill:#000000;stroke:none" />
    </g>
  </g>
</svg>
