<?xml version="1.0" encoding="utf-8" standalone="no"?>
<!DOCTYPE svg PUBLIC "-//W3C//DTD SVG 1.1//EN"
  "http://www.w3.org/Graphics/SVG/1.1/DTD/svg11.dtd">
<svg xmlns:xlink="http://www.w3.org/1999/xlink" width="720pt" height="432pt" viewBox="0 0 720 432" xmlns="http://www.w3.org/2000/svg" version="1.1">
 <metadata>
  <rdf:RDF xmlns:dc="http://purl.org/dc/elements/1.1/" xmlns:cc="http://creativecommons.org/ns#" xmlns:rdf="http://www.w3.org/1999/02/22-rdf-syntax-ns#">
   <cc:Work>
    <dc:type rdf:resource="http://purl.org/dc/dcmitype/StillImage"/>
    <dc:date>2025-05-21T10:11:03.347596</dc:date>
    <dc:format>image/svg+xml</dc:format>
    <dc:creator>
     <cc:Agent>
      <dc:title>Matplotlib v3.10.1, https://matplotlib.org/</dc:title>
     </cc:Agent>
    </dc:creator>
   </cc:Work>
  </rdf:RDF>
 </metadata>
 <defs>
  <style type="text/css">*{stroke-linejoin: round; stroke-linecap: butt}</style>
 </defs>
 <g id="figure_1">
  <g id="patch_1">
   <path d="M 0 432 
L 720 432 
L 720 0 
L 0 0 
z
"/>
  </g>
  <g id="axes_1">
   <g id="patch_2">
    <path d="M 44.57 404.12 
L 709.2 404.12 
L 709.2 10.8 
L 44.57 10.8 
z
"/>
   </g>
   <g id="matplotlib.axis_1">
    <g id="xtick_1">
     <g id="line2d_1">
      <defs>
       <path id="m0e51b33d3f" d="M 0 0 
L 0 3.5 
" style="stroke: #ffffff; stroke-width: 0.8"/>
      </defs>
      <g>
       <use xlink:href="#m0e51b33d3f" x="74.780455" y="404.12" style="fill: #ffffff; stroke: #ffffff; stroke-width: 0.8"/>
      </g>
     </g>
     <g id="text_1">
      <!-- 2019-01 -->
      <g style="fill: #ffffff" transform="translate(53.889048 418.718437) scale(0.1 -0.1)">
       <defs>
        <path id="DejaVuSans-32" d="M 1228 531 
L 3431 531 
L 3431 0 
L 469 0 
L 469 531 
Q 828 903 1448 1529 
Q 2069 2156 2228 2338 
Q 2531 2678 2651 2914 
Q 2772 3150 2772 3378 
Q 2772 3750 2511 3984 
Q 2250 4219 1831 4219 
Q 1534 4219 1204 4116 
Q 875 4013 500 3803 
L 500 4441 
Q 881 4594 1212 4672 
Q 1544 4750 1819 4750 
Q 2544 4750 2975 4387 
Q 3406 4025 3406 3419 
Q 3406 3131 3298 2873 
Q 3191 2616 2906 2266 
Q 2828 2175 2409 1742 
Q 1991 1309 1228 531 
z
" transform="scale(0.015625)"/>
        <path id="DejaVuSans-30" d="M 2034 4250 
Q 1547 4250 1301 3770 
Q 1056 3291 1056 2328 
Q 1056 1369 1301 889 
Q 1547 409 2034 409 
Q 2525 409 2770 889 
Q 3016 1369 3016 2328 
Q 3016 3291 2770 3770 
Q 2525 4250 2034 4250 
z
M 2034 4750 
Q 2819 4750 3233 4129 
Q 3647 3509 3647 2328 
Q 3647 1150 3233 529 
Q 2819 -91 2034 -91 
Q 1250 -91 836 529 
Q 422 1150 422 2328 
Q 422 3509 836 4129 
Q 1250 4750 2034 4750 
z
" transform="scale(0.015625)"/>
        <path id="DejaVuSans-31" d="M 794 531 
L 1825 531 
L 1825 4091 
L 703 3866 
L 703 4441 
L 1819 4666 
L 2450 4666 
L 2450 531 
L 3481 531 
L 3481 0 
L 794 0 
L 794 531 
z
" transform="scale(0.015625)"/>
        <path id="DejaVuSans-39" d="M 703 97 
L 703 672 
Q 941 559 1184 500 
Q 1428 441 1663 441 
Q 2288 441 2617 861 
Q 2947 1281 2994 2138 
Q 2813 1869 2534 1725 
Q 2256 1581 1919 1581 
Q 1219 1581 811 2004 
Q 403 2428 403 3163 
Q 403 3881 828 4315 
Q 1253 4750 1959 4750 
Q 2769 4750 3195 4129 
Q 3622 3509 3622 2328 
Q 3622 1225 3098 567 
Q 2575 -91 1691 -91 
Q 1453 -91 1209 -44 
Q 966 3 703 97 
z
M 1959 2075 
Q 2384 2075 2632 2365 
Q 2881 2656 2881 3163 
Q 2881 3666 2632 3958 
Q 2384 4250 1959 4250 
Q 1534 4250 1286 3958 
Q 1038 3666 1038 3163 
Q 1038 2656 1286 2365 
Q 1534 2075 1959 2075 
z
" transform="scale(0.015625)"/>
        <path id="DejaVuSans-2d" d="M 313 2009 
L 1997 2009 
L 1997 1497 
L 313 1497 
L 313 2009 
z
" transform="scale(0.015625)"/>
       </defs>
       <use xlink:href="#DejaVuSans-32"/>
       <use xlink:href="#DejaVuSans-30" transform="translate(63.623047 0)"/>
       <use xlink:href="#DejaVuSans-31" transform="translate(127.246094 0)"/>
       <use xlink:href="#DejaVuSans-39" transform="translate(190.869141 0)"/>
       <use xlink:href="#DejaVuSans-2d" transform="translate(254.492188 0)"/>
       <use xlink:href="#DejaVuSans-30" transform="translate(290.576172 0)"/>
       <use xlink:href="#DejaVuSans-31" transform="translate(354.199219 0)"/>
      </g>
     </g>
    </g>
    <g id="xtick_2">
     <g id="line2d_2">
      <g>
       <use xlink:href="#m0e51b33d3f" x="172.45828" y="404.12" style="fill: #ffffff; stroke: #ffffff; stroke-width: 0.8"/>
      </g>
     </g>
     <g id="text_2">
      <!-- 2019-03 -->
      <g style="fill: #ffffff" transform="translate(151.566874 418.718437) scale(0.1 -0.1)">
       <defs>
        <path id="DejaVuSans-33" d="M 2597 2516 
Q 3050 2419 3304 2112 
Q 3559 1806 3559 1356 
Q 3559 666 3084 287 
Q 2609 -91 1734 -91 
Q 1441 -91 1130 -33 
Q 819 25 488 141 
L 488 750 
Q 750 597 1062 519 
Q 1375 441 1716 441 
Q 2309 441 2620 675 
Q 2931 909 2931 1356 
Q 2931 1769 2642 2001 
Q 2353 2234 1838 2234 
L 1294 2234 
L 1294 2753 
L 1863 2753 
Q 2328 2753 2575 2939 
Q 2822 3125 2822 3475 
Q 2822 3834 2567 4026 
Q 2313 4219 1838 4219 
Q 1578 4219 1281 4162 
Q 984 4106 628 3988 
L 628 4550 
Q 988 4650 1302 4700 
Q 1616 4750 1894 4750 
Q 2613 4750 3031 4423 
Q 3450 4097 3450 3541 
Q 3450 3153 3228 2886 
Q 3006 2619 2597 2516 
z
" transform="scale(0.015625)"/>
       </defs>
       <use xlink:href="#DejaVuSans-32"/>
       <use xlink:href="#DejaVuSans-30" transform="translate(63.623047 0)"/>
       <use xlink:href="#DejaVuSans-31" transform="translate(127.246094 0)"/>
       <use xlink:href="#DejaVuSans-39" transform="translate(190.869141 0)"/>
       <use xlink:href="#DejaVuSans-2d" transform="translate(254.492188 0)"/>
       <use xlink:href="#DejaVuSans-30" transform="translate(290.576172 0)"/>
       <use xlink:href="#DejaVuSans-33" transform="translate(354.199219 0)"/>
      </g>
     </g>
    </g>
    <g id="xtick_3">
     <g id="line2d_3">
      <g>
       <use xlink:href="#m0e51b33d3f" x="273.447218" y="404.12" style="fill: #ffffff; stroke: #ffffff; stroke-width: 0.8"/>
      </g>
     </g>
     <g id="text_3">
      <!-- 2019-05 -->
      <g style="fill: #ffffff" transform="translate(252.555812 418.718437) scale(0.1 -0.1)">
       <defs>
        <path id="DejaVuSans-35" d="M 691 4666 
L 3169 4666 
L 3169 4134 
L 1269 4134 
L 1269 2991 
Q 1406 3038 1543 3061 
Q 1681 3084 1819 3084 
Q 2600 3084 3056 2656 
Q 3513 2228 3513 1497 
Q 3513 744 3044 326 
Q 2575 -91 1722 -91 
Q 1428 -91 1123 -41 
Q 819 9 494 109 
L 494 744 
Q 775 591 1075 516 
Q 1375 441 1709 441 
Q 2250 441 2565 725 
Q 2881 1009 2881 1497 
Q 2881 1984 2565 2268 
Q 2250 2553 1709 2553 
Q 1456 2553 1204 2497 
Q 953 2441 691 2322 
L 691 4666 
z
" transform="scale(0.015625)"/>
       </defs>
       <use xlink:href="#DejaVuSans-32"/>
       <use xlink:href="#DejaVuSans-30" transform="translate(63.623047 0)"/>
       <use xlink:href="#DejaVuSans-31" transform="translate(127.246094 0)"/>
       <use xlink:href="#DejaVuSans-39" transform="translate(190.869141 0)"/>
       <use xlink:href="#DejaVuSans-2d" transform="translate(254.492188 0)"/>
       <use xlink:href="#DejaVuSans-30" transform="translate(290.576172 0)"/>
       <use xlink:href="#DejaVuSans-35" transform="translate(354.199219 0)"/>
      </g>
     </g>
    </g>
    <g id="xtick_4">
     <g id="line2d_4">
      <g>
       <use xlink:href="#m0e51b33d3f" x="374.436156" y="404.12" style="fill: #ffffff; stroke: #ffffff; stroke-width: 0.8"/>
      </g>
     </g>
     <g id="text_4">
      <!-- 2019-07 -->
      <g style="fill: #ffffff" transform="translate(353.54475 418.718437) scale(0.1 -0.1)">
       <defs>
        <path id="DejaVuSans-37" d="M 525 4666 
L 3525 4666 
L 3525 4397 
L 1831 0 
L 1172 0 
L 2766 4134 
L 525 4134 
L 525 4666 
z
" transform="scale(0.015625)"/>
       </defs>
       <use xlink:href="#DejaVuSans-32"/>
       <use xlink:href="#DejaVuSans-30" transform="translate(63.623047 0)"/>
       <use xlink:href="#DejaVuSans-31" transform="translate(127.246094 0)"/>
       <use xlink:href="#DejaVuSans-39" transform="translate(190.869141 0)"/>
       <use xlink:href="#DejaVuSans-2d" transform="translate(254.492188 0)"/>
       <use xlink:href="#DejaVuSans-30" transform="translate(290.576172 0)"/>
       <use xlink:href="#DejaVuSans-37" transform="translate(354.199219 0)"/>
      </g>
     </g>
    </g>
    <g id="xtick_5">
     <g id="line2d_5">
      <g>
       <use xlink:href="#m0e51b33d3f" x="477.080651" y="404.12" style="fill: #ffffff; stroke: #ffffff; stroke-width: 0.8"/>
      </g>
     </g>
     <g id="text_5">
      <!-- 2019-09 -->
      <g style="fill: #ffffff" transform="translate(456.189244 418.718437) scale(0.1 -0.1)">
       <use xlink:href="#DejaVuSans-32"/>
       <use xlink:href="#DejaVuSans-30" transform="translate(63.623047 0)"/>
       <use xlink:href="#DejaVuSans-31" transform="translate(127.246094 0)"/>
       <use xlink:href="#DejaVuSans-39" transform="translate(190.869141 0)"/>
       <use xlink:href="#DejaVuSans-2d" transform="translate(254.492188 0)"/>
       <use xlink:href="#DejaVuSans-30" transform="translate(290.576172 0)"/>
       <use xlink:href="#DejaVuSans-39" transform="translate(354.199219 0)"/>
      </g>
     </g>
    </g>
    <g id="xtick_6">
     <g id="line2d_6">
      <g>
       <use xlink:href="#m0e51b33d3f" x="578.069589" y="404.12" style="fill: #ffffff; stroke: #ffffff; stroke-width: 0.8"/>
      </g>
     </g>
     <g id="text_6">
      <!-- 2019-11 -->
      <g style="fill: #ffffff" transform="translate(557.178183 418.718437) scale(0.1 -0.1)">
       <use xlink:href="#DejaVuSans-32"/>
       <use xlink:href="#DejaVuSans-30" transform="translate(63.623047 0)"/>
       <use xlink:href="#DejaVuSans-31" transform="translate(127.246094 0)"/>
       <use xlink:href="#DejaVuSans-39" transform="translate(190.869141 0)"/>
       <use xlink:href="#DejaVuSans-2d" transform="translate(254.492188 0)"/>
       <use xlink:href="#DejaVuSans-31" transform="translate(290.576172 0)"/>
       <use xlink:href="#DejaVuSans-31" transform="translate(354.199219 0)"/>
      </g>
     </g>
    </g>
    <g id="xtick_7">
     <g id="line2d_7">
      <g>
       <use xlink:href="#m0e51b33d3f" x="679.058527" y="404.12" style="fill: #ffffff; stroke: #ffffff; stroke-width: 0.8"/>
      </g>
     </g>
     <g id="text_7">
      <!-- 2020-01 -->
      <g style="fill: #ffffff" transform="translate(658.167121 418.718437) scale(0.1 -0.1)">
       <use xlink:href="#DejaVuSans-32"/>
       <use xlink:href="#DejaVuSans-30" transform="translate(63.623047 0)"/>
       <use xlink:href="#DejaVuSans-32" transform="translate(127.246094 0)"/>
       <use xlink:href="#DejaVuSans-30" transform="translate(190.869141 0)"/>
       <use xlink:href="#DejaVuSans-2d" transform="translate(254.492188 0)"/>
       <use xlink:href="#DejaVuSans-30" transform="translate(290.576172 0)"/>
       <use xlink:href="#DejaVuSans-31" transform="translate(354.199219 0)"/>
      </g>
     </g>
    </g>
   </g>
   <g id="matplotlib.axis_2">
    <g id="ytick_1">
     <g id="line2d_8">
      <path d="M 44.57 386.241818 
L 709.2 386.241818 
" clip-path="url(#pe4784e835b)" style="fill: none; stroke: #ffffff; stroke-width: 0.8; stroke-linecap: square"/>
     </g>
     <g id="line2d_9">
      <defs>
       <path id="m0563157674" d="M 0 0 
L -3.5 0 
" style="stroke: #ffffff; stroke-width: 0.8"/>
      </defs>
      <g>
       <use xlink:href="#m0563157674" x="44.57" y="386.241818" style="fill: #ffffff; stroke: #ffffff; stroke-width: 0.8"/>
      </g>
     </g>
     <g id="text_8">
      <!-- 0 -->
      <g style="fill: #ffffff" transform="translate(31.2075 390.041037) scale(0.1 -0.1)">
       <use xlink:href="#DejaVuSans-30"/>
      </g>
     </g>
    </g>
    <g id="ytick_2">
     <g id="line2d_10">
      <path d="M 44.57 303.344278 
L 709.2 303.344278 
" clip-path="url(#pe4784e835b)" style="fill: none; stroke: #ffffff; stroke-width: 0.8; stroke-linecap: square"/>
     </g>
     <g id="line2d_11">
      <g>
       <use xlink:href="#m0563157674" x="44.57" y="303.344278" style="fill: #ffffff; stroke: #ffffff; stroke-width: 0.8"/>
      </g>
     </g>
     <g id="text_9">
      <!-- 20 -->
      <g style="fill: #ffffff" transform="translate(24.845 307.143496) scale(0.1 -0.1)">
       <use xlink:href="#DejaVuSans-32"/>
       <use xlink:href="#DejaVuSans-30" transform="translate(63.623047 0)"/>
      </g>
     </g>
    </g>
    <g id="ytick_3">
     <g id="line2d_12">
      <path d="M 44.57 220.446737 
L 709.2 220.446737 
" clip-path="url(#pe4784e835b)" style="fill: none; stroke: #ffffff; stroke-width: 0.8; stroke-linecap: square"/>
     </g>
     <g id="line2d_13">
      <g>
       <use xlink:href="#m0563157674" x="44.57" y="220.446737" style="fill: #ffffff; stroke: #ffffff; stroke-width: 0.8"/>
      </g>
     </g>
     <g id="text_10">
      <!-- 40 -->
      <g style="fill: #ffffff" transform="translate(24.845 224.245956) scale(0.1 -0.1)">
       <defs>
        <path id="DejaVuSans-34" d="M 2419 4116 
L 825 1625 
L 2419 1625 
L 2419 4116 
z
M 2253 4666 
L 3047 4666 
L 3047 1625 
L 3713 1625 
L 3713 1100 
L 3047 1100 
L 3047 0 
L 2419 0 
L 2419 1100 
L 313 1100 
L 313 1709 
L 2253 4666 
z
" transform="scale(0.015625)"/>
       </defs>
       <use xlink:href="#DejaVuSans-34"/>
       <use xlink:href="#DejaVuSans-30" transform="translate(63.623047 0)"/>
      </g>
     </g>
    </g>
    <g id="ytick_4">
     <g id="line2d_14">
      <path d="M 44.57 137.549196 
L 709.2 137.549196 
" clip-path="url(#pe4784e835b)" style="fill: none; stroke: #ffffff; stroke-width: 0.8; stroke-linecap: square"/>
     </g>
     <g id="line2d_15">
      <g>
       <use xlink:href="#m0563157674" x="44.57" y="137.549196" style="fill: #ffffff; stroke: #ffffff; stroke-width: 0.8"/>
      </g>
     </g>
     <g id="text_11">
      <!-- 60 -->
      <g style="fill: #ffffff" transform="translate(24.845 141.348415) scale(0.1 -0.1)">
       <defs>
        <path id="DejaVuSans-36" d="M 2113 2584 
Q 1688 2584 1439 2293 
Q 1191 2003 1191 1497 
Q 1191 994 1439 701 
Q 1688 409 2113 409 
Q 2538 409 2786 701 
Q 3034 994 3034 1497 
Q 3034 2003 2786 2293 
Q 2538 2584 2113 2584 
z
M 3366 4563 
L 3366 3988 
Q 3128 4100 2886 4159 
Q 2644 4219 2406 4219 
Q 1781 4219 1451 3797 
Q 1122 3375 1075 2522 
Q 1259 2794 1537 2939 
Q 1816 3084 2150 3084 
Q 2853 3084 3261 2657 
Q 3669 2231 3669 1497 
Q 3669 778 3244 343 
Q 2819 -91 2113 -91 
Q 1303 -91 875 529 
Q 447 1150 447 2328 
Q 447 3434 972 4092 
Q 1497 4750 2381 4750 
Q 2619 4750 2861 4703 
Q 3103 4656 3366 4563 
z
" transform="scale(0.015625)"/>
       </defs>
       <use xlink:href="#DejaVuSans-36"/>
       <use xlink:href="#DejaVuSans-30" transform="translate(63.623047 0)"/>
      </g>
     </g>
    </g>
    <g id="ytick_5">
     <g id="line2d_16">
      <path d="M 44.57 54.651656 
L 709.2 54.651656 
" clip-path="url(#pe4784e835b)" style="fill: none; stroke: #ffffff; stroke-width: 0.8; stroke-linecap: square"/>
     </g>
     <g id="line2d_17">
      <g>
       <use xlink:href="#m0563157674" x="44.57" y="54.651656" style="fill: #ffffff; stroke: #ffffff; stroke-width: 0.8"/>
      </g>
     </g>
     <g id="text_12">
      <!-- 80 -->
      <g style="fill: #ffffff" transform="translate(24.845 58.450875) scale(0.1 -0.1)">
       <defs>
        <path id="DejaVuSans-38" d="M 2034 2216 
Q 1584 2216 1326 1975 
Q 1069 1734 1069 1313 
Q 1069 891 1326 650 
Q 1584 409 2034 409 
Q 2484 409 2743 651 
Q 3003 894 3003 1313 
Q 3003 1734 2745 1975 
Q 2488 2216 2034 2216 
z
M 1403 2484 
Q 997 2584 770 2862 
Q 544 3141 544 3541 
Q 544 4100 942 4425 
Q 1341 4750 2034 4750 
Q 2731 4750 3128 4425 
Q 3525 4100 3525 3541 
Q 3525 3141 3298 2862 
Q 3072 2584 2669 2484 
Q 3125 2378 3379 2068 
Q 3634 1759 3634 1313 
Q 3634 634 3220 271 
Q 2806 -91 2034 -91 
Q 1263 -91 848 271 
Q 434 634 434 1313 
Q 434 1759 690 2068 
Q 947 2378 1403 2484 
z
M 1172 3481 
Q 1172 3119 1398 2916 
Q 1625 2713 2034 2713 
Q 2441 2713 2670 2916 
Q 2900 3119 2900 3481 
Q 2900 3844 2670 4047 
Q 2441 4250 2034 4250 
Q 1625 4250 1398 4047 
Q 1172 3844 1172 3481 
z
" transform="scale(0.015625)"/>
       </defs>
       <use xlink:href="#DejaVuSans-38"/>
       <use xlink:href="#DejaVuSans-30" transform="translate(63.623047 0)"/>
      </g>
     </g>
    </g>
    <g id="text_13">
     <!-- Hourly heat storage content in MWh -->
     <g style="fill: #ffffff" transform="translate(18.765313 298.188906) rotate(-90) scale(0.1 -0.1)">
      <defs>
       <path id="DejaVuSans-48" d="M 628 4666 
L 1259 4666 
L 1259 2753 
L 3553 2753 
L 3553 4666 
L 4184 4666 
L 4184 0 
L 3553 0 
L 3553 2222 
L 1259 2222 
L 1259 0 
L 628 0 
L 628 4666 
z
" transform="scale(0.015625)"/>
       <path id="DejaVuSans-6f" d="M 1959 3097 
Q 1497 3097 1228 2736 
Q 959 2375 959 1747 
Q 959 1119 1226 758 
Q 1494 397 1959 397 
Q 2419 397 2687 759 
Q 2956 1122 2956 1747 
Q 2956 2369 2687 2733 
Q 2419 3097 1959 3097 
z
M 1959 3584 
Q 2709 3584 3137 3096 
Q 3566 2609 3566 1747 
Q 3566 888 3137 398 
Q 2709 -91 1959 -91 
Q 1206 -91 779 398 
Q 353 888 353 1747 
Q 353 2609 779 3096 
Q 1206 3584 1959 3584 
z
" transform="scale(0.015625)"/>
       <path id="DejaVuSans-75" d="M 544 1381 
L 544 3500 
L 1119 3500 
L 1119 1403 
Q 1119 906 1312 657 
Q 1506 409 1894 409 
Q 2359 409 2629 706 
Q 2900 1003 2900 1516 
L 2900 3500 
L 3475 3500 
L 3475 0 
L 2900 0 
L 2900 538 
Q 2691 219 2414 64 
Q 2138 -91 1772 -91 
Q 1169 -91 856 284 
Q 544 659 544 1381 
z
M 1991 3584 
L 1991 3584 
z
" transform="scale(0.015625)"/>
       <path id="DejaVuSans-72" d="M 2631 2963 
Q 2534 3019 2420 3045 
Q 2306 3072 2169 3072 
Q 1681 3072 1420 2755 
Q 1159 2438 1159 1844 
L 1159 0 
L 581 0 
L 581 3500 
L 1159 3500 
L 1159 2956 
Q 1341 3275 1631 3429 
Q 1922 3584 2338 3584 
Q 2397 3584 2469 3576 
Q 2541 3569 2628 3553 
L 2631 2963 
z
" transform="scale(0.015625)"/>
       <path id="DejaVuSans-6c" d="M 603 4863 
L 1178 4863 
L 1178 0 
L 603 0 
L 603 4863 
z
" transform="scale(0.015625)"/>
       <path id="DejaVuSans-79" d="M 2059 -325 
Q 1816 -950 1584 -1140 
Q 1353 -1331 966 -1331 
L 506 -1331 
L 506 -850 
L 844 -850 
Q 1081 -850 1212 -737 
Q 1344 -625 1503 -206 
L 1606 56 
L 191 3500 
L 800 3500 
L 1894 763 
L 2988 3500 
L 3597 3500 
L 2059 -325 
z
" transform="scale(0.015625)"/>
       <path id="DejaVuSans-20" transform="scale(0.015625)"/>
       <path id="DejaVuSans-68" d="M 3513 2113 
L 3513 0 
L 2938 0 
L 2938 2094 
Q 2938 2591 2744 2837 
Q 2550 3084 2163 3084 
Q 1697 3084 1428 2787 
Q 1159 2491 1159 1978 
L 1159 0 
L 581 0 
L 581 4863 
L 1159 4863 
L 1159 2956 
Q 1366 3272 1645 3428 
Q 1925 3584 2291 3584 
Q 2894 3584 3203 3211 
Q 3513 2838 3513 2113 
z
" transform="scale(0.015625)"/>
       <path id="DejaVuSans-65" d="M 3597 1894 
L 3597 1613 
L 953 1613 
Q 991 1019 1311 708 
Q 1631 397 2203 397 
Q 2534 397 2845 478 
Q 3156 559 3463 722 
L 3463 178 
Q 3153 47 2828 -22 
Q 2503 -91 2169 -91 
Q 1331 -91 842 396 
Q 353 884 353 1716 
Q 353 2575 817 3079 
Q 1281 3584 2069 3584 
Q 2775 3584 3186 3129 
Q 3597 2675 3597 1894 
z
M 3022 2063 
Q 3016 2534 2758 2815 
Q 2500 3097 2075 3097 
Q 1594 3097 1305 2825 
Q 1016 2553 972 2059 
L 3022 2063 
z
" transform="scale(0.015625)"/>
       <path id="DejaVuSans-61" d="M 2194 1759 
Q 1497 1759 1228 1600 
Q 959 1441 959 1056 
Q 959 750 1161 570 
Q 1363 391 1709 391 
Q 2188 391 2477 730 
Q 2766 1069 2766 1631 
L 2766 1759 
L 2194 1759 
z
M 3341 1997 
L 3341 0 
L 2766 0 
L 2766 531 
Q 2569 213 2275 61 
Q 1981 -91 1556 -91 
Q 1019 -91 701 211 
Q 384 513 384 1019 
Q 384 1609 779 1909 
Q 1175 2209 1959 2209 
L 2766 2209 
L 2766 2266 
Q 2766 2663 2505 2880 
Q 2244 3097 1772 3097 
Q 1472 3097 1187 3025 
Q 903 2953 641 2809 
L 641 3341 
Q 956 3463 1253 3523 
Q 1550 3584 1831 3584 
Q 2591 3584 2966 3190 
Q 3341 2797 3341 1997 
z
" transform="scale(0.015625)"/>
       <path id="DejaVuSans-74" d="M 1172 4494 
L 1172 3500 
L 2356 3500 
L 2356 3053 
L 1172 3053 
L 1172 1153 
Q 1172 725 1289 603 
Q 1406 481 1766 481 
L 2356 481 
L 2356 0 
L 1766 0 
Q 1100 0 847 248 
Q 594 497 594 1153 
L 594 3053 
L 172 3053 
L 172 3500 
L 594 3500 
L 594 4494 
L 1172 4494 
z
" transform="scale(0.015625)"/>
       <path id="DejaVuSans-73" d="M 2834 3397 
L 2834 2853 
Q 2591 2978 2328 3040 
Q 2066 3103 1784 3103 
Q 1356 3103 1142 2972 
Q 928 2841 928 2578 
Q 928 2378 1081 2264 
Q 1234 2150 1697 2047 
L 1894 2003 
Q 2506 1872 2764 1633 
Q 3022 1394 3022 966 
Q 3022 478 2636 193 
Q 2250 -91 1575 -91 
Q 1294 -91 989 -36 
Q 684 19 347 128 
L 347 722 
Q 666 556 975 473 
Q 1284 391 1588 391 
Q 1994 391 2212 530 
Q 2431 669 2431 922 
Q 2431 1156 2273 1281 
Q 2116 1406 1581 1522 
L 1381 1569 
Q 847 1681 609 1914 
Q 372 2147 372 2553 
Q 372 3047 722 3315 
Q 1072 3584 1716 3584 
Q 2034 3584 2315 3537 
Q 2597 3491 2834 3397 
z
" transform="scale(0.015625)"/>
       <path id="DejaVuSans-67" d="M 2906 1791 
Q 2906 2416 2648 2759 
Q 2391 3103 1925 3103 
Q 1463 3103 1205 2759 
Q 947 2416 947 1791 
Q 947 1169 1205 825 
Q 1463 481 1925 481 
Q 2391 481 2648 825 
Q 2906 1169 2906 1791 
z
M 3481 434 
Q 3481 -459 3084 -895 
Q 2688 -1331 1869 -1331 
Q 1566 -1331 1297 -1286 
Q 1028 -1241 775 -1147 
L 775 -588 
Q 1028 -725 1275 -790 
Q 1522 -856 1778 -856 
Q 2344 -856 2625 -561 
Q 2906 -266 2906 331 
L 2906 616 
Q 2728 306 2450 153 
Q 2172 0 1784 0 
Q 1141 0 747 490 
Q 353 981 353 1791 
Q 353 2603 747 3093 
Q 1141 3584 1784 3584 
Q 2172 3584 2450 3431 
Q 2728 3278 2906 2969 
L 2906 3500 
L 3481 3500 
L 3481 434 
z
" transform="scale(0.015625)"/>
       <path id="DejaVuSans-63" d="M 3122 3366 
L 3122 2828 
Q 2878 2963 2633 3030 
Q 2388 3097 2138 3097 
Q 1578 3097 1268 2742 
Q 959 2388 959 1747 
Q 959 1106 1268 751 
Q 1578 397 2138 397 
Q 2388 397 2633 464 
Q 2878 531 3122 666 
L 3122 134 
Q 2881 22 2623 -34 
Q 2366 -91 2075 -91 
Q 1284 -91 818 406 
Q 353 903 353 1747 
Q 353 2603 823 3093 
Q 1294 3584 2113 3584 
Q 2378 3584 2631 3529 
Q 2884 3475 3122 3366 
z
" transform="scale(0.015625)"/>
       <path id="DejaVuSans-6e" d="M 3513 2113 
L 3513 0 
L 2938 0 
L 2938 2094 
Q 2938 2591 2744 2837 
Q 2550 3084 2163 3084 
Q 1697 3084 1428 2787 
Q 1159 2491 1159 1978 
L 1159 0 
L 581 0 
L 581 3500 
L 1159 3500 
L 1159 2956 
Q 1366 3272 1645 3428 
Q 1925 3584 2291 3584 
Q 2894 3584 3203 3211 
Q 3513 2838 3513 2113 
z
" transform="scale(0.015625)"/>
       <path id="DejaVuSans-69" d="M 603 3500 
L 1178 3500 
L 1178 0 
L 603 0 
L 603 3500 
z
M 603 4863 
L 1178 4863 
L 1178 4134 
L 603 4134 
L 603 4863 
z
" transform="scale(0.015625)"/>
       <path id="DejaVuSans-4d" d="M 628 4666 
L 1569 4666 
L 2759 1491 
L 3956 4666 
L 4897 4666 
L 4897 0 
L 4281 0 
L 4281 4097 
L 3078 897 
L 2444 897 
L 1241 4097 
L 1241 0 
L 628 0 
L 628 4666 
z
" transform="scale(0.015625)"/>
       <path id="DejaVuSans-57" d="M 213 4666 
L 850 4666 
L 1831 722 
L 2809 4666 
L 3519 4666 
L 4500 722 
L 5478 4666 
L 6119 4666 
L 4947 0 
L 4153 0 
L 3169 4050 
L 2175 0 
L 1381 0 
L 213 4666 
z
" transform="scale(0.015625)"/>
      </defs>
      <use xlink:href="#DejaVuSans-48"/>
      <use xlink:href="#DejaVuSans-6f" transform="translate(75.195312 0)"/>
      <use xlink:href="#DejaVuSans-75" transform="translate(136.376953 0)"/>
      <use xlink:href="#DejaVuSans-72" transform="translate(199.755859 0)"/>
      <use xlink:href="#DejaVuSans-6c" transform="translate(240.869141 0)"/>
      <use xlink:href="#DejaVuSans-79" transform="translate(268.652344 0)"/>
      <use xlink:href="#DejaVuSans-20" transform="translate(327.832031 0)"/>
      <use xlink:href="#DejaVuSans-68" transform="translate(359.619141 0)"/>
      <use xlink:href="#DejaVuSans-65" transform="translate(422.998047 0)"/>
      <use xlink:href="#DejaVuSans-61" transform="translate(484.521484 0)"/>
      <use xlink:href="#DejaVuSans-74" transform="translate(545.800781 0)"/>
      <use xlink:href="#DejaVuSans-20" transform="translate(585.009766 0)"/>
      <use xlink:href="#DejaVuSans-73" transform="translate(616.796875 0)"/>
      <use xlink:href="#DejaVuSans-74" transform="translate(668.896484 0)"/>
      <use xlink:href="#DejaVuSans-6f" transform="translate(708.105469 0)"/>
      <use xlink:href="#DejaVuSans-72" transform="translate(769.287109 0)"/>
      <use xlink:href="#DejaVuSans-61" transform="translate(810.400391 0)"/>
      <use xlink:href="#DejaVuSans-67" transform="translate(871.679688 0)"/>
      <use xlink:href="#DejaVuSans-65" transform="translate(935.15625 0)"/>
      <use xlink:href="#DejaVuSans-20" transform="translate(996.679688 0)"/>
      <use xlink:href="#DejaVuSans-63" transform="translate(1028.466797 0)"/>
      <use xlink:href="#DejaVuSans-6f" transform="translate(1083.447266 0)"/>
      <use xlink:href="#DejaVuSans-6e" transform="translate(1144.628906 0)"/>
      <use xlink:href="#DejaVuSans-74" transform="translate(1208.007812 0)"/>
      <use xlink:href="#DejaVuSans-65" transform="translate(1247.216797 0)"/>
      <use xlink:href="#DejaVuSans-6e" transform="translate(1308.740234 0)"/>
      <use xlink:href="#DejaVuSans-74" transform="translate(1372.119141 0)"/>
      <use xlink:href="#DejaVuSans-20" transform="translate(1411.328125 0)"/>
      <use xlink:href="#DejaVuSans-69" transform="translate(1443.115234 0)"/>
      <use xlink:href="#DejaVuSans-6e" transform="translate(1470.898438 0)"/>
      <use xlink:href="#DejaVuSans-20" transform="translate(1534.277344 0)"/>
      <use xlink:href="#DejaVuSans-4d" transform="translate(1566.064453 0)"/>
      <use xlink:href="#DejaVuSans-57" transform="translate(1652.34375 0)"/>
      <use xlink:href="#DejaVuSans-68" transform="translate(1751.220703 0)"/>
     </g>
    </g>
   </g>
   <g id="line2d_18">
    <path d="M 74.780455 28.678182 
L 76.504992 386.241818 
L 78.436475 386.241818 
L 78.505456 384.483061 
L 78.643419 386.241818 
L 79.12629 386.241818 
L 79.264253 381.548104 
L 79.471198 386.241818 
L 88.576758 386.241818 
L 88.645739 382.627186 
L 88.714721 382.630801 
L 89.059628 382.64882 
L 89.266573 375.27606 
L 89.473517 386.241818 
L 90.025369 386.241818 
L 90.232314 373.094495 
L 90.439258 386.241818 
L 90.784166 386.241818 
L 90.853148 381.899628 
L 90.922129 383.68407 
L 91.060092 386.241818 
L 102.373061 386.241818 
L 102.511024 379.910165 
L 102.648987 386.241818 
L 103.26982 386.241818 
L 103.407783 378.423154 
L 103.476765 379.771565 
L 103.683709 386.241818 
L 107.201767 386.241818 
L 107.270748 385.561867 
L 107.477693 368.613102 
L 107.684637 361.112269 
L 107.8226 344.364861 
L 108.236489 280.020205 
L 108.305471 276.721136 
L 108.374452 278.109073 
L 108.443434 278.64178 
L 108.581397 298.829599 
L 108.650378 298.533331 
L 108.926305 256.592083 
L 109.064268 234.568478 
L 109.133249 238.154054 
L 109.202231 245.04366 
L 109.271212 244.946251 
L 109.340194 242.631433 
L 110.09899 122.744189 
L 110.374916 117.015542 
L 110.650842 95.35555 
L 110.719824 97.990088 
L 110.926768 104.016793 
L 110.99575 101.540324 
L 111.616584 28.678182 
L 112.582325 122.047883 
L 112.651306 124.121038 
L 112.720288 123.182945 
L 112.858251 116.788419 
L 113.203158 93.590981 
L 113.27214 93.968326 
L 113.479085 133.165595 
L 114.1689 252.844783 
L 114.375844 269.759773 
L 114.444826 268.705051 
L 114.858715 245.045579 
L 114.927696 245.889057 
L 115.065659 267.047701 
L 115.410567 317.472004 
L 115.617511 331.662322 
L 116.031401 386.241818 
L 116.583253 386.241818 
L 116.652234 385.393618 
L 116.790197 386.241818 
L 120.515199 386.241818 
L 120.653162 383.322853 
L 120.722144 383.493364 
L 120.860107 386.241818 
L 121.411959 386.241818 
L 121.48094 385.65198 
L 121.549922 383.428568 
L 121.618903 383.880825 
L 121.825848 386.241818 
L 123.136497 386.241818 
L 123.27446 378.058024 
L 123.343441 378.74362 
L 123.550386 386.241818 
L 123.895293 386.241818 
L 123.964275 384.884889 
L 124.033256 385.493195 
L 124.171219 386.241818 
L 125.343905 386.241818 
L 125.481868 381.892539 
L 125.55085 383.167018 
L 125.757794 386.241818 
L 126.378628 386.241818 
L 126.585572 374.392213 
L 126.654554 375.674192 
L 126.861498 386.241818 
L 127.068443 386.241818 
L 127.206406 382.369117 
L 127.413351 386.241818 
L 131.414278 386.241818 
L 131.48326 383.863655 
L 131.552241 384.920629 
L 131.690205 386.241818 
L 132.173075 386.241818 
L 132.311038 383.800392 
L 132.449001 386.241818 
L 264.41064 386.241818 
L 264.686566 374.760069 
L 264.755547 376.731778 
L 264.89351 386.241818 
L 272.412495 386.241818 
L 272.550458 385.214293 
L 272.826384 386.241818 
L 302.764362 386.241818 
L 302.833344 385.914073 
L 302.902325 386.005289 
L 303.040288 386.241818 
L 304.281955 386.241818 
L 304.4889 383.637311 
L 304.764826 386.241818 
L 305.799549 386.241818 
L 306.006493 383.039363 
L 306.627327 366.351505 
L 306.903253 370.51615 
L 306.972234 371.095279 
L 307.041216 371.064533 
L 307.24816 386.241818 
L 307.386124 386.241818 
L 307.66205 379.732468 
L 307.868994 372.937943 
L 307.937976 373.042134 
L 308.14492 374.1984 
L 308.213902 374.18113 
L 308.282883 374.321383 
L 308.351865 374.196223 
L 308.489828 373.37882 
L 308.627791 380.655297 
L 308.765754 386.241818 
L 311.042144 386.241818 
L 311.111125 384.33073 
L 311.249088 386.241818 
L 312.490756 386.241818 
L 312.559737 385.607353 
L 312.628719 383.734203 
L 312.6977 384.001683 
L 312.835663 386.241818 
L 323.044927 386.162766 
L 323.18289 385.462032 
L 323.320854 380.015393 
L 323.527798 386.241818 
L 325.804188 386.241818 
L 326.011133 385.843659 
L 326.149096 386.241818 
L 326.218077 386.241818 
L 326.35604 383.685534 
L 326.494003 386.241818 
L 326.976874 386.241818 
L 327.2528 385.31301 
L 327.666689 375.649795 
L 328.494467 341.162666 
L 328.701412 353.229673 
L 328.908356 345.818566 
L 329.184282 330.819291 
L 329.52919 358.503725 
L 329.598171 365.656357 
L 329.667153 364.507788 
L 330.081042 357.733423 
L 330.219005 367.133598 
L 330.42595 386.241818 
L 330.632894 377.610199 
L 330.839839 365.63915 
L 330.90882 368.506398 
L 331.184746 386.241818 
L 331.460672 372.573622 
L 331.80558 359.890275 
L 332.150487 378.843577 
L 332.219469 379.584319 
L 332.357432 376.522595 
L 332.495395 367.915368 
L 332.564377 370.760351 
L 332.909284 386.241818 
L 333.461136 353.332274 
L 333.668081 364.50151 
L 334.219933 326.961522 
L 334.633822 369.085535 
L 334.702804 369.102691 
L 335.047711 351.260546 
L 335.323637 379.217769 
L 335.392619 378.892903 
L 335.599563 371.857383 
L 335.944471 350.016923 
L 336.013452 356.224721 
L 336.082434 354.530169 
L 336.220397 348.48103 
L 336.703267 319.930384 
L 336.84123 317.079144 
L 337.324101 305.346 
L 337.462064 309.251726 
L 337.531046 309.017549 
L 337.669009 308.649434 
L 337.73799 309.762943 
L 337.806972 309.379044 
L 338.013916 307.922962 
L 338.289842 298.567489 
L 338.358824 297.921224 
L 338.565768 299.861553 
L 338.63475 298.617128 
L 338.910676 303.096157 
L 338.979657 302.946892 
L 339.186602 292.999676 
L 339.462528 316.512631 
L 340.01438 297.178085 
L 340.083362 296.176745 
L 340.428269 301.927907 
L 340.773177 311.308282 
L 340.980121 310.409867 
L 341.187066 311.480928 
L 341.325029 309.276343 
L 341.669937 299.507697 
L 341.738918 302.27172 
L 342.359752 379.949138 
L 342.566696 386.241818 
L 342.842622 386.241818 
L 343.325493 363.490129 
L 343.739382 386.241818 
L 343.808364 386.241818 
L 344.153271 373.630848 
L 344.291234 386.241818 
L 344.429197 386.241818 
L 344.636142 380.857247 
L 344.981049 373.000828 
L 345.050031 373.419967 
L 345.187994 385.488305 
L 345.325957 386.241818 
L 345.532901 375.680112 
L 345.808827 355.244526 
L 346.222717 378.5342 
L 346.636606 360.913602 
L 346.705587 361.763461 
L 346.981513 382.68974 
L 347.395402 360.760736 
L 347.464384 364.04394 
L 347.878273 386.241818 
L 347.947254 386.241818 
L 348.499107 355.41431 
L 348.706051 349.421453 
L 349.11994 329.773895 
L 349.533829 366.70214 
L 349.602811 364.719405 
L 350.775497 313.73032 
L 351.189386 348.157304 
L 351.258367 346.002449 
L 351.603275 333.64754 
L 351.879201 360.361495 
L 352.224108 340.328265 
L 352.29309 340.374178 
L 352.706979 361.037732 
L 352.844942 366.129863 
L 353.258831 346.179018 
L 353.67272 369.317174 
L 353.810683 371.388097 
L 353.879665 369.159279 
L 354.500498 386.241818 
L 354.914387 351.605382 
L 355.328277 375.493122 
L 355.46624 377.576543 
L 355.535221 376.363533 
L 355.673184 364.592322 
L 355.742166 366.748433 
L 356.156055 386.241818 
L 356.638925 346.727057 
L 357.052814 370.169816 
L 357.32874 348.257156 
L 357.535685 358.236186 
L 357.811611 376.028013 
L 358.2255 354.058325 
L 358.708371 382.763149 
L 359.053278 362.201359 
L 359.60513 386.241818 
L 359.950038 370.157087 
L 360.156983 381.686585 
L 360.639853 357.9172 
L 361.122724 386.241818 
L 362.364391 318.18712 
L 362.433373 312.331847 
L 362.502354 314.548506 
L 362.709299 328.427138 
L 363.192169 303.361819 
L 363.468095 316.620762 
L 363.67504 322.9346 
L 363.813003 311.862253 
L 363.881984 314.120834 
L 364.364855 331.390053 
L 364.433837 328.273773 
L 364.709763 306.640719 
L 364.847726 295.129036 
L 365.261615 311.624478 
L 366.296337 340.084451 
L 366.503282 321.489206 
L 366.572263 323.389989 
L 366.986153 332.159048 
L 367.055134 333.336243 
L 367.262079 313.801152 
L 367.33106 316.219443 
L 367.675968 335.054133 
L 367.744949 331.697931 
L 368.158838 314.633799 
L 368.572727 342.990656 
L 368.917635 321.698867 
L 369.331524 346.847221 
L 369.400506 352.034403 
L 369.469487 349.208346 
L 369.745413 342.773038 
L 369.814395 341.212139 
L 370.228284 369.855318 
L 370.366247 372.583542 
L 370.50421 360.823891 
L 370.573191 360.849309 
L 370.918099 375.659119 
L 371.194025 386.241818 
L 371.263007 386.241818 
L 371.469951 380.302624 
L 371.538933 380.308563 
L 371.676896 385.955811 
L 371.745877 385.956097 
L 372.159766 349.851827 
L 372.297729 336.43909 
L 372.366711 337.798526 
L 372.573655 342.974823 
L 372.711618 349.727101 
L 373.470415 298.135983 
L 374.022267 245.502813 
L 374.367175 263.97847 
L 374.436156 260.539983 
L 374.781064 245.472593 
L 375.194953 268.75353 
L 375.677823 233.338793 
L 375.95375 251.319887 
L 376.022731 248.005975 
L 376.505602 228.661933 
L 376.781528 244.130863 
L 376.919491 240.059657 
L 377.195417 228.706519 
L 377.264398 228.864054 
L 377.678287 263.430898 
L 377.747269 260.47791 
L 378.092177 246.374029 
L 378.437084 277.670524 
L 378.919955 253.861248 
L 378.988936 258.519683 
L 379.264862 279.481387 
L 379.333844 278.675976 
L 379.747733 267.563245 
L 380.023659 290.052105 
L 380.230603 292.476049 
L 380.299585 292.10529 
L 380.575511 289.83614 
L 380.920419 322.487264 
L 381.403289 308.464009 
L 381.472271 309.702051 
L 381.817178 352.785775 
L 382.300049 347.170303 
L 382.713938 386.241818 
L 382.78292 386.241818 
L 383.058846 374.916415 
L 383.472735 380.497788 
L 383.610698 375.648165 
L 383.955605 362.592561 
L 384.16255 365.855029 
L 384.231531 365.025417 
L 384.507457 355.21779 
L 384.64542 356.832924 
L 384.714402 356.47656 
L 384.852365 357.364217 
L 385.128291 359.638608 
L 385.266254 354.752014 
L 385.473199 348.210261 
L 385.54218 348.239703 
L 385.680143 349.649298 
L 385.818106 351.449391 
L 385.956069 361.026355 
L 386.025051 361.24608 
L 386.300977 355.845098 
L 386.369958 356.152902 
L 386.43894 356.709091 
L 386.783847 386.241818 
L 386.852829 386.241818 
L 387.197737 375.014045 
L 387.404681 386.241818 
L 387.680607 386.241818 
L 387.81857 383.444509 
L 388.025515 376.981802 
L 388.094496 378.44976 
L 388.232459 386.241818 
L 388.508385 386.241818 
L 388.784311 378.616574 
L 388.853293 380.059919 
L 388.991256 386.241818 
L 389.336163 386.241818 
L 389.61209 378.832642 
L 389.681071 378.922649 
L 389.819034 386.241818 
L 391.060701 386.241818 
L 391.267646 384.183262 
L 391.47459 386.241818 
L 394.578759 386.241818 
L 394.64774 383.01266 
L 394.716722 383.015889 
L 394.854685 386.241818 
L 395.130611 386.241818 
L 395.337555 375.995048 
L 395.475518 367.841148 
L 395.751444 386.241818 
L 395.958389 386.241818 
L 396.510241 358.12103 
L 396.786167 379.202469 
L 397.062093 374.659317 
L 397.131075 372.884159 
L 397.338019 386.241818 
L 397.751908 386.241818 
L 397.889871 379.123915 
L 398.027834 386.241818 
L 399.338483 386.241818 
L 399.545428 377.442749 
L 399.614409 377.492697 
L 399.752372 386.241818 
L 406.098672 386.241818 
L 406.305616 372.852642 
L 406.581542 386.241818 
L 406.995431 355.312004 
L 407.064413 355.342934 
L 407.271357 362.61642 
L 407.547283 370.348966 
L 407.82321 352.220829 
L 408.237099 320.174758 
L 408.719969 292.098654 
L 408.788951 297.390323 
L 409.20284 324.928961 
L 409.478766 309.845749 
L 409.547747 309.922144 
L 410.237563 367.616863 
L 410.513489 386.241818 
L 414.100527 386.241818 
L 414.307472 384.548133 
L 414.583398 386.241818 
L 415.204232 386.241818 
L 415.342195 385.007108 
L 415.480158 386.241818 
L 415.894047 386.241818 
L 415.963028 385.914223 
L 416.100991 384.970642 
L 416.238954 386.241818 
L 417.549603 386.241818 
L 417.687566 385.520663 
L 417.894511 375.68753 
L 418.3084 386.241818 
L 418.377381 386.241818 
L 418.584326 373.28036 
L 418.653307 373.33462 
L 418.860252 379.502055 
L 419.067196 386.241818 
L 420.239882 274.668887 
L 420.308864 276.840313 
L 420.58479 284.389046 
L 420.860716 283.781436 
L 421.06766 263.589402 
L 421.826457 287.936609 
L 421.96442 287.246396 
L 422.447291 302.742367 
L 422.516272 302.502416 
L 422.723217 301.837975 
L 424.171829 346.776757 
L 424.309792 346.855648 
L 425.275533 377.880096 
L 425.344514 377.689354 
L 425.551459 386.241818 
L 429.138498 386.241818 
L 429.276461 379.502779 
L 429.414424 382.05851 
L 429.552387 375.342409 
L 429.828313 386.241818 
L 429.897294 386.241818 
L 430.242202 360.534127 
L 431.000999 384.581628 
L 431.06998 381.068133 
L 431.138962 386.241818 
L 431.207943 385.687157 
L 431.552851 365.247926 
L 431.897758 335.658825 
L 431.96674 337.939204 
L 432.104703 345.158219 
L 432.380629 359.284915 
L 432.518592 359.338802 
L 432.587573 353.48797 
L 433.070444 375.898323 
L 433.139426 375.299219 
L 433.277389 366.776574 
L 433.967204 386.241818 
L 434.105167 386.241818 
L 434.312111 368.497915 
L 434.657019 386.241818 
L 435.691742 386.241818 
L 435.967668 363.217353 
L 436.381557 386.241818 
L 437.278316 386.241818 
L 437.692206 355.36411 
L 437.968132 373.228878 
L 438.451002 331.6474 
L 438.519984 336.34411 
L 438.933873 356.466854 
L 439.002854 356.496628 
L 439.27878 344.994663 
L 439.69267 368.269437 
L 439.899614 372.23405 
L 440.037577 365.036278 
L 440.106559 367.113193 
L 440.244522 372.86077 
L 440.520448 386.241818 
L 440.589429 384.296075 
L 440.727392 386.241818 
L 440.796374 385.529884 
L 441.141281 359.217449 
L 441.210263 359.244474 
L 441.624152 333.431799 
L 442.107023 296.953271 
L 442.176004 300.341729 
L 443.486653 210.604051 
L 443.900542 231.150405 
L 444.314431 199.948832 
L 444.866283 231.319118 
L 445.073228 239.063626 
L 445.62508 271.264069 
L 445.901006 282.498821 
L 446.452858 324.808474 
L 446.728784 304.893761 
L 447.280636 338.287813 
L 447.625544 325.646207 
L 448.039433 361.944874 
L 448.315359 343.560743 
L 448.38434 345.435309 
L 448.522303 352.469618 
L 448.867211 374.631553 
L 449.419063 349.752685 
L 449.488045 356.988676 
L 449.557026 356.089177 
L 449.901934 345.968693 
L 450.108878 335.463365 
L 450.453786 364.448989 
L 450.522767 362.414624 
L 450.936656 342.141454 
L 451.350546 381.298719 
L 451.626472 364.795147 
L 451.695453 358.826947 
L 452.109342 386.241818 
L 452.178324 382.784691 
L 453.006102 345.713292 
L 453.213046 341.617629 
L 453.419991 331.145858 
L 453.488973 331.200956 
L 453.764899 349.348873 
L 454.73064 303.141431 
L 455.144529 294.102047 
L 455.420455 315.361271 
L 455.489436 312.55116 
L 455.903326 299.962207 
L 456.179252 332.771686 
L 456.248233 331.971012 
L 456.524159 319.458809 
L 456.731104 309.49266 
L 457.076011 339.590046 
L 457.144993 337.079009 
L 457.558882 319.751869 
L 458.179716 380.675993 
L 458.317679 386.241818 
L 458.800549 386.241818 
L 459.214438 371.774113 
L 459.421383 386.241818 
L 459.697309 386.241818 
L 459.904253 370.04163 
L 459.973235 370.05783 
L 460.249161 386.241818 
L 460.456106 386.241818 
L 460.732032 374.290397 
L 460.869995 369.583556 
L 461.076939 386.241818 
L 461.283884 386.241818 
L 461.628791 357.187946 
L 461.697773 361.104745 
L 462.111662 386.032292 
L 462.318606 370.96985 
L 462.525551 359.846359 
L 462.93944 386.241818 
L 463.284348 362.175196 
L 463.353329 366.074573 
L 463.698237 383.371377 
L 463.8362 386.241818 
L 463.905181 385.192541 
L 464.181107 366.766983 
L 464.457033 386.241818 
L 464.939904 344.96362 
L 465.008886 347.143505 
L 465.422775 358.315534 
L 465.905645 324.394786 
L 466.59546 269.065291 
L 466.664442 263.346181 
L 466.733423 265.777624 
L 467.216294 280.313716 
L 467.423239 263.185414 
L 467.49222 265.728926 
L 469.285739 325.896703 
L 469.423703 329.198031 
L 469.630647 328.151023 
L 469.699629 328.623452 
L 471.010277 365.7337 
L 471.286203 364.11023 
L 471.355185 364.712495 
L 471.700093 375.800116 
L 472.045 386.241818 
L 472.113982 385.885209 
L 472.182963 385.649158 
L 472.458889 356.895311 
L 473.079723 381.103374 
L 473.286667 386.241818 
L 473.700556 386.241818 
L 474.045464 361.415989 
L 474.114446 361.440814 
L 474.528335 382.271507 
L 474.804261 363.091008 
L 474.873242 363.11416 
L 475.425094 386.241818 
L 475.494076 386.241818 
L 475.838983 362.641062 
L 476.045928 376.929085 
L 476.114909 374.604532 
L 476.528799 346.442855 
L 476.59778 349.707219 
L 477.011669 370.680341 
L 477.287595 345.962395 
L 477.632503 319.692771 
L 478.253336 280.988411 
L 478.667226 315.403453 
L 479.012133 296.871559 
L 479.081115 295.327547 
L 479.495004 335.208318 
L 479.839911 352.609891 
L 480.046856 361.452962 
L 480.322782 377.908894 
L 480.805653 350.669229 
L 481.012597 371.765424 
L 481.081579 369.027403 
L 481.426486 347.384049 
L 481.495468 341.375232 
L 481.564449 343.65404 
L 481.978338 376.848203 
L 482.04732 373.205661 
L 482.392227 345.80908 
L 482.737135 375.393607 
L 482.806116 371.744229 
L 483.220006 349.536708 
L 483.495932 373.195046 
L 483.564913 371.031733 
L 483.909821 356.475514 
L 484.047784 351.21182 
L 484.116765 351.26313 
L 484.32371 374.82059 
L 484.392691 374.54986 
L 484.530654 372.993904 
L 484.944543 362.707265 
L 485.220469 386.241818 
L 485.289451 386.241818 
L 485.358433 386.046709 
L 485.634359 379.883788 
L 485.70334 380.897051 
L 485.979266 386.241818 
L 486.876026 386.241818 
L 487.08297 385.690365 
L 487.289915 385.811292 
L 487.427878 386.241818 
L 487.910749 386.241818 
L 488.117693 382.406344 
L 488.255656 386.241818 
L 488.531582 386.241818 
L 488.807508 384.312415 
L 488.87649 384.500564 
L 489.014453 386.241818 
L 489.35936 386.241818 
L 489.704268 378.598832 
L 489.773249 376.840457 
L 489.980194 386.241818 
L 490.394083 386.241818 
L 490.601028 384.994697 
L 490.738991 386.241818 
L 491.842695 386.241818 
L 492.187603 379.304011 
L 492.463529 386.241818 
L 492.739455 386.241818 
L 492.946399 383.662619 
L 493.153344 386.241818 
L 493.498251 386.241818 
L 493.567233 385.810452 
L 493.843159 381.768843 
L 494.050103 386.241818 
L 494.395011 386.241818 
L 494.532974 384.277588 
L 494.670937 386.241818 
L 495.222789 386.241818 
L 495.498715 381.726381 
L 495.774641 386.241818 
L 496.119549 386.241818 
L 496.18853 384.964897 
L 496.257512 385.019757 
L 496.395475 386.241818 
L 496.809364 386.241818 
L 497.08529 376.223929 
L 497.292235 371.719296 
L 497.499179 386.241818 
L 499.292699 386.241818 
L 499.430662 382.202041 
L 499.499643 382.781919 
L 500.051495 386.241818 
L 500.25844 386.241818 
L 500.465384 383.851465 
L 500.534366 384.504301 
L 500.672329 386.241818 
L 500.810292 386.146187 
L 500.879273 385.971898 
L 500.948255 386.241818 
L 501.017236 385.967957 
L 501.155199 386.241818 
L 503.569553 386.241818 
L 503.776497 385.114678 
L 503.91446 386.241818 
L 509.501963 386.241818 
L 509.570944 386.113028 
L 509.708907 386.241818 
L 511.088538 386.241818 
L 511.295482 384.344502 
L 511.433445 386.241818 
L 511.571408 386.241818 
L 511.778353 385.006323 
L 511.847334 385.401023 
L 511.985297 386.241818 
L 512.537149 386.137897 
L 512.813076 379.989413 
L 513.02002 374.451496 
L 513.157983 386.241818 
L 513.295946 386.241818 
L 513.778817 375.710334 
L 513.847798 376.657308 
L 513.985761 386.241818 
L 515.020484 386.241818 
L 515.227429 380.885016 
L 515.434373 376.382901 
L 515.572336 386.241818 
L 516.67604 386.241818 
L 517.089929 374.419853 
L 517.158911 375.024093 
L 517.296874 386.241818 
L 518.331597 386.241818 
L 518.46956 384.231671 
L 518.745486 377.852386 
L 518.814467 378.780639 
L 518.95243 386.241818 
L 520.125116 386.241818 
L 520.401042 381.183126 
L 520.470024 382.199235 
L 520.607987 386.241818 
L 521.090857 386.241818 
L 521.22882 384.688744 
L 521.366783 386.241818 
L 521.849654 386.241818 
L 522.194562 383.076383 
L 522.401506 386.241818 
L 525.022804 386.241818 
L 525.091785 382.06063 
L 526.747342 28.678182 
L 526.816323 33.0767 
L 527.092249 52.780716 
L 528.264935 289.285435 
L 528.333916 291.085638 
L 528.471879 307.737698 
L 528.885769 386.241818 
L 539.301977 386.241818 
L 539.370959 385.752423 
L 539.508922 386.241818 
L 576.138106 386.241818 
L 576.207088 382.256319 
L 578.069589 28.678182 
L 579.794127 386.241818 
L 627.184428 386.241818 
L 627.73628 301.088055 
L 627.805261 316.071695 
L 628.21915 386.241818 
L 630.426559 386.241818 
L 630.564522 380.775978 
L 630.771466 386.241818 
L 677.196026 386.241818 
L 677.402971 347.603354 
L 678.989545 28.678182 
L 678.989545 28.678182 
" clip-path="url(#pe4784e835b)" style="fill: none; stroke: #00395b; stroke-width: 1.5; stroke-linecap: square"/>
   </g>
   <g id="patch_3">
    <path d="M 44.57 404.12 
L 44.57 10.8 
" style="fill: none; stroke: #ffffff; stroke-width: 0.8; stroke-linejoin: miter; stroke-linecap: square"/>
   </g>
   <g id="patch_4">
    <path d="M 709.2 404.12 
L 709.2 10.8 
" style="fill: none; stroke: #ffffff; stroke-width: 0.8; stroke-linejoin: miter; stroke-linecap: square"/>
   </g>
   <g id="patch_5">
    <path d="M 44.57 404.12 
L 709.2 404.12 
" style="fill: none; stroke: #ffffff; stroke-width: 0.8; stroke-linejoin: miter; stroke-linecap: square"/>
   </g>
   <g id="patch_6">
    <path d="M 44.57 10.8 
L 709.2 10.8 
" style="fill: none; stroke: #ffffff; stroke-width: 0.8; stroke-linejoin: miter; stroke-linecap: square"/>
   </g>
  </g>
 </g>
 <defs>
  <clipPath id="pe4784e835b">
   <rect x="44.57" y="10.8" width="664.63" height="393.32"/>
  </clipPath>
 </defs>
</svg>
