<?xml version="1.0" encoding="utf-8" standalone="no"?>
<!DOCTYPE svg PUBLIC "-//W3C//DTD SVG 1.1//EN"
  "http://www.w3.org/Graphics/SVG/1.1/DTD/svg11.dtd">
<svg xmlns:xlink="http://www.w3.org/1999/xlink" width="720pt" height="432pt" viewBox="0 0 720 432" xmlns="http://www.w3.org/2000/svg" version="1.1">
 <metadata>
  <rdf:RDF xmlns:dc="http://purl.org/dc/elements/1.1/" xmlns:cc="http://creativecommons.org/ns#" xmlns:rdf="http://www.w3.org/1999/02/22-rdf-syntax-ns#">
   <cc:Work>
    <dc:type rdf:resource="http://purl.org/dc/dcmitype/StillImage"/>
    <dc:date>2025-05-22T14:18:22.490488</dc:date>
    <dc:format>image/svg+xml</dc:format>
    <dc:creator>
     <cc:Agent>
      <dc:title>Matplotlib v3.10.1, https://matplotlib.org/</dc:title>
     </cc:Agent>
    </dc:creator>
   </cc:Work>
  </rdf:RDF>
 </metadata>
 <defs>
  <style type="text/css">*{stroke-linejoin: round; stroke-linecap: butt}</style>
 </defs>
 <g id="figure_1">
  <g id="patch_1">
   <path d="M 0 432 
L 720 432 
L 720 0 
L 0 0 
z
"/>
  </g>
  <g id="axes_1">
   <g id="patch_2">
    <path d="M 44.57 404.12 
L 709.2 404.12 
L 709.2 10.8 
L 44.57 10.8 
z
"/>
   </g>
   <g id="matplotlib.axis_1">
    <g id="xtick_1">
     <g id="line2d_1">
      <defs>
       <path id="mebd4e8d0d9" d="M 0 0 
L 0 3.5 
" style="stroke: #ffffff; stroke-width: 0.8"/>
      </defs>
      <g>
       <use xlink:href="#mebd4e8d0d9" x="74.780455" y="404.12" style="fill: #ffffff; stroke: #ffffff; stroke-width: 0.8"/>
      </g>
     </g>
     <g id="text_1">
      <!-- 2019-01 -->
      <g style="fill: #ffffff" transform="translate(53.889048 418.718437) scale(0.1 -0.1)">
       <defs>
        <path id="DejaVuSans-32" d="M 1228 531 
L 3431 531 
L 3431 0 
L 469 0 
L 469 531 
Q 828 903 1448 1529 
Q 2069 2156 2228 2338 
Q 2531 2678 2651 2914 
Q 2772 3150 2772 3378 
Q 2772 3750 2511 3984 
Q 2250 4219 1831 4219 
Q 1534 4219 1204 4116 
Q 875 4013 500 3803 
L 500 4441 
Q 881 4594 1212 4672 
Q 1544 4750 1819 4750 
Q 2544 4750 2975 4387 
Q 3406 4025 3406 3419 
Q 3406 3131 3298 2873 
Q 3191 2616 2906 2266 
Q 2828 2175 2409 1742 
Q 1991 1309 1228 531 
z
" transform="scale(0.015625)"/>
        <path id="DejaVuSans-30" d="M 2034 4250 
Q 1547 4250 1301 3770 
Q 1056 3291 1056 2328 
Q 1056 1369 1301 889 
Q 1547 409 2034 409 
Q 2525 409 2770 889 
Q 3016 1369 3016 2328 
Q 3016 3291 2770 3770 
Q 2525 4250 2034 4250 
z
M 2034 4750 
Q 2819 4750 3233 4129 
Q 3647 3509 3647 2328 
Q 3647 1150 3233 529 
Q 2819 -91 2034 -91 
Q 1250 -91 836 529 
Q 422 1150 422 2328 
Q 422 3509 836 4129 
Q 1250 4750 2034 4750 
z
" transform="scale(0.015625)"/>
        <path id="DejaVuSans-31" d="M 794 531 
L 1825 531 
L 1825 4091 
L 703 3866 
L 703 4441 
L 1819 4666 
L 2450 4666 
L 2450 531 
L 3481 531 
L 3481 0 
L 794 0 
L 794 531 
z
" transform="scale(0.015625)"/>
        <path id="DejaVuSans-39" d="M 703 97 
L 703 672 
Q 941 559 1184 500 
Q 1428 441 1663 441 
Q 2288 441 2617 861 
Q 2947 1281 2994 2138 
Q 2813 1869 2534 1725 
Q 2256 1581 1919 1581 
Q 1219 1581 811 2004 
Q 403 2428 403 3163 
Q 403 3881 828 4315 
Q 1253 4750 1959 4750 
Q 2769 4750 3195 4129 
Q 3622 3509 3622 2328 
Q 3622 1225 3098 567 
Q 2575 -91 1691 -91 
Q 1453 -91 1209 -44 
Q 966 3 703 97 
z
M 1959 2075 
Q 2384 2075 2632 2365 
Q 2881 2656 2881 3163 
Q 2881 3666 2632 3958 
Q 2384 4250 1959 4250 
Q 1534 4250 1286 3958 
Q 1038 3666 1038 3163 
Q 1038 2656 1286 2365 
Q 1534 2075 1959 2075 
z
" transform="scale(0.015625)"/>
        <path id="DejaVuSans-2d" d="M 313 2009 
L 1997 2009 
L 1997 1497 
L 313 1497 
L 313 2009 
z
" transform="scale(0.015625)"/>
       </defs>
       <use xlink:href="#DejaVuSans-32"/>
       <use xlink:href="#DejaVuSans-30" transform="translate(63.623047 0)"/>
       <use xlink:href="#DejaVuSans-31" transform="translate(127.246094 0)"/>
       <use xlink:href="#DejaVuSans-39" transform="translate(190.869141 0)"/>
       <use xlink:href="#DejaVuSans-2d" transform="translate(254.492188 0)"/>
       <use xlink:href="#DejaVuSans-30" transform="translate(290.576172 0)"/>
       <use xlink:href="#DejaVuSans-31" transform="translate(354.199219 0)"/>
      </g>
     </g>
    </g>
    <g id="xtick_2">
     <g id="line2d_2">
      <g>
       <use xlink:href="#mebd4e8d0d9" x="172.45828" y="404.12" style="fill: #ffffff; stroke: #ffffff; stroke-width: 0.8"/>
      </g>
     </g>
     <g id="text_2">
      <!-- 2019-03 -->
      <g style="fill: #ffffff" transform="translate(151.566874 418.718437) scale(0.1 -0.1)">
       <defs>
        <path id="DejaVuSans-33" d="M 2597 2516 
Q 3050 2419 3304 2112 
Q 3559 1806 3559 1356 
Q 3559 666 3084 287 
Q 2609 -91 1734 -91 
Q 1441 -91 1130 -33 
Q 819 25 488 141 
L 488 750 
Q 750 597 1062 519 
Q 1375 441 1716 441 
Q 2309 441 2620 675 
Q 2931 909 2931 1356 
Q 2931 1769 2642 2001 
Q 2353 2234 1838 2234 
L 1294 2234 
L 1294 2753 
L 1863 2753 
Q 2328 2753 2575 2939 
Q 2822 3125 2822 3475 
Q 2822 3834 2567 4026 
Q 2313 4219 1838 4219 
Q 1578 4219 1281 4162 
Q 984 4106 628 3988 
L 628 4550 
Q 988 4650 1302 4700 
Q 1616 4750 1894 4750 
Q 2613 4750 3031 4423 
Q 3450 4097 3450 3541 
Q 3450 3153 3228 2886 
Q 3006 2619 2597 2516 
z
" transform="scale(0.015625)"/>
       </defs>
       <use xlink:href="#DejaVuSans-32"/>
       <use xlink:href="#DejaVuSans-30" transform="translate(63.623047 0)"/>
       <use xlink:href="#DejaVuSans-31" transform="translate(127.246094 0)"/>
       <use xlink:href="#DejaVuSans-39" transform="translate(190.869141 0)"/>
       <use xlink:href="#DejaVuSans-2d" transform="translate(254.492188 0)"/>
       <use xlink:href="#DejaVuSans-30" transform="translate(290.576172 0)"/>
       <use xlink:href="#DejaVuSans-33" transform="translate(354.199219 0)"/>
      </g>
     </g>
    </g>
    <g id="xtick_3">
     <g id="line2d_3">
      <g>
       <use xlink:href="#mebd4e8d0d9" x="273.447218" y="404.12" style="fill: #ffffff; stroke: #ffffff; stroke-width: 0.8"/>
      </g>
     </g>
     <g id="text_3">
      <!-- 2019-05 -->
      <g style="fill: #ffffff" transform="translate(252.555812 418.718437) scale(0.1 -0.1)">
       <defs>
        <path id="DejaVuSans-35" d="M 691 4666 
L 3169 4666 
L 3169 4134 
L 1269 4134 
L 1269 2991 
Q 1406 3038 1543 3061 
Q 1681 3084 1819 3084 
Q 2600 3084 3056 2656 
Q 3513 2228 3513 1497 
Q 3513 744 3044 326 
Q 2575 -91 1722 -91 
Q 1428 -91 1123 -41 
Q 819 9 494 109 
L 494 744 
Q 775 591 1075 516 
Q 1375 441 1709 441 
Q 2250 441 2565 725 
Q 2881 1009 2881 1497 
Q 2881 1984 2565 2268 
Q 2250 2553 1709 2553 
Q 1456 2553 1204 2497 
Q 953 2441 691 2322 
L 691 4666 
z
" transform="scale(0.015625)"/>
       </defs>
       <use xlink:href="#DejaVuSans-32"/>
       <use xlink:href="#DejaVuSans-30" transform="translate(63.623047 0)"/>
       <use xlink:href="#DejaVuSans-31" transform="translate(127.246094 0)"/>
       <use xlink:href="#DejaVuSans-39" transform="translate(190.869141 0)"/>
       <use xlink:href="#DejaVuSans-2d" transform="translate(254.492188 0)"/>
       <use xlink:href="#DejaVuSans-30" transform="translate(290.576172 0)"/>
       <use xlink:href="#DejaVuSans-35" transform="translate(354.199219 0)"/>
      </g>
     </g>
    </g>
    <g id="xtick_4">
     <g id="line2d_4">
      <g>
       <use xlink:href="#mebd4e8d0d9" x="374.436156" y="404.12" style="fill: #ffffff; stroke: #ffffff; stroke-width: 0.8"/>
      </g>
     </g>
     <g id="text_4">
      <!-- 2019-07 -->
      <g style="fill: #ffffff" transform="translate(353.54475 418.718437) scale(0.1 -0.1)">
       <defs>
        <path id="DejaVuSans-37" d="M 525 4666 
L 3525 4666 
L 3525 4397 
L 1831 0 
L 1172 0 
L 2766 4134 
L 525 4134 
L 525 4666 
z
" transform="scale(0.015625)"/>
       </defs>
       <use xlink:href="#DejaVuSans-32"/>
       <use xlink:href="#DejaVuSans-30" transform="translate(63.623047 0)"/>
       <use xlink:href="#DejaVuSans-31" transform="translate(127.246094 0)"/>
       <use xlink:href="#DejaVuSans-39" transform="translate(190.869141 0)"/>
       <use xlink:href="#DejaVuSans-2d" transform="translate(254.492188 0)"/>
       <use xlink:href="#DejaVuSans-30" transform="translate(290.576172 0)"/>
       <use xlink:href="#DejaVuSans-37" transform="translate(354.199219 0)"/>
      </g>
     </g>
    </g>
    <g id="xtick_5">
     <g id="line2d_5">
      <g>
       <use xlink:href="#mebd4e8d0d9" x="477.080651" y="404.12" style="fill: #ffffff; stroke: #ffffff; stroke-width: 0.8"/>
      </g>
     </g>
     <g id="text_5">
      <!-- 2019-09 -->
      <g style="fill: #ffffff" transform="translate(456.189244 418.718437) scale(0.1 -0.1)">
       <use xlink:href="#DejaVuSans-32"/>
       <use xlink:href="#DejaVuSans-30" transform="translate(63.623047 0)"/>
       <use xlink:href="#DejaVuSans-31" transform="translate(127.246094 0)"/>
       <use xlink:href="#DejaVuSans-39" transform="translate(190.869141 0)"/>
       <use xlink:href="#DejaVuSans-2d" transform="translate(254.492188 0)"/>
       <use xlink:href="#DejaVuSans-30" transform="translate(290.576172 0)"/>
       <use xlink:href="#DejaVuSans-39" transform="translate(354.199219 0)"/>
      </g>
     </g>
    </g>
    <g id="xtick_6">
     <g id="line2d_6">
      <g>
       <use xlink:href="#mebd4e8d0d9" x="578.069589" y="404.12" style="fill: #ffffff; stroke: #ffffff; stroke-width: 0.8"/>
      </g>
     </g>
     <g id="text_6">
      <!-- 2019-11 -->
      <g style="fill: #ffffff" transform="translate(557.178183 418.718437) scale(0.1 -0.1)">
       <use xlink:href="#DejaVuSans-32"/>
       <use xlink:href="#DejaVuSans-30" transform="translate(63.623047 0)"/>
       <use xlink:href="#DejaVuSans-31" transform="translate(127.246094 0)"/>
       <use xlink:href="#DejaVuSans-39" transform="translate(190.869141 0)"/>
       <use xlink:href="#DejaVuSans-2d" transform="translate(254.492188 0)"/>
       <use xlink:href="#DejaVuSans-31" transform="translate(290.576172 0)"/>
       <use xlink:href="#DejaVuSans-31" transform="translate(354.199219 0)"/>
      </g>
     </g>
    </g>
    <g id="xtick_7">
     <g id="line2d_7">
      <g>
       <use xlink:href="#mebd4e8d0d9" x="679.058527" y="404.12" style="fill: #ffffff; stroke: #ffffff; stroke-width: 0.8"/>
      </g>
     </g>
     <g id="text_7">
      <!-- 2020-01 -->
      <g style="fill: #ffffff" transform="translate(658.167121 418.718437) scale(0.1 -0.1)">
       <use xlink:href="#DejaVuSans-32"/>
       <use xlink:href="#DejaVuSans-30" transform="translate(63.623047 0)"/>
       <use xlink:href="#DejaVuSans-32" transform="translate(127.246094 0)"/>
       <use xlink:href="#DejaVuSans-30" transform="translate(190.869141 0)"/>
       <use xlink:href="#DejaVuSans-2d" transform="translate(254.492188 0)"/>
       <use xlink:href="#DejaVuSans-30" transform="translate(290.576172 0)"/>
       <use xlink:href="#DejaVuSans-31" transform="translate(354.199219 0)"/>
      </g>
     </g>
    </g>
   </g>
   <g id="matplotlib.axis_2">
    <g id="ytick_1">
     <g id="line2d_8">
      <path d="M 44.57 386.241818 
L 709.2 386.241818 
" clip-path="url(#p994f515078)" style="fill: none; stroke: #ffffff; stroke-width: 0.8; stroke-linecap: square"/>
     </g>
     <g id="line2d_9">
      <defs>
       <path id="m713028af25" d="M 0 0 
L -3.5 0 
" style="stroke: #ffffff; stroke-width: 0.8"/>
      </defs>
      <g>
       <use xlink:href="#m713028af25" x="44.57" y="386.241818" style="fill: #ffffff; stroke: #ffffff; stroke-width: 0.8"/>
      </g>
     </g>
     <g id="text_8">
      <!-- 0 -->
      <g style="fill: #ffffff" transform="translate(31.2075 390.041037) scale(0.1 -0.1)">
       <use xlink:href="#DejaVuSans-30"/>
      </g>
     </g>
    </g>
    <g id="ytick_2">
     <g id="line2d_10">
      <path d="M 44.57 307.704734 
L 709.2 307.704734 
" clip-path="url(#p994f515078)" style="fill: none; stroke: #ffffff; stroke-width: 0.8; stroke-linecap: square"/>
     </g>
     <g id="line2d_11">
      <g>
       <use xlink:href="#m713028af25" x="44.57" y="307.704734" style="fill: #ffffff; stroke: #ffffff; stroke-width: 0.8"/>
      </g>
     </g>
     <g id="text_9">
      <!-- 20 -->
      <g style="fill: #ffffff" transform="translate(24.845 311.503953) scale(0.1 -0.1)">
       <use xlink:href="#DejaVuSans-32"/>
       <use xlink:href="#DejaVuSans-30" transform="translate(63.623047 0)"/>
      </g>
     </g>
    </g>
    <g id="ytick_3">
     <g id="line2d_12">
      <path d="M 44.57 229.16765 
L 709.2 229.16765 
" clip-path="url(#p994f515078)" style="fill: none; stroke: #ffffff; stroke-width: 0.8; stroke-linecap: square"/>
     </g>
     <g id="line2d_13">
      <g>
       <use xlink:href="#m713028af25" x="44.57" y="229.16765" style="fill: #ffffff; stroke: #ffffff; stroke-width: 0.8"/>
      </g>
     </g>
     <g id="text_10">
      <!-- 40 -->
      <g style="fill: #ffffff" transform="translate(24.845 232.966869) scale(0.1 -0.1)">
       <defs>
        <path id="DejaVuSans-34" d="M 2419 4116 
L 825 1625 
L 2419 1625 
L 2419 4116 
z
M 2253 4666 
L 3047 4666 
L 3047 1625 
L 3713 1625 
L 3713 1100 
L 3047 1100 
L 3047 0 
L 2419 0 
L 2419 1100 
L 313 1100 
L 313 1709 
L 2253 4666 
z
" transform="scale(0.015625)"/>
       </defs>
       <use xlink:href="#DejaVuSans-34"/>
       <use xlink:href="#DejaVuSans-30" transform="translate(63.623047 0)"/>
      </g>
     </g>
    </g>
    <g id="ytick_4">
     <g id="line2d_14">
      <path d="M 44.57 150.630566 
L 709.2 150.630566 
" clip-path="url(#p994f515078)" style="fill: none; stroke: #ffffff; stroke-width: 0.8; stroke-linecap: square"/>
     </g>
     <g id="line2d_15">
      <g>
       <use xlink:href="#m713028af25" x="44.57" y="150.630566" style="fill: #ffffff; stroke: #ffffff; stroke-width: 0.8"/>
      </g>
     </g>
     <g id="text_11">
      <!-- 60 -->
      <g style="fill: #ffffff" transform="translate(24.845 154.429785) scale(0.1 -0.1)">
       <defs>
        <path id="DejaVuSans-36" d="M 2113 2584 
Q 1688 2584 1439 2293 
Q 1191 2003 1191 1497 
Q 1191 994 1439 701 
Q 1688 409 2113 409 
Q 2538 409 2786 701 
Q 3034 994 3034 1497 
Q 3034 2003 2786 2293 
Q 2538 2584 2113 2584 
z
M 3366 4563 
L 3366 3988 
Q 3128 4100 2886 4159 
Q 2644 4219 2406 4219 
Q 1781 4219 1451 3797 
Q 1122 3375 1075 2522 
Q 1259 2794 1537 2939 
Q 1816 3084 2150 3084 
Q 2853 3084 3261 2657 
Q 3669 2231 3669 1497 
Q 3669 778 3244 343 
Q 2819 -91 2113 -91 
Q 1303 -91 875 529 
Q 447 1150 447 2328 
Q 447 3434 972 4092 
Q 1497 4750 2381 4750 
Q 2619 4750 2861 4703 
Q 3103 4656 3366 4563 
z
" transform="scale(0.015625)"/>
       </defs>
       <use xlink:href="#DejaVuSans-36"/>
       <use xlink:href="#DejaVuSans-30" transform="translate(63.623047 0)"/>
      </g>
     </g>
    </g>
    <g id="ytick_5">
     <g id="line2d_16">
      <path d="M 44.57 72.093482 
L 709.2 72.093482 
" clip-path="url(#p994f515078)" style="fill: none; stroke: #ffffff; stroke-width: 0.8; stroke-linecap: square"/>
     </g>
     <g id="line2d_17">
      <g>
       <use xlink:href="#m713028af25" x="44.57" y="72.093482" style="fill: #ffffff; stroke: #ffffff; stroke-width: 0.8"/>
      </g>
     </g>
     <g id="text_12">
      <!-- 80 -->
      <g style="fill: #ffffff" transform="translate(24.845 75.892701) scale(0.1 -0.1)">
       <defs>
        <path id="DejaVuSans-38" d="M 2034 2216 
Q 1584 2216 1326 1975 
Q 1069 1734 1069 1313 
Q 1069 891 1326 650 
Q 1584 409 2034 409 
Q 2484 409 2743 651 
Q 3003 894 3003 1313 
Q 3003 1734 2745 1975 
Q 2488 2216 2034 2216 
z
M 1403 2484 
Q 997 2584 770 2862 
Q 544 3141 544 3541 
Q 544 4100 942 4425 
Q 1341 4750 2034 4750 
Q 2731 4750 3128 4425 
Q 3525 4100 3525 3541 
Q 3525 3141 3298 2862 
Q 3072 2584 2669 2484 
Q 3125 2378 3379 2068 
Q 3634 1759 3634 1313 
Q 3634 634 3220 271 
Q 2806 -91 2034 -91 
Q 1263 -91 848 271 
Q 434 634 434 1313 
Q 434 1759 690 2068 
Q 947 2378 1403 2484 
z
M 1172 3481 
Q 1172 3119 1398 2916 
Q 1625 2713 2034 2713 
Q 2441 2713 2670 2916 
Q 2900 3119 2900 3481 
Q 2900 3844 2670 4047 
Q 2441 4250 2034 4250 
Q 1625 4250 1398 4047 
Q 1172 3844 1172 3481 
z
" transform="scale(0.015625)"/>
       </defs>
       <use xlink:href="#DejaVuSans-38"/>
       <use xlink:href="#DejaVuSans-30" transform="translate(63.623047 0)"/>
      </g>
     </g>
    </g>
    <g id="text_13">
     <!-- Hourly heat storage content in MWh -->
     <g style="fill: #ffffff" transform="translate(18.765313 298.188906) rotate(-90) scale(0.1 -0.1)">
      <defs>
       <path id="DejaVuSans-48" d="M 628 4666 
L 1259 4666 
L 1259 2753 
L 3553 2753 
L 3553 4666 
L 4184 4666 
L 4184 0 
L 3553 0 
L 3553 2222 
L 1259 2222 
L 1259 0 
L 628 0 
L 628 4666 
z
" transform="scale(0.015625)"/>
       <path id="DejaVuSans-6f" d="M 1959 3097 
Q 1497 3097 1228 2736 
Q 959 2375 959 1747 
Q 959 1119 1226 758 
Q 1494 397 1959 397 
Q 2419 397 2687 759 
Q 2956 1122 2956 1747 
Q 2956 2369 2687 2733 
Q 2419 3097 1959 3097 
z
M 1959 3584 
Q 2709 3584 3137 3096 
Q 3566 2609 3566 1747 
Q 3566 888 3137 398 
Q 2709 -91 1959 -91 
Q 1206 -91 779 398 
Q 353 888 353 1747 
Q 353 2609 779 3096 
Q 1206 3584 1959 3584 
z
" transform="scale(0.015625)"/>
       <path id="DejaVuSans-75" d="M 544 1381 
L 544 3500 
L 1119 3500 
L 1119 1403 
Q 1119 906 1312 657 
Q 1506 409 1894 409 
Q 2359 409 2629 706 
Q 2900 1003 2900 1516 
L 2900 3500 
L 3475 3500 
L 3475 0 
L 2900 0 
L 2900 538 
Q 2691 219 2414 64 
Q 2138 -91 1772 -91 
Q 1169 -91 856 284 
Q 544 659 544 1381 
z
M 1991 3584 
L 1991 3584 
z
" transform="scale(0.015625)"/>
       <path id="DejaVuSans-72" d="M 2631 2963 
Q 2534 3019 2420 3045 
Q 2306 3072 2169 3072 
Q 1681 3072 1420 2755 
Q 1159 2438 1159 1844 
L 1159 0 
L 581 0 
L 581 3500 
L 1159 3500 
L 1159 2956 
Q 1341 3275 1631 3429 
Q 1922 3584 2338 3584 
Q 2397 3584 2469 3576 
Q 2541 3569 2628 3553 
L 2631 2963 
z
" transform="scale(0.015625)"/>
       <path id="DejaVuSans-6c" d="M 603 4863 
L 1178 4863 
L 1178 0 
L 603 0 
L 603 4863 
z
" transform="scale(0.015625)"/>
       <path id="DejaVuSans-79" d="M 2059 -325 
Q 1816 -950 1584 -1140 
Q 1353 -1331 966 -1331 
L 506 -1331 
L 506 -850 
L 844 -850 
Q 1081 -850 1212 -737 
Q 1344 -625 1503 -206 
L 1606 56 
L 191 3500 
L 800 3500 
L 1894 763 
L 2988 3500 
L 3597 3500 
L 2059 -325 
z
" transform="scale(0.015625)"/>
       <path id="DejaVuSans-20" transform="scale(0.015625)"/>
       <path id="DejaVuSans-68" d="M 3513 2113 
L 3513 0 
L 2938 0 
L 2938 2094 
Q 2938 2591 2744 2837 
Q 2550 3084 2163 3084 
Q 1697 3084 1428 2787 
Q 1159 2491 1159 1978 
L 1159 0 
L 581 0 
L 581 4863 
L 1159 4863 
L 1159 2956 
Q 1366 3272 1645 3428 
Q 1925 3584 2291 3584 
Q 2894 3584 3203 3211 
Q 3513 2838 3513 2113 
z
" transform="scale(0.015625)"/>
       <path id="DejaVuSans-65" d="M 3597 1894 
L 3597 1613 
L 953 1613 
Q 991 1019 1311 708 
Q 1631 397 2203 397 
Q 2534 397 2845 478 
Q 3156 559 3463 722 
L 3463 178 
Q 3153 47 2828 -22 
Q 2503 -91 2169 -91 
Q 1331 -91 842 396 
Q 353 884 353 1716 
Q 353 2575 817 3079 
Q 1281 3584 2069 3584 
Q 2775 3584 3186 3129 
Q 3597 2675 3597 1894 
z
M 3022 2063 
Q 3016 2534 2758 2815 
Q 2500 3097 2075 3097 
Q 1594 3097 1305 2825 
Q 1016 2553 972 2059 
L 3022 2063 
z
" transform="scale(0.015625)"/>
       <path id="DejaVuSans-61" d="M 2194 1759 
Q 1497 1759 1228 1600 
Q 959 1441 959 1056 
Q 959 750 1161 570 
Q 1363 391 1709 391 
Q 2188 391 2477 730 
Q 2766 1069 2766 1631 
L 2766 1759 
L 2194 1759 
z
M 3341 1997 
L 3341 0 
L 2766 0 
L 2766 531 
Q 2569 213 2275 61 
Q 1981 -91 1556 -91 
Q 1019 -91 701 211 
Q 384 513 384 1019 
Q 384 1609 779 1909 
Q 1175 2209 1959 2209 
L 2766 2209 
L 2766 2266 
Q 2766 2663 2505 2880 
Q 2244 3097 1772 3097 
Q 1472 3097 1187 3025 
Q 903 2953 641 2809 
L 641 3341 
Q 956 3463 1253 3523 
Q 1550 3584 1831 3584 
Q 2591 3584 2966 3190 
Q 3341 2797 3341 1997 
z
" transform="scale(0.015625)"/>
       <path id="DejaVuSans-74" d="M 1172 4494 
L 1172 3500 
L 2356 3500 
L 2356 3053 
L 1172 3053 
L 1172 1153 
Q 1172 725 1289 603 
Q 1406 481 1766 481 
L 2356 481 
L 2356 0 
L 1766 0 
Q 1100 0 847 248 
Q 594 497 594 1153 
L 594 3053 
L 172 3053 
L 172 3500 
L 594 3500 
L 594 4494 
L 1172 4494 
z
" transform="scale(0.015625)"/>
       <path id="DejaVuSans-73" d="M 2834 3397 
L 2834 2853 
Q 2591 2978 2328 3040 
Q 2066 3103 1784 3103 
Q 1356 3103 1142 2972 
Q 928 2841 928 2578 
Q 928 2378 1081 2264 
Q 1234 2150 1697 2047 
L 1894 2003 
Q 2506 1872 2764 1633 
Q 3022 1394 3022 966 
Q 3022 478 2636 193 
Q 2250 -91 1575 -91 
Q 1294 -91 989 -36 
Q 684 19 347 128 
L 347 722 
Q 666 556 975 473 
Q 1284 391 1588 391 
Q 1994 391 2212 530 
Q 2431 669 2431 922 
Q 2431 1156 2273 1281 
Q 2116 1406 1581 1522 
L 1381 1569 
Q 847 1681 609 1914 
Q 372 2147 372 2553 
Q 372 3047 722 3315 
Q 1072 3584 1716 3584 
Q 2034 3584 2315 3537 
Q 2597 3491 2834 3397 
z
" transform="scale(0.015625)"/>
       <path id="DejaVuSans-67" d="M 2906 1791 
Q 2906 2416 2648 2759 
Q 2391 3103 1925 3103 
Q 1463 3103 1205 2759 
Q 947 2416 947 1791 
Q 947 1169 1205 825 
Q 1463 481 1925 481 
Q 2391 481 2648 825 
Q 2906 1169 2906 1791 
z
M 3481 434 
Q 3481 -459 3084 -895 
Q 2688 -1331 1869 -1331 
Q 1566 -1331 1297 -1286 
Q 1028 -1241 775 -1147 
L 775 -588 
Q 1028 -725 1275 -790 
Q 1522 -856 1778 -856 
Q 2344 -856 2625 -561 
Q 2906 -266 2906 331 
L 2906 616 
Q 2728 306 2450 153 
Q 2172 0 1784 0 
Q 1141 0 747 490 
Q 353 981 353 1791 
Q 353 2603 747 3093 
Q 1141 3584 1784 3584 
Q 2172 3584 2450 3431 
Q 2728 3278 2906 2969 
L 2906 3500 
L 3481 3500 
L 3481 434 
z
" transform="scale(0.015625)"/>
       <path id="DejaVuSans-63" d="M 3122 3366 
L 3122 2828 
Q 2878 2963 2633 3030 
Q 2388 3097 2138 3097 
Q 1578 3097 1268 2742 
Q 959 2388 959 1747 
Q 959 1106 1268 751 
Q 1578 397 2138 397 
Q 2388 397 2633 464 
Q 2878 531 3122 666 
L 3122 134 
Q 2881 22 2623 -34 
Q 2366 -91 2075 -91 
Q 1284 -91 818 406 
Q 353 903 353 1747 
Q 353 2603 823 3093 
Q 1294 3584 2113 3584 
Q 2378 3584 2631 3529 
Q 2884 3475 3122 3366 
z
" transform="scale(0.015625)"/>
       <path id="DejaVuSans-6e" d="M 3513 2113 
L 3513 0 
L 2938 0 
L 2938 2094 
Q 2938 2591 2744 2837 
Q 2550 3084 2163 3084 
Q 1697 3084 1428 2787 
Q 1159 2491 1159 1978 
L 1159 0 
L 581 0 
L 581 3500 
L 1159 3500 
L 1159 2956 
Q 1366 3272 1645 3428 
Q 1925 3584 2291 3584 
Q 2894 3584 3203 3211 
Q 3513 2838 3513 2113 
z
" transform="scale(0.015625)"/>
       <path id="DejaVuSans-69" d="M 603 3500 
L 1178 3500 
L 1178 0 
L 603 0 
L 603 3500 
z
M 603 4863 
L 1178 4863 
L 1178 4134 
L 603 4134 
L 603 4863 
z
" transform="scale(0.015625)"/>
       <path id="DejaVuSans-4d" d="M 628 4666 
L 1569 4666 
L 2759 1491 
L 3956 4666 
L 4897 4666 
L 4897 0 
L 4281 0 
L 4281 4097 
L 3078 897 
L 2444 897 
L 1241 4097 
L 1241 0 
L 628 0 
L 628 4666 
z
" transform="scale(0.015625)"/>
       <path id="DejaVuSans-57" d="M 213 4666 
L 850 4666 
L 1831 722 
L 2809 4666 
L 3519 4666 
L 4500 722 
L 5478 4666 
L 6119 4666 
L 4947 0 
L 4153 0 
L 3169 4050 
L 2175 0 
L 1381 0 
L 213 4666 
z
" transform="scale(0.015625)"/>
      </defs>
      <use xlink:href="#DejaVuSans-48"/>
      <use xlink:href="#DejaVuSans-6f" transform="translate(75.195312 0)"/>
      <use xlink:href="#DejaVuSans-75" transform="translate(136.376953 0)"/>
      <use xlink:href="#DejaVuSans-72" transform="translate(199.755859 0)"/>
      <use xlink:href="#DejaVuSans-6c" transform="translate(240.869141 0)"/>
      <use xlink:href="#DejaVuSans-79" transform="translate(268.652344 0)"/>
      <use xlink:href="#DejaVuSans-20" transform="translate(327.832031 0)"/>
      <use xlink:href="#DejaVuSans-68" transform="translate(359.619141 0)"/>
      <use xlink:href="#DejaVuSans-65" transform="translate(422.998047 0)"/>
      <use xlink:href="#DejaVuSans-61" transform="translate(484.521484 0)"/>
      <use xlink:href="#DejaVuSans-74" transform="translate(545.800781 0)"/>
      <use xlink:href="#DejaVuSans-20" transform="translate(585.009766 0)"/>
      <use xlink:href="#DejaVuSans-73" transform="translate(616.796875 0)"/>
      <use xlink:href="#DejaVuSans-74" transform="translate(668.896484 0)"/>
      <use xlink:href="#DejaVuSans-6f" transform="translate(708.105469 0)"/>
      <use xlink:href="#DejaVuSans-72" transform="translate(769.287109 0)"/>
      <use xlink:href="#DejaVuSans-61" transform="translate(810.400391 0)"/>
      <use xlink:href="#DejaVuSans-67" transform="translate(871.679688 0)"/>
      <use xlink:href="#DejaVuSans-65" transform="translate(935.15625 0)"/>
      <use xlink:href="#DejaVuSans-20" transform="translate(996.679688 0)"/>
      <use xlink:href="#DejaVuSans-63" transform="translate(1028.466797 0)"/>
      <use xlink:href="#DejaVuSans-6f" transform="translate(1083.447266 0)"/>
      <use xlink:href="#DejaVuSans-6e" transform="translate(1144.628906 0)"/>
      <use xlink:href="#DejaVuSans-74" transform="translate(1208.007812 0)"/>
      <use xlink:href="#DejaVuSans-65" transform="translate(1247.216797 0)"/>
      <use xlink:href="#DejaVuSans-6e" transform="translate(1308.740234 0)"/>
      <use xlink:href="#DejaVuSans-74" transform="translate(1372.119141 0)"/>
      <use xlink:href="#DejaVuSans-20" transform="translate(1411.328125 0)"/>
      <use xlink:href="#DejaVuSans-69" transform="translate(1443.115234 0)"/>
      <use xlink:href="#DejaVuSans-6e" transform="translate(1470.898438 0)"/>
      <use xlink:href="#DejaVuSans-20" transform="translate(1534.277344 0)"/>
      <use xlink:href="#DejaVuSans-4d" transform="translate(1566.064453 0)"/>
      <use xlink:href="#DejaVuSans-57" transform="translate(1652.34375 0)"/>
      <use xlink:href="#DejaVuSans-68" transform="translate(1751.220703 0)"/>
     </g>
    </g>
   </g>
   <g id="line2d_18">
    <path d="M 74.780455 28.678182 
L 75.884159 254.807432 
L 76.573974 386.241818 
L 78.367493 386.241818 
L 78.436475 385.902732 
L 78.505456 384.005868 
L 78.643419 386.241818 
L 79.12629 386.241818 
L 79.264253 381.225292 
L 79.471198 386.241818 
L 88.576758 386.241818 
L 88.645739 375.56764 
L 88.714721 375.578315 
L 89.197591 375.652736 
L 89.266573 375.283161 
L 89.473517 386.241818 
L 89.956388 386.241818 
L 90.163332 364.913301 
L 90.232314 362.63296 
L 90.50824 386.241818 
L 90.646203 386.241818 
L 90.784166 380.654209 
L 90.853148 374.297759 
L 91.060092 386.241818 
L 102.373061 386.241818 
L 102.511024 379.673509 
L 102.648987 386.241818 
L 103.26982 386.241818 
L 103.407783 377.979436 
L 103.545746 383.616587 
L 103.683709 386.241818 
L 106.580933 386.241818 
L 106.649915 384.457856 
L 106.856859 367.36374 
L 106.994822 364.354461 
L 107.132785 354.737228 
L 107.477693 319.388225 
L 107.684637 313.284668 
L 107.8226 298.084998 
L 108.236489 239.117364 
L 108.305471 236.322744 
L 108.374452 237.96826 
L 108.443434 238.8032 
L 108.650378 265.876032 
L 108.926305 227.425768 
L 109.064268 207.201122 
L 109.271212 225.230178 
L 109.340194 223.348692 
L 110.09899 111.047805 
L 110.374916 106.85855 
L 110.650842 87.571013 
L 110.719824 90.374484 
L 110.926768 97.004864 
L 110.99575 94.964945 
L 111.616584 28.678182 
L 112.582325 121.354368 
L 112.651306 123.617489 
L 112.720288 123.027455 
L 112.789269 121.570172 
L 113.203158 97.074711 
L 113.27214 97.728544 
L 113.479085 135.75124 
L 114.1689 252.073505 
L 114.375844 268.974521 
L 114.444826 268.266615 
L 114.858715 247.593557 
L 114.927696 248.681971 
L 115.134641 282.576767 
L 115.410567 318.516664 
L 115.617511 332.820697 
L 116.031401 386.241818 
L 116.583253 386.241818 
L 116.652234 385.153524 
L 116.790197 386.241818 
L 120.515199 386.241818 
L 120.653162 382.906688 
L 120.722144 383.353225 
L 120.860107 386.241818 
L 121.411959 386.241818 
L 121.549922 382.721562 
L 121.618903 383.43531 
L 121.825848 386.241818 
L 123.136497 386.241818 
L 123.27446 377.347946 
L 123.343441 378.283045 
L 123.550386 386.241818 
L 123.826312 386.241818 
L 123.964275 384.331953 
L 124.033256 385.193311 
L 124.171219 386.241818 
L 125.343905 386.241818 
L 125.481868 381.266329 
L 125.757794 386.241818 
L 126.378628 386.241818 
L 126.585572 374.097978 
L 126.654554 375.597867 
L 126.861498 386.241818 
L 127.068443 386.140235 
L 127.206406 382.003119 
L 127.413351 386.241818 
L 131.414278 386.241818 
L 131.48326 383.419044 
L 131.552241 384.705415 
L 131.690205 386.241818 
L 132.173075 386.241818 
L 132.311038 383.644103 
L 132.449001 386.241818 
L 224.125435 386.241818 
L 224.194416 375.868021 
L 224.332379 386.241818 
L 227.022658 386.241818 
L 227.09164 386.032707 
L 227.229603 386.241818 
L 231.989327 386.241818 
L 232.127291 383.708208 
L 232.265254 386.241818 
L 232.886087 386.241818 
L 232.955069 385.859925 
L 233.02405 386.087077 
L 233.093032 385.850633 
L 233.230995 384.416916 
L 233.368958 386.241818 
L 234.403681 386.241818 
L 234.541644 382.683166 
L 234.748588 376.655355 
L 234.955533 371.75785 
L 235.024514 372.497814 
L 235.369422 386.241818 
L 240.680998 386.241818 
L 240.74998 374.896119 
L 240.818961 381.77206 
L 240.956924 386.241818 
L 242.336555 386.241818 
L 242.405536 382.422521 
L 242.474518 384.649395 
L 242.612481 386.241818 
L 247.303224 386.241818 
L 247.372205 378.451338 
L 247.57915 386.241818 
L 252.683782 386.241818 
L 252.821745 384.348482 
L 253.02869 386.241818 
L 254.270357 386.241818 
L 254.40832 380.957219 
L 254.477301 381.012565 
L 254.684246 384.778852 
L 254.822209 380.65009 
L 254.891191 378.510632 
L 254.960172 379.027866 
L 255.098135 382.357502 
L 255.30508 386.241818 
L 255.925913 386.241818 
L 256.477765 355.13766 
L 256.68471 357.284672 
L 257.029617 358.603853 
L 257.098599 360.012756 
L 257.236562 370.661922 
L 257.443507 385.637466 
L 257.512488 386.241818 
L 257.58147 385.451533 
L 257.719433 377.553091 
L 258.133322 348.062838 
L 258.340266 376.970645 
L 258.409248 375.372845 
L 258.685174 369.959922 
L 258.823137 371.038631 
L 259.099063 386.241818 
L 259.168044 383.425276 
L 259.719897 353.791096 
L 260.409712 339.936797 
L 260.478693 339.609062 
L 260.754619 357.317762 
L 260.823601 355.50793 
L 261.927305 316.938386 
L 262.203231 307.268268 
L 262.272213 309.541363 
L 262.479157 340.795722 
L 262.686102 332.399471 
L 262.893046 318.448419 
L 263.031009 307.188137 
L 263.237954 330.571525 
L 263.306935 328.309362 
L 263.789806 308.285838 
L 263.858787 305.492278 
L 263.927769 308.458749 
L 264.134714 341.946027 
L 264.41064 318.385514 
L 264.686566 278.823491 
L 264.824529 299.824527 
L 264.962492 322.419925 
L 265.238418 299.979053 
L 265.514344 275.047636 
L 265.721288 307.19797 
L 265.928233 338.983769 
L 266.411104 319.236381 
L 266.618048 345.783196 
L 266.68703 343.721802 
L 267.307863 324.425362 
L 267.376845 324.238797 
L 267.445826 324.53935 
L 267.514808 324.117064 
L 267.721752 314.636967 
L 268.135641 285.416432 
L 269.032401 261.188527 
L 269.239346 267.787798 
L 269.377309 268.56429 
L 269.515272 271.961741 
L 269.929161 287.607232 
L 270.34305 294.590879 
L 270.481013 300.479114 
L 270.618976 322.244489 
L 270.825921 355.329075 
L 270.963884 357.260508 
L 271.032865 356.240032 
L 271.653699 324.646177 
L 271.860643 326.695484 
L 271.929625 328.419031 
L 272.205551 350.935505 
L 272.412495 386.241818 
L 272.895366 341.932283 
L 273.033329 333.078774 
L 273.240274 360.145224 
L 273.309255 360.315626 
L 273.378237 360.218833 
L 273.585181 350.488816 
L 273.792126 342.894657 
L 273.861107 343.573166 
L 274.343978 375.319137 
L 274.550922 386.241818 
L 275.033793 386.241818 
L 275.102774 386.107317 
L 275.240737 385.230343 
L 275.378701 386.241818 
L 283.656482 386.241818 
L 283.725464 385.856146 
L 283.863427 386.241818 
L 285.725928 386.241818 
L 285.863891 384.925231 
L 285.932872 385.208293 
L 286.070835 386.241818 
L 287.65741 386.181928 
L 287.933336 372.45926 
L 288.071299 386.241818 
L 288.278244 386.241818 
L 288.623151 370.736842 
L 288.692133 371.976538 
L 288.968059 386.241818 
L 290.899541 386.241818 
L 291.244449 373.332644 
L 291.31343 373.57625 
L 291.589357 386.241818 
L 291.658338 385.25519 
L 291.72732 385.263042 
L 291.865283 386.241818 
L 292.624079 386.241818 
L 292.831024 379.980498 
L 292.900005 380.001479 
L 292.968987 380.733199 
L 293.10695 386.241818 
L 293.934728 386.241818 
L 294.00371 386.083756 
L 294.141673 386.241818 
L 294.48658 377.138519 
L 294.900469 386.241818 
L 295.521303 386.241818 
L 295.659266 385.827744 
L 296.004174 376.863494 
L 296.2801 367.145556 
L 296.418063 369.461404 
L 296.625007 369.033915 
L 296.831952 367.528949 
L 296.969915 373.515517 
L 297.176859 386.241818 
L 297.245841 386.241818 
L 297.65973 364.44706 
L 297.797693 357.477608 
L 298.004637 343.804195 
L 298.073619 344.030209 
L 298.211582 344.348123 
L 298.349545 338.219564 
L 298.487508 333.409089 
L 298.55649 333.830056 
L 298.763434 339.401359 
L 298.901397 353.794018 
L 299.03936 356.046497 
L 299.177323 354.35823 
L 299.867138 325.212936 
L 300.143064 308.05325 
L 300.41899 313.164177 
L 300.556954 326.082553 
L 300.694917 331.182496 
L 301.177787 350.344135 
L 301.453713 386.241818 
L 301.522695 386.241818 
L 302.074547 371.020653 
L 302.143528 371.164473 
L 302.350473 377.029449 
L 302.419454 375.404102 
L 302.764362 349.453515 
L 302.833344 341.930119 
L 302.902325 346.097136 
L 303.10927 367.01488 
L 303.178251 364.649518 
L 303.385196 354.336691 
L 303.799085 325.988839 
L 303.868066 324.186778 
L 303.937048 325.272753 
L 304.075011 326.824473 
L 304.281955 312.643224 
L 304.833807 260.130326 
L 305.247697 226.637672 
L 305.454641 265.61737 
L 305.937512 355.987316 
L 306.006493 347.36965 
L 306.075475 347.8237 
L 306.282419 376.354375 
L 306.351401 376.364263 
L 306.903253 315.208006 
L 306.972234 308.563133 
L 307.041216 312.63393 
L 307.455105 386.241818 
L 307.524087 386.241818 
L 307.731031 358.802216 
L 307.937976 386.241818 
L 308.075939 386.241818 
L 308.627791 334.652013 
L 308.903717 371.349838 
L 309.317606 351.389915 
L 309.455569 341.486617 
L 309.662514 357.022018 
L 309.731495 367.606128 
L 309.800477 365.837057 
L 310.145384 346.859024 
L 310.214366 347.64352 
L 310.283347 349.97834 
L 310.42131 370.071899 
L 311.042144 311.052723 
L 311.456033 375.987966 
L 311.869922 349.471166 
L 311.938904 349.507936 
L 312.21483 386.241818 
L 312.6977 338.888449 
L 312.766682 346.816504 
L 313.180571 386.241818 
L 313.59446 354.381646 
L 313.663441 356.20709 
L 314.008349 339.994581 
L 314.284275 322.751634 
L 314.49122 314.496912 
L 314.698164 342.57924 
L 314.97409 326.584067 
L 315.181035 314.36954 
L 315.250016 314.499327 
L 315.318998 314.228444 
L 315.663905 307.080502 
L 315.87085 301.922881 
L 316.146776 306.082248 
L 316.35372 300.375944 
L 316.698628 280.839825 
L 316.836591 275.334481 
L 316.905573 276.504652 
L 317.043536 288.534849 
L 317.112517 288.623714 
L 317.181499 288.563272 
L 317.25048 288.510742 
L 317.664369 261.649339 
L 317.733351 261.773931 
L 317.940295 291.991144 
L 318.009277 290.556861 
L 318.078258 289.363549 
L 318.492147 268.129442 
L 319.044 354.185586 
L 319.181963 345.275579 
L 319.250944 346.010612 
L 319.940759 331.262152 
L 320.216685 329.30244 
L 320.492611 363.032904 
L 320.630574 361.118888 
L 320.975482 341.954855 
L 321.113445 364.061488 
L 321.32039 386.241818 
L 321.458353 384.163484 
L 321.872242 356.016674 
L 321.941223 356.854843 
L 322.010205 357.645052 
L 322.079186 357.433123 
L 322.148168 357.213552 
L 322.493075 353.288037 
L 322.562057 354.050398 
L 322.70002 361.14769 
L 322.837983 367.048964 
L 322.906964 366.095117 
L 322.975946 371.879392 
L 323.458817 325.012171 
L 323.527798 325.484733 
L 323.734743 353.956061 
L 323.803724 352.895694 
L 323.872706 354.459525 
L 324.217613 341.084071 
L 324.286595 341.12923 
L 324.493539 366.878808 
L 324.700484 386.241818 
L 325.183354 348.787022 
L 325.45928 333.476156 
L 325.942151 288.637764 
L 326.011133 292.759901 
L 326.218077 307.891385 
L 326.35604 336.2566 
L 326.425022 333.223019 
L 326.631966 319.737098 
L 327.183818 272.49189 
L 327.666689 212.955738 
L 327.942615 262.797363 
L 328.425486 194.23988 
L 328.839375 275.858261 
L 328.908356 273.085022 
L 329.184282 230.218468 
L 329.667153 323.988228 
L 329.736134 315.536075 
L 330.081042 274.430091 
L 330.563913 360.538766 
L 330.839839 317.019613 
L 331.184746 381.231529 
L 331.80558 291.32429 
L 332.219469 347.898716 
L 332.495395 319.302545 
L 332.909284 386.241818 
L 333.461136 297.268503 
L 333.668081 335.771465 
L 333.737062 334.714065 
L 333.875025 317.179479 
L 334.150951 269.266565 
L 334.702804 368.251941 
L 335.047711 315.181088 
L 335.4616 386.241818 
L 335.737526 344.356177 
L 335.875489 332.551708 
L 336.151415 386.241818 
L 336.220397 386.154933 
L 336.910212 281.97994 
L 337.600027 204.163225 
L 339.11762 37.285359 
L 339.186602 49.383463 
L 339.324565 66.877493 
L 339.669473 130.310124 
L 340.152343 70.873899 
L 340.290306 81.762901 
L 340.773177 43.833872 
L 340.842158 44.773317 
L 340.91114 48.640604 
L 341.118084 73.150968 
L 341.256047 81.271864 
L 341.669937 28.678182 
L 341.738918 35.608805 
L 342.428733 165.993503 
L 343.049567 247.070799 
L 343.325493 208.965996 
L 343.946327 315.603664 
L 344.08429 296.94707 
L 344.56716 386.241818 
L 344.981049 333.496246 
L 345.050031 337.970134 
L 345.256975 364.498068 
L 345.46392 338.342404 
L 345.808827 278.850893 
L 346.222717 351.68924 
L 346.636606 291.769128 
L 346.705587 296.681355 
L 347.050495 359.002725 
L 347.395402 315.03442 
L 347.947254 386.241818 
L 348.568088 299.327329 
L 349.11994 218.953784 
L 349.188922 232.401693 
L 349.533829 300.474457 
L 350.706515 132.176943 
L 350.775497 122.098467 
L 351.189386 201.738161 
L 351.258367 192.595396 
L 351.603275 145.490467 
L 351.672256 150.230899 
L 351.879201 190.53293 
L 351.948182 189.821042 
L 352.086145 164.888149 
L 352.155127 165.250374 
L 352.224108 165.471365 
L 352.844942 264.420827 
L 353.258831 202.745007 
L 353.741702 281.099142 
L 353.879665 277.897629 
L 354.500498 365.509504 
L 354.914387 289.429587 
L 355.328277 358.297682 
L 355.397258 356.65622 
L 355.46624 355.012471 
L 355.673184 319.60117 
L 355.742166 329.351435 
L 356.087073 386.241818 
L 356.156055 384.603826 
L 356.638925 296.583247 
L 356.983833 343.969684 
L 357.052814 342.409306 
L 357.259759 310.558277 
L 357.32874 297.760746 
L 357.811611 377.90662 
L 357.880593 367.146533 
L 358.2255 313.69506 
L 358.708371 384.353414 
L 359.053278 328.6902 
L 359.467167 386.241818 
L 359.60513 386.241818 
L 359.881057 348.786574 
L 359.950038 338.432584 
L 360.225964 376.06319 
L 360.639853 313.277164 
L 361.053742 386.241818 
L 362.433373 169.439408 
L 362.502354 179.347686 
L 362.709299 204.59913 
L 363.192169 131.141934 
L 363.606058 196.53581 
L 363.950966 151.615637 
L 364.364855 212.782753 
L 364.847726 128.681238 
L 364.916707 140.036086 
L 365.468559 219.946776 
L 366.158374 315.189236 
L 366.227356 313.374907 
L 366.296337 311.562389 
L 366.503282 272.310737 
L 366.986153 336.255744 
L 367.33106 280.966368 
L 367.675968 337.235267 
L 368.158838 267.296874 
L 368.503746 316.813116 
L 368.572727 316.882546 
L 368.917635 260.676387 
L 369.400506 332.048976 
L 369.814395 276.592779 
L 370.297265 360.238006 
L 370.573191 309.368809 
L 371.194025 386.241818 
L 371.263007 386.241818 
L 371.469951 370.202107 
L 371.538933 372.059348 
L 371.676896 386.218728 
L 371.745877 386.241818 
L 372.228748 295.131336 
L 372.297729 304.104991 
L 372.7806 374.089907 
L 372.849581 362.744608 
L 373.608378 228.585722 
L 374.022267 149.464369 
L 374.367175 205.715008 
L 374.781064 145.180285 
L 375.194953 213.735038 
L 375.608842 141.225098 
L 375.677823 141.300769 
L 376.022731 201.587916 
L 376.505602 134.412953 
L 376.850509 186.879663 
L 377.195417 137.768658 
L 377.678287 229.695761 
L 377.747269 219.688617 
L 378.092177 170.387198 
L 378.506066 255.344213 
L 378.850973 202.79595 
L 378.919955 203.611125 
L 379.333844 280.978282 
L 379.402825 272.286406 
L 379.747733 227.080708 
L 380.023659 286.410115 
L 380.09264 279.723353 
L 380.575511 228.48005 
L 380.9894 311.356477 
L 381.403289 256.726356 
L 381.472271 261.991702 
L 381.817178 336.311604 
L 381.88616 328.279078 
L 382.231067 288.417326 
L 382.78292 386.241818 
L 383.26579 327.599489 
L 383.610698 289.686159 
L 384.093568 229.414476 
L 384.714402 165.057656 
L 385.749125 54.335902 
L 385.818106 54.667807 
L 385.887088 69.897868 
L 385.956069 63.667156 
L 386.025051 68.210605 
L 386.369958 28.678182 
L 386.43894 33.570767 
L 386.92181 137.190299 
L 387.059773 117.759855 
L 387.128755 118.028334 
L 387.197737 118.29655 
L 387.611626 193.716211 
L 388.025515 142.940238 
L 388.094496 148.602102 
L 388.577367 235.26532 
L 388.784311 208.430553 
L 389.336163 303.642749 
L 389.681071 260.944779 
L 390.301905 386.241818 
L 391.060701 386.241818 
L 391.336627 356.323611 
L 391.543572 386.241818 
L 394.578759 386.241818 
L 394.64774 375.932838 
L 394.716722 375.943147 
L 394.854685 386.241818 
L 395.130611 386.241818 
L 395.475518 332.633072 
L 395.820426 386.241818 
L 395.958389 386.241818 
L 396.510241 301.80537 
L 396.786167 359.480397 
L 396.855149 351.350095 
L 397.131075 317.418735 
L 397.544964 386.241818 
L 397.751908 386.241818 
L 397.889871 365.006216 
L 398.096816 386.241818 
L 399.338483 386.241818 
L 399.614409 348.997667 
L 399.890335 386.241818 
L 404.374134 386.241818 
L 404.512097 381.605635 
L 404.65006 386.241818 
L 406.02969 386.241818 
L 406.098672 384.584192 
L 406.305616 350.526572 
L 406.512561 386.241818 
L 406.581542 384.403556 
L 406.995431 311.722208 
L 407.064413 311.796728 
L 407.478302 372.122552 
L 407.547283 372.136671 
L 408.719969 175.72285 
L 408.788951 188.518937 
L 409.20284 261.142437 
L 409.478766 218.165017 
L 409.547747 218.333094 
L 410.58247 386.241818 
L 410.996359 386.241818 
L 411.134322 385.441048 
L 411.272285 386.241818 
L 415.963028 386.241818 
L 416.100991 379.514723 
L 416.238954 386.241818 
L 417.618585 386.241818 
L 417.687566 382.267348 
L 417.963492 347.54452 
L 418.239418 386.241818 
L 418.3084 384.53707 
L 418.584326 329.702528 
L 418.653307 337.459628 
L 418.998215 386.241818 
L 419.067196 384.47424 
L 420.308864 143.806549 
L 420.377845 153.697266 
L 420.791734 204.927964 
L 421.136642 148.716495 
L 422.447291 330.018215 
L 423.068124 386.241818 
L 424.171829 386.241818 
L 424.24081 384.482094 
L 424.378773 369.696838 
L 424.585718 386.241818 
L 429.138498 386.241818 
L 429.276461 363.61567 
L 429.414424 373.723208 
L 429.552387 352.885375 
L 429.759331 386.241818 
L 429.828313 384.584192 
L 429.897294 382.175171 
L 430.242202 317.644588 
L 430.725073 386.241818 
L 430.863036 374.414632 
L 431.000999 384.249108 
L 431.06998 373.671168 
L 431.138962 386.241818 
L 431.897758 256.290954 
L 431.96674 266.194846 
L 432.380629 332.7162 
L 432.44961 319.900436 
L 432.518592 318.434808 
L 432.587573 305.684375 
L 432.656555 305.764935 
L 433.139426 376.375672 
L 433.208407 377.736376 
L 433.415352 386.241818 
L 434.105167 386.241818 
L 434.312111 347.703965 
L 434.588037 386.241818 
L 435.691742 386.241818 
L 435.967668 335.473213 
L 436.312575 386.241818 
L 437.278316 386.241818 
L 437.692206 313.598832 
L 437.968132 361.297001 
L 438.451002 271.395034 
L 438.933873 348.818933 
L 439.27878 295.835813 
L 439.347762 295.926221 
L 439.830633 370.72324 
L 439.899614 369.882211 
L 440.037577 348.577115 
L 440.382485 386.241818 
L 440.451466 386.241818 
L 440.520448 384.957243 
L 440.589429 376.729319 
L 440.658411 386.241818 
L 440.727392 384.387849 
L 440.796374 382.582856 
L 441.0723 332.10952 
L 441.210263 355.943663 
L 442.038041 215.870104 
L 442.107023 226.913938 
L 442.176004 237.860335 
L 442.244986 237.505583 
L 443.486653 28.678182 
L 443.900542 95.141748 
L 444.314431 28.678182 
L 445.556098 234.202348 
L 445.694061 253.761864 
L 445.832024 244.567971 
L 445.901006 244.709644 
L 446.383876 338.506763 
L 446.452858 327.723244 
L 446.728784 279.902088 
L 447.211655 365.167814 
L 447.625544 306.492985 
L 447.970451 374.759748 
L 448.38434 304.813415 
L 448.453322 314.515635 
L 448.867211 386.241818 
L 449.419063 304.789072 
L 449.557026 322.576351 
L 450.039897 256.526208 
L 450.108878 257.330848 
L 450.522767 336.863343 
L 450.591749 326.187494 
L 450.936656 274.427515 
L 451.419527 361.456893 
L 451.695453 314.139058 
L 452.109342 386.241818 
L 453.419991 197.532771 
L 453.83388 269.886081 
L 455.075547 94.523881 
L 455.144529 85.884943 
L 455.489436 137.725462 
L 455.903326 83.478763 
L 456.248233 158.701908 
L 456.317215 149.386205 
L 456.731104 88.039357 
L 457.144993 169.039486 
L 457.558882 110.255495 
L 458.662586 328.655589 
L 458.800549 354.184338 
L 459.214438 297.280044 
L 459.697309 379.992498 
L 459.904253 342.935889 
L 459.973235 342.979194 
L 460.318143 386.241818 
L 460.456106 386.241818 
L 460.66305 359.267218 
L 460.869995 329.948525 
L 461.214902 386.241818 
L 461.628791 311.981836 
L 461.697773 323.400779 
L 462.111662 384.773777 
L 462.525551 316.583375 
L 462.870459 380.043864 
L 462.93944 378.987481 
L 463.284348 320.047014 
L 463.698237 386.241818 
L 463.767218 384.831584 
L 463.8362 383.43454 
L 464.181107 324.324599 
L 464.250089 324.386517 
L 464.457033 361.255085 
L 465.008886 270.242569 
L 465.353793 319.42509 
L 466.664442 88.187368 
L 467.00935 138.79553 
L 467.078331 137.577765 
L 467.49222 62.744745 
L 468.802869 251.931459 
L 468.87185 250.576997 
L 469.078795 212.787104 
L 470.320462 380.155046 
L 470.458425 386.241818 
L 470.66537 352.339397 
L 470.734351 339.617889 
L 471.14824 386.241818 
L 472.113982 386.241818 
L 472.182963 382.393007 
L 472.458889 326.603172 
L 472.94176 386.241818 
L 473.700556 386.241818 
L 474.114446 320.399551 
L 474.528335 386.241818 
L 474.873242 338.659678 
L 475.21815 386.241818 
L 475.425094 386.241818 
L 475.494076 385.45988 
L 475.838983 333.249592 
L 476.045928 369.839189 
L 476.114909 360.394812 
L 476.528799 290.413703 
L 476.59778 301.225916 
L 477.011669 367.251341 
L 478.253336 152.962187 
L 478.322318 166.366134 
L 478.667226 232.22019 
L 479.081115 170.330981 
L 479.77093 298.524004 
L 480.322782 386.241818 
L 480.391763 375.469469 
L 480.805653 313.983377 
L 481.081579 357.075976 
L 481.495468 298.852085 
L 481.840375 361.961029 
L 481.978338 386.241818 
L 482.392227 313.392645 
L 482.461209 325.583768 
L 482.737135 379.824014 
L 483.220006 304.704515 
L 483.564913 371.194306 
L 484.116765 294.675793 
L 484.32371 339.600992 
L 484.392691 332.130647 
L 484.875562 271.823866 
L 485.220469 336.519523 
L 485.772322 276.355377 
L 486.048248 336.298873 
L 486.117229 330.532158 
L 486.531118 292.399957 
L 486.876026 367.211816 
L 486.945007 359.749201 
L 487.496859 306.857119 
L 487.565841 306.9365 
L 487.772786 342.38823 
L 488.117693 303.790383 
L 488.531582 386.241818 
L 488.600564 378.504927 
L 489.083434 333.633434 
L 489.221397 329.073336 
L 489.35936 344.071201 
L 489.428342 344.113372 
L 489.773249 300.393713 
L 490.25612 386.241818 
L 490.325102 386.241818 
L 490.670009 350.10559 
L 490.945935 386.241818 
L 491.842695 386.241818 
L 492.325566 334.899468 
L 492.601492 386.241818 
L 493.084362 338.924592 
L 493.360288 386.241818 
L 493.42927 386.241818 
L 493.705196 356.085058 
L 493.981122 332.265644 
L 494.326029 386.241818 
L 494.8089 342.952075 
L 495.084826 386.241818 
L 495.360752 357.177896 
L 495.636678 331.06224 
L 495.981586 386.241818 
L 496.119549 386.241818 
L 496.395475 359.588401 
L 496.602419 386.241818 
L 496.809364 386.241818 
L 497.292235 321.88744 
L 497.637142 386.241818 
L 497.913068 386.241818 
L 497.98205 380.58616 
L 498.120013 386.241818 
L 498.602883 386.241818 
L 499.016773 349.845337 
L 499.292699 386.241818 
L 499.775569 334.666213 
L 500.120477 386.241818 
L 501.431126 265.832095 
L 501.845015 355.720478 
L 501.913996 350.452685 
L 502.258904 327.692689 
L 502.603811 386.241818 
L 503.569553 386.241818 
L 503.91446 355.598931 
L 504.121405 386.241818 
L 504.259368 386.241818 
L 504.742238 366.499113 
L 504.81122 367.102969 
L 504.949183 386.241818 
L 505.018164 386.241818 
L 505.156127 378.993615 
L 505.501035 354.282033 
L 505.570016 353.076045 
L 505.776961 386.241818 
L 505.845943 386.241818 
L 505.914924 385.475094 
L 506.259832 370.734208 
L 506.328813 370.261798 
L 506.466776 386.241818 
L 506.811684 386.241818 
L 507.225573 371.348655 
L 507.363536 386.241818 
L 507.708443 386.241818 
L 507.915388 373.335862 
L 508.053351 386.241818 
L 508.536222 386.241818 
L 508.812148 375.25524 
L 508.950111 386.241818 
L 509.364 386.241818 
L 509.570944 366.461432 
L 509.639926 366.481212 
L 509.777889 386.241818 
L 510.053815 386.241818 
L 510.329741 369.200755 
L 510.605667 348.928709 
L 510.812612 378.792826 
L 511.088538 358.777488 
L 511.295482 335.334991 
L 511.64039 386.241818 
L 512.261223 330.029375 
L 512.468168 316.576432 
L 513.02002 248.166835 
L 513.226965 293.231418 
L 513.295946 287.884746 
L 513.847798 221.793666 
L 514.675576 386.241818 
L 515.020484 386.241818 
L 515.365392 349.237637 
L 515.434373 340.732747 
L 515.710299 386.241818 
L 516.67604 386.241818 
L 517.089929 331.652234 
L 517.158911 331.706821 
L 517.503819 386.241818 
L 518.331597 386.241818 
L 518.814467 328.57735 
L 519.159375 386.241818 
L 519.918172 386.241818 
L 520.332061 342.75327 
L 520.470024 328.175881 
L 520.814931 386.241818 
L 520.952894 386.241818 
L 521.159839 364.620581 
L 521.22882 364.642202 
L 521.435765 386.241818 
L 521.573728 386.241818 
L 522.056599 339.584338 
L 522.470488 304.630954 
L 522.746414 287.551101 
L 522.953358 271.309114 
L 523.091321 301.320934 
L 523.160303 297.819648 
L 523.643173 259.636579 
L 524.126044 228.611611 
L 525.091785 201.691435 
L 525.436693 166.593448 
L 525.505674 166.813097 
L 525.643637 167.251734 
L 525.850582 159.758641 
L 526.195489 140.80485 
L 526.264471 141.050287 
L 526.67836 56.560802 
L 526.885305 35.711433 
L 527.092249 28.678182 
L 527.644101 135.802658 
L 527.713083 136.751088 
L 527.782064 136.178879 
L 528.264935 241.623494 
L 528.333916 236.132087 
L 528.402898 233.913316 
L 528.540861 244.909128 
L 528.816787 283.887323 
L 529.161695 358.74166 
L 529.230676 356.781185 
L 529.368639 355.880456 
L 529.575584 364.744939 
L 529.782528 386.241818 
L 529.989473 386.241818 
L 530.196417 384.771776 
L 530.33438 386.241818 
L 536.335772 386.241818 
L 536.404754 384.658308 
L 536.818643 363.123508 
L 536.887624 363.436225 
L 537.025587 369.497527 
L 537.16355 386.241818 
L 539.026051 386.241818 
L 539.095033 386.068049 
L 539.232996 386.241818 
L 539.301977 386.241818 
L 539.508922 368.146446 
L 539.646885 386.241818 
L 539.784848 386.241818 
L 539.922811 385.588406 
L 540.267719 368.491966 
L 540.3367 369.474734 
L 540.405682 372.62807 
L 540.543645 386.241818 
L 541.578367 386.241818 
L 541.71633 385.427424 
L 541.854293 386.241818 
L 543.233924 386.241818 
L 543.578831 376.843394 
L 543.785776 386.241818 
L 544.820499 386.241818 
L 544.958462 383.944507 
L 545.027443 384.4406 
L 545.096425 384.351096 
L 545.234388 384.133111 
L 545.441332 386.241818 
L 546.614018 386.241818 
L 546.889944 375.174656 
L 546.958926 375.227931 
L 547.372815 386.241818 
L 547.924667 386.241818 
L 547.993648 385.942389 
L 548.407537 371.882947 
L 548.476519 372.446077 
L 548.614482 375.293812 
L 548.890408 386.241818 
L 549.166334 386.241818 
L 549.235316 382.753784 
L 549.304297 382.757272 
L 549.44226 386.241818 
L 549.856149 386.241818 
L 549.994112 380.814506 
L 550.201057 373.855544 
L 550.270038 373.859089 
L 550.33902 377.263286 
L 550.476983 386.241818 
L 551.511706 386.241818 
L 551.71865 371.709823 
L 551.994576 353.909464 
L 552.201521 386.241818 
L 553.029299 386.241818 
L 553.09828 384.791821 
L 553.443188 368.371011 
L 553.512169 366.954592 
L 553.650132 369.770341 
L 553.788096 386.241818 
L 554.822818 386.241818 
L 554.8918 385.310166 
L 555.236707 367.087689 
L 555.305689 371.036637 
L 555.443652 386.241818 
L 556.409393 386.241818 
L 556.754301 383.141559 
L 556.961245 386.241818 
L 559.92745 386.241818 
L 560.134395 385.901545 
L 560.272358 386.241818 
L 561.445044 386.241818 
L 561.583007 381.883128 
L 561.651988 382.216355 
L 561.927914 386.241818 
L 563.307545 386.241818 
L 563.445508 384.340974 
L 563.583471 386.241818 
L 564.825138 386.241818 
L 565.101064 381.544382 
L 565.239027 386.241818 
L 566.480694 386.241818 
L 566.687639 382.582602 
L 566.75662 382.977958 
L 566.825602 383.561409 
L 566.963565 386.241818 
L 567.998288 386.241818 
L 568.412177 378.701766 
L 568.481158 377.467432 
L 568.826066 386.241818 
L 569.101992 386.241818 
L 569.170973 385.325873 
L 569.239955 385.742048 
L 569.377918 386.241818 
L 569.584862 386.241818 
L 569.653844 386.068049 
L 569.860789 382.659443 
L 569.998752 379.678873 
L 570.343659 386.241818 
L 573.516809 386.241818 
L 573.58579 382.87268 
L 573.723753 386.241818 
L 574.137642 386.241818 
L 574.206624 385.475742 
L 574.344587 377.568674 
L 574.620513 372.898287 
L 575.172365 254.23311 
L 575.241347 259.258431 
L 575.37931 266.958552 
L 575.448291 266.583506 
L 575.724217 241.820069 
L 575.931162 228.491238 
L 576.000143 229.108889 
L 576.207088 240.84891 
L 576.414032 202.970871 
L 576.896903 100.272878 
L 577.034866 119.221532 
L 577.172829 97.36399 
L 577.517737 46.543672 
L 577.586718 45.800016 
L 577.724681 56.712061 
L 577.862644 72.388338 
L 578.069589 28.678182 
L 578.621441 147.624253 
L 579.794127 386.241818 
L 585.795519 386.241818 
L 585.8645 384.104555 
L 585.933482 384.912152 
L 586.071445 386.241818 
L 586.76126 386.241818 
L 586.830241 381.468906 
L 586.968204 386.241818 
L 587.175149 386.241818 
L 587.313112 383.418101 
L 587.382093 379.95004 
L 587.451075 381.617846 
L 587.727001 386.241818 
L 590.141354 386.241818 
L 590.210335 380.866287 
L 590.279317 382.643129 
L 590.486262 386.241818 
L 590.555243 386.241818 
L 590.762188 373.580731 
L 590.831169 374.147534 
L 591.038114 386.241818 
L 594.0733 386.241818 
L 594.211263 379.16595 
L 594.349226 386.241818 
L 597.384413 386.241818 
L 597.453395 375.634256 
L 597.522376 380.923011 
L 597.660339 386.241818 
L 598.557099 386.241818 
L 598.833025 330.40867 
L 598.902006 337.486173 
L 599.246914 386.241818 
L 600.005711 386.241818 
L 600.074692 379.688744 
L 600.212655 386.241818 
L 600.4196 386.241818 
L 600.557563 362.319097 
L 600.626544 364.978394 
L 600.971452 386.241818 
L 607.179788 386.241818 
L 607.24877 384.536252 
L 607.317751 384.813292 
L 607.524696 386.241818 
L 608.697382 386.241818 
L 608.904326 363.769617 
L 608.973308 366.529561 
L 609.249234 386.241818 
L 609.732104 386.241818 
L 609.870067 364.444632 
L 610.00803 334.706133 
L 610.077012 340.832968 
L 610.352938 356.961661 
L 610.490901 361.091526 
L 610.835809 383.389203 
L 611.111735 386.241818 
L 611.387661 386.241818 
L 611.594605 348.211343 
L 611.663587 333.350889 
L 611.732568 340.904527 
L 612.008494 362.200553 
L 612.077476 362.853346 
L 612.215439 369.73161 
L 612.491365 384.480371 
L 612.629328 386.241818 
L 613.319143 386.241818 
L 613.388125 386.095924 
L 613.526088 386.241818 
L 613.939977 386.241818 
L 614.008958 385.443413 
L 614.146921 386.241818 
L 618.009886 386.241818 
L 618.285812 331.683885 
L 618.423775 337.452803 
L 618.63072 346.467215 
L 619.044609 377.23844 
L 619.182572 381.095965 
L 619.320535 386.241818 
L 619.803405 386.241818 
L 619.941369 363.285525 
L 620.01035 370.605031 
L 620.217295 383.24801 
L 620.355258 386.241818 
L 620.424239 381.626621 
L 620.493221 386.241818 
L 620.562202 385.993779 
L 620.631184 381.305324 
L 620.769147 385.529891 
L 620.90711 386.241818 
L 625.321927 386.241818 
L 625.390908 380.785106 
L 625.597853 346.010977 
L 625.873779 386.241818 
L 627.046465 386.241818 
L 627.115446 383.545247 
L 627.253409 360.682455 
L 627.391372 386.241818 
L 627.73628 317.021816 
L 627.805261 331.98952 
L 628.150169 386.241818 
L 629.805725 386.241818 
L 629.943688 374.287846 
L 630.081651 386.241818 
L 630.288596 386.241818 
L 630.357577 384.390231 
L 630.49554 354.744841 
L 630.564522 354.776338 
L 630.909429 386.241818 
L 631.047392 386.241818 
L 631.461282 305.760289 
L 631.806189 361.991457 
L 631.875171 363.037145 
L 631.944152 365.884213 
L 632.013134 358.679119 
L 632.496004 386.241818 
L 633.116838 386.241818 
L 633.185819 386.047038 
L 633.254801 380.561379 
L 633.392764 386.241818 
L 633.461745 386.241818 
L 633.599709 364.75106 
L 633.66869 349.874066 
L 633.737672 357.434741 
L 634.151561 386.241818 
L 634.703413 386.241818 
L 634.772394 385.552999 
L 634.841376 370.655203 
L 634.910357 378.246146 
L 635.04832 386.241818 
L 642.981195 386.241818 
L 643.050176 383.823428 
L 643.188139 363.955674 
L 643.395084 386.241818 
L 645.326566 386.241818 
L 645.395548 382.62532 
L 645.464529 368.554558 
L 645.533511 376.642386 
L 645.671474 386.241818 
L 646.292307 386.241818 
L 646.43027 359.928734 
L 646.499252 370.224225 
L 646.706196 386.241818 
L 656.984442 386.241818 
L 657.053424 382.699726 
L 657.191387 386.241818 
L 677.127045 386.241818 
L 677.196026 385.482275 
L 678.575656 105.626335 
L 678.782601 72.388338 
L 678.989545 28.678182 
L 678.989545 28.678182 
" clip-path="url(#p994f515078)" style="fill: none; stroke: #00395b; stroke-width: 1.5; stroke-linecap: square"/>
   </g>
   <g id="patch_3">
    <path d="M 44.57 404.12 
L 44.57 10.8 
" style="fill: none; stroke: #ffffff; stroke-width: 0.8; stroke-linejoin: miter; stroke-linecap: square"/>
   </g>
   <g id="patch_4">
    <path d="M 709.2 404.12 
L 709.2 10.8 
" style="fill: none; stroke: #ffffff; stroke-width: 0.8; stroke-linejoin: miter; stroke-linecap: square"/>
   </g>
   <g id="patch_5">
    <path d="M 44.57 404.12 
L 709.2 404.12 
" style="fill: none; stroke: #ffffff; stroke-width: 0.8; stroke-linejoin: miter; stroke-linecap: square"/>
   </g>
   <g id="patch_6">
    <path d="M 44.57 10.8 
L 709.2 10.8 
" style="fill: none; stroke: #ffffff; stroke-width: 0.8; stroke-linejoin: miter; stroke-linecap: square"/>
   </g>
  </g>
 </g>
 <defs>
  <clipPath id="p994f515078">
   <rect x="44.57" y="10.8" width="664.63" height="393.32"/>
  </clipPath>
 </defs>
</svg>
