<?xml version="1.0" encoding="utf-8" standalone="no"?>
<!DOCTYPE svg PUBLIC "-//W3C//DTD SVG 1.1//EN"
  "http://www.w3.org/Graphics/SVG/1.1/DTD/svg11.dtd">
<svg xmlns:xlink="http://www.w3.org/1999/xlink" width="720pt" height="432pt" viewBox="0 0 720 432" xmlns="http://www.w3.org/2000/svg" version="1.1">
 <metadata>
  <rdf:RDF xmlns:dc="http://purl.org/dc/elements/1.1/" xmlns:cc="http://creativecommons.org/ns#" xmlns:rdf="http://www.w3.org/1999/02/22-rdf-syntax-ns#">
   <cc:Work>
    <dc:type rdf:resource="http://purl.org/dc/dcmitype/StillImage"/>
    <dc:date>2025-05-21T10:16:08.667553</dc:date>
    <dc:format>image/svg+xml</dc:format>
    <dc:creator>
     <cc:Agent>
      <dc:title>Matplotlib v3.10.1, https://matplotlib.org/</dc:title>
     </cc:Agent>
    </dc:creator>
   </cc:Work>
  </rdf:RDF>
 </metadata>
 <defs>
  <style type="text/css">*{stroke-linejoin: round; stroke-linecap: butt}</style>
 </defs>
 <g id="figure_1">
  <g id="patch_1">
   <path d="M 0 432 
L 720 432 
L 720 0 
L 0 0 
z
"/>
  </g>
  <g id="axes_1">
   <g id="patch_2">
    <path d="M 50.87 404.12 
L 709.2 404.12 
L 709.2 10.8 
L 50.87 10.8 
z
"/>
   </g>
   <g id="matplotlib.axis_1">
    <g id="xtick_1">
     <g id="line2d_1">
      <defs>
       <path id="mdee9c82889" d="M 0 0 
L 0 3.5 
" style="stroke: #ffffff; stroke-width: 0.8"/>
      </defs>
      <g>
       <use xlink:href="#mdee9c82889" x="80.794091" y="404.12" style="fill: #ffffff; stroke: #ffffff; stroke-width: 0.8"/>
      </g>
     </g>
     <g id="text_1">
      <!-- 2019-01 -->
      <g style="fill: #ffffff" transform="translate(59.902685 418.718437) scale(0.1 -0.1)">
       <defs>
        <path id="DejaVuSans-32" d="M 1228 531 
L 3431 531 
L 3431 0 
L 469 0 
L 469 531 
Q 828 903 1448 1529 
Q 2069 2156 2228 2338 
Q 2531 2678 2651 2914 
Q 2772 3150 2772 3378 
Q 2772 3750 2511 3984 
Q 2250 4219 1831 4219 
Q 1534 4219 1204 4116 
Q 875 4013 500 3803 
L 500 4441 
Q 881 4594 1212 4672 
Q 1544 4750 1819 4750 
Q 2544 4750 2975 4387 
Q 3406 4025 3406 3419 
Q 3406 3131 3298 2873 
Q 3191 2616 2906 2266 
Q 2828 2175 2409 1742 
Q 1991 1309 1228 531 
z
" transform="scale(0.015625)"/>
        <path id="DejaVuSans-30" d="M 2034 4250 
Q 1547 4250 1301 3770 
Q 1056 3291 1056 2328 
Q 1056 1369 1301 889 
Q 1547 409 2034 409 
Q 2525 409 2770 889 
Q 3016 1369 3016 2328 
Q 3016 3291 2770 3770 
Q 2525 4250 2034 4250 
z
M 2034 4750 
Q 2819 4750 3233 4129 
Q 3647 3509 3647 2328 
Q 3647 1150 3233 529 
Q 2819 -91 2034 -91 
Q 1250 -91 836 529 
Q 422 1150 422 2328 
Q 422 3509 836 4129 
Q 1250 4750 2034 4750 
z
" transform="scale(0.015625)"/>
        <path id="DejaVuSans-31" d="M 794 531 
L 1825 531 
L 1825 4091 
L 703 3866 
L 703 4441 
L 1819 4666 
L 2450 4666 
L 2450 531 
L 3481 531 
L 3481 0 
L 794 0 
L 794 531 
z
" transform="scale(0.015625)"/>
        <path id="DejaVuSans-39" d="M 703 97 
L 703 672 
Q 941 559 1184 500 
Q 1428 441 1663 441 
Q 2288 441 2617 861 
Q 2947 1281 2994 2138 
Q 2813 1869 2534 1725 
Q 2256 1581 1919 1581 
Q 1219 1581 811 2004 
Q 403 2428 403 3163 
Q 403 3881 828 4315 
Q 1253 4750 1959 4750 
Q 2769 4750 3195 4129 
Q 3622 3509 3622 2328 
Q 3622 1225 3098 567 
Q 2575 -91 1691 -91 
Q 1453 -91 1209 -44 
Q 966 3 703 97 
z
M 1959 2075 
Q 2384 2075 2632 2365 
Q 2881 2656 2881 3163 
Q 2881 3666 2632 3958 
Q 2384 4250 1959 4250 
Q 1534 4250 1286 3958 
Q 1038 3666 1038 3163 
Q 1038 2656 1286 2365 
Q 1534 2075 1959 2075 
z
" transform="scale(0.015625)"/>
        <path id="DejaVuSans-2d" d="M 313 2009 
L 1997 2009 
L 1997 1497 
L 313 1497 
L 313 2009 
z
" transform="scale(0.015625)"/>
       </defs>
       <use xlink:href="#DejaVuSans-32"/>
       <use xlink:href="#DejaVuSans-30" transform="translate(63.623047 0)"/>
       <use xlink:href="#DejaVuSans-31" transform="translate(127.246094 0)"/>
       <use xlink:href="#DejaVuSans-39" transform="translate(190.869141 0)"/>
       <use xlink:href="#DejaVuSans-2d" transform="translate(254.492188 0)"/>
       <use xlink:href="#DejaVuSans-30" transform="translate(290.576172 0)"/>
       <use xlink:href="#DejaVuSans-31" transform="translate(354.199219 0)"/>
      </g>
     </g>
    </g>
    <g id="xtick_2">
     <g id="line2d_2">
      <g>
       <use xlink:href="#mdee9c82889" x="177.546032" y="404.12" style="fill: #ffffff; stroke: #ffffff; stroke-width: 0.8"/>
      </g>
     </g>
     <g id="text_2">
      <!-- 2019-03 -->
      <g style="fill: #ffffff" transform="translate(156.654626 418.718437) scale(0.1 -0.1)">
       <defs>
        <path id="DejaVuSans-33" d="M 2597 2516 
Q 3050 2419 3304 2112 
Q 3559 1806 3559 1356 
Q 3559 666 3084 287 
Q 2609 -91 1734 -91 
Q 1441 -91 1130 -33 
Q 819 25 488 141 
L 488 750 
Q 750 597 1062 519 
Q 1375 441 1716 441 
Q 2309 441 2620 675 
Q 2931 909 2931 1356 
Q 2931 1769 2642 2001 
Q 2353 2234 1838 2234 
L 1294 2234 
L 1294 2753 
L 1863 2753 
Q 2328 2753 2575 2939 
Q 2822 3125 2822 3475 
Q 2822 3834 2567 4026 
Q 2313 4219 1838 4219 
Q 1578 4219 1281 4162 
Q 984 4106 628 3988 
L 628 4550 
Q 988 4650 1302 4700 
Q 1616 4750 1894 4750 
Q 2613 4750 3031 4423 
Q 3450 4097 3450 3541 
Q 3450 3153 3228 2886 
Q 3006 2619 2597 2516 
z
" transform="scale(0.015625)"/>
       </defs>
       <use xlink:href="#DejaVuSans-32"/>
       <use xlink:href="#DejaVuSans-30" transform="translate(63.623047 0)"/>
       <use xlink:href="#DejaVuSans-31" transform="translate(127.246094 0)"/>
       <use xlink:href="#DejaVuSans-39" transform="translate(190.869141 0)"/>
       <use xlink:href="#DejaVuSans-2d" transform="translate(254.492188 0)"/>
       <use xlink:href="#DejaVuSans-30" transform="translate(290.576172 0)"/>
       <use xlink:href="#DejaVuSans-33" transform="translate(354.199219 0)"/>
      </g>
     </g>
    </g>
    <g id="xtick_3">
     <g id="line2d_3">
      <g>
       <use xlink:href="#mdee9c82889" x="277.5777" y="404.12" style="fill: #ffffff; stroke: #ffffff; stroke-width: 0.8"/>
      </g>
     </g>
     <g id="text_3">
      <!-- 2019-05 -->
      <g style="fill: #ffffff" transform="translate(256.686294 418.718437) scale(0.1 -0.1)">
       <defs>
        <path id="DejaVuSans-35" d="M 691 4666 
L 3169 4666 
L 3169 4134 
L 1269 4134 
L 1269 2991 
Q 1406 3038 1543 3061 
Q 1681 3084 1819 3084 
Q 2600 3084 3056 2656 
Q 3513 2228 3513 1497 
Q 3513 744 3044 326 
Q 2575 -91 1722 -91 
Q 1428 -91 1123 -41 
Q 819 9 494 109 
L 494 744 
Q 775 591 1075 516 
Q 1375 441 1709 441 
Q 2250 441 2565 725 
Q 2881 1009 2881 1497 
Q 2881 1984 2565 2268 
Q 2250 2553 1709 2553 
Q 1456 2553 1204 2497 
Q 953 2441 691 2322 
L 691 4666 
z
" transform="scale(0.015625)"/>
       </defs>
       <use xlink:href="#DejaVuSans-32"/>
       <use xlink:href="#DejaVuSans-30" transform="translate(63.623047 0)"/>
       <use xlink:href="#DejaVuSans-31" transform="translate(127.246094 0)"/>
       <use xlink:href="#DejaVuSans-39" transform="translate(190.869141 0)"/>
       <use xlink:href="#DejaVuSans-2d" transform="translate(254.492188 0)"/>
       <use xlink:href="#DejaVuSans-30" transform="translate(290.576172 0)"/>
       <use xlink:href="#DejaVuSans-35" transform="translate(354.199219 0)"/>
      </g>
     </g>
    </g>
    <g id="xtick_4">
     <g id="line2d_4">
      <g>
       <use xlink:href="#mdee9c82889" x="377.609369" y="404.12" style="fill: #ffffff; stroke: #ffffff; stroke-width: 0.8"/>
      </g>
     </g>
     <g id="text_4">
      <!-- 2019-07 -->
      <g style="fill: #ffffff" transform="translate(356.717962 418.718437) scale(0.1 -0.1)">
       <defs>
        <path id="DejaVuSans-37" d="M 525 4666 
L 3525 4666 
L 3525 4397 
L 1831 0 
L 1172 0 
L 2766 4134 
L 525 4134 
L 525 4666 
z
" transform="scale(0.015625)"/>
       </defs>
       <use xlink:href="#DejaVuSans-32"/>
       <use xlink:href="#DejaVuSans-30" transform="translate(63.623047 0)"/>
       <use xlink:href="#DejaVuSans-31" transform="translate(127.246094 0)"/>
       <use xlink:href="#DejaVuSans-39" transform="translate(190.869141 0)"/>
       <use xlink:href="#DejaVuSans-2d" transform="translate(254.492188 0)"/>
       <use xlink:href="#DejaVuSans-30" transform="translate(290.576172 0)"/>
       <use xlink:href="#DejaVuSans-37" transform="translate(354.199219 0)"/>
      </g>
     </g>
    </g>
    <g id="xtick_5">
     <g id="line2d_5">
      <g>
       <use xlink:href="#mdee9c82889" x="479.2809" y="404.12" style="fill: #ffffff; stroke: #ffffff; stroke-width: 0.8"/>
      </g>
     </g>
     <g id="text_5">
      <!-- 2019-09 -->
      <g style="fill: #ffffff" transform="translate(458.389494 418.718437) scale(0.1 -0.1)">
       <use xlink:href="#DejaVuSans-32"/>
       <use xlink:href="#DejaVuSans-30" transform="translate(63.623047 0)"/>
       <use xlink:href="#DejaVuSans-31" transform="translate(127.246094 0)"/>
       <use xlink:href="#DejaVuSans-39" transform="translate(190.869141 0)"/>
       <use xlink:href="#DejaVuSans-2d" transform="translate(254.492188 0)"/>
       <use xlink:href="#DejaVuSans-30" transform="translate(290.576172 0)"/>
       <use xlink:href="#DejaVuSans-39" transform="translate(354.199219 0)"/>
      </g>
     </g>
    </g>
    <g id="xtick_6">
     <g id="line2d_6">
      <g>
       <use xlink:href="#mdee9c82889" x="579.312569" y="404.12" style="fill: #ffffff; stroke: #ffffff; stroke-width: 0.8"/>
      </g>
     </g>
     <g id="text_6">
      <!-- 2019-11 -->
      <g style="fill: #ffffff" transform="translate(558.421162 418.718437) scale(0.1 -0.1)">
       <use xlink:href="#DejaVuSans-32"/>
       <use xlink:href="#DejaVuSans-30" transform="translate(63.623047 0)"/>
       <use xlink:href="#DejaVuSans-31" transform="translate(127.246094 0)"/>
       <use xlink:href="#DejaVuSans-39" transform="translate(190.869141 0)"/>
       <use xlink:href="#DejaVuSans-2d" transform="translate(254.492188 0)"/>
       <use xlink:href="#DejaVuSans-31" transform="translate(290.576172 0)"/>
       <use xlink:href="#DejaVuSans-31" transform="translate(354.199219 0)"/>
      </g>
     </g>
    </g>
    <g id="xtick_7">
     <g id="line2d_7">
      <g>
       <use xlink:href="#mdee9c82889" x="679.344237" y="404.12" style="fill: #ffffff; stroke: #ffffff; stroke-width: 0.8"/>
      </g>
     </g>
     <g id="text_7">
      <!-- 2020-01 -->
      <g style="fill: #ffffff" transform="translate(658.45283 418.718437) scale(0.1 -0.1)">
       <use xlink:href="#DejaVuSans-32"/>
       <use xlink:href="#DejaVuSans-30" transform="translate(63.623047 0)"/>
       <use xlink:href="#DejaVuSans-32" transform="translate(127.246094 0)"/>
       <use xlink:href="#DejaVuSans-30" transform="translate(190.869141 0)"/>
       <use xlink:href="#DejaVuSans-2d" transform="translate(254.492188 0)"/>
       <use xlink:href="#DejaVuSans-30" transform="translate(290.576172 0)"/>
       <use xlink:href="#DejaVuSans-31" transform="translate(354.199219 0)"/>
      </g>
     </g>
    </g>
   </g>
   <g id="matplotlib.axis_2">
    <g id="ytick_1">
     <g id="line2d_8">
      <path d="M 50.87 386.241818 
L 709.2 386.241818 
" clip-path="url(#pb064f0e98b)" style="fill: none; stroke: #ffffff; stroke-width: 0.8; stroke-linecap: square"/>
     </g>
     <g id="line2d_9">
      <defs>
       <path id="m59c328528a" d="M 0 0 
L -3.5 0 
" style="stroke: #ffffff; stroke-width: 0.8"/>
      </defs>
      <g>
       <use xlink:href="#m59c328528a" x="50.87" y="386.241818" style="fill: #ffffff; stroke: #ffffff; stroke-width: 0.8"/>
      </g>
     </g>
     <g id="text_8">
      <!-- 0 -->
      <g style="fill: #ffffff" transform="translate(37.5075 390.041037) scale(0.1 -0.1)">
       <use xlink:href="#DejaVuSans-30"/>
      </g>
     </g>
    </g>
    <g id="ytick_2">
     <g id="line2d_10">
      <path d="M 50.87 313.707812 
L 709.2 313.707812 
" clip-path="url(#pb064f0e98b)" style="fill: none; stroke: #ffffff; stroke-width: 0.8; stroke-linecap: square"/>
     </g>
     <g id="line2d_11">
      <g>
       <use xlink:href="#m59c328528a" x="50.87" y="313.707812" style="fill: #ffffff; stroke: #ffffff; stroke-width: 0.8"/>
      </g>
     </g>
     <g id="text_9">
      <!-- 20 -->
      <g style="fill: #ffffff" transform="translate(31.145 317.507031) scale(0.1 -0.1)">
       <use xlink:href="#DejaVuSans-32"/>
       <use xlink:href="#DejaVuSans-30" transform="translate(63.623047 0)"/>
      </g>
     </g>
    </g>
    <g id="ytick_3">
     <g id="line2d_12">
      <path d="M 50.87 241.173806 
L 709.2 241.173806 
" clip-path="url(#pb064f0e98b)" style="fill: none; stroke: #ffffff; stroke-width: 0.8; stroke-linecap: square"/>
     </g>
     <g id="line2d_13">
      <g>
       <use xlink:href="#m59c328528a" x="50.87" y="241.173806" style="fill: #ffffff; stroke: #ffffff; stroke-width: 0.8"/>
      </g>
     </g>
     <g id="text_10">
      <!-- 40 -->
      <g style="fill: #ffffff" transform="translate(31.145 244.973025) scale(0.1 -0.1)">
       <defs>
        <path id="DejaVuSans-34" d="M 2419 4116 
L 825 1625 
L 2419 1625 
L 2419 4116 
z
M 2253 4666 
L 3047 4666 
L 3047 1625 
L 3713 1625 
L 3713 1100 
L 3047 1100 
L 3047 0 
L 2419 0 
L 2419 1100 
L 313 1100 
L 313 1709 
L 2253 4666 
z
" transform="scale(0.015625)"/>
       </defs>
       <use xlink:href="#DejaVuSans-34"/>
       <use xlink:href="#DejaVuSans-30" transform="translate(63.623047 0)"/>
      </g>
     </g>
    </g>
    <g id="ytick_4">
     <g id="line2d_14">
      <path d="M 50.87 168.6398 
L 709.2 168.6398 
" clip-path="url(#pb064f0e98b)" style="fill: none; stroke: #ffffff; stroke-width: 0.8; stroke-linecap: square"/>
     </g>
     <g id="line2d_15">
      <g>
       <use xlink:href="#m59c328528a" x="50.87" y="168.6398" style="fill: #ffffff; stroke: #ffffff; stroke-width: 0.8"/>
      </g>
     </g>
     <g id="text_11">
      <!-- 60 -->
      <g style="fill: #ffffff" transform="translate(31.145 172.439019) scale(0.1 -0.1)">
       <defs>
        <path id="DejaVuSans-36" d="M 2113 2584 
Q 1688 2584 1439 2293 
Q 1191 2003 1191 1497 
Q 1191 994 1439 701 
Q 1688 409 2113 409 
Q 2538 409 2786 701 
Q 3034 994 3034 1497 
Q 3034 2003 2786 2293 
Q 2538 2584 2113 2584 
z
M 3366 4563 
L 3366 3988 
Q 3128 4100 2886 4159 
Q 2644 4219 2406 4219 
Q 1781 4219 1451 3797 
Q 1122 3375 1075 2522 
Q 1259 2794 1537 2939 
Q 1816 3084 2150 3084 
Q 2853 3084 3261 2657 
Q 3669 2231 3669 1497 
Q 3669 778 3244 343 
Q 2819 -91 2113 -91 
Q 1303 -91 875 529 
Q 447 1150 447 2328 
Q 447 3434 972 4092 
Q 1497 4750 2381 4750 
Q 2619 4750 2861 4703 
Q 3103 4656 3366 4563 
z
" transform="scale(0.015625)"/>
       </defs>
       <use xlink:href="#DejaVuSans-36"/>
       <use xlink:href="#DejaVuSans-30" transform="translate(63.623047 0)"/>
      </g>
     </g>
    </g>
    <g id="ytick_5">
     <g id="line2d_16">
      <path d="M 50.87 96.105794 
L 709.2 96.105794 
" clip-path="url(#pb064f0e98b)" style="fill: none; stroke: #ffffff; stroke-width: 0.8; stroke-linecap: square"/>
     </g>
     <g id="line2d_17">
      <g>
       <use xlink:href="#m59c328528a" x="50.87" y="96.105794" style="fill: #ffffff; stroke: #ffffff; stroke-width: 0.8"/>
      </g>
     </g>
     <g id="text_12">
      <!-- 80 -->
      <g style="fill: #ffffff" transform="translate(31.145 99.905013) scale(0.1 -0.1)">
       <defs>
        <path id="DejaVuSans-38" d="M 2034 2216 
Q 1584 2216 1326 1975 
Q 1069 1734 1069 1313 
Q 1069 891 1326 650 
Q 1584 409 2034 409 
Q 2484 409 2743 651 
Q 3003 894 3003 1313 
Q 3003 1734 2745 1975 
Q 2488 2216 2034 2216 
z
M 1403 2484 
Q 997 2584 770 2862 
Q 544 3141 544 3541 
Q 544 4100 942 4425 
Q 1341 4750 2034 4750 
Q 2731 4750 3128 4425 
Q 3525 4100 3525 3541 
Q 3525 3141 3298 2862 
Q 3072 2584 2669 2484 
Q 3125 2378 3379 2068 
Q 3634 1759 3634 1313 
Q 3634 634 3220 271 
Q 2806 -91 2034 -91 
Q 1263 -91 848 271 
Q 434 634 434 1313 
Q 434 1759 690 2068 
Q 947 2378 1403 2484 
z
M 1172 3481 
Q 1172 3119 1398 2916 
Q 1625 2713 2034 2713 
Q 2441 2713 2670 2916 
Q 2900 3119 2900 3481 
Q 2900 3844 2670 4047 
Q 2441 4250 2034 4250 
Q 1625 4250 1398 4047 
Q 1172 3844 1172 3481 
z
" transform="scale(0.015625)"/>
       </defs>
       <use xlink:href="#DejaVuSans-38"/>
       <use xlink:href="#DejaVuSans-30" transform="translate(63.623047 0)"/>
      </g>
     </g>
    </g>
    <g id="ytick_6">
     <g id="line2d_18">
      <path d="M 50.87 23.571788 
L 709.2 23.571788 
" clip-path="url(#pb064f0e98b)" style="fill: none; stroke: #ffffff; stroke-width: 0.8; stroke-linecap: square"/>
     </g>
     <g id="line2d_19">
      <g>
       <use xlink:href="#m59c328528a" x="50.87" y="23.571788" style="fill: #ffffff; stroke: #ffffff; stroke-width: 0.8"/>
      </g>
     </g>
     <g id="text_13">
      <!-- 100 -->
      <g style="fill: #ffffff" transform="translate(24.7825 27.371007) scale(0.1 -0.1)">
       <use xlink:href="#DejaVuSans-31"/>
       <use xlink:href="#DejaVuSans-30" transform="translate(63.623047 0)"/>
       <use xlink:href="#DejaVuSans-30" transform="translate(127.246094 0)"/>
      </g>
     </g>
    </g>
    <g id="text_14">
     <!-- Hourly heat storage content in MWh -->
     <g style="fill: #ffffff" transform="translate(18.702813 298.188906) rotate(-90) scale(0.1 -0.1)">
      <defs>
       <path id="DejaVuSans-48" d="M 628 4666 
L 1259 4666 
L 1259 2753 
L 3553 2753 
L 3553 4666 
L 4184 4666 
L 4184 0 
L 3553 0 
L 3553 2222 
L 1259 2222 
L 1259 0 
L 628 0 
L 628 4666 
z
" transform="scale(0.015625)"/>
       <path id="DejaVuSans-6f" d="M 1959 3097 
Q 1497 3097 1228 2736 
Q 959 2375 959 1747 
Q 959 1119 1226 758 
Q 1494 397 1959 397 
Q 2419 397 2687 759 
Q 2956 1122 2956 1747 
Q 2956 2369 2687 2733 
Q 2419 3097 1959 3097 
z
M 1959 3584 
Q 2709 3584 3137 3096 
Q 3566 2609 3566 1747 
Q 3566 888 3137 398 
Q 2709 -91 1959 -91 
Q 1206 -91 779 398 
Q 353 888 353 1747 
Q 353 2609 779 3096 
Q 1206 3584 1959 3584 
z
" transform="scale(0.015625)"/>
       <path id="DejaVuSans-75" d="M 544 1381 
L 544 3500 
L 1119 3500 
L 1119 1403 
Q 1119 906 1312 657 
Q 1506 409 1894 409 
Q 2359 409 2629 706 
Q 2900 1003 2900 1516 
L 2900 3500 
L 3475 3500 
L 3475 0 
L 2900 0 
L 2900 538 
Q 2691 219 2414 64 
Q 2138 -91 1772 -91 
Q 1169 -91 856 284 
Q 544 659 544 1381 
z
M 1991 3584 
L 1991 3584 
z
" transform="scale(0.015625)"/>
       <path id="DejaVuSans-72" d="M 2631 2963 
Q 2534 3019 2420 3045 
Q 2306 3072 2169 3072 
Q 1681 3072 1420 2755 
Q 1159 2438 1159 1844 
L 1159 0 
L 581 0 
L 581 3500 
L 1159 3500 
L 1159 2956 
Q 1341 3275 1631 3429 
Q 1922 3584 2338 3584 
Q 2397 3584 2469 3576 
Q 2541 3569 2628 3553 
L 2631 2963 
z
" transform="scale(0.015625)"/>
       <path id="DejaVuSans-6c" d="M 603 4863 
L 1178 4863 
L 1178 0 
L 603 0 
L 603 4863 
z
" transform="scale(0.015625)"/>
       <path id="DejaVuSans-79" d="M 2059 -325 
Q 1816 -950 1584 -1140 
Q 1353 -1331 966 -1331 
L 506 -1331 
L 506 -850 
L 844 -850 
Q 1081 -850 1212 -737 
Q 1344 -625 1503 -206 
L 1606 56 
L 191 3500 
L 800 3500 
L 1894 763 
L 2988 3500 
L 3597 3500 
L 2059 -325 
z
" transform="scale(0.015625)"/>
       <path id="DejaVuSans-20" transform="scale(0.015625)"/>
       <path id="DejaVuSans-68" d="M 3513 2113 
L 3513 0 
L 2938 0 
L 2938 2094 
Q 2938 2591 2744 2837 
Q 2550 3084 2163 3084 
Q 1697 3084 1428 2787 
Q 1159 2491 1159 1978 
L 1159 0 
L 581 0 
L 581 4863 
L 1159 4863 
L 1159 2956 
Q 1366 3272 1645 3428 
Q 1925 3584 2291 3584 
Q 2894 3584 3203 3211 
Q 3513 2838 3513 2113 
z
" transform="scale(0.015625)"/>
       <path id="DejaVuSans-65" d="M 3597 1894 
L 3597 1613 
L 953 1613 
Q 991 1019 1311 708 
Q 1631 397 2203 397 
Q 2534 397 2845 478 
Q 3156 559 3463 722 
L 3463 178 
Q 3153 47 2828 -22 
Q 2503 -91 2169 -91 
Q 1331 -91 842 396 
Q 353 884 353 1716 
Q 353 2575 817 3079 
Q 1281 3584 2069 3584 
Q 2775 3584 3186 3129 
Q 3597 2675 3597 1894 
z
M 3022 2063 
Q 3016 2534 2758 2815 
Q 2500 3097 2075 3097 
Q 1594 3097 1305 2825 
Q 1016 2553 972 2059 
L 3022 2063 
z
" transform="scale(0.015625)"/>
       <path id="DejaVuSans-61" d="M 2194 1759 
Q 1497 1759 1228 1600 
Q 959 1441 959 1056 
Q 959 750 1161 570 
Q 1363 391 1709 391 
Q 2188 391 2477 730 
Q 2766 1069 2766 1631 
L 2766 1759 
L 2194 1759 
z
M 3341 1997 
L 3341 0 
L 2766 0 
L 2766 531 
Q 2569 213 2275 61 
Q 1981 -91 1556 -91 
Q 1019 -91 701 211 
Q 384 513 384 1019 
Q 384 1609 779 1909 
Q 1175 2209 1959 2209 
L 2766 2209 
L 2766 2266 
Q 2766 2663 2505 2880 
Q 2244 3097 1772 3097 
Q 1472 3097 1187 3025 
Q 903 2953 641 2809 
L 641 3341 
Q 956 3463 1253 3523 
Q 1550 3584 1831 3584 
Q 2591 3584 2966 3190 
Q 3341 2797 3341 1997 
z
" transform="scale(0.015625)"/>
       <path id="DejaVuSans-74" d="M 1172 4494 
L 1172 3500 
L 2356 3500 
L 2356 3053 
L 1172 3053 
L 1172 1153 
Q 1172 725 1289 603 
Q 1406 481 1766 481 
L 2356 481 
L 2356 0 
L 1766 0 
Q 1100 0 847 248 
Q 594 497 594 1153 
L 594 3053 
L 172 3053 
L 172 3500 
L 594 3500 
L 594 4494 
L 1172 4494 
z
" transform="scale(0.015625)"/>
       <path id="DejaVuSans-73" d="M 2834 3397 
L 2834 2853 
Q 2591 2978 2328 3040 
Q 2066 3103 1784 3103 
Q 1356 3103 1142 2972 
Q 928 2841 928 2578 
Q 928 2378 1081 2264 
Q 1234 2150 1697 2047 
L 1894 2003 
Q 2506 1872 2764 1633 
Q 3022 1394 3022 966 
Q 3022 478 2636 193 
Q 2250 -91 1575 -91 
Q 1294 -91 989 -36 
Q 684 19 347 128 
L 347 722 
Q 666 556 975 473 
Q 1284 391 1588 391 
Q 1994 391 2212 530 
Q 2431 669 2431 922 
Q 2431 1156 2273 1281 
Q 2116 1406 1581 1522 
L 1381 1569 
Q 847 1681 609 1914 
Q 372 2147 372 2553 
Q 372 3047 722 3315 
Q 1072 3584 1716 3584 
Q 2034 3584 2315 3537 
Q 2597 3491 2834 3397 
z
" transform="scale(0.015625)"/>
       <path id="DejaVuSans-67" d="M 2906 1791 
Q 2906 2416 2648 2759 
Q 2391 3103 1925 3103 
Q 1463 3103 1205 2759 
Q 947 2416 947 1791 
Q 947 1169 1205 825 
Q 1463 481 1925 481 
Q 2391 481 2648 825 
Q 2906 1169 2906 1791 
z
M 3481 434 
Q 3481 -459 3084 -895 
Q 2688 -1331 1869 -1331 
Q 1566 -1331 1297 -1286 
Q 1028 -1241 775 -1147 
L 775 -588 
Q 1028 -725 1275 -790 
Q 1522 -856 1778 -856 
Q 2344 -856 2625 -561 
Q 2906 -266 2906 331 
L 2906 616 
Q 2728 306 2450 153 
Q 2172 0 1784 0 
Q 1141 0 747 490 
Q 353 981 353 1791 
Q 353 2603 747 3093 
Q 1141 3584 1784 3584 
Q 2172 3584 2450 3431 
Q 2728 3278 2906 2969 
L 2906 3500 
L 3481 3500 
L 3481 434 
z
" transform="scale(0.015625)"/>
       <path id="DejaVuSans-63" d="M 3122 3366 
L 3122 2828 
Q 2878 2963 2633 3030 
Q 2388 3097 2138 3097 
Q 1578 3097 1268 2742 
Q 959 2388 959 1747 
Q 959 1106 1268 751 
Q 1578 397 2138 397 
Q 2388 397 2633 464 
Q 2878 531 3122 666 
L 3122 134 
Q 2881 22 2623 -34 
Q 2366 -91 2075 -91 
Q 1284 -91 818 406 
Q 353 903 353 1747 
Q 353 2603 823 3093 
Q 1294 3584 2113 3584 
Q 2378 3584 2631 3529 
Q 2884 3475 3122 3366 
z
" transform="scale(0.015625)"/>
       <path id="DejaVuSans-6e" d="M 3513 2113 
L 3513 0 
L 2938 0 
L 2938 2094 
Q 2938 2591 2744 2837 
Q 2550 3084 2163 3084 
Q 1697 3084 1428 2787 
Q 1159 2491 1159 1978 
L 1159 0 
L 581 0 
L 581 3500 
L 1159 3500 
L 1159 2956 
Q 1366 3272 1645 3428 
Q 1925 3584 2291 3584 
Q 2894 3584 3203 3211 
Q 3513 2838 3513 2113 
z
" transform="scale(0.015625)"/>
       <path id="DejaVuSans-69" d="M 603 3500 
L 1178 3500 
L 1178 0 
L 603 0 
L 603 3500 
z
M 603 4863 
L 1178 4863 
L 1178 4134 
L 603 4134 
L 603 4863 
z
" transform="scale(0.015625)"/>
       <path id="DejaVuSans-4d" d="M 628 4666 
L 1569 4666 
L 2759 1491 
L 3956 4666 
L 4897 4666 
L 4897 0 
L 4281 0 
L 4281 4097 
L 3078 897 
L 2444 897 
L 1241 4097 
L 1241 0 
L 628 0 
L 628 4666 
z
" transform="scale(0.015625)"/>
       <path id="DejaVuSans-57" d="M 213 4666 
L 850 4666 
L 1831 722 
L 2809 4666 
L 3519 4666 
L 4500 722 
L 5478 4666 
L 6119 4666 
L 4947 0 
L 4153 0 
L 3169 4050 
L 2175 0 
L 1381 0 
L 213 4666 
z
" transform="scale(0.015625)"/>
      </defs>
      <use xlink:href="#DejaVuSans-48"/>
      <use xlink:href="#DejaVuSans-6f" transform="translate(75.195312 0)"/>
      <use xlink:href="#DejaVuSans-75" transform="translate(136.376953 0)"/>
      <use xlink:href="#DejaVuSans-72" transform="translate(199.755859 0)"/>
      <use xlink:href="#DejaVuSans-6c" transform="translate(240.869141 0)"/>
      <use xlink:href="#DejaVuSans-79" transform="translate(268.652344 0)"/>
      <use xlink:href="#DejaVuSans-20" transform="translate(327.832031 0)"/>
      <use xlink:href="#DejaVuSans-68" transform="translate(359.619141 0)"/>
      <use xlink:href="#DejaVuSans-65" transform="translate(422.998047 0)"/>
      <use xlink:href="#DejaVuSans-61" transform="translate(484.521484 0)"/>
      <use xlink:href="#DejaVuSans-74" transform="translate(545.800781 0)"/>
      <use xlink:href="#DejaVuSans-20" transform="translate(585.009766 0)"/>
      <use xlink:href="#DejaVuSans-73" transform="translate(616.796875 0)"/>
      <use xlink:href="#DejaVuSans-74" transform="translate(668.896484 0)"/>
      <use xlink:href="#DejaVuSans-6f" transform="translate(708.105469 0)"/>
      <use xlink:href="#DejaVuSans-72" transform="translate(769.287109 0)"/>
      <use xlink:href="#DejaVuSans-61" transform="translate(810.400391 0)"/>
      <use xlink:href="#DejaVuSans-67" transform="translate(871.679688 0)"/>
      <use xlink:href="#DejaVuSans-65" transform="translate(935.15625 0)"/>
      <use xlink:href="#DejaVuSans-20" transform="translate(996.679688 0)"/>
      <use xlink:href="#DejaVuSans-63" transform="translate(1028.466797 0)"/>
      <use xlink:href="#DejaVuSans-6f" transform="translate(1083.447266 0)"/>
      <use xlink:href="#DejaVuSans-6e" transform="translate(1144.628906 0)"/>
      <use xlink:href="#DejaVuSans-74" transform="translate(1208.007812 0)"/>
      <use xlink:href="#DejaVuSans-65" transform="translate(1247.216797 0)"/>
      <use xlink:href="#DejaVuSans-6e" transform="translate(1308.740234 0)"/>
      <use xlink:href="#DejaVuSans-74" transform="translate(1372.119141 0)"/>
      <use xlink:href="#DejaVuSans-20" transform="translate(1411.328125 0)"/>
      <use xlink:href="#DejaVuSans-69" transform="translate(1443.115234 0)"/>
      <use xlink:href="#DejaVuSans-6e" transform="translate(1470.898438 0)"/>
      <use xlink:href="#DejaVuSans-20" transform="translate(1534.277344 0)"/>
      <use xlink:href="#DejaVuSans-4d" transform="translate(1566.064453 0)"/>
      <use xlink:href="#DejaVuSans-57" transform="translate(1652.34375 0)"/>
      <use xlink:href="#DejaVuSans-68" transform="translate(1751.220703 0)"/>
     </g>
    </g>
   </g>
   <g id="line2d_20">
    <path d="M 80.794091 28.678182 
L 81.477367 155.332261 
L 82.57061 386.241818 
L 84.347128 386.241818 
L 84.483784 383.348912 
L 84.620439 386.241818 
L 85.098732 386.241818 
L 85.235388 380.780873 
L 85.440371 386.241818 
L 94.459619 386.241818 
L 94.527947 375.524319 
L 94.596275 375.535037 
L 95.074568 375.514943 
L 95.142896 375.292936 
L 95.347879 386.241818 
L 95.689517 386.241818 
L 95.757845 385.568562 
L 96.031155 356.871041 
L 96.099483 355.187984 
L 96.304466 385.033341 
L 96.577776 365.103403 
L 96.714432 356.400093 
L 96.919414 386.241818 
L 102.453953 386.241818 
L 102.522281 386.104491 
L 102.658936 386.241818 
L 108.05682 386.241818 
L 108.125148 385.740873 
L 108.261803 379.347702 
L 108.398458 386.241818 
L 109.013407 386.241818 
L 109.150062 377.368565 
L 109.286718 383.403525 
L 109.423373 386.241818 
L 111.404875 386.241818 
L 111.473202 386.063679 
L 111.54153 382.171782 
L 111.609858 382.443603 
L 111.678185 382.544697 
L 111.883168 369.056101 
L 112.634772 291.843451 
L 112.7031 290.725906 
L 112.839755 282.820515 
L 113.181393 252.606761 
L 113.386376 248.423892 
L 113.523032 235.353039 
L 113.932997 183.782126 
L 114.001325 181.681004 
L 114.13798 184.930209 
L 114.342963 215.626114 
L 114.547946 190.980343 
L 114.752929 164.265575 
L 114.957912 195.150344 
L 115.02624 193.868371 
L 115.777844 94.945286 
L 116.051154 92.875336 
L 116.324465 76.853967 
L 116.597775 87.351483 
L 116.666103 85.912557 
L 117.281052 28.678182 
L 118.237639 120.399594 
L 118.305966 122.924245 
L 118.374294 122.813388 
L 118.442622 121.901139 
L 118.852588 101.870789 
L 118.920915 102.905262 
L 119.125898 139.310921 
L 119.877502 259.690791 
L 120.014158 267.893455 
L 120.082485 267.663015 
L 120.287468 256.703739 
L 120.424123 251.093796 
L 120.492451 251.101387 
L 120.560779 252.527006 
L 120.765762 285.08969 
L 121.039072 319.954854 
L 121.244055 334.415437 
L 121.654021 386.241818 
L 122.200642 386.241818 
L 122.26897 384.471117 
L 122.405625 386.241818 
L 126.02699 386.241818 
L 126.231973 382.156134 
L 126.300301 382.982856 
L 126.436956 386.241818 
L 126.983577 386.241818 
L 127.120232 381.74822 
L 127.461871 386.241818 
L 128.62344 386.241818 
L 128.691768 384.694199 
L 128.828423 376.370376 
L 128.896751 377.648967 
L 129.101734 386.241818 
L 129.375045 386.241818 
L 129.5117 383.235519 
L 129.78501 386.241818 
L 130.399959 386.241818 
L 130.536614 385.977955 
L 130.741597 386.241818 
L 130.809925 386.241818 
L 130.878253 385.829842 
L 131.014908 380.40422 
L 131.288219 386.241818 
L 131.83484 386.241818 
L 131.903167 384.758328 
L 132.10815 373.368823 
L 132.176478 375.169034 
L 132.381461 386.241818 
L 132.518116 386.241818 
L 132.723099 381.499246 
L 132.928082 386.241818 
L 136.891085 386.241818 
L 136.959413 382.806943 
L 137.02774 384.409127 
L 137.164396 386.241818 
L 137.574362 386.241818 
L 137.642689 386.075366 
L 137.779345 383.428938 
L 137.916 386.241818 
L 228.655109 386.241818 
L 228.723436 385.832268 
L 228.791764 375.387155 
L 228.928419 386.241818 
L 231.593197 386.241818 
L 231.661525 385.189475 
L 231.79818 386.241818 
L 236.512788 386.241818 
L 236.649443 382.184296 
L 236.922753 386.241818 
L 237.264392 386.241818 
L 237.401047 384.920975 
L 237.742685 378.954659 
L 237.811013 379.421937 
L 238.084323 386.241818 
L 238.220979 386.241818 
L 238.357634 385.236509 
L 238.425962 385.559691 
L 238.562617 386.241818 
L 238.835927 386.241818 
L 238.904255 386.005483 
L 239.04091 381.001741 
L 239.314221 370.618801 
L 239.519204 365.612058 
L 239.92917 376.06055 
L 240.065825 376.304435 
L 240.134153 377.151541 
L 240.270808 386.241818 
L 240.612446 386.241818 
L 240.749101 385.653384 
L 240.885757 386.241818 
L 245.12207 386.241818 
L 245.190398 373.214466 
L 245.258726 380.839912 
L 245.395381 386.241818 
L 246.761934 386.241818 
L 246.830261 380.165579 
L 246.898589 383.497314 
L 247.035244 386.241818 
L 251.681524 386.241818 
L 251.749852 376.497938 
L 251.818179 382.491712 
L 251.954835 386.241818 
L 256.942753 386.241818 
L 257.01108 385.523132 
L 257.216063 381.971296 
L 257.284391 382.221582 
L 257.421046 381.285768 
L 257.489374 381.366285 
L 257.557701 382.545612 
L 257.694357 386.241818 
L 258.582616 386.241818 
L 258.787599 378.8372 
L 258.855927 379.112381 
L 258.924254 380.090866 
L 258.992582 379.748254 
L 259.265892 371.025681 
L 259.33422 371.105578 
L 259.812514 380.197049 
L 259.949169 386.241818 
L 260.222479 386.237592 
L 260.700773 354.510676 
L 260.769101 355.084321 
L 260.905756 370.030191 
L 261.247394 367.045613 
L 261.315722 366.451297 
L 261.384049 366.887558 
L 261.520705 374.995436 
L 261.725688 386.241818 
L 261.794015 385.940202 
L 261.93067 380.921842 
L 262.408964 341.901827 
L 262.613947 386.241818 
L 262.682274 384.791339 
L 263.023913 375.784207 
L 263.09224 375.594596 
L 263.297223 386.241818 
L 263.365551 386.190445 
L 263.638861 367.329477 
L 264.048827 346.187401 
L 264.732104 326.101107 
L 265.005414 339.092698 
L 265.073742 336.582423 
L 266.440295 275.429459 
L 266.508622 276.707469 
L 266.713605 308.379555 
L 266.986916 294.444274 
L 267.260227 270.777208 
L 267.465209 315.77403 
L 267.533537 312.844614 
L 268.080158 285.080453 
L 268.148486 285.83929 
L 268.353469 330.79097 
L 268.421796 326.033193 
L 268.763435 284.140779 
L 268.90009 265.75949 
L 269.173401 325.745306 
L 269.241728 321.086863 
L 269.583366 287.385747 
L 269.720022 275.156637 
L 270.129987 364.989215 
L 270.198315 361.267113 
L 270.608281 341.456824 
L 270.813264 386.241818 
L 270.881592 383.441406 
L 271.564868 356.530959 
L 271.701523 354.645879 
L 271.906506 343.238074 
L 272.3848 308.313969 
L 273.204731 277.260537 
L 273.341387 280.815544 
L 273.409714 280.760796 
L 273.54637 279.752526 
L 273.614697 279.785881 
L 273.888008 287.499201 
L 273.956335 289.428827 
L 274.092991 304.625024 
L 274.229646 305.509533 
L 274.434629 305.41274 
L 274.639612 310.298844 
L 274.70794 315.705439 
L 274.98125 362.634517 
L 275.049578 363.179769 
L 275.117905 362.690867 
L 275.186233 360.885961 
L 275.801182 323.98385 
L 276.006165 323.317545 
L 276.074492 324.058063 
L 276.347803 341.456824 
L 276.552786 386.241818 
L 276.621114 377.80914 
L 277.167735 329.440275 
L 277.30439 359.335894 
L 277.372718 358.905236 
L 277.509373 357.262112 
L 277.782683 341.588422 
L 277.987666 335.926802 
L 278.329305 352.996468 
L 278.602615 367.89348 
L 278.944253 386.241818 
L 279.149236 386.241818 
L 279.354219 382.732587 
L 279.422547 382.902325 
L 279.559202 386.241818 
L 289.740021 386.241818 
L 289.945004 382.712222 
L 290.013331 383.106836 
L 290.149987 386.241818 
L 290.559953 386.241818 
L 290.901591 384.323109 
L 291.038246 386.241818 
L 291.379884 386.223085 
L 291.584867 384.550925 
L 291.653195 383.638087 
L 291.926505 367.542797 
L 292.063161 386.241818 
L 292.268144 386.241818 
L 292.609782 367.634491 
L 292.678109 367.924501 
L 292.746437 371.757507 
L 292.883092 386.241818 
L 294.454628 386.241818 
L 294.522956 385.990976 
L 294.727939 386.241818 
L 294.864594 386.241818 
L 295.27456 369.401937 
L 295.411215 377.142401 
L 295.54787 386.107785 
L 295.684526 383.486519 
L 295.752853 383.822331 
L 295.957836 386.241818 
L 296.504457 386.241818 
L 296.572785 385.6682 
L 296.846096 376.475429 
L 296.914423 376.296007 
L 297.187734 386.241818 
L 297.87101 386.241818 
L 298.007666 384.627742 
L 298.075993 385.470151 
L 298.417631 372.779031 
L 299.03258 382.267205 
L 299.237563 386.241818 
L 299.442546 386.241818 
L 299.647529 381.934662 
L 300.057495 365.456873 
L 300.19415 359.200949 
L 300.262478 360.079664 
L 300.399133 358.709561 
L 300.740771 352.780293 
L 300.809099 353.777857 
L 300.945754 363.086826 
L 301.150737 386.241818 
L 301.560703 360.970548 
L 301.765686 347.303232 
L 301.970669 337.002638 
L 302.107324 335.599181 
L 302.448962 321.657216 
L 302.51729 322.696785 
L 302.585618 323.590244 
L 302.858928 350.889266 
L 302.927256 350.615749 
L 303.132239 344.016255 
L 304.020498 292.769 
L 304.088826 292.938033 
L 304.225481 294.01821 
L 304.293809 294.142471 
L 304.498792 324.710561 
L 304.908757 339.218461 
L 304.977085 339.090801 
L 305.045413 339.137955 
L 305.318723 386.241818 
L 305.387051 386.241818 
L 305.933672 365.334388 
L 306.002 364.614849 
L 306.138655 368.078518 
L 306.206983 367.479543 
L 306.343638 360.351858 
L 306.685276 329.138142 
L 306.958587 386.241818 
L 307.026914 383.180283 
L 307.231897 371.03007 
L 307.710191 337.088721 
L 307.778518 337.224316 
L 307.846846 337.784101 
L 307.915174 336.925284 
L 308.120157 321.236265 
L 308.735105 259.053036 
L 309.076744 229.812239 
L 309.76002 357.826655 
L 309.828348 349.008949 
L 309.896675 349.04618 
L 310.101658 375.401216 
L 310.169986 374.190266 
L 310.784935 303.895774 
L 311.263228 386.241818 
L 311.331556 386.241818 
L 311.536539 360.640393 
L 311.741522 385.983393 
L 312.424798 317.323897 
L 312.698109 362.205279 
L 313.108074 338.690138 
L 313.24473 326.716416 
L 313.51804 386.241818 
L 313.586368 383.731542 
L 313.996334 361.688465 
L 314.064661 362.974509 
L 314.132989 368.403499 
L 314.201317 383.319822 
L 314.269644 377.033446 
L 314.816266 321.002093 
L 315.226231 386.241818 
L 315.704525 351.863514 
L 315.909508 386.241818 
L 315.977835 386.241818 
L 316.524457 332.55672 
L 316.729439 371.32842 
L 316.866095 386.241818 
L 316.934422 386.241818 
L 317.344388 351.674495 
L 317.412716 352.506337 
L 317.822682 326.970242 
L 318.16432 307.092482 
L 318.232648 303.801828 
L 318.437631 348.699675 
L 318.505958 345.059142 
L 319.120907 312.854167 
L 319.32589 308.137356 
L 319.5992 296.613607 
L 319.804183 296.977992 
L 319.872511 297.070285 
L 320.145822 283.516954 
L 320.555787 260.269877 
L 320.624115 260.51493 
L 320.692443 275.539142 
L 320.76077 275.141506 
L 320.965753 272.606697 
L 321.444047 239.674767 
L 321.64903 284.764803 
L 321.717357 282.595366 
L 321.854013 275.843766 
L 322.195651 255.992329 
L 322.605617 345.939603 
L 322.673944 344.168871 
L 322.742272 344.210944 
L 323.015583 331.668469 
L 323.425548 316.9965 
L 323.903842 306.948919 
L 324.177152 351.871739 
L 324.382135 344.663262 
L 324.655446 326.498597 
L 324.997084 386.241818 
L 325.133739 382.604772 
L 325.612033 351.398994 
L 325.680361 351.277288 
L 325.885344 347.263596 
L 326.158654 341.316507 
L 326.226982 341.175871 
L 326.295309 342.214054 
L 326.431965 350.562331 
L 326.500292 349.810417 
L 326.56862 345.363647 
L 326.636948 360.30301 
L 326.705275 352.705025 
L 327.183569 310.705909 
L 327.320224 340.638978 
L 327.388552 339.247808 
L 327.661862 329.231649 
L 327.935173 318.805455 
L 328.071828 341.456824 
L 328.345139 386.241818 
L 328.89176 342.237174 
L 329.16507 321.670853 
L 329.575036 280.763135 
L 329.985002 365.724324 
L 330.05333 362.037754 
L 330.32664 341.49213 
L 330.736606 303.70962 
L 331.283227 235.186185 
L 331.351555 246.645293 
L 331.556538 281.182215 
L 332.034831 211.806056 
L 332.513125 287.267611 
L 332.786435 244.223807 
L 333.264729 330.811646 
L 333.333057 322.144264 
L 333.674695 279.886765 
L 334.152988 361.361628 
L 334.426299 317.741765 
L 334.767937 377.068364 
L 335.382886 286.371968 
L 335.792852 352.716393 
L 335.997835 324.357244 
L 336.066162 324.41913 
L 336.476128 386.241818 
L 337.022749 297.219574 
L 337.29606 332.853482 
L 337.364387 328.670598 
L 337.706026 269.836768 
L 338.252647 372.817121 
L 338.320974 361.833791 
L 338.594285 319.499388 
L 339.004251 386.241818 
L 339.345889 331.361577 
L 339.414217 336.655577 
L 339.755855 386.241818 
L 340.439131 281.475176 
L 341.190735 193.62952 
L 341.600701 145.459763 
L 342.010667 96.841067 
L 342.625616 28.678182 
L 343.172237 124.701408 
L 343.240565 114.771321 
L 343.650531 63.987442 
L 343.718858 79.208181 
L 343.787186 76.98938 
L 344.333807 28.678182 
L 344.402135 31.830129 
L 344.675445 90.270397 
L 344.743773 82.260626 
L 345.153739 28.678182 
L 346.110326 220.615427 
L 346.451964 263.285743 
L 346.793602 212.025192 
L 347.408551 310.605924 
L 347.545206 291.678582 
L 348.0235 386.241818 
L 348.433465 332.385496 
L 348.706776 382.519362 
L 348.911759 355.738842 
L 349.253397 296.4386 
L 349.663363 363.653328 
L 350.073329 303.115062 
L 350.483295 375.55647 
L 350.824933 321.342354 
L 351.371554 386.241818 
L 351.986503 299.127019 
L 352.533124 218.101772 
L 352.601452 230.53541 
L 352.94309 293.472942 
L 354.172987 113.638192 
L 354.241315 125.215217 
L 354.582953 187.361998 
L 354.651281 178.087336 
L 354.992919 130.441691 
L 355.334557 183.11803 
L 355.471213 158.416752 
L 356.222817 260.91737 
L 356.632783 198.890093 
L 357.247731 284.765496 
L 357.86268 365.693323 
L 358.272646 290.294629 
L 358.750939 362.851913 
L 358.819267 362.875303 
L 359.02425 324.69493 
L 359.502544 386.241818 
L 359.980837 298.942148 
L 360.390803 361.010932 
L 360.664113 311.708597 
L 361.142407 385.678279 
L 361.210735 374.874303 
L 361.552373 321.189688 
L 362.030666 386.241818 
L 362.372304 330.537094 
L 362.850598 386.241818 
L 362.918926 386.241818 
L 363.260564 336.815681 
L 363.328891 348.129637 
L 363.533874 382.01459 
L 363.94384 318.854307 
L 364.353806 386.241818 
L 365.720359 168.988932 
L 365.788687 178.156882 
L 365.99367 211.942333 
L 366.471963 138.149082 
L 366.881929 198.619262 
L 367.155239 158.31346 
L 367.633533 223.956474 
L 368.111826 140.301417 
L 368.180154 150.796413 
L 368.726775 224.663275 
L 369.546707 321.525984 
L 369.75169 282.686755 
L 370.229983 341.732413 
L 370.503294 288.429979 
L 370.91326 349.580988 
L 370.981587 339.081484 
L 371.391553 278.931909 
L 371.733191 324.650626 
L 371.801519 324.712218 
L 372.143157 268.502135 
L 372.621451 344.855234 
L 372.689778 334.83918 
L 373.031417 288.443623 
L 373.50971 365.671111 
L 373.783021 315.244692 
L 374.39797 386.241818 
L 374.466297 386.241818 
L 374.67128 367.592227 
L 374.739608 367.610876 
L 374.944591 386.241818 
L 375.012918 382.009838 
L 375.422884 303.677654 
L 375.491212 311.963815 
L 375.969505 376.588316 
L 376.037833 365.249425 
L 376.857765 218.051503 
L 377.199403 153.769179 
L 377.541041 205.789059 
L 377.951007 144.821105 
L 378.360973 208.24822 
L 378.770939 136.250001 
L 379.180904 202.512358 
L 379.59087 142.972579 
L 379.659198 143.215847 
L 380.000836 204.493939 
L 380.342474 154.837445 
L 380.820768 239.751411 
L 381.230734 179.845183 
L 381.6407 259.947841 
L 381.982338 207.155629 
L 382.460631 289.790641 
L 382.528959 280.903155 
L 382.870597 234.865788 
L 383.143908 289.967911 
L 383.212235 282.937117 
L 383.622201 237.551741 
L 383.690529 237.700432 
L 384.100495 314.259085 
L 384.510461 258.679149 
L 384.920426 345.301464 
L 385.330392 295.894661 
L 385.877013 386.241818 
L 386.355307 326.085392 
L 386.765273 276.328562 
L 387.243566 218.735444 
L 387.311894 218.90295 
L 387.858515 152.599953 
L 388.405136 89.399717 
L 388.815102 45.010338 
L 388.88343 45.35157 
L 389.088413 69.360827 
L 389.430051 28.678182 
L 389.976672 141.471949 
L 390.113327 121.838614 
L 390.181655 122.103019 
L 390.249983 122.367155 
L 390.659948 195.661347 
L 391.069914 143.700509 
L 391.616535 241.200923 
L 391.821518 213.85903 
L 392.368139 301.858639 
L 392.709778 258.177257 
L 393.393054 386.241818 
L 394.07633 386.241818 
L 394.349641 355.178736 
L 394.554624 386.241818 
L 397.56104 386.241818 
L 397.629368 375.861602 
L 397.697696 375.871982 
L 397.834351 386.241818 
L 398.107661 386.241818 
L 398.4493 332.44323 
L 398.859265 386.241818 
L 398.927593 386.241818 
L 399.474214 301.409657 
L 399.747525 354.703584 
L 399.815852 346.342338 
L 400.089163 311.603506 
L 400.567456 386.241818 
L 400.704112 386.241818 
L 400.840767 364.911813 
L 401.04575 386.241818 
L 402.275648 386.241818 
L 402.548958 348.412759 
L 402.822269 386.241818 
L 408.971756 386.241818 
L 409.176739 353.25651 
L 409.45005 386.241818 
L 409.860016 313.963375 
L 409.928343 314.035655 
L 410.338309 369.771056 
L 410.406637 369.787527 
L 411.568207 173.954247 
L 411.636535 185.79011 
L 412.0465 252.969326 
L 412.319811 209.916063 
L 412.388139 210.09239 
L 413.481381 386.241818 
L 420.4508 386.241818 
L 420.655783 350.46662 
L 420.724111 350.502395 
L 421.065749 386.241818 
L 421.33906 334.024177 
L 421.407387 341.188354 
L 421.817353 386.241818 
L 423.047251 148.605603 
L 423.115578 157.754041 
L 423.525544 205.150967 
L 423.798855 150.521367 
L 423.867182 150.757088 
L 425.165408 318.504232 
L 425.917012 386.241818 
L 426.941926 386.241818 
L 427.010254 373.355552 
L 427.078582 373.368439 
L 427.283565 386.241818 
L 431.793189 386.241818 
L 431.929844 367.069587 
L 432.0665 376.401095 
L 432.203155 355.435016 
L 432.476465 386.241818 
L 432.544793 386.241818 
L 432.886431 322.337473 
L 433.364725 385.695233 
L 433.433052 373.023489 
L 433.50138 373.036708 
L 433.638035 385.261499 
L 433.706363 374.632021 
L 433.774691 386.241818 
L 434.526295 256.819656 
L 434.594622 265.975932 
L 435.004588 327.468873 
L 435.209571 302.227989 
L 435.277899 302.312005 
L 435.756192 367.592553 
L 435.82452 368.858788 
L 436.09783 386.241818 
L 436.712779 386.241818 
L 436.917762 348.074584 
L 437.2594 386.241818 
L 438.284315 386.241818 
L 438.557626 335.922066 
L 438.967591 386.241818 
L 439.855851 386.241818 
L 440.265817 314.008966 
L 440.539127 358.081806 
L 441.017421 269.090857 
L 441.495714 340.674113 
L 441.837352 287.508246 
L 442.383974 368.238253 
L 442.452301 368.256256 
L 442.588956 346.867821 
L 442.998922 386.241818 
L 443.06725 386.241818 
L 443.135578 377.456418 
L 443.272233 386.241818 
L 443.340561 386.241818 
L 443.613871 336.181266 
L 443.750526 358.193749 
L 444.570458 217.617898 
L 444.638786 227.828855 
L 444.775441 238.098103 
L 446.005339 30.089897 
L 446.415304 91.628364 
L 446.82527 28.678182 
L 448.055168 218.980656 
L 448.328478 245.960695 
L 448.396806 246.100976 
L 448.8751 332.794385 
L 448.943427 321.985266 
L 449.216738 274.428446 
L 449.695031 353.271712 
L 450.104997 294.020182 
L 450.514963 357.19063 
L 450.788274 310.962211 
L 450.856601 311.037494 
L 451.334895 386.241818 
L 451.403222 375.386504 
L 451.881516 304.1653 
L 452.018171 331.030271 
L 452.496465 263.522668 
L 452.974758 348.100707 
L 453.043086 337.374204 
L 453.384724 285.250154 
L 453.863017 366.79683 
L 454.136328 319.65032 
L 454.204656 330.488213 
L 454.546294 386.241818 
L 455.844519 195.777981 
L 456.254485 262.69771 
L 457.484382 85.691448 
L 457.55271 76.884754 
L 457.894348 136.553077 
L 458.304314 81.43108 
L 458.645952 152.966815 
L 458.71428 143.52708 
L 459.124246 81.870353 
L 459.534212 156.85248 
L 459.944178 97.591595 
L 460.900765 275.818688 
L 461.174075 324.8591 
L 461.584041 267.352112 
L 462.062334 344.719929 
L 462.267317 308.027859 
L 462.335645 308.106076 
L 462.813939 386.241818 
L 463.223904 326.450753 
L 463.565543 386.241818 
L 463.63387 382.122763 
L 463.975508 319.023351 
L 464.453802 386.241818 
L 464.863768 318.113096 
L 465.273734 376.751341 
L 465.615372 318.042495 
L 465.6837 328.577349 
L 466.093665 386.241818 
L 466.161993 386.241818 
L 466.503631 327.349587 
L 466.571959 327.408478 
L 466.776942 361.464067 
L 467.255235 272.794342 
L 467.323563 272.907789 
L 467.665201 318.361931 
L 468.963426 88.736335 
L 469.373392 135.837801 
L 469.783358 61.70648 
L 471.149911 237.06696 
L 471.218239 237.216133 
L 471.354894 213.973601 
L 472.584791 368.764022 
L 472.721447 386.241818 
L 472.789774 381.751646 
L 472.994757 343.181646 
L 473.404723 386.241818 
L 474.429638 386.241818 
L 474.702948 330.906876 
L 475.181242 386.241818 
L 475.932846 386.241818 
L 476.342812 325.432285 
L 476.752778 386.241818 
L 477.026088 339.271599 
L 477.094416 339.318569 
L 477.504382 386.241818 
L 477.709365 386.241818 
L 477.982675 351.526638 
L 478.051003 351.561354 
L 478.324313 385.31237 
L 478.734279 315.400622 
L 478.802607 325.368731 
L 479.212573 386.241818 
L 480.44247 174.681716 
L 480.852436 247.858264 
L 481.262402 185.53408 
L 481.877351 296.209854 
L 482.4923 386.241818 
L 482.560627 375.433651 
L 482.902265 318.239436 
L 482.970593 318.307436 
L 483.243904 358.110992 
L 483.585542 301.54032 
L 483.653869 305.531826 
L 483.995508 363.81696 
L 484.132163 386.241818 
L 484.542129 313.818539 
L 484.610456 325.082961 
L 484.883767 375.197806 
L 485.36206 299.859373 
L 485.703699 361.322213 
L 486.25032 283.890645 
L 486.455303 325.924312 
L 486.52363 318.182997 
L 487.001924 256.615552 
L 487.343562 329.731238 
L 487.41189 322.733215 
L 487.890183 267.400514 
L 488.163494 327.379776 
L 488.231821 321.207368 
L 488.641787 280.928719 
L 488.983426 355.797822 
L 489.051753 348.059275 
L 489.598374 292.469685 
L 489.666702 294.88585 
L 489.940013 339.856851 
L 490.213323 306.63871 
L 490.623289 386.241818 
L 490.691617 378.237091 
L 491.16991 330.804908 
L 491.306565 324.889488 
L 491.443221 339.895715 
L 491.511548 339.942064 
L 491.853186 295.313558 
L 492.399808 386.241818 
L 492.741446 348.580215 
L 493.014756 386.241818 
L 493.903016 386.241818 
L 494.381309 332.827392 
L 494.65462 386.241818 
L 495.132913 336.544847 
L 495.406224 386.241818 
L 495.474552 386.241818 
L 495.81619 346.426462 
L 496.021173 329.541666 
L 496.362811 386.241818 
L 496.841104 340.264485 
L 497.114415 386.241818 
L 497.387726 355.967723 
L 497.661036 328.430246 
L 498.002674 386.241818 
L 498.13933 386.241818 
L 498.41264 358.193978 
L 498.617623 386.241818 
L 498.822606 386.241818 
L 499.300899 320.80995 
L 499.642538 386.241818 
L 499.915848 386.241818 
L 499.984176 380.159242 
L 500.120831 386.241818 
L 500.599125 386.241818 
L 501.009091 347.484926 
L 501.282401 386.241818 
L 501.760695 332.611962 
L 502.102333 386.241818 
L 503.400558 258.856763 
L 503.810524 348.786893 
L 503.878852 343.071801 
L 504.22049 317.814481 
L 504.630456 386.241818 
L 505.518715 386.241818 
L 505.860353 353.653664 
L 506.065336 386.241818 
L 506.201991 386.241818 
L 506.748612 361.716157 
L 506.885268 386.241818 
L 506.953595 385.871295 
L 507.158578 370.777206 
L 507.431889 350.360486 
L 507.500217 348.393828 
L 507.773527 386.241818 
L 507.841855 384.674484 
L 508.183493 366.77713 
L 508.251821 365.486756 
L 508.456804 386.241818 
L 508.730114 386.241818 
L 509.14008 367.34461 
L 509.276735 386.241818 
L 509.618373 386.241818 
L 509.823356 371.747276 
L 509.960012 386.241818 
L 510.438305 386.241818 
L 510.711616 372.663302 
L 510.848271 386.241818 
L 511.258237 386.241818 
L 511.46322 365.3983 
L 511.531547 365.419144 
L 511.73653 386.241818 
L 511.941513 386.241818 
L 512.214824 367.0716 
L 512.488134 344.931069 
L 512.693117 375.395574 
L 512.966428 353.494266 
L 513.171411 329.290684 
L 513.513049 386.241818 
L 514.196325 322.624704 
L 514.469636 295.573404 
L 514.879602 241.698731 
L 515.084585 286.782703 
L 515.152912 280.999052 
L 515.699534 213.224836 
L 516.587793 386.241818 
L 516.861104 386.241818 
L 517.202742 348.635243 
L 517.271069 339.924648 
L 517.54438 386.241818 
L 518.500967 386.241818 
L 518.910933 330.682434 
L 518.97926 330.737992 
L 519.320899 386.241818 
L 520.14083 386.241818 
L 520.619124 326.988509 
L 520.960762 386.241818 
L 521.712366 386.241818 
L 522.258987 325.764509 
L 522.600625 386.241818 
L 522.737281 386.241818 
L 522.942264 363.698157 
L 523.010591 363.720701 
L 523.215574 386.241818 
L 523.35223 386.241818 
L 523.898851 329.202153 
L 524.240489 299.765953 
L 524.513799 280.604253 
L 524.718782 263.072102 
L 524.855438 293.10039 
L 524.923765 289.022227 
L 525.538714 235.922174 
L 525.880352 213.369425 
L 526.836939 176.935384 
L 527.246905 140.290997 
L 527.38356 140.782651 
L 527.588543 131.416726 
L 527.930182 109.852011 
L 528.135165 110.680349 
L 528.27182 88.905927 
L 528.613458 37.674491 
L 528.818441 28.678182 
L 529.365062 136.601606 
L 529.43339 136.636672 
L 529.501717 135.268169 
L 529.980011 240.996769 
L 530.048338 235.077573 
L 530.116666 232.181707 
L 530.253321 240.646205 
L 530.526632 275.271516 
L 530.86827 350.168848 
L 530.936598 347.509682 
L 531.073253 344.983264 
L 531.278236 350.634726 
L 531.551547 386.241818 
L 531.619874 386.241818 
L 531.688202 386.03087 
L 531.893185 382.098755 
L 532.02984 384.10341 
L 532.166495 386.241818 
L 533.396393 386.241818 
L 533.533048 385.917966 
L 533.669704 386.241818 
L 535.036256 386.241818 
L 535.172912 385.939861 
L 535.309567 386.241818 
L 537.974345 386.241818 
L 538.111 378.706657 
L 538.452638 358.89409 
L 538.520966 358.329685 
L 538.657621 362.223805 
L 538.862604 386.241818 
L 539.750864 386.241818 
L 539.819191 385.508625 
L 539.955847 386.241818 
L 540.639123 386.241818 
L 540.775778 385.131868 
L 540.844106 385.941132 
L 540.912434 385.443975 
L 541.117417 366.159067 
L 541.254072 386.241818 
L 541.390727 386.241818 
L 541.527382 383.920779 
L 541.869021 363.852204 
L 541.937348 363.906633 
L 542.005676 365.966575 
L 542.142331 386.241818 
L 543.167246 386.241818 
L 543.303901 383.772102 
L 543.372229 384.245443 
L 543.508884 386.241818 
L 544.738782 386.241818 
L 544.807109 385.621053 
L 545.148747 372.656613 
L 545.490386 386.241818 
L 546.378645 386.241818 
L 546.583628 382.003209 
L 546.788611 379.151871 
L 546.856938 379.452124 
L 546.925266 379.84637 
L 546.993594 380.987323 
L 547.198577 386.241818 
L 548.155164 386.241818 
L 548.428474 372.588879 
L 548.496802 371.782298 
L 548.56513 373.174303 
L 548.770112 385.465173 
L 548.83844 385.1462 
L 548.975095 386.241818 
L 549.453389 386.241818 
L 549.521717 385.106061 
L 550.00001 366.650858 
L 550.136665 367.577044 
L 550.204993 369.898064 
L 550.341648 386.241818 
L 550.683286 386.241818 
L 550.751614 382.16118 
L 550.819942 382.165261 
L 550.956597 386.241818 
L 551.366563 386.168684 
L 551.503218 379.43879 
L 551.708201 370.442041 
L 551.776529 369.59046 
L 551.844856 371.880453 
L 551.981512 386.241818 
L 553.006426 386.241818 
L 553.279737 363.174349 
L 553.48472 350.384333 
L 553.75803 386.241818 
L 553.826358 386.241818 
L 554.167996 385.304691 
L 554.304651 386.241818 
L 554.509634 386.241818 
L 554.64629 378.931389 
L 554.9196 364.594567 
L 554.987928 362.432341 
L 555.056256 362.560725 
L 555.124583 363.32728 
L 555.329566 386.241818 
L 556.286153 386.241818 
L 556.354481 384.522162 
L 556.696119 363.409337 
L 556.764447 366.202369 
L 556.901102 386.241818 
L 557.789361 386.241818 
L 557.857689 386.00911 
L 558.199327 378.85949 
L 558.267655 379.403024 
L 558.540965 386.241818 
L 561.137416 386.241818 
L 561.342399 384.261543 
L 561.547382 381.378144 
L 561.752364 386.241818 
L 562.777279 386.241818 
L 562.845607 386.012736 
L 563.05059 379.720581 
L 563.187245 380.97959 
L 563.3239 386.241818 
L 564.417143 386.241818 
L 564.48547 386.038123 
L 564.553798 386.142901 
L 564.622125 386.241818 
L 564.690453 385.954709 
L 564.827108 382.482161 
L 565.032091 386.241818 
L 566.193661 386.241818 
L 566.466972 378.471727 
L 566.671955 386.241818 
L 567.833525 386.241818 
L 568.175163 379.478796 
L 568.448473 386.241818 
L 569.336733 386.241818 
L 569.815026 372.141619 
L 569.951682 376.265359 
L 570.224992 386.241818 
L 570.429975 386.241818 
L 570.56663 384.062677 
L 570.771613 386.241818 
L 570.908269 386.241818 
L 571.113251 382.02212 
L 571.318234 375.038099 
L 571.386562 375.813936 
L 571.45489 376.520091 
L 571.796528 386.241818 
L 574.734616 386.241818 
L 574.802944 381.037217 
L 574.871272 381.042422 
L 575.007927 386.241818 
L 575.144582 386.241818 
L 575.486221 350.08042 
L 575.554548 344.897732 
L 575.622876 345.392389 
L 575.759531 344.832499 
L 575.896186 346.292626 
L 576.442808 228.716584 
L 576.511135 234.665924 
L 576.716118 245.347652 
L 576.921101 232.829708 
L 577.194412 219.260057 
L 577.331067 225.485495 
L 577.467722 235.84066 
L 577.604377 214.535482 
L 578.150999 97.132777 
L 578.355982 117.495837 
L 578.765947 42.017069 
L 578.834275 42.633271 
L 578.97093 55.313369 
L 579.107586 72.388338 
L 579.312569 28.678182 
L 579.585879 84.916136 
L 581.02076 382.745063 
L 581.157415 386.241818 
L 586.965264 386.241818 
L 587.033592 381.857694 
L 587.10192 383.878498 
L 587.238575 386.241818 
L 587.921851 386.241818 
L 587.990179 375.533896 
L 588.058507 381.194977 
L 588.26349 383.92268 
L 588.468473 377.252171 
L 588.5368 375.328104 
L 588.878438 386.241818 
L 591.201578 386.241818 
L 591.269906 377.443147 
L 591.338234 377.451946 
L 591.611544 386.241818 
L 591.884855 371.364551 
L 591.953182 373.163739 
L 592.158165 386.241818 
L 595.164582 386.241818 
L 595.232909 378.210593 
L 595.301237 378.218624 
L 595.437892 386.241818 
L 598.444308 386.241818 
L 598.512636 373.896183 
L 598.580964 380.05576 
L 598.717619 386.241818 
L 599.469223 386.241818 
L 599.605878 384.175544 
L 599.879189 327.014393 
L 599.947516 334.831107 
L 600.357482 386.241818 
L 601.040759 386.241818 
L 601.109086 378.915836 
L 601.245742 386.241818 
L 601.450725 386.241818 
L 601.58738 359.044804 
L 601.655708 362.778463 
L 601.997346 386.241818 
L 608.146834 386.241818 
L 608.215161 380.841392 
L 608.283489 382.373608 
L 608.488472 386.241818 
L 609.650042 386.241818 
L 609.786697 358.675439 
L 609.855025 359.105543 
L 609.99168 370.155719 
L 610.196663 386.241818 
L 610.606629 386.241818 
L 610.743284 365.28359 
L 610.948267 320.695629 
L 611.016595 327.644627 
L 611.289905 347.689515 
L 611.42656 354.070497 
L 611.768199 381.058371 
L 612.041509 386.241818 
L 612.246492 386.241818 
L 612.383147 365.322528 
L 612.58813 320.73445 
L 612.656458 328.999899 
L 612.998096 355.697651 
L 613.134751 364.611825 
L 613.408062 383.341209 
L 613.544717 386.241818 
L 614.159666 386.241818 
L 614.296321 384.833275 
L 614.432977 386.241818 
L 618.805946 386.241818 
L 619.010929 347.609235 
L 619.147584 317.90439 
L 619.215912 322.549599 
L 619.489222 337.997224 
L 619.899188 374.101398 
L 620.240826 386.241818 
L 620.582464 386.241818 
L 620.787447 345.289064 
L 620.855775 353.341372 
L 621.060758 368.887053 
L 621.402396 379.786147 
L 621.470724 379.792603 
L 621.675707 386.241818 
L 626.117003 386.241818 
L 626.321986 345.219823 
L 626.390314 345.260845 
L 626.663625 386.241818 
L 627.825195 386.241818 
L 628.030177 360.087241 
L 628.166833 386.241818 
L 628.440143 334.57034 
L 628.508471 319.723525 
L 628.918437 386.241818 
L 630.489973 386.241818 
L 630.694955 363.485278 
L 630.899938 386.241818 
L 630.968266 386.241818 
L 631.104921 364.814849 
L 631.241577 336.75052 
L 631.309904 336.80001 
L 631.583215 386.241818 
L 631.651542 386.241818 
L 631.71987 385.435144 
L 632.198164 291.155978 
L 632.539802 349.484768 
L 632.813112 361.541693 
L 633.154751 386.241818 
L 633.838027 386.241818 
L 633.906355 379.715243 
L 633.974682 379.72177 
L 634.111338 386.241818 
L 634.179665 386.241818 
L 634.384648 344.991928 
L 634.452976 353.254882 
L 634.862942 386.241818 
L 635.409563 386.241818 
L 635.47789 384.194147 
L 635.546218 369.29771 
L 635.614546 377.583505 
L 635.751201 386.241818 
L 643.60888 386.241818 
L 643.813863 363.110267 
L 644.018846 386.241818 
L 645.93202 386.241818 
L 646.068675 367.35763 
L 646.137003 376.10233 
L 646.273658 386.241818 
L 646.888607 386.241818 
L 647.025262 358.11478 
L 647.298573 386.241818 
L 657.479391 386.241818 
L 657.547719 381.69667 
L 657.684374 386.241818 
L 677.431063 386.241818 
L 678.114339 241.308857 
L 678.797616 112.009266 
L 679.139254 57.803704 
L 679.275909 28.678182 
L 679.275909 28.678182 
" clip-path="url(#pb064f0e98b)" style="fill: none; stroke: #00395b; stroke-width: 1.5; stroke-linecap: square"/>
   </g>
   <g id="patch_3">
    <path d="M 50.87 404.12 
L 50.87 10.8 
" style="fill: none; stroke: #ffffff; stroke-width: 0.8; stroke-linejoin: miter; stroke-linecap: square"/>
   </g>
   <g id="patch_4">
    <path d="M 709.2 404.12 
L 709.2 10.8 
" style="fill: none; stroke: #ffffff; stroke-width: 0.8; stroke-linejoin: miter; stroke-linecap: square"/>
   </g>
   <g id="patch_5">
    <path d="M 50.87 404.12 
L 709.2 404.12 
" style="fill: none; stroke: #ffffff; stroke-width: 0.8; stroke-linejoin: miter; stroke-linecap: square"/>
   </g>
   <g id="patch_6">
    <path d="M 50.87 10.8 
L 709.2 10.8 
" style="fill: none; stroke: #ffffff; stroke-width: 0.8; stroke-linejoin: miter; stroke-linecap: square"/>
   </g>
  </g>
 </g>
 <defs>
  <clipPath id="pb064f0e98b">
   <rect x="50.87" y="10.8" width="658.33" height="393.32"/>
  </clipPath>
 </defs>
</svg>
