<?xml version="1.0" encoding="utf-8" standalone="no"?>
<!DOCTYPE svg PUBLIC "-//W3C//DTD SVG 1.1//EN"
  "http://www.w3.org/Graphics/SVG/1.1/DTD/svg11.dtd">
<svg xmlns:xlink="http://www.w3.org/1999/xlink" width="720pt" height="432pt" viewBox="0 0 720 432" xmlns="http://www.w3.org/2000/svg" version="1.1">
 <metadata>
  <rdf:RDF xmlns:dc="http://purl.org/dc/elements/1.1/" xmlns:cc="http://creativecommons.org/ns#" xmlns:rdf="http://www.w3.org/1999/02/22-rdf-syntax-ns#">
   <cc:Work>
    <dc:type rdf:resource="http://purl.org/dc/dcmitype/StillImage"/>
    <dc:date>2025-05-23T08:48:52.621485</dc:date>
    <dc:format>image/svg+xml</dc:format>
    <dc:creator>
     <cc:Agent>
      <dc:title>Matplotlib v3.10.1, https://matplotlib.org/</dc:title>
     </cc:Agent>
    </dc:creator>
   </cc:Work>
  </rdf:RDF>
 </metadata>
 <defs>
  <style type="text/css">*{stroke-linejoin: round; stroke-linecap: butt}</style>
 </defs>
 <g id="figure_1">
  <g id="patch_1">
   <path d="M 0 432 
L 720 432 
L 720 0 
L 0 0 
z
"/>
  </g>
  <g id="axes_1">
   <g id="patch_2">
    <path d="M 50.87 404.12 
L 709.2 404.12 
L 709.2 10.8 
L 50.87 10.8 
z
"/>
   </g>
   <g id="matplotlib.axis_1">
    <g id="xtick_1">
     <g id="line2d_1">
      <defs>
       <path id="m3e5e5a8a5c" d="M 0 0 
L 0 3.5 
" style="stroke: #ffffff; stroke-width: 0.8"/>
      </defs>
      <g>
       <use xlink:href="#m3e5e5a8a5c" x="80.794091" y="404.12" style="fill: #ffffff; stroke: #ffffff; stroke-width: 0.8"/>
      </g>
     </g>
     <g id="text_1">
      <!-- 2019-01 -->
      <g style="fill: #ffffff" transform="translate(59.902685 418.718437) scale(0.1 -0.1)">
       <defs>
        <path id="DejaVuSans-32" d="M 1228 531 
L 3431 531 
L 3431 0 
L 469 0 
L 469 531 
Q 828 903 1448 1529 
Q 2069 2156 2228 2338 
Q 2531 2678 2651 2914 
Q 2772 3150 2772 3378 
Q 2772 3750 2511 3984 
Q 2250 4219 1831 4219 
Q 1534 4219 1204 4116 
Q 875 4013 500 3803 
L 500 4441 
Q 881 4594 1212 4672 
Q 1544 4750 1819 4750 
Q 2544 4750 2975 4387 
Q 3406 4025 3406 3419 
Q 3406 3131 3298 2873 
Q 3191 2616 2906 2266 
Q 2828 2175 2409 1742 
Q 1991 1309 1228 531 
z
" transform="scale(0.015625)"/>
        <path id="DejaVuSans-30" d="M 2034 4250 
Q 1547 4250 1301 3770 
Q 1056 3291 1056 2328 
Q 1056 1369 1301 889 
Q 1547 409 2034 409 
Q 2525 409 2770 889 
Q 3016 1369 3016 2328 
Q 3016 3291 2770 3770 
Q 2525 4250 2034 4250 
z
M 2034 4750 
Q 2819 4750 3233 4129 
Q 3647 3509 3647 2328 
Q 3647 1150 3233 529 
Q 2819 -91 2034 -91 
Q 1250 -91 836 529 
Q 422 1150 422 2328 
Q 422 3509 836 4129 
Q 1250 4750 2034 4750 
z
" transform="scale(0.015625)"/>
        <path id="DejaVuSans-31" d="M 794 531 
L 1825 531 
L 1825 4091 
L 703 3866 
L 703 4441 
L 1819 4666 
L 2450 4666 
L 2450 531 
L 3481 531 
L 3481 0 
L 794 0 
L 794 531 
z
" transform="scale(0.015625)"/>
        <path id="DejaVuSans-39" d="M 703 97 
L 703 672 
Q 941 559 1184 500 
Q 1428 441 1663 441 
Q 2288 441 2617 861 
Q 2947 1281 2994 2138 
Q 2813 1869 2534 1725 
Q 2256 1581 1919 1581 
Q 1219 1581 811 2004 
Q 403 2428 403 3163 
Q 403 3881 828 4315 
Q 1253 4750 1959 4750 
Q 2769 4750 3195 4129 
Q 3622 3509 3622 2328 
Q 3622 1225 3098 567 
Q 2575 -91 1691 -91 
Q 1453 -91 1209 -44 
Q 966 3 703 97 
z
M 1959 2075 
Q 2384 2075 2632 2365 
Q 2881 2656 2881 3163 
Q 2881 3666 2632 3958 
Q 2384 4250 1959 4250 
Q 1534 4250 1286 3958 
Q 1038 3666 1038 3163 
Q 1038 2656 1286 2365 
Q 1534 2075 1959 2075 
z
" transform="scale(0.015625)"/>
        <path id="DejaVuSans-2d" d="M 313 2009 
L 1997 2009 
L 1997 1497 
L 313 1497 
L 313 2009 
z
" transform="scale(0.015625)"/>
       </defs>
       <use xlink:href="#DejaVuSans-32"/>
       <use xlink:href="#DejaVuSans-30" transform="translate(63.623047 0)"/>
       <use xlink:href="#DejaVuSans-31" transform="translate(127.246094 0)"/>
       <use xlink:href="#DejaVuSans-39" transform="translate(190.869141 0)"/>
       <use xlink:href="#DejaVuSans-2d" transform="translate(254.492188 0)"/>
       <use xlink:href="#DejaVuSans-30" transform="translate(290.576172 0)"/>
       <use xlink:href="#DejaVuSans-31" transform="translate(354.199219 0)"/>
      </g>
     </g>
    </g>
    <g id="xtick_2">
     <g id="line2d_2">
      <g>
       <use xlink:href="#m3e5e5a8a5c" x="177.546032" y="404.12" style="fill: #ffffff; stroke: #ffffff; stroke-width: 0.8"/>
      </g>
     </g>
     <g id="text_2">
      <!-- 2019-03 -->
      <g style="fill: #ffffff" transform="translate(156.654626 418.718437) scale(0.1 -0.1)">
       <defs>
        <path id="DejaVuSans-33" d="M 2597 2516 
Q 3050 2419 3304 2112 
Q 3559 1806 3559 1356 
Q 3559 666 3084 287 
Q 2609 -91 1734 -91 
Q 1441 -91 1130 -33 
Q 819 25 488 141 
L 488 750 
Q 750 597 1062 519 
Q 1375 441 1716 441 
Q 2309 441 2620 675 
Q 2931 909 2931 1356 
Q 2931 1769 2642 2001 
Q 2353 2234 1838 2234 
L 1294 2234 
L 1294 2753 
L 1863 2753 
Q 2328 2753 2575 2939 
Q 2822 3125 2822 3475 
Q 2822 3834 2567 4026 
Q 2313 4219 1838 4219 
Q 1578 4219 1281 4162 
Q 984 4106 628 3988 
L 628 4550 
Q 988 4650 1302 4700 
Q 1616 4750 1894 4750 
Q 2613 4750 3031 4423 
Q 3450 4097 3450 3541 
Q 3450 3153 3228 2886 
Q 3006 2619 2597 2516 
z
" transform="scale(0.015625)"/>
       </defs>
       <use xlink:href="#DejaVuSans-32"/>
       <use xlink:href="#DejaVuSans-30" transform="translate(63.623047 0)"/>
       <use xlink:href="#DejaVuSans-31" transform="translate(127.246094 0)"/>
       <use xlink:href="#DejaVuSans-39" transform="translate(190.869141 0)"/>
       <use xlink:href="#DejaVuSans-2d" transform="translate(254.492188 0)"/>
       <use xlink:href="#DejaVuSans-30" transform="translate(290.576172 0)"/>
       <use xlink:href="#DejaVuSans-33" transform="translate(354.199219 0)"/>
      </g>
     </g>
    </g>
    <g id="xtick_3">
     <g id="line2d_3">
      <g>
       <use xlink:href="#m3e5e5a8a5c" x="277.5777" y="404.12" style="fill: #ffffff; stroke: #ffffff; stroke-width: 0.8"/>
      </g>
     </g>
     <g id="text_3">
      <!-- 2019-05 -->
      <g style="fill: #ffffff" transform="translate(256.686294 418.718437) scale(0.1 -0.1)">
       <defs>
        <path id="DejaVuSans-35" d="M 691 4666 
L 3169 4666 
L 3169 4134 
L 1269 4134 
L 1269 2991 
Q 1406 3038 1543 3061 
Q 1681 3084 1819 3084 
Q 2600 3084 3056 2656 
Q 3513 2228 3513 1497 
Q 3513 744 3044 326 
Q 2575 -91 1722 -91 
Q 1428 -91 1123 -41 
Q 819 9 494 109 
L 494 744 
Q 775 591 1075 516 
Q 1375 441 1709 441 
Q 2250 441 2565 725 
Q 2881 1009 2881 1497 
Q 2881 1984 2565 2268 
Q 2250 2553 1709 2553 
Q 1456 2553 1204 2497 
Q 953 2441 691 2322 
L 691 4666 
z
" transform="scale(0.015625)"/>
       </defs>
       <use xlink:href="#DejaVuSans-32"/>
       <use xlink:href="#DejaVuSans-30" transform="translate(63.623047 0)"/>
       <use xlink:href="#DejaVuSans-31" transform="translate(127.246094 0)"/>
       <use xlink:href="#DejaVuSans-39" transform="translate(190.869141 0)"/>
       <use xlink:href="#DejaVuSans-2d" transform="translate(254.492188 0)"/>
       <use xlink:href="#DejaVuSans-30" transform="translate(290.576172 0)"/>
       <use xlink:href="#DejaVuSans-35" transform="translate(354.199219 0)"/>
      </g>
     </g>
    </g>
    <g id="xtick_4">
     <g id="line2d_4">
      <g>
       <use xlink:href="#m3e5e5a8a5c" x="377.609369" y="404.12" style="fill: #ffffff; stroke: #ffffff; stroke-width: 0.8"/>
      </g>
     </g>
     <g id="text_4">
      <!-- 2019-07 -->
      <g style="fill: #ffffff" transform="translate(356.717962 418.718437) scale(0.1 -0.1)">
       <defs>
        <path id="DejaVuSans-37" d="M 525 4666 
L 3525 4666 
L 3525 4397 
L 1831 0 
L 1172 0 
L 2766 4134 
L 525 4134 
L 525 4666 
z
" transform="scale(0.015625)"/>
       </defs>
       <use xlink:href="#DejaVuSans-32"/>
       <use xlink:href="#DejaVuSans-30" transform="translate(63.623047 0)"/>
       <use xlink:href="#DejaVuSans-31" transform="translate(127.246094 0)"/>
       <use xlink:href="#DejaVuSans-39" transform="translate(190.869141 0)"/>
       <use xlink:href="#DejaVuSans-2d" transform="translate(254.492188 0)"/>
       <use xlink:href="#DejaVuSans-30" transform="translate(290.576172 0)"/>
       <use xlink:href="#DejaVuSans-37" transform="translate(354.199219 0)"/>
      </g>
     </g>
    </g>
    <g id="xtick_5">
     <g id="line2d_5">
      <g>
       <use xlink:href="#m3e5e5a8a5c" x="479.2809" y="404.12" style="fill: #ffffff; stroke: #ffffff; stroke-width: 0.8"/>
      </g>
     </g>
     <g id="text_5">
      <!-- 2019-09 -->
      <g style="fill: #ffffff" transform="translate(458.389494 418.718437) scale(0.1 -0.1)">
       <use xlink:href="#DejaVuSans-32"/>
       <use xlink:href="#DejaVuSans-30" transform="translate(63.623047 0)"/>
       <use xlink:href="#DejaVuSans-31" transform="translate(127.246094 0)"/>
       <use xlink:href="#DejaVuSans-39" transform="translate(190.869141 0)"/>
       <use xlink:href="#DejaVuSans-2d" transform="translate(254.492188 0)"/>
       <use xlink:href="#DejaVuSans-30" transform="translate(290.576172 0)"/>
       <use xlink:href="#DejaVuSans-39" transform="translate(354.199219 0)"/>
      </g>
     </g>
    </g>
    <g id="xtick_6">
     <g id="line2d_6">
      <g>
       <use xlink:href="#m3e5e5a8a5c" x="579.312569" y="404.12" style="fill: #ffffff; stroke: #ffffff; stroke-width: 0.8"/>
      </g>
     </g>
     <g id="text_6">
      <!-- 2019-11 -->
      <g style="fill: #ffffff" transform="translate(558.421162 418.718437) scale(0.1 -0.1)">
       <use xlink:href="#DejaVuSans-32"/>
       <use xlink:href="#DejaVuSans-30" transform="translate(63.623047 0)"/>
       <use xlink:href="#DejaVuSans-31" transform="translate(127.246094 0)"/>
       <use xlink:href="#DejaVuSans-39" transform="translate(190.869141 0)"/>
       <use xlink:href="#DejaVuSans-2d" transform="translate(254.492188 0)"/>
       <use xlink:href="#DejaVuSans-31" transform="translate(290.576172 0)"/>
       <use xlink:href="#DejaVuSans-31" transform="translate(354.199219 0)"/>
      </g>
     </g>
    </g>
    <g id="xtick_7">
     <g id="line2d_7">
      <g>
       <use xlink:href="#m3e5e5a8a5c" x="679.344237" y="404.12" style="fill: #ffffff; stroke: #ffffff; stroke-width: 0.8"/>
      </g>
     </g>
     <g id="text_7">
      <!-- 2020-01 -->
      <g style="fill: #ffffff" transform="translate(658.45283 418.718437) scale(0.1 -0.1)">
       <use xlink:href="#DejaVuSans-32"/>
       <use xlink:href="#DejaVuSans-30" transform="translate(63.623047 0)"/>
       <use xlink:href="#DejaVuSans-32" transform="translate(127.246094 0)"/>
       <use xlink:href="#DejaVuSans-30" transform="translate(190.869141 0)"/>
       <use xlink:href="#DejaVuSans-2d" transform="translate(254.492188 0)"/>
       <use xlink:href="#DejaVuSans-30" transform="translate(290.576172 0)"/>
       <use xlink:href="#DejaVuSans-31" transform="translate(354.199219 0)"/>
      </g>
     </g>
    </g>
   </g>
   <g id="matplotlib.axis_2">
    <g id="ytick_1">
     <g id="line2d_8">
      <path d="M 50.87 386.241818 
L 709.2 386.241818 
" clip-path="url(#pd9eac66903)" style="fill: none; stroke: #ffffff; stroke-width: 0.8; stroke-linecap: square"/>
     </g>
     <g id="line2d_9">
      <defs>
       <path id="m7f72aacf21" d="M 0 0 
L -3.5 0 
" style="stroke: #ffffff; stroke-width: 0.8"/>
      </defs>
      <g>
       <use xlink:href="#m7f72aacf21" x="50.87" y="386.241818" style="fill: #ffffff; stroke: #ffffff; stroke-width: 0.8"/>
      </g>
     </g>
     <g id="text_8">
      <!-- 0 -->
      <g style="fill: #ffffff" transform="translate(37.5075 390.041037) scale(0.1 -0.1)">
       <use xlink:href="#DejaVuSans-30"/>
      </g>
     </g>
    </g>
    <g id="ytick_2">
     <g id="line2d_10">
      <path d="M 50.87 320.364716 
L 709.2 320.364716 
" clip-path="url(#pd9eac66903)" style="fill: none; stroke: #ffffff; stroke-width: 0.8; stroke-linecap: square"/>
     </g>
     <g id="line2d_11">
      <g>
       <use xlink:href="#m7f72aacf21" x="50.87" y="320.364716" style="fill: #ffffff; stroke: #ffffff; stroke-width: 0.8"/>
      </g>
     </g>
     <g id="text_9">
      <!-- 100 -->
      <g style="fill: #ffffff" transform="translate(24.7825 324.163935) scale(0.1 -0.1)">
       <use xlink:href="#DejaVuSans-31"/>
       <use xlink:href="#DejaVuSans-30" transform="translate(63.623047 0)"/>
       <use xlink:href="#DejaVuSans-30" transform="translate(127.246094 0)"/>
      </g>
     </g>
    </g>
    <g id="ytick_3">
     <g id="line2d_12">
      <path d="M 50.87 254.487614 
L 709.2 254.487614 
" clip-path="url(#pd9eac66903)" style="fill: none; stroke: #ffffff; stroke-width: 0.8; stroke-linecap: square"/>
     </g>
     <g id="line2d_13">
      <g>
       <use xlink:href="#m7f72aacf21" x="50.87" y="254.487614" style="fill: #ffffff; stroke: #ffffff; stroke-width: 0.8"/>
      </g>
     </g>
     <g id="text_10">
      <!-- 200 -->
      <g style="fill: #ffffff" transform="translate(24.7825 258.286833) scale(0.1 -0.1)">
       <use xlink:href="#DejaVuSans-32"/>
       <use xlink:href="#DejaVuSans-30" transform="translate(63.623047 0)"/>
       <use xlink:href="#DejaVuSans-30" transform="translate(127.246094 0)"/>
      </g>
     </g>
    </g>
    <g id="ytick_4">
     <g id="line2d_14">
      <path d="M 50.87 188.610512 
L 709.2 188.610512 
" clip-path="url(#pd9eac66903)" style="fill: none; stroke: #ffffff; stroke-width: 0.8; stroke-linecap: square"/>
     </g>
     <g id="line2d_15">
      <g>
       <use xlink:href="#m7f72aacf21" x="50.87" y="188.610512" style="fill: #ffffff; stroke: #ffffff; stroke-width: 0.8"/>
      </g>
     </g>
     <g id="text_11">
      <!-- 300 -->
      <g style="fill: #ffffff" transform="translate(24.7825 192.409731) scale(0.1 -0.1)">
       <use xlink:href="#DejaVuSans-33"/>
       <use xlink:href="#DejaVuSans-30" transform="translate(63.623047 0)"/>
       <use xlink:href="#DejaVuSans-30" transform="translate(127.246094 0)"/>
      </g>
     </g>
    </g>
    <g id="ytick_5">
     <g id="line2d_16">
      <path d="M 50.87 122.73341 
L 709.2 122.73341 
" clip-path="url(#pd9eac66903)" style="fill: none; stroke: #ffffff; stroke-width: 0.8; stroke-linecap: square"/>
     </g>
     <g id="line2d_17">
      <g>
       <use xlink:href="#m7f72aacf21" x="50.87" y="122.73341" style="fill: #ffffff; stroke: #ffffff; stroke-width: 0.8"/>
      </g>
     </g>
     <g id="text_12">
      <!-- 400 -->
      <g style="fill: #ffffff" transform="translate(24.7825 126.532629) scale(0.1 -0.1)">
       <defs>
        <path id="DejaVuSans-34" d="M 2419 4116 
L 825 1625 
L 2419 1625 
L 2419 4116 
z
M 2253 4666 
L 3047 4666 
L 3047 1625 
L 3713 1625 
L 3713 1100 
L 3047 1100 
L 3047 0 
L 2419 0 
L 2419 1100 
L 313 1100 
L 313 1709 
L 2253 4666 
z
" transform="scale(0.015625)"/>
       </defs>
       <use xlink:href="#DejaVuSans-34"/>
       <use xlink:href="#DejaVuSans-30" transform="translate(63.623047 0)"/>
       <use xlink:href="#DejaVuSans-30" transform="translate(127.246094 0)"/>
      </g>
     </g>
    </g>
    <g id="ytick_6">
     <g id="line2d_18">
      <path d="M 50.87 56.856308 
L 709.2 56.856308 
" clip-path="url(#pd9eac66903)" style="fill: none; stroke: #ffffff; stroke-width: 0.8; stroke-linecap: square"/>
     </g>
     <g id="line2d_19">
      <g>
       <use xlink:href="#m7f72aacf21" x="50.87" y="56.856308" style="fill: #ffffff; stroke: #ffffff; stroke-width: 0.8"/>
      </g>
     </g>
     <g id="text_13">
      <!-- 500 -->
      <g style="fill: #ffffff" transform="translate(24.7825 60.655527) scale(0.1 -0.1)">
       <use xlink:href="#DejaVuSans-35"/>
       <use xlink:href="#DejaVuSans-30" transform="translate(63.623047 0)"/>
       <use xlink:href="#DejaVuSans-30" transform="translate(127.246094 0)"/>
      </g>
     </g>
    </g>
    <g id="text_14">
     <!-- Hourly heat storage content in MWh -->
     <g style="fill: #ffffff" transform="translate(18.702813 298.188906) rotate(-90) scale(0.1 -0.1)">
      <defs>
       <path id="DejaVuSans-48" d="M 628 4666 
L 1259 4666 
L 1259 2753 
L 3553 2753 
L 3553 4666 
L 4184 4666 
L 4184 0 
L 3553 0 
L 3553 2222 
L 1259 2222 
L 1259 0 
L 628 0 
L 628 4666 
z
" transform="scale(0.015625)"/>
       <path id="DejaVuSans-6f" d="M 1959 3097 
Q 1497 3097 1228 2736 
Q 959 2375 959 1747 
Q 959 1119 1226 758 
Q 1494 397 1959 397 
Q 2419 397 2687 759 
Q 2956 1122 2956 1747 
Q 2956 2369 2687 2733 
Q 2419 3097 1959 3097 
z
M 1959 3584 
Q 2709 3584 3137 3096 
Q 3566 2609 3566 1747 
Q 3566 888 3137 398 
Q 2709 -91 1959 -91 
Q 1206 -91 779 398 
Q 353 888 353 1747 
Q 353 2609 779 3096 
Q 1206 3584 1959 3584 
z
" transform="scale(0.015625)"/>
       <path id="DejaVuSans-75" d="M 544 1381 
L 544 3500 
L 1119 3500 
L 1119 1403 
Q 1119 906 1312 657 
Q 1506 409 1894 409 
Q 2359 409 2629 706 
Q 2900 1003 2900 1516 
L 2900 3500 
L 3475 3500 
L 3475 0 
L 2900 0 
L 2900 538 
Q 2691 219 2414 64 
Q 2138 -91 1772 -91 
Q 1169 -91 856 284 
Q 544 659 544 1381 
z
M 1991 3584 
L 1991 3584 
z
" transform="scale(0.015625)"/>
       <path id="DejaVuSans-72" d="M 2631 2963 
Q 2534 3019 2420 3045 
Q 2306 3072 2169 3072 
Q 1681 3072 1420 2755 
Q 1159 2438 1159 1844 
L 1159 0 
L 581 0 
L 581 3500 
L 1159 3500 
L 1159 2956 
Q 1341 3275 1631 3429 
Q 1922 3584 2338 3584 
Q 2397 3584 2469 3576 
Q 2541 3569 2628 3553 
L 2631 2963 
z
" transform="scale(0.015625)"/>
       <path id="DejaVuSans-6c" d="M 603 4863 
L 1178 4863 
L 1178 0 
L 603 0 
L 603 4863 
z
" transform="scale(0.015625)"/>
       <path id="DejaVuSans-79" d="M 2059 -325 
Q 1816 -950 1584 -1140 
Q 1353 -1331 966 -1331 
L 506 -1331 
L 506 -850 
L 844 -850 
Q 1081 -850 1212 -737 
Q 1344 -625 1503 -206 
L 1606 56 
L 191 3500 
L 800 3500 
L 1894 763 
L 2988 3500 
L 3597 3500 
L 2059 -325 
z
" transform="scale(0.015625)"/>
       <path id="DejaVuSans-20" transform="scale(0.015625)"/>
       <path id="DejaVuSans-68" d="M 3513 2113 
L 3513 0 
L 2938 0 
L 2938 2094 
Q 2938 2591 2744 2837 
Q 2550 3084 2163 3084 
Q 1697 3084 1428 2787 
Q 1159 2491 1159 1978 
L 1159 0 
L 581 0 
L 581 4863 
L 1159 4863 
L 1159 2956 
Q 1366 3272 1645 3428 
Q 1925 3584 2291 3584 
Q 2894 3584 3203 3211 
Q 3513 2838 3513 2113 
z
" transform="scale(0.015625)"/>
       <path id="DejaVuSans-65" d="M 3597 1894 
L 3597 1613 
L 953 1613 
Q 991 1019 1311 708 
Q 1631 397 2203 397 
Q 2534 397 2845 478 
Q 3156 559 3463 722 
L 3463 178 
Q 3153 47 2828 -22 
Q 2503 -91 2169 -91 
Q 1331 -91 842 396 
Q 353 884 353 1716 
Q 353 2575 817 3079 
Q 1281 3584 2069 3584 
Q 2775 3584 3186 3129 
Q 3597 2675 3597 1894 
z
M 3022 2063 
Q 3016 2534 2758 2815 
Q 2500 3097 2075 3097 
Q 1594 3097 1305 2825 
Q 1016 2553 972 2059 
L 3022 2063 
z
" transform="scale(0.015625)"/>
       <path id="DejaVuSans-61" d="M 2194 1759 
Q 1497 1759 1228 1600 
Q 959 1441 959 1056 
Q 959 750 1161 570 
Q 1363 391 1709 391 
Q 2188 391 2477 730 
Q 2766 1069 2766 1631 
L 2766 1759 
L 2194 1759 
z
M 3341 1997 
L 3341 0 
L 2766 0 
L 2766 531 
Q 2569 213 2275 61 
Q 1981 -91 1556 -91 
Q 1019 -91 701 211 
Q 384 513 384 1019 
Q 384 1609 779 1909 
Q 1175 2209 1959 2209 
L 2766 2209 
L 2766 2266 
Q 2766 2663 2505 2880 
Q 2244 3097 1772 3097 
Q 1472 3097 1187 3025 
Q 903 2953 641 2809 
L 641 3341 
Q 956 3463 1253 3523 
Q 1550 3584 1831 3584 
Q 2591 3584 2966 3190 
Q 3341 2797 3341 1997 
z
" transform="scale(0.015625)"/>
       <path id="DejaVuSans-74" d="M 1172 4494 
L 1172 3500 
L 2356 3500 
L 2356 3053 
L 1172 3053 
L 1172 1153 
Q 1172 725 1289 603 
Q 1406 481 1766 481 
L 2356 481 
L 2356 0 
L 1766 0 
Q 1100 0 847 248 
Q 594 497 594 1153 
L 594 3053 
L 172 3053 
L 172 3500 
L 594 3500 
L 594 4494 
L 1172 4494 
z
" transform="scale(0.015625)"/>
       <path id="DejaVuSans-73" d="M 2834 3397 
L 2834 2853 
Q 2591 2978 2328 3040 
Q 2066 3103 1784 3103 
Q 1356 3103 1142 2972 
Q 928 2841 928 2578 
Q 928 2378 1081 2264 
Q 1234 2150 1697 2047 
L 1894 2003 
Q 2506 1872 2764 1633 
Q 3022 1394 3022 966 
Q 3022 478 2636 193 
Q 2250 -91 1575 -91 
Q 1294 -91 989 -36 
Q 684 19 347 128 
L 347 722 
Q 666 556 975 473 
Q 1284 391 1588 391 
Q 1994 391 2212 530 
Q 2431 669 2431 922 
Q 2431 1156 2273 1281 
Q 2116 1406 1581 1522 
L 1381 1569 
Q 847 1681 609 1914 
Q 372 2147 372 2553 
Q 372 3047 722 3315 
Q 1072 3584 1716 3584 
Q 2034 3584 2315 3537 
Q 2597 3491 2834 3397 
z
" transform="scale(0.015625)"/>
       <path id="DejaVuSans-67" d="M 2906 1791 
Q 2906 2416 2648 2759 
Q 2391 3103 1925 3103 
Q 1463 3103 1205 2759 
Q 947 2416 947 1791 
Q 947 1169 1205 825 
Q 1463 481 1925 481 
Q 2391 481 2648 825 
Q 2906 1169 2906 1791 
z
M 3481 434 
Q 3481 -459 3084 -895 
Q 2688 -1331 1869 -1331 
Q 1566 -1331 1297 -1286 
Q 1028 -1241 775 -1147 
L 775 -588 
Q 1028 -725 1275 -790 
Q 1522 -856 1778 -856 
Q 2344 -856 2625 -561 
Q 2906 -266 2906 331 
L 2906 616 
Q 2728 306 2450 153 
Q 2172 0 1784 0 
Q 1141 0 747 490 
Q 353 981 353 1791 
Q 353 2603 747 3093 
Q 1141 3584 1784 3584 
Q 2172 3584 2450 3431 
Q 2728 3278 2906 2969 
L 2906 3500 
L 3481 3500 
L 3481 434 
z
" transform="scale(0.015625)"/>
       <path id="DejaVuSans-63" d="M 3122 3366 
L 3122 2828 
Q 2878 2963 2633 3030 
Q 2388 3097 2138 3097 
Q 1578 3097 1268 2742 
Q 959 2388 959 1747 
Q 959 1106 1268 751 
Q 1578 397 2138 397 
Q 2388 397 2633 464 
Q 2878 531 3122 666 
L 3122 134 
Q 2881 22 2623 -34 
Q 2366 -91 2075 -91 
Q 1284 -91 818 406 
Q 353 903 353 1747 
Q 353 2603 823 3093 
Q 1294 3584 2113 3584 
Q 2378 3584 2631 3529 
Q 2884 3475 3122 3366 
z
" transform="scale(0.015625)"/>
       <path id="DejaVuSans-6e" d="M 3513 2113 
L 3513 0 
L 2938 0 
L 2938 2094 
Q 2938 2591 2744 2837 
Q 2550 3084 2163 3084 
Q 1697 3084 1428 2787 
Q 1159 2491 1159 1978 
L 1159 0 
L 581 0 
L 581 3500 
L 1159 3500 
L 1159 2956 
Q 1366 3272 1645 3428 
Q 1925 3584 2291 3584 
Q 2894 3584 3203 3211 
Q 3513 2838 3513 2113 
z
" transform="scale(0.015625)"/>
       <path id="DejaVuSans-69" d="M 603 3500 
L 1178 3500 
L 1178 0 
L 603 0 
L 603 3500 
z
M 603 4863 
L 1178 4863 
L 1178 4134 
L 603 4134 
L 603 4863 
z
" transform="scale(0.015625)"/>
       <path id="DejaVuSans-4d" d="M 628 4666 
L 1569 4666 
L 2759 1491 
L 3956 4666 
L 4897 4666 
L 4897 0 
L 4281 0 
L 4281 4097 
L 3078 897 
L 2444 897 
L 1241 4097 
L 1241 0 
L 628 0 
L 628 4666 
z
" transform="scale(0.015625)"/>
       <path id="DejaVuSans-57" d="M 213 4666 
L 850 4666 
L 1831 722 
L 2809 4666 
L 3519 4666 
L 4500 722 
L 5478 4666 
L 6119 4666 
L 4947 0 
L 4153 0 
L 3169 4050 
L 2175 0 
L 1381 0 
L 213 4666 
z
" transform="scale(0.015625)"/>
      </defs>
      <use xlink:href="#DejaVuSans-48"/>
      <use xlink:href="#DejaVuSans-6f" transform="translate(75.195312 0)"/>
      <use xlink:href="#DejaVuSans-75" transform="translate(136.376953 0)"/>
      <use xlink:href="#DejaVuSans-72" transform="translate(199.755859 0)"/>
      <use xlink:href="#DejaVuSans-6c" transform="translate(240.869141 0)"/>
      <use xlink:href="#DejaVuSans-79" transform="translate(268.652344 0)"/>
      <use xlink:href="#DejaVuSans-20" transform="translate(327.832031 0)"/>
      <use xlink:href="#DejaVuSans-68" transform="translate(359.619141 0)"/>
      <use xlink:href="#DejaVuSans-65" transform="translate(422.998047 0)"/>
      <use xlink:href="#DejaVuSans-61" transform="translate(484.521484 0)"/>
      <use xlink:href="#DejaVuSans-74" transform="translate(545.800781 0)"/>
      <use xlink:href="#DejaVuSans-20" transform="translate(585.009766 0)"/>
      <use xlink:href="#DejaVuSans-73" transform="translate(616.796875 0)"/>
      <use xlink:href="#DejaVuSans-74" transform="translate(668.896484 0)"/>
      <use xlink:href="#DejaVuSans-6f" transform="translate(708.105469 0)"/>
      <use xlink:href="#DejaVuSans-72" transform="translate(769.287109 0)"/>
      <use xlink:href="#DejaVuSans-61" transform="translate(810.400391 0)"/>
      <use xlink:href="#DejaVuSans-67" transform="translate(871.679688 0)"/>
      <use xlink:href="#DejaVuSans-65" transform="translate(935.15625 0)"/>
      <use xlink:href="#DejaVuSans-20" transform="translate(996.679688 0)"/>
      <use xlink:href="#DejaVuSans-63" transform="translate(1028.466797 0)"/>
      <use xlink:href="#DejaVuSans-6f" transform="translate(1083.447266 0)"/>
      <use xlink:href="#DejaVuSans-6e" transform="translate(1144.628906 0)"/>
      <use xlink:href="#DejaVuSans-74" transform="translate(1208.007812 0)"/>
      <use xlink:href="#DejaVuSans-65" transform="translate(1247.216797 0)"/>
      <use xlink:href="#DejaVuSans-6e" transform="translate(1308.740234 0)"/>
      <use xlink:href="#DejaVuSans-74" transform="translate(1372.119141 0)"/>
      <use xlink:href="#DejaVuSans-20" transform="translate(1411.328125 0)"/>
      <use xlink:href="#DejaVuSans-69" transform="translate(1443.115234 0)"/>
      <use xlink:href="#DejaVuSans-6e" transform="translate(1470.898438 0)"/>
      <use xlink:href="#DejaVuSans-20" transform="translate(1534.277344 0)"/>
      <use xlink:href="#DejaVuSans-4d" transform="translate(1566.064453 0)"/>
      <use xlink:href="#DejaVuSans-57" transform="translate(1652.34375 0)"/>
      <use xlink:href="#DejaVuSans-68" transform="translate(1751.220703 0)"/>
     </g>
    </g>
   </g>
   <g id="line2d_20">
    <path d="M 80.794091 28.678182 
L 81.40904 69.156301 
L 83.048903 209.614445 
L 84.142145 320.740627 
L 84.893749 380.027521 
L 85.098732 380.046145 
L 85.16706 380.260102 
L 85.645354 386.241818 
L 86.055319 386.241818 
L 86.32863 385.216733 
L 86.533613 386.241818 
L 94.459619 386.241818 
L 94.527947 385.932196 
L 94.73293 377.118033 
L 94.801258 377.150461 
L 95.142896 380.792948 
L 95.347879 386.127517 
L 95.552862 384.280264 
L 95.8945 379.126614 
L 95.962827 379.205783 
L 96.714432 384.800373 
L 96.919414 386.241818 
L 97.192725 380.068956 
L 97.671019 363.392121 
L 97.739346 363.234056 
L 97.944329 359.40646 
L 98.354295 353.062016 
L 98.422623 353.112571 
L 98.559278 352.022908 
L 98.695933 349.495857 
L 99.515865 320.261572 
L 99.720848 317.116975 
L 100.335797 304.947801 
L 101.224056 271.655727 
L 102.112315 254.953425 
L 102.385626 244.764391 
L 102.453953 245.201249 
L 102.863919 250.143448 
L 103.000575 250.712125 
L 103.205558 250.169667 
L 103.478868 251.5124 
L 103.820506 244.196577 
L 104.093817 236.722819 
L 104.230472 235.792655 
L 104.2988 236.005273 
L 105.118732 227.356426 
L 105.323714 222.785359 
L 105.938663 202.757014 
L 106.553612 194.659539 
L 106.690267 193.678583 
L 106.89525 190.551482 
L 107.510199 172.75168 
L 107.646854 173.151818 
L 107.920165 169.365729 
L 108.125148 166.527671 
L 108.261803 168.185745 
L 108.466786 172.705119 
L 108.94508 166.957381 
L 109.081735 166.897196 
L 109.21839 169.678593 
L 109.423373 174.496093 
L 109.560028 173.774673 
L 109.765011 172.350614 
L 109.969994 174.458978 
L 110.106649 175.549784 
L 110.448288 171.243563 
L 110.789926 170.221137 
L 111.199892 173.879832 
L 111.54153 176.649332 
L 111.81484 180.82401 
L 111.883168 181.251026 
L 111.951496 181.217132 
L 112.361462 179.669422 
L 112.429789 179.741195 
L 112.498117 180.1179 
L 112.839755 184.957377 
L 112.908083 184.883542 
L 113.044738 184.353686 
L 113.249721 187.467288 
L 113.454704 190.175423 
L 113.523032 190.006119 
L 113.796342 187.60223 
L 113.932997 188.775693 
L 114.13798 193.034535 
L 114.411291 198.357965 
L 114.616274 197.369947 
L 114.684601 196.794892 
L 114.752929 196.831751 
L 114.957912 200.346564 
L 115.02624 201.455645 
L 115.094567 201.039222 
L 115.29955 199.358388 
L 115.641188 195.583828 
L 116.119482 203.678121 
L 116.324465 205.444108 
L 116.666103 213.653212 
L 117.076069 213.163066 
L 117.144397 213.350882 
L 117.281052 214.989041 
L 118.374294 252.686304 
L 118.715932 256.697488 
L 118.852588 257.790686 
L 118.989243 262.08358 
L 119.809175 302.512259 
L 120.082485 310.529094 
L 120.560779 316.468158 
L 121.790676 361.784015 
L 121.859004 361.618336 
L 122.063987 359.777474 
L 122.132314 359.920788 
L 122.200642 360.451317 
L 122.26897 359.210538 
L 122.54228 362.880737 
L 122.678936 363.224267 
L 123.225557 367.541879 
L 123.362212 365.451365 
L 124.045488 349.603837 
L 124.250471 350.850528 
L 124.387127 350.58726 
L 125.343714 338.647484 
L 125.548697 335.846605 
L 125.685352 335.67391 
L 125.753679 335.795215 
L 125.890335 335.955119 
L 126.095318 335.237409 
L 126.300301 338.664927 
L 126.573611 343.014348 
L 126.641939 342.810125 
L 126.983577 338.326358 
L 127.120232 339.77141 
L 127.461871 345.24326 
L 127.940164 348.643898 
L 128.145147 351.342963 
L 128.281802 349.585043 
L 128.62344 345.26666 
L 128.691768 345.369807 
L 128.828423 346.3193 
L 129.170062 353.540229 
L 129.238389 353.43813 
L 129.306717 353.43956 
L 129.853338 361.728335 
L 129.921666 361.427005 
L 130.058321 359.612114 
L 130.331632 356.461489 
L 130.399959 356.670702 
L 131.151563 369.051044 
L 131.424874 372.792927 
L 131.493201 373.147867 
L 131.561529 373.059758 
L 131.903167 368.676469 
L 131.971495 368.689012 
L 132.039823 369.10471 
L 132.244805 374.010205 
L 132.449788 378.089026 
L 132.791427 382.950799 
L 132.99641 386.19541 
L 133.133065 386.241818 
L 133.201392 386.055854 
L 133.406375 383.323673 
L 133.679686 378.636434 
L 133.884669 380.405571 
L 134.157979 383.080874 
L 134.226307 383.071107 
L 134.567945 384.911353 
L 134.772928 386.241818 
L 134.977911 384.126505 
L 135.319549 379.186868 
L 135.387877 379.403001 
L 135.456205 379.53723 
L 135.661188 381.790146 
L 136.002826 376.074753 
L 136.071153 376.20704 
L 136.207809 377.451888 
L 136.344464 378.674562 
L 136.75443 372.913424 
L 136.822758 372.660856 
L 136.891085 372.684567 
L 136.959413 372.939482 
L 137.301051 378.342868 
L 137.711017 381.708698 
L 138.052655 386.241818 
L 138.394293 386.241818 
L 138.599276 383.730898 
L 138.940914 386.241818 
L 140.102484 386.241818 
L 140.23914 384.61165 
L 140.307467 385.153061 
L 140.375795 385.193265 
L 140.580778 386.0402 
L 140.649105 385.929317 
L 140.854088 385.550767 
L 140.922416 385.414023 
L 141.127399 386.190135 
L 141.332382 386.241818 
L 145.705351 386.241818 
L 145.773679 385.91779 
L 145.910334 386.241818 
L 194.286305 386.241818 
L 194.354632 386.01305 
L 194.42296 385.379788 
L 194.627943 386.241818 
L 268.626779 386.241818 
L 268.831762 385.416061 
L 268.90009 385.474859 
L 269.036745 386.241818 
L 310.101658 386.164742 
L 310.374969 385.758032 
L 310.443296 385.823076 
L 310.579952 386.241818 
L 311.399883 386.210197 
L 311.604866 385.673913 
L 311.673194 385.798989 
L 311.878177 386.241818 
L 314.884593 386.202951 
L 315.021248 385.939637 
L 315.226231 386.241818 
L 326.841931 386.241818 
L 326.978586 385.905384 
L 327.115241 386.241818 
L 331.2149 386.241818 
L 332.171487 383.551563 
L 332.444797 383.478667 
L 332.991418 381.245733 
L 333.128074 381.104262 
L 333.196401 381.221391 
L 333.743022 382.01706 
L 333.81135 381.900071 
L 334.016333 383.040888 
L 334.084661 382.981505 
L 334.357971 381.753019 
L 334.494626 381.075939 
L 334.562954 381.212859 
L 334.767937 380.603932 
L 334.97292 379.735389 
L 335.314558 378.664382 
L 335.382886 378.840605 
L 335.519541 378.310875 
L 335.724524 376.777134 
L 335.861179 377.272623 
L 335.929507 377.226915 
L 336.066162 376.40333 
L 336.476128 373.825117 
L 337.159405 370.557507 
L 337.227732 370.355797 
L 337.774353 366.600019 
L 338.047664 367.559344 
L 338.320974 366.838459 
L 338.525957 365.770897 
L 338.73094 365.703907 
L 338.935923 366.406955 
L 339.072578 366.314913 
L 339.140906 366.138527 
L 339.482544 364.077916 
L 339.687527 364.080529 
L 340.234148 361.102241 
L 340.370804 361.207743 
L 340.78077 361.046892 
L 340.849097 361.289481 
L 341.122408 362.933491 
L 341.532374 364.456309 
L 341.669029 363.89607 
L 341.737357 363.919074 
L 341.874012 364.234988 
L 342.488961 367.479537 
L 342.557288 367.396848 
L 342.693944 366.708945 
L 342.762271 367.226509 
L 343.035582 366.185827 
L 343.37722 365.226683 
L 343.445548 365.351784 
L 343.650531 366.026048 
L 344.607118 372.029978 
L 344.8121 372.532313 
L 345.085411 372.094399 
L 345.153739 372.308812 
L 345.837015 378.666616 
L 346.451964 374.836683 
L 346.930257 373.057802 
L 347.545206 370.546049 
L 347.613534 370.684275 
L 347.886844 372.283188 
L 348.0235 372.302465 
L 348.29681 372.231326 
L 348.433465 372.401581 
L 348.638448 373.93129 
L 348.775104 374.986994 
L 348.843431 374.871765 
L 349.048414 373.542609 
L 349.390052 371.432625 
L 350.005001 369.139804 
L 350.073329 369.257039 
L 350.209984 369.716162 
L 350.278312 369.668787 
L 351.439882 364.114997 
L 351.78152 361.79682 
L 352.054831 362.04562 
L 352.464796 360.663809 
L 352.601452 360.383173 
L 353.011418 360.27047 
L 353.079745 360.096833 
L 353.284728 358.966534 
L 353.353056 358.957577 
L 353.489711 359.372347 
L 353.558039 359.175234 
L 354.37797 356.605374 
L 354.651281 356.430328 
L 354.787936 356.106653 
L 354.924591 355.630237 
L 355.129574 356.565036 
L 355.197902 356.499849 
L 355.402885 355.043488 
L 355.676196 353.506472 
L 355.949506 352.07842 
L 356.359472 349.224914 
L 356.906093 347.276645 
L 357.794352 338.965352 
L 358.340974 334.485984 
L 358.614284 333.297822 
L 359.229233 328.288979 
L 359.434216 327.145404 
L 360.049165 322.280948 
L 360.322475 321.081072 
L 360.869096 317.00617 
L 362.372304 311.010807 
L 362.78227 309.151913 
L 364.422134 304.674582 
L 365.515376 301.245047 
L 365.925342 298.466443 
L 366.676946 295.575123 
L 367.565205 288.731961 
L 367.906844 286.838225 
L 370.981587 261.406765 
L 371.254898 261.104304 
L 371.596536 260.663454 
L 371.938174 259.465334 
L 372.621451 257.108805 
L 372.826434 257.065491 
L 373.168072 257.404771 
L 373.2364 257.331364 
L 373.373055 256.943723 
L 373.714693 254.520823 
L 374.124659 251.885666 
L 374.329642 251.605386 
L 374.534625 251.851008 
L 374.739608 252.020075 
L 374.876263 251.943315 
L 375.081246 250.78322 
L 376.106161 243.039511 
L 376.379471 242.139096 
L 376.652782 239.969223 
L 377.26773 234.375961 
L 377.609369 233.110686 
L 378.224317 231.866504 
L 379.044249 227.711346 
L 379.385887 227.164019 
L 379.659198 227.173229 
L 379.864181 227.292572 
L 379.932509 227.199211 
L 380.069164 227.354404 
L 380.47913 227.101633 
L 380.820768 227.299271 
L 381.230734 227.008042 
L 381.367389 227.760404 
L 381.572372 228.547609 
L 381.709027 228.336039 
L 382.323976 227.063497 
L 382.733942 227.970921 
L 382.870597 228.204377 
L 383.143908 229.525799 
L 383.690529 232.730529 
L 383.895512 233.332514 
L 384.23715 233.735155 
L 384.373805 233.625884 
L 384.442133 233.744239 
L 384.647116 235.446095 
L 384.920426 237.184987 
L 385.67203 240.269788 
L 385.740358 240.204293 
L 386.081996 239.575384 
L 386.218652 240.367846 
L 386.628617 243.311274 
L 386.901928 242.7929 
L 387.038583 243.126449 
L 387.311894 245.127618 
L 387.516877 244.821355 
L 387.926843 247.519055 
L 388.268481 249.634652 
L 388.405136 249.36123 
L 388.473464 249.395347 
L 388.678447 250.509217 
L 389.15674 253.797433 
L 389.293396 254.051712 
L 389.430051 254.736801 
L 389.908344 257.413783 
L 390.113327 257.249729 
L 390.31831 257.839764 
L 390.796604 260.843826 
L 390.933259 260.924538 
L 391.001587 260.856836 
L 391.138242 261.72397 
L 391.411552 263.355568 
L 391.821518 263.979668 
L 391.958174 264.083853 
L 392.64145 264.931474 
L 393.188071 267.575925 
L 393.939675 268.942961 
L 394.281313 270.162339 
L 394.486296 272.3672 
L 394.759607 275.189599 
L 395.2379 278.376041 
L 395.511211 280.685844 
L 395.784522 281.602102 
L 395.921177 281.925908 
L 396.12616 284.022071 
L 396.331143 284.331641 
L 396.946091 283.000515 
L 397.014419 283.180834 
L 397.082747 283.23515 
L 397.834351 281.506871 
L 397.971006 281.985646 
L 398.175989 282.500508 
L 398.790938 280.550658 
L 399.474214 278.644062 
L 399.610869 278.97578 
L 400.020835 280.241615 
L 400.635784 281.032819 
L 400.909095 280.383712 
L 401.387388 284.222259 
L 401.455716 284.241277 
L 402.070665 285.709283 
L 402.138992 286.147102 
L 402.20732 285.99818 
L 402.48063 285.540367 
L 402.890596 287.940863 
L 402.958924 287.871178 
L 404.120494 284.952783 
L 404.188822 285.073839 
L 404.53046 286.840953 
L 404.598787 286.823752 
L 404.667115 286.817112 
L 404.872098 286.146239 
L 405.145409 284.291397 
L 405.623702 283.026945 
L 405.828685 282.252105 
L 406.238651 281.182749 
L 406.443634 280.236338 
L 406.785272 277.298424 
L 407.12691 275.783863 
L 407.468548 272.631967 
L 407.605204 272.324419 
L 407.741859 272.520489 
L 407.878514 271.644778 
L 408.493463 267.395271 
L 408.903429 265.587768 
L 409.245067 263.478923 
L 409.381722 263.070498 
L 409.791688 260.221551 
L 410.133326 258.060446 
L 410.406637 256.440745 
L 410.61162 255.819471 
L 411.021586 252.58563 
L 412.319811 248.723572 
L 412.456466 248.604032 
L 412.661449 248.173479 
L 412.729777 248.291122 
L 413.276398 249.33953 
L 413.344726 249.317006 
L 413.686364 248.601186 
L 413.959674 247.003271 
L 414.301313 246.345442 
L 414.437968 245.966648 
L 415.189572 239.982563 
L 415.804521 236.13258 
L 416.761108 228.397752 
L 416.966091 226.064201 
L 417.307729 222.423055 
L 417.991005 216.950328 
L 418.332643 213.513262 
L 418.742609 210.271892 
L 419.01592 207.622716 
L 420.4508 195.584157 
L 420.860766 192.358643 
L 421.270732 188.837242 
L 421.61237 185.708395 
L 422.022336 182.427933 
L 422.637285 176.887267 
L 423.388889 171.025753 
L 423.867182 166.267562 
L 424.482131 162.361814 
L 424.960425 158.040994 
L 425.233735 155.816153 
L 425.643701 151.988028 
L 428.103496 136.06017 
L 428.240152 136.667096 
L 428.308479 136.590573 
L 428.445135 135.854245 
L 428.786773 133.385758 
L 428.991756 133.455765 
L 429.128411 133.384947 
L 430.494964 125.07349 
L 430.563291 125.268124 
L 430.631619 125.226062 
L 430.699947 125.138583 
L 431.109913 122.716065 
L 431.451551 121.215404 
L 431.656534 120.281333 
L 432.0665 118.45767 
L 432.271482 118.405272 
L 432.33981 118.328571 
L 433.706363 110.895387 
L 433.911346 110.961712 
L 434.116329 110.832369 
L 434.66295 107.62735 
L 434.731278 107.654972 
L 434.867933 107.642976 
L 435.277899 105.642262 
L 435.346226 105.676478 
L 435.482882 105.719792 
L 435.687865 104.095625 
L 436.234486 98.463436 
L 436.98609 94.530501 
L 437.2594 94.628704 
L 438.42097 88.40424 
L 438.625953 87.672965 
L 438.899264 87.620204 
L 439.035919 87.573859 
L 439.30923 86.066308 
L 439.58254 84.564705 
L 439.650868 84.571253 
L 440.197489 81.975399 
L 440.265817 82.007593 
L 440.539127 81.966927 
L 441.154076 79.317633 
L 441.222404 79.342601 
L 441.359059 78.853121 
L 441.564042 77.93036 
L 441.632369 78.002173 
L 442.042335 78.49861 
L 442.110663 78.426903 
L 442.452301 76.577317 
L 442.520629 76.59712 
L 442.588956 76.577383 
L 442.793939 75.680763 
L 442.998922 75.673694 
L 443.477216 72.930723 
L 443.682199 72.423568 
L 444.023837 72.343218 
L 444.160492 71.752491 
L 444.50213 70.283096 
L 444.912096 68.993697 
L 445.322062 67.270029 
L 445.6637 66.646311 
L 445.800356 66.54573 
L 446.073666 66.184315 
L 446.210321 66.171601 
L 446.55196 64.314947 
L 446.756943 63.420184 
L 447.030253 63.59385 
L 447.166908 63.635701 
L 447.303564 63.057109 
L 447.576874 61.751274 
L 447.645202 61.777341 
L 447.98684 61.886144 
L 448.396806 60.070248 
L 448.465134 60.150038 
L 448.943427 61.813251 
L 449.14841 60.943785 
L 449.490048 61.145033 
L 449.968342 61.534775 
L 450.514963 63.808892 
L 450.651618 63.856231 
L 450.788274 63.21727 
L 450.924929 62.442759 
L 450.993256 62.522813 
L 451.608205 62.493498 
L 451.744861 62.492114 
L 452.496465 65.492994 
L 452.63312 65.538943 
L 452.769775 65.997059 
L 453.043086 66.848752 
L 453.316396 66.962133 
L 453.453052 67.47934 
L 453.863017 70.094602 
L 453.999673 70.071407 
L 454.204656 69.285855 
L 454.819604 69.41668 
L 455.092915 69.014889 
L 455.161243 69.047525 
L 455.434553 70.513962 
L 455.707864 71.623063 
L 456.322813 71.650072 
L 456.459468 70.945642 
L 456.527795 70.999411 
L 456.869434 71.094531 
L 457.2794 72.966527 
L 457.689365 74.497643 
L 458.167659 75.413862 
L 458.440969 77.283836 
L 458.71428 79.177467 
L 459.124246 79.35017 
L 459.602539 80.823946 
L 459.944178 81.289895 
L 460.354143 83.969762 
L 460.559126 84.464769 
L 460.764109 84.564995 
L 461.242403 86.044931 
L 461.515713 86.594069 
L 461.994007 88.918226 
L 462.062334 88.972469 
L 462.335645 88.05909 
L 462.403973 88.09772 
L 462.4723 88.147504 
L 463.087249 89.686683 
L 463.155577 89.721044 
L 463.565543 91.319657 
L 463.63387 91.315494 
L 464.043836 89.385433 
L 464.112164 89.433932 
L 464.52213 89.662703 
L 464.727113 88.587088 
L 464.79544 88.677235 
L 465.137078 89.381329 
L 465.205406 89.418635 
L 465.342061 89.180437 
L 465.410389 89.240339 
L 465.6837 88.106179 
L 465.752027 88.134875 
L 465.820355 88.164204 
L 466.093665 86.885219 
L 466.435304 85.433591 
L 466.776942 85.713648 
L 468.075167 78.9589 
L 468.143495 79.018485 
L 468.211822 79.068789 
L 468.416805 78.248573 
L 471.628204 62.009723 
L 472.448136 56.163947 
L 473.268068 51.827218 
L 473.746361 47.646769 
L 474.497965 42.655919 
L 474.771276 40.918174 
L 475.181242 38.982606 
L 475.249569 39.072943 
L 476.206156 37.864487 
L 476.411139 36.899769 
L 476.68445 36.388016 
L 478.11933 33.341622 
L 478.392641 34.026671 
L 479.075917 32.598601 
L 479.2809 32.258003 
L 479.485883 30.894162 
L 479.690866 30.06419 
L 480.305815 28.678182 
L 480.374143 28.826919 
L 480.784108 30.60151 
L 480.852436 30.505237 
L 481.057419 30.063656 
L 481.262402 30.961429 
L 481.535713 33.074444 
L 481.809023 33.336464 
L 481.877351 33.254578 
L 482.218989 32.018599 
L 482.423972 31.913499 
L 482.628955 32.023783 
L 482.697282 31.95705 
L 482.833938 31.355618 
L 482.902265 31.524073 
L 483.312231 33.54146 
L 483.722197 32.433605 
L 483.790525 32.555524 
L 484.063835 33.602594 
L 484.200491 33.716219 
L 484.542129 32.432399 
L 484.610456 32.513474 
L 484.952095 33.811622 
L 485.36206 33.96283 
L 486.25032 37.049435 
L 486.865269 41.268403 
L 487.070252 42.312897 
L 487.616873 47.672131 
L 487.753528 48.361542 
L 488.778443 61.045262 
L 489.120081 65.773453 
L 489.598374 70.681 
L 490.144995 76.167502 
L 490.554961 78.386184 
L 491.101582 83.190384 
L 491.579876 89.327606 
L 492.058169 91.672489 
L 493.356395 104.181088 
L 493.49305 104.730483 
L 494.449637 113.885641 
L 494.791275 118.223168 
L 494.996258 119.410319 
L 495.747862 127.079553 
L 495.884517 127.880151 
L 496.0895 131.574533 
L 496.362811 136.163492 
L 496.909432 142.306683 
L 497.25107 147.590646 
L 497.524381 148.884057 
L 497.729364 152.006065 
L 498.002674 156.10507 
L 498.275985 157.404187 
L 498.754278 161.848961 
L 498.822606 161.965313 
L 498.890934 161.81541 
L 499.300899 163.070955 
L 501.89735 186.317186 
L 501.965678 186.362957 
L 503.400558 199.011822 
L 505.450387 224.746455 
L 505.65537 226.335595 
L 505.792026 227.409339 
L 506.885268 249.321249 
L 507.158578 253.597845 
L 507.363561 255.863662 
L 507.636872 261.701644 
L 507.97851 268.755284 
L 508.388476 276.977484 
L 508.866769 286.510381 
L 509.276735 295.206047 
L 509.618373 301.880471 
L 510.164995 310.358017 
L 510.643288 319.011759 
L 511.46322 330.776582 
L 511.668203 333.238174 
L 512.283152 341.249226 
L 512.556462 344.396315 
L 512.8981 348.971053 
L 513.171411 349.98853 
L 513.376394 350.971956 
L 513.78636 352.812155 
L 514.196325 356.570041 
L 514.469636 358.267473 
L 514.606291 358.432028 
L 514.811274 358.237016 
L 514.879602 358.348685 
L 515.22124 360.703324 
L 515.289568 360.559559 
L 515.357895 360.544397 
L 515.699534 361.427952 
L 516.109499 364.467678 
L 516.451138 365.282668 
L 516.792776 368.0664 
L 516.997759 367.505764 
L 517.271069 367.646469 
L 517.886018 371.080531 
L 518.227656 371.158963 
L 518.500967 372.922262 
L 518.569295 372.879586 
L 518.910933 372.708315 
L 519.115916 374.288409 
L 520.004175 381.614159 
L 520.209158 382.574032 
L 520.482469 382.682653 
L 520.550796 382.694118 
L 520.755779 384.326535 
L 520.960762 386.241818 
L 526.495301 386.241818 
L 528.476803 208.010087 
L 528.54513 209.095445 
L 528.886769 215.649696 
L 529.980011 247.246825 
L 530.116666 249.1434 
L 530.526632 265.918471 
L 530.86827 276.675378 
L 531.141581 282.946674 
L 532.439806 326.016199 
L 533.328065 355.821167 
L 533.738031 367.908393 
L 534.216325 386.241818 
L 572.958098 386.241818 
L 573.094753 379.291465 
L 574.05134 322.380832 
L 574.392978 303.772903 
L 574.802944 282.810927 
L 575.144582 269.143267 
L 575.622876 243.333462 
L 578.150999 148.004473 
L 578.355982 144.878176 
L 579.107586 119.430431 
L 579.244241 114.977989 
L 579.312569 111.394374 
L 579.585879 130.754152 
L 580.815777 234.140055 
L 582.933934 351.183998 
L 583.753865 386.241818 
L 627.756867 386.241818 
L 628.030177 381.095657 
L 628.23516 379.810489 
L 628.371816 377.004046 
L 628.508471 372.33228 
L 628.781781 386.241818 
L 631.173249 386.241818 
L 631.309904 385.316482 
L 631.514887 386.241818 
L 648.460142 386.241818 
L 648.52847 385.851794 
L 648.665125 384.208795 
L 648.938436 386.241818 
L 649.143419 386.241818 
L 649.280074 385.597602 
L 649.416729 386.241818 
L 650.578299 386.241818 
L 650.646627 386.120894 
L 650.783282 386.241818 
L 653.584716 386.241818 
L 653.653043 386.1143 
L 653.789699 386.241818 
L 662.877275 386.241818 
L 663.970517 349.358249 
L 664.448811 336.608802 
L 665.268742 305.266495 
L 666.293657 273.008131 
L 666.703623 254.562569 
L 667.93352 215.741641 
L 668.411814 197.63609 
L 669.573384 163.06077 
L 669.98335 148.193481 
L 670.529971 137.245438 
L 671.41823 114.634433 
L 671.964851 108.402888 
L 672.033179 108.38321 
L 672.30649 106.999376 
L 672.5798 104.752209 
L 672.784783 99.824727 
L 673.126421 92.383902 
L 673.263077 91.753801 
L 673.331404 92.15855 
L 673.536387 95.64557 
L 673.604715 95.45222 
L 673.74137 94.288146 
L 673.878025 94.891435 
L 674.014681 96.121729 
L 674.219664 99.010447 
L 674.287991 98.924405 
L 674.766285 92.597541 
L 674.90294 92.126441 
L 675.039595 92.670171 
L 675.176251 94.315023 
L 675.244578 93.8114 
L 675.312906 93.509867 
L 675.449561 94.448438 
L 675.517889 94.429544 
L 675.791199 94.902654 
L 675.927855 93.95594 
L 676.132838 88.352526 
L 676.406148 80.777641 
L 676.679459 78.881171 
L 676.816114 78.905414 
L 677.021097 76.756602 
L 677.294407 71.842598 
L 677.362735 71.682925 
L 677.636046 67.691175 
L 677.772701 63.068243 
L 678.250994 43.849336 
L 678.38765 43.356911 
L 678.524305 41.5846 
L 678.865943 35.060981 
L 678.934271 35.404504 
L 679.002599 35.072444 
L 679.275909 28.678182 
L 679.275909 28.678182 
" clip-path="url(#pd9eac66903)" style="fill: none; stroke: #00395b; stroke-width: 1.5; stroke-linecap: square"/>
   </g>
   <g id="patch_3">
    <path d="M 50.87 404.12 
L 50.87 10.8 
" style="fill: none; stroke: #ffffff; stroke-width: 0.8; stroke-linejoin: miter; stroke-linecap: square"/>
   </g>
   <g id="patch_4">
    <path d="M 709.2 404.12 
L 709.2 10.8 
" style="fill: none; stroke: #ffffff; stroke-width: 0.8; stroke-linejoin: miter; stroke-linecap: square"/>
   </g>
   <g id="patch_5">
    <path d="M 50.87 404.12 
L 709.2 404.12 
" style="fill: none; stroke: #ffffff; stroke-width: 0.8; stroke-linejoin: miter; stroke-linecap: square"/>
   </g>
   <g id="patch_6">
    <path d="M 50.87 10.8 
L 709.2 10.8 
" style="fill: none; stroke: #ffffff; stroke-width: 0.8; stroke-linejoin: miter; stroke-linecap: square"/>
   </g>
  </g>
 </g>
 <defs>
  <clipPath id="pd9eac66903">
   <rect x="50.87" y="10.8" width="658.33" height="393.32"/>
  </clipPath>
 </defs>
</svg>
