<?xml version="1.0" encoding="UTF-8"?><svg xmlns="http://www.w3.org/2000/svg" xmlns:xlink="http://www.w3.org/1999/xlink" fill-opacity="1" color-rendering="auto" color-interpolation="auto" text-rendering="auto" stroke="black" stroke-linecap="square" width="956" stroke-miterlimit="10" shape-rendering="auto" stroke-opacity="1" fill="black" stroke-dasharray="none" font-weight="normal" stroke-width="1" height="495" font-family="'Dialog'" font-style="normal" stroke-linejoin="miter" font-size="12px" stroke-dashoffset="0" image-rendering="auto">
  <!--Generated by ySVG 2.5-->
  <defs id="genericDefs"/>
  <g>
    <defs id="defs1">
      <clipPath clipPathUnits="userSpaceOnUse" id="clipPath1">
        <path d="M0 0 L956 0 L956 495 L0 495 L0 0 Z"/>
      </clipPath>
      <clipPath clipPathUnits="userSpaceOnUse" id="clipPath2">
        <path d="M-185 287 L771 287 L771 782 L-185 782 L-185 287 Z"/>
      </clipPath>
      <clipPath clipPathUnits="userSpaceOnUse" id="clipPath3">
        <path d="M-190 282 L766 282 L766 777 L-190 777 L-190 282 Z"/>
      </clipPath>
    </defs>
    <g fill="white" text-rendering="geometricPrecision" shape-rendering="geometricPrecision" transform="translate(185,-287)" stroke="white">
      <rect x="-185" width="956" height="495" y="287" clip-path="url(#clipPath2)" stroke="none"/>
    </g>
    <g fill="gray" text-rendering="geometricPrecision" shape-rendering="geometricPrecision" transform="matrix(1,0,0,1,185,-287) translate(5,5)" stroke="gray">
      <rect x="-170" y="302.483" clip-path="url(#clipPath3)" width="920.0667" rx="4" ry="4" height="98.5955" stroke="none"/>
    </g>
    <g fill="rgb(245,245,245)" text-rendering="geometricPrecision" shape-rendering="geometricPrecision" transform="matrix(1,0,0,1,185,-287)" stroke="rgb(245,245,245)">
      <rect x="-170" y="302.483" clip-path="url(#clipPath2)" width="920.0667" rx="4" ry="4" height="98.5955" stroke="none"/>
    </g>
    <g font-size="18px" stroke-linecap="butt" transform="matrix(1,0,0,1,185,-287)" text-rendering="geometricPrecision" font-family="sans-serif" shape-rendering="geometricPrecision" font-weight="bold" stroke-miterlimit="1.45">
      <text x="263.5563" xml:space="preserve" y="321.191" clip-path="url(#clipPath2)" stroke="none">Class</text>
    </g>
    <g text-rendering="geometricPrecision" stroke-miterlimit="1.45" stroke-width="2" shape-rendering="geometricPrecision" transform="matrix(1,0,0,1,185,-287)" stroke-linecap="butt">
      <rect x="-170" y="302.483" clip-path="url(#clipPath2)" fill="none" width="920.0667" rx="4" ry="4" height="98.5955"/>
    </g>
    <g fill="maroon" text-rendering="geometricPrecision" shape-rendering="geometricPrecision" transform="matrix(1,0,0,1,185,-287)" stroke="maroon">
      <ellipse rx="60" ry="18" clip-path="url(#clipPath2)" cx="248.3185" cy="640" stroke="none"/>
    </g>
    <g stroke-linecap="butt" transform="matrix(1,0,0,1,185,-287)" fill="white" text-rendering="geometricPrecision" font-family="sans-serif" shape-rendering="geometricPrecision" stroke="white" stroke-miterlimit="1.45">
      <text x="212.7902" xml:space="preserve" y="644.1543" clip-path="url(#clipPath2)" stroke="none">electricity 1</text>
      <ellipse rx="60" fill="none" ry="18" clip-path="url(#clipPath2)" cx="248.3185" cy="640"/>
    </g>
    <g fill="gray" text-rendering="geometricPrecision" shape-rendering="geometricPrecision" transform="matrix(1,0,0,1,185,-287)" stroke="gray">
      <rect x="8.6128" width="132" height="30" y="625" clip-path="url(#clipPath2)" stroke="none"/>
    </g>
    <g text-rendering="geometricPrecision" stroke-miterlimit="1.45" shape-rendering="geometricPrecision" font-family="sans-serif" transform="matrix(1,0,0,1,185,-287)" stroke-linecap="butt">
      <text x="46.4878" xml:space="preserve" y="644.1543" clip-path="url(#clipPath2)" stroke="none">chp plant</text>
      <rect fill="none" x="8.6128" width="132" height="30" y="625" clip-path="url(#clipPath2)"/>
    </g>
    <g fill="green" text-rendering="geometricPrecision" shape-rendering="geometricPrecision" transform="matrix(1,0,0,1,185,-287)" stroke="green">
      <path d="M166.3185 766.9797 L207.3184 736.9797 L289.3183 736.9797 L330.3183 766.9797 Z" fill-rule="evenodd" clip-path="url(#clipPath2)" stroke="none"/>
    </g>
    <g stroke-linecap="butt" transform="matrix(1,0,0,1,185,-287)" fill="white" text-rendering="geometricPrecision" font-family="sans-serif" shape-rendering="geometricPrecision" stroke="white" stroke-miterlimit="1.45">
      <text x="217.9611" xml:space="preserve" y="756.1341" clip-path="url(#clipPath2)" stroke="none">demand 1</text>
      <path fill="none" d="M166.3185 766.9797 L207.3184 736.9797 L289.3183 736.9797 L330.3183 766.9797 Z" fill-rule="evenodd" clip-path="url(#clipPath2)" stroke="black"/>
    </g>
    <g fill="maroon" text-rendering="geometricPrecision" shape-rendering="geometricPrecision" transform="matrix(1,0,0,1,185,-287)" stroke="maroon">
      <ellipse rx="60" ry="18" clip-path="url(#clipPath2)" cx="74.6128" cy="555.0922" stroke="none"/>
    </g>
    <g stroke-linecap="butt" transform="matrix(1,0,0,1,185,-287)" fill="white" text-rendering="geometricPrecision" font-family="sans-serif" shape-rendering="geometricPrecision" stroke="white" stroke-miterlimit="1.45">
      <text x="40.6489" xml:space="preserve" y="559.2465" clip-path="url(#clipPath2)" stroke="none">natural gas</text>
      <ellipse rx="60" fill="none" ry="18" clip-path="url(#clipPath2)" cx="74.6128" cy="555.0922"/>
    </g>
    <g fill="rgb(255,204,0)" text-rendering="geometricPrecision" shape-rendering="geometricPrecision" transform="matrix(1,0,0,1,185,-287)" stroke="rgb(255,204,0)">
      <path d="M-7.3872 455.1841 L156.6127 455.1841 L115.6128 485.1841 L33.6128 485.1841 Z" fill-rule="evenodd" clip-path="url(#clipPath2)" stroke="none"/>
    </g>
    <g text-rendering="geometricPrecision" stroke-miterlimit="1.45" shape-rendering="geometricPrecision" font-family="sans-serif" transform="matrix(1,0,0,1,185,-287)" stroke-linecap="butt">
      <text x="40.6489" xml:space="preserve" y="474.3387" clip-path="url(#clipPath2)" stroke="none">natural gas</text>
      <path fill="none" d="M-7.3872 455.1841 L156.6127 455.1841 L115.6128 485.1841 L33.6128 485.1841 Z" clip-path="url(#clipPath2)" fill-rule="evenodd"/>
    </g>
    <g fill="rgb(255,204,0)" text-rendering="geometricPrecision" shape-rendering="geometricPrecision" transform="matrix(1,0,0,1,185,-287)" stroke="rgb(255,204,0)">
      <path d="M166.3187 455.1845 L330.3188 455.1845 L289.3188 485.1843 L207.3188 485.1843 Z" fill-rule="evenodd" clip-path="url(#clipPath2)" stroke="none"/>
    </g>
    <g text-rendering="geometricPrecision" stroke-miterlimit="1.45" shape-rendering="geometricPrecision" font-family="sans-serif" transform="matrix(1,0,0,1,185,-287)" stroke-linecap="butt">
      <text x="217.3605" xml:space="preserve" y="474.3387" clip-path="url(#clipPath2)" stroke="none">pv system</text>
      <path fill="none" d="M166.3187 455.1845 L330.3188 455.1845 L289.3188 485.1843 L207.3188 485.1843 Z" clip-path="url(#clipPath2)" fill-rule="evenodd"/>
    </g>
    <g fill="rgb(255,204,0)" text-rendering="geometricPrecision" shape-rendering="geometricPrecision" transform="matrix(1,0,0,1,185,-287)" stroke="rgb(255,204,0)">
      <path d="M431.208 455.185 L595.2085 455.185 L554.2086 485.1851 L472.2081 485.1851 Z" fill-rule="evenodd" clip-path="url(#clipPath2)" stroke="none"/>
    </g>
    <g text-rendering="geometricPrecision" stroke-miterlimit="1.45" shape-rendering="geometricPrecision" font-family="sans-serif" transform="matrix(1,0,0,1,185,-287)" stroke-linecap="butt">
      <text x="461.3562" xml:space="preserve" y="474.3387" clip-path="url(#clipPath2)" stroke="none">wind power plant</text>
      <path fill="none" d="M431.208 455.185 L595.2085 455.185 L554.2086 485.1851 L472.2081 485.1851 Z" clip-path="url(#clipPath2)" fill-rule="evenodd"/>
    </g>
    <g fill="maroon" text-rendering="geometricPrecision" shape-rendering="geometricPrecision" transform="matrix(1,0,0,1,185,-287)" stroke="maroon">
      <ellipse rx="60" ry="18" clip-path="url(#clipPath2)" cx="513.2088" cy="640" stroke="none"/>
    </g>
    <g stroke-linecap="butt" transform="matrix(1,0,0,1,185,-287)" fill="white" text-rendering="geometricPrecision" font-family="sans-serif" shape-rendering="geometricPrecision" stroke="white" stroke-miterlimit="1.45">
      <text x="477.6804" xml:space="preserve" y="644.1543" clip-path="url(#clipPath2)" stroke="none">electricity 2</text>
      <ellipse rx="60" fill="none" ry="18" clip-path="url(#clipPath2)" cx="513.2088" cy="640"/>
    </g>
    <g fill="green" text-rendering="geometricPrecision" shape-rendering="geometricPrecision" transform="matrix(1,0,0,1,185,-287)" stroke="green">
      <path d="M431.2089 766.9794 L472.2087 736.9792 L554.2089 736.9792 L595.2087 766.9794 Z" fill-rule="evenodd" clip-path="url(#clipPath2)" stroke="none"/>
    </g>
    <g stroke-linecap="butt" transform="matrix(1,0,0,1,185,-287)" fill="white" text-rendering="geometricPrecision" font-family="sans-serif" shape-rendering="geometricPrecision" stroke="white" stroke-miterlimit="1.45">
      <text x="482.8513" xml:space="preserve" y="756.1341" clip-path="url(#clipPath2)" stroke="none">demand 2</text>
      <path fill="none" d="M431.2089 766.9794 L472.2087 736.9792 L554.2089 736.9792 L595.2087 766.9794 Z" fill-rule="evenodd" clip-path="url(#clipPath2)" stroke="black"/>
    </g>
    <g fill="gray" text-rendering="geometricPrecision" shape-rendering="geometricPrecision" transform="matrix(1,0,0,1,185,-287)" stroke="gray">
      <rect x="313.2088" width="132" height="30" y="539.2902" clip-path="url(#clipPath2)" stroke="none"/>
    </g>
    <g text-rendering="geometricPrecision" stroke-miterlimit="1.45" shape-rendering="geometricPrecision" font-family="sans-serif" transform="matrix(1,0,0,1,185,-287)" stroke-linecap="butt">
      <text x="345.7605" xml:space="preserve" y="558.4445" clip-path="url(#clipPath2)" stroke="none">transport 1</text>
      <rect fill="none" x="313.2088" width="132" height="30" y="539.2902" clip-path="url(#clipPath2)"/>
    </g>
    <g fill="gray" text-rendering="geometricPrecision" shape-rendering="geometricPrecision" transform="matrix(1,0,0,1,185,-287)" stroke="gray">
      <rect x="313.2088" width="132" height="30" y="698.4249" clip-path="url(#clipPath2)" stroke="none"/>
    </g>
    <g text-rendering="geometricPrecision" stroke-miterlimit="1.45" shape-rendering="geometricPrecision" font-family="sans-serif" transform="matrix(1,0,0,1,185,-287)" stroke-linecap="butt">
      <text x="345.7605" xml:space="preserve" y="717.5792" clip-path="url(#clipPath2)" stroke="none">transport 2</text>
      <rect fill="none" x="313.2088" width="132" height="30" y="698.4249" clip-path="url(#clipPath2)"/>
    </g>
    <g fill="rgb(0,0,51)" text-rendering="geometricPrecision" shape-rendering="geometricPrecision" transform="matrix(1,0,0,1,185,-287)" stroke="rgb(0,0,51)">
      <rect x="613.1306" y="625" clip-path="url(#clipPath2)" width="110.202" rx="4" ry="4" height="30" stroke="none"/>
    </g>
    <g text-rendering="geometricPrecision" stroke-miterlimit="1.45" shape-rendering="geometricPrecision" transform="matrix(1,0,0,1,185,-287)" stroke-linecap="butt">
      <rect x="613.1306" y="625" clip-path="url(#clipPath2)" fill="none" width="110.202" rx="4" ry="4" height="30"/>
      <text x="645.4387" y="644.1543" clip-path="url(#clipPath2)" fill="white" font-family="sans-serif" stroke="none" xml:space="preserve">battery</text>
    </g>
    <g fill="maroon" text-rendering="geometricPrecision" shape-rendering="geometricPrecision" transform="matrix(1,0,0,1,185,-287)" stroke="maroon">
      <ellipse rx="60" ry="18" clip-path="url(#clipPath2)" cx="-88" cy="640" stroke="none"/>
    </g>
    <g stroke-linecap="butt" transform="matrix(1,0,0,1,185,-287)" fill="white" text-rendering="geometricPrecision" font-family="sans-serif" shape-rendering="geometricPrecision" stroke="white" stroke-miterlimit="1.45">
      <text x="-101.5234" xml:space="preserve" y="644.1543" clip-path="url(#clipPath2)" stroke="none">heat</text>
      <ellipse rx="60" fill="none" ry="18" clip-path="url(#clipPath2)" cx="-88" cy="640"/>
    </g>
    <g fill="green" text-rendering="geometricPrecision" shape-rendering="geometricPrecision" transform="matrix(1,0,0,1,185,-287)" stroke="green">
      <path d="M-170 766.98 L-129 736.98 L-47.0001 736.98 L-6.0001 766.98 Z" fill-rule="evenodd" clip-path="url(#clipPath2)" stroke="none"/>
    </g>
    <g stroke-linecap="butt" transform="matrix(1,0,0,1,185,-287)" fill="white" text-rendering="geometricPrecision" font-family="sans-serif" shape-rendering="geometricPrecision" stroke="white" stroke-miterlimit="1.45">
      <text x="-128.0635" xml:space="preserve" y="756.1341" clip-path="url(#clipPath2)" stroke="none">heat demand</text>
      <path fill="none" d="M-170 766.98 L-129 736.98 L-47.0001 736.98 L-6.0001 766.98 Z" fill-rule="evenodd" clip-path="url(#clipPath2)" stroke="black"/>
    </g>
    <g fill="maroon" text-rendering="geometricPrecision" shape-rendering="geometricPrecision" transform="matrix(1,0,0,1,185,-287)" stroke="maroon">
      <ellipse rx="60" ry="18" clip-path="url(#clipPath2)" cx="-88.0781" cy="359.8009" stroke="none"/>
    </g>
    <g stroke-linecap="butt" transform="matrix(1,0,0,1,185,-287)" fill="white" text-rendering="geometricPrecision" font-family="sans-serif" shape-rendering="geometricPrecision" stroke="white" stroke-miterlimit="1.45">
      <text x="-99.123" xml:space="preserve" y="363.9552" clip-path="url(#clipPath2)" stroke="none">Bus</text>
      <ellipse rx="60" fill="none" ry="18" clip-path="url(#clipPath2)" cx="-88.0781" cy="359.8009"/>
    </g>
    <g fill="rgb(255,204,0)" text-rendering="geometricPrecision" shape-rendering="geometricPrecision" transform="matrix(1,0,0,1,185,-287)" stroke="rgb(255,204,0)">
      <path d="M227.8259 344.801 L391.8259 344.801 L350.8259 374.801 L268.8259 374.801 Z" fill-rule="evenodd" clip-path="url(#clipPath2)" stroke="none"/>
    </g>
    <g text-rendering="geometricPrecision" stroke-miterlimit="1.45" shape-rendering="geometricPrecision" font-family="sans-serif" transform="matrix(1,0,0,1,185,-287)" stroke-linecap="butt">
      <text x="289.0867" xml:space="preserve" y="363.9552" clip-path="url(#clipPath2)" stroke="none">Source</text>
      <path fill="none" d="M227.8259 344.801 L391.8259 344.801 L350.8259 374.801 L268.8259 374.801 Z" clip-path="url(#clipPath2)" fill-rule="evenodd"/>
    </g>
    <g fill="gray" text-rendering="geometricPrecision" shape-rendering="geometricPrecision" transform="matrix(1,0,0,1,185,-287)" stroke="gray">
      <rect x="437.7779" width="132" height="30" y="344.8009" clip-path="url(#clipPath2)" stroke="none"/>
    </g>
    <g text-rendering="geometricPrecision" stroke-miterlimit="1.45" shape-rendering="geometricPrecision" font-family="sans-serif" transform="matrix(1,0,0,1,185,-287)" stroke-linecap="butt">
      <text x="470" xml:space="preserve" y="363.9552" clip-path="url(#clipPath2)" stroke="none">Converter</text>
      <rect fill="none" x="437.7779" width="132" height="30" y="344.8009" clip-path="url(#clipPath2)"/>
    </g>
    <g fill="rgb(0,0,51)" text-rendering="geometricPrecision" shape-rendering="geometricPrecision" transform="matrix(1,0,0,1,185,-287)" stroke="rgb(0,0,51)">
      <rect x="615.73" y="344.8009" clip-path="url(#clipPath2)" width="110.202" rx="4" ry="4" height="30" stroke="none"/>
    </g>
    <g text-rendering="geometricPrecision" stroke-miterlimit="1.45" shape-rendering="geometricPrecision" transform="matrix(1,0,0,1,185,-287)" stroke-linecap="butt">
      <rect x="615.73" y="344.8009" clip-path="url(#clipPath2)" fill="none" width="110.202" rx="4" ry="4" height="30"/>
      <text x="625" y="363.9552" clip-path="url(#clipPath2)" fill="white" font-family="sans-serif" stroke="none" xml:space="preserve">GenericStorage</text>
    </g>
    <g fill="green" text-rendering="geometricPrecision" shape-rendering="geometricPrecision" transform="matrix(1,0,0,1,185,-287)" stroke="green">
      <path d="M17.8739 374.801 L58.8739 344.801 L140.8739 344.801 L181.8739 374.801 Z" fill-rule="evenodd" clip-path="url(#clipPath2)" stroke="none"/>
    </g>
    <g stroke-linecap="butt" transform="matrix(1,0,0,1,185,-287)" fill="white" text-rendering="geometricPrecision" font-family="sans-serif" shape-rendering="geometricPrecision" stroke="white" stroke-miterlimit="1.45">
      <text x="87.121" xml:space="preserve" y="363.9552" clip-path="url(#clipPath2)" stroke="none">Sink</text>
      <path fill="none" d="M17.8739 374.801 L58.8739 344.801 L140.8739 344.801 L181.8739 374.801 Z" fill-rule="evenodd" clip-path="url(#clipPath2)" stroke="black"/>
      <path fill="none" d="M140.6128 640 L180.3185 640" clip-path="url(#clipPath2)" stroke="black"/>
      <path fill="black" d="M188.3185 640 L176.3185 635 L179.3185 640 L176.3185 645 Z" clip-path="url(#clipPath2)" stroke="none"/>
      <path fill="none" d="M248.3185 658 L248.3185 728.9742" clip-path="url(#clipPath2)" stroke="black"/>
      <path fill="black" d="M248.3185 736.9742 L253.3185 724.9742 L248.3185 727.9742 L243.3185 724.9742 Z" clip-path="url(#clipPath2)" stroke="none"/>
      <path fill="none" d="M74.6128 573.0922 L74.6128 617" clip-path="url(#clipPath2)" stroke="black"/>
      <path fill="black" d="M74.6128 625 L79.6128 613 L74.6128 616 L69.6128 613 Z" clip-path="url(#clipPath2)" stroke="none"/>
      <path fill="none" d="M74.6128 485.151 L74.6128 529.0922" clip-path="url(#clipPath2)" stroke="black"/>
      <path fill="black" d="M74.6128 537.0922 L79.6128 525.0922 L74.6128 528.0922 L69.6128 525.0922 Z" clip-path="url(#clipPath2)" stroke="none"/>
      <path fill="none" d="M248.3185 485.151 L248.3185 614" clip-path="url(#clipPath2)" stroke="black"/>
      <path fill="black" d="M248.3185 622 L253.3185 610 L248.3185 613 L243.3185 610 Z" clip-path="url(#clipPath2)" stroke="none"/>
      <path fill="none" d="M513.2087 485.151 L513.2087 614" clip-path="url(#clipPath2)" stroke="black"/>
      <path fill="black" d="M513.2087 622 L518.2087 610 L513.2087 613 L508.2087 610 Z" clip-path="url(#clipPath2)" stroke="none"/>
      <path fill="none" d="M513.2087 658 L513.2087 728.9742" clip-path="url(#clipPath2)" stroke="black"/>
      <path fill="black" d="M513.2087 736.9742 L518.2087 724.9742 L513.2087 727.9742 L508.2087 724.9742 Z" clip-path="url(#clipPath2)" stroke="none"/>
      <path fill="none" d="M487.7305 623.7034 L409.3993 573.6008" clip-path="url(#clipPath2)" stroke="black"/>
      <path fill="black" d="M402.66 569.2902 L410.0748 579.9682 L410.2417 574.1396 L415.4631 571.5441 Z" clip-path="url(#clipPath2)" stroke="none"/>
      <path fill="none" d="M356.3018 569.2902 L280.0018 619.2531" clip-path="url(#clipPath2)" stroke="black"/>
      <path fill="black" d="M273.3091 623.6356 L286.0873 621.2448 L280.8384 618.7052 L280.6091 612.8788 Z" clip-path="url(#clipPath2)" stroke="none"/>
      <path fill="none" d="M276.6139 655.8727 L345.492 694.511" clip-path="url(#clipPath2)" stroke="black"/>
      <path fill="black" d="M352.4691 698.4249 L344.4496 688.1933 L344.6198 694.0217 L339.5572 696.9147 Z" clip-path="url(#clipPath2)" stroke="none"/>
      <path fill="none" d="M406.5836 698.4249 L477.379 659.6328" clip-path="url(#clipPath2)" stroke="black"/>
      <path fill="black" d="M484.3948 655.7885 L471.4684 657.1701 L476.502 660.1133 L476.2738 665.9398 Z" clip-path="url(#clipPath2)" stroke="none"/>
      <path fill="none" d="M573.2087 640 L605.1573 640" clip-path="url(#clipPath2)" stroke="black"/>
      <path fill="black" d="M613.1573 640 L601.1573 635 L604.1573 640 L601.1573 645 Z" clip-path="url(#clipPath2)" stroke="none"/>
      <path fill="none" d="M613.1637 640 L581.2087 640" clip-path="url(#clipPath2)" stroke="black"/>
      <path fill="black" d="M573.2087 640 L585.2087 645 L582.2087 640 L585.2087 635 Z" clip-path="url(#clipPath2)" stroke="none"/>
      <path fill="none" d="M8.6128 640 L-20 640" clip-path="url(#clipPath2)" stroke="black"/>
      <path fill="black" d="M-28 640 L-16 645 L-19 640 L-16 635 Z" clip-path="url(#clipPath2)" stroke="none"/>
      <path fill="none" d="M-88 658 L-88 728.9742" clip-path="url(#clipPath2)" stroke="black"/>
      <path fill="black" d="M-88 736.9742 L-83 724.9742 L-88 727.9742 L-93 724.9742 Z" clip-path="url(#clipPath2)" stroke="none"/>
    </g>
  </g>
</svg>
