<?xml version="1.0" encoding="utf-8" standalone="no"?>
<!DOCTYPE svg PUBLIC "-//W3C//DTD SVG 1.1//EN"
  "http://www.w3.org/Graphics/SVG/1.1/DTD/svg11.dtd">
<svg xmlns:xlink="http://www.w3.org/1999/xlink" width="1152pt" height="432pt" viewBox="0 0 1152 432" xmlns="http://www.w3.org/2000/svg" version="1.1">
 <metadata>
  <rdf:RDF xmlns:dc="http://purl.org/dc/elements/1.1/" xmlns:cc="http://creativecommons.org/ns#" xmlns:rdf="http://www.w3.org/1999/02/22-rdf-syntax-ns#">
   <cc:Work>
    <dc:type rdf:resource="http://purl.org/dc/dcmitype/StillImage"/>
    <dc:date>2025-02-28T09:13:45.042134</dc:date>
    <dc:format>image/svg+xml</dc:format>
    <dc:creator>
     <cc:Agent>
      <dc:title>Matplotlib v3.8.2, https://matplotlib.org/</dc:title>
     </cc:Agent>
    </dc:creator>
   </cc:Work>
  </rdf:RDF>
 </metadata>
 <defs>
  <style type="text/css">*{stroke-linejoin: round; stroke-linecap: butt}</style>
 </defs>
 <g id="figure_1">
  <g id="patch_1">
   <path d="M 0 432 
L 1152 432 
L 1152 0 
L 0 0 
z
" style="fill: #ffffff"/>
  </g>
  <g id="axes_1">
   <g id="patch_2">
    <path d="M 28.38 390.04 
L 562.073033 390.04 
L 562.073033 74.4 
L 28.38 74.4 
z
" style="fill: #ffffff"/>
   </g>
   <g id="matplotlib.axis_1">
    <g id="xtick_1">
     <g id="line2d_1">
      <defs>
       <path id="m48fb29d063" d="M 0 0 
L 0 3.5 
" style="stroke: #000000; stroke-width: 0.8"/>
      </defs>
      <g>
       <use xlink:href="#m48fb29d063" x="52.638774" y="390.04" style="stroke: #000000; stroke-width: 0.8"/>
      </g>
     </g>
     <g id="text_1">
      <!-- 2020-01-01 -->
      <g transform="translate(23.580962 404.638438) scale(0.1 -0.1)">
       <defs>
        <path id="DejaVuSans-32" d="M 1228 531 
L 3431 531 
L 3431 0 
L 469 0 
L 469 531 
Q 828 903 1448 1529 
Q 2069 2156 2228 2338 
Q 2531 2678 2651 2914 
Q 2772 3150 2772 3378 
Q 2772 3750 2511 3984 
Q 2250 4219 1831 4219 
Q 1534 4219 1204 4116 
Q 875 4013 500 3803 
L 500 4441 
Q 881 4594 1212 4672 
Q 1544 4750 1819 4750 
Q 2544 4750 2975 4387 
Q 3406 4025 3406 3419 
Q 3406 3131 3298 2873 
Q 3191 2616 2906 2266 
Q 2828 2175 2409 1742 
Q 1991 1309 1228 531 
z
" transform="scale(0.015625)"/>
        <path id="DejaVuSans-30" d="M 2034 4250 
Q 1547 4250 1301 3770 
Q 1056 3291 1056 2328 
Q 1056 1369 1301 889 
Q 1547 409 2034 409 
Q 2525 409 2770 889 
Q 3016 1369 3016 2328 
Q 3016 3291 2770 3770 
Q 2525 4250 2034 4250 
z
M 2034 4750 
Q 2819 4750 3233 4129 
Q 3647 3509 3647 2328 
Q 3647 1150 3233 529 
Q 2819 -91 2034 -91 
Q 1250 -91 836 529 
Q 422 1150 422 2328 
Q 422 3509 836 4129 
Q 1250 4750 2034 4750 
z
" transform="scale(0.015625)"/>
        <path id="DejaVuSans-2d" d="M 313 2009 
L 1997 2009 
L 1997 1497 
L 313 1497 
L 313 2009 
z
" transform="scale(0.015625)"/>
        <path id="DejaVuSans-31" d="M 794 531 
L 1825 531 
L 1825 4091 
L 703 3866 
L 703 4441 
L 1819 4666 
L 2450 4666 
L 2450 531 
L 3481 531 
L 3481 0 
L 794 0 
L 794 531 
z
" transform="scale(0.015625)"/>
       </defs>
       <use xlink:href="#DejaVuSans-32"/>
       <use xlink:href="#DejaVuSans-30" x="63.623047"/>
       <use xlink:href="#DejaVuSans-32" x="127.246094"/>
       <use xlink:href="#DejaVuSans-30" x="190.869141"/>
       <use xlink:href="#DejaVuSans-2d" x="254.492188"/>
       <use xlink:href="#DejaVuSans-30" x="290.576172"/>
       <use xlink:href="#DejaVuSans-31" x="354.199219"/>
       <use xlink:href="#DejaVuSans-2d" x="417.822266"/>
       <use xlink:href="#DejaVuSans-30" x="453.90625"/>
       <use xlink:href="#DejaVuSans-31" x="517.529297"/>
      </g>
     </g>
    </g>
    <g id="xtick_2">
     <g id="line2d_2">
      <g>
       <use xlink:href="#m48fb29d063" x="150.489292" y="390.04" style="stroke: #000000; stroke-width: 0.8"/>
      </g>
     </g>
     <g id="text_2">
      <!-- 2020-01-02 -->
      <g transform="translate(121.43148 404.638438) scale(0.1 -0.1)">
       <use xlink:href="#DejaVuSans-32"/>
       <use xlink:href="#DejaVuSans-30" x="63.623047"/>
       <use xlink:href="#DejaVuSans-32" x="127.246094"/>
       <use xlink:href="#DejaVuSans-30" x="190.869141"/>
       <use xlink:href="#DejaVuSans-2d" x="254.492188"/>
       <use xlink:href="#DejaVuSans-30" x="290.576172"/>
       <use xlink:href="#DejaVuSans-31" x="354.199219"/>
       <use xlink:href="#DejaVuSans-2d" x="417.822266"/>
       <use xlink:href="#DejaVuSans-30" x="453.90625"/>
       <use xlink:href="#DejaVuSans-32" x="517.529297"/>
      </g>
     </g>
    </g>
    <g id="xtick_3">
     <g id="line2d_3">
      <g>
       <use xlink:href="#m48fb29d063" x="248.33981" y="390.04" style="stroke: #000000; stroke-width: 0.8"/>
      </g>
     </g>
     <g id="text_3">
      <!-- 2020-01-03 -->
      <g transform="translate(219.281997 404.638438) scale(0.1 -0.1)">
       <defs>
        <path id="DejaVuSans-33" d="M 2597 2516 
Q 3050 2419 3304 2112 
Q 3559 1806 3559 1356 
Q 3559 666 3084 287 
Q 2609 -91 1734 -91 
Q 1441 -91 1130 -33 
Q 819 25 488 141 
L 488 750 
Q 750 597 1062 519 
Q 1375 441 1716 441 
Q 2309 441 2620 675 
Q 2931 909 2931 1356 
Q 2931 1769 2642 2001 
Q 2353 2234 1838 2234 
L 1294 2234 
L 1294 2753 
L 1863 2753 
Q 2328 2753 2575 2939 
Q 2822 3125 2822 3475 
Q 2822 3834 2567 4026 
Q 2313 4219 1838 4219 
Q 1578 4219 1281 4162 
Q 984 4106 628 3988 
L 628 4550 
Q 988 4650 1302 4700 
Q 1616 4750 1894 4750 
Q 2613 4750 3031 4423 
Q 3450 4097 3450 3541 
Q 3450 3153 3228 2886 
Q 3006 2619 2597 2516 
z
" transform="scale(0.015625)"/>
       </defs>
       <use xlink:href="#DejaVuSans-32"/>
       <use xlink:href="#DejaVuSans-30" x="63.623047"/>
       <use xlink:href="#DejaVuSans-32" x="127.246094"/>
       <use xlink:href="#DejaVuSans-30" x="190.869141"/>
       <use xlink:href="#DejaVuSans-2d" x="254.492188"/>
       <use xlink:href="#DejaVuSans-30" x="290.576172"/>
       <use xlink:href="#DejaVuSans-31" x="354.199219"/>
       <use xlink:href="#DejaVuSans-2d" x="417.822266"/>
       <use xlink:href="#DejaVuSans-30" x="453.90625"/>
       <use xlink:href="#DejaVuSans-33" x="517.529297"/>
      </g>
     </g>
    </g>
    <g id="xtick_4">
     <g id="line2d_4">
      <g>
       <use xlink:href="#m48fb29d063" x="346.190328" y="390.04" style="stroke: #000000; stroke-width: 0.8"/>
      </g>
     </g>
     <g id="text_4">
      <!-- 2020-01-04 -->
      <g transform="translate(317.132515 404.638438) scale(0.1 -0.1)">
       <defs>
        <path id="DejaVuSans-34" d="M 2419 4116 
L 825 1625 
L 2419 1625 
L 2419 4116 
z
M 2253 4666 
L 3047 4666 
L 3047 1625 
L 3713 1625 
L 3713 1100 
L 3047 1100 
L 3047 0 
L 2419 0 
L 2419 1100 
L 313 1100 
L 313 1709 
L 2253 4666 
z
" transform="scale(0.015625)"/>
       </defs>
       <use xlink:href="#DejaVuSans-32"/>
       <use xlink:href="#DejaVuSans-30" x="63.623047"/>
       <use xlink:href="#DejaVuSans-32" x="127.246094"/>
       <use xlink:href="#DejaVuSans-30" x="190.869141"/>
       <use xlink:href="#DejaVuSans-2d" x="254.492188"/>
       <use xlink:href="#DejaVuSans-30" x="290.576172"/>
       <use xlink:href="#DejaVuSans-31" x="354.199219"/>
       <use xlink:href="#DejaVuSans-2d" x="417.822266"/>
       <use xlink:href="#DejaVuSans-30" x="453.90625"/>
       <use xlink:href="#DejaVuSans-34" x="517.529297"/>
      </g>
     </g>
    </g>
    <g id="xtick_5">
     <g id="line2d_5">
      <g>
       <use xlink:href="#m48fb29d063" x="444.040846" y="390.04" style="stroke: #000000; stroke-width: 0.8"/>
      </g>
     </g>
     <g id="text_5">
      <!-- 2020-01-05 -->
      <g transform="translate(414.983033 404.638438) scale(0.1 -0.1)">
       <defs>
        <path id="DejaVuSans-35" d="M 691 4666 
L 3169 4666 
L 3169 4134 
L 1269 4134 
L 1269 2991 
Q 1406 3038 1543 3061 
Q 1681 3084 1819 3084 
Q 2600 3084 3056 2656 
Q 3513 2228 3513 1497 
Q 3513 744 3044 326 
Q 2575 -91 1722 -91 
Q 1428 -91 1123 -41 
Q 819 9 494 109 
L 494 744 
Q 775 591 1075 516 
Q 1375 441 1709 441 
Q 2250 441 2565 725 
Q 2881 1009 2881 1497 
Q 2881 1984 2565 2268 
Q 2250 2553 1709 2553 
Q 1456 2553 1204 2497 
Q 953 2441 691 2322 
L 691 4666 
z
" transform="scale(0.015625)"/>
       </defs>
       <use xlink:href="#DejaVuSans-32"/>
       <use xlink:href="#DejaVuSans-30" x="63.623047"/>
       <use xlink:href="#DejaVuSans-32" x="127.246094"/>
       <use xlink:href="#DejaVuSans-30" x="190.869141"/>
       <use xlink:href="#DejaVuSans-2d" x="254.492188"/>
       <use xlink:href="#DejaVuSans-30" x="290.576172"/>
       <use xlink:href="#DejaVuSans-31" x="354.199219"/>
       <use xlink:href="#DejaVuSans-2d" x="417.822266"/>
       <use xlink:href="#DejaVuSans-30" x="453.90625"/>
       <use xlink:href="#DejaVuSans-35" x="517.529297"/>
      </g>
     </g>
    </g>
    <g id="xtick_6">
     <g id="line2d_6">
      <g>
       <use xlink:href="#m48fb29d063" x="541.891364" y="390.04" style="stroke: #000000; stroke-width: 0.8"/>
      </g>
     </g>
     <g id="text_6">
      <!-- 2020-01-06 -->
      <g transform="translate(512.833551 404.638438) scale(0.1 -0.1)">
       <defs>
        <path id="DejaVuSans-36" d="M 2113 2584 
Q 1688 2584 1439 2293 
Q 1191 2003 1191 1497 
Q 1191 994 1439 701 
Q 1688 409 2113 409 
Q 2538 409 2786 701 
Q 3034 994 3034 1497 
Q 3034 2003 2786 2293 
Q 2538 2584 2113 2584 
z
M 3366 4563 
L 3366 3988 
Q 3128 4100 2886 4159 
Q 2644 4219 2406 4219 
Q 1781 4219 1451 3797 
Q 1122 3375 1075 2522 
Q 1259 2794 1537 2939 
Q 1816 3084 2150 3084 
Q 2853 3084 3261 2657 
Q 3669 2231 3669 1497 
Q 3669 778 3244 343 
Q 2819 -91 2113 -91 
Q 1303 -91 875 529 
Q 447 1150 447 2328 
Q 447 3434 972 4092 
Q 1497 4750 2381 4750 
Q 2619 4750 2861 4703 
Q 3103 4656 3366 4563 
z
" transform="scale(0.015625)"/>
       </defs>
       <use xlink:href="#DejaVuSans-32"/>
       <use xlink:href="#DejaVuSans-30" x="63.623047"/>
       <use xlink:href="#DejaVuSans-32" x="127.246094"/>
       <use xlink:href="#DejaVuSans-30" x="190.869141"/>
       <use xlink:href="#DejaVuSans-2d" x="254.492188"/>
       <use xlink:href="#DejaVuSans-30" x="290.576172"/>
       <use xlink:href="#DejaVuSans-31" x="354.199219"/>
       <use xlink:href="#DejaVuSans-2d" x="417.822266"/>
       <use xlink:href="#DejaVuSans-30" x="453.90625"/>
       <use xlink:href="#DejaVuSans-36" x="517.529297"/>
      </g>
     </g>
    </g>
    <g id="text_7">
     <!-- Time -->
     <g transform="translate(282.992923 418.316562) scale(0.1 -0.1)">
      <defs>
       <path id="DejaVuSans-54" d="M -19 4666 
L 3928 4666 
L 3928 4134 
L 2272 4134 
L 2272 0 
L 1638 0 
L 1638 4134 
L -19 4134 
L -19 4666 
z
" transform="scale(0.015625)"/>
       <path id="DejaVuSans-69" d="M 603 3500 
L 1178 3500 
L 1178 0 
L 603 0 
L 603 3500 
z
M 603 4863 
L 1178 4863 
L 1178 4134 
L 603 4134 
L 603 4863 
z
" transform="scale(0.015625)"/>
       <path id="DejaVuSans-6d" d="M 3328 2828 
Q 3544 3216 3844 3400 
Q 4144 3584 4550 3584 
Q 5097 3584 5394 3201 
Q 5691 2819 5691 2113 
L 5691 0 
L 5113 0 
L 5113 2094 
Q 5113 2597 4934 2840 
Q 4756 3084 4391 3084 
Q 3944 3084 3684 2787 
Q 3425 2491 3425 1978 
L 3425 0 
L 2847 0 
L 2847 2094 
Q 2847 2600 2669 2842 
Q 2491 3084 2119 3084 
Q 1678 3084 1418 2786 
Q 1159 2488 1159 1978 
L 1159 0 
L 581 0 
L 581 3500 
L 1159 3500 
L 1159 2956 
Q 1356 3278 1631 3431 
Q 1906 3584 2284 3584 
Q 2666 3584 2933 3390 
Q 3200 3197 3328 2828 
z
" transform="scale(0.015625)"/>
       <path id="DejaVuSans-65" d="M 3597 1894 
L 3597 1613 
L 953 1613 
Q 991 1019 1311 708 
Q 1631 397 2203 397 
Q 2534 397 2845 478 
Q 3156 559 3463 722 
L 3463 178 
Q 3153 47 2828 -22 
Q 2503 -91 2169 -91 
Q 1331 -91 842 396 
Q 353 884 353 1716 
Q 353 2575 817 3079 
Q 1281 3584 2069 3584 
Q 2775 3584 3186 3129 
Q 3597 2675 3597 1894 
z
M 3022 2063 
Q 3016 2534 2758 2815 
Q 2500 3097 2075 3097 
Q 1594 3097 1305 2825 
Q 1016 2553 972 2059 
L 3022 2063 
z
" transform="scale(0.015625)"/>
      </defs>
      <use xlink:href="#DejaVuSans-54"/>
      <use xlink:href="#DejaVuSans-69" x="57.958984"/>
      <use xlink:href="#DejaVuSans-6d" x="85.742188"/>
      <use xlink:href="#DejaVuSans-65" x="183.154297"/>
     </g>
    </g>
   </g>
   <g id="matplotlib.axis_2">
    <g id="ytick_1">
     <g id="line2d_7">
      <defs>
       <path id="m29393386fa" d="M 0 0 
L -3.5 0 
" style="stroke: #000000; stroke-width: 0.8"/>
      </defs>
      <g>
       <use xlink:href="#m29393386fa" x="28.38" y="368.488411" style="stroke: #000000; stroke-width: 0.8"/>
      </g>
     </g>
    </g>
    <g id="ytick_2">
     <g id="line2d_8">
      <g>
       <use xlink:href="#m29393386fa" x="28.38" y="306.664535" style="stroke: #000000; stroke-width: 0.8"/>
      </g>
     </g>
    </g>
    <g id="ytick_3">
     <g id="line2d_9">
      <g>
       <use xlink:href="#m29393386fa" x="28.38" y="244.840658" style="stroke: #000000; stroke-width: 0.8"/>
      </g>
     </g>
    </g>
    <g id="ytick_4">
     <g id="line2d_10">
      <g>
       <use xlink:href="#m29393386fa" x="28.38" y="183.016782" style="stroke: #000000; stroke-width: 0.8"/>
      </g>
     </g>
    </g>
    <g id="ytick_5">
     <g id="line2d_11">
      <g>
       <use xlink:href="#m29393386fa" x="28.38" y="121.192906" style="stroke: #000000; stroke-width: 0.8"/>
      </g>
     </g>
    </g>
    <g id="text_8">
     <!-- kW -->
     <g transform="translate(18.800312 240.059063) rotate(-90) scale(0.1 -0.1)">
      <defs>
       <path id="DejaVuSans-6b" d="M 581 4863 
L 1159 4863 
L 1159 1991 
L 2875 3500 
L 3609 3500 
L 1753 1863 
L 3688 0 
L 2938 0 
L 1159 1709 
L 1159 0 
L 581 0 
L 581 4863 
z
" transform="scale(0.015625)"/>
       <path id="DejaVuSans-57" d="M 213 4666 
L 850 4666 
L 1831 722 
L 2809 4666 
L 3519 4666 
L 4500 722 
L 5478 4666 
L 6119 4666 
L 4947 0 
L 4153 0 
L 3169 4050 
L 2175 0 
L 1381 0 
L 213 4666 
z
" transform="scale(0.015625)"/>
      </defs>
      <use xlink:href="#DejaVuSans-6b"/>
      <use xlink:href="#DejaVuSans-57" x="57.910156"/>
     </g>
    </g>
   </g>
   <g id="line2d_12">
    <path d="M 52.638774 372.26556 
L 56.715879 368.433434 
L 60.792984 359.92473 
L 64.870089 338.750651 
L 68.947194 285.009264 
L 73.024299 183.861687 
L 77.101404 116.046632 
L 81.178509 143.933853 
L 85.255614 175.313377 
L 89.332718 201.407696 
L 93.409823 228.763149 
L 97.486928 244.473585 
L 101.564033 252.766199 
L 105.641138 252.589476 
L 109.718243 248.824289 
L 113.795348 239.564424 
L 117.872453 223.159786 
L 121.949558 200.739013 
L 126.026663 186.384611 
L 130.103768 203.110186 
L 134.180872 229.165835 
L 138.257977 283.829325 
L 142.335082 367.59473 
L 146.412187 375.692727 
L 150.489292 340.346136 
L 154.566397 334.548833 
L 158.643502 325.240275 
L 162.720607 308.671074 
L 166.797712 265.324597 
L 170.874817 171.791849 
L 174.951922 106.163136 
L 179.029026 121.653347 
L 183.106131 146.774452 
L 187.183236 169.096663 
L 191.260341 196.591855 
L 195.337446 213.088035 
L 199.414551 223.559868 
L 203.491656 225.075087 
L 207.568761 219.902829 
L 211.645866 208.575895 
L 215.722971 195.950274 
L 219.800076 175.509109 
L 223.87718 158.913401 
L 227.954285 173.006388 
L 232.03139 198.654248 
L 236.108495 249.54427 
L 240.1856 335.482083 
L 244.262705 344.245001 
L 248.33981 349.206697 
L 252.416915 343.649863 
L 256.49402 334.727418 
L 260.571125 318.845496 
L 264.64823 277.297002 
L 268.725335 187.643929 
L 272.802439 124.737451 
L 276.879544 139.585139 
L 280.956649 163.664237 
L 285.033754 185.060538 
L 289.110859 211.415247 
L 293.187964 227.227178 
L 297.265069 237.264646 
L 301.342174 238.717014 
L 305.419279 233.759299 
L 309.496384 222.902198 
L 313.573489 210.800279 
L 317.650593 191.207 
L 321.727698 175.299671 
L 325.804803 188.80809 
L 329.881908 213.392094 
L 333.959013 262.171232 
L 338.036118 344.544402 
L 342.113223 352.94384 
L 346.190328 349.206697 
L 350.267433 343.649863 
L 354.344538 334.727418 
L 358.421643 318.845496 
L 362.498747 277.297002 
L 366.575852 187.643929 
L 370.652957 124.737451 
L 374.730062 139.585139 
L 378.807167 163.664237 
L 382.884272 185.060538 
L 386.961377 211.415247 
L 391.038482 227.227178 
L 395.115587 237.264646 
L 399.192692 238.717014 
L 403.269797 233.759299 
L 407.346901 222.902198 
L 411.424006 210.800279 
L 415.501111 191.207 
L 419.578216 175.299671 
L 423.655321 188.80809 
L 427.732426 213.392094 
L 431.809531 262.171232 
L 435.886636 344.544402 
L 439.963741 352.94384 
L 444.040846 332.038194 
L 448.117951 326.015421 
L 452.195055 316.344831 
L 456.27216 299.131216 
L 460.349265 254.098894 
L 464.42637 156.928439 
L 468.503475 88.747273 
L 472.58058 104.839935 
L 476.657685 130.938058 
L 480.73479 154.128431 
L 484.811895 182.692975 
L 488.889 199.83073 
L 492.966105 210.709837 
L 497.04321 212.283986 
L 501.120314 206.910568 
L 505.197419 195.143103 
L 509.274524 182.026441 
L 513.351629 160.790272 
L 517.428734 143.549118 
L 521.505839 158.190214 
L 525.582944 184.835579 
L 529.660049 237.704833 
L 533.737154 326.984967 
L 537.814259 336.088695 
" clip-path="url(#p75d2a2f46a)" style="fill: none; stroke: #1f567d; stroke-width: 2; stroke-linecap: square"/>
    <defs>
     <path id="m6f4493d963" d="M 0 3 
C 0.795609 3 1.55874 2.683901 2.12132 2.12132 
C 2.683901 1.55874 3 0.795609 3 0 
C 3 -0.795609 2.683901 -1.55874 2.12132 -2.12132 
C 1.55874 -2.683901 0.795609 -3 0 -3 
C -0.795609 -3 -1.55874 -2.683901 -2.12132 -2.12132 
C -2.683901 -1.55874 -3 -0.795609 -3 0 
C -3 0.795609 -2.683901 1.55874 -2.12132 2.12132 
C -1.55874 2.683901 -0.795609 3 0 3 
z
" style="stroke: #1f567d"/>
    </defs>
    <g clip-path="url(#p75d2a2f46a)">
     <use xlink:href="#m6f4493d963" x="52.638774" y="372.26556" style="fill: #1f567d; stroke: #1f567d"/>
     <use xlink:href="#m6f4493d963" x="56.715879" y="368.433434" style="fill: #1f567d; stroke: #1f567d"/>
     <use xlink:href="#m6f4493d963" x="60.792984" y="359.92473" style="fill: #1f567d; stroke: #1f567d"/>
     <use xlink:href="#m6f4493d963" x="64.870089" y="338.750651" style="fill: #1f567d; stroke: #1f567d"/>
     <use xlink:href="#m6f4493d963" x="68.947194" y="285.009264" style="fill: #1f567d; stroke: #1f567d"/>
     <use xlink:href="#m6f4493d963" x="73.024299" y="183.861687" style="fill: #1f567d; stroke: #1f567d"/>
     <use xlink:href="#m6f4493d963" x="77.101404" y="116.046632" style="fill: #1f567d; stroke: #1f567d"/>
     <use xlink:href="#m6f4493d963" x="81.178509" y="143.933853" style="fill: #1f567d; stroke: #1f567d"/>
     <use xlink:href="#m6f4493d963" x="85.255614" y="175.313377" style="fill: #1f567d; stroke: #1f567d"/>
     <use xlink:href="#m6f4493d963" x="89.332718" y="201.407696" style="fill: #1f567d; stroke: #1f567d"/>
     <use xlink:href="#m6f4493d963" x="93.409823" y="228.763149" style="fill: #1f567d; stroke: #1f567d"/>
     <use xlink:href="#m6f4493d963" x="97.486928" y="244.473585" style="fill: #1f567d; stroke: #1f567d"/>
     <use xlink:href="#m6f4493d963" x="101.564033" y="252.766199" style="fill: #1f567d; stroke: #1f567d"/>
     <use xlink:href="#m6f4493d963" x="105.641138" y="252.589476" style="fill: #1f567d; stroke: #1f567d"/>
     <use xlink:href="#m6f4493d963" x="109.718243" y="248.824289" style="fill: #1f567d; stroke: #1f567d"/>
     <use xlink:href="#m6f4493d963" x="113.795348" y="239.564424" style="fill: #1f567d; stroke: #1f567d"/>
     <use xlink:href="#m6f4493d963" x="117.872453" y="223.159786" style="fill: #1f567d; stroke: #1f567d"/>
     <use xlink:href="#m6f4493d963" x="121.949558" y="200.739013" style="fill: #1f567d; stroke: #1f567d"/>
     <use xlink:href="#m6f4493d963" x="126.026663" y="186.384611" style="fill: #1f567d; stroke: #1f567d"/>
     <use xlink:href="#m6f4493d963" x="130.103768" y="203.110186" style="fill: #1f567d; stroke: #1f567d"/>
     <use xlink:href="#m6f4493d963" x="134.180872" y="229.165835" style="fill: #1f567d; stroke: #1f567d"/>
     <use xlink:href="#m6f4493d963" x="138.257977" y="283.829325" style="fill: #1f567d; stroke: #1f567d"/>
     <use xlink:href="#m6f4493d963" x="142.335082" y="367.59473" style="fill: #1f567d; stroke: #1f567d"/>
     <use xlink:href="#m6f4493d963" x="146.412187" y="375.692727" style="fill: #1f567d; stroke: #1f567d"/>
     <use xlink:href="#m6f4493d963" x="150.489292" y="340.346136" style="fill: #1f567d; stroke: #1f567d"/>
     <use xlink:href="#m6f4493d963" x="154.566397" y="334.548833" style="fill: #1f567d; stroke: #1f567d"/>
     <use xlink:href="#m6f4493d963" x="158.643502" y="325.240275" style="fill: #1f567d; stroke: #1f567d"/>
     <use xlink:href="#m6f4493d963" x="162.720607" y="308.671074" style="fill: #1f567d; stroke: #1f567d"/>
     <use xlink:href="#m6f4493d963" x="166.797712" y="265.324597" style="fill: #1f567d; stroke: #1f567d"/>
     <use xlink:href="#m6f4493d963" x="170.874817" y="171.791849" style="fill: #1f567d; stroke: #1f567d"/>
     <use xlink:href="#m6f4493d963" x="174.951922" y="106.163136" style="fill: #1f567d; stroke: #1f567d"/>
     <use xlink:href="#m6f4493d963" x="179.029026" y="121.653347" style="fill: #1f567d; stroke: #1f567d"/>
     <use xlink:href="#m6f4493d963" x="183.106131" y="146.774452" style="fill: #1f567d; stroke: #1f567d"/>
     <use xlink:href="#m6f4493d963" x="187.183236" y="169.096663" style="fill: #1f567d; stroke: #1f567d"/>
     <use xlink:href="#m6f4493d963" x="191.260341" y="196.591855" style="fill: #1f567d; stroke: #1f567d"/>
     <use xlink:href="#m6f4493d963" x="195.337446" y="213.088035" style="fill: #1f567d; stroke: #1f567d"/>
     <use xlink:href="#m6f4493d963" x="199.414551" y="223.559868" style="fill: #1f567d; stroke: #1f567d"/>
     <use xlink:href="#m6f4493d963" x="203.491656" y="225.075087" style="fill: #1f567d; stroke: #1f567d"/>
     <use xlink:href="#m6f4493d963" x="207.568761" y="219.902829" style="fill: #1f567d; stroke: #1f567d"/>
     <use xlink:href="#m6f4493d963" x="211.645866" y="208.575895" style="fill: #1f567d; stroke: #1f567d"/>
     <use xlink:href="#m6f4493d963" x="215.722971" y="195.950274" style="fill: #1f567d; stroke: #1f567d"/>
     <use xlink:href="#m6f4493d963" x="219.800076" y="175.509109" style="fill: #1f567d; stroke: #1f567d"/>
     <use xlink:href="#m6f4493d963" x="223.87718" y="158.913401" style="fill: #1f567d; stroke: #1f567d"/>
     <use xlink:href="#m6f4493d963" x="227.954285" y="173.006388" style="fill: #1f567d; stroke: #1f567d"/>
     <use xlink:href="#m6f4493d963" x="232.03139" y="198.654248" style="fill: #1f567d; stroke: #1f567d"/>
     <use xlink:href="#m6f4493d963" x="236.108495" y="249.54427" style="fill: #1f567d; stroke: #1f567d"/>
     <use xlink:href="#m6f4493d963" x="240.1856" y="335.482083" style="fill: #1f567d; stroke: #1f567d"/>
     <use xlink:href="#m6f4493d963" x="244.262705" y="344.245001" style="fill: #1f567d; stroke: #1f567d"/>
     <use xlink:href="#m6f4493d963" x="248.33981" y="349.206697" style="fill: #1f567d; stroke: #1f567d"/>
     <use xlink:href="#m6f4493d963" x="252.416915" y="343.649863" style="fill: #1f567d; stroke: #1f567d"/>
     <use xlink:href="#m6f4493d963" x="256.49402" y="334.727418" style="fill: #1f567d; stroke: #1f567d"/>
     <use xlink:href="#m6f4493d963" x="260.571125" y="318.845496" style="fill: #1f567d; stroke: #1f567d"/>
     <use xlink:href="#m6f4493d963" x="264.64823" y="277.297002" style="fill: #1f567d; stroke: #1f567d"/>
     <use xlink:href="#m6f4493d963" x="268.725335" y="187.643929" style="fill: #1f567d; stroke: #1f567d"/>
     <use xlink:href="#m6f4493d963" x="272.802439" y="124.737451" style="fill: #1f567d; stroke: #1f567d"/>
     <use xlink:href="#m6f4493d963" x="276.879544" y="139.585139" style="fill: #1f567d; stroke: #1f567d"/>
     <use xlink:href="#m6f4493d963" x="280.956649" y="163.664237" style="fill: #1f567d; stroke: #1f567d"/>
     <use xlink:href="#m6f4493d963" x="285.033754" y="185.060538" style="fill: #1f567d; stroke: #1f567d"/>
     <use xlink:href="#m6f4493d963" x="289.110859" y="211.415247" style="fill: #1f567d; stroke: #1f567d"/>
     <use xlink:href="#m6f4493d963" x="293.187964" y="227.227178" style="fill: #1f567d; stroke: #1f567d"/>
     <use xlink:href="#m6f4493d963" x="297.265069" y="237.264646" style="fill: #1f567d; stroke: #1f567d"/>
     <use xlink:href="#m6f4493d963" x="301.342174" y="238.717014" style="fill: #1f567d; stroke: #1f567d"/>
     <use xlink:href="#m6f4493d963" x="305.419279" y="233.759299" style="fill: #1f567d; stroke: #1f567d"/>
     <use xlink:href="#m6f4493d963" x="309.496384" y="222.902198" style="fill: #1f567d; stroke: #1f567d"/>
     <use xlink:href="#m6f4493d963" x="313.573489" y="210.800279" style="fill: #1f567d; stroke: #1f567d"/>
     <use xlink:href="#m6f4493d963" x="317.650593" y="191.207" style="fill: #1f567d; stroke: #1f567d"/>
     <use xlink:href="#m6f4493d963" x="321.727698" y="175.299671" style="fill: #1f567d; stroke: #1f567d"/>
     <use xlink:href="#m6f4493d963" x="325.804803" y="188.80809" style="fill: #1f567d; stroke: #1f567d"/>
     <use xlink:href="#m6f4493d963" x="329.881908" y="213.392094" style="fill: #1f567d; stroke: #1f567d"/>
     <use xlink:href="#m6f4493d963" x="333.959013" y="262.171232" style="fill: #1f567d; stroke: #1f567d"/>
     <use xlink:href="#m6f4493d963" x="338.036118" y="344.544402" style="fill: #1f567d; stroke: #1f567d"/>
     <use xlink:href="#m6f4493d963" x="342.113223" y="352.94384" style="fill: #1f567d; stroke: #1f567d"/>
     <use xlink:href="#m6f4493d963" x="346.190328" y="349.206697" style="fill: #1f567d; stroke: #1f567d"/>
     <use xlink:href="#m6f4493d963" x="350.267433" y="343.649863" style="fill: #1f567d; stroke: #1f567d"/>
     <use xlink:href="#m6f4493d963" x="354.344538" y="334.727418" style="fill: #1f567d; stroke: #1f567d"/>
     <use xlink:href="#m6f4493d963" x="358.421643" y="318.845496" style="fill: #1f567d; stroke: #1f567d"/>
     <use xlink:href="#m6f4493d963" x="362.498747" y="277.297002" style="fill: #1f567d; stroke: #1f567d"/>
     <use xlink:href="#m6f4493d963" x="366.575852" y="187.643929" style="fill: #1f567d; stroke: #1f567d"/>
     <use xlink:href="#m6f4493d963" x="370.652957" y="124.737451" style="fill: #1f567d; stroke: #1f567d"/>
     <use xlink:href="#m6f4493d963" x="374.730062" y="139.585139" style="fill: #1f567d; stroke: #1f567d"/>
     <use xlink:href="#m6f4493d963" x="378.807167" y="163.664237" style="fill: #1f567d; stroke: #1f567d"/>
     <use xlink:href="#m6f4493d963" x="382.884272" y="185.060538" style="fill: #1f567d; stroke: #1f567d"/>
     <use xlink:href="#m6f4493d963" x="386.961377" y="211.415247" style="fill: #1f567d; stroke: #1f567d"/>
     <use xlink:href="#m6f4493d963" x="391.038482" y="227.227178" style="fill: #1f567d; stroke: #1f567d"/>
     <use xlink:href="#m6f4493d963" x="395.115587" y="237.264646" style="fill: #1f567d; stroke: #1f567d"/>
     <use xlink:href="#m6f4493d963" x="399.192692" y="238.717014" style="fill: #1f567d; stroke: #1f567d"/>
     <use xlink:href="#m6f4493d963" x="403.269797" y="233.759299" style="fill: #1f567d; stroke: #1f567d"/>
     <use xlink:href="#m6f4493d963" x="407.346901" y="222.902198" style="fill: #1f567d; stroke: #1f567d"/>
     <use xlink:href="#m6f4493d963" x="411.424006" y="210.800279" style="fill: #1f567d; stroke: #1f567d"/>
     <use xlink:href="#m6f4493d963" x="415.501111" y="191.207" style="fill: #1f567d; stroke: #1f567d"/>
     <use xlink:href="#m6f4493d963" x="419.578216" y="175.299671" style="fill: #1f567d; stroke: #1f567d"/>
     <use xlink:href="#m6f4493d963" x="423.655321" y="188.80809" style="fill: #1f567d; stroke: #1f567d"/>
     <use xlink:href="#m6f4493d963" x="427.732426" y="213.392094" style="fill: #1f567d; stroke: #1f567d"/>
     <use xlink:href="#m6f4493d963" x="431.809531" y="262.171232" style="fill: #1f567d; stroke: #1f567d"/>
     <use xlink:href="#m6f4493d963" x="435.886636" y="344.544402" style="fill: #1f567d; stroke: #1f567d"/>
     <use xlink:href="#m6f4493d963" x="439.963741" y="352.94384" style="fill: #1f567d; stroke: #1f567d"/>
     <use xlink:href="#m6f4493d963" x="444.040846" y="332.038194" style="fill: #1f567d; stroke: #1f567d"/>
     <use xlink:href="#m6f4493d963" x="448.117951" y="326.015421" style="fill: #1f567d; stroke: #1f567d"/>
     <use xlink:href="#m6f4493d963" x="452.195055" y="316.344831" style="fill: #1f567d; stroke: #1f567d"/>
     <use xlink:href="#m6f4493d963" x="456.27216" y="299.131216" style="fill: #1f567d; stroke: #1f567d"/>
     <use xlink:href="#m6f4493d963" x="460.349265" y="254.098894" style="fill: #1f567d; stroke: #1f567d"/>
     <use xlink:href="#m6f4493d963" x="464.42637" y="156.928439" style="fill: #1f567d; stroke: #1f567d"/>
     <use xlink:href="#m6f4493d963" x="468.503475" y="88.747273" style="fill: #1f567d; stroke: #1f567d"/>
     <use xlink:href="#m6f4493d963" x="472.58058" y="104.839935" style="fill: #1f567d; stroke: #1f567d"/>
     <use xlink:href="#m6f4493d963" x="476.657685" y="130.938058" style="fill: #1f567d; stroke: #1f567d"/>
     <use xlink:href="#m6f4493d963" x="480.73479" y="154.128431" style="fill: #1f567d; stroke: #1f567d"/>
     <use xlink:href="#m6f4493d963" x="484.811895" y="182.692975" style="fill: #1f567d; stroke: #1f567d"/>
     <use xlink:href="#m6f4493d963" x="488.889" y="199.83073" style="fill: #1f567d; stroke: #1f567d"/>
     <use xlink:href="#m6f4493d963" x="492.966105" y="210.709837" style="fill: #1f567d; stroke: #1f567d"/>
     <use xlink:href="#m6f4493d963" x="497.04321" y="212.283986" style="fill: #1f567d; stroke: #1f567d"/>
     <use xlink:href="#m6f4493d963" x="501.120314" y="206.910568" style="fill: #1f567d; stroke: #1f567d"/>
     <use xlink:href="#m6f4493d963" x="505.197419" y="195.143103" style="fill: #1f567d; stroke: #1f567d"/>
     <use xlink:href="#m6f4493d963" x="509.274524" y="182.026441" style="fill: #1f567d; stroke: #1f567d"/>
     <use xlink:href="#m6f4493d963" x="513.351629" y="160.790272" style="fill: #1f567d; stroke: #1f567d"/>
     <use xlink:href="#m6f4493d963" x="517.428734" y="143.549118" style="fill: #1f567d; stroke: #1f567d"/>
     <use xlink:href="#m6f4493d963" x="521.505839" y="158.190214" style="fill: #1f567d; stroke: #1f567d"/>
     <use xlink:href="#m6f4493d963" x="525.582944" y="184.835579" style="fill: #1f567d; stroke: #1f567d"/>
     <use xlink:href="#m6f4493d963" x="529.660049" y="237.704833" style="fill: #1f567d; stroke: #1f567d"/>
     <use xlink:href="#m6f4493d963" x="533.737154" y="326.984967" style="fill: #1f567d; stroke: #1f567d"/>
     <use xlink:href="#m6f4493d963" x="537.814259" y="336.088695" style="fill: #1f567d; stroke: #1f567d"/>
    </g>
   </g>
   <g id="patch_3">
    <path d="M 28.38 390.04 
L 28.38 74.4 
" style="fill: none; stroke: #000000; stroke-width: 0.8; stroke-linejoin: miter; stroke-linecap: square"/>
   </g>
   <g id="patch_4">
    <path d="M 562.073033 390.04 
L 562.073033 74.4 
" style="fill: none; stroke: #000000; stroke-width: 0.8; stroke-linejoin: miter; stroke-linecap: square"/>
   </g>
   <g id="patch_5">
    <path d="M 28.38 390.04 
L 562.073033 390.04 
" style="fill: none; stroke: #000000; stroke-width: 0.8; stroke-linejoin: miter; stroke-linecap: square"/>
   </g>
   <g id="patch_6">
    <path d="M 28.38 74.4 
L 562.073033 74.4 
" style="fill: none; stroke: #000000; stroke-width: 0.8; stroke-linejoin: miter; stroke-linecap: square"/>
   </g>
   <g id="text_9">
    <!-- Dispatch Time Series (kW) -->
    <g transform="translate(202.717141 68.4) scale(0.14 -0.14)">
     <defs>
      <path id="DejaVuSans-44" d="M 1259 4147 
L 1259 519 
L 2022 519 
Q 2988 519 3436 956 
Q 3884 1394 3884 2338 
Q 3884 3275 3436 3711 
Q 2988 4147 2022 4147 
L 1259 4147 
z
M 628 4666 
L 1925 4666 
Q 3281 4666 3915 4102 
Q 4550 3538 4550 2338 
Q 4550 1131 3912 565 
Q 3275 0 1925 0 
L 628 0 
L 628 4666 
z
" transform="scale(0.015625)"/>
      <path id="DejaVuSans-73" d="M 2834 3397 
L 2834 2853 
Q 2591 2978 2328 3040 
Q 2066 3103 1784 3103 
Q 1356 3103 1142 2972 
Q 928 2841 928 2578 
Q 928 2378 1081 2264 
Q 1234 2150 1697 2047 
L 1894 2003 
Q 2506 1872 2764 1633 
Q 3022 1394 3022 966 
Q 3022 478 2636 193 
Q 2250 -91 1575 -91 
Q 1294 -91 989 -36 
Q 684 19 347 128 
L 347 722 
Q 666 556 975 473 
Q 1284 391 1588 391 
Q 1994 391 2212 530 
Q 2431 669 2431 922 
Q 2431 1156 2273 1281 
Q 2116 1406 1581 1522 
L 1381 1569 
Q 847 1681 609 1914 
Q 372 2147 372 2553 
Q 372 3047 722 3315 
Q 1072 3584 1716 3584 
Q 2034 3584 2315 3537 
Q 2597 3491 2834 3397 
z
" transform="scale(0.015625)"/>
      <path id="DejaVuSans-70" d="M 1159 525 
L 1159 -1331 
L 581 -1331 
L 581 3500 
L 1159 3500 
L 1159 2969 
Q 1341 3281 1617 3432 
Q 1894 3584 2278 3584 
Q 2916 3584 3314 3078 
Q 3713 2572 3713 1747 
Q 3713 922 3314 415 
Q 2916 -91 2278 -91 
Q 1894 -91 1617 61 
Q 1341 213 1159 525 
z
M 3116 1747 
Q 3116 2381 2855 2742 
Q 2594 3103 2138 3103 
Q 1681 3103 1420 2742 
Q 1159 2381 1159 1747 
Q 1159 1113 1420 752 
Q 1681 391 2138 391 
Q 2594 391 2855 752 
Q 3116 1113 3116 1747 
z
" transform="scale(0.015625)"/>
      <path id="DejaVuSans-61" d="M 2194 1759 
Q 1497 1759 1228 1600 
Q 959 1441 959 1056 
Q 959 750 1161 570 
Q 1363 391 1709 391 
Q 2188 391 2477 730 
Q 2766 1069 2766 1631 
L 2766 1759 
L 2194 1759 
z
M 3341 1997 
L 3341 0 
L 2766 0 
L 2766 531 
Q 2569 213 2275 61 
Q 1981 -91 1556 -91 
Q 1019 -91 701 211 
Q 384 513 384 1019 
Q 384 1609 779 1909 
Q 1175 2209 1959 2209 
L 2766 2209 
L 2766 2266 
Q 2766 2663 2505 2880 
Q 2244 3097 1772 3097 
Q 1472 3097 1187 3025 
Q 903 2953 641 2809 
L 641 3341 
Q 956 3463 1253 3523 
Q 1550 3584 1831 3584 
Q 2591 3584 2966 3190 
Q 3341 2797 3341 1997 
z
" transform="scale(0.015625)"/>
      <path id="DejaVuSans-74" d="M 1172 4494 
L 1172 3500 
L 2356 3500 
L 2356 3053 
L 1172 3053 
L 1172 1153 
Q 1172 725 1289 603 
Q 1406 481 1766 481 
L 2356 481 
L 2356 0 
L 1766 0 
Q 1100 0 847 248 
Q 594 497 594 1153 
L 594 3053 
L 172 3053 
L 172 3500 
L 594 3500 
L 594 4494 
L 1172 4494 
z
" transform="scale(0.015625)"/>
      <path id="DejaVuSans-63" d="M 3122 3366 
L 3122 2828 
Q 2878 2963 2633 3030 
Q 2388 3097 2138 3097 
Q 1578 3097 1268 2742 
Q 959 2388 959 1747 
Q 959 1106 1268 751 
Q 1578 397 2138 397 
Q 2388 397 2633 464 
Q 2878 531 3122 666 
L 3122 134 
Q 2881 22 2623 -34 
Q 2366 -91 2075 -91 
Q 1284 -91 818 406 
Q 353 903 353 1747 
Q 353 2603 823 3093 
Q 1294 3584 2113 3584 
Q 2378 3584 2631 3529 
Q 2884 3475 3122 3366 
z
" transform="scale(0.015625)"/>
      <path id="DejaVuSans-68" d="M 3513 2113 
L 3513 0 
L 2938 0 
L 2938 2094 
Q 2938 2591 2744 2837 
Q 2550 3084 2163 3084 
Q 1697 3084 1428 2787 
Q 1159 2491 1159 1978 
L 1159 0 
L 581 0 
L 581 4863 
L 1159 4863 
L 1159 2956 
Q 1366 3272 1645 3428 
Q 1925 3584 2291 3584 
Q 2894 3584 3203 3211 
Q 3513 2838 3513 2113 
z
" transform="scale(0.015625)"/>
      <path id="DejaVuSans-20" transform="scale(0.015625)"/>
      <path id="DejaVuSans-53" d="M 3425 4513 
L 3425 3897 
Q 3066 4069 2747 4153 
Q 2428 4238 2131 4238 
Q 1616 4238 1336 4038 
Q 1056 3838 1056 3469 
Q 1056 3159 1242 3001 
Q 1428 2844 1947 2747 
L 2328 2669 
Q 3034 2534 3370 2195 
Q 3706 1856 3706 1288 
Q 3706 609 3251 259 
Q 2797 -91 1919 -91 
Q 1588 -91 1214 -16 
Q 841 59 441 206 
L 441 856 
Q 825 641 1194 531 
Q 1563 422 1919 422 
Q 2459 422 2753 634 
Q 3047 847 3047 1241 
Q 3047 1584 2836 1778 
Q 2625 1972 2144 2069 
L 1759 2144 
Q 1053 2284 737 2584 
Q 422 2884 422 3419 
Q 422 4038 858 4394 
Q 1294 4750 2059 4750 
Q 2388 4750 2728 4690 
Q 3069 4631 3425 4513 
z
" transform="scale(0.015625)"/>
      <path id="DejaVuSans-72" d="M 2631 2963 
Q 2534 3019 2420 3045 
Q 2306 3072 2169 3072 
Q 1681 3072 1420 2755 
Q 1159 2438 1159 1844 
L 1159 0 
L 581 0 
L 581 3500 
L 1159 3500 
L 1159 2956 
Q 1341 3275 1631 3429 
Q 1922 3584 2338 3584 
Q 2397 3584 2469 3576 
Q 2541 3569 2628 3553 
L 2631 2963 
z
" transform="scale(0.015625)"/>
      <path id="DejaVuSans-28" d="M 1984 4856 
Q 1566 4138 1362 3434 
Q 1159 2731 1159 2009 
Q 1159 1288 1364 580 
Q 1569 -128 1984 -844 
L 1484 -844 
Q 1016 -109 783 600 
Q 550 1309 550 2009 
Q 550 2706 781 3412 
Q 1013 4119 1484 4856 
L 1984 4856 
z
" transform="scale(0.015625)"/>
      <path id="DejaVuSans-29" d="M 513 4856 
L 1013 4856 
Q 1481 4119 1714 3412 
Q 1947 2706 1947 2009 
Q 1947 1309 1714 600 
Q 1481 -109 1013 -844 
L 513 -844 
Q 928 -128 1133 580 
Q 1338 1288 1338 2009 
Q 1338 2731 1133 3434 
Q 928 4138 513 4856 
z
" transform="scale(0.015625)"/>
     </defs>
     <use xlink:href="#DejaVuSans-44"/>
     <use xlink:href="#DejaVuSans-69" x="77.001953"/>
     <use xlink:href="#DejaVuSans-73" x="104.785156"/>
     <use xlink:href="#DejaVuSans-70" x="156.884766"/>
     <use xlink:href="#DejaVuSans-61" x="220.361328"/>
     <use xlink:href="#DejaVuSans-74" x="281.640625"/>
     <use xlink:href="#DejaVuSans-63" x="320.849609"/>
     <use xlink:href="#DejaVuSans-68" x="375.830078"/>
     <use xlink:href="#DejaVuSans-20" x="439.208984"/>
     <use xlink:href="#DejaVuSans-54" x="470.996094"/>
     <use xlink:href="#DejaVuSans-69" x="528.955078"/>
     <use xlink:href="#DejaVuSans-6d" x="556.738281"/>
     <use xlink:href="#DejaVuSans-65" x="654.150391"/>
     <use xlink:href="#DejaVuSans-20" x="715.673828"/>
     <use xlink:href="#DejaVuSans-53" x="747.460938"/>
     <use xlink:href="#DejaVuSans-65" x="810.9375"/>
     <use xlink:href="#DejaVuSans-72" x="872.460938"/>
     <use xlink:href="#DejaVuSans-69" x="913.574219"/>
     <use xlink:href="#DejaVuSans-65" x="941.357422"/>
     <use xlink:href="#DejaVuSans-73" x="1002.880859"/>
     <use xlink:href="#DejaVuSans-20" x="1054.980469"/>
     <use xlink:href="#DejaVuSans-28" x="1086.767578"/>
     <use xlink:href="#DejaVuSans-6b" x="1125.78125"/>
     <use xlink:href="#DejaVuSans-57" x="1183.691406"/>
     <use xlink:href="#DejaVuSans-29" x="1282.568359"/>
    </g>
   </g>
  </g>
  <g id="axes_2">
   <g id="patch_7">
    <path d="M 607.506967 390.04 
L 1141.2 390.04 
L 1141.2 74.4 
L 607.506967 74.4 
z
" style="fill: #ffffff"/>
   </g>
   <g id="patch_8">
    <path d="M 631.765741 390.04 
L 733.907949 390.04 
L 733.907949 312.701019 
L 631.765741 312.701019 
z
" clip-path="url(#p5dfb15dcb4)" style="fill: #fba870; stroke: #000000; stroke-width: 1.5; stroke-linejoin: miter"/>
   </g>
   <g id="patch_9">
    <path d="M 759.4435 390.04 
L 861.585708 390.04 
L 861.585708 166.75664 
L 759.4435 166.75664 
z
" clip-path="url(#p5dfb15dcb4)" style="fill: #ff4c99; stroke: #000000; stroke-width: 1.5; stroke-linejoin: miter"/>
   </g>
   <g id="patch_10">
    <path d="M 887.121259 390.04 
L 989.263467 390.04 
L 989.263467 89.430476 
L 887.121259 89.430476 
z
" clip-path="url(#p5dfb15dcb4)" style="fill: #adc2bd; stroke: #000000; stroke-width: 1.5; stroke-linejoin: miter"/>
   </g>
   <g id="patch_11">
    <path d="M 1014.799019 390.04 
L 1116.941226 390.04 
L 1116.941226 299.857143 
L 1014.799019 299.857143 
z
" clip-path="url(#p5dfb15dcb4)" style="fill: #fffd9f; stroke: #000000; stroke-width: 1.5; stroke-linejoin: miter"/>
   </g>
   <g id="matplotlib.axis_3">
    <g id="xtick_7">
     <g id="line2d_13">
      <g>
       <use xlink:href="#m48fb29d063" x="682.836845" y="390.04" style="stroke: #000000; stroke-width: 0.8"/>
      </g>
     </g>
     <g id="text_10">
      <!-- PV -->
      <g transform="translate(676.401689 404.638438) scale(0.1 -0.1)">
       <defs>
        <path id="DejaVuSans-50" d="M 1259 4147 
L 1259 2394 
L 2053 2394 
Q 2494 2394 2734 2622 
Q 2975 2850 2975 3272 
Q 2975 3691 2734 3919 
Q 2494 4147 2053 4147 
L 1259 4147 
z
M 628 4666 
L 2053 4666 
Q 2838 4666 3239 4311 
Q 3641 3956 3641 3272 
Q 3641 2581 3239 2228 
Q 2838 1875 2053 1875 
L 1259 1875 
L 1259 0 
L 628 0 
L 628 4666 
z
" transform="scale(0.015625)"/>
        <path id="DejaVuSans-56" d="M 1831 0 
L 50 4666 
L 709 4666 
L 2188 738 
L 3669 4666 
L 4325 4666 
L 2547 0 
L 1831 0 
z
" transform="scale(0.015625)"/>
       </defs>
       <use xlink:href="#DejaVuSans-50"/>
       <use xlink:href="#DejaVuSans-56" x="60.302734"/>
      </g>
     </g>
    </g>
    <g id="xtick_8">
     <g id="line2d_14">
      <g>
       <use xlink:href="#m48fb29d063" x="810.514604" y="390.04" style="stroke: #000000; stroke-width: 0.8"/>
      </g>
     </g>
     <g id="text_11">
      <!-- Wind -->
      <g transform="translate(797.951323 404.638438) scale(0.1 -0.1)">
       <defs>
        <path id="DejaVuSans-6e" d="M 3513 2113 
L 3513 0 
L 2938 0 
L 2938 2094 
Q 2938 2591 2744 2837 
Q 2550 3084 2163 3084 
Q 1697 3084 1428 2787 
Q 1159 2491 1159 1978 
L 1159 0 
L 581 0 
L 581 3500 
L 1159 3500 
L 1159 2956 
Q 1366 3272 1645 3428 
Q 1925 3584 2291 3584 
Q 2894 3584 3203 3211 
Q 3513 2838 3513 2113 
z
" transform="scale(0.015625)"/>
        <path id="DejaVuSans-64" d="M 2906 2969 
L 2906 4863 
L 3481 4863 
L 3481 0 
L 2906 0 
L 2906 525 
Q 2725 213 2448 61 
Q 2172 -91 1784 -91 
Q 1150 -91 751 415 
Q 353 922 353 1747 
Q 353 2572 751 3078 
Q 1150 3584 1784 3584 
Q 2172 3584 2448 3432 
Q 2725 3281 2906 2969 
z
M 947 1747 
Q 947 1113 1208 752 
Q 1469 391 1925 391 
Q 2381 391 2643 752 
Q 2906 1113 2906 1747 
Q 2906 2381 2643 2742 
Q 2381 3103 1925 3103 
Q 1469 3103 1208 2742 
Q 947 2381 947 1747 
z
" transform="scale(0.015625)"/>
       </defs>
       <use xlink:href="#DejaVuSans-57"/>
       <use xlink:href="#DejaVuSans-69" x="96.626953"/>
       <use xlink:href="#DejaVuSans-6e" x="124.410156"/>
       <use xlink:href="#DejaVuSans-64" x="187.789062"/>
      </g>
     </g>
    </g>
    <g id="xtick_9">
     <g id="line2d_15">
      <g>
       <use xlink:href="#m48fb29d063" x="938.192363" y="390.04" style="stroke: #000000; stroke-width: 0.8"/>
      </g>
     </g>
     <g id="text_12">
      <!-- Heat Pump -->
      <g transform="translate(910.601738 404.638438) scale(0.1 -0.1)">
       <defs>
        <path id="DejaVuSans-48" d="M 628 4666 
L 1259 4666 
L 1259 2753 
L 3553 2753 
L 3553 4666 
L 4184 4666 
L 4184 0 
L 3553 0 
L 3553 2222 
L 1259 2222 
L 1259 0 
L 628 0 
L 628 4666 
z
" transform="scale(0.015625)"/>
        <path id="DejaVuSans-75" d="M 544 1381 
L 544 3500 
L 1119 3500 
L 1119 1403 
Q 1119 906 1312 657 
Q 1506 409 1894 409 
Q 2359 409 2629 706 
Q 2900 1003 2900 1516 
L 2900 3500 
L 3475 3500 
L 3475 0 
L 2900 0 
L 2900 538 
Q 2691 219 2414 64 
Q 2138 -91 1772 -91 
Q 1169 -91 856 284 
Q 544 659 544 1381 
z
M 1991 3584 
L 1991 3584 
z
" transform="scale(0.015625)"/>
       </defs>
       <use xlink:href="#DejaVuSans-48"/>
       <use xlink:href="#DejaVuSans-65" x="75.195312"/>
       <use xlink:href="#DejaVuSans-61" x="136.71875"/>
       <use xlink:href="#DejaVuSans-74" x="197.998047"/>
       <use xlink:href="#DejaVuSans-20" x="237.207031"/>
       <use xlink:href="#DejaVuSans-50" x="268.994141"/>
       <use xlink:href="#DejaVuSans-75" x="327.546875"/>
       <use xlink:href="#DejaVuSans-6d" x="390.925781"/>
       <use xlink:href="#DejaVuSans-70" x="488.337891"/>
      </g>
     </g>
    </g>
    <g id="xtick_10">
     <g id="line2d_16">
      <g>
       <use xlink:href="#m48fb29d063" x="1065.870122" y="390.04" style="stroke: #000000; stroke-width: 0.8"/>
      </g>
     </g>
     <g id="text_13">
      <!-- Solarthermie -->
      <g transform="translate(1033.61856 404.638438) scale(0.1 -0.1)">
       <defs>
        <path id="DejaVuSans-6f" d="M 1959 3097 
Q 1497 3097 1228 2736 
Q 959 2375 959 1747 
Q 959 1119 1226 758 
Q 1494 397 1959 397 
Q 2419 397 2687 759 
Q 2956 1122 2956 1747 
Q 2956 2369 2687 2733 
Q 2419 3097 1959 3097 
z
M 1959 3584 
Q 2709 3584 3137 3096 
Q 3566 2609 3566 1747 
Q 3566 888 3137 398 
Q 2709 -91 1959 -91 
Q 1206 -91 779 398 
Q 353 888 353 1747 
Q 353 2609 779 3096 
Q 1206 3584 1959 3584 
z
" transform="scale(0.015625)"/>
        <path id="DejaVuSans-6c" d="M 603 4863 
L 1178 4863 
L 1178 0 
L 603 0 
L 603 4863 
z
" transform="scale(0.015625)"/>
       </defs>
       <use xlink:href="#DejaVuSans-53"/>
       <use xlink:href="#DejaVuSans-6f" x="63.476562"/>
       <use xlink:href="#DejaVuSans-6c" x="124.658203"/>
       <use xlink:href="#DejaVuSans-61" x="152.441406"/>
       <use xlink:href="#DejaVuSans-72" x="213.720703"/>
       <use xlink:href="#DejaVuSans-74" x="254.833984"/>
       <use xlink:href="#DejaVuSans-68" x="294.042969"/>
       <use xlink:href="#DejaVuSans-65" x="357.421875"/>
       <use xlink:href="#DejaVuSans-72" x="418.945312"/>
       <use xlink:href="#DejaVuSans-6d" x="458.308594"/>
       <use xlink:href="#DejaVuSans-69" x="555.720703"/>
       <use xlink:href="#DejaVuSans-65" x="583.503906"/>
      </g>
     </g>
    </g>
   </g>
   <g id="matplotlib.axis_4">
    <g id="ytick_6">
     <g id="line2d_17">
      <g>
       <use xlink:href="#m29393386fa" x="607.506967" y="390.04" style="stroke: #000000; stroke-width: 0.8"/>
      </g>
     </g>
    </g>
    <g id="ytick_7">
     <g id="line2d_18">
      <g>
       <use xlink:href="#m29393386fa" x="607.506967" y="339.938413" style="stroke: #000000; stroke-width: 0.8"/>
      </g>
     </g>
    </g>
    <g id="ytick_8">
     <g id="line2d_19">
      <g>
       <use xlink:href="#m29393386fa" x="607.506967" y="289.836825" style="stroke: #000000; stroke-width: 0.8"/>
      </g>
     </g>
    </g>
    <g id="ytick_9">
     <g id="line2d_20">
      <g>
       <use xlink:href="#m29393386fa" x="607.506967" y="239.735238" style="stroke: #000000; stroke-width: 0.8"/>
      </g>
     </g>
    </g>
    <g id="ytick_10">
     <g id="line2d_21">
      <g>
       <use xlink:href="#m29393386fa" x="607.506967" y="189.633651" style="stroke: #000000; stroke-width: 0.8"/>
      </g>
     </g>
    </g>
    <g id="ytick_11">
     <g id="line2d_22">
      <g>
       <use xlink:href="#m29393386fa" x="607.506967" y="139.532063" style="stroke: #000000; stroke-width: 0.8"/>
      </g>
     </g>
    </g>
    <g id="ytick_12">
     <g id="line2d_23">
      <g>
       <use xlink:href="#m29393386fa" x="607.506967" y="89.430476" style="stroke: #000000; stroke-width: 0.8"/>
      </g>
     </g>
    </g>
    <g id="text_14">
     <!-- Average Value -->
     <g transform="translate(597.095405 282.414375) rotate(-90) scale(0.14 -0.14)">
      <defs>
       <path id="DejaVuSans-41" d="M 2188 4044 
L 1331 1722 
L 3047 1722 
L 2188 4044 
z
M 1831 4666 
L 2547 4666 
L 4325 0 
L 3669 0 
L 3244 1197 
L 1141 1197 
L 716 0 
L 50 0 
L 1831 4666 
z
" transform="scale(0.015625)"/>
       <path id="DejaVuSans-76" d="M 191 3500 
L 800 3500 
L 1894 563 
L 2988 3500 
L 3597 3500 
L 2284 0 
L 1503 0 
L 191 3500 
z
" transform="scale(0.015625)"/>
       <path id="DejaVuSans-67" d="M 2906 1791 
Q 2906 2416 2648 2759 
Q 2391 3103 1925 3103 
Q 1463 3103 1205 2759 
Q 947 2416 947 1791 
Q 947 1169 1205 825 
Q 1463 481 1925 481 
Q 2391 481 2648 825 
Q 2906 1169 2906 1791 
z
M 3481 434 
Q 3481 -459 3084 -895 
Q 2688 -1331 1869 -1331 
Q 1566 -1331 1297 -1286 
Q 1028 -1241 775 -1147 
L 775 -588 
Q 1028 -725 1275 -790 
Q 1522 -856 1778 -856 
Q 2344 -856 2625 -561 
Q 2906 -266 2906 331 
L 2906 616 
Q 2728 306 2450 153 
Q 2172 0 1784 0 
Q 1141 0 747 490 
Q 353 981 353 1791 
Q 353 2603 747 3093 
Q 1141 3584 1784 3584 
Q 2172 3584 2450 3431 
Q 2728 3278 2906 2969 
L 2906 3500 
L 3481 3500 
L 3481 434 
z
" transform="scale(0.015625)"/>
      </defs>
      <use xlink:href="#DejaVuSans-41"/>
      <use xlink:href="#DejaVuSans-76" x="62.533203"/>
      <use xlink:href="#DejaVuSans-65" x="121.712891"/>
      <use xlink:href="#DejaVuSans-72" x="183.236328"/>
      <use xlink:href="#DejaVuSans-61" x="224.349609"/>
      <use xlink:href="#DejaVuSans-67" x="285.628906"/>
      <use xlink:href="#DejaVuSans-65" x="349.105469"/>
      <use xlink:href="#DejaVuSans-20" x="410.628906"/>
      <use xlink:href="#DejaVuSans-56" x="442.416016"/>
      <use xlink:href="#DejaVuSans-61" x="503.074219"/>
      <use xlink:href="#DejaVuSans-6c" x="564.353516"/>
      <use xlink:href="#DejaVuSans-75" x="592.136719"/>
      <use xlink:href="#DejaVuSans-65" x="655.515625"/>
     </g>
    </g>
   </g>
   <g id="patch_12">
    <path d="M 607.506967 390.04 
L 607.506967 74.4 
" style="fill: none; stroke: #000000; stroke-width: 0.8; stroke-linejoin: miter; stroke-linecap: square"/>
   </g>
   <g id="patch_13">
    <path d="M 1141.2 390.04 
L 1141.2 74.4 
" style="fill: none; stroke: #000000; stroke-width: 0.8; stroke-linejoin: miter; stroke-linecap: square"/>
   </g>
   <g id="patch_14">
    <path d="M 607.506967 390.04 
L 1141.2 390.04 
" style="fill: none; stroke: #000000; stroke-width: 0.8; stroke-linejoin: miter; stroke-linecap: square"/>
   </g>
   <g id="patch_15">
    <path d="M 607.506967 74.4 
L 1141.2 74.4 
" style="fill: none; stroke: #000000; stroke-width: 0.8; stroke-linejoin: miter; stroke-linecap: square"/>
   </g>
   <g id="text_15">
    <!-- Investment Technology Sizes -->
    <g transform="translate(773.02739 68.4) scale(0.14 -0.14)">
     <defs>
      <path id="DejaVuSans-49" d="M 628 4666 
L 1259 4666 
L 1259 0 
L 628 0 
L 628 4666 
z
" transform="scale(0.015625)"/>
      <path id="DejaVuSans-79" d="M 2059 -325 
Q 1816 -950 1584 -1140 
Q 1353 -1331 966 -1331 
L 506 -1331 
L 506 -850 
L 844 -850 
Q 1081 -850 1212 -737 
Q 1344 -625 1503 -206 
L 1606 56 
L 191 3500 
L 800 3500 
L 1894 763 
L 2988 3500 
L 3597 3500 
L 2059 -325 
z
" transform="scale(0.015625)"/>
      <path id="DejaVuSans-7a" d="M 353 3500 
L 3084 3500 
L 3084 2975 
L 922 459 
L 3084 459 
L 3084 0 
L 275 0 
L 275 525 
L 2438 3041 
L 353 3041 
L 353 3500 
z
" transform="scale(0.015625)"/>
     </defs>
     <use xlink:href="#DejaVuSans-49"/>
     <use xlink:href="#DejaVuSans-6e" x="29.492188"/>
     <use xlink:href="#DejaVuSans-76" x="92.871094"/>
     <use xlink:href="#DejaVuSans-65" x="152.050781"/>
     <use xlink:href="#DejaVuSans-73" x="213.574219"/>
     <use xlink:href="#DejaVuSans-74" x="265.673828"/>
     <use xlink:href="#DejaVuSans-6d" x="304.882812"/>
     <use xlink:href="#DejaVuSans-65" x="402.294922"/>
     <use xlink:href="#DejaVuSans-6e" x="463.818359"/>
     <use xlink:href="#DejaVuSans-74" x="527.197266"/>
     <use xlink:href="#DejaVuSans-20" x="566.40625"/>
     <use xlink:href="#DejaVuSans-54" x="598.193359"/>
     <use xlink:href="#DejaVuSans-65" x="642.277344"/>
     <use xlink:href="#DejaVuSans-63" x="703.800781"/>
     <use xlink:href="#DejaVuSans-68" x="758.78125"/>
     <use xlink:href="#DejaVuSans-6e" x="822.160156"/>
     <use xlink:href="#DejaVuSans-6f" x="885.539062"/>
     <use xlink:href="#DejaVuSans-6c" x="946.720703"/>
     <use xlink:href="#DejaVuSans-6f" x="974.503906"/>
     <use xlink:href="#DejaVuSans-67" x="1035.685547"/>
     <use xlink:href="#DejaVuSans-79" x="1099.162109"/>
     <use xlink:href="#DejaVuSans-20" x="1158.341797"/>
     <use xlink:href="#DejaVuSans-53" x="1190.128906"/>
     <use xlink:href="#DejaVuSans-69" x="1253.605469"/>
     <use xlink:href="#DejaVuSans-7a" x="1281.388672"/>
     <use xlink:href="#DejaVuSans-65" x="1333.878906"/>
     <use xlink:href="#DejaVuSans-73" x="1395.402344"/>
    </g>
   </g>
  </g>
  <g id="text_16">
   <!-- Dispatch vs. Invest-Optimization -->
   <g transform="translate(445.66125 20.7975) scale(0.16 -0.16)">
    <defs>
     <path id="DejaVuSans-2e" d="M 684 794 
L 1344 794 
L 1344 0 
L 684 0 
L 684 794 
z
" transform="scale(0.015625)"/>
     <path id="DejaVuSans-4f" d="M 2522 4238 
Q 1834 4238 1429 3725 
Q 1025 3213 1025 2328 
Q 1025 1447 1429 934 
Q 1834 422 2522 422 
Q 3209 422 3611 934 
Q 4013 1447 4013 2328 
Q 4013 3213 3611 3725 
Q 3209 4238 2522 4238 
z
M 2522 4750 
Q 3503 4750 4090 4092 
Q 4678 3434 4678 2328 
Q 4678 1225 4090 567 
Q 3503 -91 2522 -91 
Q 1538 -91 948 565 
Q 359 1222 359 2328 
Q 359 3434 948 4092 
Q 1538 4750 2522 4750 
z
" transform="scale(0.015625)"/>
    </defs>
    <use xlink:href="#DejaVuSans-44"/>
    <use xlink:href="#DejaVuSans-69" x="77.001953"/>
    <use xlink:href="#DejaVuSans-73" x="104.785156"/>
    <use xlink:href="#DejaVuSans-70" x="156.884766"/>
    <use xlink:href="#DejaVuSans-61" x="220.361328"/>
    <use xlink:href="#DejaVuSans-74" x="281.640625"/>
    <use xlink:href="#DejaVuSans-63" x="320.849609"/>
    <use xlink:href="#DejaVuSans-68" x="375.830078"/>
    <use xlink:href="#DejaVuSans-20" x="439.208984"/>
    <use xlink:href="#DejaVuSans-76" x="470.996094"/>
    <use xlink:href="#DejaVuSans-73" x="530.175781"/>
    <use xlink:href="#DejaVuSans-2e" x="582.275391"/>
    <use xlink:href="#DejaVuSans-20" x="614.0625"/>
    <use xlink:href="#DejaVuSans-49" x="645.849609"/>
    <use xlink:href="#DejaVuSans-6e" x="675.341797"/>
    <use xlink:href="#DejaVuSans-76" x="738.720703"/>
    <use xlink:href="#DejaVuSans-65" x="797.900391"/>
    <use xlink:href="#DejaVuSans-73" x="859.423828"/>
    <use xlink:href="#DejaVuSans-74" x="911.523438"/>
    <use xlink:href="#DejaVuSans-2d" x="950.732422"/>
    <use xlink:href="#DejaVuSans-4f" x="989.566406"/>
    <use xlink:href="#DejaVuSans-70" x="1068.277344"/>
    <use xlink:href="#DejaVuSans-74" x="1131.753906"/>
    <use xlink:href="#DejaVuSans-69" x="1170.962891"/>
    <use xlink:href="#DejaVuSans-6d" x="1198.746094"/>
    <use xlink:href="#DejaVuSans-69" x="1296.158203"/>
    <use xlink:href="#DejaVuSans-7a" x="1323.941406"/>
    <use xlink:href="#DejaVuSans-61" x="1376.431641"/>
    <use xlink:href="#DejaVuSans-74" x="1437.710938"/>
    <use xlink:href="#DejaVuSans-69" x="1476.919922"/>
    <use xlink:href="#DejaVuSans-6f" x="1504.703125"/>
    <use xlink:href="#DejaVuSans-6e" x="1565.884766"/>
   </g>
  </g>
 </g>
 <defs>
  <clipPath id="p75d2a2f46a">
   <rect x="28.38" y="74.4" width="533.693033" height="315.64"/>
  </clipPath>
  <clipPath id="p5dfb15dcb4">
   <rect x="607.506967" y="74.4" width="533.693033" height="315.64"/>
  </clipPath>
 </defs>
</svg>
